<svg xmlns="http://www.w3.org/2000/svg" xml:space="preserve" width="100" height="100" viewBox="0 0 100 100">
  <g fill-rule="evenodd" clip-rule="evenodd">
    <path fill="#C7C6C6" d="M23.048 40.317c.428 3.215 25.226 6.469 41.51 3.567-.613-.351 31.118.322 31.279-1.774s-11.675-2.552-11.675-2.552c-14.452-2.343-15.077-2.446-30.73-2.446-15.639 0-30.812-.01-30.384 3.205z" opacity=".6"/>
    <path fill="#9A9999" d="M51.071 44.284c.126-4.685-2.941-10.812-11.986-11.034-11.059-.271-16.04 10.151-16.05 17.875-.008 6.147 5.429 15.529 16.022 15.469 14.855-.085 29.578 2.8 30.174-12.636.503-13.035-13.841-11.932-18.16-9.674z"/>
    <path fill="#C7C6C6" d="M30.762 57.597s7.739-3.87 22.089-3.547c14.35.322 32.892-.806 38.212 1.612 5.321 2.418 8.062 2.096 7.9 5.482-.161 3.386-32.569 5.321-50.305 4.031s-27.893-.806-27.732-4.353c.162-3.547 8.223-4.515 9.836-3.225zM2.265 46.423s19.832-5.966 34.181 0c.164-.299 7.144-.272 7.038 1.718-.105 1.99-13.649 5.86-17.807 2.857.001.001-31.151 3.487-23.412-4.575z" opacity=".6"/>
  </g>
</svg>
