<svg xmlns="http://www.w3.org/2000/svg" xml:space="preserve" width="100" height="100" viewBox="0 0 100 100">
  <path fill="#6FB2E2" d="M15.368 67.951c-.197.485-.991.62-1.773.302-.782-.318-1.256-.969-1.059-1.454l9.99-27.669c.197-.485.991-.62 1.773-.302.782.318 1.256.969 1.059 1.454l-9.99 27.669z"/>
  <path fill="#9A9999" fill-rule="evenodd" d="M36.595 26.948c.126-4.685-2.941-10.812-11.986-11.034-11.059-.271-16.04 10.151-16.05 17.875-.008 6.147 5.429 15.529 16.022 15.469 14.855-.085 29.578 2.8 30.174-12.636.503-13.035-13.841-11.932-18.16-9.674z" clip-rule="evenodd"/>
  <path fill="#6FB2E2" d="M48.702 83.617c-.197.485-.991.62-1.773.302-.782-.318-1.256-.969-1.059-1.454l9.99-27.669c.197-.485.991-.62 1.773-.302.782.318 1.256.969 1.059 1.454l-9.99 27.669zm11.054-5.869c-.197.485-.991.62-1.773.302-.782-.318-1.256-.969-1.059-1.454l7.697-21.547c.197-.485.991-.62 1.773-.302.782.318 1.256.969 1.059 1.454l-7.697 21.547zm24.141 3.724c-.197.485-.991.62-1.773.302-.782-.318-1.256-.969-1.059-1.454l10.8-28.844c.197-.485.991-.62 1.773-.302.782.318 1.256.969 1.059 1.454l-10.8 28.844z"/>
  <path fill="#797979" fill-rule="evenodd" d="M78.592 38.812c.126-4.685-2.946-10.658-11.986-11.034-11.988-.499-13.788 8.563-13.788 8.563s-13.01-3.489-13.01 8.673c0 13.551 14.784 10.701 14.784 10.701s.798 5.873 11.961 6.038c14.854.22 29.849.598 30.198-13.267.329-13.04-13.84-11.931-18.159-9.674z" clip-rule="evenodd"/>
  <path fill="#6FB2E2" d="M39.453 76.012c-.197.485-.991.62-1.773.302-.782-.318-1.256-.969-1.059-1.454l9.939-24.141c.197-.485.991-.62 1.773-.302.782.318 1.256.969 1.059 1.454l-9.939 24.141zm25.895 4.104c-.197.485-.991.62-1.773.302-.782-.318-1.256-.969-1.059-1.454l7.955-21.718c.197-.485.991-.62 1.773-.302.782.318 1.256.969 1.059 1.454l-7.955 21.718zm9.909-5.033c-.197.485-.991.62-1.773.302-.782-.318-1.256-.969-1.059-1.454l7.955-21.718c.197-.485.991-.62 1.773-.302.782.318 1.256.969 1.059 1.454l-7.955 21.718zM26.423 62.081c-.197.485-.991.62-1.773.302-.782-.318-1.256-.969-1.059-1.454l7.697-21.547c.197-.485.991-.62 1.773-.302.782.318 1.256.969 1.059 1.454l-7.697 21.547zM6.12 60.345c-.197.485-.991.62-1.773.302-.782-.318-1.256-.969-1.059-1.454l9.939-24.141c.197-.485.991-.62 1.773-.302.782.318 1.256.969 1.059 1.454L6.12 60.345z"/>
</svg>
