<svg xmlns="http://www.w3.org/2000/svg" xml:space="preserve" width="100" height="100" viewBox="0 0 100 100">
  <g fill="#3388C9">
    <circle cx="45.561" cy="29.8" r="19.109" opacity=".3"/>
    <path d="M49.198 30.992c2.425-7.464.004-15.327-5.517-20.217 1.995-.194 4.707-.141 7.732.843 10.038 3.26 15.53 14.042 12.269 24.079-3.261 10.037-14.042 15.53-24.079 12.267-2.575-.835-4.846-2.175-6.751-3.858 7.34-.712 13.921-5.655 16.346-13.114z"/>
  </g>
  <path fill="#6FB2E2" d="M55.753 72.544c-.197.485-.991.62-1.773.302-.782-.318-1.256-.969-1.059-1.454l5.357-13.17c.197-.485.991-.62 1.773-.302.782.318 1.256.969 1.059 1.454l-5.357 13.17z"/>
  <path fill="#797979" fill-rule="evenodd" d="M60.309 40.982c.126-4.685-2.946-10.658-11.986-11.034-11.988-.499-13.788 8.563-13.788 8.563s-13.01-3.489-13.01 8.673c0 13.551 14.784 10.701 14.784 10.701s.798 5.873 11.961 6.038c14.854.22 29.849.598 30.198-13.267.329-13.04-13.84-11.931-18.159-9.674z" clip-rule="evenodd"/>
  <path fill="#6FB2E2" d="M66.523 66.899c-.197.485-.991.62-1.773.302-.782-.318-1.256-.969-1.059-1.454l5.357-13.17c.197-.485.991-.62 1.773-.302.782.318 1.256.969 1.059 1.454l-5.357 13.17zm-6.398 16.226c-.197.485-.991.62-1.773.302-.782-.318-1.256-.969-1.059-1.454l3.232-8.74c.197-.485.991-.62 1.773-.302.782.318 1.256.969 1.059 1.454l-3.232 8.74zM49.142 65.116c-.197.485-.991.62-1.773.302-.782-.318-1.256-.969-1.059-1.454l3.232-8.74c.197-.485.991-.62 1.773-.302.782.318 1.256.969 1.059 1.454l-3.232 8.74zm1.589 18.974c-.197.485-.991.62-1.773.302-.782-.318-1.256-.969-1.059-1.454l2.068-5.596c.197-.485.991-.62 1.773-.302.782.318 1.256.969 1.059 1.454l-2.068 5.596zm-6.908-7.431c-.197.485-.991.62-1.773.302-.782-.318-1.256-.969-1.059-1.454l2.068-5.596c.197-.485.991-.62 1.773-.302.782.318 1.256.969 1.059 1.454l-2.068 5.596zm-16.808.724c-.197.485-.991.62-1.773.302-.782-.318-1.256-.969-1.059-1.454l2.068-5.596c.197-.485.991-.62 1.773-.302.782.318 1.256.969 1.059 1.454l-2.068 5.596z"/>
  <path fill="#F9B233" d="M26.906 89.314s20.678-32.223 19.719-32.457c-1.546-.377-10.37 1.626-10.278 1.34.557-1.747 6.432-13.282 5.47-13.389-2.229-.248-9.315-.408-12.071-.047-1.173.154-4.591 19.058-4.591 21.515 0 .595 8.438-.854 9.201-1.029.931-.213-7.45 24.067-7.45 24.067z"/>
</svg>
