<svg xmlns="http://www.w3.org/2000/svg" xml:space="preserve" width="100" height="100" viewBox="0 0 100 100">
  <g fill="#3388C9">
    <circle cx="62.554" cy="45.991" r="19.109" opacity=".3"/>
    <path d="M66.19 47.183c2.425-7.464.004-15.327-5.517-20.217 1.995-.194 4.707-.141 7.732.843 10.038 3.26 15.53 14.042 12.269 24.079-3.261 10.037-14.042 15.53-24.079 12.267-2.575-.835-4.846-2.175-6.751-3.858 7.341-.712 13.922-5.655 16.346-13.114z"/>
  </g>
  <path fill="#9A9999" fill-rule="evenodd" d="M46.368 50.651c.126-4.685-2.941-10.812-11.986-11.034-11.059-.271-16.04 10.151-16.05 17.875-.008 6.147 5.429 15.529 16.022 15.469 14.855-.085 29.578 2.8 30.174-12.636.503-13.034-13.841-11.931-18.16-9.674z" clip-rule="evenodd"/>
</svg>
