<svg xmlns="http://www.w3.org/2000/svg" xml:space="preserve" width="100" height="100" viewBox="0 0 100 100">
  <g fill="#3388C9">
    <circle cx="43.069" cy="64.268" r="19.109" opacity=".3"/>
    <path d="M46.705 65.461c2.425-7.464.004-15.327-5.517-20.217 1.995-.194 4.707-.141 7.732.843 10.038 3.26 15.53 14.042 12.269 24.079-3.261 10.037-14.042 15.53-24.079 12.267-2.575-.835-4.846-2.175-6.751-3.858 7.341-.713 13.922-5.655 16.346-13.114z"/>
  </g>
  <path fill="#F9B233" fill-rule="evenodd" d="m76.047 36.489-2.993 4.439 1.96 4.982-5.147-1.474-4.132 3.403-.188-5.35-4.514-2.879 5.03-1.832 1.343-5.183 3.297 4.219zm-16.641-7.894-2.993 4.44 1.96 4.982-5.147-1.475-4.132 3.404-.188-5.351-4.514-2.878 5.03-1.832 1.343-5.183 3.297 4.218zm8.872-9.667-1.776 2.635 1.163 2.956-3.054-.875-2.453 2.02-.111-3.175-2.679-1.708 2.985-1.088.797-3.075 1.956 2.503zm-33.831 8.686-1.776 2.634 1.163 2.957-3.054-.875-2.452 2.02-.112-3.175-2.678-1.708 2.985-1.088.797-3.075 1.956 2.503z" clip-rule="evenodd"/>
</svg>
