<svg xmlns="http://www.w3.org/2000/svg" xml:space="preserve" width="100" height="100" viewBox="0 0 100 100">
  <path fill="#F9B334" d="M59.011 34.351c0 1.183-1.015 2.141-2.268 2.141-1.252 0-2.268-.959-2.268-2.141V19.925c0-1.183 1.015-2.141 2.268-2.141 1.252 0 2.268.959 2.268 2.141v14.426zm-11.739 2.955c.836.836.796 2.232-.089 3.118-.886.886-2.281.926-3.118.089l-10.201-10.2c-.836-.836-.796-2.232.089-3.118.886-.886 2.281-.926 3.118-.089l10.201 10.2zM41.06 47.697c1.183 0 2.141 1.015 2.141 2.268 0 1.252-.959 2.268-2.141 2.268H26.634c-1.183 0-2.141-1.015-2.141-2.268 0-1.252.959-2.268 2.141-2.268H41.06zm2.955 11.74c.836-.836 2.232-.796 3.118.089.886.886.926 2.281.089 3.118L37.021 72.845c-.836.836-2.232.796-3.118-.089-.886-.886-.926-2.281-.089-3.118l10.201-10.201zm10.391 6.212c0-1.183 1.015-2.141 2.268-2.141 1.252 0 2.268.959 2.268 2.141v14.426c0 1.183-1.015 2.141-2.268 2.141-1.252 0-2.268-.959-2.268-2.141V65.649zm11.739-2.955c-.836-.836-.796-2.232.089-3.118.886-.886 2.281-.926 3.118-.089l10.201 10.201c.836.836.796 2.232-.089 3.118-.886.886-2.281.926-3.118.089L66.145 62.694zm6.212-10.391c-1.183 0-2.141-1.015-2.141-2.268 0-1.252.959-2.268 2.141-2.268h14.426c1.183 0 2.141 1.015 2.141 2.268 0 1.252-.959 2.268-2.141 2.268H72.357zm-2.955-11.74c-.836.836-2.232.796-3.118-.089-.886-.886-.926-2.281-.089-3.118l10.201-10.201c.836-.836 2.232-.796 3.118.089.886.886.926 2.281.089 3.118L69.402 40.563z"/>
  <ellipse cx="56.709" cy="50" fill="#F9B233" rx="10.679" ry="10.22"/>
  <path fill="#9A9999" fill-rule="evenodd" d="M39.111 44.387c.126-4.685-2.941-10.812-11.986-11.034-11.059-.271-16.04 10.151-16.05 17.875-.008 6.147 5.429 15.529 16.022 15.469 14.855-.085 29.578 2.8 30.174-12.636.503-13.034-13.841-11.931-18.16-9.674z" clip-rule="evenodd"/>
</svg>
