<svg xmlns="http://www.w3.org/2000/svg" xml:space="preserve" width="100" height="100" viewBox="0 0 100 100">
  <path fill="#6FB2E2" d="M19.954 69.059c-.197.485-.991.62-1.773.302-.782-.318-1.256-.969-1.059-1.454l5.357-13.17c.197-.485.991-.62 1.773-.302.782.318 1.256.969 1.059 1.454l-5.357 13.17z"/>
  <path fill="#F9B334" d="M53.333 24.222c0 1.183-1.015 2.141-2.268 2.141-1.252 0-2.268-.959-2.268-2.141V9.796c0-1.183 1.015-2.141 2.268-2.141 1.252 0 2.268.959 2.268 2.141v14.426zm-11.74 2.955c.836.836.796 2.232-.089 3.118-.886.886-2.281.926-3.118.089L28.185 20.183c-.836-.836-.796-2.232.089-3.118.886-.886 2.281-.926 3.118-.089l10.201 10.201zm-6.212 10.391c1.183 0 2.141 1.015 2.141 2.268 0 1.252-.959 2.268-2.141 2.268H20.955c-1.183 0-2.141-1.015-2.141-2.268 0-1.252.959-2.268 2.141-2.268h14.426zm25.086 14.996c-.836-.836-.796-2.232.089-3.118.886-.886 2.281-.926 3.118-.089l10.201 10.201c.836.836.796 2.232-.089 3.118-.886.886-2.281.926-3.118.089L60.467 52.564zm6.211-10.391c-1.183 0-2.141-1.015-2.141-2.268 0-1.252.959-2.268 2.141-2.268h14.426c1.183 0 2.141 1.015 2.141 2.268 0 1.252-.959 2.268-2.141 2.268H66.678zm-2.955-11.739c-.836.836-2.232.796-3.118-.089-.886-.886-.926-2.281-.089-3.118l10.201-10.201c.836-.836 2.232-.796 3.118.089.886.886.926 2.281.089 3.118L63.723 30.434z"/>
  <ellipse cx="51.03" cy="39.87" fill="#F9B233" rx="10.679" ry="10.22"/>
  <path fill="#9A9999" fill-rule="evenodd" d="M34.66 37.125c.126-4.685-2.941-10.812-11.986-11.034-11.059-.271-16.04 10.152-16.05 17.876-.008 6.147 5.429 15.529 16.022 15.469 14.855-.085 29.578 2.8 30.174-12.636.503-13.035-13.841-11.932-18.16-9.675z" clip-rule="evenodd"/>
  <path fill="#6FB2E2" d="M72.133 80.325c-.197.485-.991.62-1.773.302-.782-.318-1.256-.969-1.059-1.454l5.357-13.17c.197-.485.991-.62 1.773-.302.782.318 1.256.969 1.059 1.454l-5.357 13.17zm-20.274-2.983c-.197.485-.991.62-1.773.302-.782-.318-1.256-.969-1.059-1.454l4.047-10.952c.197-.485.991-.62 1.773-.302.782.318 1.256.969 1.059 1.454l-4.047 10.952z"/>
  <path fill="#797979" fill-rule="evenodd" d="M76.689 48.763c.126-4.685-2.946-10.658-11.986-11.034-11.988-.499-13.788 8.563-13.788 8.563s-13.01-3.489-13.01 8.673c0 13.551 14.784 10.701 14.784 10.701s.798 5.873 11.961 6.038c14.854.22 29.849.598 30.198-13.267.329-13.04-13.84-11.931-18.159-9.674z" clip-rule="evenodd"/>
  <path fill="#6FB2E2" d="M82.903 74.68c-.197.485-.991.62-1.773.302-.782-.318-1.256-.969-1.059-1.454l5.357-13.17c.197-.485.991-.62 1.773-.302.782.318 1.256.969 1.059 1.454l-5.357 13.17zm-40.77.312c-.197.485-.991.62-1.773.302-.782-.318-1.256-.969-1.059-1.454l5.357-13.17c.197-.485.991-.62 1.773-.302.782.318 1.256.969 1.059 1.454l-5.357 13.17zm9.262 16.172c-.197.485-.991.62-1.773.302-.782-.318-1.256-.969-1.059-1.454L52.61 79.06c.197-.485.991-.62 1.773-.302.782.318 1.256.969 1.059 1.454l-4.047 10.952zm25.11-.258c-.197.485-.991.62-1.773.302-.782-.318-1.256-.969-1.059-1.454l3.232-8.74c.197-.485.991-.62 1.773-.302.782.318 1.256.969 1.059 1.454l-3.232 8.74zM65.522 72.897c-.197.485-.991.62-1.773.302-.782-.318-1.256-.969-1.059-1.454l3.232-8.74c.197-.485.991-.62 1.773-.302.782.318 1.256.969 1.059 1.454l-3.232 8.74zm1.589 18.974c-.197.485-.991.62-1.773.302-.782-.318-1.256-.969-1.059-1.454l2.068-5.596c.197-.485.991-.62 1.773-.302.782.318 1.256.969 1.059 1.454l-2.068 5.596zm-6.909-7.431c-.197.485-.991.62-1.773.302-.782-.318-1.256-.969-1.059-1.454l2.068-5.596c.197-.485.991-.62 1.773-.302.782.318 1.256.969 1.059 1.454l-2.068 5.596zm-16.807.724c-.197.485-.991.62-1.773.302-.782-.318-1.256-.969-1.059-1.454l2.068-5.596c.197-.485.991-.62 1.773-.302.782.318 1.256.969 1.059 1.454l-2.068 5.596zm-12.672-21.75c-.197.485-.991.62-1.773.302-.782-.318-1.256-.969-1.059-1.454l5.357-13.17c.197-.485.991-.62 1.773-.302.782.318 1.256.969 1.059 1.454l-5.357 13.17zm-6.398 16.225c-.197.485-.991.62-1.773.302-.782-.318-1.256-.969-1.059-1.454l3.232-8.74c.197-.485.991-.62 1.773-.302.782.318 1.256.969 1.059 1.454l-3.232 8.74zM13.342 61.631c-.197.485-.991.62-1.773.302-.782-.318-1.256-.969-1.059-1.454l3.232-8.74c.197-.485.991-.62 1.773-.302.782.318 1.256.969 1.059 1.454l-3.232 8.74zm1.59 18.974c-.197.485-.991.62-1.773.302-.782-.318-1.256-.969-1.059-1.454l2.068-5.596c.197-.485.991-.62 1.773-.302.782.318 1.256.969 1.059 1.454l-2.068 5.596zm-6.909-7.431c-.197.485-.991.62-1.773.302-.782-.318-1.256-.969-1.059-1.454l2.068-5.596c.197-.485.991-.62 1.773-.302.782.318 1.256.969 1.059 1.454l-2.068 5.596z"/>
</svg>
