<svg xmlns="http://www.w3.org/2000/svg" xml:space="preserve" width="100" height="100" viewBox="0 0 100 100">
  <path fill="#6FB2E2" d="M43.09 68.592c-.197.485-.991.62-1.773.302-.782-.318-1.256-.969-1.059-1.454l7.697-21.547c.197-.485.991-.62 1.773-.302.782.318 1.256.969 1.059 1.454L43.09 68.592zm24.14 3.724c-.197.485-.991.62-1.773.302-.782-.318-1.256-.969-1.059-1.454l10.8-28.844c.197-.485.991-.62 1.773-.302.782.318 1.256.969 1.059 1.454l-10.8 28.844z"/>
  <path fill="#797979" fill-rule="evenodd" d="M61.925 29.656c.126-4.685-2.946-10.658-11.986-11.034-11.988-.499-13.788 8.563-13.788 8.563s-13.01-3.489-13.01 8.673c0 13.551 14.784 10.701 14.784 10.701s.798 5.873 11.961 6.038c14.854.22 29.849.598 30.198-13.267.329-13.04-13.84-11.931-18.159-9.674z" clip-rule="evenodd"/>
  <path fill="#6FB2E2" d="M22.787 66.855c-.197.485-.991.62-1.773.302-.782-.318-1.256-.969-1.059-1.454l9.939-24.141c.197-.485.991-.62 1.773-.302.782.318 1.256.969 1.059 1.454l-9.939 24.141zm25.894 4.105c-.197.485-.991.62-1.773.302-.782-.318-1.256-.969-1.059-1.454l7.955-21.718c.197-.485.991-.62 1.773-.302.782.318 1.256.969 1.059 1.454L48.681 70.96z"/>
  <g fill="#ACCFE9">
    <path d="M43.998 45.768c0 .447-.355.809-.793.809-.438 0-.793-.362-.793-.809v-7.701c0-.447.355-.809.793-.809.438 0 .793.362.793.809v7.701z"/>
    <path d="M46.936 43.156c.387.223.523.712.304 1.091-.219.379-.71.506-1.097.282l-6.67-3.851c-.387-.223-.523-.712-.304-1.091.219-.379.71-.506 1.097-.282l6.67 3.851z"/>
    <path d="M46.143 39.305c.387-.223.878-.097 1.097.282.219.379.083.868-.304 1.091l-6.67 3.851c-.387.223-.878.097-1.097-.282-.219-.379-.083-.868.304-1.091l6.67-3.851z"/>
  </g>
  <g fill="#ACCFE9">
    <path d="M35.879 64.351c0 .447-.355.809-.793.809-.438 0-.793-.362-.793-.809V56.65c0-.447.355-.809.793-.809.438 0 .793.362.793.809v7.701z"/>
    <path d="M38.817 61.739c.387.223.523.712.304 1.091-.219.379-.71.506-1.097.282l-6.67-3.851c-.387-.223-.523-.712-.304-1.091.219-.379.71-.506 1.097-.282l6.67 3.851z"/>
    <path d="M38.024 57.888c.387-.223.878-.097 1.097.282.219.379.083.868-.304 1.091l-6.67 3.851c-.387.223-.878.097-1.097-.282-.219-.379-.083-.868.304-1.091l6.67-3.851z"/>
  </g>
  <g fill="#ACCFE9">
    <path d="M34.976 80.589c0 .447-.355.809-.793.809-.438 0-.793-.362-.793-.809v-7.701c0-.447.355-.809.793-.809.438 0 .793.362.793.809v7.701z"/>
    <path d="M37.915 77.977c.387.223.523.712.304 1.091-.219.379-.71.506-1.097.282l-6.67-3.851c-.387-.223-.523-.712-.304-1.091.219-.379.71-.506 1.097-.282l6.67 3.851z"/>
    <path d="M37.122 74.126c.387-.223.878-.097 1.097.282.219.379.083.868-.304 1.091l-6.67 3.851c-.387.223-.878.097-1.097-.282-.219-.379-.083-.868.304-1.091l6.67-3.851z"/>
  </g>
  <g fill="#ACCFE9">
    <path d="M55.184 78.243c0 .447-.355.809-.793.809-.438 0-.793-.362-.793-.809v-7.701c0-.447.355-.809.793-.809.438 0 .793.362.793.809v7.701z"/>
    <path d="M58.122 75.631c.387.223.523.712.304 1.091-.219.379-.71.506-1.097.282l-6.67-3.851c-.387-.223-.523-.712-.304-1.091.219-.379.71-.506 1.097-.282l6.67 3.851z"/>
    <path d="M57.329 71.781c.387-.223.878-.097 1.097.282.219.379.083.868-.304 1.091l-6.67 3.851c-.387.223-.878.097-1.097-.282-.219-.379-.083-.868.304-1.091l6.67-3.851z"/>
  </g>
  <g fill="#ACCFE9">
    <path d="M61.498 64.351c0 .447-.355.809-.793.809-.438 0-.793-.362-.793-.809V56.65c0-.447.355-.809.793-.809.438 0 .793.362.793.809v7.701z"/>
    <path d="M64.437 61.739c.387.223.523.712.304 1.091-.219.379-.71.506-1.097.282l-6.67-3.851c-.387-.223-.523-.712-.304-1.091.219-.379.71-.506 1.097-.282l6.67 3.851z"/>
    <path d="M63.644 57.888c.387-.223.878-.097 1.097.282.219.379.083.868-.304 1.091l-6.67 3.851c-.387.223-.878.097-1.097-.282-.219-.379-.083-.868.304-1.091l6.67-3.851z"/>
  </g>
</svg>
