<svg xmlns="http://www.w3.org/2000/svg" xml:space="preserve" width="100" height="100" viewBox="0 0 100 100">
  <g fill="#3388C9">
    <circle cx="28.291" cy="34.197" r="19.109" opacity=".3"/>
    <path d="M31.927 35.389c2.425-7.464.004-15.327-5.517-20.217 1.995-.194 4.707-.141 7.732.843 10.038 3.26 15.53 14.042 12.269 24.079-3.261 10.037-14.042 15.53-24.079 12.267-2.575-.835-4.846-2.175-6.752-3.858 7.342-.712 13.923-5.655 16.347-13.114z"/>
  </g>
  <path fill="#6FB2E2" d="M64.029 72.897c-.197.485-.991.62-1.773.302-.782-.318-1.256-.969-1.059-1.454l5.357-13.17c.197-.485.991-.62 1.773-.302.782.318 1.256.969 1.059 1.454l-5.357 13.17z"/>
  <path fill="#797979" fill-rule="evenodd" d="M72.659 37.683c.126-4.685-2.946-10.658-11.986-11.034-11.988-.499-13.788 8.563-13.788 8.563s-13.01-3.489-13.01 8.673c0 13.551 14.784 10.701 14.784 10.701s.798 5.873 11.961 6.038c14.854.22 29.849.598 30.198-13.267.33-13.04-13.84-11.931-18.159-9.674z" clip-rule="evenodd"/>
  <path fill="#6FB2E2" d="M78.873 63.6c-.197.485-.991.62-1.773.302-.782-.318-1.256-.969-1.059-1.454l5.357-13.17c.197-.485.991-.62 1.773-.302.782.318 1.256.969 1.059 1.454L78.873 63.6zm-6.398 16.226c-.197.485-.991.62-1.773.302-.782-.318-1.256-.969-1.059-1.454l3.232-8.74c.197-.485.991-.62 1.773-.302.782.318 1.256.969 1.059 1.454l-3.232 8.74zM56.246 64.815c-.197.485-.991.62-1.773.302-.782-.318-1.256-.969-1.059-1.454l3.232-8.74c.197-.485.991-.62 1.773-.302.782.318 1.256.969 1.059 1.454l-3.232 8.74zm2.761 19.628c-.197.485-.991.62-1.773.302-.782-.318-1.256-.969-1.059-1.454l2.068-5.596c.197-.485.991-.62 1.773-.302.782.318 1.256.969 1.059 1.454l-2.068 5.596zm-7.331-7.96c-.197.485-.991.62-1.773.302-.782-.318-1.256-.969-1.059-1.454l2.068-5.596c.197-.485.991-.62 1.773-.302.782.318 1.256.969 1.059 1.454l-2.068 5.596z"/>
</svg>
