<svg xmlns="http://www.w3.org/2000/svg" xml:space="preserve" width="100" height="100" viewBox="0 0 100 100">
  <path fill="#F9B334" d="M54.237 22.763c0 1.183-1.015 2.141-2.268 2.141-1.252 0-2.268-.959-2.268-2.141V8.337c0-1.183 1.015-2.141 2.268-2.141 1.252 0 2.268.959 2.268 2.141v14.426zm-11.74 2.955c.836.836.796 2.232-.089 3.118-.886.886-2.281.926-3.118.089l-10.201-10.2c-.836-.836-.796-2.232.089-3.118.886-.886 2.281-.926 3.118-.089l10.201 10.2zm-6.212 10.391c1.183 0 2.141 1.015 2.141 2.268 0 1.252-.959 2.268-2.141 2.268H21.859c-1.183 0-2.141-1.015-2.141-2.268 0-1.252.959-2.268 2.141-2.268h14.426zm25.086 14.997c-.836-.836-.796-2.232.089-3.118.886-.886 2.281-.926 3.118-.089L74.779 58.1c.836.836.796 2.232-.089 3.118-.886.886-2.281.926-3.118.089L61.371 51.106zm6.212-10.391c-1.183 0-2.141-1.015-2.141-2.268 0-1.252.959-2.268 2.141-2.268h14.426c1.183 0 2.141 1.015 2.141 2.268 0 1.252-.959 2.268-2.141 2.268H67.583zm-2.955-11.74c-.836.836-2.232.796-3.118-.089-.886-.886-.926-2.281-.089-3.118l10.201-10.201c.836-.836 2.232-.796 3.118.089.886.886.926 2.281.089 3.118L64.628 28.975z"/>
  <ellipse cx="51.934" cy="38.412" fill="#F9B233" rx="10.679" ry="10.22"/>
  <path fill="#9A9999" fill-rule="evenodd" d="M35.595 35.762c.126-4.685-2.941-10.812-11.986-11.034-11.059-.271-16.04 10.151-16.05 17.875-.008 6.147 5.429 15.529 16.022 15.469 14.855-.085 29.578 2.8 30.174-12.636.503-13.035-13.841-11.932-18.16-9.674z" clip-rule="evenodd"/>
  <path fill="#797979" fill-rule="evenodd" d="M76.497 47.239c.126-4.685-2.946-10.658-11.986-11.034-11.988-.499-13.788 8.563-13.788 8.563s-13.01-3.489-13.01 8.673c0 13.551 14.784 10.701 14.784 10.701s.798 5.873 11.961 6.038c14.854.22 29.849.598 30.198-13.267.329-13.041-13.84-11.932-18.159-9.674z" clip-rule="evenodd"/>
  <g fill="#ACCFE9">
    <path d="M10.271 66.134c0 .447-.355.809-.793.809-.438 0-.793-.362-.793-.809v-7.701c0-.447.355-.809.793-.809.438 0 .793.362.793.809v7.701z"/>
    <path d="M13.209 63.522c.387.223.523.712.304 1.091-.219.379-.71.506-1.097.282l-6.67-3.851c-.387-.223-.523-.712-.304-1.091.219-.379.71-.506 1.097-.282l6.67 3.851z"/>
    <path d="M12.416 59.671c.387-.223.878-.097 1.097.282.219.379.083.868-.304 1.091l-6.67 3.851c-.387.223-.878.097-1.097-.282-.219-.379-.083-.868.304-1.091l6.67-3.851z"/>
  </g>
  <g fill="#ACCFE9">
    <path d="M10.616 84.272c0 .447-.355.809-.793.809-.438 0-.793-.362-.793-.809V76.57c0-.447.355-.809.793-.809.438 0 .793.362.793.809v7.702z"/>
    <path d="M13.554 81.66c.387.223.523.712.304 1.091-.219.379-.71.506-1.097.282l-6.67-3.851c-.387-.223-.523-.712-.304-1.091.219-.379.71-.506 1.097-.282l6.67 3.851z"/>
    <path d="M12.761 77.809c.387-.223.878-.097 1.097.282.219.379.083.868-.304 1.091l-6.67 3.851c-.387.223-.878.097-1.097-.282-.219-.379-.083-.868.304-1.091l6.67-3.851z"/>
  </g>
  <g fill="#ACCFE9">
    <path d="M28.668 72.957c0 .447-.355.809-.793.809-.438 0-.793-.362-.793-.809v-7.701c0-.447.355-.809.793-.809.438 0 .793.362.793.809v7.701z"/>
    <path d="M31.606 70.345c.387.223.523.712.304 1.091-.219.379-.71.506-1.097.282l-6.67-3.851c-.387-.223-.523-.712-.304-1.091.219-.379.71-.506 1.097-.282l6.67 3.851z"/>
    <path d="M30.813 66.494c.387-.223.878-.097 1.097.282.219.379.083.868-.304 1.091l-6.67 3.851c-.387.223-.878.097-1.097-.282-.219-.379-.083-.868.304-1.091l6.67-3.851z"/>
  </g>
  <g fill="#ACCFE9">
    <path d="M38.687 85.74c0 .447-.355.809-.793.809-.438 0-.793-.362-.793-.809v-7.701c0-.447.355-.809.793-.809.438 0 .793.362.793.809v7.701z"/>
    <path d="M41.625 83.128c.387.223.523.712.304 1.091-.219.379-.71.506-1.097.282l-6.67-3.851c-.387-.223-.523-.712-.304-1.091.219-.379.71-.506 1.097-.282l6.67 3.851z"/>
    <path d="M40.832 79.277c.387-.223.878-.097 1.097.282.219.379.083.868-.304 1.091l-6.67 3.851c-.387.223-.878.097-1.097-.282-.219-.379-.083-.868.304-1.091l6.67-3.851z"/>
  </g>
  <g fill="#ACCFE9">
    <path d="M49.775 73.643c0 .447-.355.809-.793.809-.438 0-.793-.362-.793-.809v-7.701c0-.447.355-.809.793-.809.438 0 .793.362.793.809v7.701z"/>
    <path d="M52.713 71.031c.387.223.523.712.304 1.091-.219.379-.71.506-1.097.282l-6.67-3.851c-.387-.223-.523-.712-.304-1.091.219-.379.71-.506 1.097-.282l6.67 3.851z"/>
    <path d="M51.92 67.18c.387-.223.878-.097 1.097.282.219.379.083.868-.304 1.091l-6.67 3.851c-.387.223-.878.097-1.097-.282-.219-.379-.083-.868.304-1.091l6.67-3.851z"/>
  </g>
  <g fill="#ACCFE9">
    <path d="M60.798 61.901c0 .447-.355.809-.793.809-.438 0-.793-.362-.793-.809V54.2c0-.447.355-.809.793-.809.438 0 .793.362.793.809v7.701z"/>
    <path d="M63.737 59.289c.387.223.523.712.304 1.091-.219.379-.71.506-1.097.282l-6.67-3.851c-.387-.223-.523-.712-.304-1.091.219-.379.71-.506 1.097-.282l6.67 3.851z"/>
    <path d="M62.944 55.439c.387-.223.878-.097 1.097.282.219.379.083.868-.304 1.091l-6.67 3.851c-.387.223-.878.097-1.097-.282-.219-.379-.083-.868.304-1.091l6.67-3.851z"/>
  </g>
  <g fill="#ACCFE9">
    <path d="M61.835 81.594c0 .447-.355.809-.793.809-.438 0-.793-.362-.793-.809v-7.701c0-.447.355-.809.793-.809.438 0 .793.362.793.809v7.701z"/>
    <path d="M64.773 78.982c.387.223.523.712.304 1.091-.219.379-.71.506-1.097.282l-6.67-3.851c-.387-.223-.523-.712-.304-1.091.219-.379.71-.506 1.097-.282l6.67 3.851z"/>
    <path d="M63.98 75.131c.387-.223.878-.097 1.097.282.219.379.083.868-.304 1.091l-6.67 3.851c-.387.223-.878.097-1.097-.282-.219-.379-.083-.868.304-1.091l6.67-3.851z"/>
  </g>
  <g fill="#ACCFE9">
    <path d="M52.507 92.65c0 .447-.355.809-.793.809-.438 0-.793-.362-.793-.809v-7.701c0-.447.355-.809.793-.809.438 0 .793.362.793.809v7.701z"/>
    <path d="M55.445 90.038c.387.223.523.712.304 1.091-.219.379-.71.506-1.097.282l-6.67-3.851c-.387-.223-.523-.712-.304-1.091.219-.379.71-.506 1.097-.282l6.67 3.851z"/>
    <path d="M54.652 86.187c.387-.223.878-.097 1.097.282.219.379.083.868-.304 1.091l-6.67 3.851c-.387.223-.878.097-1.097-.282-.219-.379-.083-.868.304-1.091l6.67-3.851z"/>
  </g>
  <g fill="#ACCFE9">
    <path d="M69.781 92.995c0 .447-.355.809-.793.809-.438 0-.793-.362-.793-.809v-7.701c0-.447.355-.809.793-.809.438 0 .793.362.793.809v7.701z"/>
    <path d="M72.719 90.383c.387.223.523.712.304 1.091-.219.379-.71.506-1.097.282l-6.67-3.851c-.387-.223-.523-.712-.304-1.091.219-.379.71-.506 1.097-.282l6.67 3.851z"/>
    <path d="M71.926 86.533c.387-.223.878-.097 1.097.282.219.379.083.868-.304 1.091l-6.67 3.851c-.387.223-.878.097-1.097-.282-.219-.379-.083-.868.304-1.091l6.67-3.851z"/>
  </g>
  <g fill="#ACCFE9">
    <path d="M74.1 73.302c0 .447-.355.809-.793.809-.438 0-.793-.362-.793-.809v-7.701c0-.447.355-.809.793-.809.438 0 .793.362.793.809v7.701z"/>
    <path d="M77.038 70.69c.387.223.523.712.304 1.091-.219.379-.71.506-1.097.282l-6.67-3.851c-.387-.223-.523-.712-.304-1.091.219-.379.71-.506 1.097-.282l6.67 3.851z"/>
    <path d="M76.245 66.84c.387-.223.878-.097 1.097.282.219.379.083.868-.304 1.091l-6.67 3.851c-.387.223-.878.097-1.097-.282-.219-.379-.083-.868.304-1.091l6.67-3.851z"/>
  </g>
  <g fill="#ACCFE9">
    <path d="M88.178 84.963c0 .447-.355.809-.793.809-.438 0-.793-.362-.793-.809v-7.701c0-.447.355-.809.793-.809.438 0 .793.362.793.809v7.701z"/>
    <path d="M91.117 82.351c.387.223.523.712.304 1.091-.219.379-.71.506-1.097.282l-6.67-3.851c-.387-.223-.523-.712-.304-1.091.219-.379.71-.506 1.097-.282l6.67 3.851z"/>
    <path d="M90.324 78.5c.387-.223.878-.097 1.097.282.219.379.083.868-.304 1.091l-6.67 3.851c-.387.223-.878.097-1.097-.282-.219-.379-.083-.868.304-1.091l6.67-3.851z"/>
  </g>
</svg>
