<svg xmlns="http://www.w3.org/2000/svg" xml:space="preserve" width="100" height="100" viewBox="0 0 100 100">
  <g fill="#3388C9">
    <circle cx="61.179" cy="24.311" r="19.109" opacity=".3"/>
    <path d="M64.815 25.503c2.425-7.464.004-15.327-5.517-20.217 1.995-.194 4.707-.141 7.732.843 10.038 3.26 15.53 14.042 12.269 24.079-3.261 10.037-14.042 15.53-24.079 12.267-2.575-.835-4.846-2.175-6.751-3.858 7.341-.712 13.922-5.655 16.346-13.114z"/>
  </g>
  <path fill="#9A9999" fill-rule="evenodd" d="M36.013 23.537c.126-4.685-2.941-10.812-11.986-11.034-11.059-.271-16.04 10.151-16.05 17.875-.008 6.147 5.429 15.529 16.022 15.469 14.855-.085 29.578 2.8 30.174-12.636.503-13.035-13.841-11.931-18.16-9.674z" clip-rule="evenodd"/>
  <path fill="#797979" fill-rule="evenodd" d="M75.653 36.486c.126-4.685-2.946-10.658-11.986-11.034-11.987-.499-13.787 8.563-13.787 8.563s-13.01-3.489-13.01 8.673c0 13.551 14.784 10.701 14.784 10.701s.798 5.873 11.961 6.038c14.854.22 29.849.598 30.198-13.267.329-13.04-13.841-11.932-18.16-9.674z" clip-rule="evenodd"/>
  <path fill="#F9B233" d="M46.265 88.625s20.678-32.223 19.719-32.457c-1.546-.377-10.37 1.626-10.278 1.34.557-1.747 6.432-13.282 5.47-13.389-2.229-.248-9.315-.408-12.071-.047-1.173.154-4.591 19.058-4.591 21.515 0 .595 8.438-.854 9.201-1.029.931-.213-7.45 24.067-7.45 24.067z"/>
  <g fill="#ACCFE9">
    <path d="M86.824 74.608c0 .447-.355.809-.793.809-.438 0-.793-.362-.793-.809v-7.701c0-.447.355-.809.793-.809.438 0 .793.362.793.809v7.701z"/>
    <path d="M89.762 71.996c.387.223.523.712.304 1.091-.219.379-.71.506-1.097.282l-6.67-3.851c-.387-.223-.523-.712-.304-1.091.219-.379.71-.506 1.097-.282l6.67 3.851z"/>
    <path d="M88.969 68.145c.387-.223.878-.097 1.097.282.219.379.083.868-.304 1.091l-6.67 3.851c-.387.223-.878.097-1.097-.282-.219-.379-.083-.868.304-1.091l6.67-3.851z"/>
  </g>
  <g fill="#ACCFE9">
    <path d="M73.153 62.484c0 .447-.355.809-.793.809-.438 0-.793-.362-.793-.809v-7.701c0-.447.355-.809.793-.809.438 0 .793.362.793.809v7.701z"/>
    <path d="M76.091 59.872c.387.223.523.712.304 1.091-.219.379-.71.506-1.097.282l-6.67-3.851c-.387-.223-.523-.712-.304-1.091.219-.379.71-.506 1.097-.282l6.67 3.851z"/>
    <path d="M75.298 56.021c.387-.223.878-.097 1.097.282.219.379.083.868-.304 1.091l-6.67 3.851c-.387.223-.878.097-1.097-.282-.219-.379-.083-.868.304-1.091l6.67-3.851z"/>
  </g>
  <g fill="#ACCFE9">
    <path d="M69.237 82.536c0 .447-.355.809-.793.809-.438 0-.793-.362-.793-.809v-7.701c0-.447.355-.809.793-.809.438 0 .793.362.793.809v7.701z"/>
    <path d="M72.175 79.924c.387.223.523.712.304 1.091-.219.379-.71.506-1.097.282l-6.67-3.851c-.387-.223-.523-.712-.304-1.091.219-.379.71-.506 1.097-.282l6.67 3.851z"/>
    <path d="M71.382 76.073c.387-.223.878-.097 1.097.282.219.379.083.868-.304 1.091l-6.67 3.851c-.387.223-.878.097-1.097-.282-.219-.379-.083-.868.304-1.091l6.67-3.851z"/>
  </g>
  <g fill="#ACCFE9">
    <path d="M38.107 75.279c0 .447-.355.809-.793.809-.438 0-.793-.362-.793-.809v-7.701c0-.447.355-.809.793-.809.438 0 .793.362.793.809v7.701z"/>
    <path d="M41.046 72.667c.387.223.523.712.304 1.091-.219.379-.71.506-1.097.282l-6.67-3.851c-.387-.223-.523-.712-.304-1.091.219-.379.71-.506 1.097-.282l6.67 3.851z"/>
    <path d="M40.253 68.816c.387-.223.878-.097 1.097.282.219.379.083.868-.304 1.091l-6.67 3.851c-.387.223-.878.097-1.097-.282-.219-.379-.083-.868.304-1.091l6.67-3.851z"/>
  </g>
  <g fill="#ACCFE9">
    <path d="M36.388 93.995c0 .447-.355.809-.793.809-.438 0-.793-.362-.793-.809v-7.701c0-.447.355-.809.793-.809.438 0 .793.362.793.809v7.701z"/>
    <path d="M39.327 91.383c.387.223.523.712.304 1.091-.219.379-.71.506-1.097.282l-6.67-3.851c-.387-.223-.523-.712-.304-1.091.219-.379.71-.506 1.097-.282l6.67 3.851z"/>
    <path d="M38.534 87.532c.387-.223.878-.097 1.097.282.219.379.083.868-.304 1.091l-6.67 3.851c-.387.223-.878.097-1.097-.282-.219-.379-.083-.868.304-1.091l6.67-3.851z"/>
  </g>
  <g fill="#ACCFE9">
    <path d="M24.93 81.963c0 .447-.355.809-.793.809-.438 0-.793-.362-.793-.809v-7.701c0-.447.355-.809.793-.809.438 0 .793.362.793.809v7.701z"/>
    <path d="M27.868 79.351c.387.223.523.712.304 1.091-.219.379-.71.506-1.097.282l-6.67-3.851c-.387-.223-.523-.712-.304-1.091.219-.379.71-.506 1.097-.282l6.67 3.851z"/>
    <path d="M27.075 75.5c.387-.223.878-.097 1.097.282.219.379.083.868-.304 1.091l-6.67 3.851c-.387.223-.878.097-1.097-.282-.219-.379-.083-.868.304-1.091l6.67-3.851z"/>
  </g>
  <g fill="#ACCFE9">
    <path d="M29.066 61.009c0 .447-.355.809-.793.809-.438 0-.793-.362-.793-.809v-7.701c0-.447.355-.809.793-.809.438 0 .793.362.793.809v7.701z"/>
    <path d="M32.004 58.397c.387.223.523.712.304 1.091-.219.379-.71.506-1.097.282l-6.67-3.851c-.387-.223-.523-.712-.304-1.091.219-.379.71-.506 1.097-.282l6.67 3.851z"/>
    <path d="M31.211 54.547c.387-.223.878-.097 1.097.282.219.379.083.868-.304 1.091l-6.67 3.851c-.387.223-.878.097-1.097-.282-.219-.379-.083-.868.304-1.091l6.67-3.851z"/>
  </g>
  <g fill="#ACCFE9">
    <path d="M11.114 53.752c0 .447-.355.809-.793.809-.438 0-.793-.362-.793-.809v-7.701c0-.447.355-.809.793-.809.438 0 .793.362.793.809v7.701z"/>
    <path d="M14.052 51.14c.387.223.523.712.304 1.091-.219.379-.71.506-1.097.282l-6.67-3.851c-.387-.223-.523-.712-.304-1.091.219-.379.71-.506 1.097-.282l6.67 3.851z"/>
    <path d="M13.259 47.289c.387-.223.878-.097 1.097.282.219.379.083.868-.304 1.091l-6.67 3.851c-.387.223-.878.097-1.097-.282-.219-.379-.083-.868.304-1.091l6.67-3.851z"/>
  </g>
  <g fill="#ACCFE9">
    <path d="M11.114 71.513c0 .447-.355.809-.793.809-.438 0-.793-.362-.793-.809v-7.701c0-.447.355-.809.793-.809.438 0 .793.362.793.809v7.701z"/>
    <path d="M14.052 68.901c.387.223.523.712.304 1.091-.219.379-.71.506-1.097.282l-6.67-3.851c-.387-.223-.523-.712-.304-1.091.219-.379.71-.506 1.097-.282l6.67 3.851z"/>
    <path d="M13.259 65.05c.387-.223.878-.097 1.097.282.219.379.083.868-.304 1.091l-6.67 3.851c-.387.223-.878.097-1.097-.282-.219-.379-.083-.868.304-1.091l6.67-3.851z"/>
  </g>
</svg>
