<svg xmlns="http://www.w3.org/2000/svg" xml:space="preserve" width="100" height="100" viewBox="0 0 100 100">
  <path fill="#C7C6C6" fill-rule="evenodd" d="M1.422 67.404s19.832-5.966 34.181 0c.164-.299 7.144-.272 7.038 1.718-.105 1.99-13.649 5.86-17.807 2.857.002.001-31.151 3.487-23.412-4.575z" clip-rule="evenodd" opacity=".6"/>
  <g fill="#3388C9">
    <circle cx="50.355" cy="60.26" r="19.109" opacity=".3"/>
    <path d="M53.992 61.452c2.425-7.464.004-15.327-5.517-20.217 1.995-.194 4.707-.141 7.732.843 10.038 3.26 15.53 14.042 12.269 24.079-3.261 10.037-14.042 15.53-24.079 12.267-2.575-.835-4.846-2.175-6.751-3.858 7.34-.713 13.921-5.655 16.346-13.114z"/>
  </g>
  <path fill="#C7C6C6" fill-rule="evenodd" d="M29.154 77.078s7.739-3.87 22.089-3.547c14.35.322 32.892-.806 38.212 1.612s8.062 2.096 7.9 5.482c-.161 3.386-32.569 5.321-50.305 4.031s-27.893-.806-27.732-4.353c.162-3.547 8.224-4.515 9.836-3.225zM27.022 59.04c.428 3.215 25.226 6.469 41.51 3.567-.613-.351 31.118.322 31.279-1.774.161-2.096-11.675-2.552-11.675-2.552-14.452-2.343-15.077-2.446-30.73-2.446-15.639 0-30.812-.01-30.384 3.205z" clip-rule="evenodd" opacity=".6"/>
  <path fill="#F9B233" fill-rule="evenodd" d="m87.014 34.812-2.993 4.44 1.961 4.982-5.147-1.475-4.133 3.404-.188-5.351L72 37.934l5.031-1.832 1.342-5.183 3.297 4.218zm-16.641-7.893-2.993 4.439 1.96 4.982-5.146-1.474-4.133 3.403-.188-5.35-4.514-2.879 5.03-1.832 1.343-5.183 3.297 4.219zm8.872-9.667-1.776 2.634 1.163 2.957-3.054-.875-2.452 2.019-.112-3.175-2.679-1.708 2.986-1.087.796-3.075 1.957 2.503zm-33.83 8.686-1.776 2.634 1.163 2.956-3.054-.875-2.453 2.02-.111-3.175-2.679-1.708 2.985-1.087.797-3.076 1.956 2.503z" clip-rule="evenodd"/>
</svg>
