<?xml version="1.0" encoding="utf-8"?>
<!-- Generator: Adobe Illustrator 17.0.1, SVG Export Plug-In . SVG Version: 6.00 Build 0)  -->
<!DOCTYPE svg PUBLIC "-//W3C//DTD SVG 1.1//EN" "http://www.w3.org/Graphics/SVG/1.1/DTD/svg11.dtd">
<svg version="1.1" id="_x31_6_1_" xmlns="http://www.w3.org/2000/svg" xmlns:xlink="http://www.w3.org/1999/xlink" x="0px" y="0px"
	 width="100px" height="100px" viewBox="0 0 100 100" enable-background="new 0 0 100 100" xml:space="preserve">
<g>
	<path fill-rule="evenodd" clip-rule="evenodd" fill="#9A9999" d="M33.937,38.085c0.126-4.685-2.941-10.812-11.986-11.034
		C10.891,26.78,5.911,37.202,5.901,44.926c-0.008,6.147,5.429,15.529,16.022,15.469c14.855-0.085,29.578,2.8,30.174-12.636
		C52.6,34.724,38.256,35.828,33.937,38.085z"/>
	<path fill-rule="evenodd" clip-rule="evenodd" fill="#797979" d="M75.934,49.95c0.126-4.685-2.946-10.658-11.986-11.034
		C51.96,38.417,50.16,47.479,50.16,47.479s-13.01-3.489-13.01,8.673c0,13.551,14.784,10.701,14.784,10.701s0.798,5.873,11.961,6.038
		c14.854,0.22,29.849,0.598,30.198-13.267C94.422,46.584,80.253,47.693,75.934,49.95z"/>
</g>
</svg>
