<svg xmlns="http://www.w3.org/2000/svg" xml:space="preserve" width="100" height="100" viewBox="0 0 100 100">
  <path fill="#F9B334" d="M54.401 19.477c0 1.183-1.015 2.141-2.268 2.141-1.252 0-2.268-.959-2.268-2.141V5.051c0-1.183 1.015-2.141 2.268-2.141 1.252 0 2.268.959 2.268 2.141v14.426zm-11.74 2.955c.836.836.796 2.232-.089 3.118-.886.886-2.281.926-3.118.089l-10.201-10.2c-.836-.836-.796-2.232.089-3.118.886-.886 2.281-.926 3.118-.089l10.201 10.2zm-6.212 10.391c1.183 0 2.141 1.015 2.141 2.268 0 1.252-.959 2.268-2.141 2.268H22.023c-1.183 0-2.141-1.015-2.141-2.268 0-1.252.959-2.268 2.141-2.268h14.426zM61.535 47.82c-.836-.836-.796-2.232.089-3.118.886-.886 2.281-.926 3.118-.089l10.201 10.201c.836.836.796 2.232-.089 3.118-.886.886-2.281.926-3.118.089L61.535 47.82zm6.212-10.391c-1.183 0-2.141-1.015-2.141-2.268 0-1.252.959-2.268 2.141-2.268h14.426c1.183 0 2.141 1.015 2.141 2.268 0 1.252-.959 2.268-2.141 2.268H67.747zm-2.955-11.74c-.836.836-2.232.796-3.118-.089-.886-.886-.926-2.281-.089-3.118l10.201-10.201c.836-.836 2.232-.796 3.118.089.886.886.926 2.281.089 3.118L64.792 25.689z"/>
  <ellipse cx="52.098" cy="35.126" fill="#F9B233" rx="10.679" ry="10.22"/>
  <path fill="#6FB2E2" d="M15.368 73.466c-.197.485-.991.62-1.773.302-.782-.318-1.256-.969-1.059-1.454l9.99-27.669c.197-.485.991-.62 1.773-.302.782.318 1.256.969 1.059 1.454l-9.99 27.669z"/>
  <path fill="#9A9999" fill-rule="evenodd" d="M36.595 32.463c.126-4.685-2.941-10.812-11.986-11.034-11.059-.271-16.04 10.152-16.05 17.876-.008 6.147 5.429 15.529 16.022 15.469 14.855-.085 29.578 2.8 30.174-12.636.503-13.035-13.841-11.932-18.16-9.675z" clip-rule="evenodd"/>
  <path fill="#6FB2E2" d="M48.702 89.133c-.197.485-.991.62-1.773.302-.782-.318-1.256-.969-1.059-1.454l9.99-27.669c.197-.485.991-.62 1.773-.302.782.318 1.256.969 1.059 1.454l-9.99 27.669zm35.195-2.145c-.197.485-.991.62-1.773.302-.782-.318-1.256-.969-1.059-1.454l10.8-28.844c.197-.485.991-.62 1.773-.302.782.318 1.256.969 1.059 1.454l-10.8 28.844z"/>
  <path fill="#797979" fill-rule="evenodd" d="M78.592 44.328c.126-4.685-2.946-10.658-11.986-11.034-11.988-.499-13.788 8.563-13.788 8.563s-13.01-3.489-13.01 8.673c0 13.551 14.784 10.701 14.784 10.701s.798 5.873 11.961 6.038c14.854.22 29.849.598 30.198-13.267.329-13.04-13.84-11.931-18.159-9.674z" clip-rule="evenodd"/>
  <path fill="#6FB2E2" d="M39.453 81.527c-.197.485-.991.62-1.773.302-.782-.318-1.256-.969-1.059-1.454l9.939-24.141c.197-.485.991-.62 1.773-.302.782.318 1.256.969 1.059 1.454l-9.939 24.141zm27.92 4.105c-.197.485-.991.62-1.773.302-.782-.318-1.256-.969-1.059-1.454l7.955-21.718c.197-.485.991-.62 1.773-.302.782.318 1.256.969 1.059 1.454l-7.955 21.718zm10.688-5.033c-.197.485-.991.62-1.773.302-.782-.318-1.256-.969-1.059-1.454l7.955-21.718c.197-.485.991-.62 1.773-.302.782.318 1.256.969 1.059 1.454l-7.955 21.718zM26.423 67.597c-.197.485-.991.62-1.773.302-.782-.318-1.256-.969-1.059-1.454l7.697-21.547c.197-.485.991-.62 1.773-.302.782.318 1.256.969 1.059 1.454l-7.697 21.547zM6.12 65.861c-.197.485-.991.62-1.773.302-.782-.318-1.256-.969-1.059-1.454l9.939-24.141c.197-.485.991-.62 1.773-.302.782.318 1.256.969 1.059 1.454L6.12 65.861z"/>
  <path fill="#F9B233" d="M50.362 97.09S71.04 64.867 70.081 64.633c-1.546-.377-10.37 1.626-10.278 1.34.557-1.747 6.432-13.282 5.47-13.389-2.229-.248-9.315-.408-12.071-.047-1.173.154-4.591 19.058-4.591 21.515 0 .595 8.438-.854 9.201-1.029.931-.214-7.45 24.067-7.45 24.067z"/>
</svg>
