<svg xmlns="http://www.w3.org/2000/svg" xml:space="preserve" width="100" height="100" viewBox="0 0 100 100">
  <path fill="#F9B334" d="M46.499 21.847c0 1.183-1.015 2.141-2.268 2.141-1.252 0-2.268-.959-2.268-2.141V7.421c0-1.183 1.015-2.141 2.268-2.141 1.252 0 2.268.959 2.268 2.141v14.426zm-11.74 2.955c.836.836.796 2.232-.089 3.118-.886.886-2.281.926-3.118.089L21.351 17.808c-.836-.836-.796-2.232.089-3.118.886-.886 2.281-.926 3.118-.089l10.201 10.201zm-6.212 10.391c1.183 0 2.141 1.015 2.141 2.268 0 1.252-.959 2.268-2.141 2.268H14.121c-1.183 0-2.141-1.015-2.141-2.268 0-1.252.959-2.268 2.141-2.268h14.426z"/>
  <path fill="#F9B233" d="M31.502 46.932c.836-.836 2.232-.796 3.118.089.886.886.926 2.281.089 3.118L24.508 60.34c-.836.836-2.232.796-3.118-.089-.886-.886-.926-2.281-.089-3.118l10.201-10.201z"/>
  <path fill="#FFF" d="M41.893 53.144c0-1.183 1.015-2.141 2.268-2.141 1.252 0 2.268.959 2.268 2.141V67.57c0 1.183-1.015 2.141-2.268 2.141-1.252 0-2.268-.959-2.268-2.141V53.144z"/>
  <path fill="#F9B334" d="M53.633 50.189c-.836-.836-.796-2.232.089-3.118.886-.886 2.281-.926 3.118-.089l10.2 10.201c.836.836.796 2.232-.089 3.118-.886.886-2.281.926-3.118.089l-10.2-10.201zm6.211-10.391c-1.183 0-2.141-1.015-2.141-2.268 0-1.252.959-2.268 2.141-2.268H74.27c1.183 0 2.141 1.015 2.141 2.268 0 1.252-.959 2.268-2.141 2.268H59.844zm-2.955-11.739c-.836.836-2.232.796-3.118-.089-.886-.886-.926-2.281-.089-3.118l10.201-10.201c.836-.836 2.232-.796 3.118.089.886.886.926 2.281.089 3.118L56.889 28.059z"/>
  <ellipse cx="44.196" cy="37.496" fill="#F9B233" rx="10.679" ry="10.22"/>
  <path fill="#6FB2E2" d="M65.299 77.95c-.197.485-.991.62-1.773.302-.782-.318-1.256-.969-1.059-1.454l5.357-13.17c.197-.485.991-.62 1.773-.302.782.318 1.256.969 1.059 1.454l-5.357 13.17z"/>
  <path fill="#797979" fill-rule="evenodd" d="M69.855 46.388c.126-4.685-2.946-10.658-11.986-11.034-11.988-.499-13.788 8.563-13.788 8.563s-13.01-3.489-13.01 8.673c0 13.551 14.784 10.701 14.784 10.701s.798 5.873 11.961 6.038c14.854.22 29.849.598 30.198-13.267.329-13.04-13.84-11.931-18.159-9.674z" clip-rule="evenodd"/>
  <path fill="#6FB2E2" d="M76.069 72.305c-.197.485-.991.62-1.773.302-.782-.318-1.256-.969-1.059-1.454l5.357-13.17c.197-.485.991-.62 1.773-.302.782.318 1.256.969 1.059 1.454l-5.357 13.17zm-6.398 16.226c-.197.485-.991.62-1.773.302-.782-.318-1.256-.969-1.059-1.454l3.232-8.74c.197-.485.991-.62 1.773-.302.782.318 1.256.969 1.059 1.454l-3.232 8.74zM58.688 70.522c-.197.485-.991.62-1.773.302-.782-.318-1.256-.969-1.059-1.454l3.232-8.74c.197-.485.991-.62 1.773-.302.782.318 1.256.969 1.059 1.454l-3.232 8.74zm1.589 18.974c-.197.485-.991.62-1.773.302-.782-.318-1.256-.969-1.059-1.454l2.068-5.596c.197-.485.991-.62 1.773-.302.782.318 1.256.969 1.059 1.454l-2.068 5.596zm-6.908-7.431c-.197.485-.991.62-1.773.302-.782-.318-1.256-.969-1.059-1.454l2.068-5.596c.197-.485.991-.62 1.773-.302.782.318 1.256.969 1.059 1.454l-2.068 5.596zm-16.808.724c-.197.485-.991.62-1.773.302-.782-.318-1.256-.969-1.059-1.454l2.068-5.596c.197-.485.991-.62 1.773-.302.782.318 1.256.969 1.059 1.454l-2.068 5.596z"/>
  <path fill="#F9B233" d="M36.451 94.72S57.129 62.497 56.17 62.263c-1.546-.377-10.37 1.626-10.278 1.34.557-1.747 6.432-13.282 5.47-13.389-2.229-.248-9.315-.408-12.071-.047-1.173.154-4.591 19.059-4.591 21.515 0 .595 8.438-.854 9.201-1.029.932-.213-7.45 24.067-7.45 24.067z"/>
</svg>
