<svg xmlns="http://www.w3.org/2000/svg" xml:space="preserve" width="100" height="100" viewBox="0 0 100 100">
  <path fill="#C7C6C6" fill-rule="evenodd" d="M1.235 46.527s19.832-5.966 34.181 0c.164-.299 7.144-.272 7.038 1.718-.105 1.99-13.649 5.86-17.807 2.857.002.001-31.151 3.487-23.412-4.575zm23.794-5.674c.428 3.215 25.226 6.469 41.51 3.567-.613-.351 31.118.322 31.279-1.774.161-2.096-11.675-2.552-11.675-2.552-14.452-2.343-15.077-2.446-30.73-2.446-15.638 0-30.812-.01-30.384 3.205z" clip-rule="evenodd" opacity=".6"/>
  <path fill="#F9B334" d="M65.071 34.351c0 1.183-1.015 2.141-2.268 2.141-1.252 0-2.268-.959-2.268-2.141V19.925c0-1.183 1.015-2.141 2.268-2.141 1.252 0 2.268.959 2.268 2.141v14.426zm-11.74 2.955c.836.836.796 2.232-.089 3.118-.886.886-2.281.926-3.118.089l-10.2-10.2c-.836-.836-.796-2.232.089-3.118.886-.886 2.281-.926 3.118-.089l10.2 10.2zM47.12 47.697c1.183 0 2.141 1.015 2.141 2.268 0 1.252-.959 2.268-2.141 2.268H32.694c-1.183 0-2.141-1.015-2.141-2.268 0-1.252.959-2.268 2.141-2.268H47.12zm2.955 11.74c.836-.836 2.232-.796 3.118.089.886.886.926 2.281.089 3.118L43.081 72.845c-.836.836-2.232.796-3.118-.089-.886-.886-.926-2.281-.089-3.118l10.201-10.201zm10.39 6.212c0-1.183 1.015-2.141 2.268-2.141 1.252 0 2.268.959 2.268 2.141v14.426c0 1.183-1.015 2.141-2.268 2.141-1.252 0-2.268-.959-2.268-2.141V65.649zm11.74-2.955c-.836-.836-.796-2.232.089-3.118.886-.886 2.281-.926 3.118-.089l10.201 10.201c.836.836.796 2.232-.089 3.118-.886.886-2.281.926-3.118.089L72.205 62.694zm6.212-10.391c-1.183 0-2.141-1.015-2.141-2.268 0-1.252.959-2.268 2.141-2.268h14.426c1.183 0 2.141 1.015 2.141 2.268 0 1.252-.959 2.268-2.141 2.268H78.417zm-2.955-11.74c-.836.836-2.232.796-3.118-.089-.886-.886-.926-2.281-.089-3.118l10.201-10.201c.836-.836 2.232-.796 3.118.089.886.886.926 2.281.089 3.118L75.462 40.563z"/>
  <ellipse cx="62.768" cy="50" fill="#F9B233" rx="10.679" ry="10.22"/>
  <path fill="#C7C6C6" fill-rule="evenodd" d="M31.792 57.701s7.739-3.87 22.089-3.547c14.35.322 32.892-.806 38.212 1.612 5.321 2.418 8.062 2.096 7.9 5.482-.161 3.386-32.569 5.321-50.305 4.031-17.736-1.29-27.893-.806-27.732-4.353.162-3.547 8.223-4.515 9.836-3.225z" clip-rule="evenodd" opacity=".6"/>
</svg>
