<svg xmlns="http://www.w3.org/2000/svg" xml:space="preserve" width="100" height="100" viewBox="0 0 100 100">
  <path fill="#9A9999" fill-rule="evenodd" d="M35.94 20.433c.126-4.685-2.941-10.812-11.986-11.034-11.059-.272-16.04 10.151-16.05 17.875-.008 6.147 5.429 15.529 16.022 15.469 14.855-.085 29.578 2.8 30.174-12.636.503-13.035-13.841-11.932-18.16-9.674z" clip-rule="evenodd"/>
  <path fill="#797979" fill-rule="evenodd" d="M75.581 32.291c.126-4.685-2.946-10.658-11.986-11.034-11.988-.499-13.788 8.563-13.788 8.563s-13.01-3.489-13.01 8.673c0 13.551 14.784 10.701 14.784 10.701s.798 5.873 11.961 6.038c14.854.22 29.849.598 30.198-13.267.329-13.04-13.84-11.931-18.159-9.674z" clip-rule="evenodd"/>
  <path fill="#F9B233" d="M46.192 84.351S66.87 52.128 65.911 51.894c-1.546-.377-10.37 1.626-10.278 1.34.557-1.747 6.432-13.282 5.47-13.389-2.229-.248-9.315-.408-12.071-.047-1.173.154-4.591 19.058-4.591 21.515 0 .595 8.438-.854 9.201-1.029.931-.214-7.45 24.067-7.45 24.067z"/>
  <g fill="#ACCFE9">
    <path d="M87.204 70.414c0 .447-.355.809-.793.809-.438 0-.793-.362-.793-.809v-7.701c0-.447.355-.809.793-.809.438 0 .793.362.793.809v7.701z"/>
    <path d="M90.142 67.802c.387.223.523.712.304 1.091-.219.379-.71.506-1.097.282l-6.67-3.851c-.387-.223-.523-.712-.304-1.091.219-.379.71-.506 1.097-.282l6.67 3.851z"/>
    <path d="M89.349 63.951c.387-.223.878-.097 1.097.282.219.379.083.868-.304 1.091l-6.67 3.851c-.387.223-.878.097-1.097-.282-.219-.379-.083-.868.304-1.091l6.67-3.851z"/>
  </g>
  <g fill="#ACCFE9">
    <path d="M68.949 78.318c0 .447-.355.809-.793.809-.438 0-.793-.362-.793-.809v-7.701c0-.447.355-.809.793-.809.438 0 .793.362.793.809v7.701z"/>
    <path d="M71.887 75.706c.387.223.523.712.304 1.091-.219.379-.71.506-1.097.282l-6.67-3.851c-.387-.223-.523-.712-.304-1.091.219-.379.71-.506 1.097-.282l6.67 3.851z"/>
    <path d="M71.094 71.855c.387-.223.878-.097 1.097.282.219.379.083.868-.304 1.091l-6.67 3.851c-.387.223-.878.097-1.097-.282-.219-.379-.083-.868.304-1.091l6.67-3.851z"/>
  </g>
  <g fill="#ACCFE9">
    <path d="M37.708 70.978c0 .447-.355.809-.793.809-.438 0-.793-.362-.793-.809v-7.701c0-.447.355-.809.793-.809.438 0 .793.362.793.809v7.701z"/>
    <path d="M40.647 68.366c.387.223.523.712.304 1.091-.219.379-.71.506-1.097.282l-6.67-3.851c-.387-.223-.523-.712-.304-1.091.219-.379.71-.506 1.097-.282l6.67 3.851z"/>
    <path d="M39.854 64.515c.387-.223.878-.097 1.097.282.219.379.083.868-.304 1.091l-6.67 3.851c-.387.223-.878.097-1.097-.282-.219-.379-.083-.868.304-1.091l6.67-3.851z"/>
  </g>
  <g fill="#ACCFE9">
    <path d="M36.014 89.798c0 .447-.355.809-.793.809-.438 0-.793-.362-.793-.809v-7.701c0-.447.355-.809.793-.809.438 0 .793.362.793.809v7.701z"/>
    <path d="M38.953 87.186c.387.223.523.712.304 1.091-.219.379-.71.506-1.097.282l-6.67-3.851c-.387-.223-.523-.712-.304-1.091.219-.379.71-.506 1.097-.282l6.67 3.851z"/>
    <path d="M38.16 83.335c.387-.223.878-.097 1.097.282.219.379.083.868-.304 1.091l-6.67 3.851c-.387.223-.878.097-1.097-.282-.219-.379-.083-.868.304-1.091l6.67-3.851z"/>
  </g>
  <g fill="#ACCFE9">
    <path d="M25.005 78.036c0 .447-.355.809-.793.809-.438 0-.793-.362-.793-.809v-7.701c0-.447.355-.809.793-.809.438 0 .793.362.793.809v7.701z"/>
    <path d="M27.943 75.423c.387.223.523.712.304 1.091-.219.379-.71.506-1.097.282l-6.67-3.851c-.387-.223-.523-.712-.304-1.091.219-.379.71-.506 1.097-.282l6.67 3.851z"/>
    <path d="M27.15 71.573c.387-.223.878-.097 1.097.282.219.379.083.868-.304 1.091l-6.67 3.851c-.387.223-.878.097-1.097-.282-.219-.379-.083-.868.304-1.091l6.67-3.851z"/>
  </g>
  <g fill="#ACCFE9">
    <path d="M28.769 58.087c0 .447-.355.809-.793.809-.438 0-.793-.362-.793-.809v-7.701c0-.447.355-.809.793-.809.438 0 .793.362.793.809v7.701z"/>
    <path d="M31.707 55.475c.387.223.523.712.304 1.091-.219.379-.71.506-1.097.282l-6.67-3.851c-.387-.223-.523-.712-.304-1.091.219-.379.71-.506 1.097-.282l6.67 3.851z"/>
    <path d="M30.914 51.624c.387-.223.878-.097 1.097.282.219.379.083.868-.304 1.091l-6.67 3.851c-.387.223-.878.097-1.097-.282-.219-.379-.083-.868.304-1.091l6.67-3.851z"/>
  </g>
  <g fill="#ACCFE9">
    <path d="M11.267 50.935c0 .447-.355.809-.793.809-.438 0-.793-.362-.793-.809v-7.701c0-.447.355-.809.793-.809.438 0 .793.362.793.809v7.701z"/>
    <path d="M14.205 48.323c.387.223.523.712.304 1.091-.219.379-.71.506-1.097.282l-6.67-3.851c-.387-.223-.523-.712-.304-1.091.219-.379.71-.506 1.097-.282l6.67 3.851z"/>
    <path d="M13.412 44.473c.387-.223.878-.097 1.097.282.219.379.083.868-.304 1.091l-6.67 3.851c-.387.223-.878.097-1.097-.282-.219-.379-.083-.868.304-1.091l6.67-3.851z"/>
  </g>
  <g fill="#ACCFE9">
    <path d="M11.187 68.814c0 .447-.355.809-.793.809-.438 0-.793-.362-.793-.809v-7.701c0-.447.355-.809.793-.809.438 0 .793.362.793.809v7.701z"/>
    <path d="M14.125 66.202c.387.223.523.712.304 1.091-.219.379-.71.506-1.097.282l-6.67-3.851c-.387-.223-.523-.712-.304-1.091.219-.379.71-.506 1.097-.282l6.67 3.851z"/>
    <path d="M13.332 62.351c.387-.223.878-.097 1.097.282.219.379.083.868-.304 1.091l-6.67 3.851c-.387.223-.878.097-1.097-.282-.219-.379-.083-.868.304-1.091l6.67-3.851z"/>
  </g>
  <g fill="#ACCFE9">
    <path d="M73.089 58.369c0 .447-.355.809-.793.809-.438 0-.793-.362-.793-.809v-7.701c0-.447.355-.809.793-.809.438 0 .793.362.793.809v7.701z"/>
    <path d="M76.028 55.757c.387.223.523.712.304 1.091-.219.379-.71.506-1.097.282l-6.67-3.851c-.387-.223-.523-.712-.304-1.091.219-.379.71-.506 1.097-.282l6.67 3.851z"/>
    <path d="M75.235 51.906c.387-.223.878-.097 1.097.282.219.379.083.868-.304 1.091l-6.67 3.851c-.387.223-.878.097-1.097-.282-.219-.379-.083-.868.304-1.091l6.67-3.851z"/>
  </g>
</svg>
