<svg xmlns="http://www.w3.org/2000/svg" xml:space="preserve" width="100" height="100" viewBox="0 0 100 100">
  <g fill="#3388C9">
    <circle cx="65.855" cy="32.328" r="19.109" opacity=".3"/>
    <path d="M69.492 33.52c2.425-7.464.004-15.327-5.517-20.217 1.995-.194 4.707-.141 7.732.843 10.038 3.26 15.53 14.042 12.269 24.079-3.261 10.037-14.042 15.53-24.079 12.267-2.575-.835-4.846-2.175-6.751-3.858 7.34-.712 13.922-5.655 16.346-13.114z"/>
  </g>
  <path fill="#6FB2E2" d="M19.954 63.5c-.197.485-.991.62-1.773.302-.782-.318-1.256-.969-1.059-1.454l5.357-13.17c.197-.485.991-.62 1.773-.302.782.318 1.256.969 1.059 1.454L19.954 63.5z"/>
  <path fill="#9A9999" fill-rule="evenodd" d="M34.66 31.976c.126-4.685-2.941-10.812-11.986-11.034-11.059-.271-16.04 10.151-16.05 17.875-.008 6.147 5.429 15.529 16.022 15.469 14.855-.085 29.578 2.8 30.174-12.636.503-13.034-13.841-11.931-18.16-9.674z" clip-rule="evenodd"/>
  <path fill="#6FB2E2" d="M72.133 74.766c-.197.485-.991.62-1.773.302-.782-.318-1.256-.969-1.059-1.454l5.357-13.17c.197-.485.991-.62 1.773-.302.782.318 1.256.969 1.059 1.454l-5.357 13.17zm-20.274-2.983c-.197.485-.991.62-1.773.302-.782-.318-1.256-.969-1.059-1.454l4.047-10.952c.197-.485.991-.62 1.773-.302.782.318 1.256.969 1.059 1.454l-4.047 10.952z"/>
  <path fill="#797979" fill-rule="evenodd" d="M76.689 43.204c.126-4.685-2.946-10.658-11.986-11.034-11.988-.499-13.788 8.563-13.788 8.563s-13.01-3.489-13.01 8.673c0 13.551 14.784 10.701 14.784 10.701s.798 5.873 11.961 6.038c14.854.22 29.849.598 30.198-13.267.329-13.04-13.84-11.931-18.159-9.674z" clip-rule="evenodd"/>
  <path fill="#6FB2E2" d="M82.903 69.121c-.197.485-.991.62-1.773.302-.782-.318-1.256-.969-1.059-1.454l5.357-13.17c.197-.485.991-.62 1.773-.302.782.318 1.256.969 1.059 1.454l-5.357 13.17zm-40.77.312c-.197.485-.991.62-1.773.302-.782-.318-1.256-.969-1.059-1.454l5.357-13.17c.197-.485.991-.62 1.773-.302.782.318 1.256.969 1.059 1.454l-5.357 13.17zm9.262 16.172c-.197.485-.991.62-1.773.302-.782-.318-1.256-.969-1.059-1.454L52.609 73.5c.197-.485.991-.62 1.773-.302.782.318 1.256.969 1.059 1.454l-4.046 10.953zm25.11-.258c-.197.485-.991.62-1.773.302-.782-.318-1.256-.969-1.059-1.454l3.232-8.74c.197-.485.991-.62 1.773-.302.782.318 1.256.969 1.059 1.454l-3.232 8.74zM65.522 67.338c-.197.485-.991.62-1.773.302-.782-.318-1.256-.969-1.059-1.454l3.232-8.74c.197-.485.991-.62 1.773-.302.782.318 1.256.969 1.059 1.454l-3.232 8.74zm1.589 18.974c-.197.485-.991.62-1.773.302-.782-.318-1.256-.969-1.059-1.454l2.068-5.596c.197-.485.991-.62 1.773-.302.782.318 1.256.969 1.059 1.454l-2.068 5.596zm-6.909-7.431c-.197.485-.991.62-1.773.302-.782-.318-1.256-.969-1.059-1.454l2.068-5.596c.197-.485.991-.62 1.773-.302.782.318 1.256.969 1.059 1.454l-2.068 5.596zm-16.807.724c-.197.485-.991.62-1.773.302-.782-.318-1.256-.969-1.059-1.454l2.068-5.596c.197-.485.991-.62 1.773-.302.782.318 1.256.969 1.059 1.454l-2.068 5.596zm-12.672-21.75c-.197.485-.991.62-1.773.302-.782-.318-1.256-.969-1.059-1.454l5.357-13.17c.197-.485.991-.62 1.773-.302.782.318 1.256.969 1.059 1.454l-5.357 13.17zM24.325 74.08c-.197.485-.991.62-1.773.302-.782-.318-1.256-.969-1.059-1.454l3.232-8.74c.197-.485.991-.62 1.773-.302.782.318 1.256.969 1.059 1.454l-3.232 8.74zM13.342 56.072c-.197.485-.991.62-1.773.302-.782-.318-1.256-.969-1.059-1.454l3.232-8.74c.197-.485.991-.62 1.773-.302.782.318 1.256.969 1.059 1.454l-3.232 8.74zm1.59 18.974c-.197.485-.991.62-1.773.302-.782-.318-1.256-.969-1.059-1.454l2.068-5.596c.197-.485.991-.62 1.773-.302.782.318 1.256.969 1.059 1.454l-2.068 5.596zm-6.909-7.431c-.197.485-.991.62-1.773.302-.782-.318-1.256-.969-1.059-1.454l2.068-5.596c.197-.485.991-.62 1.773-.302.782.318 1.256.969 1.059 1.454l-2.068 5.596z"/>
</svg>
