<svg xmlns="http://www.w3.org/2000/svg" xml:space="preserve" width="100" height="100" viewBox="0 0 100 100">
  <path fill="#F9B334" d="M52.303 34.351c0 1.183-1.015 2.141-2.268 2.141-1.252 0-2.268-.959-2.268-2.141V19.925c0-1.183 1.015-2.141 2.268-2.141 1.252 0 2.268.959 2.268 2.141v14.426zm-11.74 2.955c.836.836.796 2.232-.089 3.118-.886.886-2.281.926-3.118.089l-10.201-10.2c-.836-.836-.796-2.232.089-3.118.886-.886 2.281-.926 3.118-.089l10.201 10.2zm-6.212 10.391c1.183 0 2.141 1.015 2.141 2.268 0 1.252-.959 2.268-2.141 2.268H19.925c-1.183 0-2.141-1.015-2.141-2.268 0-1.252.959-2.268 2.141-2.268h14.426zm2.955 11.74c.836-.836 2.232-.796 3.118.089.886.886.926 2.281.089 3.118l-10.2 10.201c-.836.836-2.232.796-3.118-.089-.886-.886-.926-2.281-.089-3.118l10.2-10.201zm10.391 6.212c0-1.183 1.015-2.141 2.268-2.141 1.252 0 2.268.959 2.268 2.141v14.426c0 1.183-1.015 2.141-2.268 2.141-1.252 0-2.268-.959-2.268-2.141V65.649zm11.74-2.955c-.836-.836-.796-2.232.089-3.118.886-.886 2.281-.926 3.118-.089l10.201 10.201c.836.836.796 2.232-.089 3.118-.886.886-2.281.926-3.118.089L59.437 62.694zm6.212-10.391c-1.183 0-2.141-1.015-2.141-2.268 0-1.252.959-2.268 2.141-2.268h14.426c1.183 0 2.141 1.015 2.141 2.268 0 1.252-.959 2.268-2.141 2.268H65.649zm-2.955-11.74c-.836.836-2.232.796-3.118-.089-.886-.886-.926-2.281-.089-3.118l10.201-10.201c.836-.836 2.232-.796 3.118.089.886.886.926 2.281.089 3.118L62.694 40.563z"/>
  <ellipse cx="50" cy="50" fill="#F9B233" rx="10.679" ry="10.22"/>
</svg>
