<svg xmlns="http://www.w3.org/2000/svg" xml:space="preserve" width="100" height="100" viewBox="0 0 100 100">
  <g fill-rule="evenodd" clip-rule="evenodd">
    <path fill="#9A9999" d="M33.937 38.085c.126-4.685-2.941-10.812-11.986-11.034-11.06-.271-16.04 10.151-16.05 17.875-.008 6.147 5.429 15.529 16.022 15.469 14.855-.085 29.578 2.8 30.174-12.636.503-13.035-13.841-11.931-18.16-9.674z"/>
    <path fill="#797979" d="M75.934 49.95c.126-4.685-2.946-10.658-11.986-11.034-11.988-.499-13.788 8.563-13.788 8.563s-13.01-3.489-13.01 8.673c0 13.551 14.784 10.701 14.784 10.701s.798 5.873 11.961 6.038c14.854.22 29.849.598 30.198-13.267.329-13.04-13.84-11.931-18.159-9.674z"/>
  </g>
</svg>
