<svg xmlns="http://www.w3.org/2000/svg" xml:space="preserve" width="100" height="100" viewBox="0 0 100 100">
  <path fill="#F9B334" d="M65.395 34.351c0 1.183-1.015 2.141-2.268 2.141-1.252 0-2.268-.959-2.268-2.141V19.925c0-1.183 1.015-2.141 2.268-2.141 1.252 0 2.268.959 2.268 2.141v14.426zm-11.739 2.955c.836.836.796 2.232-.089 3.118-.886.886-2.281.926-3.118.089l-10.201-10.2c-.836-.836-.796-2.232.089-3.118.886-.886 2.281-.926 3.118-.089l10.201 10.2zm-6.212 10.391c1.183 0 2.141 1.015 2.141 2.268 0 1.252-.959 2.268-2.141 2.268H33.018c-1.183 0-2.141-1.015-2.141-2.268 0-1.252.959-2.268 2.141-2.268h14.426zm2.955 11.74c.836-.836 2.232-.796 3.118.089.886.886.926 2.281.089 3.118L43.405 72.845c-.836.836-2.232.796-3.118-.089-.886-.886-.926-2.281-.089-3.118l10.201-10.201zm10.391 6.212c0-1.183 1.015-2.141 2.268-2.141 1.252 0 2.268.959 2.268 2.141v14.426c0 1.183-1.015 2.141-2.268 2.141-1.252 0-2.268-.959-2.268-2.141V65.649zm11.739-2.955c-.836-.836-.796-2.232.089-3.118.886-.886 2.281-.926 3.118-.089l10.201 10.201c.836.836.796 2.232-.089 3.118-.886.886-2.281.926-3.118.089L72.529 62.694zm6.212-10.391c-1.183 0-2.141-1.015-2.141-2.268 0-1.252.959-2.268 2.141-2.268h14.426c1.183 0 2.141 1.015 2.141 2.268 0 1.252-.959 2.268-2.141 2.268H78.741zm-2.955-11.74c-.836.836-2.232.796-3.118-.089-.886-.886-.926-2.281-.089-3.118L82.78 27.155c.836-.836 2.232-.796 3.118.089.886.886.926 2.281.089 3.118L75.786 40.563z"/>
  <ellipse cx="63.092" cy="50" fill="#F9B233" rx="10.679" ry="10.22"/>
  <path fill="#9A9999" fill-rule="evenodd" d="M45.495 44.387c.126-4.685-2.941-10.812-11.986-11.034-11.059-.271-16.04 10.151-16.05 17.875-.008 6.147 5.429 15.529 16.022 15.469 14.855-.085 29.578 2.8 30.174-12.636.503-13.034-13.841-11.931-18.16-9.674z" clip-rule="evenodd"/>
  <path fill="#C7C6C6" fill-rule="evenodd" d="M27.209 40.853c.428 3.215 25.226 6.469 41.51 3.567-.613-.351 31.118.322 31.279-1.774s-11.675-2.552-11.675-2.552c-14.452-2.343-15.077-2.446-30.73-2.446-15.639 0-30.812-.01-30.384 3.205zm4.583 16.848s7.739-3.87 22.089-3.547c14.35.322 32.892-.806 38.212 1.612 5.321 2.418 8.062 2.096 7.9 5.482-.161 3.386-32.569 5.321-50.305 4.031-17.736-1.29-27.893-.806-27.732-4.353.162-3.547 8.223-4.515 9.836-3.225zM1.235 46.527s19.832-5.966 34.181 0c.164-.299 7.144-.272 7.038 1.718-.105 1.99-13.649 5.86-17.807 2.857.002.001-31.151 3.487-23.412-4.575z" clip-rule="evenodd" opacity=".6"/>
</svg>
