<svg xmlns="http://www.w3.org/2000/svg" xml:space="preserve" width="100" height="100" viewBox="0 0 100 100">
  <path fill="#CC1D17" stroke="#FFF" d="M57.932 39.603c.605-1.128 17.065-30.783 17.681-31.776.617-.993 1.645-1.097 2.262.052.617 1.15 17.034 30.146 17.733 31.41.603 1.09.327 2.195-1.01 2.247-1.489.058-34.456.157-35.484.105-1.028-.052-1.799-.888-1.182-2.038z"/>
  <path fill="#FFF" d="M62.852 38.14h27.961L76.781 13.002 62.8 38.035"/>
  <path fill="#070707" d="M76.713 36.569c-1.069 0-1.895-.887-1.895-1.908 0-1.088.826-1.925 1.895-1.925 1.05 0 1.875.862 1.875 1.925.001 1.02-.847 1.908-1.875 1.908zm1.095-6.693c-.045.431-.135.453-.469.453h-1.271c-.335 0-.423-.022-.468-.453l-.491-8.869c-.022-.386-.022-.318-.022-.455 0-.293.222-.293.4-.293h2.386c.178 0 .447 0 .447.293 0 .137 0 .068-.022.455l-.49 8.869z"/>
</svg>
