<svg xmlns="http://www.w3.org/2000/svg" xml:space="preserve" width="100" height="100" viewBox="0 0 100 100">
  <path fill="#F9B334" d="M52.257 34.351c0 1.183-1.015 2.141-2.268 2.141-1.252 0-2.268-.959-2.268-2.141V19.925c0-1.183 1.015-2.141 2.268-2.141 1.252 0 2.268.959 2.268 2.141v14.426zm-11.74 2.955c.836.836.796 2.232-.089 3.118-.886.886-2.281.926-3.118.089l-10.2-10.2c-.836-.836-.796-2.232.089-3.118.886-.886 2.281-.926 3.118-.089l10.2 10.2zm-6.212 10.391c1.183 0 2.141 1.015 2.141 2.268 0 1.252-.959 2.268-2.141 2.268H19.88c-1.183 0-2.141-1.015-2.141-2.268 0-1.252.959-2.268 2.141-2.268h14.425zm2.955 11.74c.836-.836 2.232-.796 3.118.089.886.886.926 2.281.089 3.118l-10.2 10.201c-.836.836-2.232.796-3.118-.089-.886-.886-.926-2.281-.089-3.118l10.2-10.201zm10.391 6.212c0-1.183 1.015-2.141 2.268-2.141 1.252 0 2.268.959 2.268 2.141v14.426c0 1.183-1.015 2.141-2.268 2.141-1.252 0-2.268-.959-2.268-2.141V65.649zm11.74-2.955c-.836-.836-.796-2.232.089-3.118.886-.886 2.281-.926 3.118-.089l10.201 10.201c.836.836.796 2.232-.089 3.118-.886.886-2.281.926-3.118.089L59.391 62.694zm6.212-10.391c-1.183 0-2.141-1.015-2.141-2.268 0-1.252.959-2.268 2.141-2.268h14.426c1.183 0 2.141 1.015 2.141 2.268 0 1.252-.959 2.268-2.141 2.268H65.603zm-2.955-11.74c-.836.836-2.232.796-3.118-.089-.886-.886-.926-2.281-.089-3.118l10.201-10.201c.836-.836 2.232-.796 3.118.089.886.886.926 2.281.089 3.118L62.648 40.563z"/>
  <ellipse cx="49.954" cy="50" fill="#F9B233" rx="10.679" ry="10.22"/>
  <path fill="#9A9999" fill-rule="evenodd" d="M34.257 46.087c.126-4.685-2.941-10.812-11.986-11.034-11.059-.271-16.04 10.151-16.05 17.875-.008 6.147 5.429 15.529 16.022 15.469 14.855-.085 29.578 2.8 30.174-12.636.503-13.034-13.841-11.931-18.16-9.674z" clip-rule="evenodd"/>
  <path fill="#797979" fill-rule="evenodd" d="M75.614 57.993c.126-4.685-2.946-10.658-11.986-11.034-11.988-.499-13.788 8.563-13.788 8.563s-13.01-3.489-13.01 8.673c0 13.551 14.784 10.701 14.784 10.701s.798 5.873 11.961 6.038c14.854.22 29.849.598 30.198-13.267.329-13.04-13.841-11.931-18.159-9.674z" clip-rule="evenodd"/>
</svg>
