<svg xmlns="http://www.w3.org/2000/svg" xml:space="preserve" width="100" height="100" viewBox="0 0 100 100">
  <g fill="#3388C9">
    <circle cx="63.577" cy="25.216" r="19.109" opacity=".3"/>
    <path d="M67.214 26.409c2.425-7.464.004-15.327-5.517-20.217 1.995-.194 4.707-.141 7.732.843 10.038 3.26 15.53 14.042 12.269 24.079-3.261 10.037-14.042 15.53-24.079 12.267-2.575-.835-4.846-2.175-6.752-3.858 7.341-.713 13.923-5.655 16.347-13.114z"/>
  </g>
  <path fill="#9A9999" fill-rule="evenodd" d="M36.411 24.586c.126-4.685-2.941-10.812-11.986-11.034-11.059-.271-16.04 10.151-16.05 17.875-.008 6.147 5.429 15.529 16.022 15.469 14.855-.085 29.578 2.8 30.174-12.636.503-13.035-13.841-11.931-18.16-9.674z" clip-rule="evenodd"/>
  <path fill="#6FB2E2" d="M32.474 50.464c-.197.485-.991.62-1.773.302-.782-.318-1.256-.969-1.059-1.454l5.357-13.17c.197-.485.991-.62 1.773-.302.782.318 1.256.969 1.059 1.454l-5.357 13.17zM26.076 66.69c-.197.485-.991.62-1.773.302-.782-.318-1.256-.969-1.059-1.454l3.232-8.74c.197-.485.991-.62 1.773-.302.782.318 1.256.969 1.059 1.454l-3.232 8.74zM11.099 47.054c-.197.485-.991.62-1.773.302-.782-.318-1.256-.969-1.059-1.454l3.232-8.74c.197-.485.991-.62 1.773-.302.782.318 1.256.969 1.059 1.454l-3.232 8.74zM5.78 58.597c-.197.485-.991.62-1.773.302-.782-.318-1.256-.969-1.059-1.454l2.068-5.596c.197-.485.991-.62 1.773-.302.782.318 1.256.969 1.059 1.454L5.78 58.597z"/>
  <path fill="#797979" fill-rule="evenodd" d="M78.932 36.347c.126-4.685-2.946-10.658-11.986-11.034-11.988-.499-13.788 8.563-13.788 8.563s-13.01-3.489-13.01 8.673c0 13.551 14.784 10.701 14.784 10.701s.798 5.873 11.961 6.038c14.854.22 29.849.598 30.198-13.267.329-13.041-13.84-11.932-18.159-9.674z" clip-rule="evenodd"/>
  <path fill="#6FB2E2" d="M68.601 67.648c-.197.485-.991.62-1.773.302-.782-.318-1.256-.969-1.059-1.454l5.357-13.17c.197-.485.991-.62 1.773-.302.782.318 1.256.969 1.059 1.454l-5.357 13.17zm17.106 12.35c-.197.485-.991.62-1.773.302-.782-.318-1.256-.969-1.059-1.454l5.357-13.17c.197-.485.991-.62 1.773-.302.782.318 1.256.969 1.059 1.454l-5.357 13.17zm-6.398 16.226c-.197.485-.991.62-1.773.302-.782-.318-1.256-.969-1.059-1.454l3.232-8.74c.197-.485.991-.62 1.773-.302.782.318 1.256.969 1.059 1.454l-3.232 8.74zm-15.73-17.03c-.197.485-.991.62-1.773.302-.782-.318-1.256-.969-1.059-1.454l2.068-5.596c.197-.485.991-.62 1.773-.302.782.318 1.256.969 1.059 1.454l-2.068 5.596zM44.172 62.396c-.197.485-.991.62-1.773.302-.782-.318-1.256-.969-1.059-1.454l5.357-13.17c.197-.485.991-.62 1.773-.302.782.318 1.256.969 1.059 1.454l-5.357 13.17zm-6.398 16.225c-.197.485-.991.62-1.773.302-.782-.318-1.256-.969-1.059-1.454l3.232-8.74c.197-.485.991-.62 1.773-.302.782.318 1.256.969 1.059 1.454l-3.232 8.74z"/>
  <g fill="#ACCFE9">
    <path d="M52.136 87.297c0 .447-.355.809-.793.809-.438 0-.793-.362-.793-.809v-7.701c0-.447.355-.809.793-.809.438 0 .793.362.793.809v7.701z"/>
    <path d="M55.074 84.684c.387.223.523.712.304 1.091-.219.379-.71.506-1.097.282l-6.67-3.851c-.387-.223-.523-.712-.304-1.091.219-.379.71-.506 1.097-.282l6.67 3.851z"/>
    <path d="M54.281 80.834c.387-.223.878-.097 1.097.282.219.379.083.868-.304 1.091l-6.67 3.851c-.387.223-.878.097-1.097-.282-.219-.379-.083-.868.304-1.091l6.67-3.851z"/>
  </g>
  <g fill="#ACCFE9">
    <path d="M52.726 70.574c0 .447-.355.809-.793.809-.438 0-.793-.362-.793-.809v-7.701c0-.447.355-.809.793-.809.438 0 .793.362.793.809v7.701z"/>
    <path d="M55.664 67.962c.387.223.523.712.304 1.091-.219.379-.71.506-1.097.282l-6.67-3.851c-.387-.223-.523-.712-.304-1.091.219-.379.71-.506 1.097-.282l6.67 3.851z"/>
    <path d="M54.871 64.111c.387-.223.878-.097 1.097.282.219.379.083.868-.304 1.091l-6.67 3.851c-.387.223-.878.097-1.097-.282-.219-.379-.083-.868.304-1.091l6.67-3.851z"/>
  </g>
  <g fill="#ACCFE9">
    <path d="M61.186 52.08c0 .447-.355.809-.793.809-.438 0-.793-.362-.793-.809v-7.701c0-.447.355-.809.793-.809.438 0 .793.362.793.809v7.701z"/>
    <path d="M64.124 49.468c.387.223.523.712.304 1.091-.219.379-.71.506-1.097.282l-6.67-3.851c-.387-.223-.523-.712-.304-1.091.219-.379.71-.506 1.097-.282l6.67 3.851z"/>
    <path d="M63.331 45.618c.387-.223.878-.097 1.097.282.219.379.083.868-.304 1.091l-6.67 3.851c-.387.223-.878.097-1.097-.282-.219-.379-.083-.868.304-1.091l6.67-3.851z"/>
  </g>
  <g fill="#ACCFE9">
    <path d="M79.285 70.18c0 .447-.355.809-.793.809-.438 0-.793-.362-.793-.809v-7.701c0-.447.355-.809.793-.809.438 0 .793.362.793.809v7.701z"/>
    <path d="M82.224 67.568c.387.223.523.712.304 1.091-.219.379-.71.506-1.097.282l-6.67-3.851c-.387-.223-.523-.712-.304-1.091.219-.379.71-.506 1.097-.282l6.67 3.851z"/>
    <path d="M81.431 63.718c.387-.223.878-.097 1.097.282.219.379.083.868-.304 1.091l-6.67 3.851c-.387.223-.878.097-1.097-.282-.219-.379-.083-.868.304-1.091l6.67-3.851z"/>
  </g>
  <g fill="#ACCFE9">
    <path d="M72.4 84.739c0 .447-.355.809-.793.809-.438 0-.793-.362-.793-.809v-7.701c0-.447.355-.809.793-.809.438 0 .793.362.793.809v7.701z"/>
    <path d="M75.338 82.127c.387.223.523.712.304 1.091-.219.379-.71.506-1.097.282l-6.67-3.851c-.387-.223-.523-.712-.304-1.091.219-.379.71-.506 1.097-.282l6.67 3.851z"/>
    <path d="M74.545 78.276c.387-.223.878-.097 1.097.282.219.379.083.868-.304 1.091l-6.67 3.851c-.387.223-.878.097-1.097-.282-.219-.379-.083-.868.304-1.091l6.67-3.851z"/>
  </g>
  <g fill="#ACCFE9">
    <path d="M11.608 73.722c0 .447-.355.809-.793.809-.438 0-.793-.362-.793-.809V66.02c0-.447.355-.809.793-.809.438 0 .793.362.793.809v7.702z"/>
    <path d="M14.546 71.11c.387.223.523.712.304 1.091-.219.379-.71.506-1.097.282l-6.67-3.851c-.387-.223-.523-.712-.304-1.091.219-.379.71-.506 1.097-.282l6.67 3.851z"/>
    <path d="M13.753 67.259c.387-.223.878-.097 1.097.282.219.379.083.868-.304 1.091l-6.67 3.851c-.387.223-.878.097-1.097-.282-.219-.379-.083-.868.304-1.091l6.67-3.851z"/>
  </g>
  <g fill="#ACCFE9">
    <path d="M18.297 59.556c0 .447-.355.809-.793.809-.438 0-.793-.362-.793-.809v-7.701c0-.447.355-.809.793-.809.438 0 .793.362.793.809v7.701z"/>
    <path d="M21.235 56.944c.387.223.523.712.304 1.091-.219.379-.71.506-1.097.282l-6.67-3.851c-.387-.223-.523-.712-.304-1.091.219-.379.71-.506 1.097-.282l6.67 3.851z"/>
    <path d="M20.442 53.094c.387-.223.878-.097 1.097.282.219.379.083.868-.304 1.091l-6.67 3.851c-.387.223-.878.097-1.097-.282-.219-.379-.083-.868.304-1.091l6.67-3.851z"/>
  </g>
</svg>
