<svg xmlns="http://www.w3.org/2000/svg" xml:space="preserve" width="100" height="100" viewBox="0 0 100 100">
  <path fill="#F9B334" d="M57.736 16.767c0 1.183-1.015 2.141-2.268 2.141-1.252 0-2.268-.959-2.268-2.141V2.341C53.2 1.158 54.215.2 55.468.2c1.252 0 2.268.959 2.268 2.141v14.426zm-11.74 2.955c.836.836.796 2.232-.089 3.118-.886.886-2.281.926-3.118.089l-10.2-10.2c-.836-.836-.796-2.232.089-3.118.886-.886 2.281-.926 3.118-.089l10.2 10.2zm-6.211 10.391c1.183 0 2.141 1.015 2.141 2.268 0 1.252-.959 2.268-2.141 2.268H25.359c-1.183 0-2.141-1.015-2.141-2.268 0-1.252.959-2.268 2.141-2.268h14.426zM64.87 45.11c-.836-.836-.796-2.232.089-3.118.886-.886 2.281-.926 3.118-.089l10.201 10.201c.836.836.796 2.232-.089 3.118-.886.886-2.281.926-3.118.089L64.87 45.11zm6.212-10.391c-1.183 0-2.141-1.015-2.141-2.268 0-1.252.959-2.268 2.141-2.268h14.426c1.183 0 2.141 1.015 2.141 2.268 0 1.252-.959 2.268-2.141 2.268H71.082zm-2.955-11.74c-.836.836-2.232.796-3.118-.089-.886-.886-.926-2.281-.089-3.118L75.121 9.571c.836-.836 2.232-.796 3.118.089.886.886.926 2.281.089 3.118L68.127 22.979z"/>
  <ellipse cx="55.433" cy="32.416" fill="#F9B233" rx="10.679" ry="10.22"/>
  <path fill="#9A9999" fill-rule="evenodd" d="M36.268 29.446c.126-4.685-2.941-10.812-11.986-11.034-11.059-.271-16.04 10.151-16.05 17.875-.008 6.147 5.429 15.529 16.022 15.469 14.855-.085 29.578 2.8 30.174-12.636.503-13.034-13.841-11.931-18.16-9.674z" clip-rule="evenodd"/>
  <path fill="#6FB2E2" d="M84.414 83.731c-.197.485-.991.62-1.773.302-.782-.318-1.256-.969-1.059-1.454l10.8-28.844c.197-.485.991-.62 1.773-.302.782.318 1.256.969 1.059 1.454l-10.8 28.844z"/>
  <path fill="#797979" fill-rule="evenodd" d="M79.109 41.072c.126-4.685-2.946-10.658-11.986-11.034-11.988-.499-13.788 8.563-13.788 8.563s-13.01-3.489-13.01 8.673c0 13.551 14.784 10.701 14.784 10.701s.798 5.873 11.961 6.038c14.854.22 29.849.598 30.198-13.267.329-13.041-13.84-11.932-18.159-9.674z" clip-rule="evenodd"/>
  <path fill="#6FB2E2" d="M39.97 78.271c-.197.485-.991.62-1.773.302-.782-.318-1.256-.969-1.059-1.454l9.939-24.141c.197-.485.991-.62 1.773-.302.782.318 1.256.969 1.059 1.454L39.97 78.271zM5.603 62.843c-.197.485-.991.62-1.773.302-.782-.318-1.256-.969-1.059-1.454L12.71 37.55c.197-.485.991-.62 1.773-.302.782.318 1.256.969 1.059 1.454L5.603 62.843zm21.123 5.737c-.197.485-.991.62-1.773.302-.782-.318-1.256-.969-1.059-1.454l7.697-21.547c.197-.485.991-.62 1.773-.302.782.318 1.256.969 1.059 1.454L26.726 68.58z"/>
  <g fill="#ACCFE9">
    <path d="M16.572 63.677c0 .447-.355.809-.793.809-.438 0-.793-.362-.793-.809v-7.701c0-.447.355-.809.793-.809.438 0 .793.362.793.809v7.701z"/>
    <path d="M19.51 61.065c.387.223.523.712.304 1.091-.219.379-.71.506-1.097.282l-6.67-3.851c-.387-.223-.523-.712-.304-1.091.219-.379.71-.506 1.097-.282l6.67 3.851z"/>
    <path d="M18.717 57.214c.387-.223.878-.097 1.097.282.219.379.083.868-.304 1.091l-6.67 3.851c-.387.223-.878.097-1.097-.282-.219-.379-.083-.868.304-1.091l6.67-3.851z"/>
  </g>
  <g fill="#ACCFE9">
    <path d="M10.396 77.557c0 .447-.355.809-.793.809-.438 0-.793-.362-.793-.809v-7.701c0-.447.355-.809.793-.809.438 0 .793.362.793.809v7.701z"/>
    <path d="M13.335 74.945c.387.223.523.712.304 1.091-.219.379-.71.506-1.097.282l-6.67-3.851c-.387-.223-.523-.712-.304-1.091.219-.379.71-.506 1.097-.282l6.67 3.851z"/>
    <path d="M12.542 71.094c.387-.223.878-.097 1.097.282.219.379.083.868-.304 1.091l-6.67 3.851c-.387.223-.878.097-1.097-.282-.219-.379-.083-.868.304-1.091l6.67-3.851z"/>
  </g>
  <g fill="#ACCFE9">
    <path d="M52.5 80.828c0 .447-.355.809-.793.809-.438 0-.793-.362-.793-.809v-7.701c0-.447.355-.809.793-.809.438 0 .793.362.793.809v7.701z"/>
    <path d="M55.438 78.216c.387.223.523.712.304 1.091-.219.379-.71.506-1.097.282l-6.67-3.851c-.387-.223-.523-.712-.304-1.091.219-.379.71-.506 1.097-.282l6.67 3.851z"/>
    <path d="M54.645 74.365c.387-.223.878-.097 1.097.282.219.379.083.868-.304 1.091l-6.67 3.851c-.387.223-.878.097-1.097-.282-.219-.379-.083-.868.304-1.091l6.67-3.851z"/>
  </g>
  <g fill="#ACCFE9">
    <path d="M47.582 94.302c0 .447-.355.809-.793.809-.438 0-.793-.362-.793-.809V86.6c0-.447.355-.809.793-.809.438 0 .793.362.793.809v7.702z"/>
    <path d="M50.521 91.69c.387.223.523.712.304 1.091-.219.379-.71.506-1.097.282l-6.67-3.851c-.387-.223-.523-.712-.304-1.091.219-.379.71-.506 1.097-.282l6.67 3.851z"/>
    <path d="M49.728 87.839c.387-.223.878-.097 1.097.282.219.379.083.868-.304 1.091l-6.67 3.851c-.387.223-.878.097-1.097-.282-.219-.379-.083-.868.304-1.091l6.67-3.851z"/>
  </g>
  <g fill="#ACCFE9">
    <path d="M72.757 89.476c0 .447-.355.809-.793.809-.438 0-.793-.362-.793-.809v-7.701c0-.447.355-.809.793-.809.438 0 .793.362.793.809v7.701z"/>
    <path d="M75.695 86.864c.387.223.523.712.304 1.091-.219.379-.71.506-1.097.282l-6.67-3.851c-.387-.223-.523-.712-.304-1.091.219-.379.71-.506 1.097-.282l6.67 3.851z"/>
    <path d="M74.902 83.014c.387-.223.878-.097 1.097.282.219.379.083.868-.304 1.091l-6.67 3.851c-.387.223-.878.097-1.097-.282-.219-.379-.083-.868.304-1.091l6.67-3.851z"/>
  </g>
  <g fill="#ACCFE9">
    <path d="M78.63 75.484c0 .447-.355.809-.793.809-.438 0-.793-.362-.793-.809v-7.701c0-.447.355-.809.793-.809.438 0 .793.362.793.809v7.701z"/>
    <path d="M81.569 72.872c.387.223.523.712.304 1.091-.219.379-.71.506-1.097.282l-6.67-3.851c-.387-.223-.523-.712-.304-1.091.219-.379.71-.506 1.097-.282l6.67 3.851z"/>
    <path d="M80.776 69.021c.387-.223.878-.097 1.097.282.219.379.083.868-.304 1.091l-6.67 3.851c-.387.223-.878.097-1.097-.282-.219-.379-.083-.868.304-1.091l6.67-3.851z"/>
  </g>
  <path fill="#F9B233" d="M54.721 93.207S75.399 60.984 74.44 60.75c-1.546-.377-10.37 1.626-10.278 1.34.557-1.747 6.432-13.282 5.47-13.389-2.229-.248-9.315-.408-12.071-.047-1.173.154-4.591 19.058-4.591 21.515 0 .595 8.438-.854 9.201-1.029.931-.214-7.45 24.067-7.45 24.067z"/>
</svg>
