<svg xmlns="http://www.w3.org/2000/svg" xml:space="preserve" width="100" height="100" viewBox="0 0 100 100">
  <g fill="#3388C9">
    <circle cx="50.168" cy="45.664" r="19.109" opacity=".3"/>
    <path d="M53.805 46.856c2.425-7.464.004-15.327-5.517-20.217 1.995-.194 4.707-.141 7.732.843 10.038 3.26 15.53 14.042 12.269 24.079-3.261 10.037-14.042 15.53-24.079 12.267-2.575-.835-4.846-2.175-6.752-3.858 7.341-.712 13.922-5.655 16.347-13.114z"/>
  </g>
  <path fill="#9A9999" fill-rule="evenodd" d="M38.547 50.979c.126-4.685-2.941-10.812-11.986-11.034-11.059-.271-16.04 10.151-16.05 17.875-.008 6.147 5.429 15.529 16.022 15.469 14.855-.085 29.578 2.8 30.174-12.636.503-13.035-13.841-11.932-18.16-9.674z" clip-rule="evenodd"/>
  <path fill="#C7C6C6" fill-rule="evenodd" d="M28.968 62.482s7.739-3.87 22.089-3.547c14.35.322 32.892-.806 38.212 1.612 5.321 2.418 8.062 2.096 7.9 5.482-.161 3.386-32.569 5.321-50.305 4.031s-27.893-.806-27.732-4.353c.162-3.547 8.223-4.515 9.836-3.225zm-1.759-18.377c.428 3.215 25.226 6.469 41.51 3.567-.613-.351 31.118.322 31.279-1.774s-11.675-2.552-11.675-2.552C73.872 41.004 73.246 40.9 57.594 40.9c-15.64 0-30.813-.01-30.385 3.205zM1.235 52.808s19.832-5.966 34.181 0c.164-.299 7.144-.272 7.038 1.718-.105 1.99-13.649 5.86-17.807 2.857.002.001-31.151 3.487-23.412-4.575z" clip-rule="evenodd" opacity=".6"/>
</svg>
