<svg xmlns="http://www.w3.org/2000/svg" xml:space="preserve" width="100" height="100" viewBox="0 0 100 100">
  <path fill="#6FB2E2" d="M39.89 72.896c-.197.485-.991.62-1.773.302-.782-.318-1.256-.969-1.059-1.454l7.697-21.547c.197-.485.991-.62 1.773-.302.782.318 1.256.969 1.059 1.454L39.89 72.896zm22.64 3.723c-.197.485-.991.62-1.773.302-.782-.318-1.256-.969-1.059-1.454l10.8-28.844c.197-.485.991-.62 1.773-.302.782.318 1.256.969 1.059 1.454l-10.8 28.844z"/>
  <path fill="#797979" fill-rule="evenodd" d="M61.925 33.96c.126-4.685-2.946-10.658-11.986-11.034-11.988-.499-13.788 8.563-13.788 8.563S23.142 28 23.142 40.163c0 13.551 14.784 10.701 14.784 10.701s.798 5.873 11.961 6.038c14.854.22 29.849.598 30.198-13.267.328-13.041-13.841-11.932-18.16-9.675z" clip-rule="evenodd"/>
  <path fill="#6FB2E2" d="M22.787 71.159c-.197.485-.991.62-1.773.302-.782-.318-1.256-.969-1.059-1.454l9.939-24.141c.197-.485.991-.62 1.773-.302.782.318 1.256.969 1.059 1.454l-9.939 24.141zm22.694 4.105c-.197.485-.991.62-1.773.302-.782-.318-1.256-.969-1.059-1.454l7.955-21.718c.197-.485.991-.62 1.773-.302.782.318 1.256.969 1.059 1.454l-7.955 21.718z"/>
</svg>
