<svg xmlns="http://www.w3.org/2000/svg" xml:space="preserve" width="100" height="100" viewBox="0 0 100 100">
  <g fill="#C7C6C6" fill-rule="evenodd" clip-rule="evenodd">
    <path d="M23.048 39.722c.428 3.215 25.226 6.469 41.51 3.567-.613-.351 31.118.322 31.279-1.774s-11.675-2.552-11.675-2.552c-14.452-2.343-15.077-2.446-30.73-2.446-15.639 0-30.812-.01-30.384 3.205zm7.714 17.28s7.739-3.87 22.089-3.547c14.35.322 32.892-.806 38.212 1.612 5.321 2.418 8.062 2.096 7.9 5.482-.161 3.386-32.569 5.321-50.305 4.031-17.736-1.29-27.893-.806-27.732-4.353.162-3.547 8.223-4.515 9.836-3.225z" opacity=".6"/>
    <path d="M2.265 45.828s19.832-5.966 34.181 0c.164-.299 7.144-.272 7.038 1.718-.105 1.99-13.649 5.86-17.807 2.857.001.001-31.151 3.487-23.412-4.575z" opacity=".6"/>
  </g>
</svg>
