<svg xmlns="http://www.w3.org/2000/svg" xml:space="preserve" width="100" height="100" viewBox="0 0 100 100">
  <path fill="#F9B334" d="M53.954 17.109c0 1.183-1.015 2.141-2.268 2.141-1.252 0-2.268-.959-2.268-2.141V2.683c0-1.183 1.015-2.141 2.268-2.141 1.252 0 2.268.959 2.268 2.141v14.426zm-11.739 2.955c.836.836.796 2.232-.089 3.118-.886.886-2.281.926-3.118.089l-10.201-10.2c-.836-.836-.796-2.232.089-3.118.886-.886 2.281-.926 3.118-.089l10.201 10.2zm-6.212 10.391c1.183 0 2.141 1.015 2.141 2.268 0 1.252-.959 2.268-2.141 2.268H21.577c-1.183 0-2.141-1.015-2.141-2.268 0-1.252.959-2.268 2.141-2.268h14.426z"/>
  <path fill="#FFF" d="M49.349 48.407c0-1.183 1.015-2.141 2.268-2.141 1.252 0 2.268.959 2.268 2.141v14.426c0 1.183-1.015 2.141-2.268 2.141-1.252 0-2.268-.959-2.268-2.141V48.407z"/>
  <path fill="#F9B334" d="M61.088 45.452c-.836-.836-.796-2.232.089-3.118.886-.886 2.281-.926 3.118-.089l10.201 10.201c.836.836.796 2.232-.089 3.118-.886.886-2.281.926-3.118.089L61.088 45.452zM67.3 35.061c-1.183 0-2.141-1.015-2.141-2.268 0-1.252.959-2.268 2.141-2.268h14.426c1.183 0 2.141 1.015 2.141 2.268 0 1.252-.959 2.268-2.141 2.268H67.3zm-2.955-11.74c-.836.836-2.232.796-3.118-.089-.886-.886-.926-2.281-.089-3.118L71.339 9.913c.836-.836 2.232-.796 3.118.089.886.886.926 2.281.089 3.118L64.345 23.321z"/>
  <ellipse cx="51.652" cy="32.758" fill="#F9B233" rx="10.679" ry="10.22"/>
  <path fill="#9A9999" fill-rule="evenodd" d="M35.482 29.648c.126-4.685-2.941-10.812-11.986-11.034-11.059-.271-16.04 10.151-16.05 17.875-.008 6.147 5.429 15.529 16.022 15.469 14.855-.085 29.578 2.8 30.174-12.636.503-13.035-13.841-11.932-18.16-9.674z" clip-rule="evenodd"/>
  <path fill="#797979" fill-rule="evenodd" d="M76.323 41.307c.126-4.685-2.946-10.658-11.986-11.034-11.987-.499-13.787 8.563-13.787 8.563s-13.01-3.489-13.01 8.673c0 13.551 14.784 10.701 14.784 10.701s.798 5.873 11.961 6.038c14.854.22 29.849.598 30.198-13.267.328-13.041-13.841-11.932-18.16-9.674z" clip-rule="evenodd"/>
  <path fill="#F9B233" d="M46.934 93.666s20.678-32.223 19.719-32.457c-1.546-.377-10.37 1.626-10.278 1.34.557-1.747 6.432-13.282 5.47-13.389-2.229-.248-9.315-.408-12.071-.047-1.173.154-4.591 19.058-4.591 21.515 0 .595 8.438-.854 9.201-1.029.931-.214-7.45 24.067-7.45 24.067z"/>
  <g fill="#ACCFE9">
    <path d="M10.444 58.918c0 .447-.355.809-.793.809-.438 0-.793-.362-.793-.809v-7.701c0-.447.355-.809.793-.809.438 0 .793.362.793.809v7.701z"/>
    <path d="M13.382 56.306c.387.223.523.712.304 1.091-.219.379-.71.506-1.097.282l-6.67-3.851c-.387-.223-.523-.712-.304-1.091.219-.379.71-.506 1.097-.282l6.67 3.851z"/>
    <path d="M12.589 52.455c.387-.223.878-.097 1.097.282.219.379.083.868-.304 1.091l-6.67 3.851c-.387.223-.878.097-1.097-.282-.219-.379-.083-.868.304-1.091l6.67-3.851z"/>
  </g>
  <g fill="#ACCFE9">
    <path d="M10.444 76.711c0 .447-.355.809-.793.809-.438 0-.793-.362-.793-.809V69.01c0-.447.355-.809.793-.809.438 0 .793.362.793.809v7.701z"/>
    <path d="M13.382 74.099c.387.223.523.712.304 1.091-.219.379-.71.506-1.097.282l-6.67-3.851c-.387-.223-.523-.712-.304-1.091.219-.379.71-.506 1.097-.282l6.67 3.851z"/>
    <path d="M12.589 70.248c.387-.223.878-.097 1.097.282.219.379.083.868-.304 1.091l-6.67 3.851c-.387.223-.878.097-1.097-.282-.219-.379-.083-.868.304-1.091l6.67-3.851z"/>
  </g>
  <g fill="#ACCFE9">
    <path d="M28.41 65.483c0 .447-.355.809-.793.809-.438 0-.793-.362-.793-.809v-7.701c0-.447.355-.809.793-.809.438 0 .793.362.793.809v7.701z"/>
    <path d="M31.348 62.87c.387.223.523.712.304 1.091-.219.379-.71.506-1.097.282l-6.67-3.851c-.387-.223-.523-.712-.304-1.091.219-.379.71-.506 1.097-.282l6.67 3.851z"/>
    <path d="M30.555 59.02c.387-.223.878-.097 1.097.282.219.379.083.868-.304 1.091l-6.67 3.851c-.387.223-.878.097-1.097-.282-.219-.379-.083-.868.304-1.091l6.67-3.851z"/>
  </g>
  <g fill="#ACCFE9">
    <path d="M25.818 86.903c0 .447-.355.809-.793.809-.438 0-.793-.362-.793-.809v-7.701c0-.447.355-.809.793-.809.438 0 .793.362.793.809v7.701z"/>
    <path d="M28.757 84.291c.387.223.523.712.304 1.091-.219.379-.71.506-1.097.282l-6.67-3.851c-.387-.223-.523-.712-.304-1.091.219-.379.71-.506 1.097-.282l6.67 3.851z"/>
    <path d="M27.964 80.44c.387-.223.878-.097 1.097.282.219.379.083.868-.304 1.091l-6.67 3.851c-.387.223-.878.097-1.097-.282-.219-.379-.083-.868.304-1.091l6.67-3.851z"/>
  </g>
  <g fill="#ACCFE9">
    <path d="M38.601 80.511c0 .447-.355.809-.793.809-.438 0-.793-.362-.793-.809V72.81c0-.447.355-.809.793-.809.438 0 .793.362.793.809v7.701z"/>
    <path d="M41.54 77.899c.387.223.523.712.304 1.091-.219.379-.71.506-1.097.282l-6.67-3.851c-.387-.223-.523-.712-.304-1.091.219-.379.71-.506 1.097-.282l6.67 3.851z"/>
    <path d="M40.747 74.049c.387-.223.878-.097 1.097.282.219.379.083.868-.304 1.091l-6.67 3.851c-.387.223-.878.097-1.097-.282-.219-.379-.083-.868.304-1.091l6.67-3.851z"/>
  </g>
  <g fill="#ACCFE9">
    <path d="M36.874 98.649c0 .447-.355.809-.793.809-.438 0-.793-.362-.793-.809v-7.701c0-.447.355-.809.793-.809.438 0 .793.362.793.809v7.701z"/>
    <path d="M39.812 96.037c.387.223.523.712.304 1.091-.219.379-.71.506-1.097.282l-6.67-3.851c-.387-.223-.523-.712-.304-1.091.219-.379.71-.506 1.097-.282l6.67 3.851z"/>
    <path d="M39.019 92.187c.387-.223.878-.097 1.097.282.219.379.083.868-.304 1.091l-6.67 3.851c-.387.223-.878.097-1.097-.282-.219-.379-.083-.868.304-1.091l6.67-3.851z"/>
  </g>
  <g fill="#ACCFE9">
    <path d="M69.523 87.421c0 .447-.355.809-.793.809-.438 0-.793-.362-.793-.809V79.72c0-.447.355-.809.793-.809.438 0 .793.362.793.809v7.701z"/>
    <path d="M72.461 84.809c.387.223.523.712.304 1.091-.219.379-.71.506-1.097.282l-6.67-3.851c-.387-.223-.523-.712-.304-1.091.219-.379.71-.506 1.097-.282l6.67 3.851z"/>
    <path d="M71.668 80.958c.387-.223.878-.097 1.097.282.219.379.083.868-.304 1.091l-6.67 3.851c-.387.223-.878.097-1.097-.282-.219-.379-.083-.868.304-1.091l6.67-3.851z"/>
  </g>
  <g fill="#ACCFE9">
    <path d="M73.841 67.728c0 .447-.355.809-.793.809-.438 0-.793-.362-.793-.809v-7.701c0-.447.355-.809.793-.809.438 0 .793.362.793.809v7.701z"/>
    <path d="M76.78 65.116c.387.223.523.712.304 1.091-.219.379-.71.506-1.097.282l-6.67-3.851c-.387-.223-.523-.712-.304-1.091.219-.379.71-.506 1.097-.282l6.67 3.851z"/>
    <path d="M75.987 61.265c.387-.223.878-.097 1.097.282.219.379.083.868-.304 1.091l-6.67 3.851c-.387.223-.878.097-1.097-.282-.219-.379-.083-.868.304-1.091l6.67-3.851z"/>
  </g>
  <g fill="#ACCFE9">
    <path d="M87.488 79.475c0 .447-.355.809-.793.809-.438 0-.793-.362-.793-.809v-7.701c0-.447.355-.809.793-.809.438 0 .793.362.793.809v7.701z"/>
    <path d="M90.426 76.863c.387.223.523.712.304 1.091-.219.379-.71.506-1.097.282l-6.67-3.851c-.387-.223-.523-.712-.304-1.091.219-.379.71-.506 1.097-.282l6.67 3.851z"/>
    <path d="M89.633 73.012c.387-.223.878-.097 1.097.282.219.379.083.868-.304 1.091l-6.67 3.851c-.387.223-.878.097-1.097-.282-.219-.379-.083-.868.304-1.091l6.67-3.851z"/>
  </g>
</svg>
