<svg xmlns="http://www.w3.org/2000/svg" xml:space="preserve" width="100" height="100" viewBox="0 0 100 100">
  <path fill="#cc1d17" stroke="#fff" stroke-width="2.5437" d="M2.1883 88.5997c1.539-2.8693 43.408-78.3022 44.9749-80.8281 1.5694-2.5259 4.1843-2.7904 5.7538.1323 1.5694 2.9252 43.329 76.6819 45.1071 79.897 1.5339 2.7727.8318 5.5835-2.569 5.7157-3.7876.1476-87.6453.3994-90.2602.2671-2.6149-.1322-4.576-2.2588-3.0066-5.184z"/>
  <path fill="#fff" d="M14.7032 84.8783h71.124L50.1342 20.935 14.5709 84.6112"/>
  <path fill="#070707" d="M49.9612 80.8822c-2.7192 0-4.8203-2.2563-4.8203-4.8534 0-2.7675 2.1011-4.8966 4.8203-4.8966 2.6709 0 4.7694 2.1927 4.7694 4.8966.0026 2.5946-2.1545 4.8534-4.7694 4.8534zm2.7853-17.025c-.1144 1.0964-.3433 1.1524-1.193 1.1524h-3.233c-.8521 0-1.076-.056-1.1904-1.1523l-1.249-22.56c-.056-.9818-.056-.8089-.056-1.1573 0-.7453.5648-.7453 1.0176-.7453h6.0692c.4528 0 1.137 0 1.137.7453 0 .3484 0 .173-.056 1.1573l-1.2464 22.56z"/>
</svg>
