<?xml version="1.0" encoding="utf-8"?>
<!-- Generator: Adobe Illustrator 26.3.1, SVG Export Plug-In . SVG Version: 6.00 Build 0)  -->
<svg version="1.1" id="Ebene_1" xmlns="http://www.w3.org/2000/svg" xmlns:xlink="http://www.w3.org/1999/xlink" x="0px" y="0px"
	 viewBox="0 0 40 40" style="enable-background:new 0 0 40 40;" xml:space="preserve">
<g>
	<path fill="currentColor" d="M20.1,1.5C10,1.5,1.7,9.8,1.7,19.9S10,38.3,20.1,38.3S38.5,30,38.5,19.9S30.2,1.5,20.1,1.5z"/>
	<path d="M20,0C9,0,0,9,0,20s9,20,20,20s20-9,20-20S31,0,20,0z M20,38c-9.9,0-18-8.1-18-18S10.1,2,20,2s18,8.1,18,18S29.9,38,20,38z
		"/>
	<path d="M13,24.1l6.2,3.8c0.6,0.4,1.5-0.1,1.5-0.8v-13c0-0.8-0.8-1.2-1.5-0.8L13,17.1c-0.3,0.2-0.5,0.5-0.5,0.8v5.4
		C12.5,23.6,12.7,24,13,24.1z"/>
	<path d="M10.5,23.6H8.2c-0.4,0-0.8-0.3-0.8-0.8v-4.5c0-0.4,0.3-0.8,0.8-0.8h2.3c0.4,0,0.8,0.3,0.8,0.8v4.5
		C11.3,23.3,11,23.6,10.5,23.6z"/>
	<path d="M23,24.4c0.3,0.3,0.7,0.2,1,0v-0.1c2.1-2.1,2.1-5.4,0-7.5l0,0c-0.4-0.3-0.7-0.3-0.9,0c-0.3,0.3-0.2,0.7,0,0.9l0,0
		c1.6,1.6,1.6,4.1,0,5.7l0,0c-0.1,0.1-0.2,0.3-0.3,0.5l0,0C22.8,24.1,22.8,24.2,23,24.4z"/>
	<path d="M25.4,15.6c2.7,2.7,2.7,7.1,0,9.8l-0.2,0.2c-0.1,0.1-0.2,0.3-0.2,0.5l0,0c0,0.2,0.1,0.3,0.2,0.5c0.2,0.2,0.7,0.2,0.9,0
		l0.2-0.2l0,0c3.2-3.2,3.2-8.4,0-11.6c-0.2-0.2-0.6-0.3-0.9,0C25.1,15,25.2,15.3,25.4,15.6L25.4,15.6z"/>
	<path d="M32,20.3c0-2.9-1.1-5.7-3.3-7.9c-0.2-0.2-0.6-0.3-0.9,0s-0.3,0.6,0,0.9c3.9,3.9,3.9,10.3,0,14.3l-0.3,0.3
		c-0.1,0.1-0.2,0.3-0.2,0.5l0,0c0,0.2,0,0.3,0.2,0.5c0.1,0.1,0.2,0.2,0.4,0.2l0,0c0.2,0,0.3-0.1,0.4-0.2l0.3-0.3
		c2.2-2.2,3.4-5.1,3.4-7.9V20.3L32,20.3z"/>
</g>
</svg>
