<?xml version="1.0" encoding="utf-8"?>
<!-- Generator: Adobe Illustrator 17.0.1, SVG Export Plug-In . SVG Version: 6.00 Build 0)  -->
<!DOCTYPE svg PUBLIC "-//W3C//DTD SVG 1.1//EN" "http://www.w3.org/Graphics/SVG/1.1/DTD/svg11.dtd">
<svg version="1.1" id="Ebene_1" xmlns="http://www.w3.org/2000/svg" xmlns:xlink="http://www.w3.org/1999/xlink" x="0px" y="0px"
	 width="23px" height="20px" viewBox="0 0 23 20" enable-background="new 0 0 23 20" xml:space="preserve">
<g id="audio">
	<path id="audio-6-icon_1_" fill="#1B6CB5" d="M4.7,5.8H7c-1,2.1-1,6.3,0,8.4H4.7c-1.2,0-1.7-0.7-2-1.9c-0.3-1.4-0.4-3.1,0-4.6
		C3,6.6,3.5,5.8,4.7,5.8z M20.5,10c0,5.9-2.3,9.4-4.5,8.7c-0.6-0.2-7-4.1-7-4.1C7.5,13,7.5,7.1,9,5.5c0,0,6.7-4,7-4.1
		C18,0.5,20.5,4.1,20.5,10z M17.8,4.7C17,3,15.9,3,15.1,4.7c-0.4,0.9-0.7,2-0.9,3.2h0.4c1.2,0,2.1,0.9,2.1,2.1s-0.9,2.1-2.1,2.1
		h-0.4c0.2,1.2,0.5,2.3,0.9,3.3c0.7,1.7,2,1.6,2.7,0C19.2,12.1,19.1,7.4,17.8,4.7z"/>
</g>
</svg>
