<svg xmlns="http://www.w3.org/2000/svg" xml:space="preserve" viewBox="0 0 40 40">
  <path fill="currentColor" d="M20.1 1.5C10 1.5 1.7 9.8 1.7 19.9S10 38.3 20.1 38.3 38.5 30 38.5 19.9 30.2 1.5 20.1 1.5z"/>
  <path d="M20 0C9 0 0 9 0 20s9 20 20 20 20-9 20-20S31 0 20 0zm0 38c-9.9 0-18-8.1-18-18S10.1 2 20 2s18 8.1 18 18-8.1 18-18 18z"/>
  <path d="m13 24.1 6.2 3.8c.6.4 1.5-.1 1.5-.8v-13c0-.8-.8-1.2-1.5-.8L13 17.1c-.3.2-.5.5-.5.8v5.4c0 .3.2.7.5.8zm-2.5-.5H8.2c-.4 0-.8-.3-.8-.8v-4.5c0-.4.3-.8.8-.8h2.3c.4 0 .8.3.8.8v4.5c0 .5-.3.8-.8.8zm12.5.8c.3.3.7.2 1 0v-.1c2.1-2.1 2.1-5.4 0-7.5-.4-.3-.7-.3-.9 0-.3.3-.2.7 0 .9 1.6 1.6 1.6 4.1 0 5.7-.1.1-.2.3-.3.5 0 .2 0 .3.2.5z"/>
  <path d="M25.4 15.6c2.7 2.7 2.7 7.1 0 9.8l-.2.2c-.1.1-.2.3-.2.5s.1.3.2.5c.2.2.7.2.9 0l.2-.2c3.2-3.2 3.2-8.4 0-11.6-.2-.2-.6-.3-.9 0-.3.2-.2.5 0 .8z"/>
  <path d="M32 20.3c0-2.9-1.1-5.7-3.3-7.9-.2-.2-.6-.3-.9 0s-.3.6 0 .9c3.9 3.9 3.9 10.3 0 14.3l-.3.3c-.1.1-.2.3-.2.5s0 .3.2.5c.1.1.2.2.4.2s.3-.1.4-.2l.3-.3c2.2-2.2 3.4-5.1 3.4-7.9v-.4z"/>
</svg>
