<?xml version="1.0" encoding="utf-8"?>
<!-- Generator: Adobe Illustrator 17.0.1, SVG Export Plug-In . SVG Version: 6.00 Build 0)  -->
<!DOCTYPE svg PUBLIC "-//W3C//DTD SVG 1.1//EN" "http://www.w3.org/Graphics/SVG/1.1/DTD/svg11.dtd">
<svg version="1.1" xmlns="http://www.w3.org/2000/svg" xmlns:xlink="http://www.w3.org/1999/xlink" x="0px" y="0px" width="110px"
	 height="86px" viewBox="0 0 110 86" enable-background="new 0 0 110 86" xml:space="preserve">
<g id="verkehr" display="none">
	<g id="layer1_1_" display="inline">
		<path id="rect3836-5_1_" fill="#999999" d="M49.802,4.005c-1.806,0-2.875,1.598-3.256,3.432l-4.411,11.171H12.697
			c-1.806,0-2.875,1.598-3.256,3.432L0.145,45.57c-0.015,0.072-0.03,0.145-0.038,0.217C0.038,45.998,0,55.793,0,56.022v8.427
			c0,1.442,1.451,2.609,3.256,2.609h2.79v12.337c0,1.442,1.458,2.609,3.264,2.609h13.714c1.806,0,3.264-1.167,3.264-2.609V67.058
			h19.714v12.337c0,1.442,1.458,2.609,3.264,2.609h13.714c1.806,0,3.264-1.167,3.264-2.609V67.058h3.394
			c1.806,0,3.256-1.167,3.256-2.609v-8.427c0-0.08-0.014-1.979-0.023-3.567h10.236v12.337c0,1.442,1.458,2.609,3.264,2.609h13.714
			c1.806,0,3.264-1.167,3.264-2.609V52.456h3.394c1.806,0,3.256-1.167,3.256-2.609V41.42c0-0.229-0.038-10.025-0.107-10.236
			c-0.008-0.072-0.023-0.144-0.038-0.217l-9.295-23.53c-0.381-1.834-1.451-3.432-3.256-3.432H49.802L49.802,4.005z M53.624,8.671
			h39.368c1.497,0,2.382,1.266,2.698,2.722l7.705,18.678c0.012,0.057,0.024,0.115,0.031,0.172c0.057,0.168,0.092,7.946,0.092,8.127
			v6.692c0,1.145-1.202,2.071-2.698,2.071H72.826c-0.012-0.754-0.023-1.3-0.038-1.346c-0.008-0.072-0.023-0.144-0.038-0.217
			l-9.295-23.53c-0.381-1.834-1.451-3.432-3.256-3.432H47.952l2.974-7.215C51.242,9.937,52.127,8.671,53.624,8.671L53.624,8.671z
			 M16.519,23.273h39.368c1.497,0,2.382,1.266,2.698,2.722l7.705,18.678c0.012,0.057,0.024,0.115,0.031,0.172
			c0.057,0.168,0.092,7.946,0.092,8.127v6.692c0,1.145-1.202,2.071-2.698,2.071H8.691c-1.497,0-2.698-0.926-2.698-2.071v-6.692
			c0-0.182,0.035-7.96,0.092-8.127c0.007-0.057,0.018-0.115,0.031-0.172l7.705-18.678C14.137,24.539,15.022,23.273,16.519,23.273z
			 M88.359,52.598h9.685v9.982h-9.685L88.359,52.598L88.359,52.598z M11.466,67.111h9.693v9.982h-9.693V67.111z M51.254,67.2h9.685
			v9.982h-9.685V67.2z"/>
		<path id="rect3969-2-1_1_" fill="#999999" d="M16.339,44.52h10.862c1.47,0,2.662,1.166,2.662,2.603V48.1
			c0,1.438-1.192,2.603-2.662,2.603H16.339c-1.47,0-2.662-1.166-2.662-2.603v-0.976C13.677,45.686,14.869,44.52,16.339,44.52z"/>
		<path id="rect3969-2-4-7_1_" fill="#999999" d="M45.815,44.52h10.862c1.47,0,2.662,1.166,2.662,2.603V48.1
			c0,1.438-1.192,2.603-2.662,2.603H45.815c-1.47,0-2.662-1.166-2.662-2.603v-0.976C43.153,45.686,44.345,44.52,45.815,44.52z"/>
		<path id="rect3969-2-4-7-5_1_" fill="#999999" d="M83.41,29.922h10.862c1.47,0,2.662,1.166,2.662,2.603v0.976
			c0,1.438-1.192,2.603-2.662,2.603H83.41c-1.47,0-2.662-1.166-2.662-2.603v-0.976C80.748,31.087,81.94,29.922,83.41,29.922z"/>
	</g>
</g>
<g id="verkehr_aktiv" display="none">
	<g id="layer1_2_" display="inline">
		<path id="rect3836-5_2_" fill="#999999" d="M49.802,4c-1.806,0-2.875,1.598-3.256,3.432l-4.411,11.171H12.697
			c-1.806,0-2.875,1.598-3.256,3.432l-9.295,23.53c-0.015,0.072-0.03,0.145-0.038,0.217C0.038,45.993,0,55.788,0,56.017v8.427
			c0,1.442,1.451,2.609,3.256,2.609h2.79v12.337C6.047,80.833,7.505,82,9.311,82h13.714c1.806,0,3.264-1.167,3.264-2.609V67.053
			h19.714v12.337c0,1.442,1.458,2.609,3.264,2.609h13.714c1.806,0,3.264-1.167,3.264-2.609V67.053h3.394
			c1.806,0,3.256-1.167,3.256-2.609v-8.427c0-0.08-0.014-1.979-0.023-3.567h10.236v12.337c0,1.442,1.458,2.609,3.264,2.609h13.714
			c1.806,0,3.264-1.167,3.264-2.609V52.451h3.394c1.806,0,3.256-1.167,3.256-2.609v-8.427c0-0.229-0.038-10.025-0.107-10.236
			c-0.008-0.072-0.023-0.144-0.038-0.217l-9.295-23.53C100.178,5.598,99.109,4,97.303,4H49.802L49.802,4z M53.624,8.666h39.368
			c1.497,0,2.382,1.266,2.698,2.722l7.705,18.678c0.012,0.057,0.024,0.115,0.031,0.172c0.057,0.168,0.092,7.946,0.092,8.127v6.692
			c0,1.145-1.202,2.071-2.698,2.071H72.826c-0.012-0.754-0.023-1.3-0.038-1.346c-0.008-0.072-0.023-0.144-0.038-0.217l-9.295-23.53
			c-0.381-1.834-1.451-3.432-3.256-3.432H47.952l2.974-7.215C51.242,9.932,52.127,8.666,53.624,8.666L53.624,8.666z M16.519,23.268
			h39.368c1.497,0,2.382,1.266,2.698,2.722l7.705,18.678c0.012,0.057,0.024,0.115,0.031,0.172c0.057,0.168,0.092,7.946,0.092,8.127
			v6.692c0,1.145-1.202,2.071-2.698,2.071H8.691c-1.497,0-2.698-0.926-2.698-2.071v-6.692c0-0.182,0.035-7.96,0.092-8.127
			c0.007-0.057,0.018-0.115,0.031-0.172l7.705-18.678C14.137,24.534,15.022,23.268,16.519,23.268z M88.359,52.593h9.685v9.982
			h-9.685L88.359,52.593L88.359,52.593z M11.466,67.106h9.693v9.982h-9.693V67.106z M51.254,67.196h9.685v9.982h-9.685V67.196z"/>
		<path id="rect3969-2-1_2_" fill="#990000" d="M16.339,44.515h10.862c1.47,0,2.662,1.166,2.662,2.603v0.976
			c0,1.438-1.192,2.603-2.662,2.603H16.339c-1.47,0-2.662-1.166-2.662-2.603v-0.976C13.677,45.681,14.869,44.515,16.339,44.515z"/>
		<path id="rect3969-2-4-7_2_" fill="#990000" d="M45.815,44.515h10.862c1.47,0,2.662,1.166,2.662,2.603v0.976
			c0,1.438-1.192,2.603-2.662,2.603H45.815c-1.47,0-2.662-1.166-2.662-2.603v-0.976C43.153,45.681,44.345,44.515,45.815,44.515z"/>
		<path id="rect3969-2-4-7-5_2_" fill="#990000" d="M83.41,29.917h10.862c1.47,0,2.662,1.166,2.662,2.603v0.976
			c0,1.438-1.192,2.603-2.662,2.603H83.41c-1.47,0-2.662-1.166-2.662-2.603V32.52C80.748,31.083,81.94,29.917,83.41,29.917z"/>
	</g>
</g>
<g id="wetter_aktiv" display="none">
	<g display="inline">
		<g>
			<g>
				<ellipse fill="#F8B133" cx="64.199" cy="43.001" rx="19.731" ry="19.822"/>
				<g>
					<polygon fill="#F8B133" points="66.063,20.185 62.334,20.185 62.334,0 66.063,0 66.063,20.185 					"/>
				</g>
				<g>
					<polygon fill="#F8B133" points="54.458,22.307 51.23,24.177 41.184,6.699 44.411,4.823 54.458,22.307 					"/>
				</g>
				<g>
					<polygon fill="#F8B133" points="45.463,29.971 43.601,33.214 26.199,23.123 28.064,19.877 45.463,29.971 					"/>
				</g>
				<g>
					<polygon fill="#F8B133" points="41.487,41.125 41.49,44.872 21.396,44.872 21.396,41.125 41.487,41.125 					"/>
				</g>
				<g>
					<polygon fill="#F8B133" points="43.599,52.785 45.463,56.03 28.061,66.121 26.198,62.877 43.599,52.785 					"/>
				</g>
				<g>
					<polygon fill="#F8B133" points="51.23,61.824 54.458,63.696 44.411,81.175 41.181,79.303 51.23,61.824 					"/>
				</g>
				<g>
					<polygon fill="#F8B133" points="62.334,65.815 66.061,65.815 66.061,86 62.333,85.999 62.334,65.815 					"/>
				</g>
				<g>
					<polygon fill="#F8B133" points="73.94,63.696 77.166,61.824 87.213,79.304 83.983,81.175 73.94,63.696 					"/>
				</g>
				<g>
					<polygon fill="#F8B133" points="82.935,56.03 84.797,52.786 102.197,62.879 100.333,66.121 82.935,56.03 					"/>
				</g>
				<g>
					<polygon fill="#F8B133" points="86.909,44.872 86.907,41.128 107,41.128 107,44.873 86.909,44.872 					"/>
				</g>
				<g>
					<polygon fill="#F8B133" points="84.798,33.214 82.935,29.971 100.335,19.879 102.197,23.123 84.798,33.214 					"/>
				</g>
				<g>
					<polygon fill="#F8B133" points="77.166,24.177 73.94,22.307 83.986,4.826 87.214,6.699 77.166,24.177 					"/>
				</g>
			</g>
		</g>
		<path fill-rule="evenodd" clip-rule="evenodd" fill="#999999" d="M60.823,40.339c-1.205,0-2.366,0.184-3.463,0.518
			c-2.306-2.452-5.564-3.991-9.187-3.991c-2.349,0-4.54,0.655-6.425,1.775c-1.492-6.181-7.02-10.778-13.632-10.778
			c-7.644,0-13.846,6.135-14.026,13.768C7.689,43.478,3,49.392,3,56.416c0,8.502,6.862,15.393,15.323,15.393
			c4.992,0,9.41-2.408,12.208-6.119c2.061,1.951,4.831,3.156,7.887,3.156c3.759,0,7.086-1.817,9.186-4.616h13.219
			c6.567,0,11.889-5.349,11.889-11.946C72.712,45.688,67.39,40.339,60.823,40.339z"/>
	</g>
</g>
<g id="wetter" display="none">
	<g display="inline">
		<g>
			<g>
				<ellipse fill="#DDDDDD" cx="64.199" cy="43.001" rx="19.731" ry="19.822"/>
				<g>
					<polygon fill="#DDDDDD" points="66.063,20.185 62.334,20.185 62.334,0 66.063,0 66.063,20.185 					"/>
				</g>
				<g>
					<polygon fill="#DDDDDD" points="54.458,22.307 51.23,24.177 41.184,6.699 44.411,4.823 54.458,22.307 					"/>
				</g>
				<g>
					<polygon fill="#DDDDDD" points="45.463,29.971 43.601,33.214 26.199,23.123 28.064,19.877 45.463,29.971 					"/>
				</g>
				<g>
					<polygon fill="#DDDDDD" points="41.487,41.125 41.49,44.872 21.396,44.872 21.396,41.125 41.487,41.125 					"/>
				</g>
				<g>
					<polygon fill="#DDDDDD" points="43.599,52.785 45.463,56.03 28.061,66.121 26.198,62.877 43.599,52.785 					"/>
				</g>
				<g>
					<polygon fill="#DDDDDD" points="51.23,61.824 54.458,63.696 44.411,81.175 41.181,79.303 51.23,61.824 					"/>
				</g>
				<g>
					<polygon fill="#DDDDDD" points="62.334,65.815 66.061,65.815 66.061,86 62.333,85.999 62.334,65.815 					"/>
				</g>
				<g>
					<polygon fill="#DDDDDD" points="73.94,63.696 77.166,61.824 87.213,79.304 83.983,81.175 73.94,63.696 					"/>
				</g>
				<g>
					<polygon fill="#DDDDDD" points="82.935,56.03 84.797,52.786 102.197,62.879 100.333,66.121 82.935,56.03 					"/>
				</g>
				<g>
					<polygon fill="#DDDDDD" points="86.909,44.872 86.907,41.128 107,41.128 107,44.873 86.909,44.872 					"/>
				</g>
				<g>
					<polygon fill="#DDDDDD" points="84.798,33.214 82.935,29.971 100.335,19.879 102.197,23.123 84.798,33.214 					"/>
				</g>
				<g>
					<polygon fill="#DDDDDD" points="77.166,24.177 73.94,22.307 83.986,4.826 87.214,6.699 77.166,24.177 					"/>
				</g>
			</g>
		</g>
		<path fill-rule="evenodd" clip-rule="evenodd" fill="#999999" d="M60.823,40.339c-1.205,0-2.366,0.184-3.463,0.518
			c-2.306-2.452-5.564-3.991-9.187-3.991c-2.349,0-4.54,0.655-6.425,1.775c-1.492-6.181-7.02-10.778-13.632-10.778
			c-7.644,0-13.846,6.135-14.026,13.768C7.689,43.478,3,49.392,3,56.416c0,8.502,6.862,15.393,15.323,15.393
			c4.992,0,9.41-2.408,12.208-6.119c2.061,1.951,4.831,3.156,7.887,3.156c3.759,0,7.086-1.817,9.186-4.616h13.219
			c6.567,0,11.889-5.349,11.889-11.946C72.712,45.688,67.39,40.339,60.823,40.339z"/>
	</g>
</g>
<g id="wetter_mobil" display="none">
	<g display="inline">
		<g>
			<g>
				<ellipse fill="#FFFFFF" cx="64.199" cy="43.001" rx="19.731" ry="19.822"/>
				<g>
					<polygon fill="#FFFFFF" points="66.063,20.185 62.334,20.185 62.334,0 66.063,0 66.063,20.185 					"/>
				</g>
				<g>
					<polygon fill="#FFFFFF" points="54.458,22.307 51.23,24.177 41.184,6.699 44.411,4.823 54.458,22.307 					"/>
				</g>
				<g>
					<polygon fill="#FFFFFF" points="45.463,29.971 43.601,33.214 26.199,23.123 28.064,19.877 45.463,29.971 					"/>
				</g>
				<g>
					<polygon fill="#DDDDDD" points="41.487,41.125 41.49,44.872 21.396,44.872 21.396,41.125 41.487,41.125 					"/>
				</g>
				<g>
					<polygon fill="#DDDDDD" points="43.599,52.785 45.463,56.03 28.061,66.121 26.198,62.877 43.599,52.785 					"/>
				</g>
				<g>
					<polygon fill="#FFFFFF" points="51.23,61.824 54.458,63.696 44.411,81.175 41.181,79.303 51.23,61.824 					"/>
				</g>
				<g>
					<polygon fill="#FFFFFF" points="62.334,65.815 66.061,65.815 66.061,86 62.333,85.999 62.334,65.815 					"/>
				</g>
				<g>
					<polygon fill="#FFFFFF" points="73.94,63.696 77.166,61.824 87.213,79.304 83.983,81.175 73.94,63.696 					"/>
				</g>
				<g>
					<polygon fill="#FFFFFF" points="82.935,56.03 84.797,52.786 102.197,62.879 100.333,66.121 82.935,56.03 					"/>
				</g>
				<g>
					<polygon fill="#FFFFFF" points="86.909,44.872 86.907,41.128 107,41.128 107,44.873 86.909,44.872 					"/>
				</g>
				<g>
					<polygon fill="#FFFFFF" points="84.798,33.214 82.935,29.971 100.335,19.879 102.197,23.123 84.798,33.214 					"/>
				</g>
				<g>
					<polygon fill="#FFFFFF" points="77.166,24.177 73.94,22.307 83.986,4.826 87.214,6.699 77.166,24.177 					"/>
				</g>
			</g>
		</g>
		<path fill-rule="evenodd" clip-rule="evenodd" fill="#999999" d="M60.823,40.339c-1.205,0-2.366,0.184-3.463,0.518
			c-2.306-2.452-5.564-3.991-9.187-3.991c-2.349,0-4.54,0.655-6.425,1.775c-1.492-6.181-7.02-10.778-13.632-10.778
			c-7.644,0-13.846,6.135-14.026,13.768C7.689,43.478,3,49.392,3,56.416c0,8.502,6.862,15.393,15.323,15.393
			c4.992,0,9.41-2.408,12.208-6.119c2.061,1.951,4.831,3.156,7.887,3.156c3.759,0,7.086-1.817,9.186-4.616h13.219
			c6.567,0,11.889-5.349,11.889-11.946C72.712,45.688,67.39,40.339,60.823,40.339z"/>
	</g>
</g>
<g id="pfeil_rechts_blau" display="none">
	<path display="inline" fill="#005293" d="M85,43.004c-5.489-4.5-40.693-32.804-49.393-40.678
		c-8.044-6.731-13.829,2.784-8.593,7.862c4.087,3.587,35.857,29.011,40.604,32.809h-0.001c-4.722,3.777-36.524,29.227-40.613,32.816
		c-5.236,5.078,0.549,14.593,8.593,7.862c8.696-7.87,43.871-36.151,49.384-40.671H85z"/>
</g>
<g id="pfeil_rechts_grau" display="none">
	<path display="inline" fill="#999999" d="M85,43.004c-5.489-4.5-40.693-32.804-49.393-40.678
		c-8.044-6.731-13.829,2.784-8.593,7.862c4.087,3.587,35.857,29.011,40.604,32.809h-0.001c-4.722,3.777-36.524,29.227-40.613,32.816
		c-5.236,5.078,0.549,14.593,8.593,7.862c8.696-7.87,43.871-36.151,49.384-40.671H85z"/>
</g>
<g id="pfeil_rechts_weiss" display="none">
	<path display="inline" fill="#FFFFFF" d="M85,43.004c-5.489-4.5-40.693-32.804-49.393-40.678
		c-8.044-6.731-13.829,2.784-8.593,7.862c4.087,3.587,35.857,29.011,40.604,32.809h-0.001c-4.722,3.777-36.524,29.227-40.613,32.816
		c-5.236,5.078,0.549,14.593,8.593,7.862c8.696-7.87,43.871-36.151,49.384-40.671H85z"/>
</g>
<g id="pfeil_links_blau" display="none">
	<path display="inline" fill="#005293" d="M25,42.996c5.489,4.5,40.693,32.804,49.393,40.678c8.044,6.731,13.829-2.784,8.593-7.862
		c-4.087-3.587-35.857-29.011-40.604-32.808h0.001c4.722-3.777,36.524-29.227,40.613-32.816c5.236-5.078-0.549-14.593-8.593-7.862
		c-8.696,7.87-43.871,36.151-49.384,40.671H25z"/>
</g>
<g id="pfeil_links_grau" display="none">
	<path display="inline" fill="#999999" d="M25,42.996c5.489,4.5,40.693,32.804,49.393,40.678c8.044,6.731,13.829-2.784,8.593-7.862
		c-4.087-3.587-35.857-29.011-40.604-32.808h0.001c4.722-3.777,36.524-29.227,40.613-32.816c5.236-5.078-0.549-14.593-8.593-7.862
		c-8.696,7.87-43.871,36.151-49.384,40.671H25z"/>
</g>
<g id="pfeil_links_weiss" display="none">
	<path display="inline" fill="#FFFFFF" d="M25,42.996c5.489,4.5,40.693,32.804,49.393,40.678c8.044,6.731,13.829-2.784,8.593-7.862
		c-4.087-3.587-35.857-29.011-40.604-32.808h0.001c4.722-3.777,36.524-29.227,40.613-32.816c5.236-5.078-0.549-14.593-8.593-7.862
		c-8.696,7.87-43.871,36.151-49.384,40.671H25z"/>
</g>
<g id="pfeil_hoch_blau" display="none">
	<path display="inline" fill="#005293" d="M55.004,5c-5.756,6.952-41.959,51.544-52.03,62.564
		c-8.609,10.189,3.561,17.517,10.056,10.885c4.588-5.176,37.107-45.419,41.964-51.432v0.002
		c4.831,5.981,37.383,46.264,41.973,51.443c6.496,6.633,18.665-0.696,10.056-10.885c-10.066-11.015-46.24-55.57-52.02-62.553V5z"/>
</g>
<g id="pfeil_hoch_grau" display="none">
	<path display="inline" fill="#999999" d="M55.004,5c-5.756,6.952-41.959,51.544-52.03,62.564
		c-8.609,10.189,3.561,17.517,10.056,10.885c4.588-5.176,37.107-45.419,41.964-51.432v0.002
		c4.831,5.981,37.383,46.264,41.973,51.443c6.496,6.633,18.665-0.696,10.056-10.885c-10.066-11.015-46.24-55.57-52.02-62.553V5z"/>
</g>
<g id="pfeil_hoch_weiss" display="none">
	<path display="inline" fill="#FFFFFF" d="M55.004,5c-5.756,6.952-41.959,51.544-52.03,62.564
		c-8.609,10.189,3.561,17.517,10.056,10.885c4.588-5.176,37.107-45.419,41.964-51.432v0.002
		c4.831,5.981,37.383,46.264,41.973,51.443c6.496,6.633,18.665-0.696,10.056-10.885c-10.066-11.015-46.24-55.57-52.02-62.553V5z"/>
</g>
<g id="pfeil_runter_blau" display="none">
	<path display="inline" fill="#007EC1" d="M54.996,81c5.756-6.952,41.959-51.544,52.03-62.564
		c8.609-10.189-3.561-17.517-10.056-10.885c-4.588,5.176-37.107,45.419-41.964,51.432v-0.002
		c-4.831-5.981-37.383-46.264-41.973-51.443C6.536,0.906-5.634,8.234,2.975,18.423c10.066,11.015,46.24,55.57,52.02,62.553V81z"/>
</g>
<g id="pfeil_runter_grau" display="none">
	<path display="inline" fill="#999999" d="M54.996,81c5.756-6.952,41.959-51.544,52.03-62.564
		c8.609-10.189-3.561-17.517-10.056-10.885c-4.588,5.176-37.107,45.419-41.964,51.432v-0.002
		c-4.831-5.981-37.383-46.264-41.973-51.443C6.536,0.906-5.634,8.234,2.975,18.423c10.066,11.015,46.24,55.57,52.02,62.553V81z"/>
</g>
<g id="pfeil_runter_weiss" display="none">
	<path display="inline" fill="#FFFFFF" d="M54.996,81c5.756-6.952,41.959-51.544,52.03-62.564
		c8.609-10.189-3.561-17.517-10.056-10.885c-4.588,5.176-37.107,45.419-41.964,51.432v-0.002
		c-4.831-5.981-37.383-46.264-41.973-51.443C6.536,0.906-5.634,8.234,2.975,18.423c10.066,11.015,46.24,55.57,52.02,62.553V81z"/>
</g>
<g id="video_grau" display="none">
	<g display="inline">
		<path fill="#999999" d="M71.82,59.042c0,5.499-4.532,9.958-10.123,9.958H10.123C4.532,69,0,64.542,0,59.042V26.958
			C0,21.459,4.532,17,10.123,17h51.574c5.591,0,10.123,4.458,10.123,9.958L71.82,59.042L71.82,59.042z"/>
		<polygon fill="#999999" points="79.83,51.01 79.83,34.99 110,17 110,69 		"/>
	</g>
</g>
<g id="video_blau" display="none">
	<g display="inline">
		<path fill="#005293" d="M71.82,59.042c0,5.499-4.532,9.958-10.123,9.958H10.123C4.532,69,0,64.542,0,59.042V26.958
			C0,21.459,4.532,17,10.123,17h51.574c5.591,0,10.123,4.458,10.123,9.958L71.82,59.042L71.82,59.042z"/>
		<polygon fill="#005293" points="79.83,51.01 79.83,34.99 110,17 110,69 		"/>
	</g>
</g>
<g id="video_weiss" display="none">
	<g display="inline">
		<path fill="#FFFFFF" d="M71.82,59.042c0,5.499-4.532,9.958-10.123,9.958H10.123C4.532,69,0,64.542,0,59.042V26.958
			C0,21.459,4.532,17,10.123,17h51.574c5.591,0,10.123,4.458,10.123,9.958L71.82,59.042L71.82,59.042z"/>
		<polygon fill="#FFFFFF" points="79.83,51.01 79.83,34.99 110,17 110,69 		"/>
	</g>
</g>
<g id="gallery_grau" display="none">
	<path id="picture-multi-icon_2_" display="inline" fill="#999999" d="M64.61,46.562c-3.716,0-6.728-3.022-6.728-6.75
		c0-3.728,3.012-6.75,6.728-6.75c3.716,0,6.729,3.022,6.729,6.75C71.339,43.54,68.326,46.562,64.61,46.562z M18.067,69.153h53.462
		L54.426,49.658l-6.061,6.268L37.211,40.028L18.067,69.153z M1,17.241V86h90.801V68.757H109V0H18.463v17.241H1z M100.185,59.914
		h-8.384V17.241H27.279V8.844h72.906V59.914L100.185,59.914z M9.815,26.085h73.17v51.072H9.815V26.085z"/>
</g>
<g id="gallery_blau" display="none">
	<path id="picture-multi-icon_1_" display="inline" fill="#005293" d="M64.61,46.562c-3.716,0-6.728-3.022-6.728-6.75
		c0-3.728,3.012-6.75,6.728-6.75c3.716,0,6.729,3.022,6.729,6.75C71.339,43.54,68.326,46.562,64.61,46.562z M18.067,69.153h53.462
		L54.426,49.658l-6.061,6.268L37.211,40.028L18.067,69.153z M1,17.241V86h90.801V68.757H109V0H18.463v17.241H1z M100.185,59.914
		h-8.384V17.241H27.279V8.844h72.906V59.914L100.185,59.914z M9.815,26.085h73.17v51.072H9.815V26.085z"/>
</g>
<g id="gallery_weiss" display="none">
	<path id="picture-multi-icon_3_" display="inline" fill="#FFFFFF" d="M64.61,46.562c-3.716,0-6.728-3.022-6.728-6.75
		c0-3.728,3.012-6.75,6.728-6.75c3.716,0,6.729,3.022,6.729,6.75C71.339,43.54,68.326,46.562,64.61,46.562z M18.067,69.153h53.462
		L54.426,49.658l-6.061,6.268L37.211,40.028L18.067,69.153z M1,17.241V86h90.801V68.757H109V0H18.463v17.241H1z M100.185,59.914
		h-8.384V17.241H27.279V8.844h72.906V59.914L100.185,59.914z M9.815,26.085h73.17v51.072H9.815V26.085z"/>
</g>
<g id="audio_grau" display="none">
	<g id="Ebene_3_2_" display="inline">
		<g>
			<path fill="#999999" d="M1,29.895v26.21c0,4.096,3.285,7.417,7.336,7.417h15.13V22.478H8.336C4.285,22.478,1,25.799,1,29.895z"/>
			<path fill="#999999" d="M83.552,20.729l-6.534,6.583c3.959,4.012,6.402,9.552,6.392,15.667
				c-0.007,6.114-2.467,11.647-6.434,15.65l6.509,6.604c5.64-5.685,9.137-13.553,9.148-22.241
				C92.646,34.299,89.175,26.43,83.552,20.729z"/>
			<polygon fill="#999999" points="31.711,65.362 67.161,86 67.161,0 31.711,20.64 			"/>
			<path fill="#999999" d="M88.452,15.792c6.877,6.97,11.114,16.583,11.097,27.204c-0.014,10.62-4.291,20.237-11.185,27.188
				l6.67,6.771c8.606-8.681,13.95-20.691,13.967-33.951c0.02-13.258-5.269-25.258-13.851-33.958L88.452,15.792z"/>
		</g>
	</g>
</g>
<g id="audio_blau" display="none">
	<g id="Ebene_3_1_" display="inline">
		<g>
			<path fill="#005293" d="M1,29.895v26.21c0,4.096,3.285,7.417,7.336,7.417h15.13V22.478H8.336C4.285,22.478,1,25.799,1,29.895z"/>
			<path fill="#005293" d="M83.552,20.729l-6.534,6.583c3.959,4.012,6.402,9.552,6.392,15.667
				c-0.007,6.114-2.467,11.647-6.434,15.65l6.509,6.604c5.64-5.685,9.137-13.553,9.148-22.241
				C92.646,34.299,89.175,26.43,83.552,20.729z"/>
			<polygon fill="#005293" points="31.711,65.362 67.161,86 67.161,0 31.711,20.64 			"/>
			<path fill="#005293" d="M88.452,15.792c6.877,6.97,11.114,16.583,11.097,27.204c-0.014,10.62-4.291,20.237-11.185,27.188
				l6.67,6.771c8.606-8.681,13.95-20.691,13.967-33.951c0.02-13.258-5.269-25.258-13.851-33.958L88.452,15.792z"/>
		</g>
	</g>
</g>
<g id="audio_weiss" display="none">
	<g id="Ebene_3_3_" display="inline">
		<g>
			<path fill="#FFFFFF" d="M1,29.895v26.21c0,4.096,3.285,7.417,7.336,7.417h15.13V22.478H8.336C4.285,22.478,1,25.799,1,29.895z"/>
			<path fill="#FFFFFF" d="M83.552,20.729l-6.534,6.583c3.959,4.012,6.402,9.552,6.392,15.667
				c-0.007,6.114-2.467,11.647-6.434,15.65l6.509,6.604c5.64-5.685,9.137-13.553,9.148-22.241
				C92.646,34.299,89.175,26.43,83.552,20.729z"/>
			<polygon fill="#FFFFFF" points="31.711,65.362 67.161,86 67.161,0 31.711,20.64 			"/>
			<path fill="#FFFFFF" d="M88.452,15.792c6.877,6.97,11.114,16.583,11.097,27.204c-0.014,10.62-4.291,20.237-11.185,27.188
				l6.67,6.771c8.606-8.681,13.95-20.691,13.967-33.951c0.02-13.258-5.269-25.258-13.851-33.958L88.452,15.792z"/>
		</g>
	</g>
</g>
<g id="kommentar_grau" display="none">
	<g display="inline">
		<path fill="#999999" d="M100,49.383c0,4.388-3.468,7.944-7.746,7.944h-6.027V86L61.329,57.327H17.745
			c-4.277,0-7.745-3.557-7.745-7.944V7.943C10,3.555,13.468,0,17.745,0h74.509C96.532,0,100,3.555,100,7.943V49.383z"/>
	</g>
</g>
<g id="kommentar_blau" display="none">
	<g display="inline">
		<path fill="#005293" d="M100,49.383c0,4.388-3.468,7.944-7.746,7.944h-6.027V86L61.329,57.327H17.745
			c-4.277,0-7.745-3.557-7.745-7.944V7.943C10,3.555,13.468,0,17.745,0h74.509C96.532,0,100,3.555,100,7.943V49.383z"/>
	</g>
</g>
<g id="kommentar_weiss" display="none">
	<g display="inline">
		<path fill="#FFFFFF" d="M100,49.383c0,4.388-3.468,7.944-7.746,7.944h-6.027V86L61.329,57.327H17.745
			c-4.277,0-7.745-3.557-7.745-7.944V7.943C10,3.555,13.468,0,17.745,0h74.509C96.532,0,100,3.555,100,7.943V49.383z"/>
	</g>
</g>
<g id="label_grau" display="none">
	<path id="tags-icon_1_" display="inline" fill="#999999" d="M50.616,0H13v38.497L59.356,86L97,47.448L50.616,0z M37.324,23.92
		c-3.035,3.108-7.955,3.108-10.989,0c-3.034-3.108-3.034-8.147,0-11.254c3.034-3.108,7.954-3.108,10.989,0
		C40.359,15.774,40.359,20.812,37.324,23.92z"/>
</g>
<g id="label_blau" display="none">
	<path id="tags-icon_2_" display="inline" fill="#005293" d="M50.616,0H13v38.497L59.356,86L97,47.448L50.616,0z M37.324,23.92
		c-3.035,3.108-7.955,3.108-10.989,0c-3.034-3.108-3.034-8.147,0-11.254c3.034-3.108,7.954-3.108,10.989,0
		C40.359,15.774,40.359,20.812,37.324,23.92z"/>
</g>
<g id="label_weiss" display="none">
	<path id="tags-icon_3_" display="inline" fill="#FFFFFF" d="M50.616,0H13v38.497L59.356,86L97,47.448L50.616,0z M37.324,23.92
		c-3.035,3.108-7.955,3.108-10.989,0c-3.034-3.108-3.034-8.147,0-11.254c3.034-3.108,7.954-3.108,10.989,0
		C40.359,15.774,40.359,20.812,37.324,23.92z"/>
</g>
<g id="facebook_grau" display="none">
	<g id="facebook_3_" display="inline">
		<g>
			<path fill="#999999" d="M68.703,42.632H56.528V86H39.076V42.816H30v-14.7h9.074c0,0,0-2.113,0-11.577
				C39.074,5.672,44.93,0,57.914,0c2.127,0,12.082,0,12.082,0l0.002,15.068c0,0-6.759,0-9.443,0c-3.334,0-4.028,1.355-4.028,4.778
				c0,2.848,0,8.27,0,8.27H70L68.703,42.632z"/>
		</g>
	</g>
</g>
<g id="facebook_blau" display="none">
	<g id="facebook_1_" display="inline">
		<g>
			<path fill="#005293" d="M68.703,42.632H56.528V86H39.076V42.816H30v-14.7h9.074c0,0,0-2.113,0-11.577
				C39.074,5.672,44.93,0,57.914,0c2.127,0,12.082,0,12.082,0l0.002,15.068c0,0-6.759,0-9.443,0c-3.334,0-4.028,1.355-4.028,4.778
				c0,2.848,0,8.27,0,8.27H70L68.703,42.632z"/>
		</g>
	</g>
</g>
<g id="facebook_weiss" display="none">
	<g id="facebook_2_" display="inline">
		<g>
			<path fill="#FFFFFF" d="M68.703,42.632H56.528V86H39.076V42.816H30v-14.7h9.074c0,0,0-2.113,0-11.577
				C39.074,5.672,44.93,0,57.914,0c2.127,0,12.082,0,12.082,0l0.002,15.068c0,0-6.759,0-9.443,0c-3.334,0-4.028,1.355-4.028,4.778
				c0,2.848,0,8.27,0,8.27H70L68.703,42.632z"/>
		</g>
	</g>
</g>
<g id="twitter_grau" display="none">
	<g id="twitter_4_" display="inline">
		<g>
			<path fill="#999999" d="M96.355,21.422c0.04,0.925,0.057,1.865,0.057,2.809C96.413,52.925,74.958,86,35.706,86
				C23.659,86,12.443,82.404,3,76.25c1.666,0.203,3.368,0.3,5.091,0.3c9.994,0,19.195-3.47,26.498-9.296
				c-9.338-0.167-17.216-6.448-19.928-15.071c1.297,0.256,2.638,0.385,4.011,0.385c1.95,0,3.833-0.254,5.625-0.763
				c-9.768-1.99-17.121-10.764-17.121-21.288V30.25c2.879,1.617,6.173,2.602,9.669,2.712c-5.726-3.897-9.494-10.545-9.494-18.07
				c0-3.979,1.053-7.707,2.889-10.924C20.771,17.112,36.487,25.747,54.22,26.653c-0.367-1.587-0.549-3.239-0.549-4.944
				C53.67,9.723,63.224,0,75,0c6.139,0,11.689,2.635,15.573,6.854c4.867-0.971,9.428-2.775,13.553-5.262
				c-1.588,5.068-4.971,9.32-9.379,12.007c4.313-0.524,8.43-1.692,12.254-3.417C104.147,14.535,100.526,18.359,96.355,21.422z"/>
		</g>
	</g>
</g>
<g id="twitter_blau" display="none">
	<g id="twitter_1_" display="inline">
		<g>
			<path fill="#005293" d="M96.355,21.422c0.04,0.925,0.057,1.865,0.057,2.809C96.413,52.925,74.958,86,35.706,86
				C23.659,86,12.443,82.404,3,76.25c1.666,0.203,3.368,0.3,5.091,0.3c9.994,0,19.195-3.47,26.498-9.296
				c-9.338-0.167-17.216-6.448-19.928-15.071c1.297,0.256,2.638,0.385,4.011,0.385c1.95,0,3.833-0.254,5.625-0.763
				c-9.768-1.99-17.121-10.764-17.121-21.288V30.25c2.879,1.617,6.173,2.602,9.669,2.712c-5.726-3.897-9.494-10.545-9.494-18.07
				c0-3.979,1.053-7.707,2.889-10.924C20.771,17.112,36.487,25.747,54.22,26.653c-0.367-1.587-0.549-3.239-0.549-4.944
				C53.67,9.723,63.224,0,75,0c6.139,0,11.689,2.635,15.573,6.854c4.867-0.971,9.428-2.775,13.553-5.262
				c-1.588,5.068-4.971,9.32-9.379,12.007c4.313-0.524,8.43-1.692,12.254-3.417C104.147,14.535,100.526,18.359,96.355,21.422z"/>
		</g>
	</g>
</g>
<g id="twitter_weiss" display="none">
	<g id="twitter_2_" display="inline">
		<g>
			<path fill="#FFFFFF" d="M96.355,21.422c0.04,0.925,0.057,1.865,0.057,2.809C96.413,52.925,74.958,86,35.706,86
				C23.659,86,12.443,82.404,3,76.25c1.666,0.203,3.368,0.3,5.091,0.3c9.994,0,19.195-3.47,26.498-9.296
				c-9.338-0.167-17.216-6.448-19.928-15.071c1.297,0.256,2.638,0.385,4.011,0.385c1.95,0,3.833-0.254,5.625-0.763
				c-9.768-1.99-17.121-10.764-17.121-21.288V30.25c2.879,1.617,6.173,2.602,9.669,2.712c-5.726-3.897-9.494-10.545-9.494-18.07
				c0-3.979,1.053-7.707,2.889-10.924C20.771,17.112,36.487,25.747,54.22,26.653c-0.367-1.587-0.549-3.239-0.549-4.944
				C53.67,9.723,63.224,0,75,0c6.139,0,11.689,2.635,15.573,6.854c4.867-0.971,9.428-2.775,13.553-5.262
				c-1.588,5.068-4.971,9.32-9.379,12.007c4.313-0.524,8.43-1.692,12.254-3.417C104.147,14.535,100.526,18.359,96.355,21.422z"/>
		</g>
	</g>
</g>
<g id="googleplus_grau" display="none">
	<g id="google_2_" display="inline">
		<g>
			<path fill="#999999" d="M39.69,53.878c-4.467,0-8.724,1.39-11.986,3.915c-3.138,2.427-4.937,5.679-4.937,8.92
				c0,7.287,7.007,12.996,15.951,12.996c5.687,0,10.32-1.285,13.397-3.717c2.778-2.195,4.246-5.27,4.246-8.892
				c0-6.409-5.756-13.22-16.425-13.22L39.69,53.878z M37.168,5.682c-0.087-0.003-0.172-0.004-0.258-0.004
				c-2.339,0-4.412,0.973-5.995,2.813c-2.313,2.687-3.297,6.877-2.702,11.495c1.029,7.974,6.656,14.136,13.09,14.333
				c0.103,0.004,0.205,0.005,0.308,0.005c2.379,0,4.388-0.872,5.807-2.521c2.018-2.345,2.805-6.152,2.216-10.723
				C48.525,12.485,43.166,5.865,37.168,5.682z M60.998,20.6c0,5.213-2.586,10.007-7.48,13.864c-3.021,2.38-4.417,4.283-4.394,5.987
				c0.032,2.301,2.679,4.736,6.646,7.684c7.835,5.983,10.608,10.714,10.608,18.086C66.378,75.747,57.701,86,38.648,86
				C22.958,86,12,78.829,12,68.562c0-3.621,0.988-8.796,5.7-12.883c4.601-3.991,11.815-6.14,21.46-6.395
				c-2.268-2.704-2.787-6.095-1.456-9.648c-12.337-0.469-20.235-7.973-20.235-19.388C17.469,10.169,24.696,0,40.84,0h26.149
				l-6.971,7.458h-4.192C59.103,10.422,60.998,15.148,60.998,20.6z M98,19.903H86.814v11.399h-7.223V19.903H68.405V12.54H79.59
				V1.141h7.223V12.54H98L98,19.903L98,19.903z"/>
		</g>
	</g>
</g>
<g id="googleplus_blau" display="none">
	<g id="google_1_" display="inline">
		<g>
			<path fill="#005293" d="M39.69,53.878c-4.467,0-8.724,1.39-11.986,3.915c-3.138,2.427-4.937,5.679-4.937,8.92
				c0,7.287,7.007,12.996,15.951,12.996c5.687,0,10.32-1.285,13.397-3.717c2.778-2.195,4.246-5.27,4.246-8.892
				c0-6.409-5.756-13.22-16.425-13.22L39.69,53.878z M37.168,5.682c-0.087-0.003-0.172-0.004-0.258-0.004
				c-2.339,0-4.412,0.973-5.995,2.813c-2.313,2.687-3.297,6.877-2.702,11.495c1.029,7.974,6.656,14.136,13.09,14.333
				c0.103,0.004,0.205,0.005,0.308,0.005c2.379,0,4.388-0.872,5.807-2.521c2.018-2.345,2.805-6.152,2.216-10.723
				C48.525,12.485,43.166,5.865,37.168,5.682z M60.998,20.6c0,5.213-2.586,10.007-7.48,13.864c-3.021,2.38-4.417,4.283-4.394,5.987
				c0.032,2.301,2.679,4.736,6.646,7.684c7.835,5.983,10.608,10.714,10.608,18.086C66.378,75.747,57.701,86,38.648,86
				C22.958,86,12,78.829,12,68.562c0-3.621,0.988-8.796,5.7-12.883c4.601-3.991,11.815-6.14,21.46-6.395
				c-2.268-2.704-2.787-6.095-1.456-9.648c-12.337-0.469-20.235-7.973-20.235-19.388C17.469,10.169,24.696,0,40.84,0h26.149
				l-6.971,7.458h-4.192C59.103,10.422,60.998,15.148,60.998,20.6z M98,19.903H86.814v11.399h-7.223V19.903H68.405V12.54H79.59
				V1.141h7.223V12.54H98L98,19.903L98,19.903z"/>
		</g>
	</g>
</g>
<g id="googleplus_weiss" display="none">
	<g id="google_3_" display="inline">
		<g>
			<path fill="#FFFFFF" d="M39.69,53.878c-4.467,0-8.724,1.39-11.986,3.915c-3.138,2.427-4.937,5.679-4.937,8.92
				c0,7.287,7.007,12.996,15.951,12.996c5.687,0,10.32-1.285,13.397-3.717c2.778-2.195,4.246-5.27,4.246-8.892
				c0-6.409-5.756-13.22-16.425-13.22L39.69,53.878z M37.168,5.682c-0.087-0.003-0.172-0.004-0.258-0.004
				c-2.339,0-4.412,0.973-5.995,2.813c-2.313,2.687-3.297,6.877-2.702,11.495c1.029,7.974,6.656,14.136,13.09,14.333
				c0.103,0.004,0.205,0.005,0.308,0.005c2.379,0,4.388-0.872,5.807-2.521c2.018-2.345,2.805-6.152,2.216-10.723
				C48.525,12.485,43.166,5.865,37.168,5.682z M60.998,20.6c0,5.213-2.586,10.007-7.48,13.864c-3.021,2.38-4.417,4.283-4.394,5.987
				c0.032,2.301,2.679,4.736,6.646,7.684c7.835,5.983,10.608,10.714,10.608,18.086C66.378,75.747,57.701,86,38.648,86
				C22.958,86,12,78.829,12,68.562c0-3.621,0.988-8.796,5.7-12.883c4.601-3.991,11.815-6.14,21.46-6.395
				c-2.268-2.704-2.787-6.095-1.456-9.648c-12.337-0.469-20.235-7.973-20.235-19.388C17.469,10.169,24.696,0,40.84,0h26.149
				l-6.971,7.458h-4.192C59.103,10.422,60.998,15.148,60.998,20.6z M98,19.903H86.814v11.399h-7.223V19.903H68.405V12.54H79.59
				V1.141h7.223V12.54H98L98,19.903L98,19.903z"/>
		</g>
	</g>
</g>
<g id="mail_grau" display="none">
	<g id="mail_3_" display="inline">
		<g>
			<path fill="#999999" d="M105.523,7L58.637,54.95c-1.938,1.98-5.32,1.98-7.258,0L4.492,7H105.523z M0,8.769l32.979,33.725
				L0,76.223V8.769z M3.507,79l32.585-33.321l12.177,12.452c1.798,1.84,4.194,2.855,6.74,2.855c2.545,0,4.941-1.015,6.739-2.855
				l12.178-12.454L106.511,79H3.507z M110,76.206L77.038,42.495L110,8.786V76.206z"/>
		</g>
	</g>
</g>
<g id="mail_blau" display="none">
	<g id="mail_1_" display="inline">
		<g>
			<path fill="#005293" d="M105.523,7L58.637,54.95c-1.938,1.98-5.32,1.98-7.258,0L4.492,7H105.523z M0,8.769l32.979,33.725
				L0,76.223V8.769z M3.507,79l32.585-33.321l12.177,12.452c1.798,1.84,4.194,2.855,6.74,2.855c2.545,0,4.941-1.015,6.739-2.855
				l12.178-12.454L106.511,79H3.507z M110,76.206L77.038,42.495L110,8.786V76.206z"/>
		</g>
	</g>
</g>
<g id="mail_weiss" display="none">
	<g id="mail_2_" display="inline">
		<g>
			<path fill="#FFFFFF" d="M105.523,7L58.637,54.95c-1.938,1.98-5.32,1.98-7.258,0L4.492,7H105.523z M0,8.769l32.979,33.725
				L0,76.223V8.769z M3.507,79l32.585-33.321l12.177,12.452c1.798,1.84,4.194,2.855,6.74,2.855c2.545,0,4.941-1.015,6.739-2.855
				l12.178-12.454L106.511,79H3.507z M110,76.206L77.038,42.495L110,8.786V76.206z"/>
		</g>
	</g>
</g>
<g id="print_grau" display="none">
	<g display="inline">
		<path fill="#999999" d="M28.527,4.033C28.527,1.815,30.326,0,32.526,0h45.079c2.2,0,3.999,1.815,3.999,4.033v2.667
			c0,2.218-1.799,4.034-3.999,4.034H32.526c-2.199,0-3.999-1.815-3.999-4.034V4.033z M75.527,81.966
			c0,2.219-1.799,4.034-3.998,4.034H38.602c-2.199,0-3.999-1.815-3.999-4.034V56.305c0-2.218,1.799-4.033,3.999-4.033h32.927
			c2.199,0,3.998,1.815,3.998,4.033V81.966z M103,70.979c0,2.218-1.799,4.034-3.999,4.034H83.335c-2.199,0-3.999-1.816-3.999-4.034
			V48.403H31.33v22.577c0,2.218-1.799,4.033-3.999,4.033H10.999C8.8,75.013,7,73.198,7,70.979V20.448c0-2.219,1.8-4.034,3.999-4.034
			h88.002c2.199,0,3.999,1.815,3.999,4.034L103,70.979L103,70.979z"/>
	</g>
</g>
<g id="print_blau" display="none">
	<g display="inline">
		<path fill="#005293" d="M28.527,4.033C28.527,1.815,30.326,0,32.526,0h45.079c2.2,0,3.999,1.815,3.999,4.033v2.667
			c0,2.218-1.799,4.034-3.999,4.034H32.526c-2.199,0-3.999-1.815-3.999-4.034V4.033z M75.527,81.966
			c0,2.219-1.799,4.034-3.998,4.034H38.602c-2.199,0-3.999-1.815-3.999-4.034V56.305c0-2.218,1.799-4.033,3.999-4.033h32.927
			c2.199,0,3.998,1.815,3.998,4.033V81.966z M103,70.979c0,2.218-1.799,4.034-3.999,4.034H83.335c-2.199,0-3.999-1.816-3.999-4.034
			V48.403H31.33v22.577c0,2.218-1.799,4.033-3.999,4.033H10.999C8.8,75.013,7,73.198,7,70.979V20.448c0-2.219,1.8-4.034,3.999-4.034
			h88.002c2.199,0,3.999,1.815,3.999,4.034L103,70.979L103,70.979z"/>
	</g>
</g>
<g id="print_weiss" display="none">
	<g display="inline">
		<path fill="#FFFFFF" d="M28.527,4.033C28.527,1.815,30.326,0,32.526,0h45.079c2.2,0,3.999,1.815,3.999,4.033v2.667
			c0,2.218-1.799,4.034-3.999,4.034H32.526c-2.199,0-3.999-1.815-3.999-4.034V4.033z M75.527,81.966
			c0,2.219-1.799,4.034-3.998,4.034H38.602c-2.199,0-3.999-1.815-3.999-4.034V56.305c0-2.218,1.799-4.033,3.999-4.033h32.927
			c2.199,0,3.998,1.815,3.998,4.033V81.966z M103,70.979c0,2.218-1.799,4.034-3.999,4.034H83.335c-2.199,0-3.999-1.816-3.999-4.034
			V48.403H31.33v22.577c0,2.218-1.799,4.033-3.999,4.033H10.999C8.8,75.013,7,73.198,7,70.979V20.448c0-2.219,1.8-4.034,3.999-4.034
			h88.002c2.199,0,3.999,1.815,3.999,4.034L103,70.979L103,70.979z"/>
	</g>
</g>
<g id="enlarge_blau" display="none">
	<g display="inline">
		<path fill="#005293" d="M93.882,86c-1.367,0-2.652-0.538-3.619-1.516L65.237,59.166c-5.938,5.012-13.386,7.751-21.166,7.751
			C25.836,66.917,11,51.907,11,33.458S25.836,0,44.072,0s33.071,15.009,33.071,33.458c0,6.398-1.77,12.557-5.135,17.912
			l25.493,25.791C98.468,78.139,99,79.439,99,80.822s-0.532,2.683-1.499,3.661C96.534,85.462,95.249,86,93.882,86z M44.072,10.356
			c-12.592,0-22.836,10.364-22.836,23.103c0,12.739,10.244,23.103,22.836,23.103s22.836-10.364,22.836-23.103
			C66.907,20.719,56.663,10.356,44.072,10.356z"/>
		<path fill="#005293" d="M43.799,49.431c-2.822,0-5.118-2.323-5.118-5.178v-5.314h-5.252c-2.822,0-5.118-2.323-5.118-5.178
			c0-2.855,2.296-5.178,5.118-5.178h5.252V23.27c0-2.855,2.296-5.178,5.118-5.178c2.822,0,5.118,2.323,5.118,5.178v5.314h5.252
			c2.822,0,5.118,2.323,5.118,5.178c0,2.855-2.296,5.178-5.118,5.178h-5.252v5.314C48.917,47.108,46.621,49.431,43.799,49.431z"/>
	</g>
</g>
<g id="enlarge_grau_1_" display="none">
	<g display="inline">
		<path fill="#999999" d="M93.882,86c-1.367,0-2.652-0.538-3.619-1.516L65.237,59.166c-5.938,5.012-13.386,7.751-21.166,7.751
			C25.836,66.917,11,51.907,11,33.458S25.836,0,44.072,0s33.071,15.009,33.071,33.458c0,6.398-1.77,12.557-5.135,17.912
			l25.493,25.791C98.468,78.139,99,79.439,99,80.822s-0.532,2.683-1.499,3.661C96.534,85.462,95.249,86,93.882,86z M44.072,10.356
			c-12.592,0-22.836,10.364-22.836,23.103c0,12.739,10.244,23.103,22.836,23.103s22.836-10.364,22.836-23.103
			C66.907,20.719,56.663,10.356,44.072,10.356z"/>
		<path fill="#999999" d="M43.799,49.431c-2.822,0-5.118-2.323-5.118-5.178v-5.314h-5.252c-2.822,0-5.118-2.323-5.118-5.178
			c0-2.855,2.296-5.178,5.118-5.178h5.252V23.27c0-2.855,2.296-5.178,5.118-5.178c2.822,0,5.118,2.323,5.118,5.178v5.314h5.252
			c2.822,0,5.118,2.323,5.118,5.178c0,2.855-2.296,5.178-5.118,5.178h-5.252v5.314C48.917,47.108,46.621,49.431,43.799,49.431z"/>
	</g>
</g>
<g id="enlarge_grau" display="none">
	<g display="inline">
		<path fill="#FFFFFF" d="M93.882,86c-1.367,0-2.652-0.538-3.619-1.516L65.237,59.166c-5.938,5.012-13.386,7.751-21.166,7.751
			C25.836,66.917,11,51.907,11,33.458S25.836,0,44.072,0s33.071,15.009,33.071,33.458c0,6.398-1.77,12.557-5.135,17.912
			l25.493,25.791C98.468,78.139,99,79.439,99,80.822s-0.532,2.683-1.499,3.661C96.534,85.462,95.249,86,93.882,86z M44.072,10.356
			c-12.592,0-22.836,10.364-22.836,23.103c0,12.739,10.244,23.103,22.836,23.103s22.836-10.364,22.836-23.103
			C66.907,20.719,56.663,10.356,44.072,10.356z"/>
		<path fill="#FFFFFF" d="M43.799,49.431c-2.822,0-5.118-2.323-5.118-5.178v-5.314h-5.252c-2.822,0-5.118-2.323-5.118-5.178
			c0-2.855,2.296-5.178,5.118-5.178h5.252V23.27c0-2.855,2.296-5.178,5.118-5.178c2.822,0,5.118,2.323,5.118,5.178v5.314h5.252
			c2.822,0,5.118,2.323,5.118,5.178c0,2.855-2.296,5.178-5.118,5.178h-5.252v5.314C48.917,47.108,46.621,49.431,43.799,49.431z"/>
	</g>
</g>
<g id="reduce_grau" display="none">
	<g display="inline">
		<path fill="#999999" d="M93.882,86c-1.367,0-2.652-0.538-3.619-1.516L65.237,59.166c-5.938,5.012-13.386,7.751-21.166,7.751
			C25.836,66.917,11,51.907,11,33.458S25.836,0,44.072,0s33.071,15.009,33.071,33.458c0,6.398-1.77,12.557-5.135,17.912
			l25.493,25.791C98.468,78.139,99,79.439,99,80.822s-0.532,2.683-1.499,3.661C96.534,85.462,95.249,86,93.882,86z M44.072,10.356
			c-12.592,0-22.836,10.364-22.836,23.103c0,12.739,10.244,23.103,22.836,23.103s22.836-10.364,22.836-23.103
			C66.907,20.719,56.663,10.356,44.072,10.356z"/>
		<path fill="#999999" d="M33.429,38.939c-2.822,0-5.118-2.323-5.118-5.178c0-2.855,2.296-5.178,5.118-5.178H54.17
			c2.822,0,5.118,2.323,5.118,5.178c0,2.855-2.296,5.178-5.118,5.178H33.429z"/>
	</g>
</g>
<g id="reduce_grau_1_" display="none">
	<g display="inline">
		<path fill="#005293" d="M93.882,86c-1.367,0-2.652-0.538-3.619-1.516L65.237,59.166c-5.938,5.012-13.386,7.751-21.166,7.751
			C25.836,66.917,11,51.907,11,33.458S25.836,0,44.072,0s33.071,15.009,33.071,33.458c0,6.398-1.77,12.557-5.135,17.912
			l25.493,25.791C98.468,78.139,99,79.439,99,80.822s-0.532,2.683-1.499,3.661C96.534,85.462,95.249,86,93.882,86z M44.072,10.356
			c-12.592,0-22.836,10.364-22.836,23.103c0,12.739,10.244,23.103,22.836,23.103s22.836-10.364,22.836-23.103
			C66.907,20.719,56.663,10.356,44.072,10.356z"/>
		<path fill="#005293" d="M33.429,38.939c-2.822,0-5.118-2.323-5.118-5.178c0-2.855,2.296-5.178,5.118-5.178H54.17
			c2.822,0,5.118,2.323,5.118,5.178c0,2.855-2.296,5.178-5.118,5.178H33.429z"/>
	</g>
</g>
<g id="reduce_weiss" display="none">
	<g display="inline">
		<path fill="#FFFFFF" d="M93.882,86c-1.367,0-2.652-0.538-3.619-1.516L65.237,59.166c-5.938,5.012-13.386,7.751-21.166,7.751
			C25.836,66.917,11,51.907,11,33.458S25.836,0,44.072,0s33.071,15.009,33.071,33.458c0,6.398-1.77,12.557-5.135,17.912
			l25.493,25.791C98.468,78.139,99,79.439,99,80.822s-0.532,2.683-1.499,3.661C96.534,85.462,95.249,86,93.882,86z M44.072,10.356
			c-12.592,0-22.836,10.364-22.836,23.103c0,12.739,10.244,23.103,22.836,23.103s22.836-10.364,22.836-23.103
			C66.907,20.719,56.663,10.356,44.072,10.356z"/>
		<path fill="#FFFFFF" d="M33.429,38.939c-2.822,0-5.118-2.323-5.118-5.178c0-2.855,2.296-5.178,5.118-5.178H54.17
			c2.822,0,5.118,2.323,5.118,5.178c0,2.855-2.296,5.178-5.118,5.178H33.429z"/>
	</g>
</g>
<g id="like_grau" display="none">
	<path display="inline" fill="#999999" d="M91.967,50.097c-0.356-3.514-3.51-6.078-7.035-5.729l-9.561,0.98l-0.032-0.28l7.58-0.769
		c3.084-0.321,5.297-3.421,4.935-6.946c-0.359-3.52-3.148-6.113-6.237-5.804l-25.364,2.588l-3.604,0.046
		c0,0,5.209-2.354,1.209-21.153C49.868-5.758,39.314,1.299,39.314,1.299s-0.137,16.055-0.707,18.327
		c-0.57,2.285-12.948,26.305-12.948,26.305c0,1.27-7.671,2.54-7.659,3.822c0.088,11.049,0,20.501,0,31.952
		C26.223,79.555,30.618,86,48.186,86c5.738,0,12.913-0.932,18.955-1.929l15.812-1.608c2.745-0.285,4.675-3.357,4.319-6.882
		c-0.28-2.716-1.858-4.86-3.826-5.583l1.989-0.204c3.133-0.32,5.384-3.433,5.028-6.946c-0.312-3.024-2.464-5.233-5.04-5.647
		l0.809-0.082C89.759,56.758,92.323,53.612,91.967,50.097z"/>
</g>
<g id="like_blau" display="none">
	<path display="inline" fill="#005293" d="M91.967,50.097c-0.356-3.514-3.51-6.078-7.035-5.729l-9.561,0.98l-0.032-0.28l7.58-0.769
		c3.084-0.321,5.297-3.421,4.935-6.946c-0.359-3.52-3.148-6.113-6.237-5.804l-25.364,2.588l-3.604,0.046
		c0,0,5.209-2.354,1.209-21.153C49.868-5.758,39.314,1.299,39.314,1.299s-0.137,16.055-0.707,18.327
		c-0.57,2.285-12.948,26.305-12.948,26.305c0,1.27-7.671,2.54-7.659,3.822c0.088,11.049,0,20.501,0,31.952
		C26.223,79.555,30.618,86,48.186,86c5.738,0,12.913-0.932,18.955-1.929l15.812-1.608c2.745-0.285,4.675-3.357,4.319-6.882
		c-0.28-2.716-1.858-4.86-3.826-5.583l1.989-0.204c3.133-0.32,5.384-3.433,5.028-6.946c-0.312-3.024-2.464-5.233-5.04-5.647
		l0.809-0.082C89.759,56.758,92.323,53.612,91.967,50.097z"/>
</g>
<g id="like_weiss" display="none">
	<path display="inline" fill="#FFFFFF" d="M91.967,50.097c-0.356-3.514-3.51-6.078-7.035-5.729l-9.561,0.98l-0.032-0.28l7.58-0.769
		c3.084-0.321,5.297-3.421,4.935-6.946c-0.359-3.52-3.148-6.113-6.237-5.804l-25.364,2.588l-3.604,0.046
		c0,0,5.209-2.354,1.209-21.153C49.868-5.758,39.314,1.299,39.314,1.299s-0.137,16.055-0.707,18.327
		c-0.57,2.285-12.948,26.305-12.948,26.305c0,1.27-7.671,2.54-7.659,3.822c0.088,11.049,0,20.501,0,31.952
		C26.223,79.555,30.618,86,48.186,86c5.738,0,12.913-0.932,18.955-1.929l15.812-1.608c2.745-0.285,4.675-3.357,4.319-6.882
		c-0.28-2.716-1.858-4.86-3.826-5.583l1.989-0.204c3.133-0.32,5.384-3.433,5.028-6.946c-0.312-3.024-2.464-5.233-5.04-5.647
		l0.809-0.082C89.759,56.758,92.323,53.612,91.967,50.097z"/>
</g>
<g id="thumbnail_grau" display="none">
	<g display="inline">
		<path fill="#999999" d="M23.948,0.069C23.554,0.025,23.155,0,22.75,0C16.837,0,12,4.837,12,10.75c0,0.405,0.025,0.804,0.069,1.198
			H12V21.5h21.5V0h-9.552V0.069z M44.25,21.5h21.5V0h-21.5V21.5z M12,53.246h21.5v-21.5H12V53.246z M44.25,53.246h21.5v-21.5h-21.5
			V53.246z M76.5,53.246H98v-21.5H76.5V53.246z M12,75.25C12,81.162,16.837,86,22.75,86H33.5V64.5H12V75.25z M44.25,86h21.5V64.5
			h-21.5V86z M76.5,86h10.302v-0.011C86.951,85.995,87.1,86,87.25,86C93.162,86,98,81.162,98,75.25c0-0.15-0.005-0.299-0.011-0.448
			H98V64.5H76.5V86z M98,10.75C98,4.837,93.162,0,87.25,0H76.5v21.5H98v-9.921h-0.035C97.986,11.305,98,11.029,98,10.75z"/>
	</g>
</g>
<g id="thumbnail_blau" display="none">
	<g display="inline">
		<path fill="#005293" d="M23.948,0.069C23.554,0.025,23.155,0,22.75,0C16.837,0,12,4.837,12,10.75c0,0.405,0.025,0.804,0.069,1.198
			H12V21.5h21.5V0h-9.552V0.069z M44.25,21.5h21.5V0h-21.5V21.5z M12,53.246h21.5v-21.5H12V53.246z M44.25,53.246h21.5v-21.5h-21.5
			V53.246z M76.5,53.246H98v-21.5H76.5V53.246z M12,75.25C12,81.162,16.837,86,22.75,86H33.5V64.5H12V75.25z M44.25,86h21.5V64.5
			h-21.5V86z M76.5,86h10.302v-0.011C86.951,85.995,87.1,86,87.25,86C93.162,86,98,81.162,98,75.25c0-0.15-0.005-0.299-0.011-0.448
			H98V64.5H76.5V86z M98,10.75C98,4.837,93.162,0,87.25,0H76.5v21.5H98v-9.921h-0.035C97.986,11.305,98,11.029,98,10.75z"/>
	</g>
</g>
<g id="thumbnail_weiss" display="none">
	<g display="inline">
		<path fill="#FFFFFF" d="M23.948,0.069C23.554,0.025,23.155,0,22.75,0C16.837,0,12,4.837,12,10.75c0,0.405,0.025,0.804,0.069,1.198
			H12V21.5h21.5V0h-9.552V0.069z M44.25,21.5h21.5V0h-21.5V21.5z M12,53.246h21.5v-21.5H12V53.246z M44.25,53.246h21.5v-21.5h-21.5
			V53.246z M76.5,53.246H98v-21.5H76.5V53.246z M12,75.25C12,81.162,16.837,86,22.75,86H33.5V64.5H12V75.25z M44.25,86h21.5V64.5
			h-21.5V86z M76.5,86h10.302v-0.011C86.951,85.995,87.1,86,87.25,86C93.162,86,98,81.162,98,75.25c0-0.15-0.005-0.299-0.011-0.448
			H98V64.5H76.5V86z M98,10.75C98,4.837,93.162,0,87.25,0H76.5v21.5H98v-9.921h-0.035C97.986,11.305,98,11.029,98,10.75z"/>
	</g>
</g>
<g id="share_grau" display="none">
	<g id="Ebene_2_1_" display="inline">
		<path id="share-icon_1_" fill="#999999" d="M34.292,60.573c3.085,0,5.981-0.821,8.489-2.261c1.657-0.951,3.697-0.892,5.299,0.151
			l17.934,11.669c1.387,0.902,2.262,2.426,2.358,4.095C68.744,80.725,74.058,86,80.676,86C87.482,86,93,80.393,93,73.476
			c0-8.869-8.798-14.852-16.805-11.668c-1.533,0.609-3.26,0.435-4.645-0.466L56.111,51.294c-2.802-1.823-4.513-4.981-4.526-8.363
			c0-0.001,0-0.001,0-0.003c-0.013-3.279,1.63-6.338,4.346-8.106L71.55,24.659c1.384-0.9,3.115-1.075,4.645-0.466
			C84.211,27.381,93,21.38,93,12.525C93,5.607,87.482,0,80.676,0c-6.611,0-11.931,5.269-12.303,11.772
			c-0.096,1.667-0.974,3.195-2.358,4.096l-17.934,11.67c-1.601,1.042-3.645,1.101-5.299,0.151c-2.508-1.44-5.403-2.261-8.489-2.261
			C24.743,25.428,17,33.296,17,43.001C17,52.706,24.743,60.573,34.292,60.573z"/>
	</g>
</g>
<g id="share_blau" display="none">
	<g id="Ebene_2_2_" display="inline">
		<path id="share-icon_2_" fill="#005293" d="M34.292,60.573c3.085,0,5.981-0.821,8.489-2.261c1.657-0.951,3.697-0.892,5.299,0.151
			l17.934,11.669c1.387,0.902,2.262,2.426,2.358,4.095C68.744,80.725,74.058,86,80.676,86C87.482,86,93,80.393,93,73.476
			c0-8.869-8.798-14.852-16.805-11.668c-1.533,0.609-3.26,0.435-4.645-0.466L56.111,51.294c-2.802-1.823-4.513-4.981-4.526-8.363
			c0-0.001,0-0.001,0-0.003c-0.013-3.279,1.63-6.338,4.346-8.106L71.55,24.659c1.384-0.9,3.115-1.075,4.645-0.466
			C84.211,27.381,93,21.38,93,12.525C93,5.607,87.482,0,80.676,0c-6.611,0-11.931,5.269-12.303,11.772
			c-0.096,1.667-0.974,3.195-2.358,4.096l-17.934,11.67c-1.601,1.042-3.645,1.101-5.299,0.151c-2.508-1.44-5.403-2.261-8.489-2.261
			C24.743,25.428,17,33.296,17,43.001C17,52.706,24.743,60.573,34.292,60.573z"/>
	</g>
</g>
<g id="share_weiss" display="none">
	<g id="Ebene_2_3_" display="inline">
		<path id="share-icon_3_" fill="#FFFFFF" d="M34.292,60.573c3.085,0,5.981-0.821,8.489-2.261c1.657-0.951,3.697-0.892,5.299,0.151
			l17.934,11.669c1.387,0.902,2.262,2.426,2.358,4.095C68.744,80.725,74.058,86,80.676,86C87.482,86,93,80.393,93,73.476
			c0-8.869-8.798-14.852-16.805-11.668c-1.533,0.609-3.26,0.435-4.645-0.466L56.111,51.294c-2.802-1.823-4.513-4.981-4.526-8.363
			c0-0.001,0-0.001,0-0.003c-0.013-3.279,1.63-6.338,4.346-8.106L71.55,24.659c1.384-0.9,3.115-1.075,4.645-0.466
			C84.211,27.381,93,21.38,93,12.525C93,5.607,87.482,0,80.676,0c-6.611,0-11.931,5.269-12.303,11.772
			c-0.096,1.667-0.974,3.195-2.358,4.096l-17.934,11.67c-1.601,1.042-3.645,1.101-5.299,0.151c-2.508-1.44-5.403-2.261-8.489-2.261
			C24.743,25.428,17,33.296,17,43.001C17,52.706,24.743,60.573,34.292,60.573z"/>
	</g>
</g>
<g id="info_grau" display="none">
	<g display="inline">
		<path fill="#999999" d="M38.118,86v-7.873c0-1.339,0.241-1.699,1.678-1.699h7.662V39.124h-7.781c-1.437,0-1.678-0.36-1.678-1.688
			v-7.883c0-1.329,0.241-1.699,1.678-1.699h21.308c1.437,0,1.678,0.37,1.678,1.699v46.876h7.662c1.436,0,1.674,0.36,1.674,1.699V86
			H38.118z"/>
		<path fill="#999999" d="M55.062,19.981c-5.509,0-9.938-4.476-9.938-10.051C45.124,4.356,49.552,0,55.062,0
			c5.386,0,9.814,4.356,9.814,9.931C64.876,15.506,60.447,19.981,55.062,19.981z"/>
	</g>
</g>
<g id="info_blau" display="none">
	<g display="inline">
		<path fill="#005293" d="M38.118,86v-7.873c0-1.339,0.241-1.699,1.678-1.699h7.662V39.124h-7.781c-1.437,0-1.678-0.36-1.678-1.688
			v-7.883c0-1.329,0.241-1.699,1.678-1.699h21.308c1.437,0,1.678,0.37,1.678,1.699v46.876h7.662c1.436,0,1.674,0.36,1.674,1.699V86
			H38.118z"/>
		<path fill="#005293" d="M55.062,19.981c-5.509,0-9.938-4.476-9.938-10.051C45.124,4.356,49.552,0,55.062,0
			c5.386,0,9.814,4.356,9.814,9.931C64.876,15.506,60.447,19.981,55.062,19.981z"/>
	</g>
</g>
<g id="info_weiss" display="none">
	<g display="inline">
		<path fill="#FFFFFF" d="M38.118,86v-7.873c0-1.339,0.241-1.699,1.678-1.699h7.662V39.124h-7.781c-1.437,0-1.678-0.36-1.678-1.688
			v-7.883c0-1.329,0.241-1.699,1.678-1.699h21.308c1.437,0,1.678,0.37,1.678,1.699v46.876h7.662c1.436,0,1.674,0.36,1.674,1.699V86
			H38.118z"/>
		<path fill="#FFFFFF" d="M55.062,19.981c-5.509,0-9.938-4.476-9.938-10.051C45.124,4.356,49.552,0,55.062,0
			c5.386,0,9.814,4.356,9.814,9.931C64.876,15.506,60.447,19.981,55.062,19.981z"/>
	</g>
</g>
<g id="rss_grau" display="none">
	<g display="inline">
		<path fill="#999999" d="M23.518,62.957C17.166,62.957,12,68.153,12,74.494C12,80.856,17.166,86,23.518,86
			c6.373,0,11.534-5.144,11.534-11.506C35.051,68.153,29.891,62.957,23.518,62.957z"/>
		<path fill="#999999" d="M12.751,29.531v15.107c10.751,0.199,20.841,4.493,28.469,12.147c7.628,7.637,11.912,17.757,12.111,28.57
			h15.161C68.077,54.758,43.304,29.94,12.751,29.531z"/>
		<path fill="#999999" d="M12.777,0v15.107c38.459,0.415,69.674,31.704,70.088,70.248H98C97.58,38.475,59.583,0.42,12.777,0z"/>
	</g>
</g>
<g id="rss_blau" display="none">
	<g display="inline">
		<path fill="#005293" d="M23.518,62.957C17.166,62.957,12,68.153,12,74.494C12,80.856,17.166,86,23.518,86
			c6.373,0,11.534-5.144,11.534-11.506C35.051,68.153,29.891,62.957,23.518,62.957z"/>
		<path fill="#005293" d="M12.751,29.531v15.107c10.751,0.199,20.841,4.493,28.469,12.147c7.628,7.637,11.912,17.757,12.111,28.57
			h15.161C68.077,54.758,43.304,29.94,12.751,29.531z"/>
		<path fill="#005293" d="M12.777,0v15.107c38.459,0.415,69.674,31.704,70.088,70.248H98C97.58,38.475,59.583,0.42,12.777,0z"/>
	</g>
</g>
<g id="rss_weiss" display="none">
	<g display="inline">
		<path fill="#FFFFFF" d="M23.518,62.957C17.166,62.957,12,68.153,12,74.494C12,80.856,17.166,86,23.518,86
			c6.373,0,11.534-5.144,11.534-11.506C35.051,68.153,29.891,62.957,23.518,62.957z"/>
		<path fill="#FFFFFF" d="M12.751,29.531v15.107c10.751,0.199,20.841,4.493,28.469,12.147c7.628,7.637,11.912,17.757,12.111,28.57
			h15.161C68.077,54.758,43.304,29.94,12.751,29.531z"/>
		<path fill="#FFFFFF" d="M12.777,0v15.107c38.459,0.415,69.674,31.704,70.088,70.248H98C97.58,38.475,59.583,0.42,12.777,0z"/>
	</g>
</g>
<g id="share_extern_grau" display="none">
	<path id="share-4-icon_1_" display="inline" fill="#999999" d="M25.393,60.943c8.894-39.558,53.19-48.765,53.19-48.765V0
		L105,26.935L78.583,53.87V41.692C78.583,41.692,44.33,40.236,25.393,60.943z M78.798,65.911v9.922H14.954V33.601h13.971
		c2.792-3.672,5.962-7.062,9.461-10.166H5V86h83.752V55.762L78.798,65.911z"/>
</g>
<g id="share_extern_blau" display="none">
	<path id="share-4-icon_2_" display="inline" fill="#005293" d="M25.393,60.943c8.894-39.558,53.19-48.765,53.19-48.765V0
		L105,26.935L78.583,53.87V41.692C78.583,41.692,44.33,40.236,25.393,60.943z M78.798,65.911v9.922H14.954V33.601h13.971
		c2.792-3.672,5.962-7.062,9.461-10.166H5V86h83.752V55.762L78.798,65.911z"/>
</g>
<g id="share_extern_weiss" display="none">
	<path id="share-4-icon_3_" display="inline" fill="#FFFFFF" d="M25.393,60.943c8.894-39.558,53.19-48.765,53.19-48.765V0
		L105,26.935L78.583,53.87V41.692C78.583,41.692,44.33,40.236,25.393,60.943z M78.798,65.911v9.922H14.954V33.601h13.971
		c2.792-3.672,5.962-7.062,9.461-10.166H5V86h83.752V55.762L78.798,65.911z"/>
</g>
<g id="ut_grau" display="none">
	<g display="inline">
		<path fill="#999999" d="M14.633,10v37.384c0,11.178,4.209,16.863,11.669,16.863c7.652,0,11.861-5.398,11.861-16.863V10H52.7
			v36.422C52.7,66.461,42.657,76,25.824,76C9.565,76,0,66.945,0,46.228V10H14.633z"/>
		<path fill="#999999" d="M77.766,22.333H60.456V10H110v12.333H92.401v52.608H77.766V22.333z"/>
	</g>
</g>
<g id="ut_blau" display="none">
	<g display="inline">
		<path fill="#005293" d="M14.633,10v37.384c0,11.178,4.209,16.863,11.669,16.863c7.652,0,11.861-5.398,11.861-16.863V10H52.7
			v36.422C52.7,66.461,42.657,76,25.824,76C9.565,76,0,66.945,0,46.228V10H14.633z"/>
		<path fill="#005293" d="M77.766,22.333H60.456V10H110v12.333H92.401v52.608H77.766V22.333z"/>
	</g>
</g>
<g id="ut_weiss" display="none">
	<g display="inline">
		<path fill="#FFFFFF" d="M14.633,10v37.384c0,11.178,4.209,16.863,11.669,16.863c7.652,0,11.861-5.398,11.861-16.863V10H52.7
			v36.422C52.7,66.461,42.657,76,25.824,76C9.565,76,0,66.945,0,46.228V10H14.633z"/>
		<path fill="#FFFFFF" d="M77.766,22.333H60.456V10H110v12.333H92.401v52.608H77.766V22.333z"/>
	</g>
</g>
<g id="full_screen_grau" display="none">
	<g display="inline">
		<path id="fullscreen-4-icon_4_" fill="#999999" d="M40.981,65.961l-8.943-8.943L20.739,68.318L12,59.59V86h26.411l-8.728-8.74
			L40.981,65.961z M20.74,17.682L12,26.411V0h26.411l-8.728,8.739l11.299,11.299l-8.943,8.943L20.74,17.682z M98,0v26.41
			l-8.739-8.728L77.961,28.982l-8.943-8.943L80.318,8.74L71.589,0L98,0z M89.26,68.318L98,59.589V86H71.59l8.728-8.739l-11.299-11.3
			l8.943-8.942L89.26,68.318z"/>
		<rect x="41.982" y="27.982" fill="#999999" width="28.036" height="28.036"/>
	</g>
</g>
<g id="full_screen_weiss" display="none">
	<g display="inline">
		<path id="fullscreen-4-icon_2_" fill="#FFFFFF" d="M40.981,65.961l-8.943-8.943L20.739,68.318L12,59.59V86h26.411l-8.728-8.74
			L40.981,65.961z M20.74,17.682L12,26.411V0h26.411l-8.728,8.739l11.299,11.299l-8.943,8.943L20.74,17.682z M98,0v26.41
			l-8.739-8.728L77.961,28.982l-8.943-8.943L80.318,8.74L71.589,0L98,0z M89.26,68.318L98,59.589V86H71.59l8.728-8.739l-11.299-11.3
			l8.943-8.942L89.26,68.318z"/>
		<rect x="41.982" y="27.982" fill="#FFFFFF" width="28.036" height="28.036"/>
	</g>
</g>
<g id="full_screen_blau" display="none">
	<g display="inline">
		<path id="fullscreen-4-icon_1_" fill="#005293" d="M40.981,65.961l-8.943-8.943L20.739,68.318L12,59.59V86h26.411l-8.728-8.74
			L40.981,65.961z M20.74,17.682L12,26.411V0h26.411l-8.728,8.739l11.299,11.299l-8.943,8.943L20.74,17.682z M98,0v26.41
			l-8.739-8.728L77.961,28.982l-8.943-8.943L80.318,8.74L71.589,0L98,0z M89.26,68.318L98,59.589V86H71.59l8.728-8.739l-11.299-11.3
			l8.943-8.942L89.26,68.318z"/>
		<rect x="41.982" y="27.982" fill="#005293" width="28.036" height="28.036"/>
	</g>
</g>
<g id="low_screen_blau" display="none">
	<g display="inline">
		<rect x="40.982" y="28.982" fill="#005293" width="28.036" height="28.036"/>
		<polygon fill="#005293" points="30.44,9.681 39,1.133 39,27 13.133,27 21.682,18.44 12,8.758 20.759,0 		"/>
		<polygon fill="#005293" points="21.682,67.56 13.133,59 39,59 39,84.867 30.44,76.318 20.759,86 12,77.241 		"/>
		<polygon fill="#005293" points="79.56,76.318 71,84.867 71,59 96.867,59 88.318,67.56 98,77.241 89.241,86 		"/>
		<polygon fill="#005293" points="88.318,18.44 96.867,27 71,27 71,1.133 79.56,9.682 89.241,0 98,8.759 		"/>
	</g>
</g>
<g id="low_screen_grau" display="none">
	<g display="inline">
		<rect x="40.982" y="28.982" fill="#999999" width="28.036" height="28.036"/>
		<polygon fill="#999999" points="30.44,9.681 39,1.133 39,27 13.133,27 21.682,18.44 12,8.758 20.759,0 		"/>
		<polygon fill="#999999" points="21.682,67.56 13.133,59 39,59 39,84.867 30.44,76.318 20.759,86 12,77.241 		"/>
		<polygon fill="#999999" points="79.56,76.318 71,84.867 71,59 96.867,59 88.318,67.56 98,77.241 89.241,86 		"/>
		<polygon fill="#999999" points="88.318,18.44 96.867,27 71,27 71,1.133 79.56,9.682 89.241,0 98,8.759 		"/>
	</g>
</g>
<g id="low_screen_grau_Kopie" display="none">
	<g display="inline">
		<rect x="40.982" y="28.982" fill="#FFFFFF" width="28.036" height="28.036"/>
		<polygon fill="#FFFFFF" points="30.44,9.681 39,1.133 39,27 13.133,27 21.682,18.44 12,8.758 20.759,0 		"/>
		<polygon fill="#FFFFFF" points="21.682,67.56 13.133,59 39,59 39,84.867 30.44,76.318 20.759,86 12,77.241 		"/>
		<polygon fill="#FFFFFF" points="79.56,76.318 71,84.867 71,59 96.867,59 88.318,67.56 98,77.241 89.241,86 		"/>
		<polygon fill="#FFFFFF" points="88.318,18.44 96.867,27 71,27 71,1.133 79.56,9.682 89.241,0 98,8.759 		"/>
	</g>
</g>
<g id="stern_grau" display="none">
	<polygon id="star-icon" display="inline" fill="#999999" points="55,0 65.151,32.849 98,32.849 71.425,53.151 81.575,86 55,65.698 
		28.425,86 38.575,53.151 12,32.849 44.849,32.849 	"/>
</g>
<g id="stern_blau" display="none">
	<polygon id="star-icon_1_" display="inline" fill="#005293" points="55,0 65.151,32.849 98,32.849 71.425,53.151 81.575,86 
		55,65.698 28.425,86 38.575,53.151 12,32.849 44.849,32.849 	"/>
</g>
<g id="stern_weiss" display="none">
	<polygon id="star-icon_2_" display="inline" fill="#FFFFFF" points="55,0 65.151,32.849 98,32.849 71.425,53.151 81.575,86 
		55,65.698 28.425,86 38.575,53.151 12,32.849 44.849,32.849 	"/>
</g>
<g id="herz_grau" display="none">
	<path id="favorite-2-icon" display="inline" fill="#999999" d="M95.642,13.49C87.194-5.054,61.531-3.62,55,12.536
		C48.469-3.62,22.806-5.054,14.358,13.49C4.4,35.349,27.511,56.172,55,86C82.489,56.172,105.6,35.349,95.642,13.49z"/>
</g>
<g id="herz_blau" display="none">
	<path id="favorite-2-icon_1_" display="inline" fill="#005293" d="M95.642,13.49C87.194-5.054,61.531-3.62,55,12.536
		C48.469-3.62,22.806-5.054,14.358,13.49C4.4,35.349,27.511,56.172,55,86C82.489,56.172,105.6,35.349,95.642,13.49z"/>
</g>
<g id="herz_weiss" display="none">
	<path id="favorite-2-icon_2_" display="inline" fill="#FFFFFF" d="M95.642,13.49C87.194-5.054,61.531-3.62,55,12.536
		C48.469-3.62,22.806-5.054,14.358,13.49C4.4,35.349,27.511,56.172,55,86C82.489,56.172,105.6,35.349,95.642,13.49z"/>
</g>
<g id="pin1_grau" display="none">
	<path id="location-icon" display="inline" fill="#999999" d="M55,0C40.089,0,28,12.196,28,27.24S39.817,59.769,55,86
		c15.184-26.231,27-43.715,27-58.76S69.912,0,55,0z M55,36.348c-5.348,0-9.683-4.374-9.683-9.769S49.652,16.81,55,16.81
		s9.683,4.374,9.683,9.769S60.348,36.348,55,36.348z"/>
</g>
<g id="pin1_blau" display="none">
	<path id="location-icon_1_" display="inline" fill="#005293" d="M55,0C40.089,0,28,12.196,28,27.24S39.817,59.769,55,86
		c15.184-26.231,27-43.715,27-58.76S69.912,0,55,0z M55,36.348c-5.348,0-9.683-4.374-9.683-9.769S49.652,16.81,55,16.81
		s9.683,4.374,9.683,9.769S60.348,36.348,55,36.348z"/>
</g>
<g id="pin1_weiss" display="none">
	<path id="location-icon_2_" display="inline" fill="#FFFFFF" d="M55,0C40.089,0,28,12.196,28,27.24S39.817,59.769,55,86
		c15.184-26.231,27-43.715,27-58.76S69.912,0,55,0z M55,36.348c-5.348,0-9.683-4.374-9.683-9.769S49.652,16.81,55,16.81
		s9.683,4.374,9.683,9.769S60.348,36.348,55,36.348z"/>
</g>
<g id="pin2_grau" display="none">
	<path id="pin-6-icon" display="inline" fill="#999999" d="M59.186,47.463v30.118L50.814,86V47.463
		c1.372,0.222,2.77,0.338,4.186,0.338C56.416,47.801,57.814,47.686,59.186,47.463z M76,21.291c0,11.759-9.402,21.291-21,21.291
		c-11.598,0-21-9.532-21-21.291S43.402,0,55,0C66.598,0,76,9.532,76,21.291z M52.642,8.822c-1.855-1.655-4.915-1.127-6.835,1.181
		c-1.92,2.308-1.972,5.52-0.117,7.175s4.915,1.127,6.835-1.181C54.445,13.689,54.497,10.477,52.642,8.822z"/>
</g>
<g id="pin2_blau" display="none">
	<path id="pin-6-icon_1_" display="inline" fill="#005293" d="M59.186,47.463v30.118L50.814,86V47.463
		c1.372,0.222,2.77,0.338,4.186,0.338C56.416,47.801,57.814,47.686,59.186,47.463z M76,21.291c0,11.759-9.402,21.291-21,21.291
		c-11.598,0-21-9.532-21-21.291S43.402,0,55,0C66.598,0,76,9.532,76,21.291z M52.642,8.822c-1.855-1.655-4.915-1.127-6.835,1.181
		c-1.92,2.308-1.972,5.52-0.117,7.175s4.915,1.127,6.835-1.181C54.445,13.689,54.497,10.477,52.642,8.822z"/>
</g>
<g id="pin2_weiss" display="none">
	<path id="pin-6-icon_2_" display="inline" fill="#FFFFFF" d="M59.186,47.463v30.118L50.814,86V47.463
		c1.372,0.222,2.77,0.338,4.186,0.338C56.416,47.801,57.814,47.686,59.186,47.463z M76,21.291c0,11.759-9.402,21.291-21,21.291
		c-11.598,0-21-9.532-21-21.291S43.402,0,55,0C66.598,0,76,9.532,76,21.291z M52.642,8.822c-1.855-1.655-4.915-1.127-6.835,1.181
		c-1.92,2.308-1.972,5.52-0.117,7.175s4.915,1.127,6.835-1.181C54.445,13.689,54.497,10.477,52.642,8.822z"/>
</g>
<g id="pin3_grau" display="none">
	<path id="pin-icon" display="inline" fill="#999999" d="M59.23,58.029v19.552L50.769,86V58.029H59.23z M32,52.811h46
		c0-19.129-12.045-20.062-12.045-33.533c0-10.319,6.437-12.492,6.719-19.277H37.326c0.285,6.848,6.719,8.876,6.719,19.277v0.002
		C44.045,32.79,32,33.62,32,52.811z M49.272,10.475h5.076v19.058h-5.076V10.475z"/>
</g>
<g id="pin3_blau" display="none">
	<path id="pin-icon_1_" display="inline" fill="#005293" d="M59.23,58.029v19.552L50.769,86V58.029H59.23z M32,52.811h46
		c0-19.129-12.045-20.062-12.045-33.533c0-10.319,6.437-12.492,6.719-19.277H37.326c0.285,6.848,6.719,8.876,6.719,19.277v0.002
		C44.045,32.79,32,33.62,32,52.811z M49.272,10.475h5.076v19.058h-5.076V10.475z"/>
</g>
<g id="pin3_weiss" display="none">
	<path id="pin-icon_2_" display="inline" fill="#FFFFFF" d="M59.23,58.029v19.552L50.769,86V58.029H59.23z M32,52.811h46
		c0-19.129-12.045-20.062-12.045-33.533c0-10.319,6.437-12.492,6.719-19.277H37.326c0.285,6.848,6.719,8.876,6.719,19.277v0.002
		C44.045,32.79,32,33.62,32,52.811z M49.272,10.475h5.076v19.058h-5.076V10.475z"/>
</g>
<g id="reload1_grau" display="none">
	<path id="refresh-3-icon" display="inline" fill="#999999" d="M86.297,12.816l-9.946,9.913c-5.4-5.382-12.859-8.71-21.098-8.71
		c-16.478,0-29.837,13.32-29.837,29.744c0,0.004,0-0.004,0,0h11.591L18.494,62.209L0,43.764h11.351c0-0.002,0,0.002,0,0
		C11.351,19.597,31.007,0,55.254,0C67.377,0,78.353,4.898,86.297,12.816z M110,42.236L91.506,23.791L72.992,42.236h11.591
		c0,0.004,0-0.005,0,0c0,16.424-13.358,29.744-29.837,29.744c-8.239,0-15.698-3.328-21.098-8.71l-9.946,9.913
		C31.648,81.102,42.623,86,54.746,86c24.246,0,43.903-19.597,43.903-43.764c0-0.002,0,0.002,0,0L110,42.236L110,42.236z"/>
</g>
<g id="reload1_blau" display="none">
	<path id="refresh-3-icon_1_" display="inline" fill="#005293" d="M86.297,12.816l-9.946,9.913c-5.4-5.382-12.859-8.71-21.098-8.71
		c-16.478,0-29.837,13.32-29.837,29.744c0,0.004,0-0.004,0,0h11.591L18.494,62.209L0,43.764h11.351c0-0.002,0,0.002,0,0
		C11.351,19.597,31.007,0,55.254,0C67.377,0,78.353,4.898,86.297,12.816z M110,42.236L91.506,23.791L72.992,42.236h11.591
		c0,0.004,0-0.005,0,0c0,16.424-13.358,29.744-29.837,29.744c-8.239,0-15.698-3.328-21.098-8.71l-9.946,9.913
		C31.648,81.102,42.623,86,54.746,86c24.246,0,43.903-19.597,43.903-43.764c0-0.002,0,0.002,0,0L110,42.236L110,42.236z"/>
</g>
<g id="reload1_weiss" display="none">
	<path id="refresh-3-icon_2_" display="inline" fill="#FFFFFF" d="M86.297,12.816l-9.946,9.913c-5.4-5.382-12.859-8.71-21.098-8.71
		c-16.478,0-29.837,13.32-29.837,29.744c0,0.004,0-0.004,0,0h11.591L18.494,62.209L0,43.764h11.351c0-0.002,0,0.002,0,0
		C11.351,19.597,31.007,0,55.254,0C67.377,0,78.353,4.898,86.297,12.816z M110,42.236L91.506,23.791L72.992,42.236h11.591
		c0,0.004,0-0.005,0,0c0,16.424-13.358,29.744-29.837,29.744c-8.239,0-15.698-3.328-21.098-8.71l-9.946,9.913
		C31.648,81.102,42.623,86,54.746,86c24.246,0,43.903-19.597,43.903-43.764c0-0.002,0,0.002,0,0L110,42.236L110,42.236z"/>
</g>
<g id="reload2_grau" display="none">
	<path id="refresh-2-icon" display="inline" fill="#999999" d="M38.164,6.461c-12.302,7.726-19.347,20.755-20.032,34.364H7
		l17.849,18.166l17.938-18.166H31.76c0.653-9.012,5.409-17.531,13.573-22.658c13.543-8.505,31.33-4.281,39.727,9.434
		c8.398,13.715,4.227,31.727-9.315,40.231c-12.394,7.783-28.34,4.904-37.394-6.151l-9.562,9.868
		c13.458,15.386,36.291,19.189,54.124,7.99c19.927-12.514,26.064-39.017,13.707-59.198C84.263,0.162,58.091-6.053,38.164,6.461z"/>
</g>
<g id="reload2_blau" display="none">
	<path id="refresh-2-icon_1_" display="inline" fill="#005293" d="M38.164,6.461c-12.302,7.726-19.347,20.755-20.032,34.364H7
		l17.849,18.166l17.938-18.166H31.76c0.653-9.012,5.409-17.531,13.573-22.658c13.543-8.505,31.33-4.281,39.727,9.434
		c8.398,13.715,4.227,31.727-9.315,40.231c-12.394,7.783-28.34,4.904-37.394-6.151l-9.562,9.868
		c13.458,15.386,36.291,19.189,54.124,7.99c19.927-12.514,26.064-39.017,13.707-59.198C84.263,0.162,58.091-6.053,38.164,6.461z"/>
</g>
<g id="reload2_weiss" display="none">
	<path id="refresh-2-icon_2_" display="inline" fill="#FFFFFF" d="M38.164,6.461c-12.302,7.726-19.347,20.755-20.032,34.364H7
		l17.849,18.166l17.938-18.166H31.76c0.653-9.012,5.409-17.531,13.573-22.658c13.543-8.505,31.33-4.281,39.727,9.434
		c8.398,13.715,4.227,31.727-9.315,40.231c-12.394,7.783-28.34,4.904-37.394-6.151l-9.562,9.868
		c13.458,15.386,36.291,19.189,54.124,7.99c19.927-12.514,26.064-39.017,13.707-59.198C84.263,0.162,58.091-6.053,38.164,6.461z"/>
</g>
<g id="headphone_grau" display="none">
	<path id="headphones-3-icon" display="inline" fill="#999999" d="M13.496,44.952C14.411,21.053,31.167,0,55,0
		s40.589,21.053,41.504,44.952h-9.267C86.213,25.406,72.668,7.793,54.821,7.829C36.974,7.793,23.79,25.406,22.766,44.952H13.496z
		 M103,59.969c0-4.475-3.651-8.104-8.155-8.104H83.56V86h11.284c4.504,0,8.155-3.628,8.155-8.104V59.969z M7,59.969
		c0-4.475,3.651-8.104,8.155-8.104H26.44V86H15.155C10.651,86,7,82.372,7,77.896V59.969z"/>
</g>
<g id="headphone_blau" display="none">
	<path id="headphones-3-icon_1_" display="inline" fill="#005293" d="M13.496,44.952C14.411,21.053,31.167,0,55,0
		s40.589,21.053,41.504,44.952h-9.267C86.213,25.406,72.668,7.793,54.821,7.829C36.974,7.793,23.79,25.406,22.766,44.952H13.496z
		 M103,59.969c0-4.475-3.651-8.104-8.155-8.104H83.56V86h11.284c4.504,0,8.155-3.628,8.155-8.104V59.969z M7,59.969
		c0-4.475,3.651-8.104,8.155-8.104H26.44V86H15.155C10.651,86,7,82.372,7,77.896V59.969z"/>
</g>
<g id="headphone_weiss" display="none">
	<path id="headphones-3-icon_2_" display="inline" fill="#FFFFFF" d="M13.496,44.952C14.411,21.053,31.167,0,55,0
		s40.589,21.053,41.504,44.952h-9.267C86.213,25.406,72.668,7.793,54.821,7.829C36.974,7.793,23.79,25.406,22.766,44.952H13.496z
		 M103,59.969c0-4.475-3.651-8.104-8.155-8.104H83.56V86h11.284c4.504,0,8.155-3.628,8.155-8.104V59.969z M7,59.969
		c0-4.475,3.651-8.104,8.155-8.104H26.44V86H15.155C10.651,86,7,82.372,7,77.896V59.969z"/>
</g>
<g id="close_blau" display="none">
	<path display="inline" fill="#005293" d="M95.751,73.123v-0.002c-2.189-2.759-15.595-15.944-30.186-30.233
		C79.502,28.66,92.338,15.619,95.402,13.1C102.19,6.57,94.69-5.664,84.263,2.991c-4.802,4.036-16.811,16.215-29.517,29.305
		C40.573,18.412,27.611,5.651,25.1,2.598C18.57-4.19,6.336,3.31,14.991,13.737c4.028,4.792,16.165,16.762,29.224,29.439
		C30.474,57.403,18.036,70.343,15.35,72.606c-8.352,7.038,0.458,18.197,9.526,11.145h0.002c2.754-2.185,15.895-15.546,30.154-30.105
		C69.316,67.442,82.335,79.955,84.606,82.65C91.644,91.001,102.803,82.191,95.751,73.123z"/>
</g>
<g id="close_grau" display="none">
	<path display="inline" fill="#999999" d="M95.751,73.123v-0.002c-2.189-2.759-15.595-15.944-30.186-30.233
		C79.502,28.66,92.338,15.619,95.402,13.1C102.19,6.57,94.69-5.664,84.263,2.991c-4.802,4.036-16.811,16.215-29.517,29.305
		C40.573,18.412,27.611,5.651,25.1,2.598C18.57-4.19,6.336,3.31,14.991,13.737c4.028,4.792,16.165,16.762,29.224,29.439
		C30.474,57.403,18.036,70.343,15.35,72.606c-8.352,7.038,0.458,18.197,9.526,11.145h0.002c2.754-2.185,15.895-15.546,30.154-30.105
		C69.316,67.442,82.335,79.955,84.606,82.65C91.644,91.001,102.803,82.191,95.751,73.123z"/>
</g>
<g id="close_weiss" display="none">
	<path display="inline" fill="#FFFFFF" d="M95.751,73.123v-0.002c-2.189-2.759-15.595-15.944-30.186-30.233
		C79.502,28.66,92.338,15.619,95.402,13.1C102.19,6.57,94.69-5.664,84.263,2.991c-4.802,4.036-16.811,16.215-29.517,29.305
		C40.573,18.412,27.611,5.651,25.1,2.598C18.57-4.19,6.336,3.31,14.991,13.737c4.028,4.792,16.165,16.762,29.224,29.439
		C30.474,57.403,18.036,70.343,15.35,72.606c-8.352,7.038,0.458,18.197,9.526,11.145h0.002c2.754-2.185,15.895-15.546,30.154-30.105
		C69.316,67.442,82.335,79.955,84.606,82.65C91.644,91.001,102.803,82.191,95.751,73.123z"/>
</g>
<g id="play_grau" display="none">
	<polygon id="arrow-37-icon" display="inline" fill="#999999" points="86,43 24,86 24,0 	"/>
</g>
<g id="play_blau" display="none">
	<polygon id="arrow-37-icon_1_" display="inline" fill="#005293" points="86.579,43 24.579,86 24.579,0 	"/>
</g>
<g id="play_weiss" display="none">
	<polygon id="arrow-37-icon_2_" display="inline" fill="#FFFFFF" points="86.579,43 24.579,86 24.579,0 	"/>
</g>
<g id="pause_grau" display="none">
	<path id="pause-icon" display="inline" fill="#999999" d="M47.012,86H22V0h25.012V86z M88,0H62.988v86H88V0z"/>
</g>
<g id="pause_blau" display="none">
	<path id="pause-icon_1_" display="inline" fill="#005293" d="M47.012,86H22V0h25.012V86z M88,0H62.988v86H88V0z"/>
</g>
<g id="pause_weiss" display="none">
	<path id="pause-icon_2_" display="inline" fill="#FFFFFF" d="M47.012,86H22V0h25.012V86z M88,0H62.988v86H88V0z"/>
</g>
<g id="stop_grau" display="none">
	<rect id="stop-icon" x="15" display="inline" fill="#999999" width="80" height="86"/>
</g>
<g id="stop_blau" display="none">
	<rect id="stop-icon_1_" x="15" display="inline" fill="#005293" width="80" height="86"/>
</g>
<g id="stop_weiss" display="none">
	<rect id="stop-icon_2_" x="15" display="inline" fill="#FFFFFF" width="80" height="86"/>
</g>
<g id="einstellungen_blau" display="none">
	<path display="inline" fill="#005293" d="M98,37.209l-6.258-2.226c-2.386-0.849-4.306-2.671-5.276-5.01
		c0-0.001-0.001-0.002-0.001-0.003c-0.973-2.345-0.904-4.993,0.186-7.286l2.85-5.996l-8.19-8.19l-5.995,2.85
		c-2.292,1.089-4.943,1.158-7.287,0.186c-0.001,0-0.002-0.001-0.003-0.001c-2.341-0.971-4.161-2.888-5.01-5.275L60.791,0H49.209
		l-2.226,6.258c-0.849,2.386-2.671,4.306-5.01,5.276c-0.001,0-0.002,0.001-0.003,0.001c-2.345,0.973-4.993,0.904-7.286-0.186
		l-5.996-2.85l-8.19,8.19l2.85,5.995c1.089,2.292,1.157,4.943,0.186,7.287c0,0.001-0.001,0.002-0.001,0.003
		c-0.97,2.341-2.888,4.16-5.275,5.009L12,37.209v11.582l6.258,2.225c2.386,0.849,4.306,2.671,5.276,5.01
		c0,0.001,0.001,0.002,0.001,0.003c0.973,2.345,0.905,4.993-0.185,7.286l-2.85,5.996l8.19,8.19l5.995-2.85
		c2.292-1.089,4.943-1.158,7.287-0.186c0.001,0,0.002,0.001,0.003,0.001c2.341,0.97,4.16,2.887,5.009,5.275L49.209,86h11.582
		l2.212-6.218c0.856-2.408,2.694-4.347,5.055-5.328c0.001,0,0.002-0.001,0.003-0.001c2.323-0.966,4.946-0.9,7.218,0.18l6.033,2.868
		l8.19-8.19l-2.851-5.998c-1.088-2.29-1.156-4.939-0.185-7.28c0-0.001,0.001-0.002,0.001-0.003c0.971-2.343,2.891-4.164,5.28-5.014
		L98,48.791V37.209z M55,62.944c-11.015,0-19.945-8.929-19.945-19.944S43.985,23.056,55,23.056c11.015,0,19.944,8.929,19.944,19.944
		S66.015,62.944,55,62.944z"/>
</g>
<g id="einstellungen_grau" display="none">
	<path display="inline" fill="#999999" d="M98,37.209l-6.258-2.226c-2.386-0.849-4.306-2.671-5.276-5.01
		c0-0.001-0.001-0.002-0.001-0.003c-0.973-2.345-0.904-4.993,0.186-7.286l2.85-5.996l-8.19-8.19l-5.995,2.85
		c-2.292,1.089-4.943,1.158-7.287,0.186c-0.001,0-0.002-0.001-0.003-0.001c-2.341-0.971-4.161-2.888-5.01-5.275L60.791,0H49.209
		l-2.226,6.258c-0.849,2.386-2.671,4.306-5.01,5.276c-0.001,0-0.002,0.001-0.003,0.001c-2.345,0.973-4.993,0.904-7.286-0.186
		l-5.996-2.85l-8.19,8.19l2.85,5.995c1.089,2.292,1.157,4.943,0.186,7.287c0,0.001-0.001,0.002-0.001,0.003
		c-0.97,2.341-2.888,4.16-5.275,5.009L12,37.209v11.582l6.258,2.225c2.386,0.849,4.306,2.671,5.276,5.01
		c0,0.001,0.001,0.002,0.001,0.003c0.973,2.345,0.905,4.993-0.185,7.286l-2.85,5.996l8.19,8.19l5.995-2.85
		c2.292-1.089,4.943-1.158,7.287-0.186c0.001,0,0.002,0.001,0.003,0.001c2.341,0.97,4.16,2.887,5.009,5.275L49.209,86h11.582
		l2.212-6.218c0.856-2.408,2.694-4.347,5.055-5.328c0.001,0,0.002-0.001,0.003-0.001c2.323-0.966,4.946-0.9,7.218,0.18l6.033,2.868
		l8.19-8.19l-2.851-5.998c-1.088-2.29-1.156-4.939-0.185-7.28c0-0.001,0.001-0.002,0.001-0.003c0.971-2.343,2.891-4.164,5.28-5.014
		L98,48.791V37.209z M55,62.944c-11.015,0-19.945-8.929-19.945-19.944S43.985,23.056,55,23.056c11.015,0,19.944,8.929,19.944,19.944
		S66.015,62.944,55,62.944z"/>
</g>
<g id="einstellungen_weiss" display="none">
	<path display="inline" fill="#FFFFFF" d="M98,37.209l-6.258-2.226c-2.386-0.849-4.306-2.671-5.276-5.01
		c0-0.001-0.001-0.002-0.001-0.003c-0.973-2.345-0.904-4.993,0.186-7.286l2.85-5.996l-8.19-8.19l-5.995,2.85
		c-2.292,1.089-4.943,1.158-7.287,0.186c-0.001,0-0.002-0.001-0.003-0.001c-2.341-0.971-4.161-2.888-5.01-5.275L60.791,0H49.209
		l-2.226,6.258c-0.849,2.386-2.671,4.306-5.01,5.276c-0.001,0-0.002,0.001-0.003,0.001c-2.345,0.973-4.993,0.904-7.286-0.186
		l-5.996-2.85l-8.19,8.19l2.85,5.995c1.089,2.292,1.157,4.943,0.186,7.287c0,0.001-0.001,0.002-0.001,0.003
		c-0.97,2.341-2.888,4.16-5.275,5.009L12,37.209v11.582l6.258,2.225c2.386,0.849,4.306,2.671,5.276,5.01
		c0,0.001,0.001,0.002,0.001,0.003c0.973,2.345,0.905,4.993-0.185,7.286l-2.85,5.996l8.19,8.19l5.995-2.85
		c2.292-1.089,4.943-1.158,7.287-0.186c0.001,0,0.002,0.001,0.003,0.001c2.341,0.97,4.16,2.887,5.009,5.275L49.209,86h11.582
		l2.212-6.218c0.856-2.408,2.694-4.347,5.055-5.328c0.001,0,0.002-0.001,0.003-0.001c2.323-0.966,4.946-0.9,7.218,0.18l6.033,2.868
		l8.19-8.19l-2.851-5.998c-1.088-2.29-1.156-4.939-0.185-7.28c0-0.001,0.001-0.002,0.001-0.003c0.971-2.343,2.891-4.164,5.28-5.014
		L98,48.791V37.209z M55,62.944c-11.015,0-19.945-8.929-19.945-19.944S43.985,23.056,55,23.056c11.015,0,19.944,8.929,19.944,19.944
		S66.015,62.944,55,62.944z"/>
</g>
<g id="plane_grau" display="none">
	<path id="paper-plane-icon" display="inline" fill="#999999" d="M99,0L76.225,81.753L47.193,54.196l28.608-30.231L37.455,50.502
		L11,44.064L99,0z M43.678,59.368V86l12.546-14.528L43.678,59.368z"/>
</g>
<g id="plane_blau" display="none">
	<path id="paper-plane-icon_1_" display="inline" fill="#005293" d="M99,0L76.225,81.753L47.193,54.196l28.608-30.231L37.455,50.502
		L11,44.064L99,0z M43.678,59.368V86l12.546-14.528L43.678,59.368z"/>
</g>
<g id="plane_weiss" display="none">
	<path id="paper-plane-icon_2_" display="inline" fill="#FFFFFF" d="M99,0L76.225,81.753L47.193,54.196l28.608-30.231L37.455,50.502
		L11,44.064L99,0z M43.678,59.368V86l12.546-14.528L43.678,59.368z"/>
</g>
<g id="lupe_empty_weiss" display="none">
	<g display="inline">
		<path fill="#FFFFFF" d="M93.882,86c-1.367,0-2.652-0.538-3.619-1.516L65.237,59.166c-5.938,5.012-13.386,7.751-21.166,7.751
			C25.836,66.917,11,51.907,11,33.458S25.836,0,44.072,0s33.071,15.009,33.071,33.458c0,6.398-1.77,12.557-5.135,17.912
			l25.493,25.791C98.468,78.139,99,79.439,99,80.822s-0.532,2.683-1.499,3.661C96.534,85.462,95.249,86,93.882,86z M44.072,10.356
			c-12.592,0-22.836,10.364-22.836,23.103c0,12.739,10.244,23.103,22.836,23.103s22.836-10.364,22.836-23.103
			C66.907,20.719,56.663,10.356,44.072,10.356z"/>
	</g>
</g>
<g id="lupe_empty_grau" display="none">
	<g display="inline">
		<path fill="#999999" d="M93.882,86c-1.367,0-2.652-0.538-3.619-1.516L65.237,59.166c-5.938,5.012-13.386,7.751-21.166,7.751
			C25.836,66.917,11,51.907,11,33.458S25.836,0,44.072,0s33.071,15.009,33.071,33.458c0,6.398-1.77,12.557-5.135,17.912
			l25.493,25.791C98.468,78.139,99,79.439,99,80.822s-0.532,2.683-1.499,3.661C96.534,85.462,95.249,86,93.882,86z M44.072,10.356
			c-12.592,0-22.836,10.364-22.836,23.103c0,12.739,10.244,23.103,22.836,23.103s22.836-10.364,22.836-23.103
			C66.907,20.719,56.663,10.356,44.072,10.356z"/>
	</g>
</g>
<g id="burger_neu" display="none">
	<path display="inline" fill="#005293" d="M7.743,15.114h94.513c4.348,0,7.876-2.687,7.876-5.997s-3.528-5.997-7.876-5.997H7.743
		c-4.348,0-7.876,2.687-7.876,5.997S3.396,15.114,7.743,15.114z M102.257,37.029H7.743c-4.348,0-7.876,2.687-7.876,5.997
		c0,3.31,3.528,5.997,7.876,5.997h94.513c4.348,0,7.876-2.687,7.876-5.997C110.133,39.716,106.604,37.029,102.257,37.029z
		 M102.257,70.886H7.743c-4.348,0-7.876,2.687-7.876,5.997s3.528,5.997,7.876,5.997h94.513c4.348,0,7.876-2.687,7.876-5.997
		S106.604,70.886,102.257,70.886z"/>
</g>
<g id="burger_neu_weiss">
	<path fill="#FFFFFF" d="M7.857,15.181h94.286c4.337,0,7.857-2.68,7.857-5.983s-3.52-5.983-7.857-5.983H7.857
		C3.52,3.216,0,5.896,0,9.198S3.52,15.181,7.857,15.181z M102.143,37.044H7.857C3.52,37.044,0,39.724,0,43.026
		s3.52,5.983,7.857,5.983h94.286c4.337,0,7.857-2.68,7.857-5.983S106.48,37.044,102.143,37.044z M102.143,70.819H7.857
		C3.52,70.819,0,73.499,0,76.802c0,3.302,3.52,5.983,7.857,5.983h94.286c4.337,0,7.857-2.68,7.857-5.983
		C110,73.499,106.48,70.819,102.143,70.819z"/>
</g>
<g id="tv" display="none">
	<g display="inline">
		<path fill="#005293" d="M109,10.385C109,4.649,104.351,0,98.615,0h-87.23C5.649,0,1,4.649,1,10.385v52.23
			C1,68.351,5.649,73,11.385,73h87.23C104.351,73,109,68.351,109,62.615V10.385z M102,66H8V7h94V66z"/>
		<polygon fill="#005293" points="43.08,52.239 43.08,18.853 70.307,35.547 		"/>
		<rect x="29" y="80" fill="#005293" width="52" height="6"/>
	</g>
</g>
<g id="add" display="none">
	<g display="inline">
		<path fill="#005293" d="M73.658,81.058C66.95,84.64,60.122,86,51.951,86C31.95,86,15,71.174,15,47.45C15,21.994,32.439,0,59.512,0
			C80.731,0,95,15.074,95,35.71c0,18.535-10.245,29.407-21.707,29.407c-4.879,0-9.39-3.335-9.025-10.872H63.78
			c-4.268,7.289-9.878,10.872-17.195,10.872c-7.074,0-13.171-5.808-13.171-15.567c0-15.322,11.951-29.285,28.903-29.285
			c5.244,0,9.878,1.11,13.049,2.594L71.22,45.225c-1.829,9.39-0.367,13.716,3.657,13.838c6.22,0.125,13.171-8.277,13.171-22.612
			c0-17.917-10.609-30.767-29.512-30.767c-19.878,0-36.586,15.938-36.586,41.022c0,20.636,13.293,33.364,31.341,33.364
			c6.952,0,13.415-1.484,18.415-4.326L73.658,81.058z M66.95,27.677c-1.219-0.369-3.292-0.863-6.097-0.863
			c-10.731,0-19.39,10.256-19.39,22.24c0,5.438,2.684,9.392,8.049,9.392c7.074,0,13.537-9.145,14.879-16.804L66.95,27.677z"/>
	</g>
</g>
<g id="youtube" display="none">
	<path id="youtube-new-icon" display="inline" fill="#005293" d="M109.036,23.07c-1.729-14.471-7.555-16.465-19.148-17.241
		c-16.483-1.104-53.281-1.105-69.775,0C8.519,6.605,2.694,8.599,0.965,23.07c-1.284,10.743-1.288,29.08,0,39.86
		c1.729,14.471,7.555,16.465,19.148,17.242c16.494,1.105,53.292,1.104,69.775,0c11.593-0.777,17.419-2.771,19.148-17.242
		C110.319,52.187,110.324,33.85,109.036,23.07z M44.046,58.122V27.911l29.424,15.106L44.046,58.122z"/>
</g>
</svg>
