<svg xmlns="http://www.w3.org/2000/svg" xml:space="preserve" width="110" height="86" viewBox="0 0 110 86">
  <path fill="#FFF" d="M7.857 15.181h94.286c4.337 0 7.857-2.68 7.857-5.983s-3.52-5.983-7.857-5.983H7.857C3.52 3.216 0 5.896 0 9.198s3.52 5.983 7.857 5.983zm94.286 21.863H7.857C3.52 37.044 0 39.724 0 43.026s3.52 5.983 7.857 5.983h94.286c4.337 0 7.857-2.68 7.857-5.983s-3.52-5.982-7.857-5.982zm0 33.775H7.857C3.52 70.819 0 73.499 0 76.802c0 3.302 3.52 5.983 7.857 5.983h94.286c4.337 0 7.857-2.68 7.857-5.983 0-3.303-3.52-5.983-7.857-5.983z"/>
</svg>
