<?xml version="1.0" encoding="utf-8"?>
<!-- Generator: Adobe Illustrator 19.2.0, SVG Export Plug-In . SVG Version: 6.00 Build 0)  -->
<svg version="1.1" id="Ebene_1" xmlns="http://www.w3.org/2000/svg" xmlns:xlink="http://www.w3.org/1999/xlink" x="0px" y="0px"
	 width="50px" height="36px" viewBox="0 0 50 36" enable-background="new 0 0 50 36" xml:space="preserve">
<g id="Ebene_2">
</g>
<path fill="#FFFFFF" d="M37.209,8.822v22.401H12.771V8.822h3.055v1.018c0,1.123,0.913,2.036,2.036,2.036
	c1.123,0,2.036-0.913,2.036-2.036V8.822h10.182v1.018c0,1.123,0.913,2.036,2.036,2.036s2.036-0.913,2.036-2.036V8.822H37.209z
	 M35.172,14.932H14.808v14.255h20.365V14.932z M33.136,7.804c0-0.562-0.455-1.018-1.018-1.018s-1.018,0.456-1.018,1.018v2.036
	c0,0.562,0.455,1.018,1.018,1.018s1.018-0.456,1.018-1.018V7.804z M18.881,9.841c0,0.562-0.455,1.018-1.018,1.018
	c-0.563,0-1.018-0.456-1.018-1.018V7.804c0-0.562,0.455-1.018,1.018-1.018c0.563,0,1.018,0.456,1.018,1.018V9.841z M25.69,23.569
	c0-0.817-0.426-1.455-1.129-1.726c0.538-0.269,0.851-0.822,0.851-1.53c0-1.371-1.336-2.188-2.628-2.188
	c-1.504,0-2.638,0.942-2.707,2.813h1.675c-0.014-0.775,0.276-1.339,1.044-1.339c0.457,0,0.95,0.277,0.95,0.885
	c0,0.768-0.831,0.878-1.596,0.812v1.303c1.086,0,1.735,0.068,1.735,1.003c0,0.737-0.558,1.067-1.111,1.067
	c-0.837,0-1.18-0.625-1.21-1.478H19.9c-0.033,1.927,1.134,2.943,2.894,2.943C24.365,26.132,25.69,25.172,25.69,23.569z
	 M30.081,26.132v-7.859h-1.417c-0.176,1.175-1.013,1.518-2.211,1.486v1.371h1.886v5.003H30.081z"/>
</svg>
