<?xml version="1.0" encoding="UTF-8"?>
<svg version="1.1" id="calendar-ds" xmlns="http://www.w3.org/2000/svg" xmlns:xlink="http://www.w3.org/1999/xlink" x="0px" y="0px"
	 viewBox="0 0 320 320" style="enable-background:new 0 0 320 320;" xml:space="preserve">
  <rect x="79" y="163" width="26" height="26" rx="8" ry="8"/>
  <rect x="79" y="209" width="26" height="26" rx="8" ry="8"/>
  <rect x="124.5" y="163" width="26" height="26" rx="8" ry="8"/>
  <rect x="124.5" y="209" width="26" height="26" rx="8" ry="8"/>
  <rect x="170" y="163" width="26" height="26" rx="8" ry="8"/>
  <rect x="170" y="209" width="26" height="26" rx="8" ry="8"/>
  <rect x="216" y="163" width="26" height="26" rx="8" ry="8"/>
  <rect x="216" y="209" width="26" height="26" rx="8" ry="8"/>
  <path d="m83,76c6.08,0,11-4.92,11-11v-22c0-6.08-4.92-11-11-11s-11,4.92-11,11v22c0,6.08,4.92,11,11,11Z"/>
  <path d="m237,76c6.08,0,11-4.92,11-11v-22c0-6.08-4.92-11-11-11s-11,4.92-11,11v22c0,6.08,4.92,11,11,11Z"/>
  <path d="m270,54h-11v11c0,12.13-9.87,22-22,22s-22-9.87-22-22v-11h-110v11c0,12.13-9.87,22-22,22s-22-9.87-22-22v-11h-11c-12.13,0-22,9.87-22,22v198c0,12.13,9.87,22,22,22h220c12.13,0,22-9.87,22-22V76c0-12.13-9.87-22-22-22Zm2,66v150c0,3.31-2.69,6-6,6H54c-3.31,0-6-2.69-6-6V120h224Z"/>
</svg>