<?xml version="1.0" encoding="utf-8"?>
<!-- Generator: Adobe Illustrator 19.2.0, SVG Export Plug-In . SVG Version: 6.00 Build 0)  -->
<svg version="1.1" id="Ebene_1" xmlns="http://www.w3.org/2000/svg" xmlns:xlink="http://www.w3.org/1999/xlink" x="0px" y="0px"
	 width="14px" height="14px" viewBox="0 0 14 14" enable-background="new 0 0 14 14" xml:space="preserve">
<path fill="#196CB3" d="M14,1.167V14H0V1.167h1.75V1.75c0,0.643,0.523,1.167,1.167,1.167S4.083,2.393,4.083,1.75V1.167h5.833V1.75
	c0,0.643,0.523,1.167,1.167,1.167c0.643,0,1.167-0.523,1.167-1.167V1.167H14z M12.033,4.667H1.997v7.267h10.037V4.667z
	 M11.667,0.583C11.667,0.261,11.406,0,11.083,0S10.5,0.261,10.5,0.583V1.75c0,0.322,0.261,0.583,0.583,0.583
	s0.583-0.261,0.583-0.583V0.583z M3.5,1.75c0,0.322-0.261,0.583-0.583,0.583S2.333,2.072,2.333,1.75V0.583
	C2.333,0.261,2.594,0,2.917,0S3.5,0.261,3.5,0.583V1.75z"/>
</svg>
