<svg xmlns="http://www.w3.org/2000/svg" xml:space="preserve" viewBox="0 0 320 320">
  <rect width="26" height="26" x="79" y="163" rx="8" ry="8"/>
  <rect width="26" height="26" x="79" y="209" rx="8" ry="8"/>
  <rect width="26" height="26" x="124.5" y="163" rx="8" ry="8"/>
  <rect width="26" height="26" x="124.5" y="209" rx="8" ry="8"/>
  <rect width="26" height="26" x="170" y="163" rx="8" ry="8"/>
  <rect width="26" height="26" x="170" y="209" rx="8" ry="8"/>
  <rect width="26" height="26" x="216" y="163" rx="8" ry="8"/>
  <rect width="26" height="26" x="216" y="209" rx="8" ry="8"/>
  <path d="M83 76c6.08 0 11-4.92 11-11V43c0-6.08-4.92-11-11-11s-11 4.92-11 11v22c0 6.08 4.92 11 11 11Zm154 0c6.08 0 11-4.92 11-11V43c0-6.08-4.92-11-11-11s-11 4.92-11 11v22c0 6.08 4.92 11 11 11Z"/>
  <path d="M270 54h-11v11c0 12.13-9.87 22-22 22s-22-9.87-22-22V54H105v11c0 12.13-9.87 22-22 22s-22-9.87-22-22V54H50c-12.13 0-22 9.87-22 22v198c0 12.13 9.87 22 22 22h220c12.13 0 22-9.87 22-22V76c0-12.13-9.87-22-22-22Zm2 66v150c0 3.31-2.69 6-6 6H54c-3.31 0-6-2.69-6-6V120h224Z"/>
</svg>
