<?xml version="1.0" encoding="utf-8"?>
<!-- Generator: Adobe Illustrator 19.2.0, SVG Export Plug-In . SVG Version: 6.00 Build 0)  -->
<svg version="1.1" id="iconmonstr" xmlns="http://www.w3.org/2000/svg" xmlns:xlink="http://www.w3.org/1999/xlink" x="0px" y="0px"
	 viewBox="0 0 24 24" enable-background="new 0 0 24 24" xml:space="preserve">
<path id="time-3" d="M12,2.4c5.514,0,9.6,4.086,9.6,9.6s-4.086,9.6-9.6,9.6c-5.514,0-9.6-4.086-9.6-9.6S6.486,2.4,12,2.4z M12,0
	C5.373,0,0,5.373,0,12s5.373,12,12,12s12-5.373,12-12S18.627,0,12,0z M17.848,12.46c0.202,0.038,0.202,0.333,0.001,0.372
	c-1.907,0.361-6.045,1.111-6.547,1.111c-0.719,0-1.301-0.582-1.301-1.301c0-0.512,0.77-5.447,1.125-7.445
	c0.034-0.192,0.313-0.181,0.343,0.014l0.985,6.238L17.848,12.46z"/>
</svg>
