<?xml version="1.0" encoding="utf-8"?>
<!-- Generator: Adobe Illustrator 28.2.0, SVG Export Plug-In . SVG Version: 6.00 Build 0)  -->
<svg version="1.1" id="kontakt" xmlns="http://www.w3.org/2000/svg" xmlns:xlink="http://www.w3.org/1999/xlink" x="0px" y="0px"
	 viewBox="0 0 320 320" style="enable-background:new 0 0 320 320;" xml:space="preserve">
<g>
	<path d="M191.5,200L191.5,200l-9.5,13.2c-1.4,2-3.2,3.6-5.2,4.8c-2,1.3-4.3,2.1-6.7,2.5l0,0c-5,0.8-9.8-0.5-13.6-3.2
		c-3.8-2.7-6.5-6.9-7.3-11.8l0,0c-0.4-2.4-0.3-4.8,0.2-7.1c0.5-2.3,1.5-4.5,2.9-6.4l9.5-13.2c5.2-7.2-5.7-15.1-11-7.9l-9.5,13.2
		c-2.4,3.4-4.2,7.2-5.1,11.2c-0.9,4.1-1.1,8.3-0.4,12.4c1.4,8.7,6.2,15.9,12.8,20.6c6.6,4.7,15,6.9,23.6,5.5
		c4.1-0.7,8.1-2.1,11.6-4.3c3.4-2.1,6.5-5,9-8.4l9.5-13.2C207.6,200.7,196.7,192.8,191.5,200z"/>
	<path d="M217.6,50.2c0-5.3-4.3-9.7-9.7-9.7H63.8c-15.2,0-27.5,12.4-27.5,27.5v157.6c0,5.3,4.3,9.7,9.7,9.7s9.7-4.3,9.7-9.7V68
		c0-4.5,3.7-8.2,8.2-8.2H208C213.3,59.8,217.6,55.5,217.6,50.2z"/>
	<path d="M180.7,195.9l18-27.1c5.2-7.2-5.7-15.1-10.9-7.9l-18,27.2C164.6,195.3,175.5,203.1,180.7,195.9z"/>
	<path d="M219.6,128.9c-6.6-4.7-15-6.9-23.6-5.5c-4.1,0.7-8.1,2.1-11.6,4.3c-3.5,2.2-6.6,5-9,8.4l-9.7,13.4
		c-5.2,7.2,5.8,15.1,11,7.9v0l9.7-13.4c1.4-1.9,3.1-3.6,5.2-4.8c2.1-1.3,4.3-2.1,6.7-2.5c5-0.8,9.8,0.4,13.6,3.2
		c3.8,2.7,6.5,6.9,7.3,11.9c0.4,2.3,0.3,4.8-0.2,7.1c-0.5,2.3-1.5,4.5-2.9,6.4l-9.7,13.4c-5.2,7.2,5.8,15.1,11,7.9l9.7-13.4
		c2.4-3.4,4.2-7.2,5.1-11.2c0.9-4.1,1.1-8.3,0.4-12.4C231,140.9,226.2,133.6,219.6,128.9z"/>
	<path d="M256.2,84.8H112c-15.2,0-27.5,12.4-27.5,27.5V252c0,15.1,12.4,27.5,27.5,27.5h144.2c15.1,0,27.5-12.5,27.5-27.5V112.3
		C283.8,97.1,271.4,84.8,256.2,84.8z M264.5,252c0,4.5-3.7,8.2-8.2,8.2H112c-4.5,0-8.2-3.7-8.2-8.2V112.3c0-4.5,3.7-8.2,8.2-8.2
		h144.2c4.5,0,8.2,3.7,8.2,8.2V252z"/>
</g>
</svg>
