<?xml version="1.0" encoding="utf-8"?>
<!-- Generator: Adobe Illustrator 24.2.1, SVG Export Plug-In . SVG Version: 6.00 Build 0)  -->
<svg version="1.1" id="Ebene_1" xmlns="http://www.w3.org/2000/svg" xmlns:xlink="http://www.w3.org/1999/xlink" x="0px" y="0px"
	 viewBox="0 0 30 30" enable-background="new 0 0 30 30" xml:space="preserve">
<g>
	<g>
		<path fill="#1D1D1B" d="M19.675,10.557h-4.848c-0.805,0-1.458,0.653-1.458,1.458v9.226c0,0.805,0.653,1.458,1.458,1.458h4.848
			c0.805,0,1.458-0.653,1.458-1.458v-9.226C21.133,11.209,20.481,10.557,19.675,10.557z"/>
		<path fill="#1D1D1B" d="M27,0H3C1.343,0,0,1.343,0,3v24c0,1.657,1.343,3,3,3h24c1.657,0,3-1.343,3-3V3C30,1.343,28.657,0,27,0z
			 M23.587,23.184c0,1.074-0.87,1.944-1.944,1.944h-8.76c-1.073,0-1.944-0.87-1.944-1.944v-1.311H9.357
			c-1.074,0-1.944-0.87-1.944-1.944V6.816c0-1.074,0.87-1.944,1.944-1.944h8.76c1.073,0,1.944,0.87,1.944,1.944v1.311h1.582
			c1.074,0,1.944,0.87,1.944,1.944V23.184z"/>
	</g>
	<path fill="#1D1D1B" d="M16.149,7.302h-4.848c-0.805,0-1.458,0.653-1.458,1.458v9.226c0,0.68,0.467,1.246,1.096,1.407v-9.322
		c0-1.074,0.87-1.944,1.944-1.944h4.574C17.221,7.64,16.727,7.302,16.149,7.302z"/>
</g>
</svg>
