<?xml version="1.0" encoding="UTF-8"?>
<svg id="copy" xmlns="http://www.w3.org/2000/svg" version="1.1" viewBox="0 0 320 320">
  <path d="M288.4,89.9c-1-14.4-7.5-28.3-18.3-39.1-10.8-10.8-24.7-17.3-39.1-18.3-7.2-.5-14.2.4-20.7,2.6-6.9,2.3-12.9,6.2-18.1,11.3l-48.8,48.8h2.2c1.1,0,2.3.2,3.4.3,6.8.5,13.7,1.9,20.3,4.1l.6.2,37.9-37.9c11.7-11.7,32.7-9.8,46.9,4.4,14.2,14.2,16.1,35.2,4.4,46.9l-62.3,62.4c-5.6,5.6-13.6,8.3-22.5,7.5s-17.6-5.1-24.5-11.9-4.8-3.2-7.7-3.2-5.6,1.1-7.7,3.2c-4.2,4.2-4.2,11.2,0,15.5,10.8,10.8,24.7,17.3,39.1,18.3,1.3,0,2.6.2,3.9.2,5.8,0,11.4-.9,16.8-2.7,6.9-2.3,12.9-6.2,18.1-11.3l62.4-62.4c5.1-5.1,8.9-11.2,11.3-18.1,2.2-6.6,3-13.5,2.5-20.7Z"/>
  <path d="M186.7,134.3c-10.8-10.8-24.7-17.3-39.1-18.3-7.1-.5-14.2.4-20.7,2.6-6.9,2.3-12.9,6.2-18.1,11.3l-62.4,62.4c-5.1,5.1-8.9,11.2-11.3,18.1-2.3,6.6-3.1,13.5-2.6,20.7,1,14.4,7.5,28.3,18.3,39.1,10.8,10.8,24.7,17.3,39.1,18.3,1.3,0,2.6.2,3.9.2,5.8,0,11.4-.9,16.8-2.7,6.9-2.3,12.9-6.2,18.1-11.3l48.8-48.8h-2.2c-1.1,0-2.3-.2-3.4-.3-6.8-.5-13.7-1.9-20.3-4.1l-.6-.2-37.9,37.7c-5.6,5.6-13.6,8.3-22.5,7.5-8.9-.8-17.6-5.1-24.5-11.9-6.8-6.8-11-15.3-11.9-24.1-.9-9,1.7-17.1,7.5-22.9l62.4-62.4c5.6-5.6,13.6-8.3,22.5-7.5s17.6,5.1,24.5,11.9c4.2,4.2,11.2,4.2,15.5,0,2.1-2.1,3.2-4.8,3.2-7.7s-1.1-5.6-3.2-7.7Z"/>
</svg>