<svg xmlns="http://www.w3.org/2000/svg" viewBox="0 0 320 320">
  <path d="M163.52 190.48c-2.26-1.87-5.11-2.75-8.01-2.46-2.93.27-5.57 1.66-7.45 3.92s-2.76 5.12-2.49 8.04c.56 6.13-1.59 12.11-5.89 16.41l-48.55 48.55c-3.85 3.85-9 5.97-14.51 5.97s-10.68-2.12-14.54-5.98l-6.99-6.99c-8-8.01-8-21.05 0-29.06l48.55-48.55c4.3-4.31 10.3-6.46 16.43-5.89 2.91.29 5.76-.57 8.02-2.44 2.29-1.88 3.7-4.54 3.97-7.49.56-6.04-3.89-11.41-9.93-11.98-12.68-1.21-25.09 3.26-34.06 12.24l-48.54 48.55c-16.57 16.59-16.57 43.58 0 60.17l7 7c8.02 8.01 18.7 12.42 30.09 12.42s22.07-4.41 30.08-12.42l48.54-48.54c8.95-8.93 13.41-21.32 12.25-33.98-.27-2.94-1.67-5.6-3.95-7.49Z" class="cls-1"/>
  <path d="M105.64 214.38c2.08 2.08 4.84 3.22 7.78 3.22s5.7-1.15 7.78-3.22l93.15-93.16c4.29-4.29 4.29-11.27 0-15.56-4.3-4.29-11.28-4.28-15.56 0l-93.15 93.16c-4.29 4.29-4.29 11.27 0 15.56Z" class="cls-1"/>
  <path d="m280.48 46.53-7.01-7.01c-16.58-16.58-43.57-16.58-60.17 0l-48.52 48.53c-8.97 8.95-13.44 21.36-12.25 34.06.27 2.95 1.68 5.61 3.97 7.49 2.26 1.87 5.12 2.73 8.01 2.44 2.92-.27 5.57-1.67 7.44-3.93 1.88-2.26 2.76-5.12 2.49-8.04-.57-6.14 1.57-12.14 5.89-16.45l48.53-48.54c8.01-8.01 21.05-8.01 29.06 0l7.01 7.01c3.87 3.87 6 9.03 6 14.52s-2.13 10.65-6 14.53l-48.55 48.54c-4.3 4.31-10.29 6.46-16.41 5.89-2.92-.28-5.77.6-8.03 2.47-2.27 1.88-3.66 4.54-3.93 7.48-.55 6.04 3.92 11.4 9.96 11.95 1.3.12 2.62.18 3.92.18 11.37 0 22.05-4.41 30.05-12.43l48.54-48.54c16.58-16.59 16.58-43.58 0-60.16Z" class="cls-1"/>
</svg>


 
