<?xml version="1.0" encoding="utf-8"?>
<!-- Generator: Adobe Illustrator 28.0.0, SVG Export Plug-In . SVG Version: 6.00 Build 0)  -->
<svg version="1.1" id="iconmonstr" xmlns="http://www.w3.org/2000/svg" xmlns:xlink="http://www.w3.org/1999/xlink" x="0px" y="0px"
	 viewBox="0 0 24 24" style="enable-background:new 0 0 24 24;" xml:space="preserve">
<path d="M9.7,10.6c0.1-0.4,0.2-0.7,0.4-1c0.2-0.3,0.4-0.6,0.7-0.7c0.3-0.2,0.6-0.3,1.1-0.3c0.3,0,0.5,0.1,0.8,0.2
	c0.2,0.1,0.5,0.3,0.6,0.4s0.3,0.4,0.4,0.6s0.2,0.5,0.2,0.8H16c0-0.6-0.1-1.1-0.3-1.5c-0.2-0.5-0.5-0.9-0.8-1.2
	C14.4,7.5,14,7.2,13.5,7c-0.5-0.2-1.1-0.3-1.7-0.3c-0.8,0-1.5,0.1-2,0.4S8.7,7.8,8.3,8.2C8,8.7,7.7,9.3,7.5,9.9
	c-0.2,0.6-0.3,1.3-0.3,2v0.3c0,0.7,0.1,1.3,0.3,2c0.2,0.6,0.5,1.2,0.9,1.6c0.4,0.5,0.9,0.8,1.4,1.1c0.6,0.3,1.3,0.4,2,0.4
	c0.6,0,1.1-0.1,1.6-0.3c0.5-0.2,0.9-0.4,1.3-0.8c0.4-0.3,0.7-0.7,0.9-1.1c0.2-0.4,0.3-0.9,0.4-1.4h-2.1c0,0.3-0.1,0.5-0.2,0.7
	s-0.3,0.4-0.4,0.6s-0.4,0.3-0.6,0.4c-0.2,0.1-0.5,0.1-0.7,0.1c-0.4,0-0.8-0.1-1.1-0.3c-0.3-0.2-0.5-0.4-0.7-0.7
	c-0.2-0.3-0.3-0.7-0.4-1.1c-0.1-0.4-0.1-0.8-0.1-1.2v-0.3C9.6,11.4,9.6,11,9.7,10.6z M12,0C5.4,0,0,5.4,0,12s5.4,12,12,12
	s12-5.4,12-12S18.6,0,12,0z M12,21.6c-5.3,0-9.6-4.3-9.6-9.6S6.7,2.4,12,2.4s9.6,4.3,9.6,9.6S17.3,21.6,12,21.6z"/>
</svg>
