<svg id="Ebene_1" data-name="Ebene 1" xmlns="http://www.w3.org/2000/svg" viewBox="0 0 24 16"><defs><style>.cls-1{fill:#fff;}</style></defs><path class="cls-1" d="M22.74.48H6.93A1.26,1.26,0,1,0,6.93,3H22.74a1.26,1.26,0,1,0,0-2.52Z"/><path class="cls-1" d="M22.74,6.79H6.93a1.27,1.27,0,0,0,0,2.53H22.74a1.27,1.27,0,0,0,0-2.53Z"/><path class="cls-1" d="M22.74,13.11H6.93a1.26,1.26,0,1,0,0,2.52H22.74a1.26,1.26,0,1,0,0-2.52Z"/><circle class="cls-1" cx="1.58" cy="1.74" r="1.58"/><circle class="cls-1" cx="1.58" cy="8.06" r="1.58"/><circle class="cls-1" cx="1.58" cy="14.42" r="1.58"/></svg>