<?xml version="1.0" encoding="utf-8"?>
<!-- Generator: Adobe Illustrator 24.2.1, SVG Export Plug-In . SVG Version: 6.00 Build 0)  -->
<svg version="1.1" id="Ebene_1" xmlns="http://www.w3.org/2000/svg" xmlns:xlink="http://www.w3.org/1999/xlink" x="0px" y="0px"
     viewBox="0 0 20 23" enable-background="new 0 0 20 23" xml:space="preserve">
    <g>
    	<path id="arrow-down.min" d="M10.327,5.735c-0.487,0.585-3.533,4.335-4.375,5.26c-0.724,0.853,0.3,1.473,0.845,0.915
    		c0.386-0.435,3.12-3.819,3.533-4.325l0,0c0.407,0.504,3.144,3.891,3.529,4.327c0.547,0.558,1.57-0.058,0.847-0.915
    		c-0.847-0.927-3.892-4.673-4.38-5.26l0,0V5.735z"/>
        <path id="arrow-down.min-2" d="M10.327,10.609c-0.487,0.585-3.533,4.335-4.375,5.26c-0.724,0.853,0.3,1.473,0.845,0.915
    		c0.386-0.435,3.12-3.819,3.533-4.325l0,0c0.407,0.504,3.144,3.891,3.529,4.327c0.547,0.558,1.57-0.058,0.847-0.915
    		c-0.847-0.927-3.892-4.673-4.38-5.26l0,0V10.609z"/>
    </g>
    </svg>