<?xml version="1.0" encoding="utf-8"?>
<!-- Generator: Adobe Illustrator 26.4.0, SVG Export Plug-In . SVG Version: 6.00 Build 0)  -->
<svg version="1.1" id="Ebene_1" xmlns="http://www.w3.org/2000/svg" xmlns:xlink="http://www.w3.org/1999/xlink" x="0px" y="0px"
	 viewBox="0 0 24 24" style="enable-background:new 0 0 24 24;" xml:space="preserve">
<style type="text/css">
	.st0{fill:#020203;}
</style>
<path class="st0" d="M17.2,0H6.8C3,0,0,3,0,6.8v10.5C0,21,3,24,6.8,24h10.5c3.7,0,6.8-3,6.8-6.8V6.8C24,3,21,0,17.2,0z M7.2,11.2
	L7.2,11.2c0.4-0.4,0.9-0.4,1.3-0.1l2.2,2.1c0.1,0.1,0.3,0.2,0.4,0.3l-0.2-7.3c0-0.5,0.4-0.9,0.8-0.9c0.5,0,0.9,0.4,0.9,0.8l0.2,7.3
	c0.1-0.1,0.2-0.2,0.3-0.3l2.1-2.2c0.3-0.3,0.9-0.4,1.2,0c0.4,0.3,0.4,0.9,0,1.2L13.8,15c-1,1-2.6,1.1-3.7,0.1l-2.9-2.7
	C6.9,12.1,6.9,11.5,7.2,11.2z M16.5,18.7l-8.8,0c-0.3,0-0.5-0.4-0.5-0.9c0-0.5,0.2-0.9,0.5-0.9l8.8,0c0.3,0,0.5,0.4,0.5,0.9
	C17,18.3,16.8,18.7,16.5,18.7z"/>
</svg>
