<svg xmlns="http://www.w3.org/2000/svg" viewBox="0 0 480 362" xml:space="preserve">
  <path d="M432 0H48C22.51 0 0 22.51 0 48v216c0 25.49 22.51 48 48 48h384c25.49 0 48-16.22 48-41.71V48c0-25.49-22.51-48-48-48zm24 288-432-1.89V24h432v264zm-336 50h240v24H120z" fill="#005293"/>
  <path fill="#005293" d="M72 168v96h144v-96H72zm105.38 22.12c5.19 0 9.41 4.21 9.41 9.43 0 5.19-4.22 9.4-9.41 9.4s-9.38-4.21-9.38-9.4c0-5.22 4.19-9.43 9.38-9.43zM112.4 240.5l26.73-40.67 15.59 22.19 8.44-8.74 23.89 27.22H112.4zM360 48h-48c-13.2 0-25.2 5.4-33.9 14.1S264 82.8 264 96c0 26.4 21.6 48 48 48h48c13.2 0 25.2-5.4 33.9-14.1S408 109.2 408 96c0-26.4-21.6-48-48-48zm-41 73.67V70.33L363 96l-44 25.67z"/>
  <g fill="#005293">
    <path d="M342.94 204.15c0 3.46-2.77 6.23-6.17 6.23-3.43 0-6.2-2.77-6.2-6.23 0-3.43 2.77-6.23 6.2-6.23 3.4 0 6.17 2.8 6.17 6.23z"/>
    <path d="m360 168-48 5.49-48-5.49v90.51l48 5.49 48-5.49 48 5.49v-90.51L360 168zm-23.23 74.06c-9.71-16.73-17.23-27.9-17.23-37.5 0-9.57 7.71-17.36 17.23-17.36 9.49 0 17.19 7.79 17.19 17.36 0 9.6-7.51 20.77-17.19 37.5z"/>
  </g>
  <path fill="#005293" d="M200.24 48H87.76C79.09 48 72 55.09 72 63.76v64.48c0 8.67 7.09 15.76 15.76 15.76h112.48c8.67 0 15.76-7.09 15.76-15.76V63.76c0-8.67-7.09-15.76-15.76-15.76zM184 124h-80V68h8v42.23l24.21-25.2 12.7 10.67 27.41-24.67 5.36 5.94-32.59 29.33-12.3-10.33L117.55 116H184v8z"/>
</svg>
