<?xml version="1.0" encoding="utf-8"?>
<!-- Generator: Adobe Illustrator 21.1.0, SVG Export Plug-In . SVG Version: 6.00 Build 0)  -->
<svg version="1.1" xmlns="http://www.w3.org/2000/svg" xmlns:xlink="http://www.w3.org/1999/xlink" x="0px" y="0px"
	 viewBox="0 0 480 362" enable-background="new 0 0 480 362" xml:space="preserve">
<g id="version1" display="none">
	<g display="inline">
		<rect x="15.556" y="21.798" display="none" fill="#FFFFFF" width="448.889" height="274.074"/>
		<path fill="#005293" d="M480,40.044c0-25.491-20.664-46.155-46.155-46.155H46.155C20.664-6.111,0,14.553,0,40.044v232.134
			c0,25.491,20.664,46.155,46.155,46.155h387.69c25.491,0,46.155-20.664,46.155-46.155V40.044z M448.889,287.222H31.111V25h417.778
			V287.222z"/>
		<rect x="124.444" y="349.444" fill="#005293" width="231.111" height="26.667"/>
	</g>
	<path display="inline" fill="#005293" d="M72,168v96h144v-96H72z M112.399,240.497l26.734-40.664l15.581,22.187l8.449-8.736
		l23.886,27.213H112.399z M167.999,199.545c0-5.218,4.188-9.43,9.382-9.43c5.194,0,9.406,4.212,9.406,9.43
		c0,5.194-4.212,9.406-9.406,9.406C172.187,208.951,167.999,204.739,167.999,199.545z"/>
	<g display="inline">
		<g>
			<path fill="#005293" d="M200.235,144H87.765C79.094,144,72,136.906,72,128.235V63.765C72,55.094,79.094,48,87.765,48h112.471
				C208.906,48,216,55.094,216,63.765v64.471C216,136.906,208.906,144,200.235,144z"/>
		</g>
		<g>
			<path fill-rule="evenodd" clip-rule="evenodd" fill="none" stroke="#FFFFFF" stroke-width="4.545" stroke-miterlimit="10" d="
				M111.579,122.744l21.797-30.017c0.305-0.42,1.05-0.396,1.315,0.042l8.851,14.627c0.248,0.41,0.93,0.464,1.267,0.099l31.77-34.328
				"/>
			<polygon fill="#FFFFFF" points="111.5,118.67 111.5,67.92 104,67.92 104,118.67 104,123.92 111.5,123.92 184,123.92 184,118.67 
							"/>
		</g>
	</g>
	<g display="inline">
		<path fill="#005293" d="M360,144h-48c-26.4,0-48-21.6-48-48v0c0-26.4,21.6-48,48-48h48c26.4,0,48,21.6,48,48v0
			C408,122.4,386.4,144,360,144z"/>
		<polygon id="XMLID_1355_" fill="#FFFFFF" points="316,121.667 360,96.001 316,70.333 		"/>
	</g>
	<g display="inline">
		<g>
			<polygon fill="#005293" points="312,264 264,258.514 264,168 312,173.486 			"/>
		</g>
		<g>
			<polygon fill="#005293" points="408,264 360,258.514 360,168 408,173.486 			"/>
		</g>
		<polyline fill="#005293" points="360,168 312,173.486 312,264 360,258.514 		"/>
		<g id="location-icon">
			<path fill="#FFFFFF" d="M336.767,187.2c-9.518,0-17.225,7.79-17.225,17.362c0,9.6,7.515,20.763,17.225,37.495
				c9.682-16.732,17.198-27.895,17.198-37.495C353.964,194.99,346.257,187.2,336.767,187.2z M336.767,210.377
				c-3.429,0-6.199-2.77-6.199-6.226c0-3.429,2.77-6.226,6.199-6.226c3.401,0,6.171,2.798,6.171,6.226
				C342.938,207.607,340.168,210.377,336.767,210.377z"/>
		</g>
	</g>
</g>
<g id="version1_Kopie">
	<g>
		<path display="none" fill="#FFFFFF" d="M336.77,210.38c-3.43,0-6.2-2.77-6.2-6.23c0-3.43,2.77-6.23,6.2-6.23
			c3.4,0,6.17,2.8,6.17,6.23C342.94,207.61,340.17,210.38,336.77,210.38z"/>
		<path display="none" fill="#FFFFFF" d="M15.56,21.8v274.07h448.88V21.8H15.56z M336.77,187.2c9.49,0,17.19,7.79,17.19,17.36
			c0,9.6-7.51,20.77-17.19,37.5c-9.71-16.73-17.23-27.9-17.23-37.5C319.54,194.99,327.25,187.2,336.77,187.2z"/>
		<path fill="#005293" d="M432,0H48C22.51,0,0,22.51,0,48v216c0,25.49,22.51,48,48,48h384c25.49,0,48-16.22,48-41.71V48
			C480,22.51,457.49,0,432,0z M456,288l-432-1.89V24h432V288z"/>
		<rect x="120" y="338" fill="#005293" width="240" height="24"/>
	</g>
	<path fill="#005293" d="M72,168v96h144v-96H72z M177.38,190.12c5.19,0,9.41,4.21,9.41,9.43c0,5.19-4.22,9.4-9.41,9.4
		s-9.38-4.21-9.38-9.4C168,194.33,172.19,190.12,177.38,190.12z M112.4,240.5l26.73-40.67l15.59,22.19l8.44-8.74l23.89,27.22H112.4z
		"/>
	<g>
		<path fill="#005293" d="M360,48h-48c-13.2,0-25.2,5.4-33.9,14.1C269.4,70.8,264,82.8,264,96c0,26.4,21.6,48,48,48h48
			c13.2,0,25.2-5.4,33.9-14.1c8.7-8.7,14.1-20.7,14.1-33.9C408,69.6,386.4,48,360,48z M319,121.67V70.33L363,96L319,121.67z"/>
	</g>
	<g>
		<path fill="#005293" d="M342.94,204.15c0,3.46-2.77,6.23-6.17,6.23c-3.43,0-6.2-2.77-6.2-6.23c0-3.43,2.77-6.23,6.2-6.23
			C340.17,197.92,342.94,200.72,342.94,204.15z"/>
		<path fill="#005293" d="M360,168l-48,5.49L264,168v90.51l48,5.49l48-5.49l48,5.49v-90.51L360,168z M336.77,242.06
			c-9.71-16.73-17.23-27.9-17.23-37.5c0-9.57,7.71-17.36,17.23-17.36c9.49,0,17.19,7.79,17.19,17.36
			C353.96,214.16,346.45,225.33,336.77,242.06z"/>
	</g>
	<path fill="#005293" d="M200.24,48H87.76C79.09,48,72,55.09,72,63.76v64.48c0,8.67,7.09,15.76,15.76,15.76h112.48
		c8.67,0,15.76-7.09,15.76-15.76V63.76C216,55.09,208.91,48,200.24,48z M184,124h-80V68h8v42.23l24.21-25.2l12.7,10.67l27.41-24.67
		l5.36,5.94l-32.59,29.33l-12.3-10.33L117.55,116H184V124z"/>
</g>
<g id="version2" display="none">
	<g>
		<path display="inline" fill="#005293" d="M480,23.044c0-25.491-20.664-46.155-46.155-46.155H46.155
			C20.664-23.111,0-2.447,0,23.044v232.134c0,25.491,20.664,46.155,46.155,46.155h387.69c25.491,0,46.155-20.664,46.155-46.155
			V23.044z M448.889,270.222H31.111V8h417.778V270.222z"/>
		<rect x="124.444" y="332.444" display="inline" fill="#005293" width="231.111" height="26.667"/>
	</g>
	<rect x="31" y="8" display="inline" fill="#FFFFFF" width="419" height="262"/>
	<ellipse display="inline" fill="#005293" cx="-166" cy="39" rx="0" ry="2"/>
	<path display="inline" fill="#005293" d="M301,171.899v-55.799c0-4.455,3.645-8.101,8.101-8.101h31.799
		c4.455,0,8.101,3.645,8.101,8.101v55.799c0,4.455-3.645,8.101-8.101,8.101h-31.799C304.645,180,301,176.355,301,171.899z"/>
	<circle display="inline" fill="#005293" cx="325" cy="108" r="36"/>
	<path display="inline" fill="#005293" d="M247.963,88.379H211.49h-29.978H64.802c-7.72,0-14.037,6.316-14.037,14.037v21.051
		c0,7.72,6.316,14.037,14.037,14.037h107.136v39.551c0,5.265,4.308,9.573,9.573,9.573h29.978c5.265,0,9.573-4.308,9.573-9.573
		v-39.551h26.9c7.72,0,14.037-6.316,14.037-14.037v-21.051C262,94.695,255.684,88.379,247.963,88.379z"/>
	<g display="inline">
		<path fill="#005293" d="M40.941,37.314c-40.696,0-73.686,32.99-73.686,73.686s32.991,73.686,73.686,73.686
			c40.696,0,73.686-32.99,73.686-73.686S81.637,37.314,40.941,37.314z M24.379,135.562c-13.565,0-24.562-10.997-24.562-24.562
			c0-13.565,10.997-24.562,24.562-24.562c13.565,0,24.562,10.997,24.562,24.562C48.941,124.565,37.944,135.562,24.379,135.562z"/>
	</g>
	<path display="inline" fill="#005293" d="M433.845-23.111H46.155C20.664-23.111,0-2.447,0,23.044v13.76
		c9.418-5.208,19.933-8.666,31.111-9.958V8h417.778v262.222H31.111v-75.069C19.933,193.862,9.418,190.404,0,185.196v69.982
		c0,25.491,20.664,46.155,46.155,46.155h387.69c25.491,0,46.155-20.664,46.155-46.155V23.044
		C480-2.447,459.336-23.111,433.845-23.111z"/>
	<rect x="124.444" y="332.444" display="inline" fill="#005293" width="231.111" height="26.667"/>
</g>
<g id="Grid" display="none">
	<g id="grid" display="inline">
		<line fill="none" stroke="#868889" stroke-miterlimit="10" x1="-48.272" y1="-120.816" x2="528" y2="456"/>
		<line fill="none" stroke="#868889" stroke-miterlimit="10" x1="-48" y1="456" x2="528" y2="-120"/>
		<g>
			<path fill="#868889" d="M240-70.878c32.249,0,63.532,6.316,92.982,18.772c28.445,12.031,53.992,29.255,75.931,51.194
				c21.938,21.938,39.163,47.485,51.194,75.93c12.456,29.449,18.772,60.733,18.772,92.982s-6.316,63.532-18.772,92.982
				c-12.031,28.445-29.256,53.992-51.194,75.931c-21.939,21.938-47.485,39.163-75.931,51.194
				c-29.449,12.456-60.733,18.772-92.982,18.772s-63.532-6.316-92.982-18.772c-28.445-12.031-53.992-29.256-75.93-51.194
				c-21.939-21.939-39.163-47.485-51.194-75.931C7.438,231.532,1.122,200.249,1.122,168s6.316-63.532,18.772-92.982
				c12.031-28.445,29.255-53.992,51.194-75.93s47.485-39.163,75.93-51.194C176.468-64.562,207.751-70.878,240-70.878 M240-72
				C107.452-72,0,35.452,0,168s107.452,240,240,240s240-107.452,240-240S372.548-72,240-72L240-72z"/>
		</g>
		<g>
			<path fill="#868889" d="M396.414-46.878c32.237,0,58.464,26.227,58.464,58.464v312.826c0,32.237-26.227,58.464-58.464,58.464
				H83.586c-32.237,0-58.464-26.227-58.464-58.464V11.586c0-32.237,26.227-58.464,58.464-58.464H396.414 M396.414-48H83.586
				C50.814-48,24-21.186,24,11.586v312.826c0,32.772,26.814,59.586,59.586,59.586h312.828c32.772,0,59.586-26.814,59.586-59.586
				V11.586C456-21.186,429.186-48,396.414-48L396.414-48z"/>
		</g>
		<g>
			<path fill="#868889" d="M417.191-46.907c34.031,0,61.717,27.686,61.717,61.717v306.38c0,34.031-27.686,61.717-61.717,61.717
				H62.809c-34.031,0-61.717-27.686-61.717-61.717V14.809c0-34.031,27.686-61.717,61.717-61.717H417.191 M417.191-48H62.809
				C28.264-48,0-19.736,0,14.809v306.38c0,34.545,28.264,62.809,62.809,62.809h354.381c34.545,0,62.809-28.264,62.809-62.809V14.809
				C480-19.736,451.736-48,417.191-48L417.191-48z"/>
		</g>
		<g>
			<path fill="#868889" d="M393.19-70.908c34.031,0,61.717,27.686,61.717,61.717V345.19c0,34.031-27.686,61.717-61.717,61.717H86.81
				c-34.031,0-61.717-27.686-61.717-61.717V-9.191c0-34.031,27.686-61.717,61.717-61.717H393.19 M393.19-72.001H86.81
				c-34.545,0-62.809,28.264-62.809,62.809V345.19c0,34.545,28.264,62.809,62.809,62.809h306.38
				c34.545,0,62.809-28.264,62.809-62.809V-9.191C455.999-43.737,427.735-72.001,393.19-72.001L393.19-72.001z"/>
		</g>
	</g>
	<g id="Safe_Area" display="inline">
		
			<rect x="480" y="-120" transform="matrix(-1 -1.224647e-16 1.224647e-16 -1 1008 336)" opacity="0.6" fill="#AB2B17" width="48" height="576"/>
		
			<rect x="-48" y="-120" transform="matrix(-1 -1.224647e-16 1.224647e-16 -1 -48 336)" opacity="0.6" fill="#AB2B17" width="48" height="576"/>
		
			<rect x="216" y="-384" transform="matrix(6.123234e-17 -1 1 6.123234e-17 336 144)" opacity="0.6" fill="#AB2B17" width="48" height="576"/>
		
			<rect x="216" y="144" transform="matrix(-1.836970e-16 1 -1 -1.836970e-16 672 192)" opacity="0.6" fill="#AB2B17" width="48" height="576"/>
	</g>
</g>
<g id="Ebene_5" display="none">
</g>
</svg>
