<?xml version="1.0" encoding="utf-8"?>
<!-- Generator: Adobe Illustrator 25.4.1, SVG Export Plug-In . SVG Version: 6.00 Build 0)  -->
<svg version="1.1" id="Ebene_1" xmlns="http://www.w3.org/2000/svg" xmlns:xlink="http://www.w3.org/1999/xlink" x="0px" y="0px"
	 viewBox="0 0 30.4 28.1" style="enable-background:new 0 0 30.4 28.1;" xml:space="preserve">
<path id="Pfad_523" d="M21.6,14.8v4.6c0,0.5-0.4,1-1,1H7.3c-0.5,0-1-0.4-1-1l-0.1-8.9c0-0.5,0.4-1,1-1h9.6l0.1-2H5.8
	c-0.8,0-1.5,0.7-1.5,1.5v11.9c0,0.8,0.7,1.5,1.5,1.5l0,0h16.4c0.8,0,1.5-0.7,1.5-1.5v-6.1H21.6z"/>
<path id="Pfad_524" d="M17.7,6.3c0,0.6,0.4,1,1,1c0,0,0,0,0,0l3.5,0c0.2,0,0.3,0,0.5,0.1l-6.1,5.9c-0.4,0.4-0.4,1,0,1.4
	c0.4,0.4,1,0.4,1.4,0L24,8.9c0.1,0.2,0.1,0.4,0.1,0.6l0,3.5c0,0.6,0.4,1,1,1c0,0,0,0,0,0h0.1c0.6,0,1-0.4,1-1c0,0,0,0,0,0l0.1-4.5
	c0-1.7-1.3-3-3-3c0,0,0,0,0,0l-4.5-0.1C18.1,5.3,17.7,5.8,17.7,6.3C17.7,6.3,17.7,6.3,17.7,6.3z"/>
</svg>
