<?xml version="1.0" encoding="UTF-8"?>
<svg width="320px" height="320px" viewBox="0 0 320 320" version="1.1" xmlns="http://www.w3.org/2000/svg" xmlns:xlink="http://www.w3.org/1999/xlink">
    <title>facebook@1x</title>
    <g id="facebook" stroke="none" stroke-width="1" fill="none" fill-rule="evenodd">
        <path d="M295,160.81892 C295,86.3604315 234.782354,26 160.5,26 C86.2176465,26 26,86.3604315 26,160.81892 C26,228.110939 75.1847061,283.885948 139.484375,294 L139.484375,199.790014 L105.333984,199.790014 L105.333984,160.81892 L139.484375,160.81892 L139.484375,131.116626 C139.484375,97.3276347 159.564279,78.6636405 190.287021,78.6636405 C205.002425,78.6636405 220.394531,81.2968225 220.394531,81.2968225 L220.394531,114.474916 L203.434396,114.474916 C186.726187,114.474916 181.515625,124.867295 181.515625,135.529049 L181.515625,160.81892 L218.818359,160.81892 L212.855176,199.790014 L181.515625,199.790014 L181.515625,294 C245.815294,283.885948 295,228.110939 295,160.81892" id="Fill-1" fill="#000000"></path>
    </g>
</svg>