<svg xmlns="http://www.w3.org/2000/svg" xml:space="preserve" width="44" height="44" viewBox="0 0 44 44">
  <path fill="#FFF" d="M23.362 21.745c.478-.407 6.006-4.903 7.55-6.084 1.292-.988 1.212-.393 1.226.061.018.291.014 12.112 0 12.949s-.638.307-.955.067c-1.458-1.151-7.817-6.299-7.817-6.299s-.482-.286-.004-.694z"/>
  <path fill="#FFF" d="M14.362 21.745c.478-.407 6.006-4.903 7.55-6.084 1.292-.988 1.212-.393 1.226.061.018.291.014 12.112 0 12.949s-.638.307-.955.067c-1.458-1.151-7.817-6.299-7.817-6.299s-.482-.286-.004-.694zm-2.411-6.781c0-.491.298-.889.667-.889h.667c.368 0 .667.398.667.889v14.222c0 .491-.298.889-.667.889h-.667c-.368 0-.667-.398-.667-.889V14.964z"/>
</svg>
