<?xml version="1.0" encoding="utf-8"?>
<!-- Generator: Adobe Illustrator 17.0.1, SVG Export Plug-In . SVG Version: 6.00 Build 0)  -->
<!DOCTYPE svg PUBLIC "-//W3C//DTD SVG 1.1//EN" "http://www.w3.org/Graphics/SVG/1.1/DTD/svg11.dtd">
<svg version="1.1" id="Ebene_1" xmlns="http://www.w3.org/2000/svg" xmlns:xlink="http://www.w3.org/1999/xlink" x="0px" y="0px"
	 width="23px" height="20px" viewBox="0 0 23 20" enable-background="new 0 0 23 20" xml:space="preserve">
<g id="bilder">
	<g>
		<path fill="#1B6CB5" d="M20.5,5.1H7.2V3.9H3.4V5H2.5c-0.6,0-1,0.4-1,0.9v9.2c0,0.5,0.5,0.9,1,0.9h18c0.6,0,1-0.4,1-0.9V6
			C21.5,5.5,21,5.1,20.5,5.1z M7.3,9.2H3.4V7.4h3.9V9.2z M16,14.2c-1.9,0-3.5-1.6-3.5-3.5s1.6-3.5,3.5-3.5s3.5,1.6,3.5,3.5
			S17.9,14.2,16,14.2z"/>
		<circle fill="#1B6CB5" cx="16" cy="10.7" r="2"/>
	</g>
</g>
</svg>
