<?xml version="1.0" encoding="UTF-8"?>
<svg id="star" xmlns="http://www.w3.org/2000/svg" viewBox="0 0 320 320">
  <defs>
    <style>
      .cls-1 {
        fill: #fff;
      }
    </style>
  </defs>
  <path id="Star" class="cls-1" d="m149.67,24.25c1.98-5.7,8.21-8.72,13.92-6.74,3.16,1.1,5.64,3.58,6.74,6.74l31.87,91.67,97.04,1.98c5.94.12,10.68,4.96,10.71,10.87v.29c-.07,3.34-1.66,6.47-4.33,8.49l-77.34,58.64,28.1,92.9c1.72,5.69-1.42,11.68-7.02,13.54l-.28.09c-3.2.97-6.66.42-9.41-1.49l-79.67-55.43-79.67,55.43c-4.87,3.39-11.54,2.27-15.04-2.48l-.18-.25c-1.91-2.74-2.46-6.21-1.49-9.41l28.1-92.9L14.39,137.54c-4.73-3.58-5.72-10.27-2.29-15.06l.18-.25c2.02-2.66,5.15-4.26,8.49-4.32l97.03-1.98,31.87-91.67Zm10.33,31.2l-23.89,68.71c-2.4,6.89-8.83,11.57-16.13,11.72l-72.73,1.49,57.97,43.95c5.72,4.33,8.19,11.71,6.27,18.6l-.11.36-21.06,69.63,59.71-41.55c5.88-4.09,13.66-4.17,19.61-.22l.32.22,59.71,41.55-21.06-69.63c-2.08-6.87.26-14.29,5.86-18.73l.3-.23,57.97-43.95-72.73-1.49c-7.18-.15-13.52-4.67-16-11.37l-.12-.34-23.89-68.71Z"/>
</svg>