<?xml version="1.0" encoding="utf-8"?>
<!-- Generator: Adobe Illustrator 27.6.1, SVG Export Plug-In . SVG Version: 6.00 Build 0)  -->
<svg version="1.1" id="highlights" xmlns="http://www.w3.org/2000/svg" xmlns:xlink="http://www.w3.org/1999/xlink" x="0px" y="0px"
	 viewBox="0 0 320 320" style="enable-background:new 0 0 320 320;" xml:space="preserve">
<style type="text/css">
	.st0{fill:#FFFFFF;}
</style>
<path id="Star" class="st0" d="M149.7,24.2c2-5.7,8.2-8.7,13.9-6.7c3.2,1.1,5.6,3.6,6.7,6.7l31.9,91.7l97,2
	c5.9,0.1,10.7,5,10.7,10.9v0.3c-0.1,3.3-1.7,6.5-4.3,8.5l-77.3,58.6l28.1,92.9c1.7,5.7-1.4,11.7-7,13.5l-0.3,0.1
	c-3.2,1-6.7,0.4-9.4-1.5L160,245.8l-79.7,55.4c-4.9,3.4-11.5,2.3-15-2.5l-0.2-0.2c-1.9-2.7-2.5-6.2-1.5-9.4l28.1-92.9l-77.3-58.7
	c-4.7-3.6-5.7-10.3-2.3-15.1l0.2-0.2c2-2.7,5.1-4.3,8.5-4.3l97-2L149.7,24.2L149.7,24.2z M160,55.5l-23.9,68.7
	c-2.4,6.9-8.8,11.6-16.1,11.7l-72.7,1.5l58,43.9c5.7,4.3,8.2,11.7,6.3,18.6l-0.1,0.4l-21.1,69.6l59.7-41.6
	c5.9-4.1,13.7-4.2,19.6-0.2l0.3,0.2l59.7,41.6l-21.1-69.6c-2.1-6.9,0.3-14.3,5.9-18.7l0.3-0.2l58-43.9l-72.7-1.5
	c-7.2-0.1-13.5-4.7-16-11.4l-0.1-0.3L160,55.5L160,55.5z"/>
</svg>
