<svg xmlns="http://www.w3.org/2000/svg" viewBox="0 0 320 320">
  <path d="M83 32c6.08 0 11 4.92 11 11v22c0 6.08-4.92 11-11 11s-11-4.92-11-11V43c0-6.08 4.92-11 11-11Zm154 0c6.08 0 11 4.92 11 11v22c0 6.08-4.92 11-11 11s-11-4.92-11-11V43c0-6.08 4.92-11 11-11Z" class="cls-1"/>
  <path fill="#fff" fill-rule="evenodd" stroke="#fff" stroke-width="16" d="M207 62v3c0 16.57 13.43 30 30 30s30-13.43 30-30v-3h3c7.73 0 14 6.27 14 14v198c0 7.73-6.27 14-14 14H50c-7.73 0-14-6.27-14-14V76c0-7.73 6.27-14 14-14h3v3c0 16.57 13.43 30 30 30s30-13.43 30-30v-3h94ZM40 112h240v158c0 7.73-6.27 14-14 14H54c-7.73 0-14-6.27-14-14V112Z"/>
  <path d="M118.29 143v36.99s11.53-2.42 21.68-2.32c16.86.17 25.31 9.29 25.91 21.21.15 3.03.12 4.7.12 7.95v48.16h-17.79V205.8c0-6.02.38-13.5-13.06-13.43-9.57.05-16.33 1.9-16.33 1.9v60.72h-17.36V144.1l16.83-1.11Zm112.24 34.17c-.22-.04-16.07.36-25.43 2.49-10.92 2.47-17.92 8.99-18.89 18.95-.18 1.92-.28 3.14-.28 7.5v47.94h17.98v-49.03c0-4.3.34-7.04 3.18-9.55 3.23-2.85 10.57-3.27 14.78-3.6 2.89-.23 8.66-.5 8.66-.5v-14.19Z" class="cls-2"/>
</svg>
