<?xml version="1.0" encoding="utf-8"?>
<!-- Generator: Adobe Illustrator 21.1.0, SVG Export Plug-In . SVG Version: 6.00 Build 0)  -->
<svg version="1.1" xmlns="http://www.w3.org/2000/svg" xmlns:xlink="http://www.w3.org/1999/xlink" x="0px" y="0px" width="50px"
	 height="36px" viewBox="0 0 50 36" enable-background="new 0 0 50 36" xml:space="preserve">
<g id="Ebene_2">
	<g>
		<path display="none" fill-rule="evenodd" clip-rule="evenodd" fill="#FFFFFF" d="M34.279,15.174c1.282,0,2.322,1.039,2.322,2.322
			c0,1.282-1.039,2.322-2.322,2.322s-2.322-1.039-2.322-2.322C31.958,16.214,32.997,15.174,34.279,15.174z M35.211,18.436v-2.324
			l-2.337,0.839v0.577l0.774-0.28v1.747L35.211,18.436z M34.279,15.515c-1.094,0-1.981,0.887-1.981,1.981
			c0,1.094,0.887,1.981,1.981,1.981s1.981-0.887,1.981-1.981C36.26,16.402,35.373,15.515,34.279,15.515z"/>
		<g>
			<path fill="#FFFFFF" d="M20.56,16.139l-0.001,3.618c0,0,1.136-0.237,2.135-0.227c1.66,0.017,2.492,0.909,2.551,2.075
				c0.015,0.296,0.012,0.46,0.012,0.778v4.711h-1.751v-4.811c0-0.589,0.037-1.32-1.286-1.314c-0.942,0.005-1.608,0.186-1.608,0.186
				v5.939h-1.709V16.248L20.56,16.139z"/>
			<path fill="#FFFFFF" d="M31.191,19.522c-0.021-0.004-1.564,0.035-2.475,0.245c-1.063,0.243-1.744,0.885-1.839,1.866
				c-0.018,0.189-0.027,0.309-0.027,0.739v4.722h1.75l0-4.829c0-0.424,0.033-0.693,0.31-0.941c0.314-0.281,1.029-0.322,1.439-0.355
				c0.281-0.023,0.843-0.049,0.843-0.049L31.191,19.522z"/>
		</g>
	</g>
</g>
<g id="Ebene_1">
	<g>
		<g>
			<path fill="#FFFFFF" d="M37.209,8.822v22.401H12.771V8.822h3.055V9.84c0,1.123,0.913,2.036,2.036,2.036s2.036-0.913,2.036-2.036
				V8.822H30.08V9.84c0,1.123,0.913,2.036,2.036,2.036s2.036-0.913,2.036-2.036V8.822H37.209z M35.172,14.932H14.808v14.255h20.365
				L35.172,14.932L35.172,14.932z M33.136,7.804c0-0.562-0.455-1.018-1.018-1.018S31.1,7.242,31.1,7.804V9.84
				c0,0.562,0.455,1.018,1.018,1.018s1.018-0.456,1.018-1.018V7.804z M18.881,9.841c0,0.562-0.455,1.018-1.018,1.018
				s-1.018-0.456-1.018-1.018V7.804c0-0.562,0.455-1.018,1.018-1.018s1.018,0.456,1.018,1.018V9.841z"/>
		</g>
	</g>
</g>
</svg>
