<?xml version="1.0" encoding="utf-8"?>
<!-- Generator: Adobe Illustrator 27.6.1, SVG Export Plug-In . SVG Version: 6.00 Build 0)  -->
<svg version="1.1" id="hrcalendar" xmlns="http://www.w3.org/2000/svg" xmlns:xlink="http://www.w3.org/1999/xlink" x="0px" y="0px"
	 viewBox="0 0 320 320" style="enable-background:new 0 0 320 320;" xml:space="preserve">
<style type="text/css">
	.st0{fill:#FFFFFF;}
</style>
<g>
	<path class="st0" d="M83,76c6.1,0,11-4.9,11-11V43c0-6.1-4.9-11-11-11s-11,4.9-11,11v22C72,71.1,76.9,76,83,76z"/>
	<path class="st0" d="M237,76c6.1,0,11-4.9,11-11V43c0-6.1-4.9-11-11-11s-11,4.9-11,11v22C226,71.1,230.9,76,237,76z"/>
	<path class="st0" d="M270,54h-11v11c0,12.1-9.9,22-22,22s-22-9.9-22-22V54H105v11c0,12.1-9.9,22-22,22s-22-9.9-22-22V54H50
		c-12.1,0-22,9.9-22,22v198c0,12.1,9.9,22,22,22h220c12.1,0,22-9.9,22-22V76C292,63.9,282.1,54,270,54z M272,120v150
		c0,3.3-2.7,6-6,6H54c-3.3,0-6-2.7-6-6V120H272z"/>
</g>
<g>
	<path class="st0" d="M140,173.7c-6.9-0.1-14.4,1-18.7,1.7v-36.6l-22.8,1.5V257h23.4v-61.3c2.6-0.5,7.4-1.3,13.4-1.3h0.1
		c4,0,6.8,0.7,8.2,2.2c1.7,1.7,1.7,4.8,1.7,7.8V257H169v-52.6c0-2.4,0-4.1-0.1-6.7C168.1,183,157.1,173.8,140,173.7L140,173.7z"/>
	<path class="st0" d="M233.5,173.7l-2.4-0.4c-0.9-0.2-17.1,0.4-26.6,2.5c-12.6,2.9-20.1,10.5-21.2,21.6c-0.2,2.1-0.3,3.5-0.3,7.8
		V256h24v-52c0-4,0.3-5.7,2.2-7.3c2.3-2,8.8-2.5,12.3-2.8l0.7-0.1c2.8-0.2,8.5-0.5,8.6-0.5l2.9-0.1L233.5,173.7L233.5,173.7z"/>
</g>
</svg>
