<svg xmlns="http://www.w3.org/2000/svg" xml:space="preserve" viewBox="0 0 320 320">
  <path d="M83 76c6.1 0 11-4.9 11-11V43c0-6.1-4.9-11-11-11s-11 4.9-11 11v22c0 6.1 4.9 11 11 11zm154 0c6.1 0 11-4.9 11-11V43c0-6.1-4.9-11-11-11s-11 4.9-11 11v22c0 6.1 4.9 11 11 11z"/>
  <path d="M270 54h-11v11c0 12.1-9.9 22-22 22s-22-9.9-22-22V54H105v11c0 12.1-9.9 22-22 22s-22-9.9-22-22V54H50c-12.1 0-22 9.9-22 22v198c0 12.1 9.9 22 22 22h220c12.1 0 22-9.9 22-22V76c0-12.1-9.9-22-22-22zm2 66v150c0 3.3-2.7 6-6 6H54c-3.3 0-6-2.7-6-6V120h224z"/>
  <path d="M140 173.7c-6.9-.1-14.4 1-18.7 1.7v-36.6l-22.8 1.5V257h23.4v-61.3c2.6-.5 7.4-1.3 13.4-1.3h.1c4 0 6.8.7 8.2 2.2 1.7 1.7 1.7 4.8 1.7 7.8V257H169v-52.6c0-2.4 0-4.1-.1-6.7-.8-14.7-11.8-23.9-28.9-24zm93.5 0-2.4-.4c-.9-.2-17.1.4-26.6 2.5-12.6 2.9-20.1 10.5-21.2 21.6-.2 2.1-.3 3.5-.3 7.8V256h24v-52c0-4 .3-5.7 2.2-7.3 2.3-2 8.8-2.5 12.3-2.8l.7-.1c2.8-.2 8.5-.5 8.6-.5l2.9-.1-.2-19.5z"/>
</svg>
