<svg xmlns="http://www.w3.org/2000/svg" xml:space="preserve" viewBox="0 0 1024 1024">
  <path d="M512 4c-138 0-155.3.6-209.4 3.1-54.1 2.5-91 11.1-123.3 23.6-33.4 13-61.7 30.4-90 58.6-28.2 28.2-45.6 56.6-58.6 90-12.6 32.3-21.2 69.2-23.6 123.3C4.6 356.7 4 374 4 512s.6 155.3 3.1 209.4c2.5 54.1 11.1 91 23.6 123.3 13 33.4 30.4 61.7 58.6 90 28.2 28.2 56.6 45.6 90 58.6 32.3 12.6 69.2 21.1 123.3 23.6 54.2 2.5 71.5 3.1 209.4 3.1 138 0 155.3-.6 209.4-3.1 54.1-2.5 91-11.1 123.3-23.6 33.4-13 61.7-30.4 90-58.6 28.2-28.2 45.6-56.6 58.6-90 12.6-32.3 21.1-69.2 23.6-123.3 2.5-54.2 3.1-71.5 3.1-209.4 0-138-.6-155.3-3.1-209.4-2.5-54.1-11.1-91-23.6-123.3-13-33.4-30.4-61.7-58.6-90-28.2-28.2-56.6-45.6-90-58.6-32.3-12.6-69.2-21.2-123.3-23.6C667.3 4.6 650 4 512 4zm0 91.5c135.6 0 151.7.5 205.3 3 49.5 2.3 76.4 10.5 94.3 17.5 23.7 9.2 40.6 20.2 58.4 38 17.8 17.8 28.8 34.7 38 58.4 7 17.9 15.2 44.8 17.5 94.3 2.4 53.6 3 69.6 3 205.3 0 135.6-.5 151.7-3 205.3-2.3 49.5-10.5 76.4-17.5 94.3-9.2 23.7-20.2 40.6-38 58.4-17.8 17.8-34.7 28.8-58.4 38-17.9 7-44.8 15.2-94.3 17.5-53.6 2.4-69.6 3-205.3 3-135.7 0-151.7-.5-205.3-3-49.5-2.3-76.4-10.5-94.3-17.5-23.7-9.2-40.6-20.2-58.4-38-17.8-17.8-28.8-34.7-38-58.4-7-17.9-15.2-44.8-17.5-94.3-2.4-53.6-3-69.6-3-205.3 0-135.6.5-151.7 3-205.3 2.3-49.5 10.5-76.4 17.5-94.3 9.2-23.7 20.2-40.6 38-58.4 17.8-17.8 34.7-28.8 58.4-38 17.9-7 44.8-15.2 94.3-17.5 53.6-2.5 69.7-3 205.3-3" class="st0"/>
  <path d="M512 681.3c-93.5 0-169.3-75.8-169.3-169.3 0-93.5 75.8-169.3 169.3-169.3 93.5 0 169.3 75.8 169.3 169.3 0 93.5-75.8 169.3-169.3 169.3zm0-430.2c-144.1 0-260.9 116.8-260.9 260.9 0 144.1 116.8 260.9 260.9 260.9 144.1 0 260.9-116.8 260.9-260.9 0-144.1-116.8-260.9-260.9-260.9zm332.1-10.3c0 33.7-27.3 61-61 61s-61-27.3-61-61 27.3-61 61-61c33.7.1 61 27.4 61 61z" class="st0"/>
</svg>
