<?xml version="1.0" encoding="UTF-8"?>
<svg id="Instagram" xmlns="http://www.w3.org/2000/svg" xmlns:xlink="http://www.w3.org/1999/xlink" viewBox="0 0 278 278">
  <defs>
    <style>
      .cls-1 {
        mask: url(#mask);
      }

      .cls-2 {
        fill: #fff;
      }

      .cls-2, .cls-3 {
        fill-rule: evenodd;
      }
    </style>
    <mask id="mask" x="0" y="0" width="278" height="278" maskUnits="userSpaceOnUse">
      <g id="mask-2">
        <polygon id="path-1" class="cls-2" points="0 0 278 0 278 278 0 278 0 0"/>
      </g>
    </mask>
  </defs>
  <g id="Instagram-2" data-name="Instagram">
    <g id="Group-3">
      <g class="cls-1">
        <path id="Fill-1" class="cls-3" d="m139,0c-37.75,0-42.48.16-57.31.84-14.8.67-24.9,3.02-33.74,6.46-9.14,3.55-16.89,8.3-24.62,16.03-7.73,7.73-12.48,15.48-16.03,24.62-3.44,8.84-5.79,18.95-6.46,33.74-.68,14.83-.84,19.56-.84,57.31s.16,42.48.84,57.31c.68,14.79,3.02,24.9,6.46,33.74,3.55,9.14,8.3,16.89,16.03,24.62,7.73,7.73,15.48,12.48,24.62,16.03,8.84,3.44,18.95,5.79,33.74,6.46,14.83.68,19.56.84,57.31.84s42.48-.16,57.31-.84c14.8-.68,24.9-3.03,33.74-6.46,9.14-3.55,16.89-8.31,24.62-16.03,7.73-7.73,12.48-15.48,16.03-24.62,3.44-8.84,5.79-18.95,6.46-33.74.68-14.83.84-19.56.84-57.31s-.16-42.48-.84-57.31c-.67-14.8-3.02-24.9-6.46-33.74-3.55-9.14-8.3-16.89-16.03-24.62-7.73-7.73-15.48-12.48-24.62-16.03-8.84-3.44-18.95-5.79-33.74-6.46-14.83-.68-19.56-.84-57.31-.84m0,25.05c37.11,0,41.51.14,56.17.81,13.55.62,20.91,2.88,25.81,4.79,6.49,2.52,11.12,5.53,15.98,10.4,4.86,4.86,7.88,9.49,10.4,15.98,1.9,4.9,4.17,12.26,4.79,25.81.67,14.66.81,19.05.81,56.17s-.14,41.51-.81,56.17c-.62,13.55-2.88,20.91-4.79,25.81-2.52,6.49-5.53,11.12-10.4,15.98-4.86,4.86-9.49,7.88-15.98,10.4-4.9,1.9-12.26,4.17-25.81,4.79-14.65.67-19.05.81-56.17.81s-41.51-.14-56.17-.81c-13.55-.62-20.91-2.88-25.81-4.79-6.49-2.52-11.12-5.53-15.98-10.4-4.86-4.86-7.88-9.49-10.4-15.98-1.9-4.9-4.17-12.26-4.79-25.81-.67-14.66-.81-19.05-.81-56.17s.14-41.51.81-56.17c.62-13.55,2.88-20.91,4.79-25.81,2.52-6.49,5.53-11.12,10.4-15.98,4.86-4.86,9.49-7.88,15.98-10.4,4.9-1.9,12.26-4.17,25.81-4.79,14.66-.67,19.05-.81,56.17-.81"/>
      </g>
    </g>
    <path id="Fill-4" class="cls-3" d="m139,185.33c-25.59,0-46.33-20.74-46.33-46.33s20.74-46.33,46.33-46.33,46.33,20.74,46.33,46.33-20.74,46.33-46.33,46.33m0-117.71c-39.42,0-71.38,31.96-71.38,71.38s31.96,71.38,71.38,71.38,71.38-31.96,71.38-71.38-31.96-71.38-71.38-71.38"/>
    <path id="Fill-6" class="cls-3" d="m229.88,64.8c0,9.21-7.47,16.68-16.68,16.68s-16.68-7.47-16.68-16.68,7.47-16.68,16.68-16.68,16.68,7.47,16.68,16.68"/>
  </g>
</svg>