<?xml version="1.0" encoding="UTF-8"?>
<svg width="320px" height="320px" viewBox="0 0 320 320" version="1.1" xmlns="http://www.w3.org/2000/svg" xmlns:xlink="http://www.w3.org/1999/xlink">
    <title>Instagram@1x</title>
    <defs>
        <polygon id="path-1" points="0 0 256 0 256 256 0 256"></polygon>
    </defs>
    <g id="Instagram" stroke="none" stroke-width="1" fill="none" fill-rule="evenodd">
        <g id="instagram" transform="translate(32, 32)">
            <g id="Group-3">
                <mask id="mask-2" fill="white">
                    <use xlink:href="#path-1"></use>
                </mask>
                <g id="Clip-2"></g>
                <path d="M127.999873,0 C93.2373797,0 88.8779048,0.147348101 75.2258383,0.770274902 C61.6012091,1.39167741 52.2969313,3.55566211 44.154672,6.72008962 C35.7380401,9.99070937 28.599273,14.3674561 21.4833702,21.4833532 C14.3669594,28.5997584 9.9907173,35.7380117 6.71958685,44.1546369 C3.55515684,52.2968898 1.39167852,61.6011602 0.769767416,75.2257786 C0.146840121,88.8783423 0,93.2367976 0,127.999771 C0,162.762745 0.146840121,167.121708 0.769767416,180.774272 C1.39167852,194.398383 3.55515684,203.703161 6.71958685,211.844906 C9.9907173,220.261531 14.3669594,227.400292 21.4833702,234.51619 C28.599273,241.632595 35.7380401,246.008833 44.154672,249.280469 C52.2969313,252.444389 61.6012091,254.608373 75.2258383,255.230284 C88.8779048,255.852703 93.2373797,256.000051 127.999873,256.000051 C162.762874,256.000051 167.121333,255.852703 180.773908,255.230284 C194.398537,254.608373 203.702815,252.444389 211.845074,249.280469 C220.262214,246.008833 227.400473,241.632595 234.516376,234.51619 C241.632787,227.400292 246.009029,220.262039 249.280159,211.844906 C252.444589,203.703161 254.608576,194.398383 255.229979,180.774272 C255.852906,167.121708 256.000254,162.762745 256.000254,127.999771 C256.000254,93.2373057 255.852906,88.8783423 255.229979,75.2257786 C254.608576,61.6011602 252.444589,52.2968898 249.280159,44.1546369 C246.009029,35.7380117 241.632787,28.5997584 234.516376,21.4833532 C227.400473,14.3674561 220.262214,9.99070937 211.845074,6.72008962 C203.702815,3.55566211 194.398537,1.39167741 180.773908,0.770274902 C167.121333,0.147348101 162.762874,0 127.999873,0 M127.999873,23.0630264 C162.177546,23.0630264 166.225557,23.1930993 179.722654,23.8089127 C192.20254,24.3784893 198.98005,26.463719 203.49043,28.2166533 C209.465146,30.5386562 213.729607,33.3123571 218.208485,37.7912313 C222.687362,42.2706136 225.461066,46.5345628 227.783578,52.5092743 C229.536006,57.0196504 231.621237,63.797155 232.190814,76.2770311 C232.80612,89.7741172 232.936701,93.8226333 232.936701,127.999771 C232.936701,162.177418 232.80612,166.225934 232.190814,179.722512 C231.621237,192.202896 229.536006,198.9804 227.783578,203.490777 C225.461066,209.46498 222.687362,213.729437 218.208485,218.208311 C213.729607,222.687694 209.465146,225.461395 203.49043,227.783397 C198.98005,229.535824 192.20254,231.621561 179.722654,232.19063 C166.22759,232.806443 162.180087,232.937024 127.999873,232.937024 C93.8196592,232.937024 89.7721561,232.806443 76.2770917,232.19063 C63.7972057,231.621561 57.0191876,229.535824 52.5088078,227.783397 C46.5345997,225.461395 42.2701391,222.687694 37.7912613,218.208311 C33.3123836,213.729437 30.5381723,209.46498 28.2161676,203.490777 C26.46374,198.9804 24.3785087,192.202896 23.8089316,179.72302 C23.1931177,166.225934 23.0630448,162.177418 23.0630448,127.999771 C23.0630448,93.8226333 23.1931177,89.7741172 23.8089316,76.2770311 C24.3785087,63.797155 26.46374,57.0196504 28.2161676,52.5092743 C30.5381723,46.5345628 33.3123836,42.2706136 37.7912613,37.7917394 C42.2701391,33.3123571 46.5345997,30.5386562 52.5088078,28.2166533 C57.0191876,26.463719 63.7972057,24.3784893 76.2765836,23.8089127 C89.7741885,23.1930993 93.8221997,23.0630264 127.999873,23.0630264" id="Fill-1" fill="#000000" mask="url(#mask-2)"></path>
            </g>
            <path d="M127.999873,170.666701 C104.435844,170.666701 85.3329099,151.563781 85.3329099,127.999771 C85.3329099,104.435761 104.435844,85.3333503 127.999873,85.3333503 C151.563902,85.3333503 170.666836,104.435761 170.666836,127.999771 C170.666836,151.563781 151.563902,170.666701 127.999873,170.666701 M127.999873,62.2703238 C91.698353,62.2703238 62.2698652,91.6982802 62.2698652,127.999771 C62.2698652,164.301771 91.698353,193.729727 127.999873,193.729727 C164.301393,193.729727 193.729373,164.301771 193.729373,127.999771 C193.729373,91.6982802 164.301393,62.2703238 127.999873,62.2703238" id="Fill-4" fill="#000000"></path>
            <path d="M211.686598,59.6733389 C211.686598,68.1565248 204.81001,75.0331083 196.326817,75.0331083 C187.843624,75.0331083 180.966527,68.1565248 180.966527,59.6733389 C180.966527,51.1901531 187.843624,44.3135696 196.326817,44.3135696 C204.81001,44.3135696 211.686598,51.1901531 211.686598,59.6733389" id="Fill-6" fill="#000000"></path>
        </g>
    </g>
</svg>