<svg xmlns="http://www.w3.org/2000/svg" xml:space="preserve" viewBox="0 0 320 320">
  <path d="M287.23 107.23c-.62-13.62-2.79-22.93-5.95-31.07-3.27-8.42-7.65-15.55-14.76-22.67-7.12-7.12-14.25-11.49-22.67-14.76-8.14-3.16-17.45-5.33-31.07-5.95-13.65-.62-18.01-.77-52.77-.77s-39.12.15-52.77.77c-13.62.62-22.93 2.79-31.07 5.95C67.75 42 60.61 46.38 53.5 53.49c-7.12 7.12-11.49 14.25-14.76 22.67-3.16 8.14-5.33 17.45-5.95 31.07-.62 13.65-.77 18.01-.77 52.77s.15 39.12.77 52.77c.62 13.62 2.79 22.93 5.95 31.07 3.27 8.42 7.65 15.56 14.76 22.67 7.12 7.12 14.25 11.49 22.67 14.76 8.14 3.16 17.45 5.33 31.07 5.95 13.65.62 18.01.77 52.77.77s39.12-.15 52.77-.77c13.62-.62 22.93-2.79 31.07-5.95 8.42-3.27 15.56-7.65 22.67-14.76 7.12-7.12 11.49-14.25 14.76-22.67 3.16-8.14 5.33-17.45 5.95-31.07.62-13.65.77-18.01.77-52.77s-.15-39.12-.77-52.77Zm-23.04 104.5c-.57 12.48-2.65 19.26-4.41 23.77-2.32 5.97-5.1 10.24-9.58 14.72s-8.74 7.25-14.72 9.58c-4.51 1.75-11.29 3.84-23.77 4.41-13.5.62-17.54.75-51.72.75s-38.23-.13-51.72-.75c-12.48-.57-19.26-2.65-23.77-4.41-5.97-2.32-10.24-5.1-14.72-9.58s-7.25-8.74-9.58-14.72c-1.75-4.51-3.84-11.29-4.41-23.77-.62-13.5-.75-17.55-.75-51.72s.13-38.23.75-51.72c.57-12.48 2.65-19.26 4.41-23.77 2.32-5.97 5.1-10.24 9.58-14.72s8.74-7.25 14.72-9.58c4.51-1.75 11.29-3.84 23.77-4.41 13.5-.62 17.55-.75 51.72-.75s38.23.13 51.72.75c12.48.57 19.26 2.65 23.77 4.41 5.97 2.32 10.24 5.1 14.72 9.57 4.48 4.48 7.25 8.74 9.58 14.72 1.75 4.51 3.84 11.29 4.41 23.77.62 13.5.75 17.55.75 51.72s-.13 38.23-.75 51.72Z"/>
  <path d="M160 94.27c-36.3 0-65.73 29.43-65.73 65.73s29.43 65.73 65.73 65.73 65.73-29.43 65.73-65.73S196.3 94.27 160 94.27Zm0 108.4c-23.56 0-42.67-19.1-42.67-42.67s19.1-42.67 42.67-42.67 42.67 19.1 42.67 42.67-19.1 42.67-42.67 42.67Zm68.33-126.36c-8.48 0-15.36 6.88-15.36 15.36s6.88 15.36 15.36 15.36 15.36-6.88 15.36-15.36-6.88-15.36-15.36-15.36Z"/>
</svg>
