<?xml version="1.0" encoding="utf-8"?>
<!-- Generator: Adobe Illustrator 19.2.0, SVG Export Plug-In . SVG Version: 6.00 Build 0)  -->
<svg version="1.1" xmlns="http://www.w3.org/2000/svg" xmlns:xlink="http://www.w3.org/1999/xlink" x="0px" y="0px" width="88px"
	 height="88px" viewBox="0 0 88 88" enable-background="new 0 0 88 88" xml:space="preserve">
<g id="Ebene_5">
</g>
<g id="Ebene_4">
	<g>
		<path d="M44.2,32.8c-6.1,0-11.1,5-11.1,11.1s5,11.1,11.1,11.1c6.1,0,11.1-5,11.1-11.1S50.3,32.8,44.2,32.8z"/>
		<path d="M57.8,17H30.2C22.9,17,17,22.9,17,30.2v27.7C17,65.1,22.9,71,30.2,71h27.7C65.1,71,71,65.1,71,57.8V30.2
			C71,22.9,65.1,17,57.8,17z M44.2,60.8c-9.3,0-16.8-7.5-16.8-16.8s7.5-16.8,16.8-16.8c9.3,0,16.8,7.5,16.8,16.8
			S53.5,60.8,44.2,60.8z M61.7,30.4c-2.2,0-4-1.8-4-3.9c0-2.2,1.8-4,4-4s4,1.8,4,4C65.6,28.6,63.8,30.4,61.7,30.4z"/>
		<path d="M0,0v88h88V0H0z M77,58.1C77,68.6,68.6,77,58.1,77H29.9C19.4,77,11,68.6,11,58.1V29.9C11,19.4,19.4,11,29.9,11h28.3
			C68.6,11,77,19.4,77,29.9V58.1z"/>
	</g>
</g>
</svg>
