<?xml version="1.0" encoding="utf-8"?>
<!-- Generator: Adobe Illustrator 25.0.0, SVG Export Plug-In . SVG Version: 6.00 Build 0)  -->
<svg version="1.1" id="Ebene_1" xmlns="http://www.w3.org/2000/svg" xmlns:xlink="http://www.w3.org/1999/xlink" x="0px" y="0px"
	 viewBox="0 0 1024 1024" style="enable-background:new 0 0 1024 1024;" xml:space="preserve">
<style type="text/css">
	.st0{fill:#12100B;}
</style>
<g>
	<path class="st0" d="M512,4C374,4,356.7,4.6,302.6,7.1c-54.1,2.5-91,11.1-123.3,23.6c-33.4,13-61.7,30.4-90,58.6
		c-28.2,28.2-45.6,56.6-58.6,90C18.1,211.6,9.5,248.5,7.1,302.6C4.6,356.7,4,374,4,512c0,138,0.6,155.3,3.1,209.4
		c2.5,54.1,11.1,91,23.6,123.3c13,33.4,30.4,61.7,58.6,90c28.2,28.2,56.6,45.6,90,58.6c32.3,12.6,69.2,21.1,123.3,23.6
		c54.2,2.5,71.5,3.1,209.4,3.1c138,0,155.3-0.6,209.4-3.1c54.1-2.5,91-11.1,123.3-23.6c33.4-13,61.7-30.4,90-58.6
		c28.2-28.2,45.6-56.6,58.6-90c12.6-32.3,21.1-69.2,23.6-123.3c2.5-54.2,3.1-71.5,3.1-209.4c0-138-0.6-155.3-3.1-209.4
		c-2.5-54.1-11.1-91-23.6-123.3c-13-33.4-30.4-61.7-58.6-90c-28.2-28.2-56.6-45.6-90-58.6C812.4,18.1,775.5,9.5,721.4,7.1
		C667.3,4.6,650,4,512,4L512,4L512,4z M512,95.5c135.6,0,151.7,0.5,205.3,3c49.5,2.3,76.4,10.5,94.3,17.5
		c23.7,9.2,40.6,20.2,58.4,38c17.8,17.8,28.8,34.7,38,58.4c7,17.9,15.2,44.8,17.5,94.3c2.4,53.6,3,69.6,3,205.3
		c0,135.6-0.5,151.7-3,205.3c-2.3,49.5-10.5,76.4-17.5,94.3c-9.2,23.7-20.2,40.6-38,58.4c-17.8,17.8-34.7,28.8-58.4,38
		c-17.9,7-44.8,15.2-94.3,17.5c-53.6,2.4-69.6,3-205.3,3c-135.7,0-151.7-0.5-205.3-3c-49.5-2.3-76.4-10.5-94.3-17.5
		c-23.7-9.2-40.6-20.2-58.4-38c-17.8-17.8-28.8-34.7-38-58.4c-7-17.9-15.2-44.8-17.5-94.3c-2.4-53.6-3-69.6-3-205.3
		c0-135.6,0.5-151.7,3-205.3c2.3-49.5,10.5-76.4,17.5-94.3c9.2-23.7,20.2-40.6,38-58.4c17.8-17.8,34.7-28.8,58.4-38
		c17.9-7,44.8-15.2,94.3-17.5C360.3,96,376.4,95.5,512,95.5"/>
	<path class="st0" d="M512,681.3c-93.5,0-169.3-75.8-169.3-169.3c0-93.5,75.8-169.3,169.3-169.3c93.5,0,169.3,75.8,169.3,169.3
		C681.3,605.5,605.5,681.3,512,681.3L512,681.3z M512,251.1c-144.1,0-260.9,116.8-260.9,260.9c0,144.1,116.8,260.9,260.9,260.9
		c144.1,0,260.9-116.8,260.9-260.9C772.9,367.9,656.1,251.1,512,251.1L512,251.1z"/>
	<path class="st0" d="M844.1,240.8c0,33.7-27.3,61-61,61c-33.7,0-61-27.3-61-61c0-33.7,27.3-61,61-61
		C816.8,179.9,844.1,207.2,844.1,240.8L844.1,240.8z"/>
</g>
</svg>
