<?xml version="1.0" encoding="utf-8"?>
<!-- Generator: Adobe Illustrator 16.0.3, SVG Export Plug-In . SVG Version: 6.00 Build 0)  -->
<!DOCTYPE svg PUBLIC "-//W3C//DTD SVG 1.1//EN" "http://www.w3.org/Graphics/SVG/1.1/DTD/svg11.dtd">
<svg version="1.1" id="Ebene_1" xmlns="http://www.w3.org/2000/svg" xmlns:xlink="http://www.w3.org/1999/xlink" x="0px" y="0px"
	 width="15.75px" height="17.319px" viewBox="0 0 15.75 17.319" enable-background="new 0 0 15.75 17.319" xml:space="preserve">
<g id="XMLID_1_">
	<g>
		<path d="M9.494,10.39c-0.336-0.354-0.926-0.582-1.622-0.582c-0.697,0-1.287,0.227-1.623,0.582
			c-0.175,0.185-0.269,0.375-0.298,0.645c-0.057,0.523-0.024,0.975,0.037,1.694c0.058,0.686,0.168,1.601,0.313,2.534
			c0.103,0.663,0.187,1.021,0.263,1.277c0.123,0.415,0.586,0.779,1.308,0.779s1.183-0.363,1.307-0.779
			c0.076-0.256,0.16-0.613,0.263-1.277c0.146-0.933,0.256-1.848,0.314-2.534c0.061-0.72,0.093-1.171,0.037-1.694
			C9.764,10.765,9.671,10.574,9.494,10.39z M6.042,7.232c0,1.012,0.819,1.833,1.833,1.833c1.013,0,1.833-0.82,1.833-1.833
			c0-1.012-0.821-1.833-1.833-1.833S6.042,6.221,6.042,7.232z M7.852,0C3.566,0.013,0.054,3.489,0.001,7.775
			c-0.043,3.472,2.173,6.442,5.269,7.53c0.074,0.025,0.15-0.036,0.139-0.115c-0.041-0.27-0.078-0.54-0.113-0.807
			c-0.012-0.095-0.072-0.176-0.159-0.214c-2.446-1.068-4.153-3.521-4.127-6.362c0.036-3.729,3.081-6.77,6.81-6.801
			c3.813-0.03,6.924,3.063,6.924,6.867c0,2.813-1.7,5.236-4.127,6.296c-0.088,0.038-0.147,0.119-0.159,0.214
			c-0.035,0.266-0.073,0.536-0.114,0.806c-0.012,0.079,0.064,0.141,0.141,0.115c3.064-1.078,5.268-4.002,5.268-7.432
			C15.749,3.525,12.203-0.013,7.852,0z M7.709,3.613c2.43-0.094,4.436,1.855,4.436,4.264c0,1.226-0.519,2.331-1.349,3.111
			c-0.069,0.066-0.108,0.16-0.103,0.256c0.016,0.293,0.01,0.578-0.01,0.899c-0.005,0.086,0.092,0.14,0.162,0.092
			c1.391-0.951,2.307-2.549,2.307-4.358c0-2.978-2.481-5.388-5.484-5.271C4.877,2.714,2.637,5.016,2.602,7.81
			c-0.023,1.837,0.897,3.464,2.307,4.427c0.07,0.048,0.166-0.007,0.16-0.092c-0.02-0.322-0.025-0.607-0.008-0.9
			c0.004-0.096-0.033-0.189-0.104-0.256c-0.855-0.803-1.381-1.954-1.348-3.225C3.671,5.526,5.474,3.699,7.709,3.613z"/>
	</g>
</g>
<g>
</g>
<g>
</g>
<g>
</g>
<g>
</g>
<g>
</g>
<g>
</g>
<g>
</g>
<g>
</g>
<g>
</g>
<g>
</g>
<g>
</g>
<g>
</g>
<g>
</g>
<g>
</g>
<g>
</g>
</svg>
