<svg xmlns="http://www.w3.org/2000/svg" xml:space="preserve" width="15.75" height="17.319" viewBox="0 0 15.75 17.319">
  <path d="M9.494 10.39c-.336-.354-.926-.582-1.622-.582-.697 0-1.287.227-1.623.582-.175.185-.269.375-.298.645-.057.523-.024.975.037 1.694.058.686.168 1.601.313 2.534.103.663.187 1.021.263 1.277.123.415.586.779 1.308.779s1.183-.363 1.307-.779c.076-.256.16-.613.263-1.277.146-.933.256-1.848.314-2.534.061-.72.093-1.171.037-1.694-.029-.27-.122-.461-.299-.645zM6.042 7.232c0 1.012.819 1.833 1.833 1.833 1.013 0 1.833-.82 1.833-1.833 0-1.012-.821-1.833-1.833-1.833s-1.833.822-1.833 1.833zM7.852 0C3.566.013.054 3.489.001 7.775c-.043 3.472 2.173 6.442 5.269 7.53a.106.106 0 0 0 .139-.115c-.041-.27-.078-.54-.113-.807a.2692.2692 0 0 0-.159-.214C2.691 13.101.984 10.648 1.01 7.807c.036-3.729 3.081-6.77 6.81-6.801 3.813-.03 6.924 3.063 6.924 6.867 0 2.813-1.7 5.236-4.127 6.296a.2672.2672 0 0 0-.159.214c-.035.266-.073.536-.114.806-.012.079.064.141.141.115 3.064-1.078 5.268-4.002 5.268-7.432C15.749 3.525 12.203-.013 7.852 0zm-.143 3.613c2.43-.094 4.436 1.855 4.436 4.264 0 1.226-.519 2.331-1.349 3.111a.3328.3328 0 0 0-.103.256c.016.293.01.578-.01.899-.005.086.092.14.162.092 1.391-.951 2.307-2.549 2.307-4.358 0-2.978-2.481-5.388-5.484-5.271-2.791.108-5.031 2.41-5.066 5.204-.023 1.837.897 3.464 2.307 4.427.07.048.166-.007.16-.092-.02-.322-.025-.607-.008-.9a.3316.3316 0 0 0-.104-.256c-.855-.803-1.381-1.954-1.348-3.225.062-2.238 1.865-4.065 4.1-4.151z"/>
</svg>
