<?xml version="1.0" encoding="utf-8"?>
<!-- Generator: Adobe Illustrator 18.1.1, SVG Export Plug-In . SVG Version: 6.00 Build 0)  -->
<!DOCTYPE svg PUBLIC "-//W3C//DTD SVG 1.1//EN" "http://www.w3.org/Graphics/SVG/1.1/DTD/svg11.dtd">
<svg version="1.1" id="Ebene_1" xmlns="http://www.w3.org/2000/svg" xmlns:xlink="http://www.w3.org/1999/xlink" x="0px" y="0px"
	 width="23px" height="20px" viewBox="-1180 1676.4 23 20" enable-background="new -1180 1676.4 23 20" xml:space="preserve">
<g id="kommentar">
	<path fill="#1B6CB5" d="M-1159.5,1679.2h-18c-0.6,0-1,0.4-1,0.9v11c0,0.5,0.5,0.9,1,0.9h8.9l6.2,3.7v-3.7h2.8c0.6,0,1-0.4,1-0.9
		v-11C-1158.5,1679.6-1159,1679.2-1159.5,1679.2z M-1172.7,1687c-0.7,0-1.3-0.6-1.3-1.4c0-0.8,0.6-1.4,1.4-1.4
		c0.8,0,1.4,0.6,1.4,1.4C-1171.3,1686.4-1171.9,1687-1172.7,1687z M-1168.6,1687c-0.8,0-1.4-0.6-1.4-1.4c0-0.8,0.6-1.4,1.4-1.4
		c0.8,0,1.4,0.6,1.4,1.4C-1167.2,1686.4-1167.8,1687-1168.6,1687z M-1164.2,1687c-0.8,0-1.4-0.6-1.4-1.4c0-0.8,0.6-1.4,1.4-1.4
		c0.8,0,1.4,0.6,1.4,1.4C-1162.8,1686.4-1163.4,1687-1164.2,1687z"/>
</g>
</svg>
