<svg xmlns="http://www.w3.org/2000/svg" xml:space="preserve" width="23" height="20" viewBox="-1180 1676.4 23 20">
  <path fill="#1B6CB5" d="M-1159.5 1679.2h-18c-.6 0-1 .4-1 .9v11c0 .5.5.9 1 .9h8.9l6.2 3.7v-3.7h2.8c.6 0 1-.4 1-.9v-11c.1-.5-.4-.9-.9-.9zm-13.2 7.8c-.7 0-1.3-.6-1.3-1.4 0-.8.6-1.4 1.4-1.4.8 0 1.4.6 1.4 1.4-.1.8-.7 1.4-1.5 1.4zm4.1 0c-.8 0-1.4-.6-1.4-1.4 0-.8.6-1.4 1.4-1.4.8 0 1.4.6 1.4 1.4 0 .8-.6 1.4-1.4 1.4zm4.4 0c-.8 0-1.4-.6-1.4-1.4 0-.8.6-1.4 1.4-1.4.8 0 1.4.6 1.4 1.4 0 .8-.6 1.4-1.4 1.4z"/>
</svg>
