<?xml version="1.0" encoding="UTF-8"?>
<svg width="320px" height="320px" viewBox="0 0 320 320" version="1.1" xmlns="http://www.w3.org/2000/svg" xmlns:xlink="http://www.w3.org/1999/xlink">
    <title>Brief@1x</title>
    <g id="Brief" stroke="none" stroke-width="1" fill="none" fill-rule="evenodd" stroke-linejoin="round">
        <g transform="translate(33, 67)" stroke="#000000" stroke-width="20">
            <path d="M13.72,186 L240.28,186 C247.857347,186 254,179.857347 254,172.28 L254,13.72 C254,6.14265323 247.857347,-4.9446497e-15 240.28,0 L13.72,0 C6.14265323,-2.16077766e-15 -4.48067103e-15,6.14265323 0,13.72 L0,172.28 C9.27957347e-16,179.857347 6.14265323,186 13.72,186 Z" id="Stroke-1"></path>
            <path d="M117.558602,110.486204 L4.69233774,3.44102411 L4.69233774,3.44102411 L127,3.44102411 L249.307662,3.44102411 L136.441398,110.486204 C131.148156,115.506446 122.851844,115.506446 117.558602,110.486204 Z" id="Stroke-3"></path>
            <line x1="4.69233774" y1="182.58349" x2="92.0689317" y2="99.7168006" id="Stroke-4" stroke-linecap="round"></line>
            <line x1="161.934004" y1="99.7148395" x2="249.310598" y2="182.581529" id="Stroke-5" stroke-linecap="round"></line>
        </g>
    </g>
</svg>