<svg xmlns="http://www.w3.org/2000/svg" viewBox="0 0 320 320">
  <path fill="#fff" d="M273.28 57H46.72C33.64 57 23 67.64 23 80.72v158.56C23 252.36 33.64 263 46.72 263h226.56c13.08 0 23.72-10.64 23.72-23.72V80.72C297 67.64 286.36 57 273.28 57ZM43 89.26l74.6 70.76L43 230.77V89.26Zm119.56 80.97c-1.43 1.36-3.68 1.36-5.12 0L62.77 80.44h194.46l-94.67 89.79Zm-30.61 3.74c.06-.06.12-.12.18-.19l11.55 10.95c4.58 4.34 10.45 6.51 16.32 6.51s11.75-2.17 16.32-6.51l11.55-10.96c.06.06.11.13.18.19l72.79 69.03H59.17l72.78-69.03Zm70.45-13.96L277 89.26v141.51l-74.6-70.75Z"/>
</svg>
