<?xml version="1.0" encoding="utf-8"?>
<!-- Generator: Adobe Illustrator 17.0.1, SVG Export Plug-In . SVG Version: 6.00 Build 0)  -->
<!DOCTYPE svg PUBLIC "-//W3C//DTD SVG 1.1//EN" "http://www.w3.org/Graphics/SVG/1.1/DTD/svg11.dtd">
<svg version="1.1" id="Ebene_1" xmlns="http://www.w3.org/2000/svg" xmlns:xlink="http://www.w3.org/1999/xlink" x="0px" y="0px"
	 width="44px" height="44px" viewBox="0 0 44 44" enable-background="new 0 0 44 44" xml:space="preserve">
<g id="end_pic">
	<path id="arrow-37-icon_3_" fill="#FFFFFF" d="M20.789,22.38c-0.478,0.407-6.006,4.903-7.55,6.084
		c-1.292,0.988-1.212,0.393-1.226-0.061c-0.018-0.291-0.014-12.112,0-12.949c0.014-0.837,0.638-0.307,0.955-0.067
		c1.458,1.151,7.817,6.299,7.817,6.299S21.267,21.972,20.789,22.38z"/>
	<path id="arrow-37-icon_1_" fill="#FFFFFF" d="M29.789,22.38c-0.478,0.407-6.006,4.903-7.55,6.084
		c-1.292,0.988-1.212,0.393-1.226-0.061c-0.018-0.291-0.014-12.112,0-12.949c0.014-0.837,0.638-0.307,0.955-0.067
		c1.458,1.151,7.817,6.299,7.817,6.299S30.267,21.972,29.789,22.38z"/>
	<path fill="#FFFFFF" d="M32.2,28.861c0,0.491-0.298,0.889-0.667,0.889h-0.667c-0.368,0-0.667-0.398-0.667-0.889V14.639
		c0-0.491,0.298-0.889,0.667-0.889h0.667c0.368,0,0.667,0.398,0.667,0.889V28.861z"/>
</g>
</svg>
