<?xml version="1.0" encoding="UTF-8"?>
<svg id="in" xmlns="http://www.w3.org/2000/svg" viewBox="0 0 320 320">
  <defs>
    <style>
      .cls-1 {
        fill: #fff;
      }
    </style>
  </defs>
  <path id="n" class="cls-1" d="m125.38,122.31h44.72v20.5h.64c9.1-15.59,26.05-24.91,44.1-24.23,47.22,0,55.92,31.07,55.92,71.44v82.24h-46.57v-72.92c0-17.41-.32-39.78-24.26-39.78s-27.94,18.95-27.94,38.51v74.16h-46.57l-.03-149.93Z"/>
  <path id="i" class="cls-1" d="m52.99,122.29h46.57v149.97h-46.57V122.29Zm23.28-74.56c14.92,0,27.01,12.1,27.01,27.02,0,14.92-12.1,27.01-27.02,27.01-14.92,0-27.01-12.1-27.01-27.02s12.1-27.02,27.02-27.02h0"/>
</svg>