<?xml version="1.0" encoding="utf-8"?>
<!-- Generator: Adobe Illustrator 19.2.0, SVG Export Plug-In . SVG Version: 6.00 Build 0)  -->
<svg version="1.1" id="Ebene_3" xmlns="http://www.w3.org/2000/svg" xmlns:xlink="http://www.w3.org/1999/xlink" x="0px" y="0px"
	 viewBox="0 0 88 88" enable-background="new 0 0 88 88" xml:space="preserve">
<path d="M0,0v88l88,0V0H0z M31,69H19V34h12V69z M24.879,29.2l0-0.2h-0.074c-3.84,0-6.324-2.444-6.324-5.748
	c0-3.378,2.56-5.849,6.474-5.849c3.915,0,6.325,2.52,6.399,5.899C31.353,26.606,28.869,29.2,24.879,29.2z M72,69H60V50.112
	c0-4.629-1.445-7.786-5.586-7.786c-3.161,0-5.127,2.129-5.954,4.185C48.157,47.247,48,48.275,48,49.304V69H36.933c0,0,0.15-32,0-35
	H48v4.978c2-2.346,4.495-5.685,10.569-5.685C66.098,33.293,72,38.214,72,48.79V69z"/>
</svg>
