<?xml version="1.0" encoding="utf-8"?>
<!-- Generator: Adobe Illustrator 19.2.0, SVG Export Plug-In . SVG Version: 6.00 Build 0)  -->
<svg version="1.1" id="Ebene_4" xmlns="http://www.w3.org/2000/svg" xmlns:xlink="http://www.w3.org/1999/xlink" x="0px" y="0px"
	 width="148.5px" height="140.5px" viewBox="0 0 148.5 140.5" enable-background="new 0 0 148.5 140.5" xml:space="preserve">
<path id="tv-3-icon_2_" fill="#FFFFFF" d="M50,111.3c5,5.8,13.9,9.7,24,9.7s19-3.9,24-9.7H50z"/>
<path fill="#FFFFFF" d="M124.8,41.6c0-2.9-2.4-5.3-5.3-5.3H29c-2.9,0-5.3,2.4-5.3,5.3v57.1c0,2.9,2.4,5.3,5.3,5.3h90.5
	c2.9,0,5.3-2.4,5.3-5.3L124.8,41.6z M117.4,96.8H31V43.6h86.4V96.8z"/>
<path id="arrow-37-icon_4_" fill="#FFFFFF" d="M89.517,71.144c-1.388,0.917-17.451,11.042-21.939,13.702
	c-3.755,2.226-3.523,0.884-3.564-0.136c-0.052-0.656-0.041-27.278,0-29.162c0.041-1.884,1.853-0.692,2.775-0.15
	c4.236,2.593,22.714,14.187,22.714,14.187S90.905,70.227,89.517,71.144z"/>
</svg>
