<?xml version="1.0" encoding="utf-8"?>
<!-- Generator: Adobe Illustrator 19.2.0, SVG Export Plug-In . SVG Version: 6.00 Build 0)  -->
<svg version="1.1" id="Ebene_4" xmlns="http://www.w3.org/2000/svg" xmlns:xlink="http://www.w3.org/1999/xlink" x="0px" y="0px"
	 width="101.1px" height="84.7px" viewBox="0 0 101.1 84.7" style="enable-background:new 0 0 101.1 84.7;" xml:space="preserve">
<style type="text/css">
	.st0{fill:#FFFFFF;}
</style>
<path id="tv-3-icon_2_" class="st0" d="M26.3,75c5,5.8,13.9,9.7,24,9.7s19-3.9,24-9.7H26.3z"/>
<path class="st0" d="M101.1,5.3c0-2.9-2.4-5.3-5.3-5.3H5.3C2.4,0,0,2.4,0,5.3v57.1c0,2.9,2.4,5.3,5.3,5.3h90.5
	c2.9,0,5.3-2.4,5.3-5.3V5.3z M93.7,60.5H7.3V7.3h86.4V60.5z"/>
<path id="arrow-37-icon_4_" class="st0" d="M65.817,34.844c-1.388,0.917-17.451,11.042-21.939,13.702
	c-3.755,2.226-3.523,0.884-3.564-0.136c-0.052-0.656-0.041-27.278,0-29.162c0.041-1.884,1.853-0.692,2.775-0.15
	c4.236,2.593,22.714,14.187,22.714,14.187S67.205,33.927,65.817,34.844z"/>
</svg>
