<svg xmlns="http://www.w3.org/2000/svg" xml:space="preserve" viewBox="-1180 1674.9 23 23">
  <path fill="#1b6cb5" d="M-1173.1 1682.8c1-1.2 2.3-2 3.8-2.2v-3c-2.5.2-4.9 1.5-6.4 3.7l2.6 1.5z" opacity=".15"/>
  <path fill="#1b6cb5" d="m-1173.9 1684.2-2.6-1.5c-1.1 2.4-1.1 5.1 0 7.4l2.6-1.5c-.5-1.4-.5-3 0-4.4z" opacity=".3"/>
  <path fill="#1b6cb5" d="M-1163.9 1689.9c-1 1.2-2.3 2-3.8 2.2v3c2.5-.2 4.9-1.5 6.4-3.7l-2.6-1.5z" opacity=".7"/>
  <path fill="#1b6cb5" d="M-1167.7 1680.6c.7.1 1.5.3 2.1.7.7.4 1.2.9 1.7 1.5l2.6-1.5c-.7-1-1.6-1.9-2.8-2.6-1.1-.7-2.4-1-3.6-1.1v3z"/>
  <path fill="#1b6cb5" d="m-1160.5 1682.7-2.6 1.5c.6 1.4.6 3 0 4.4l2.6 1.5c1.1-2.4 1-5.2 0-7.4z" opacity=".85"/>
  <path fill="#1b6cb5" d="M-1169.3 1692.1c-.7-.1-1.5-.3-2.1-.7-.7-.4-1.2-.9-1.7-1.5l-2.6 1.5c.7 1 1.6 1.9 2.8 2.6 1.1.7 2.4 1 3.6 1.1v-3z" opacity=".5"/>
</svg>
