<?xml version="1.0" encoding="utf-8"?>
<!-- Generator: Adobe Illustrator 18.1.1, SVG Export Plug-In . SVG Version: 6.00 Build 0)  -->
<svg version="1.1" id="Ebene_4" xmlns="http://www.w3.org/2000/svg" xmlns:xlink="http://www.w3.org/1999/xlink" x="0px" y="0px"
	 viewBox="-1180 1674.9 23 23" style="enable-background:new -1180 1674.9 23 23;" xml:space="preserve">
<style type="text/css">
	.st0{opacity:0.15;fill:#1B6CB5;}
	.st1{opacity:0.3;fill:#1B6CB5;}
	.st2{opacity:0.7;fill:#1B6CB5;}
	.st3{fill:#1B6CB5;}
	.st4{opacity:0.85;fill:#1B6CB5;}
	.st5{opacity:0.5;fill:#1B6CB5;}
</style>
<path class="st0" opacity="0.15" d="M-1173.1,1682.8c1-1.2,2.3-2,3.8-2.2v-3c-2.5,0.2-4.9,1.5-6.4,3.7L-1173.1,1682.8z"/>
<path class="st1" opacity="0.3" d="M-1173.9,1684.2l-2.6-1.5c-1.1,2.4-1.1,5.1,0,7.4l2.6-1.5C-1174.4,1687.2-1174.4,1685.6-1173.9,1684.2z"/>
<path class="st2" opacity="0.7" d="M-1163.9,1689.9c-1,1.2-2.3,2-3.8,2.2v3c2.5-0.2,4.9-1.5,6.4-3.7L-1163.9,1689.9z"/>
<path class="st3" opacity="1" d="M-1167.7,1680.6c0.7,0.1,1.5,0.3,2.1,0.7c0.7,0.4,1.2,0.9,1.7,1.5l2.6-1.5c-0.7-1-1.6-1.9-2.8-2.6 c-1.1-0.7-2.4-1-3.6-1.1V1680.6z"/>
<path class="st4" opacity="0.85" d="M-1160.5,1682.7l-2.6,1.5c0.6,1.4,0.6,3,0,4.4l2.6,1.5C-1159.4,1687.7-1159.5,1684.9-1160.5,1682.7z"/>
<path class="st5" opacity="0.5" d="M-1169.3,1692.1c-0.7-0.1-1.5-0.3-2.1-0.7c-0.7-0.4-1.2-0.9-1.7-1.5l-2.6,1.5c0.7,1,1.6,1.9,2.8,2.6 c1.1,0.7,2.4,1,3.6,1.1V1692.1z"/>
</svg>
