<?xml version="1.0" encoding="utf-8"?>
<!-- Generator: Adobe Illustrator 17.0.1, SVG Export Plug-In . SVG Version: 6.00 Build 0)  -->
<!DOCTYPE svg PUBLIC "-//W3C//DTD SVG 1.1//EN" "http://www.w3.org/Graphics/SVG/1.1/DTD/svg11.dtd">
<svg version="1.1" id="Ebene_1" xmlns="http://www.w3.org/2000/svg" xmlns:xlink="http://www.w3.org/1999/xlink" x="0px" y="0px"
	 width="680.315px" height="71.802px" viewBox="0 0 680.315 71.802" enable-background="new 0 0 680.315 71.802"
	 xml:space="preserve">
<g>
	<path fill="#800000018000000180000001" d="M470.264,56.422c0,4.509,2.843,7.059,9.116,7.059c3.821,0,6.664-0.296,9.311-2.843
		c1.47-1.47,2.157-3.822,2.157-7.352v-4.018h-11.664C473.302,49.268,470.264,51.913,470.264,56.422z"/>
	<path fill="#800000018000000180000001" d="M223.665,29.273c-4.704,0-8.33,2.549-9.899,6.272c-0.98,2.255-1.176,3.726-1.274,6.764
		h22.347c-0.099-3.038-0.391-4.509-1.373-6.764C231.898,31.822,228.369,29.273,223.665,29.273z"/>
	<path fill="#800000018000000180000001" d="M74,29.273c-4.706,0-8.331,2.549-9.899,6.272c-0.979,2.255-1.177,3.726-1.275,6.764
		h22.347c-0.098-3.038-0.392-4.509-1.371-6.764C82.233,31.822,78.705,29.273,74,29.273z"/>
	<path fill="#800000018000000180000001" d="M178.678,42.014l-7.841-0.684c-5.293-0.491-6.863-2.745-6.863-5.685
		c0-3.725,3.038-6.371,9.018-6.371c4.705,0,9.116,0.98,12.253,3.627l6.272-6.37c-4.607-4.019-10.977-5.588-18.426-5.588
		c-10.391,0-18.721,5.488-18.721,15.193c0,8.723,5.39,12.939,14.701,13.722l7.939,0.686c4.803,0.39,6.664,2.548,6.664,5.879
		c0,4.705-4.801,6.861-10.88,6.861c-4.9,0-10.29-1.077-14.309-5.192l-6.565,6.565c5.879,5.783,12.74,7.153,20.874,7.153
		c11.861,0,20.681-5.39,20.681-15.778C193.477,47.21,187.988,42.798,178.678,42.014z"/>
	<path fill="#800000018000000180000001" d="M129.769,42.014l-7.841-0.684c-5.293-0.491-6.861-2.745-6.861-5.685
		c0-3.725,3.038-6.371,9.017-6.371c4.705,0,9.114,0.98,12.25,3.627l6.274-6.37c-4.606-4.019-10.976-5.588-18.428-5.588
		c-10.387,0-18.721,5.488-18.721,15.193c0,8.723,5.393,12.939,14.705,13.722l7.937,0.686c4.803,0.39,6.664,2.548,6.664,5.879
		c0,4.705-4.802,6.861-10.878,6.861c-4.901,0-10.292-1.077-14.311-5.192l-6.567,6.565c5.882,5.783,12.741,7.153,20.878,7.153
		c11.859,0,20.68-5.39,20.68-15.778C144.568,47.21,139.081,42.798,129.769,42.014z"/>
	<path fill="#800000018000000180000001" d="M74,20.942c-12.741,0-21.074,9.311-21.074,25.386c0,18.918,9.899,25.482,22.349,25.482
		c8.722,0,13.525-2.644,18.622-7.739l-6.371-5.979c-3.529,3.527-6.469,5.094-12.055,5.094c-8.137,0-12.645-5.39-12.645-13.917
		h32.247v-4.411C95.073,30.742,87.331,20.942,74,20.942z M62.826,42.309c0.099-3.038,0.296-4.509,1.275-6.764
		c1.568-3.723,5.193-6.272,9.899-6.272c4.705,0,8.233,2.549,9.802,6.272c0.979,2.255,1.273,3.726,1.371,6.764H62.826z"/>
	<path fill="#800000018000000180000001" d="M381.171,29.862c3.921,0,6.371,1.273,9.508,4.705l6.861-6.667
		c-4.704-4.999-9.509-6.959-16.369-6.959c-11.172,0-22.15,6.763-22.15,25.386c0,18.622,10.978,25.482,22.15,25.482
		c6.86,0,11.665-2.056,16.369-7.056l-6.861-6.565c-3.137,3.429-5.587,4.705-9.508,4.705c-3.821,0-7.057-1.569-9.214-4.412
		c-2.157-2.746-2.94-6.373-2.94-12.154c0-5.781,0.784-9.312,2.94-12.055C374.114,31.43,377.349,29.862,381.171,29.862z"/>
	<path fill="#800000018000000180000001" d="M223.665,20.942c-12.742,0-21.072,9.311-21.072,25.386
		c0,18.918,9.899,25.482,22.346,25.482c8.723,0,13.525-2.644,18.623-7.739l-6.37-5.979c-3.529,3.527-6.468,5.094-12.057,5.094
		c-8.133,0-12.642-5.39-12.642-13.917h32.247v-4.411C244.738,30.742,236.995,20.942,223.665,20.942z M212.492,42.309
		c0.098-3.038,0.293-4.509,1.274-6.764c1.569-3.723,5.196-6.272,9.899-6.272c4.704,0,8.233,2.549,9.801,6.272
		c0.981,2.255,1.274,3.726,1.373,6.764H212.492z"/>
	<path fill="#800000018000000180000001" d="M480.36,20.942c-8.234,0-13.134,1.667-17.84,7.155l6.568,6.175
		c2.745-3.529,5.391-4.802,10.879-4.802c7.742,0,10.88,3.039,10.88,9.31v3.529h-13.135c-11.369,0-17.152,5.98-17.152,14.308
		c0,4.216,1.374,8.038,3.921,10.683c3.039,3.039,7.156,4.509,13.33,4.509c6.175,0,9.607-1.47,13.233-5.094v4.509h9.802V37.996
		C500.845,26.724,493.984,20.942,480.36,20.942z M490.848,53.286c0,3.529-0.686,5.882-2.157,7.352
		c-2.646,2.547-5.489,2.843-9.311,2.843c-6.273,0-9.116-2.55-9.116-7.059s3.038-7.154,8.919-7.154h11.664V53.286z"/>
	<path fill="#800000018000000180000001" d="M334.614,42.014l-7.84-0.684c-5.294-0.491-6.862-2.745-6.862-5.685
		c0-3.725,3.039-6.371,9.017-6.371c4.705,0,9.116,0.98,12.252,3.627l6.273-6.37c-4.606-4.019-10.977-5.588-18.425-5.588
		c-10.391,0-18.723,5.488-18.723,15.193c0,8.723,5.392,12.939,14.703,13.722l7.938,0.686c4.802,0.39,6.665,2.548,6.665,5.879
		c0,4.705-4.802,6.861-10.88,6.861c-4.901,0-10.29-1.077-14.309-5.192l-6.566,6.565c5.88,5.783,12.741,7.153,20.875,7.153
		c11.86,0,20.682-5.39,20.682-15.778C349.416,47.21,343.925,42.798,334.614,42.014z"/>
	<path fill="#800000018000000180000001" d="M10.453,0.175l-0.001,22.416c0,0,7.175-1.467,13.485-1.404
		c10.483,0.103,15.733,5.636,16.105,12.856c0.093,1.835,0.075,2.848,0.075,4.821v32.36H29.059V38.243
		c0-3.651,0.235-8.181-8.117-8.142c-5.949,0.028-10.152,1.147-10.152,1.147v39.976H0V0.849L10.453,0.175z"/>
	<path fill="#800000018000000180000001" d="M419.262,0.175l-0.003,22.416c0,0,7.179-1.467,13.488-1.404
		c10.482,0.103,15.733,5.636,16.107,12.856c0.093,1.835,0.072,2.848,0.072,4.821v32.36h-11.058V38.243
		c0-3.651,0.235-8.181-8.117-8.142c-5.95,0.028-10.152,1.147-10.152,1.147v39.976h-10.79V0.849L419.262,0.175z"/>
	<path fill="#800000018000000180000001" d="M670.414,42.307h-22.346c0.096-3.036,0.294-4.509,1.274-6.762
		c1.567-3.726,5.193-6.273,9.899-6.273c4.704,0,8.233,2.547,9.801,6.273C670.023,37.798,670.318,39.272,670.414,42.307
		 M680.315,49.266v-4.409c0-14.115-7.744-23.916-21.073-23.916c-12.742,0-21.073,9.312-21.073,25.387
		c0,18.915,9.9,25.482,22.348,25.482c8.724,0,13.526-2.647,18.622-7.742l-6.371-5.979c-3.527,3.529-6.467,5.097-12.056,5.097
		c-8.136,0-12.643-5.39-12.643-13.919H680.315z"/>
	<path fill="#800000018000000180000001" d="M571.411,71.809c3.348,0,5.809-2.362,5.809-6.006c0-3.445-2.462-5.906-5.809-5.906
		c-3.348,0-5.811,2.461-5.811,5.906C565.6,69.447,568.063,71.809,571.411,71.809"/>
	<path fill="#800000018000000180000001" d="M627.957,45.686L627.954,0h-10.187v25.569c-3.696-4.393-7.892-5.692-13.284-5.692
		c-5.095,0-9.488,1.697-12.285,4.494c-5.095,5.095-5.695,13.685-5.695,21.376c0,7.69,0.6,16.378,5.695,21.472
		c2.701,2.702,6.987,4.372,11.864,4.485c1.02,0.069,2.099,0.105,3.245,0.105c1.234,0,2.388-0.044,3.477-0.124
		c1.398-0.049,2.736-0.228,3.998-0.523c0.377-0.078,0.733-0.173,1.067-0.282c2.575-0.763,4.782-2.025,6.429-3.674
		c4.697-4.694,5.566-12.453,5.672-19.664C627.949,47.542,627.958,45.697,627.957,45.686z M607.28,28.967
		c9.189,0,10.487,7.788,10.487,16.78c0,6.458-0.67,12.348-4.456,15.152c-1.481,1.092-3.437,1.713-6.014,1.713
		c-0.036,0-0.063-0.005-0.098-0.005v0.014c-9.116-0.048-10.507-7.915-10.507-16.875C596.692,36.756,598.089,28.967,607.28,28.967z"
		/>
	<g>
		<path fill="#800000018000000180000001" d="M555.357,21.5v31.712c0,5.577,1.483,18.594-20.142,18.594
			c-21.628,0-20.142-13.017-20.142-18.594V21.5h10v30.239c0,7.569,3.274,10.957,10.142,11.058
			c7.438-0.206,10.146-3.489,10.146-11.058V21.5H555.357z"/>
	</g>
	<g>
		<path fill="#800000018000000180000001" d="M257.01,71.224V39.498c0-5.58-1.483-18.602,20.151-18.602
			c21.638,0,20.15,13.022,20.15,18.602v31.726h-10.004V40.972c0-7.572-3.277-10.962-10.146-11.062
			c-7.442,0.206-10.15,3.49-10.15,11.062v30.253H257.01z"/>
	</g>
</g>
</svg>
