<?xml version="1.0" encoding="utf-8"?>
<!-- Generator: Adobe Illustrator 18.1.1, SVG Export Plug-In . SVG Version: 6.00 Build 0)  -->
<svg version="1.1" id="Ebene_3" xmlns="http://www.w3.org/2000/svg" xmlns:xlink="http://www.w3.org/1999/xlink" x="0px" y="0px"
	 width="88px" height="88px" viewBox="0 0 88 88" enable-background="new 0 0 88 88" xml:space="preserve">
<path d="M0,0v88l88,0V0H0z M69.8,25L45.9,49.6c-0.8,0.8-2.3,0.7-3.1-0.1L18.9,25H69.8z M16,27.1l16.2,16.6L16,60.2V27.1z M18.4,62
	l16-16.2l6.1,6.4c1,1.1,2.4,1.7,3.9,1.7c1.5,0,2.9-0.6,3.9-1.7l6.1-6.4l16,16.2H18.4z M73,60.2L56.8,43.6L73,27.1V60.2z"/>
</svg>
