<?xml version="1.0" encoding="utf-8"?>
<!-- Generator: Adobe Illustrator 27.5.0, SVG Export Plug-In . SVG Version: 6.00 Build 0)  -->
<svg version="1.1" id="Ebene_1" xmlns="http://www.w3.org/2000/svg" xmlns:xlink="http://www.w3.org/1999/xlink" x="0px" y="0px"
	 viewBox="0 0 32 32" style="enable-background:new 0 0 32 32;" xml:space="preserve">
<path d="M11,19.7h13.2v0.9H11V19.7z M24.2,16.9H11v0.9h13.2V16.9L24.2,16.9z M24.2,11.4h-5.9v0.9h5.9V11.4z M24.2,14.2h-5.9v0.9h5.9
	V14.2z M7.3,6.8v15.8c0,0.7-1.5,0.7-1.5,0V8.8H4v14.5c0,1.1,0.8,1.9,1.9,1.9h20.2c1.1,0,1.9-0.8,1.9-1.9V6.8H7.3z M26.1,23.2H9.2
	V8.8h16.9V23.2z M16.5,11.4H11v3.7h5.5V11.4z"/>
</svg>
