<?xml version="1.0" encoding="UTF-8"?>
<svg id="news" xmlns="http://www.w3.org/2000/svg" viewBox="0 0 320 320">
  <defs>
    <style>
      .cls-1, .cls-2 {
        fill: #fff;
      }

      .cls-2 {
        fill-rule: evenodd;
      }
    </style>
  </defs>
  <path class="cls-1" d="m274.68,80H78.64c-16.89,0-30.64,13.82-30.64,30.81v131.55c0,16.99,13.74,30.81,30.64,30.81h196.05c16.89,0,30.64-13.82,30.64-30.81V110.81c0-16.99-13.74-30.81-30.64-30.81Zm10.64,162.37c0,5.96-4.77,10.81-10.64,10.81H78.64c-5.86,0-10.64-4.85-10.64-10.81V110.81c0-5.96,4.77-10.81,10.64-10.81h196.05c5.87,0,10.64,4.85,10.64,10.81v131.55Z"/>
  <rect class="cls-1" x="84" y="124" width="85" height="46" rx="10" ry="10"/>
  <path class="cls-2" d="m92,184h169c4.42,0,8,3.58,8,8h0c0,4.42-3.58,8-8,8H92c-4.42,0-8-3.58-8-8h0c0-4.42,3.58-8,8-8Z"/>
  <path class="cls-2" d="m192,154h69c4.42,0,8,3.58,8,8h0c0,4.42-3.58,8-8,8h-69c-4.42,0-8-3.58-8-8h0c0-4.42,3.58-8,8-8Z"/>
  <path class="cls-2" d="m192,124h69c4.42,0,8,3.58,8,8h0c0,4.42-3.58,8-8,8h-69c-4.42,0-8-3.58-8-8h0c0-4.42,3.58-8,8-8Z"/>
  <path class="cls-2" d="m92,214h169c4.42,0,8,3.58,8,8h0c0,4.42-3.58,8-8,8H92c-4.42,0-8-3.58-8-8h0c0-4.42,3.58-8,8-8Z"/>
  <path class="cls-1" d="m32.54,106.16c.05-10.31,5.15-19.93,13.62-25.71l-13.62,1.98c-11.2,1.71-18.94,12.21-17.33,23.52l17.33,122.91v-122.7Z"/>
  <path class="cls-1" d="m266.62,64.88c.79-.05,1.58-.05,2.37,0l-.62-4.48c-1.85-11.22-12.28-18.86-23.42-17.17l-150.85,21.65h172.52Z"/>
</svg>