<?xml version="1.0" encoding="UTF-8"?><svg id="Ebene_1" xmlns="http://www.w3.org/2000/svg" xmlns:xlink="http://www.w3.org/1999/xlink" viewBox="0 0 48 48"><defs><style>.cls-1{fill:none;}.cls-2{clip-path:url(#clippath);}.cls-3{fill:#005293;}.cls-4{fill:#fff;}</style><clipPath id="clippath"><rect class="cls-1" width="48" height="48"/></clipPath></defs><path id="Pfad_578" class="cls-4" d="M23.72,1.21c12.44,0,22.52,10.08,22.52,22.52s-10.08,22.52-22.52,22.52c-3.46-.01-6.87-.81-9.97-2.32C2.6,38.41-1.97,24.9,3.54,13.75,7.33,6.07,15.16,1.21,23.72,1.21Z"/><g class="cls-2"><g id="Gruppe_2640"><path id="Pfad_672" class="cls-4" d="M24,0C10.75,0,0,10.75,0,24s10.75,24,24,24,24-10.75,24-24S37.25,0,24,0m0,45.6c-11.93,0-21.6-9.67-21.6-21.6S12.07,2.4,24,2.4s21.6,9.67,21.6,21.6h0c0,11.93-9.67,21.6-21.6,21.6"/></g></g><path id="Pfad_786" class="cls-3" d="M24,0C10.75,0,0,10.75,0,24s10.75,24,24,24,24-10.75,24-24S37.25,0,24,0m0,45.6c-11.93,0-21.6-9.67-21.6-21.6S12.07,2.4,24,2.4s21.6,9.67,21.6,21.6h0c0,11.93-9.67,21.6-21.6,21.6"/><g id="Gruppe_3432"><path id="Pfad_787" class="cls-3" d="M28.37,16.71v15.21c0,.47-.63,.86-1.41,.86s-1.41-.39-1.41-.86v-15.21c0-.47,.63-.86,1.41-.86s1.41,.39,1.41,.86Z"/><path id="Pfad_788" class="cls-3" d="M21.88,16.71v15.21c0,.47-.63,.86-1.41,.86s-1.41-.39-1.41-.86v-15.21c0-.47,.63-.86,1.41-.86s1.41,.39,1.41,.86Z"/></g></svg>