<?xml version="1.0" encoding="utf-8"?>
<!-- Generator: Adobe Illustrator 17.0.1, SVG Export Plug-In . SVG Version: 6.00 Build 0)  -->
<!DOCTYPE svg PUBLIC "-//W3C//DTD SVG 1.1//EN" "http://www.w3.org/Graphics/SVG/1.1/DTD/svg11.dtd">
<svg version="1.1" id="Ebene_1" xmlns="http://www.w3.org/2000/svg" xmlns:xlink="http://www.w3.org/1999/xlink" x="0px" y="0px"
	 width="44px" height="44px" viewBox="0 0 44 44" enable-background="new 0 0 44 44" xml:space="preserve">
<g id="pause">
	<path fill="currentColor" d="M30.375,34.083c0,0.552-0.527,1-1.176,1h-2.647c-0.65,0-1.176-0.448-1.176-1v-24c0-0.552,0.527-1,1.176-1
		h2.647c0.65,0,1.176,0.448,1.176,1V34.083z"/>
	<path fill="currentColor" d="M18.608,34.033c0,0.552-0.527,1-1.176,1h-2.647c-0.65,0-1.176-0.448-1.176-1v-24c0-0.552,0.527-1,1.176-1
		h2.647c0.65,0,1.176,0.448,1.176,1V34.033z"/>
</g>
</svg>
