<?xml version="1.0" encoding="utf-8"?>
<!-- Generator: Adobe Illustrator 26.5.0, SVG Export Plug-In . SVG Version: 6.00 Build 0)  -->
<svg version="1.1" id="Ebene_1" xmlns="http://www.w3.org/2000/svg" xmlns:xlink="http://www.w3.org/1999/xlink" x="0px" y="0px"
	 viewBox="0 0 48 48" style="enable-background:new 0 0 48 48;" xml:space="preserve">
<style type="text/css">
	.st0{fill:#FFFFFF;}
	.st1{fill:#1D1D1B;}
</style>
<circle class="st0" cx="24" cy="24" r="24"/>
<path id="Pfad_786" class="st1" d="M24,0C10.7,0,0,10.7,0,24s10.7,24,24,24s24-10.7,24-24S37.3,0,24,0 M24,45.6
	C12.1,45.6,2.4,35.9,2.4,24S12.1,2.4,24,2.4S45.6,12.1,45.6,24v0C45.6,35.9,35.9,45.6,24,45.6"/>
<g>
	<path class="st1" d="M27,15.9c-0.8,0-1.4,0.4-1.4,0.9v15.2c0,0.5,0.6,0.9,1.4,0.9c0.8,0,1.4-0.4,1.4-0.9V16.7
		C28.4,16.2,27.7,15.9,27,15.9z"/>
	<path class="st1" d="M20.5,15.9c-0.8,0-1.4,0.4-1.4,0.9v15.2c0,0.5,0.6,0.9,1.4,0.9c0.8,0,1.4-0.4,1.4-0.9V16.7
		C21.9,16.2,21.3,15.9,20.5,15.9z"/>
</g>
</svg>
