<svg xmlns="http://www.w3.org/2000/svg" xml:space="preserve" width="100" height="76.3" viewBox="0 0 100 76.3">
  <path fill-rule="evenodd" d="M1.5 72h29v-9.7h-29V72zm0-19.4h29v-9.7h-29v9.7zm58-29h-58v9.7h58v-9.7zm0-19.3h-58V14h58V4.3zM95 23.6c-2.5-3.5-8.2-5.9-12.2-9.5-5.2-4.7-5.3-9.4-6-13.1h-3.7v57.2c-1.8-1.3-3.7-1.6-7.2-1.6-4 0-8.8 1.5-12.7 3.8-3.8 2.2-6.6 5.3-6.6 8.3 0 1.9 1.1 3.6 3 4.7 1.8 1.1 4.4 1.8 7.2 1.8 4.4 0 9.4-1.3 13.3-3.6 3.9-2.2 6.6-5.3 6.6-8.6V20.9c5.6.3 9.8 3.3 11.8 5.9 3.3 4.5 3.5 7.2 3.6 11.1.1 7.3-1.5 11.5-3.9 15.5h1.6c3.4-4.2 7.8-9.3 8.4-17 .3-3.7.4-7.7-3.2-12.8z" clip-rule="evenodd"/>
</svg>
