<?xml version="1.0" encoding="UTF-8"?><svg id="Ebene_1" xmlns="http://www.w3.org/2000/svg" xmlns:xlink="http://www.w3.org/1999/xlink" viewBox="0 0 48 48"><defs><style>.cls-1{fill:none;}.cls-2{clip-path:url(#clippath);}.cls-3{fill:#005293;}.cls-4{fill:#fff;}</style><clipPath id="clippath"><rect class="cls-1" width="48" height="48"/></clipPath></defs><g id="Play_und_Pause_Icon-2"><path id="Pfad_578-2" class="cls-3" d="M23.72,1.21c12.44,0,22.52,10.08,22.52,22.52s-10.08,22.52-22.52,22.52c-3.46-.01-6.87-.81-9.97-2.32C2.6,38.41-1.97,24.9,3.54,13.75,7.33,6.07,15.16,1.21,23.72,1.21Z"/><g class="cls-2"><g id="Gruppe_2640-2"><path id="Pfad_672-2" class="cls-4" d="M24,0C10.75,0,0,10.75,0,24s10.75,24,24,24,24-10.75,24-24S37.25,0,24,0m0,45.6c-11.93,0-21.6-9.67-21.6-21.6S12.07,2.4,24,2.4s21.6,9.67,21.6,21.6h0c0,11.93-9.67,21.6-21.6,21.6"/></g></g><path id="Pfad_783-2" class="cls-4" d="M33.39,22.66l-13.75-7.67c-.51-.28-1.15-.1-1.43,.41-.09,.16-.13,.33-.13,.51l-.04,15.63c0,.58,.47,1.05,1.05,1.06,.19,0,.37-.05,.53-.14l13.79-7.96c.5-.29,.68-.93,.39-1.44-.1-.17-.23-.3-.4-.39"/></g></svg>