<?xml version="1.0" encoding="utf-8"?>
<!-- Generator: Adobe Illustrator 19.2.0, SVG Export Plug-In . SVG Version: 6.00 Build 0)  -->
<svg version="1.1" id="Ebene_2" xmlns="http://www.w3.org/2000/svg" xmlns:xlink="http://www.w3.org/1999/xlink" x="0px" y="0px"
	 width="100px" height="76.3px" viewBox="0 0 100 76.3" style="enable-background:new 0 0 100 76.3;" xml:space="preserve">
<style type="text/css">
	.st0{fill-rule:evenodd;clip-rule:evenodd;}
</style>
<g>
	<g>
		<path class="st0" d="M1.5,72h29v-9.7h-29V72z M1.5,52.6h29v-9.7h-29V52.6z M59.5,23.6h-58v9.7h58V23.6z M59.5,4.3h-58v9.7h58V4.3z
			 M95,23.6c-2.5-3.5-8.2-5.9-12.2-9.5c-5.2-4.7-5.3-9.4-6-13.1l-3.7,0v57.2c-1.8-1.3-3.7-1.6-7.2-1.6c-4,0-8.8,1.5-12.7,3.8
			c-3.8,2.2-6.6,5.3-6.6,8.3c0,1.9,1.1,3.6,3,4.7c1.8,1.1,4.4,1.8,7.2,1.8c4.4,0,9.4-1.3,13.3-3.6c3.9-2.2,6.6-5.3,6.6-8.6V20.9
			c5.6,0.3,9.8,3.3,11.8,5.9c3.3,4.5,3.5,7.2,3.6,11.1c0.1,7.3-1.5,11.5-3.9,15.5h1.6c3.4-4.2,7.8-9.3,8.4-17
			C98.5,32.7,98.6,28.7,95,23.6z"/>
	</g>
</g>
</svg>
