<?xml version="1.0" encoding="utf-8"?>
<!-- Generator: Adobe Illustrator 26.3.1, SVG Export Plug-In . SVG Version: 6.00 Build 0)  -->
<svg version="1.1" id="Ebene_1" xmlns="http://www.w3.org/2000/svg" xmlns:xlink="http://www.w3.org/1999/xlink" x="0px" y="0px"
	 viewBox="0 0 40 40" style="enable-background:new 0 0 40 40;" xml:space="preserve">
<g>
	<path id="hintergrund2" fill="currentColor" d="M20,1.6C9.9,1.6,1.6,9.9,1.6,20S9.9,38.4,20,38.4S38.4,30.1,38.4,20S30.1,1.6,20,1.6z"/>
	<path id="ring" d="M20,0C9,0,0,9,0,20s9,20,20,20s20-9,20-20S31,0,20,0z M20,38c-9.9,0-18-8.1-18-18S10.1,2,20,2s18,8.1,18,18
		S29.9,38,20,38z"/>
	<path id="dreieck" d="M27.9,19l-11.4-6.3c-0.4-0.2-1-0.1-1.2,0.3c-0.1,0.1-0.1,0.3-0.1,0.4v12.9c0,0.5,0.4,0.9,0.9,0.9
		c0.2,0,0.3,0,0.4-0.1L28,20.6c0.4-0.2,0.6-0.8,0.3-1.2C28.2,19.2,28.1,19.1,27.9,19z"/>
</g>
</svg>
