<?xml version="1.0" encoding="utf-8"?>
<!-- Generator: Adobe Illustrator 26.5.0, SVG Export Plug-In . SVG Version: 6.00 Build 0)  -->
<svg version="1.1" id="Ebene_1" xmlns="http://www.w3.org/2000/svg" xmlns:xlink="http://www.w3.org/1999/xlink" x="0px" y="0px"
	 viewBox="0 0 48 48" style="enable-background:new 0 0 48 48;" xml:space="preserve">
<style type="text/css">
	.st0{fill:#FFFFFF;}
	.st1{fill:#1D1D1B;}
</style>
<circle class="st0" cx="24" cy="24" r="24"/>
<path id="Pfad_672-2" class="st1" d="M24,0C10.7,0,0,10.7,0,24s10.7,24,24,24s24-10.7,24-24S37.3,0,24,0 M24,45.6
	C12.1,45.6,2.4,35.9,2.4,24S12.1,2.4,24,2.4S45.6,12.1,45.6,24v0C45.6,35.9,35.9,45.6,24,45.6"/>
<path id="Pfad_783-2" class="st1" d="M33.4,22.7L19.6,15c-0.5-0.3-1.2-0.1-1.4,0.4c-0.1,0.2-0.1,0.3-0.1,0.5l0,15.6
	c0,0.6,0.5,1.1,1.1,1.1c0.2,0,0.4,0,0.5-0.1l13.8-8c0.5-0.3,0.7-0.9,0.4-1.4C33.7,22.9,33.6,22.7,33.4,22.7"/>
</svg>
