<?xml version="1.0" encoding="UTF-8"?>
<svg id="playlist" xmlns="http://www.w3.org/2000/svg" viewBox="0 0 298 228">
  <path id="playlist-2" data-name="playlist" d="m164.49,10.14H14C6.27,10.14,0,16.41,0,24.14v1.81c0,7.73,6.27,14,14,14h150.49c7.73,0,14-6.27,14-14v-1.81c0-7.73-6.27-14-14-14Zm0,58.95H14c-7.73,0-14,6.27-14,14v1.81c0,7.73,6.27,14,14,14h150.49c7.73,0,14-6.27,14-14v-1.81c0-7.73-6.27-14-14-14Zm-74.5,58.95H14c-7.73,0-14,6.27-14,14v1.81c0,7.73,6.27,14,14,14h75.99c7.73,0,14-6.27,14-14v-1.81c0-7.73-6.27-14-14-14Zm0,58.95H14c-7.73,0-14,6.27-14,14v1.81c0,7.73,6.27,14,14,14h75.99c7.73,0,14-6.27,14-14v-1.81c0-7.73-6.27-14-14-14Zm197.75-117.53c-7.69-10.75-25.24-18.13-37.55-29.19-16-14.44-16.31-28.88-18.46-40.25h-11.39v175.76c-5.54-3.99-11.39-4.92-22.16-4.92-12.31,0-27.08,4.61-39.08,11.68-11.69,6.76-20.31,16.29-20.31,25.5,0,5.84,3.39,11.06,9.23,14.44,5.54,3.38,13.54,5.53,22.16,5.53,13.54,0,28.93-3.99,40.93-11.06,12-6.76,20.31-16.29,20.31-26.43V61.15c17.23.92,30.16,10.14,36.31,18.13,10.16,13.83,10.77,22.12,11.08,34.11.31,22.43-4.62,35.34-12,47.63h4.92c10.46-12.91,24-28.58,25.85-52.24.92-11.37,1.23-23.66-9.85-39.33Z"/>
</svg>