<?xml version="1.0" encoding="utf-8"?>
<!-- Generator: Adobe Illustrator 26.3.1, SVG Export Plug-In . SVG Version: 6.00 Build 0)  -->
<svg version="1.1" id="Ebene_1" xmlns="http://www.w3.org/2000/svg" xmlns:xlink="http://www.w3.org/1999/xlink" x="0px" y="0px"
	 viewBox="0 0 40 40" style="enable-background:new 0 0 40 40;" xml:space="preserve">
<style type="text/css">
	.st0{fill:#005293;}
	.st1{fill:#FFFFFF;}
</style>
<g>
	<path fill="currentColor" d="M20,2C10.1,2,2,10.1,2,20c0,9.9,8.1,18,18,18s18-8.1,18-18C38,10.1,29.9,2,20,2z M11.7,17.8
		c0-4.7,3.8-8.4,8.4-8.4c4.7,0,8.4,3.8,8.4,8.4c0,2.7-1.3,5.1-3.3,6.7l-0.9-1.6c1.4-1.2,2.3-3,2.3-5c0-3.6-3-6.6-6.6-6.6
		c-3.6,0-6.6,3-6.6,6.6c0,2.1,1,4,2.5,5.2l-0.9,1.7C13,23.1,11.7,20.6,11.7,17.8z M20.1,14.9c-1.6,0-3,1.3-3,3
		c0,0.7,0.2,1.3,0.6,1.8l-0.8,1.6c-1-0.9-1.6-2.1-1.6-3.6c0-2.7,2.2-4.8,4.8-4.8c2.7,0,4.8,2.2,4.8,4.8c0,1.3-0.6,2.6-1.5,3.4
		l-0.9-1.6c0.3-0.5,0.5-1.1,0.5-1.7C23.1,16.2,21.8,14.9,20.1,14.9z M24.9,30.1h-9.2c-0.7,0-1.1-0.7-0.8-1.3l4.5-9.7c0,0,0,0,0,0
		c-0.5-0.3-0.8-0.8-0.8-1.3c0-0.9,0.7-1.6,1.6-1.6c0.9,0,1.6,0.7,1.6,1.6c0,0.6-0.3,1.1-0.8,1.3c0,0,0,0,0,0l4.7,9.7
		C26,29.4,25.5,30.1,24.9,30.1z"/>
	<path class="st1" d="M20,0C9,0,0,9,0,20c0,11,9,20,20,20s20-9,20-20C40,9,31,0,20,0z M20,38c-9.9,0-18-8.1-18-18
		c0-9.9,8.1-18,18-18s18,8.1,18,18C38,29.9,29.9,38,20,38z"/>
	<path class="st1" d="M16,23c-1.5-1.2-2.5-3.1-2.5-5.2c0-3.6,3-6.6,6.6-6.6c3.6,0,6.6,3,6.6,6.6c0,2-0.9,3.8-2.3,5l0.9,1.6
		c2-1.5,3.3-3.9,3.3-6.7c0-4.7-3.8-8.4-8.4-8.4c-4.7,0-8.4,3.8-8.4,8.4c0,2.8,1.4,5.3,3.5,6.8L16,23z"/>
	<path class="st1" d="M22.6,19.6l0.9,1.6c0.9-0.9,1.5-2.1,1.5-3.4c0-2.7-2.2-4.8-4.8-4.8c-2.7,0-4.8,2.2-4.8,4.8
		c0,1.4,0.6,2.7,1.6,3.6l0.8-1.6c-0.4-0.5-0.6-1.1-0.6-1.8c0-1.7,1.3-3,3-3c1.7,0,3,1.3,3,3C23.1,18.5,22.9,19.1,22.6,19.6z"/>
	<path class="st1" d="M25.6,28.8l-4.7-9.7c0,0,0,0,0,0c0.5-0.3,0.8-0.8,0.8-1.3c0-0.9-0.7-1.6-1.6-1.6c-0.9,0-1.6,0.7-1.6,1.6
		c0,0.6,0.3,1.1,0.8,1.3c0,0,0,0,0,0l-4.5,9.7c-0.3,0.6,0.1,1.3,0.8,1.3h9.2C25.5,30.1,26,29.4,25.6,28.8z"/>
</g>
</svg>
