<?xml version="1.0" encoding="UTF-8"?>
<svg width="320px" height="320px" viewBox="0 0 320 320" version="1.1" xmlns="http://www.w3.org/2000/svg" xmlns:xlink="http://www.w3.org/1999/xlink">
    <title>Podcast@1x</title>
    <g id="Podcast" stroke="none" stroke-width="1" fill="none" fill-rule="evenodd">
        <g id="podcast" transform="translate(-5, -14)">
            <g id="Group-7" transform="translate(165, 165) rotate(134) translate(-165, -165)translate(48.3096, 48.3096)" stroke="#000000" stroke-width="20">
                <path d="M181.480072,100.320272 C182.75621,105.484876 183.433243,110.885686 183.433243,116.444896 C183.433243,153.441457 153.441457,183.433243 116.444896,183.433243 C79.4468266,183.433243 49.4550409,153.441457 49.4550409,116.444896 C49.4550409,79.4468266 79.4468266,49.4550409 116.444896,49.4550409 C122.902902,49.4550409 129.14743,50.3691224 135.056422,52.07484" id="Stroke-3"></path>
                <path d="M230.01678,88.7587761 C232.214971,97.7081966 233.380783,107.063585 233.380783,116.691232 C233.380783,181.137202 181.137202,233.380783 116.691232,233.380783 C52.2452624,233.380783 0,181.137202 0,116.691232 C0,52.2435807 52.2452624,0 116.691232,0 C127.863138,0 138.668371,1.5700947 148.898382,4.50173502" id="Stroke-5"></path>
            </g>
            <circle id="Oval" fill="#000000" cx="165.87671" cy="165.87671" r="22.5"></circle>
            <path d="M127.929689,304.715242 L202.319941,304.715242 C206.694036,304.715242 210.239941,301.169337 210.239941,296.795242 C210.239941,295.402404 209.872625,294.034198 209.175045,292.828637 L171.98098,228.549682 C169.790285,224.763712 164.945241,223.470487 161.159271,225.661182 C159.960484,226.354842 158.96456,227.350742 158.27087,228.549512 L121.074683,292.828468 C118.883894,296.614383 120.177,301.459459 123.962915,303.650248 C125.168517,304.347891 126.536785,304.715242 127.929689,304.715242 Z" id="Path" fill="#000000" fill-rule="nonzero"></path>
        </g>
    </g>
</svg>