<?xml version="1.0" encoding="utf-8"?>
<!-- Generator: Adobe Illustrator 19.2.0, SVG Export Plug-In . SVG Version: 6.00 Build 0)  -->
<svg version="1.1" xmlns="http://www.w3.org/2000/svg" xmlns:xlink="http://www.w3.org/1999/xlink" x="0px" y="0px"
	 viewBox="0 0 148.5 140.5" enable-background="new 0 0 148.5 140.5" xml:space="preserve">
<g id="Ebene_5">
	<g>
		<path fill="currentColor" d="M66.943,72.651c0,4.079,3.272,7.381,7.309,7.381c4.037,0,7.309-3.302,7.309-7.381
			s-3.268-7.385-7.309-7.385C70.215,65.266,66.943,68.572,66.943,72.651L66.943,72.651z"/>
		<path fill="currentColor" d="M84.442,89.007l4.122,7.169c7.836-4.874,13.101-13.543,13.101-23.521
			c0-15.294-12.268-27.698-27.413-27.698c-15.136,0-27.413,12.404-27.413,27.698c0,9.978,5.265,18.646,13.097,23.521l4.135-6.735
			c-5.384-3.217-9.03-10.012-9.03-16.785c0-10.199,9.119-19.411,19.212-19.411c10.097,0,19.212,9.213,19.212,19.411
			C93.464,79.425,89.809,85.799,84.442,89.007L84.442,89.007z"/>
		<path fill="currentColor" d="M74.252,26.485c-25.233,0-45.69,20.669-45.69,46.166c0,16.382,8.507,30.689,21.239,38.878l4.084-6.735
			c-10.279-6.536-17.125-18.961-17.125-32.143c0-20.393,17.304-37.879,37.488-37.879s37.488,17.482,37.488,37.879
			c0,13.182-6.897,25.616-17.172,32.143l4.135,6.735c12.731-8.189,21.239-22.496,21.239-38.878
			C119.942,47.155,99.489,26.485,74.252,26.485L74.252,26.485z"/>
		<path fill="currentColor" d="M56.718,121.733h35.067L74.252,91.119L56.718,121.733z"/>
	</g>
</g>
<g id="Ebene_2">
</g>
</svg>
