<?xml version="1.0" encoding="UTF-8"?>
<svg id="podcast" xmlns="http://www.w3.org/2000/svg" viewBox="0 0 320 320">
  <defs>
    <style>
      .cls-1 {
        fill: #fff;
      }
    </style>
  </defs>
  <circle class="cls-1" cx="160.88" cy="151.88" r="22.5"/>
  <path class="cls-1" d="m166.98,214.55c-2.19-3.79-7.04-5.08-10.82-2.89-1.2.69-2.19,1.69-2.89,2.89l-37.2,64.28c-2.19,3.79-.9,8.63,2.89,10.82,1.21.7,2.57,1.07,3.97,1.07h74.39c4.37,0,7.92-3.55,7.92-7.92,0-1.39-.37-2.76-1.06-3.97l-37.19-64.28Z"/>
  <path class="cls-1" d="m188.74,200.43l9.97,17.34c6.25-3.59,11.98-8.07,17.02-13.29,14.29-14.79,21.96-34.26,21.6-54.83-.36-20.56-8.7-39.75-23.5-54.04-14.79-14.29-34.28-21.97-54.82-21.6-20.56.36-39.75,8.7-54.04,23.5-29.49,30.54-28.64,79.37,1.9,108.86,4.5,4.35,9.51,8.13,14.88,11.25l10.04-17.3c-3.98-2.31-7.69-5.11-11.03-8.34-22.6-21.83-23.23-57.98-1.41-80.58,10.57-10.95,24.78-17.13,40-17.39,15.21-.25,29.63,5.41,40.58,15.99s17.13,24.78,17.39,40-5.41,29.63-15.99,40.58c-3.74,3.87-7.98,7.19-12.6,9.85Z"/>
  <path class="cls-1" d="m248.01,59.87c-24.34-23.51-56.39-36.11-90.22-35.54-33.84.59-65.42,14.32-88.92,38.66-23.51,24.34-36.13,56.38-35.54,90.22.59,33.83,14.32,65.41,38.66,88.92,7.37,7.12,15.56,13.32,24.35,18.43l10.06-17.29c-7.39-4.3-14.3-9.53-20.51-15.53-20.5-19.8-32.06-46.39-32.56-74.88-.5-28.49,10.13-55.48,29.93-75.98,19.8-20.5,46.39-32.06,74.88-32.56,28.48-.5,55.48,10.13,75.98,29.93,42.32,40.87,43.5,108.54,2.63,150.86-6.96,7.21-14.84,13.37-23.42,18.33l10,17.32c10.2-5.89,19.55-13.21,27.8-21.75,48.53-50.25,47.12-130.61-3.13-179.14Z"/>
</svg>