<svg xmlns="http://www.w3.org/2000/svg" xml:space="preserve" viewBox="0 0 148.5 140.5">
  <g fill="currentColor">
    <path d="M66.943 72.651c0 4.079 3.272 7.381 7.309 7.381 4.037 0 7.309-3.302 7.309-7.381s-3.268-7.385-7.309-7.385c-4.037 0-7.309 3.306-7.309 7.385z"/>
    <path d="m84.442 89.007 4.122 7.169c7.836-4.874 13.101-13.543 13.101-23.521 0-15.294-12.268-27.698-27.413-27.698-15.136 0-27.413 12.404-27.413 27.698 0 9.978 5.265 18.646 13.097 23.521l4.135-6.735c-5.384-3.217-9.03-10.012-9.03-16.785 0-10.199 9.119-19.411 19.212-19.411 10.097 0 19.212 9.213 19.212 19.411-.001 6.769-3.656 13.143-9.023 16.351z"/>
    <path d="M74.252 26.485c-25.233 0-45.69 20.669-45.69 46.166 0 16.382 8.507 30.689 21.239 38.878l4.084-6.735C43.606 98.258 36.76 85.833 36.76 72.651c0-20.393 17.304-37.879 37.488-37.879s37.488 17.482 37.488 37.879c0 13.182-6.897 25.616-17.172 32.143l4.135 6.735c12.731-8.189 21.239-22.496 21.239-38.878.004-25.496-20.449-46.166-45.686-46.166z"/>
    <path d="M56.718 121.733h35.067L74.252 91.119l-17.534 30.614z"/>
  </g>
</svg>
