<?xml version="1.0" encoding="UTF-8"?>
<svg id="Podcast" xmlns="http://www.w3.org/2000/svg" viewBox="0 0 268 280">
  <g id="podcast">
    <path id="Path" d="m113,136.01c0,12.15,9.4,21.99,21,21.99s21-9.84,21-21.99-9.39-22.01-21-22.01-21,9.85-21,22.01h0Z"/>
    <path id="Path-2" data-name="Path" d="m163.42,184.86l12.1,21.14c23.01-14.37,38.47-39.93,38.47-69.34,0-45.09-36.03-81.66-80.5-81.66s-80.5,36.57-80.5,81.66c0,29.42,15.46,54.97,38.46,69.34l12.14-19.86c-15.81-9.48-26.52-29.52-26.52-49.48,0-30.07,26.78-57.23,56.42-57.23s56.42,27.16,56.42,57.23c0,19.96-10.74,38.75-26.5,48.2h0Z"/>
    <path id="Path-3" data-name="Path" d="m134.01,0C60,0,0,60.76,0,135.71c0,48.16,24.95,90.22,62.29,114.29l11.98-19.8c-30.15-19.21-50.23-55.74-50.23-94.49,0-59.95,50.75-111.35,109.95-111.35s109.95,51.39,109.95,111.35c0,38.75-20.23,75.3-50.36,94.49l12.13,19.8c37.34-24.07,62.29-66.13,62.29-114.29.01-74.95-59.98-135.71-133.99-135.71h0Z"/>
    <path id="Path-4" data-name="Path" d="m96.87,280h75.26c4.42,0,8-3.58,8-8,0-1.41-.37-2.79-1.08-4.01l-37.63-65.03c-2.21-3.82-7.11-5.13-10.93-2.92-1.21.7-2.22,1.71-2.92,2.92l-37.63,65.03c-2.21,3.82-.91,8.72,2.92,10.93,1.22.7,2.6,1.08,4.01,1.08Z"/>
  </g>
</svg>