<?xml version="1.0" encoding="UTF-8"?>
<svg xmlns="http://www.w3.org/2000/svg" version="1.1" viewBox="0 0 320 320">
  <!-- Generator: Adobe Illustrator 28.6.0, SVG Export Plug-In . SVG Version: 1.2.0 Build 709)  -->
  <g>
    <g id="print">
      <g>
        <path d="M268.8,86.1h-19.9c0-.6,0-1.2,0-1.9v-39.5c0-11.4-9.3-20.7-20.7-20.7H90.8c-11.4,0-20.7,9.3-20.7,20.7v39.5c0,.6,0,1.3,0,1.9h-18.9c-15.6,0-28.2,12.7-28.2,28.2v96c0,15.6,12.7,28.2,28.2,28.2h18.8v36.7c0,11.4,9.3,20.7,20.7,20.7h137.5c11.4,0,20.7-9.3,20.7-20.7v-36.7h19.8c15.6,0,28.2-12.7,28.2-28.2v-96c0-15.6-12.7-28.2-28.2-28.2ZM88.9,44.7c0-1,.8-1.9,1.9-1.9h137.5c1,0,1.9.8,1.9,1.9v39.5c0,1-.8,1.9-1.9,1.9H90.8c-1,0-1.9-.8-1.9-1.9v-39.5ZM230.1,275.3c0,1-.8,1.9-1.9,1.9H90.8c-1,0-1.9-.8-1.9-1.9v-92.3c0-1,.8-1.9,1.9-1.9h137.5c1,0,1.9.8,1.9,1.9v92.3ZM278.2,210.4c0,5.2-4.2,9.4-9.4,9.4h-19.8v-36.7c0-11.4-9.3-20.7-20.7-20.7H90.8c-11.4,0-20.7,9.3-20.7,20.7v36.7h-18.8c-5.2,0-9.4-4.2-9.4-9.4v-96c0-5.2,4.2-9.4,9.4-9.4h217.5c5.2,0,9.4,4.2,9.4,9.4v96Z"/>
        <path d="M207,194.8h-94.2c-5.2,0-9.4,4.2-9.4,9.4s4.2,9.4,9.4,9.4h94.2c5.2,0,9.4-4.2,9.4-9.4s-4.2-9.4-9.4-9.4Z"/>
        <path d="M207,231.6h-94.2c-5.2,0-9.4,4.2-9.4,9.4s4.2,9.4,9.4,9.4h94.2c5.2,0,9.4-4.2,9.4-9.4s-4.2-9.4-9.4-9.4Z"/>
      </g>
    </g>
  </g>
</svg>