<?xml version="1.0" encoding="UTF-8"?>
<svg id="print" xmlns="http://www.w3.org/2000/svg" viewBox="0 0 320 320">
  <defs>
    <style>
      .cls-1 {
        fill: #006dc1;
        stroke-width: 0px;
      }
    </style>
  </defs>
  <path class="cls-1" d="M275.5,243.5h-24.08c-5.52,0-10-4.48-10-10s4.48-10,10-10h24.08c5.51,0,10-4.49,10-10v-102c0-5.51-4.49-10-10-10H44.5c-5.51,0-10,4.49-10,10v102c0,5.51,4.49,10,10,10h22.04c5.52,0,10,4.48,10,10s-4.48,10-10,10h-22.04c-16.54,0-30-13.46-30-30v-102c0-16.54,13.46-30,30-30h231c16.54,0,30,13.46,30,30v102c0,16.54-13.46,30-30,30Z"/>
  <path class="cls-1" d="M209.96,217h-100c-5.52,0-10-4.48-10-10s4.48-10,10-10h100c5.52,0,10,4.48,10,10s-4.48,10-10,10Z"/>
  <path class="cls-1" d="M209.96,256h-100c-5.52,0-10-4.48-10-10s4.48-10,10-10h100c5.52,0,10,4.48,10,10s-4.48,10-10,10Z"/>
  <path class="cls-1" d="M232.5,101.5H86.5c-12.13,0-22-9.87-22-22v-42c0-12.13,9.87-22,22-22h146c12.13,0,22,9.87,22,22v42c0,12.13-9.87,22-22,22ZM86.5,35.5c-1.1,0-2,.9-2,2v42c0,1.1.9,2,2,2h146c1.1,0,2-.9,2-2v-42c0-1.1-.9-2-2-2H86.5Z"/>
  <path class="cls-1" d="M232.5,304.5H86.5c-12.13,0-22-9.87-22-22v-98c0-12.13,9.87-22,22-22h146c12.13,0,22,9.87,22,22v98c0,12.13-9.87,22-22,22ZM86.5,182.5c-1.1,0-2,.9-2,2v98c0,1.1.9,2,2,2h146c1.1,0,2-.9,2-2v-98c0-1.1-.9-2-2-2H86.5Z"/>
</svg>