<?xml version="1.0" encoding="utf-8"?>
<!-- Generator: Adobe Illustrator 16.0.3, SVG Export Plug-In . SVG Version: 6.00 Build 0)  -->
<!DOCTYPE svg PUBLIC "-//W3C//DTD SVG 1.1//EN" "http://www.w3.org/Graphics/SVG/1.1/DTD/svg11.dtd">
<svg version="1.1" xmlns="http://www.w3.org/2000/svg" xmlns:xlink="http://www.w3.org/1999/xlink" x="0px" y="0px" width="88px"
	 height="88px" viewBox="0 0 88 88" enable-background="new 0 0 88 88" xml:space="preserve">
<g id="Ebene_1">
</g>
<g id="Ebene_2">
	<path d="M0,0v88h88V0H0z M27.644,23.183c0-1.487,1.189-2.378,2.379-2.378h27.954c1.488,0,2.379,1.189,2.379,2.378v1.785
		c0,1.487-1.19,2.378-2.379,2.378H30.022c-1.189,0-2.379-1.189-2.379-2.378V23.183z M53.814,67.195H34.483
		c-1.487,0-2.379-1.188-2.379-2.379V50.244c0-1.486,1.189-2.379,2.379-2.379h19.033c1.488,0,2.379,1.191,2.379,2.379l0.296,14.572
		C56.191,66.305,55.005,67.195,53.814,67.195z M71.359,58.572h-8.92c-1.488,0-2.379-1.189-2.379-2.381V43.404H28.536v12.49
		c0,1.488-1.189,2.379-2.38,2.379H16.64c-1.486,0-2.378-1.188-2.378-2.379V34.483c0-1.487,1.189-2.379,2.378-2.379h54.42
		c1.488,0,2.384,1.19,2.384,2.379l0.295,21.708C73.738,57.678,72.548,58.572,71.359,58.572z"/>
</g>
</svg>
