<?xml version="1.0" encoding="UTF-8"?>
<svg id="push" xmlns="http://www.w3.org/2000/svg" viewBox="0 0 320 320">
  <defs>
    <style>
      .cls-1 {
        fill: #fff;
      }
    </style>
  </defs>
  <path class="cls-1" d="m268.28,226.68c-1.6-7.58-5.42-14.98-12.01-23.27l-4.77-6.82c-.44-.7-.89-1.43-1.33-2.16l-1.17-2c-4.37-7.6-9.88-19.13-11.34-30.91-1.02-8.28-1.92-16.56-2.96-26.48l-.75-6.94c-.25-2.33-.51-4.67-.77-7.02l-.48-4.25-.15-1.14c-3.65-26.54-22.07-48.17-46.32-57.15-.79-12.84-10.48-26.04-25.76-26.04s-24.96,13.2-25.76,26.04c-24.59,9.08-43.07,31.15-46.39,58.3l-.49,4.26c-.34,3.01-.66,6.03-.99,9.04l-.54,4.94c-1.04,9.86-1.94,18.13-2.96,26.44-1.46,11.8-6.98,23.33-11.33,30.89l-1.18,2c-.53.89-1.06,1.73-1.55,2.5l-1.89,2.86-2.98,4.04c-6.41,8.15-10.13,15.42-11.71,22.88-1.9,9.01-.05,18.05,5.08,24.83,5.04,6.62,13.04,10.42,21.98,10.42l5.68-.02c7.48-.02,14.96-.02,22.4-.03h11.15s8.89,0,8.89,0c3.11,15.05,14.17,28.11,32.59,28.11s29.17-13.16,32.51-28.11h8.98s16.75,0,16.75,0c5.59,0,11.2,0,16.8.02l5.78.02h.36c8.86-.12,16.51-3.82,21.54-10.44,5.11-6.76,6.96-15.8,5.07-24.81Zm-107.78,45.32c-8.22,0-12.08-5.07-13.9-10h27.47c-2.17,5.17-6.38,10-13.57,10Zm86.78-32.61c-1.56,2.04-4.05,2.5-5.81,2.53h-.2s-5.69-.01-5.69-.01c-5.62-.01-11.24-.02-16.85-.02h-16.77s-41.23.04-41.23.04l-41.72-.04h-11.17c-7.46,0-14.95,0-22.45.03l-5.65.02c-1.88,0-4.45-.44-6.02-2.51-1.23-1.63-2.25-4.74-1.44-8.62.93-4.4,3.35-8.91,7.83-14.61l1.52-1.97,4.48-6.51c.6-.95,1.22-1.94,1.87-3.02l1.34-2.28c5.29-9.19,11.98-23.32,13.86-38.44,1.04-8.47,1.95-16.84,2.99-26.76l.53-4.92c.32-2.98.64-5.97.98-8.93l.47-4.17c3.13-25.65,25.23-45.04,51.38-45.12h1.86c25.79.07,47.85,19.14,51.3,44.28l.58,4.99c.26,2.31.51,4.62.76,6.92l.75,6.91c1.05,10,1.96,18.38,3,26.81,1.87,15.11,8.57,29.24,13.88,38.47l1.34,2.27c.54.9,1.07,1.76,1.61,2.61l2.51,3.81,3.45,4.69c4.67,5.87,7.17,10.49,8.11,14.97.82,3.88-.21,6.99-1.42,8.6Z"/>
</svg>