<?xml version="1.0" encoding="UTF-8"?>
<svg id="push" xmlns="http://www.w3.org/2000/svg" viewBox="0 0 320 320">
  <defs>
    <style>
      .cls-1 {
        fill: #fff;
      }
    </style>
  </defs>
  <path class="cls-1" d="m261.46,232.57c-1.44-6.83-5.08-13.24-10.74-20.34l-.35-.44c-.06-.08-.12-.15-.18-.23l-.38-.49c-.06-.08-.13-.17-.19-.26l-.4-.54c-.07-.09-.14-.19-.21-.28l-.42-.59-.44-.62c-.07-.11-.15-.21-.22-.32l-.46-.66-.47-.69-.48-.72c-.08-.12-.16-.24-.24-.37l-.5-.76c-.08-.13-.17-.26-.25-.39l-.51-.8c-.51-.81-1.04-1.65-1.57-2.54l-.53-.89c-.09-.15-.18-.3-.27-.45l-.54-.93c-5.67-9.84-11.74-23.25-13.43-36.86-1.16-9.4-2.18-18.85-3.17-28.3l-.8-7.38c-.27-2.47-.54-4.93-.81-7.4l-.52-4.51-.13-.97c-3.73-27.06-24.14-48.48-50.2-54.58.89-2.09,1.38-4.4,1.38-6.81,0-9.64-7.82-17.45-17.46-17.45s-17.46,7.81-17.46,17.45c0,2.43.49,4.74,1.39,6.83-26.33,6.2-46.88,28.04-50.24,55.53l-.52,4.51c-.56,4.93-1.08,9.87-1.62,14.78-1,9.45-2.02,18.9-3.17,28.3-1.69,13.61-7.76,27.03-13.43,36.86l-.54.93c-.09.15-.18.3-.27.45l-.53.89c-.62,1.03-1.23,2.01-1.83,2.94l-.51.78c-.08.13-.17.26-.25.38l-.49.74-.48.72-.47.69c-.08.11-.15.22-.23.33l-.45.65-.44.62c-.07.1-.14.2-.21.3l-.42.57-.4.54-.39.51c-.06.08-.12.16-.19.24l-.36.46-.49.62c-5.48,6.94-9.01,13.24-10.42,19.94-1.44,6.83.08,13.31,3.47,17.76,3.38,4.43,8.69,6.88,14.92,6.88l6.06-.02c7.98-.02,15.96-.03,23.91-.03h11.9s44.46.05,44.46.05l43.97-.05h11.9s5.97,0,5.97,0c5.97,0,11.95.01,17.94.03l6.06.02h.31c6.1-.08,11.28-2.52,14.61-6.88,3.38-4.46,4.91-10.94,3.47-17.76Z"/>
  <path class="cls-1" d="m157.25,286c11.61,0,21.37-7.9,24.2-18.61h-48.4c2.83,10.71,12.59,18.61,24.2,18.61Z"/>
</svg>