<?xml version="1.0" encoding="utf-8"?>
<!-- Generator: Adobe Illustrator 28.0.0, SVG Export Plug-In . SVG Version: 6.00 Build 0)  -->
<svg version="1.1" id="Ebene_1" xmlns="http://www.w3.org/2000/svg" xmlns:xlink="http://www.w3.org/1999/xlink" x="0px" y="0px"
	 viewBox="0 0 80 66" style="enable-background:new 0 0 80 66;" xml:space="preserve">
<g>
	<path d="M14.85,66L0,56.82c4.19-5.95,7.36-12.03,9.5-18.24s3.21-12.78,3.21-19.73V0h26.35v18.48c0,8.11-2.19,16.58-6.56,25.43
		C28.14,52.77,22.25,60.13,14.85,66z M55.79,66l-14.85-9.18c4.19-5.95,7.36-12.03,9.5-18.24s3.21-12.78,3.21-19.73V0H80v18.48
		c0,8.11-2.19,16.58-6.56,25.43C69.07,52.77,63.19,60.13,55.79,66z"/>
</g>
</svg>
