<?xml version="1.0" encoding="utf-8"?>
<!-- Generator: Adobe Illustrator 19.2.0, SVG Export Plug-In . SVG Version: 6.00 Build 0)  -->
<svg version="1.1" id="Ebene_1" xmlns="http://www.w3.org/2000/svg" xmlns:xlink="http://www.w3.org/1999/xlink" x="0px" y="0px"
	 width="72px" height="22px" viewBox="0 0 72 22" enable-background="new 0 0 72 22" xml:space="preserve">
<path fill="#70B224" d="M61.07,0.1c-6.075,0-11,4.925-11,11c0,6.075,4.925,11,11,11s11-4.925,11-11
	C72.07,5.025,67.145,0.1,61.07,0.1z M63.18,11.646v6.849H58.96v-6.849h-5.655l7.765-9.297l7.765,9.297H63.18z"/>
<g>
	<path fill="#70B224" d="M22.36,5.954v10.088h-2.472V5.954H22.36z"/>
	<path fill="#70B224" d="M23.736,7.562c0-0.729,0.594-1.31,1.323-1.31s1.323,0.594,1.323,1.323c0,0.729-0.607,1.323-1.323,1.323
		c-0.162,0-0.595-0.054-0.945-0.392C23.992,8.385,23.736,8.062,23.736,7.562z M26.315,16.042h-2.472V9.52h2.472V16.042z"/>
	<path fill="#70B224" d="M32.296,9.52h2.998l-2.917,3.228l3.174,3.295h-3.065l-2.255-2.458v2.458h-2.458V5.942h2.458v6.171
		L32.296,9.52z"/>
	<path fill="#70B224" d="M38.019,13.369c0.055,0.311,0.271,1.229,1.337,1.229c0.648,0,0.905-0.351,1.026-0.58h2.606
		c-0.095,0.27-0.162,0.392-0.229,0.513c-0.405,0.743-1.377,1.729-3.403,1.729c-0.229,0-0.958,0-1.661-0.243
		c-0.796-0.283-2.065-1.094-2.052-3.2c0-0.864,0.188-1.634,0.756-2.296c0.445-0.499,1.351-1.215,2.984-1.215
		c0.445,0,1.647,0.014,2.62,0.932c0.54,0.513,0.77,1.094,0.851,1.337c0.135,0.419,0.216,0.878,0.216,1.782L38.019,13.369z
		 M40.598,11.937c-0.054-0.148-0.08-0.229-0.161-0.364c-0.243-0.378-0.662-0.554-1.095-0.554c-0.216,0-0.77,0.054-1.106,0.607
		c-0.055,0.095-0.081,0.148-0.162,0.311H40.598z"/>
</g>
</svg>
