<?xml version="1.0" encoding="utf-8"?>
<!-- Generator: Adobe Illustrator 19.2.0, SVG Export Plug-In . SVG Version: 6.00 Build 0)  -->
<svg version="1.1" id="Ebene_1" xmlns="http://www.w3.org/2000/svg" xmlns:xlink="http://www.w3.org/1999/xlink" x="0px" y="0px"
	 width="72px" height="22px" viewBox="0 0 72 22" enable-background="new 0 0 72 22" xml:space="preserve">
<path fill="#C62C46" d="M61.02-0.1c-6.075,0-11,4.925-11,11c0,6.075,4.925,11,11,11s11-4.925,11-11
	C72.02,4.825,67.095-0.1,61.02-0.1z M61.02,18.973l-7.765-9.297h5.655V2.827h4.221v6.849h5.655L61.02,18.973z"/>
<g>
	<path fill="#C62C46" d="M8.107,5.742v10.101H5.636l0.014-0.567c-0.352,0.297-0.905,0.77-2.012,0.77
		c-0.217,0-0.811-0.013-1.364-0.283c-0.688-0.338-1.729-1.31-1.729-3.214c0-0.973,0.283-1.931,0.985-2.62
		C1.828,9.644,2.22,9.401,2.611,9.28C2.975,9.158,3.327,9.13,3.719,9.13c1.053,0,1.525,0.311,1.931,0.595V5.742H8.107z
		 M5.042,13.817c0.513-0.216,0.783-0.716,0.783-1.256c0-0.811-0.554-1.364-1.364-1.364c-0.837,0-1.351,0.554-1.351,1.364
		c0,0.837,0.514,1.377,1.351,1.377C4.744,13.924,4.933,13.871,5.042,13.817z"/>
	<path fill="#C62C46" d="M9.482,7.362c0-0.729,0.594-1.31,1.323-1.31s1.323,0.594,1.323,1.323c0,0.729-0.607,1.323-1.323,1.323
		c-0.162,0-0.595-0.054-0.945-0.392C9.738,8.185,9.482,7.862,9.482,7.362z M12.061,15.842H9.59V9.32h2.472V15.842z"/>
	<path fill="#C62C46" d="M17.852,11.426c-0.148-0.067-0.823-0.405-1.485-0.405c-0.04,0-0.176,0-0.311,0.055
		c-0.188,0.067-0.243,0.202-0.243,0.297c0,0.257,0.352,0.351,0.783,0.445c0.5,0.122,1.162,0.257,1.566,0.607
		c0.243,0.203,0.365,0.486,0.392,0.595c0.041,0.095,0.108,0.351,0.108,0.648c0,0.58-0.257,1.215-0.688,1.62
		c-0.271,0.257-0.662,0.526-1.473,0.675c-0.148,0.027-0.499,0.081-0.918,0.081c-0.27,0-1.121-0.04-1.944-0.323
		c-0.202-0.068-0.271-0.095-0.621-0.271l0.554-1.985c0.107,0.067,0.216,0.136,0.324,0.189c0.188,0.095,0.932,0.473,1.688,0.473
		c0.054,0,0.229,0.014,0.405-0.067c0.202-0.081,0.257-0.271,0.257-0.352c0-0.067-0.014-0.188-0.148-0.27
		c-0.257-0.149-0.689-0.081-1.311-0.298c-0.392-0.135-1.363-0.526-1.363-1.769c0-0.324,0.081-1.107,0.77-1.675
		c0.716-0.58,1.58-0.567,1.863-0.567c0.878,0,1.485,0.176,2.31,0.446L17.852,11.426z"/>
	<path fill="#C62C46" d="M22.173,5.754v10.088h-2.472V5.754H22.173z"/>
	<path fill="#C62C46" d="M23.549,7.362c0-0.729,0.594-1.31,1.323-1.31s1.323,0.594,1.323,1.323c0,0.729-0.607,1.323-1.323,1.323
		c-0.162,0-0.595-0.054-0.945-0.392C23.805,8.185,23.549,7.862,23.549,7.362z M26.128,15.842h-2.472V9.32h2.472V15.842z"/>
	<path fill="#C62C46" d="M32.108,9.32h2.998l-2.917,3.228l3.174,3.295h-3.065l-2.255-2.458v2.458h-2.458V5.742h2.458v6.171
		L32.108,9.32z"/>
	<path fill="#C62C46" d="M37.832,13.169c0.055,0.311,0.271,1.229,1.337,1.229c0.648,0,0.905-0.351,1.026-0.58h2.606
		c-0.095,0.27-0.162,0.392-0.229,0.513c-0.405,0.743-1.377,1.729-3.403,1.729c-0.229,0-0.958,0-1.661-0.243
		c-0.796-0.283-2.065-1.094-2.052-3.2c0-0.864,0.188-1.634,0.756-2.296c0.445-0.499,1.351-1.215,2.984-1.215
		c0.445,0,1.647,0.014,2.62,0.932c0.54,0.513,0.77,1.094,0.851,1.337c0.135,0.419,0.216,0.878,0.216,1.782L37.832,13.169z
		 M40.412,11.737c-0.055-0.148-0.081-0.229-0.162-0.364c-0.243-0.378-0.662-0.554-1.095-0.554c-0.216,0-0.77,0.054-1.106,0.607
		c-0.055,0.095-0.081,0.148-0.162,0.311H40.412z"/>
</g>
</svg>
