<?xml version="1.0" encoding="utf-8"?>
<!-- Generator: Adobe Illustrator 17.0.1, SVG Export Plug-In . SVG Version: 6.00 Build 0)  -->
<!DOCTYPE svg PUBLIC "-//W3C//DTD SVG 1.1//EN" "http://www.w3.org/Graphics/SVG/1.1/DTD/svg11.dtd">
<svg version="1.1" id="reset" xmlns="http://www.w3.org/2000/svg" xmlns:xlink="http://www.w3.org/1999/xlink" x="0px" y="0px"
	 width="110px" height="86px" viewBox="0 0 110 86" enable-background="new 0 0 110 86" xml:space="preserve">
<path fill="#006DC1" d="M54.3,24.6H26.3c7.4-5.8,20.1-15.9,22.1-17.6c3.5-3.4-0.3-9.8-5.7-5.5C36.9,6.6,13.5,25.7,9.8,27.9l0,0
	c3.6,3.4,27.1,21.9,32.8,27c5.3,4.5,9.2-1.7,5.7-5c-2-1.8-14.7-11.7-22.1-17.6h28.1c28-0.1,41.5,0.1,41.6,22.1c0,4.5-1.6,9.1-5,12.4
	c-7.1,7.3-21.6,11.4-39.8,11.4H21.5V86h29.6c20.5,0,36.6-4.8,45.4-13.5c4.8-4.8,7.2-11.4,7.2-18C103.6,23.7,79.7,24.6,54.3,24.6z"/>
</svg>
