<svg xmlns="http://www.w3.org/2000/svg" xml:space="preserve" viewBox="0 0 110 86">
  <g fill="currentColor">
    <path d="M23.518 62.957C17.166 62.957 12 68.153 12 74.494 12 80.856 17.166 86 23.518 86c6.373 0 11.534-5.144 11.534-11.506-.001-6.341-5.161-11.537-11.534-11.537zM12.751 29.531v15.107c10.751.199 20.841 4.493 28.469 12.147 7.628 7.637 11.912 17.757 12.111 28.57h15.161c-.415-30.597-25.188-55.415-55.741-55.824z"/>
    <path d="M12.777 0v15.107c38.459.415 69.674 31.704 70.088 70.248H98C97.58 38.475 59.583.42 12.777 0z"/>
  </g>
</svg>
