<?xml version="1.0" encoding="utf-8"?>
<!-- Generator: Adobe Illustrator 21.1.0, SVG Export Plug-In . SVG Version: 6.00 Build 0)  -->
<svg version="1.1" id="Ebene_1" xmlns="http://www.w3.org/2000/svg" xmlns:xlink="http://www.w3.org/1999/xlink" x="0px" y="0px"
	 viewBox="0 0 110 86" enable-background="new 0 0 110 86" xml:space="preserve">
<g>
	<path fill="currentColor" d="M23.518,62.957C17.166,62.957,12,68.153,12,74.494C12,80.856,17.166,86,23.518,86
		c6.373,0,11.534-5.144,11.534-11.506C35.051,68.153,29.891,62.957,23.518,62.957z"/>
	<path fill="currentColor" d="M12.751,29.531v15.107c10.751,0.199,20.841,4.493,28.469,12.147c7.628,7.637,11.912,17.757,12.111,28.57
		h15.161C68.077,54.758,43.304,29.94,12.751,29.531z"/>
	<path fill="currentColor" d="M12.777,0v15.107c38.459,0.415,69.674,31.704,70.088,70.248H98C97.58,38.475,59.583,0.42,12.777,0z"/>
</g>
</svg>
