<svg xmlns="http://www.w3.org/2000/svg" viewBox="0 0 512 512">
  <path fill="currentColor" d="M365 167.1c15.5-18.5 24-41.7 24-65.2V52H130.3v49.8c0 23.6 8.5 46.8 24 65.2l49.9 59.5c9.2 10.9 9.2 26.3.1 37.3l-50.6 61.3c-15.1 18.4-23.5 41.3-23.5 64.6V440H389v-50.2c0-23.3-8.4-46.2-23.5-64.6l-50.6-61.3c-9.1-11-9-26.3.1-37.3.1 0 50-59.5 50-59.5zm-75 117.3l50.6 61.3c10.5 12.8 16.1 27.9 16.1 45.8h-194c0-17.8 5.5-33 16.1-45.7l50.6-61.3c18.9-22.9 18.7-55.9-.3-78.6l-49.9-59.5c-10.7-12.7-16.5-28.1-16.5-45.8h194c0 17.8-5.9 33.1-16.5 45.8l-49.9 59.5c-19.1 22.6-19.2 55.7-.3 78.5z"/>
</svg>
