<?xml version="1.0" encoding="utf-8"?>
<!-- Generator: Adobe Illustrator 19.2.0, SVG Export Plug-In . SVG Version: 6.00 Build 0)  -->
<svg version="1.1" id="Ebene_2" xmlns="http://www.w3.org/2000/svg" xmlns:xlink="http://www.w3.org/1999/xlink" x="0px" y="0px"
	 width="23px" height="23px" viewBox="0 0 23 23" style="enable-background:new 0 0 23 23;" xml:space="preserve">
<path d="M11.5,0C5.1,0,0,5.1,0,11.5S5.1,23,11.5,23S23,17.9,23,11.5S17.9,0,11.5,0z M18.8,12.4c-2,0.4-7.1,1-7.6,1
	c-0.8,0-1.4-0.6-1.4-1.4c0-0.5,0.7-6.4,1-8.5c0-0.2,0.7-0.2,0.7,0l0.8,7.2l6.4,0.8C19,11.6,19,12.3,18.8,12.4z"/>
</svg>
