<svg xmlns="http://www.w3.org/2000/svg" xml:space="preserve" viewBox="0 0 110 86">
  <path fill="#FFF" d="m98 37.209-6.258-2.226c-2.386-.849-4.306-2.671-5.276-5.01 0-.001-.001-.002-.001-.003-.973-2.345-.904-4.993.186-7.286l2.85-5.996-8.19-8.19-5.995 2.85c-2.292 1.089-4.943 1.158-7.287.186-.001 0-.002-.001-.003-.001a8.9623 8.9623 0 0 1-5.01-5.275L60.791 0H49.209l-2.226 6.258c-.849 2.386-2.671 4.306-5.01 5.276-.001 0-.002.001-.003.001-2.345.973-4.993.904-7.286-.186l-5.996-2.85-8.19 8.19 2.85 5.995a8.9815 8.9815 0 0 1 .186 7.287c0 .001-.001.002-.001.003-.97 2.341-2.888 4.16-5.275 5.009L12 37.209v11.582l6.258 2.225c2.386.849 4.306 2.671 5.276 5.01 0 .001.001.002.001.003a8.9672 8.9672 0 0 1-.185 7.286l-2.85 5.996 8.19 8.19 5.995-2.85c2.292-1.089 4.943-1.158 7.287-.186.001 0 .002.001.003.001 2.341.97 4.16 2.887 5.009 5.275L49.209 86h11.582l2.212-6.218c.856-2.408 2.694-4.347 5.055-5.328.001 0 .002-.001.003-.001 2.323-.966 4.946-.9 7.218.18l6.033 2.868 8.19-8.19-2.851-5.998c-1.088-2.29-1.156-4.939-.185-7.28 0-.001.001-.002.001-.003.971-2.343 2.891-4.164 5.28-5.014L98 48.791V37.209zM55 62.944c-11.015 0-19.945-8.929-19.945-19.944S43.985 23.056 55 23.056 74.944 31.985 74.944 43 66.015 62.944 55 62.944z"/>
</svg>
