<?xml version="1.0" encoding="utf-8"?>
<!-- Generator: Adobe Illustrator 28.1.0, SVG Export Plug-In . SVG Version: 6.00 Build 0)  -->
<svg version="1.1" id="Ebene_1" xmlns="http://www.w3.org/2000/svg" xmlns:xlink="http://www.w3.org/1999/xlink" x="0px" y="0px"
	 viewBox="0 0 48 48" style="enable-background:new 0 0 48 48;" xml:space="preserve">
<path d="M43.9,36.8c0,3.6-3.1,6.6-6.7,6.4c-3.8-0.3-6.4-3.5-6-7.2c0-0.2-0.2-0.6-0.4-0.7c-4-2-8-4-12-6c-0.5-0.3-0.7,0-1,0.3
	c-2.2,2.2-4.8,3-7.8,2.2C6.9,30.9,5,29,4.3,26c-0.9-3.5,0.7-7.1,3.8-8.9c3.1-1.8,7.1-1.2,9.5,1.4c0.6,0.6,0.9,0.6,1.6,0.2
	c3.8-1.9,7.6-3.8,11.5-5.7c0.5-0.2,0.6-0.4,0.5-1c-0.5-3.5,2-6.6,5.5-7.2c3.4-0.5,6.7,1.9,7.2,5.2c0.6,3.6-1.7,6.9-5.2,7.5
	c-2.1,0.4-4-0.1-5.5-1.6c-0.4-0.4-0.7-0.4-1.2-0.2c-3.9,2-7.7,3.9-11.6,5.8c-0.6,0.3-0.7,0.6-0.6,1.2c0.1,0.9,0,1.8,0,2.8
	c0,0.3,0.2,0.6,0.3,0.7c4,2,8.1,4.1,12.1,6.1c0.2,0.1,0.7-0.1,0.9-0.2c3.6-3.3,9.4-1.6,10.5,3.2C43.8,35.9,43.8,36.4,43.9,36.8
	L43.9,36.8z"/>
</svg>
