<?xml version="1.0" encoding="utf-8"?>
<!-- Generator: Adobe Illustrator 19.2.0, SVG Export Plug-In . SVG Version: 6.00 Build 0)  -->
<svg version="1.1" id="Ebene_3" xmlns="http://www.w3.org/2000/svg" xmlns:xlink="http://www.w3.org/1999/xlink" x="0px" y="0px"
	 viewBox="0 0 24 23" enable-background="new 0 0 24 23" xml:space="preserve">
<g>
	<path d="M23.6,13.5c-0.1-0.2-1-1-1.9-1.9c0.9-0.9,1.7-1.7,1.9-1.9C24,9.3,23,8,22.4,8.6c-0.3,0.3-1.1,1-1.9,1.9
		c-0.9-0.9-1.7-1.7-1.9-1.9c-0.4-0.4-1.7,0.7-1.2,1.3c0.3,0.3,1,1.1,1.9,1.9c-0.9,0.9-1.7,1.7-1.8,1.9c-0.5,0.5,0.5,1.7,1.1,1.2
		c0.2-0.1,1-1,1.9-1.9c0.9,0.9,1.7,1.7,1.9,1.9C22.8,15.3,24.1,14.1,23.6,13.5z"/>
	<path d="M3,6.1c-1.7,0-2.3,1.1-2.7,2.6c-0.4,1.9-0.4,4.1,0,6c0.4,1.5,1.1,2.5,2.6,2.5H6C4.7,14.4,4.7,8.8,6,6.1C6,6.1,3,6.1,3,6.1z
		"/>
	<path d="M17.8,19.5c-0.8-0.5-1.1-1.2-1.5-2c-0.6-1.2-0.7-2-0.8-3.1v-0.2c-0.2-1.2-0.1-4.4,0-5.5s0.4-2.1,0.9-3.3
		c0.4-0.8,0.7-1.4,1.5-1.9c2.5-1.7,1.2-4.1,0-3.4c-1.2,0.8-9.2,5.5-9.2,5.5c-1.9,2.1-1.9,10,0,12c0,0,8,4.8,9.2,5.4
		C19.1,23.7,20.3,21.1,17.8,19.5z"/>
</g>
</svg>
