<?xml version="1.0" encoding="utf-8"?>
<!-- Generator: Adobe Illustrator 19.2.0, SVG Export Plug-In . SVG Version: 6.00 Build 0)  -->
<svg version="1.1" id="Ebene_3" xmlns="http://www.w3.org/2000/svg" xmlns:xlink="http://www.w3.org/1999/xlink" x="0px" y="0px"
	 viewBox="0 0 24 23" enable-background="new 0 0 24 23" xml:space="preserve">
<path id="audio-6-icon_1_" fill="#010202" d="M2.9,6H6c-1.3,2.8-1.3,8.3,0,11H2.9c-1.6,0-2.3-1-2.6-2.5c-0.4-1.8-0.5-4.1,0-6
	C0.6,7.1,1.2,6,2.9,6z M23.6,11.5c0,7.7-3,12.3-5.9,11.4c-0.7-0.2-9.2-5.3-9.2-5.3c-1.9-2.1-1.9-9.9,0-12c0,0,8.8-5.2,9.1-5.4
	C20.3-0.9,23.6,3.8,23.6,11.5z M20.1,4.5c-1-2.2-2.5-2.1-3.5,0c-0.6,1.2-1,2.7-1.2,4.2h0.5c1.5,0,2.8,1.2,2.8,2.8
	c0,1.5-1.2,2.8-2.8,2.8h-0.5c0.2,1.5,0.6,3,1.2,4.3c0.9,2.2,2.6,2.1,3.5,0C21.9,14.3,21.8,8.1,20.1,4.5z"/>
</svg>
