<svg xmlns="http://www.w3.org/2000/svg" xml:space="preserve" viewBox="-360 314.5 148.5 140.5">
  <path fill="#999" d="M-246.7 429.1c-1.3 0-2.4-.5-3.3-1.4l-22.9-23.2c-5.4 4.6-12.2 7.1-19.4 7.1-16.7 0-30.3-13.7-30.3-30.6 0-16.9 13.6-30.6 30.3-30.6S-262 364.2-262 381c0 5.9-1.6 11.5-4.7 16.4l23.3 23.6c.9.9 1.4 2.1 1.4 3.3 0 1.3-.5 2.5-1.4 3.3-.9 1-2 1.5-3.3 1.5zm-45.5-69.2c-11.5 0-20.9 9.5-20.9 21.1 0 11.7 9.4 21.1 20.9 21.1 11.5 0 20.9-9.5 20.9-21.1-.1-11.6-9.4-21.1-20.9-21.1z"/>
  <path fill="#999" d="M-246.7 429.1c-1.3 0-2.4-.5-3.3-1.4l-22.9-23.2c-5.4 4.6-12.2 7.1-19.4 7.1-16.7 0-30.3-13.7-30.3-30.6 0-16.9 13.6-30.6 30.3-30.6S-262 364.2-262 381c0 5.9-1.6 11.5-4.7 16.4l23.3 23.6c.9.9 1.4 2.1 1.4 3.3 0 1.3-.5 2.5-1.4 3.3-.9 1-2 1.5-3.3 1.5zm-45.5-69.2c-11.5 0-20.9 9.5-20.9 21.1 0 11.7 9.4 21.1 20.9 21.1 11.5 0 20.9-9.5 20.9-21.1-.1-11.6-9.4-21.1-20.9-21.1z"/>
</svg>
