<?xml version="1.0" encoding="UTF-8"?>
<svg id="Ebene_1" data-name="Ebene 1" xmlns="http://www.w3.org/2000/svg" viewBox="0 0 320 320">
  <path d="m270.07,255.93l-66.35-66.35c12.06-15.13,19.28-34.27,19.28-55.08,0-48.8-39.7-88.5-88.5-88.5s-88.5,39.7-88.5,88.5,39.7,88.5,88.5,88.5c20.8,0,39.95-7.22,55.08-19.28l66.35,66.35c1.95,1.95,4.51,2.93,7.07,2.93s5.12-.98,7.07-2.93c3.91-3.91,3.91-10.24,0-14.14Zm-204.07-121.43c0-37.77,30.73-68.5,68.5-68.5s68.5,30.73,68.5,68.5-30.73,68.5-68.5,68.5-68.5-30.73-68.5-68.5Z"/>
</svg>