<?xml version="1.0" encoding="utf-8"?>
<!-- Generator: Adobe Illustrator 18.1.1, SVG Export Plug-In . SVG Version: 6.00 Build 0)  -->
<svg version="1.1" id="suche" xmlns="http://www.w3.org/2000/svg" xmlns:xlink="http://www.w3.org/1999/xlink" x="0px" y="0px"
	 viewBox="-360 314.5 148.5 140.5" enable-background="new -360 314.5 148.5 140.5" xml:space="preserve">
<g>
    <g>
        <path fill="#999999" d="M-246.7,429.1c-1.3,0-2.4-0.5-3.3-1.4l-22.9-23.2c-5.4,4.6-12.2,7.1-19.4,7.1c-16.7,0-30.3-13.7-30.3-30.6
        c0-16.9,13.6-30.6,30.3-30.6S-262,364.2-262,381c0,5.9-1.6,11.5-4.7,16.4l23.3,23.6c0.9,0.9,1.4,2.1,1.4,3.3c0,1.3-0.5,2.5-1.4,3.3
        C-244.3,428.6-245.4,429.1-246.7,429.1z M-292.2,359.9c-11.5,0-20.9,9.5-20.9,21.1c0,11.7,9.4,21.1,20.9,21.1
        c11.5,0,20.9-9.5,20.9-21.1C-271.4,369.4-280.7,359.9-292.2,359.9z"/>
    </g>
    <g>
       <path fill="#999999" d="M-246.7,429.1c-1.3,0-2.4-0.5-3.3-1.4l-22.9-23.2c-5.4,4.6-12.2,7.1-19.4,7.1c-16.7,0-30.3-13.7-30.3-30.6
        c0-16.9,13.6-30.6,30.3-30.6S-262,364.2-262,381c0,5.9-1.6,11.5-4.7,16.4l23.3,23.6c0.9,0.9,1.4,2.1,1.4,3.3c0,1.3-0.5,2.5-1.4,3.3
        C-244.3,428.6-245.4,429.1-246.7,429.1z M-292.2,359.9c-11.5,0-20.9,9.5-20.9,21.1c0,11.7,9.4,21.1,20.9,21.1
        c11.5,0,20.9-9.5,20.9-21.1C-271.4,369.4-280.7,359.9-292.2,359.9z"/>
    </g>
</g>
</svg>
