<?xml version="1.0" encoding="utf-8"?>
<!-- Generator: Adobe Illustrator 22.1.0, SVG Export Plug-In . SVG Version: 6.00 Build 0)  -->
<svg version="1.1" id="Teilen-Button_30px" xmlns="http://www.w3.org/2000/svg" xmlns:xlink="http://www.w3.org/1999/xlink" x="0px"
	 y="0px" viewBox="0 0 30 30" style="enable-background:new 0 0 30 30;" xml:space="preserve">
<style type="text/css">
	.st0{fill:#006DC1;}
</style>
<path class="st0" d="M0,0v30h30V0H0z M15.3,17.3l3.7,2.4c0.3,0.2,0.7,0.3,1.1,0.1c0.3-0.1,0.5-0.2,0.8-0.2c1.6-0.1,3,1,3.2,2.7
	c0.1,1.6-1,3-2.7,3.2c-1.6,0.1-3-1-3.2-2.7c0-0.4-0.2-0.8-0.6-1L13.4,19c-0.4-0.3-0.9-0.3-1.3,0c-0.6,0.4-1.3,0.5-2,0.5c0,0,0,0,0,0
	c-2.3,0-4.1-1.9-4.1-4.2c0,0,0,0,0,0c0-2.3,1.8-4.2,4.1-4.2c0.7,0,1.4,0.2,2,0.5c0.4,0.2,0.9,0.2,1.3,0l4.2-2.8
	c0.3-0.2,0.5-0.6,0.6-1c0,0,0,0,0,0c0.1-1.6,1.4-2.9,3-2.8C22.8,5,24.1,6.4,24,8c0,0.4-0.1,0.8-0.2,1.1c-0.6,1.5-2.3,2.3-3.8,1.7
	c-0.4-0.1-0.8-0.1-1.1,0.1l-3.7,2.4c-0.6,0.4-1,1.2-1,1.9C14.2,16.1,14.6,16.9,15.3,17.3z"/>
</svg>
