<?xml version="1.0" encoding="utf-8"?>
<!-- Generator: Adobe Illustrator 19.2.0, SVG Export Plug-In . SVG Version: 6.00 Build 0)  -->
<svg version="1.1" id="Ebene_1" xmlns="http://www.w3.org/2000/svg" xmlns:xlink="http://www.w3.org/1999/xlink" x="0px" y="0px"
	 width="50px" height="36px" viewBox="0 0 50 36" enable-background="new 0 0 50 36" xml:space="preserve">
<g>
	<path fill="#989899" d="M21.605,8.079L35.73,22.204l-1.783,1.783c0,0-0.413-0.163-1.014-0.163c-0.655,0-1.534,0.194-2.345,1.005
		c-1.552,1.552-0.858,3.364-0.847,3.364c0,0,0,0,0,0l-1.782,1.782L13.834,15.85l1.782-2.057c0,0,0.558,0.294,1.318,0.294
		c0.61,0,1.351-0.19,2.039-0.873c1.544-1.534,0.849-3.26,0.849-3.26L21.605,8.079 M21.605,6.079c-0.008,0-0.017,0-0.025,0
		c-0.539,0.007-1.053,0.231-1.424,0.621l-1.783,1.875c-0.57,0.599-0.771,1.355-0.419,2.098c0.053,0.2,0.091,0.645-0.39,1.122
		c-0.259,0.257-0.463,0.291-0.629,0.291c-0.187,0-0.384-0.063-0.385-0.063c-0.295-0.156-0.615-0.231-0.932-0.231
		c-0.566,0-1.122,0.24-1.512,0.69l-1.782,2.057c-0.687,0.793-0.645,1.982,0.097,2.724l14.125,14.125
		c0.375,0.375,0.884,0.586,1.414,0.586s1.039-0.211,1.414-0.586l1.782-1.782c0.561-0.561,0.736-1.398,0.452-2.134
		c-0.049-0.185-0.125-0.71,0.395-1.229c0.286-0.286,0.582-0.42,0.931-0.42c0.144,0,0.257,0.024,0.306,0.036
		c0.246,0.111,0.495,0.164,0.738,0.164c0.504,0,0.986-0.225,1.384-0.623l1.783-1.783c0.781-0.781,0.781-2.047,0-2.828L23.019,6.665
		C22.644,6.29,22.135,6.079,21.605,6.079L21.605,6.079z"/>
	<path fill="#989899" d="M20.089,15.556c0,0.62,0.502,1.122,1.122,1.122c0.62,0,1.122-0.502,1.122-1.122
		c0-0.62-0.502-1.122-1.122-1.122C20.591,14.434,20.089,14.936,20.089,15.556L20.089,15.556z M20.089,15.556"/>
	<path fill="#989899" d="M17.845,17.805c0,0.62,0.502,1.122,1.122,1.122c0.62,0,1.122-0.502,1.122-1.122
		c0-0.62-0.502-1.122-1.122-1.122C18.347,16.683,17.845,17.186,17.845,17.805L17.845,17.805z M17.845,17.805"/>
	<path fill="#989899" d="M22.332,13.312c0,0.62,0.502,1.122,1.122,1.122c0.62,0,1.122-0.502,1.122-1.122
		c0-0.62-0.502-1.122-1.122-1.122C22.834,12.19,22.332,12.692,22.332,13.312L22.332,13.312z M22.332,13.312"/>
</g>
</svg>
