<svg xmlns="http://www.w3.org/2000/svg" xml:space="preserve" width="25.895" height="25.896" viewBox="11.835 6.079 25.895 25.896">
  <g fill="#989899">
    <path d="M21.605 8.079 35.73 22.204l-1.783 1.782s-.413-.162-1.014-.162c-.656 0-1.535.193-2.346 1.005-1.552 1.552-.857 3.364-.847 3.364l-1.782 1.781L13.834 15.85l1.782-2.057s.558.294 1.318.294c.61 0 1.351-.19 2.039-.873 1.544-1.534.849-3.26.849-3.26l1.783-1.875m0-2h-.025a2.002 2.002 0 0 0-1.424.621l-1.783 1.875c-.57.599-.771 1.355-.419 2.098.053.2.091.645-.39 1.122-.259.257-.463.291-.629.291-.187 0-.384-.063-.385-.063a1.9902 1.9902 0 0 0-.932-.231c-.566 0-1.122.24-1.512.69l-1.782 2.057c-.687.793-.645 1.982.097 2.724l14.125 14.125c.375.375.884.586 1.414.586s1.039-.211 1.414-.586l1.782-1.783a1.996 1.996 0 0 0 .451-2.133c-.049-.186-.125-.711.396-1.229.286-.286.582-.421.931-.421.145 0 .258.025.307.037.246.111.494.164.738.164.504 0 .985-.226 1.383-.623l1.783-1.783c.781-.781.781-2.047 0-2.828L23.019 6.665a2.0006 2.0006 0 0 0-1.414-.586z"/>
    <path d="M20.089 15.556c0 .62.502 1.122 1.122 1.122s1.122-.502 1.122-1.122c0-.62-.502-1.122-1.122-1.122s-1.122.502-1.122 1.122zm-2.244 2.249c0 .62.502 1.123 1.122 1.123.62 0 1.122-.503 1.122-1.123s-.502-1.122-1.122-1.122c-.62 0-1.122.503-1.122 1.122zm4.487-4.493c0 .62.502 1.122 1.122 1.122s1.122-.502 1.122-1.122-.502-1.122-1.122-1.122-1.122.502-1.122 1.122z"/>
  </g>
</svg>
