<svg xmlns="http://www.w3.org/2000/svg" xml:space="preserve" viewBox="0 0 320 320">
  <ellipse cx="90.05" cy="146.28" rx="11.75" ry="11.77" transform="rotate(-50 90.055 146.2823)"/>
  <path d="M103.87 111.51c-4.17 4.97-3.52 12.39 1.46 16.57s12.4 3.53 16.57-1.44 3.52-12.39-1.46-16.57-12.4-3.53-16.57 1.44Z"/>
  <ellipse cx="135.71" cy="91.87" rx="11.75" ry="11.77" transform="rotate(-50.04 135.7171 91.8631)"/>
  <path d="M306.49 179.4c-.32-3.64-2.04-6.94-4.84-9.29L124.95 21.83c-2.8-2.35-6.35-3.47-9.99-3.15-3.64.32-6.94 2.04-9.29 4.84L71.75 63.94l7.66 6.43c3.53 2.96 4.26 7.08 4.26 10.02 0 4.23-1.54 8.57-4.11 11.63-2.56 3.06-6.58 5.32-10.74 6.06-2.89.51-7.08.51-10.61-2.45l-7.66-6.43-33.92 40.43c-2.35 2.8-3.47 6.35-3.15 9.99.32 3.64 2.04 6.94 4.84 9.29l176.71 148.27c2.49 2.09 5.57 3.2 8.77 3.2.4 0 .81-.02 1.22-.05 3.64-.32 6.94-2.04 9.29-4.84l33.92-40.42-7.66-6.43c-6.66-5.59-4.58-16.38-.15-21.65s14.69-9.2 21.35-3.61l7.66 6.43 33.92-40.42c2.35-2.8 3.47-6.35 3.15-9.99Zm-40.57 23.47c-14.43-5.68-31.48.12-40.83 11.27-9.35 11.15-12.11 28.94-4.01 42.17l-18.04 21.5L36 137.65l18.05-21.51c5.6 2.2 11.84 2.78 18.27 1.64 8.77-1.56 16.99-6.26 22.56-12.9 5.57-6.64 8.77-15.55 8.79-24.46.01-6.53-1.65-12.57-4.79-17.7l18.05-21.51 167.03 140.16-18.04 21.5Z"/>
</svg>
