<?xml version="1.0" encoding="UTF-8"?>
<svg width="320px" height="320px" viewBox="0 0 320 320" version="1.1" xmlns="http://www.w3.org/2000/svg" xmlns:xlink="http://www.w3.org/1999/xlink">
    <title>Ticket</title>
    <g id="Ticket" stroke="none" stroke-width="1" fill="none" fill-rule="evenodd">
        <g id="ticket" transform="translate(21.9126, 27.1185)">
            <g id="Group" transform="translate(138.068, 132.3888) rotate(40) translate(-138.068, -132.3888)translate(19.0437, 59.4408)" stroke="#000000" stroke-width="20">
                <path d="M238.048688,142.208165 L238.048688,99.4378882 L238.048688,99.4378882 C223.755417,99.4378882 214.0143,85.5361483 214.0143,72.9480503 C214.0143,60.3599524 223.755417,46.4582124 238.048688,46.4582124 L238.048688,3.687936 C238.048688,1.65114519 236.397543,5.14026018e-16 234.360752,0 L3.687936,0 C1.65114519,3.74152402e-16 7.30008163e-15,1.65114519 0,3.687936 L0,46.4582124 L0,46.4582124 C14.2880962,46.4582124 24.0343884,60.3599524 24.0343884,72.9480503 C24.0343884,85.5361483 14.2880962,99.4378882 0,99.4378882 L0,142.208165 C6.93524145e-16,144.244955 1.65114519,145.896101 3.687936,145.896101 L234.360752,145.896101 C236.397543,145.896101 238.048688,144.244955 238.048688,142.208165 Z" id="Stroke-2"></path>
            </g>
            <g id="punkte" transform="translate(90.967, 91.9543) rotate(-47) translate(-90.967, -91.9543)translate(43.1509, 77.7282)" fill="#000000">
                <ellipse id="Oval-Copy-3" transform="translate(12.3495, 16.0848) rotate(-3) translate(-12.3495, -16.0848)" cx="12.3494754" cy="16.0847586" rx="11.750647" ry="11.767629"></ellipse>
                <ellipse id="Oval-Copy-9" transform="translate(47.8161, 14.2261) rotate(-3) translate(-47.8161, -14.2261)" cx="47.8161313" cy="14.2260899" rx="11.750647" ry="11.767629"></ellipse>
                <ellipse id="Oval-Copy-10" transform="translate(83.2828, 12.3674) rotate(-3) translate(-83.2828, -12.3674)" cx="83.2827872" cy="12.3674212" rx="11.750647" ry="11.767629"></ellipse>
            </g>
        </g>
    </g>
</svg>