<svg xmlns="http://www.w3.org/2000/svg" viewBox="0 0 24 24"><defs><style>.cls-1{fill:#005293;}</style></defs><title>ic_name_of_icon_24px</title><g id="Wichtig-Meldung"><path class="cls-1" d="M3,10v3a2,2,0,0,0,2,2v4.5a1.5,1.5,0,0,0,3,0V8H5A2,2,0,0,0,3,10Z"/><path class="cls-1" d="M14.92,4.07h0A1.48,1.48,0,0,0,14.5,4a1.5,1.5,0,0,0-1.39.94s-.23.45-.34.63A5,5,0,0,1,9,8v7.1a5,5,0,0,1,4,2.84l.06.13a2.76,2.76,0,0,0,.14.25,1.44,1.44,0,0,0,1.7.66h0A1.49,1.49,0,0,0,16,17.5V5.5A1.49,1.49,0,0,0,14.92,4.07Z"/><path class="cls-1" d="M21.43,10.46H19.09a.59.59,0,0,0-.59.58.6.6,0,0,0,.59.59h2.34A.59.59,0,0,0,22,11,.58.58,0,0,0,21.43,10.46Z"/><path class="cls-1" d="M19,8.43l1.65-1.66A.58.58,0,1,0,19.85,6L18.19,7.6a.59.59,0,1,0,.83.83Z"/><path class="cls-1" d="M19,13.65a.59.59,0,0,0-.83.83l1.66,1.65a.58.58,0,0,0,.82-.82Z"/></g></svg>