<svg xmlns="http://www.w3.org/2000/svg" viewBox="0 0 24 24">
  <path d="M3 10v3a2 2 0 0 0 2 2v4.5a1.5 1.5 0 0 0 3 0V8H5a2 2 0 0 0-2 2Zm11.92-5.93A1.48 1.48 0 0 0 14.5 4a1.5 1.5 0 0 0-1.39.94s-.23.45-.34.63A5 5 0 0 1 9 8v7.1a5 5 0 0 1 4 2.84l.06.13a2.76 2.76 0 0 0 .14.25 1.44 1.44 0 0 0 1.7.66A1.49 1.49 0 0 0 16 17.5v-12a1.49 1.49 0 0 0-1.08-1.43Zm6.51 6.39h-2.34a.59.59 0 0 0-.59.58.6.6 0 0 0 .59.59h2.34A.59.59 0 0 0 22 11a.58.58 0 0 0-.57-.54ZM19 8.43l1.65-1.66a.58.58 0 1 0-.8-.77l-1.66 1.6a.59.59 0 1 0 .83.83Zm0 5.22a.59.59 0 0 0-.83.83l1.66 1.65a.58.58 0 0 0 .82-.82Z" />
</svg>
