<?xml version="1.0" encoding="utf-8"?>
<!-- Generator: Adobe Illustrator 18.1.1, SVG Export Plug-In . SVG Version: 6.00 Build 0)  -->
<svg version="1.1" id="Ebene_4" xmlns="http://www.w3.org/2000/svg" xmlns:xlink="http://www.w3.org/1999/xlink" x="0px" y="0px"
	 viewBox="-360 314.5 148.5 140.5" enable-background="new -360 314.5 148.5 140.5" xml:space="preserve">
<path id="tv-3-icon_2_" fill="#989899" d="M-310.8,426.8c5,5.8,13.9,9.7,24,9.7c10.1,0,19-3.9,24-9.7H-310.8z"/>
<path fill="#989899" d="M-236,357.1c0-2.9-2.4-5.3-5.3-5.3h-90.5c-2.9,0-5.3,2.4-5.3,5.3l0,57.1c0,2.9,2.4,5.3,5.3,5.3h90.5
	c2.9,0,5.3-2.4,5.3-5.3L-236,357.1z M-243.4,412.3h-86.4v-53.2h86.4V412.3z"/>
<g>
	<path fill="#989899" stroke="#989899" stroke-width="0.5" stroke-miterlimit="10" d="M-297.6,376.5v21.6h-5.1v-21.6h-6.8v-4.6h18.8
		v4.6H-297.6z"/>
	<path fill="#989899" stroke="#989899" stroke-width="0.5" stroke-miterlimit="10" d="M-272.6,398.1h-3.8l-8.6-26.2h5.3l5.3,17.1
		l5.3-17.1h5.3L-272.6,398.1z"/>
</g>
</svg>
