<svg xmlns="http://www.w3.org/2000/svg" xml:space="preserve" viewBox="0 0 320 320">
  <path d="M83 76c6.1 0 11-4.9 11-11V43c0-6.1-4.9-11-11-11s-11 4.9-11 11v22c0 6.1 4.9 11 11 11zm154 0c6.1 0 11-4.9 11-11V43c0-6.1-4.9-11-11-11s-11 4.9-11 11v22c0 6.1 4.9 11 11 11z"/>
  <path d="M270 54h-11v11c0 12.1-9.9 22-22 22s-22-9.9-22-22V54H105v11c0 12.1-9.9 22-22 22s-22-9.9-22-22V54H50c-12.1 0-22 9.9-22 22v198c0 12.1 9.9 22 22 22h220c12.1 0 22-9.9 22-22V76c0-12.1-9.9-22-22-22zm2 216c0 3.3-2.7 6-6 6H54c-3.3 0-6-2.7-6-6V120h224v150z"/>
  <path d="M105.5 246H124v-74.6h27.4v-15H78.5v15h27zm105.2 0 31.2-89.6h-20.5l-20.3 67.4-20.2-67.4h-20.5l31.1 89.6z"/>
</svg>
