<?xml version="1.0" encoding="utf-8"?>
<!-- Generator: Adobe Illustrator 21.1.0, SVG Export Plug-In . SVG Version: 6.00 Build 0)  -->
<svg version="1.1" id="Ebene_1" xmlns="http://www.w3.org/2000/svg" xmlns:xlink="http://www.w3.org/1999/xlink" x="0px" y="0px"
	 width="50px" height="36px" viewBox="0 0 50 36" enable-background="new 0 0 50 36" xml:space="preserve">
<g>
	<g>
		<path fill="#FFFFFF" d="M37.209,8.822v22.401H12.771V8.822h3.055V9.84c0,1.123,0.913,2.036,2.036,2.036s2.036-0.913,2.036-2.036
			V8.822H30.08V9.84c0,1.123,0.913,2.036,2.036,2.036c1.123,0,2.036-0.913,2.036-2.036V8.822H37.209z M35.172,14.932H14.808v14.255
			h20.365L35.172,14.932L35.172,14.932z M33.136,7.804c0-0.562-0.455-1.018-1.018-1.018S31.1,7.242,31.1,7.804V9.84
			c0,0.562,0.455,1.018,1.018,1.018s1.018-0.456,1.018-1.018V7.804z M18.881,9.841c0,0.562-0.455,1.018-1.018,1.018
			s-1.018-0.456-1.018-1.018V7.804c0-0.562,0.455-1.018,1.018-1.018s1.018,0.456,1.018,1.018V9.841z"/>
	</g>
	<g>
		<path fill="#FFFFFF" d="M21.971,19.884v6.029h-1.426v-6.029h-1.907v-1.271h5.24v1.271H21.971z"/>
		<path fill="#FFFFFF" d="M28.923,25.913h-1.066l-2.409-7.301h1.477l1.466,4.758l1.467-4.758h1.486L28.923,25.913z"/>
	</g>
</g>
</svg>
