<svg xmlns="http://www.w3.org/2000/svg" width="320" height="320" viewBox="0 0 320 320">
  <g fill-rule="evenodd">
    <g transform="translate(36 32)">
      <rect width="22" height="44" x="36" rx="11"/>
      <rect width="22" height="44" x="190" rx="11"/>
      <path stroke="#000" stroke-width="16" d="M171 30v3c0 16.5685 13.4315 30 30 30s30-13.4315 30-30v-3h3c7.732 0 14 6.268 14 14v198c0 7.732-6.268 14-14 14H14c-7.732 0-14-6.268-14-14V44c0-7.732 6.268-14 14-14h3v3c0 16.5685 13.4315 30 30 30s30-13.4315 30-30v-3h94ZM4 80h240v158c0 7.732-6.268 14-14 14H18c-7.732 0-14-6.268-14-14V80Z"/>
    </g>
    <path fill-rule="nonzero" d="M151.4277 171.3721h-27.4395V246h-18.457v-74.6279H78.4609v-14.9502h72.9668zm49.6445 52.418 20.3027-67.3682h20.5489L210.7314 246h-19.2569l-31.0693-89.5781h20.4873z"/>
  </g>
</svg>
