<svg xmlns="http://www.w3.org/2000/svg" xml:space="preserve" width="50" height="36" viewBox="0 0 50 36">
  <path fill="#FFF" d="M37.209 8.822v22.401H12.771V8.822h3.055V9.84c0 1.123.913 2.036 2.036 2.036s2.036-.913 2.036-2.036V8.822H30.08V9.84c0 1.123.913 2.036 2.036 2.036s2.036-.913 2.036-2.036V8.822h3.057zm-2.037 6.11H14.808v14.255h20.365l-.001-14.255zm-2.036-7.128c0-.562-.455-1.018-1.018-1.018S31.1 7.242 31.1 7.804V9.84c0 .562.455 1.018 1.018 1.018s1.018-.456 1.018-1.018V7.804zM18.881 9.841c0 .562-.455 1.018-1.018 1.018s-1.018-.456-1.018-1.018V7.804c0-.562.455-1.018 1.018-1.018s1.018.456 1.018 1.018v2.037z"/>
  <path fill="#FFF" d="M21.971 19.884v6.029h-1.426v-6.029h-1.907v-1.271h5.24v1.271h-1.907zm6.952 6.029h-1.066l-2.409-7.301h1.477l1.466 4.758 1.467-4.758h1.486l-2.421 7.301z"/>
</svg>
