<?xml version="1.0" encoding="utf-8"?>
<!-- Generator: Adobe Illustrator 27.6.1, SVG Export Plug-In . SVG Version: 6.00 Build 0)  -->
<svg version="1.1" id="tvprogram" xmlns="http://www.w3.org/2000/svg" xmlns:xlink="http://www.w3.org/1999/xlink" x="0px" y="0px"
	 viewBox="0 0 320 320" style="enable-background:new 0 0 320 320;" xml:space="preserve">
<style type="text/css">
	.st0{fill:#FFFFFF;}
</style>
<path class="st0" d="M83,76c6.1,0,11-4.9,11-11V43c0-6.1-4.9-11-11-11s-11,4.9-11,11v22C72,71.1,76.9,76,83,76z"/>
<path class="st0" d="M237,76c6.1,0,11-4.9,11-11V43c0-6.1-4.9-11-11-11s-11,4.9-11,11v22C226,71.1,230.9,76,237,76z"/>
<path class="st0" d="M270,54h-11v11c0,12.1-9.9,22-22,22s-22-9.9-22-22V54H105v11c0,12.1-9.9,22-22,22s-22-9.9-22-22V54H50
	c-12.1,0-22,9.9-22,22v198c0,12.1,9.9,22,22,22h220c12.1,0,22-9.9,22-22V76C292,63.9,282.1,54,270,54z M272,270c0,3.3-2.7,6-6,6H54
	c-3.3,0-6-2.7-6-6V120h224V270z"/>
<polygon class="st0" points="105.5,246 124,246 124,171.4 151.4,171.4 151.4,156.4 78.5,156.4 78.5,171.4 105.5,171.4 "/>
<polygon class="st0" points="210.7,246 241.9,156.4 221.4,156.4 201.1,223.8 180.9,156.4 160.4,156.4 191.5,246 "/>
</svg>
