<?xml version="1.0" encoding="UTF-8"?>
<svg id="twitter" xmlns="http://www.w3.org/2000/svg" viewBox="0 0 320 320">
  <defs>
    <style>
      .cls-1 {
        fill: #fff;
        fill-rule: evenodd;
      }
    </style>
  </defs>
  <path id="Fill-1" class="cls-1" d="m253.84,111.8c.14,2.08.14,4.17.14,6.27,0,64.06-48.7,137.93-137.76,137.93v-.04c-26.31.04-52.07-7.51-74.22-21.73,3.83.46,7.67.69,11.52.7,21.8.02,42.98-7.31,60.13-20.79-20.72-.39-38.89-13.92-45.23-33.67,7.26,1.4,14.74,1.11,21.86-.84-22.59-4.57-38.84-24.44-38.84-47.52v-.61c6.73,3.75,14.27,5.84,21.97,6.07-21.27-14.24-27.83-42.57-14.99-64.73,24.58,30.29,60.85,48.7,99.79,50.65-3.9-16.84,1.43-34.48,14.01-46.32,19.5-18.35,50.17-17.41,68.5,2.1,10.84-2.14,21.24-6.12,30.75-11.77-3.61,11.22-11.18,20.75-21.28,26.81,9.6-1.13,18.97-3.71,27.8-7.63-6.5,9.75-14.69,18.25-24.16,25.11"/>
</svg>