<svg xmlns="http://www.w3.org/2000/svg" xml:space="preserve" width="88" height="88" viewBox="0 0 88 88">
  <path d="M0 0v88h88V0H0zm66.9 32.1v1.5c0 15.4-11.5 33.1-32.5 33.1-6.4 0-12.5-1.9-17.5-5.2.9.1 1.8.2 2.7.2 5.3 0 10.3-1.9 14.2-5-5-.1-9.2-3.5-10.7-8.1.7.1 1.4.2 2.1.2 1 0 2-.1 2.9-.4C23 47.3 19 42.6 19 37v-.1c2 .9 3.4 1.4 5.3 1.5-3.1-2.1-5-5.6-5-9.7 0-2.1.6-4.1 1.6-5.8 5.6 7 14.1 11.7 23.5 12.1-.2-.8-.3-1.7-.3-2.6 0-6.4 5.1-11.6 11.4-11.6 3.3 0 6.3 1.4 8.3 3.7 2.6-.5 5-1.5 7.3-2.8-.9 2.7-2.7 5-5 6.4 2.3-.3 4.5-.9 6.6-1.8-1.6 2.1-3.6 4.2-5.8 5.8z"/>
</svg>
