<?xml version="1.0" encoding="UTF-8"?>
<svg id="twitter" xmlns="http://www.w3.org/2000/svg" viewBox="0 0 320 320">
  <defs>
    <style>
      .cls-1 {
        fill: #fff;
        fill-rule: evenodd;
      }
    </style>
  </defs>
  <path class="cls-1" d="m160,23c-75.66,0-137,61.34-137,137s61.34,137,137,137,137-61.34,137-137S235.66,23,160,23Zm71.51,111.27c.1,1.44.1,2.87.1,4.33,0,44.2-33.68,95.18-95.26,95.18v-.03c-18.19.03-36.01-5.18-51.32-15,2.65.32,5.3.48,7.97.48,15.08.01,29.72-5.04,41.58-14.35-14.33-.27-26.89-9.6-31.28-23.23,5.02.97,10.19.77,15.12-.58-15.62-3.15-26.86-16.86-26.86-32.79v-.42c4.65,2.59,9.87,4.03,15.2,4.19-14.71-9.82-19.25-29.38-10.36-44.66,17,20.9,42.08,33.6,69,34.95-2.7-11.62.99-23.79,9.69-31.96,13.49-12.66,34.69-12.02,47.37,1.45,7.5-1.48,14.68-4.23,21.26-8.12-2.5,7.74-7.73,14.32-14.72,18.5,6.64-.78,13.12-2.56,19.23-5.27-4.5,6.73-10.16,12.59-16.71,17.33Z"/>
</svg>