<?xml version="1.0" encoding="utf-8"?>
<!-- Generator: Adobe Illustrator 17.0.1, SVG Export Plug-In . SVG Version: 6.00 Build 0)  -->
<!DOCTYPE svg PUBLIC "-//W3C//DTD SVG 1.1//EN" "http://www.w3.org/Graphics/SVG/1.1/DTD/svg11.dtd">
<svg version="1.1" xmlns="http://www.w3.org/2000/svg" xmlns:xlink="http://www.w3.org/1999/xlink" x="0px" y="0px" width="88px" height="88px" viewBox="0 0 88 88" 
	enable-background="new 0 0 88 88" xml:space="preserve">
	<g id="twitter" display="inline">
		<path d="M0,0v88l88,0V0H0z M66.9,32.1c0,0.5,0,1,0,1.5c0,15.4-11.5,33.1-32.5,33.1c-6.4,0-12.5-1.9-17.5-5.2
	c0.9,0.1,1.8,0.2,2.7,0.2c5.3,0,10.3-1.9,14.2-5c-5-0.1-9.2-3.5-10.7-8.1c0.7,0.1,1.4,0.2,2.1,0.2c1,0,2-0.1,2.9-0.4
	C23,47.3,19,42.6,19,37v-0.1c2,0.9,3.4,1.4,5.3,1.5c-3.1-2.1-5-5.6-5-9.7c0-2.1,0.6-4.1,1.6-5.8c5.6,7,14.1,11.7,23.5,12.1
	c-0.2-0.8-0.3-1.7-0.3-2.6c0-6.4,5.1-11.6,11.4-11.6c3.3,0,6.3,1.4,8.3,3.7c2.6-0.5,5-1.5,7.3-2.8c-0.9,2.7-2.7,5-5,6.4
	c2.3-0.3,4.5-0.9,6.6-1.8C71.1,28.4,69.1,30.5,66.9,32.1z"/>

	</g>
</svg>