<?xml version="1.0" encoding="utf-8"?>
<!-- Generator: Adobe Illustrator 19.2.0, SVG Export Plug-In . SVG Version: 6.00 Build 0)  -->
<svg version="1.1" id="unwetterwarnung" xmlns="http://www.w3.org/2000/svg" xmlns:xlink="http://www.w3.org/1999/xlink"
	 x="0px" y="0px" viewBox="-360 314.5 148.5 140.5" enable-background="new -360 314.5 148.5 140.5" xml:space="preserve">

<g>

<path id="hintergrund" preserve--fill="#FFFFFF" d="M-212.4,393.1l-42.8-74.9c-1.3-2.2-3.7-3.6-6.2-3.6c0,0,0,0,0,0c-2.6,0-4.9,1.4-6.2,3.6
	l-28.5,49.6c-0.3,0-0.6,0-0.9,0.1c-1.2-3.6-3.1-6.8-5.7-9.6c-3.6-3.7-10.1-8.3-21.3-8.5c-0.3,0-0.6,0-0.9,0
	c-10.8,0-20.4,4.9-26.8,13.7c-5.1,7-8.1,16.2-8.1,25.1c0,8.6,4.5,20.2,14.2,27.6c-0.2,1.8-0.2,2.5-0.2,2.8c0,2.9,2.1,7.3,7.8,7.4
	c-1.4,5.6-3.5,12.9-5.3,19.5c-1,3.4,0.7,7,3.9,8.5c1,0.4,2,0.6,3,0.6c2.4,0,4.7-1.2,6-3.3c0.1-0.2,10.5-16.4,17.8-28.3
	c3.2,0.1,6.6,0.2,9.7,0.2c8.2,0,17.6-0.5,25-4c6.7-3.2,11.1-8.4,13.1-15.5l46.2-0.3c2.6,0,4.9-1.4,6.2-3.6
	C-211.2,398-211.2,395.3-212.4,393.1z"/>

<path id="flash_2_" fill="currentColor" d="M-312.2,407.3c-0.2,0-0.4-0.1-0.7-0.1c-2.8,0-10,1.8-11.1,1.8c-0.1,0-0.1,0-0.1,0
		c0.7-2.2,7.1-16.6,5.9-16.7c-1.6-0.2-5.3-0.3-8.7-0.3c-2.5,0-4.9,0.1-6.3,0.3c-1.5,0.2-5.7,23.8-5.7,26.9c0,0.1,0.3,0.2,0.8,0.2
		c2.5,0,8.1-1.3,8.9-1.5c0,0,0,0,0,0c1.1,0-7.5,30.1-7.5,30.1S-311,407.6-312.2,407.3z"/>

<path id="cloud_outline_2_" fill="currentColor" d="M-294.6,374.7c-3.5,0-6.7,0.6-8.8,1.6c0.2-8.3-5.2-19.2-21.3-19.6c-0.3,0-0.5,0-0.7,0
		c-19.1,0-27.7,18.2-27.7,31.7c0,6.4,3.3,14.6,9.7,20.5c0.4-2.2,0.8-4.3,1-5.5c0.1-0.7,0.3-1.6,0.5-2.5c-3.2-4.2-4.7-9.1-4.7-12.5
		c0-9.7,5.8-25.2,21.2-25.2h0l0.6,0c5.2,0.1,9.1,1.6,11.7,4.3c3,3.2,3.2,7.1,3.2,8.6c-0.1,2.3,1.1,4.4,3,5.7
		c1.1,0.7,2.3,1.1,3.6,1.1c0.9,0,1.9-0.2,2.8-0.6c1-0.5,3.1-1,6.1-1c1.7,0,16.6,0.3,16.8,12.3c0.1,5.2-0.9,8.9-3.2,11.2
		c-4.2,4.3-13.7,4.9-22.4,4.9c-1.1,0-2.3,0-3.4,0c-0.6,1.6-1.7,3.6-3.4,6.5c2.3,0.1,4.6,0.1,6.8,0.1c18.1,0,32.6-2.7,32.2-22.8
		C-271.4,379.6-284.4,374.7-294.6,374.7z"/>

<path id="dreieck_2_" preserve--fill="#CB1C17" d="M-220.9,392.6c-0.6-1.1-6.9-12.1-14.3-24.9c-10.6-18.4-23.8-41.4-24.6-42.8
	c-0.5-0.9-1.2-1.4-1.8-1.4c-0.7,0-1.4,0.5-1.9,1.4c-0.8,1.2-14.4,25.2-25.3,44.5c2.4,0.4,4.8,1,7,1.8l20.2-35.6l30.8,54.2h-34.8
	c0.2,1.1,0.3,2.3,0.3,3.6c0,1.1,0,2.2-0.1,3.3c20-0.1,41.1-0.1,42.8-0.2c0.7,0,1.6-0.2,2-0.9C-220.2,394.7-220.3,393.7-220.9,392.6z
	"/>

<path id="ausrufezeichen_2_" preserve--fill="#060606" d="M-261.7,386.4c-2.3,0-4.2-1.9-4.2-4.1c0-2.3,1.8-4.1,4.2-4.1c2.3,0,4.1,1.9,4.1,4.1
	C-257.6,384.5-259.5,386.4-261.7,386.4z M-259.3,371.9c-0.1,0.9-0.3,1-1,1h-2.8c-0.7,0-0.9,0-1-1l-1.1-19.1c0-0.8,0-0.7,0-1
	c0-0.6,0.5-0.6,0.9-0.6h5.2c0.4,0,1,0,1,0.6c0,0.3,0,0.1,0,1L-259.3,371.9z"/>

<path id="cloud_2_" d="M-294.6,374.7c-3.5,0-6.7,0.6-8.8,1.6c0.2-8.3-5.2-19.2-21.3-19.6c-0.3,0-0.5,0-0.7,0
	c-19.1,0-27.7,18.2-27.7,31.7c0,6.4,3.3,14.6,9.7,20.5c0.4-2.2,0.8-4.3,1-5.5c0.5-2.5,1.2-6,2-8.9c0.9-3.4,2-7.6,6.4-8.1
	c1.6-0.2,4-0.3,7.1-0.3c3.6,0,7.5,0.1,9.4,0.4c1.9,0.2,3.5,1.3,4.5,2.9c1.5,2.6,1.2,4.8-1.8,12.2c0.7-0.1,1.4-0.1,2-0.1
	c0.8,0,1.5,0.1,2.1,0.2c1.8,0.4,3.4,1.8,4.1,3.5c1.2,2.9,0.1,5-3.4,11c2.3,0.1,4.6,0.1,6.8,0.1c18.1,0,32.6-2.7,32.2-22.8
	C-271.4,379.6-284.4,374.7-294.6,374.7z"/>
</g>
</svg>
