<svg xmlns="http://www.w3.org/2000/svg" xml:space="preserve" x="0" y="0" version="1.1" viewBox="-360 314.5 148.5 140.5">
  <path d="m-212.4 393.1-42.8-74.9c-1.3-2.2-3.7-3.6-6.2-3.6-2.6 0-4.9 1.4-6.2 3.6l-28.5 49.6c-.3 0-.6 0-.9.1-1.2-3.6-3.1-6.8-5.7-9.6-3.6-3.7-10.1-8.3-21.3-8.5h-.9c-10.8 0-20.4 4.9-26.8 13.7-5.1 7-8.1 16.2-8.1 25.1 0 8.6 4.5 20.2 14.2 27.6-.2 1.8-.2 2.5-.2 2.8 0 2.9 2.1 7.3 7.8 7.4-1.4 5.6-3.5 12.9-5.3 19.5-1 3.4.7 7 3.9 8.5 1 .4 2 .6 3 .6 2.4 0 4.7-1.2 6-3.3.1-.2 10.5-16.4 17.8-28.3 3.2.1 6.6.2 9.7.2 8.2 0 17.6-.5 25-4 6.7-3.2 11.1-8.4 13.1-15.5l46.2-.3c2.6 0 4.9-1.4 6.2-3.6 1.2-2.2 1.2-4.9 0-7.1z" preserve--fill="#FFFFFF"/>
  <path fill="currentColor" d="M-312.2 407.3c-.2 0-.4-.1-.7-.1-2.8 0-10 1.8-11.1 1.8h-.1c.7-2.2 7.1-16.6 5.9-16.7-1.6-.2-5.3-.3-8.7-.3-2.5 0-4.9.1-6.3.3-1.5.2-5.7 23.8-5.7 26.9 0 .1.3.2.8.2 2.5 0 8.1-1.3 8.9-1.5 1.1 0-7.5 30.1-7.5 30.1s25.7-40.4 24.5-40.7z"/>
  <path fill="currentColor" d="M-294.6 374.7c-3.5 0-6.7.6-8.8 1.6.2-8.3-5.2-19.2-21.3-19.6h-.7c-19.1 0-27.7 18.2-27.7 31.7 0 6.4 3.3 14.6 9.7 20.5.4-2.2.8-4.3 1-5.5.1-.7.3-1.6.5-2.5-3.2-4.2-4.7-9.1-4.7-12.5 0-9.7 5.8-25.2 21.2-25.2h.6c5.2.1 9.1 1.6 11.7 4.3 3 3.2 3.2 7.1 3.2 8.6-.1 2.3 1.1 4.4 3 5.7 1.1.7 2.3 1.1 3.6 1.1.9 0 1.9-.2 2.8-.6 1-.5 3.1-1 6.1-1 1.7 0 16.6.3 16.8 12.3.1 5.2-.9 8.9-3.2 11.2-4.2 4.3-13.7 4.9-22.4 4.9h-3.4c-.6 1.6-1.7 3.6-3.4 6.5 2.3.1 4.6.1 6.8.1 18.1 0 32.6-2.7 32.2-22.8-.4-13.9-13.4-18.8-23.6-18.8z"/>
  <path d="M-220.9 392.6c-.6-1.1-6.9-12.1-14.3-24.9-10.6-18.4-23.8-41.4-24.6-42.8-.5-.9-1.2-1.4-1.8-1.4-.7 0-1.4.5-1.9 1.4-.8 1.2-14.4 25.2-25.3 44.5 2.4.4 4.8 1 7 1.8l20.2-35.6 30.8 54.2h-34.8c.2 1.1.3 2.3.3 3.6 0 1.1 0 2.2-.1 3.3 20-.1 41.1-.1 42.8-.2.7 0 1.6-.2 2-.9.4-.9.3-1.9-.3-3z" preserve--fill="#CB1C17"/>
  <path d="M-261.7 386.4c-2.3 0-4.2-1.9-4.2-4.1 0-2.3 1.8-4.1 4.2-4.1 2.3 0 4.1 1.9 4.1 4.1 0 2.2-1.9 4.1-4.1 4.1zm2.4-14.5c-.1.9-.3 1-1 1h-2.8c-.7 0-.9 0-1-1l-1.1-19.1v-1c0-.6.5-.6.9-.6h5.2c.4 0 1 0 1 .6v1l-1.2 19.1z" preserve--fill="#060606"/>
  <path d="M-294.6 374.7c-3.5 0-6.7.6-8.8 1.6.2-8.3-5.2-19.2-21.3-19.6h-.7c-19.1 0-27.7 18.2-27.7 31.7 0 6.4 3.3 14.6 9.7 20.5.4-2.2.8-4.3 1-5.5.5-2.5 1.2-6 2-8.9.9-3.4 2-7.6 6.4-8.1 1.6-.2 4-.3 7.1-.3 3.6 0 7.5.1 9.4.4 1.9.2 3.5 1.3 4.5 2.9 1.5 2.6 1.2 4.8-1.8 12.2.7-.1 1.4-.1 2-.1.8 0 1.5.1 2.1.2 1.8.4 3.4 1.8 4.1 3.5 1.2 2.9.1 5-3.4 11 2.3.1 4.6.1 6.8.1 18.1 0 32.6-2.7 32.2-22.8-.4-13.9-13.4-18.8-23.6-18.8z"/>
</svg>
