<?xml version="1.0" encoding="utf-8"?>
<!-- Generator: Adobe Illustrator 25.4.1, SVG Export Plug-In . SVG Version: 6.00 Build 0)  -->
<svg version="1.1" id="Ebene_1" xmlns="http://www.w3.org/2000/svg" xmlns:xlink="http://www.w3.org/1999/xlink" x="0px" y="0px"
	 viewBox="0 0 32 32" style="enable-background:new 0 0 32 32;" xml:space="preserve">
<style type="text/css">
	.st0{fill:#C20016;}
	.st1{fill:#FFFFFF;}
	.st2{fill:#E0AE00;}
</style>
<g>
	<path class="st0" d="M23.3,4.2l1.6,1.2l2.7,5.2l2.7,5.2c0,0-0.2,2.4-0.5,2.3c-0.3-0.1-4.7,0.1-4.7,0.1L20.7,17l-1.9-3l-1.3-1.4
		L23.3,4.2z"/>
	<g>
		<path d="M26.2,19.5c-0.1-0.3-0.3-0.5-0.4-0.7c-0.3-0.4-0.8-1-1.4-1.4c-0.1-0.1-0.2-0.1-0.3-0.2c-0.7-0.5-1.5-0.7-2.4-0.8
			c-0.6-1.5-1.6-2.7-3-3.4c-0.6-0.3-1.2-0.6-1.8-0.7c-0.5-0.1-0.8-0.2-1.6-0.2c-1.2,0-1.9,0.3-2.3,0.4c-0.3,0.1-0.6,0.3-0.9,0.4
			c-0.7,0.3-1.2,0.8-1.7,1.3c-1-0.6-2.2-0.9-3.5-0.9c-3.9,0-6.9,3.1-6.9,6.9c0,3.7,3.9,6.2,6.5,6.9c4.2,1.1,9.9,1.2,14.8,0.1
			c1.8-0.4,5.3-2.5,5.3-5.5C26.7,21,26.5,20.2,26.2,19.5z M19.2,25.6c-2.7,0.5-8.2,0.3-10.9-0.3c-0.8-0.2-6.1-1.4-6.1-5.2
			c0-3.9,3.3-5.4,5.3-5.1c1.6,0.3,2.6,0.9,3.3,1.4c0.4-0.4,0.9-0.8,1.4-1.2c0.6-0.4,1.3-0.8,1.9-1c0.4-0.1,1.1-0.2,1.8-0.1
			c0.8,0.1,1.4,0.3,1.9,0.6c1,0.6,1.7,1.5,2.1,2.4c0.2,0.3,0.3,0.7,0.5,1c0.9,0.1,1.8,0.3,2.5,0.7c0.4,0.2,1.2,0.9,1.4,1.4
			c0.1,0.2,0.3,0.7,0.3,1.1C24.5,23.6,22.5,25.1,19.2,25.6z"/>
	</g>
	<g>
		<path class="st1" d="M22.6,15.1c0-0.2,0.1-0.4,0.2-0.5s0.3-0.2,0.6-0.2c0.3,0,0.4,0.1,0.6,0.2s0.2,0.3,0.2,0.5
			c0,0.2-0.1,0.4-0.2,0.5c-0.1,0.1-0.3,0.2-0.6,0.2c-0.3,0-0.4-0.1-0.6-0.2C22.7,15.5,22.6,15.3,22.6,15.1z M24,13.4h-1.2l-0.1-5.8
			h1.4L24,13.4z"/>
	</g>
	<path d="M25.5,3.7c-0.9-1.8-3.5-1.8-4.3,0l-4.2,8.5l-0.6,1.1c-0.2,0.4,0,0.9,0.5,1.1c0.1,0,0.2,0.1,0.3,0.1c0.4,0.1,1,0,1.2-0.4
		l0.6-1.2l3.8-7.7c0.3-0.5,1-0.5,1.3,0l5.5,10.9c0.3,0.6,0,1.2-0.7,1.2h-8.4c0.2,0.3,0,0.5,0.2,0.8c0.9,0.1,1.8,0.5,2.5,0.9
		c0.2,0.1,0.5,0.3,0.7,0.4c0.2,0.2,0.5,0.3,0.8,0.3h4.6c2.1,0,3.4-2.2,2.5-4.1L25.5,3.7z"/>
	<path id="flash_2_" class="st2" d="M17.6,21.1c-0.1,0-0.1,0-0.2,0c-0.7,0-2.6,0.5-2.9,0.5l0,0c0.2-0.6,1.9-4.3,1.5-4.4
		c-0.4-0.1-1.4-0.1-2.3-0.1c-0.7,0-1.3,0-1.6,0.1c-0.4,0.1-1.5,6.2-1.5,6.9c0,0,0.1,0.1,0.2,0.1c0.7,0,2.1-0.3,2.3-0.4l0,0
		c0.3,0-2,7.8-2,7.8S17.9,21.2,17.6,21.1z"/>
</g>
</svg>
