<?xml version="1.0" encoding="utf-8"?>
<!-- Generator: Adobe Illustrator 23.0.1, SVG Export Plug-In . SVG Version: 6.00 Build 0)  -->
<svg version="1.1" id="Ebene_5" xmlns="http://www.w3.org/2000/svg" xmlns:xlink="http://www.w3.org/1999/xlink" x="0px" y="0px"
	 viewBox="0 0 148.5 140.5" style="enable-background:new 0 0 148.5 140.5;" xml:space="preserve">
<style type="text/css">
	.st0{fill:#010101;}
</style>
<g>
	<path class="st0" d="M85.7,95.1h-5.5c-2.2,0-3.9-1.8-3.9-3.9s1.8-3.9,3.9-3.9h5.5c2.2,0,3.9,1.8,3.9,3.9S87.9,95.1,85.7,95.1z"/>
	<path class="st0" d="M114.5,95.1H109c-2.2,0-3.9-1.8-3.9-3.9s1.8-3.9,3.9-3.9h5.5c2.2,0,3.9,1.8,3.9,3.9S116.7,95.1,114.5,95.1z"/>
	<path class="st0" d="M42.5,95.1h-5.5c-2.2,0-3.9-1.8-3.9-3.9s1.8-3.9,3.9-3.9h5.5c2.2,0,3.9,1.8,3.9,3.9S44.6,95.1,42.5,95.1z"/>
	<path class="st0" d="M134.7,79.6l-7.9-20.7c-1.1-3-4.1-5-7.3-5H76.7c-3.2,0-6.1,1.9-7.3,5l-8.5,21.8c-0.4,0.9-0.5,1.9-0.5,2.9V94
		c0,0.6,0.1,1.2,0.2,1.8l2.5,10.4c0.7,3.1,3.2,5.3,6.2,5.9v8.1c0,1.5,1.2,2.7,2.7,2.7h6.7c1.5,0,2.7-1.2,2.7-2.7v-8H113v8.2
		c0,1.5,1.2,2.7,2.7,2.7h6.7c1.5,0,2.7-1.2,2.7-2.7v-8.4c3.1-0.3,5.7-2.4,6.6-5.4l3.1-10.3c0.2-0.7,0.3-1.5,0.3-2.2V82.4
		C135.2,81.4,135.1,80.5,134.7,79.6z M124.6,105.4l-53.7,0.1L67.4,94V83.5l8.2-22.8H120l8.2,21.7v11.9L124.6,105.4z"/>
	<path class="st0" d="M60.4,17.3H46.1c-15.6,0-28.2,12.5-28.2,27.9v49.7c0,8.2,6.1,15,14.1,16.3v9.1c0,1.5,1.2,2.7,2.7,2.7h3.4
		c1.5,0,2.7-1.2,2.7-2.7v-8.9h13.5l0-6.9H34.6c-4.9,0-10.4-4.5-10.4-9.3l0.1-49.9c0-11,10.8-21.7,22.1-21.7h14.2
		c12.4,0,23.7,11.5,23.7,23.7h6.5C90.8,30.7,77.1,17.3,60.4,17.3z"/>
	<g>
		<path class="st0" d="M58,46.7h16.8c0,0-1.4-14.6-13.6-14.6H58V46.7z"/>
		<path class="st0" d="M49.5,32.1h-3.3c-12.9,0-13.6,14.6-13.6,14.6h16.8V32.1z"/>
	</g>
</g>
</svg>
