<svg version="1.1" id="Ebene_1" xmlns="http://www.w3.org/2000/svg" xmlns:xlink="http://www.w3.org/1999/xlink" x="0px" y="0px"
	 viewBox="0 0 30.4 28.1" style="enable-background:new 0 0 30.4 28.1;" xml:space="preserve">
<style type="text/css">
	.st0{fill:#020203;}
</style>
<g>
	<path class="st0" d="M28.2,12.3c-0.2-0.6-0.8-1.1-1.5-1.1H15.2c-0.7,0-1.3,0.4-1.5,1.1l-2.1,6.2c0,0.1,0,0.1,0,0.2v3
		c0,0,0,0.1,0,0.1l1,4c0,0,0,0.1,0,0.1v0.5c0,0.9,0.7,1.6,1.6,1.6h0c0.9,0,1.6-0.7,1.6-1.6v0c0-0.3,0.2-0.5,0.5-0.5h9.4
		c0.3,0,0.5,0.2,0.5,0.5v0c0,0.9,0.7,1.6,1.6,1.6h0c0.9,0,1.6-0.7,1.6-1.6v-0.5c0,0,0-0.1,0-0.1l1-4c0,0,0-0.1,0-0.1v-3
		c0-0.1,0-0.1,0-0.2L28.2,12.3z M13.6,18.5l1.9-4.9c0.1-0.2,0.3-0.3,0.5-0.3h10c0.2,0,0.4,0.1,0.5,0.3l1.9,4.9c0,0.1,0,0.1,0,0.2
		l0,3c0,0,0,0.1,0,0.1l-0.5,1.7c-0.1,0.2-0.3,0.4-0.5,0.4l-12.7,0c-0.2,0-0.4-0.2-0.5-0.4l-0.5-1.7c0,0,0-0.1,0-0.1v-3
		C13.6,18.6,13.6,18.5,13.6,18.5z"/>
	<path class="st0" d="M18.4,21.7H16c-0.2,0-0.3-0.1-0.3-0.3V20c0-0.2,0.1-0.3,0.3-0.3h2.4c0.2,0,0.3,0.1,0.3,0.3v1.4
		C18.7,21.6,18.5,21.7,18.4,21.7z"/>
	<path class="st0" d="M26,21.7h-2.4c-0.2,0-0.3-0.1-0.3-0.3V20c0-0.2,0.1-0.3,0.3-0.3H26c0.2,0,0.3,0.1,0.3,0.3v1.4
		C26.3,21.6,26.2,21.7,26,21.7z"/>
	<path class="st0" d="M7,21.7H4.6c-0.2,0-0.3-0.1-0.3-0.3V20c0-0.2,0.1-0.3,0.3-0.3H7c0.2,0,0.3,0.1,0.3,0.3v1.4
		C7.3,21.6,7.2,21.7,7,21.7z"/>
	<path class="st0" d="M8.7,5.5v4.2H3.8C3.8,9.8,4.6,5.9,8.7,5.5z"/>
	<path class="st0" d="M15.1,9.8h-4.9V5.6C14.3,6.1,15.1,9.8,15.1,9.8z"/>
	<path class="st0" d="M18.6,9.1c0,0-1.5-7.2-9.3-7.2c-7.5,0-9.3,6.2-9.3,7.2v13.1c0,2,1.4,3.6,3.4,3.6h0.8H5v1.4
		C5,27.7,5.3,28,5.7,28h0c0.4,0,0.8-0.3,0.8-0.8v-1.3h4.1l-0.4-2c0,0-4.6,0-5.8,0c-0.7,0-1.4-0.5-1.6-0.8c-0.4-0.5-0.5-0.8-0.5-1.4
		c0-0.7,0-12.6,0-12.6s1.1-5.2,7-5.2c5.5,0,7.1,4,7.3,4.8c0,0,0.1,0.3,0.1,0.4c0,0.2,0,0.4,0.1,0.7l2,0C18.7,9.4,18.6,9.1,18.6,9.1z
		"/>
</g>
</svg>
