<svg id="Ebene_1" data-name="Ebene 1" xmlns="http://www.w3.org/2000/svg" viewBox="0 0 30.23 26.2"><defs><style>.cls-1{fill:#010101;}.cls-2{fill:#1d1d1b;}.cls-3{fill:none;}</style></defs><path class="cls-1" d="M28.19,11.49a1.56,1.56,0,0,0-1.48-1.05H15.24a1.56,1.56,0,0,0-1.48,1.05l-2.17,6.24v3.13l1,4.17v1a1,1,0,0,0,1,1.05h1a1,1,0,0,0,1-1.05V25H26.19v1a1,1,0,0,0,1,1.05h1a1,1,0,0,0,1-1.05V25l1.05-4.17V17.73Zm-15,6.22L15.24,12H26.71l2.05,5.71,0,3.15-.6,2.55-14.32,0-.62-2.53Z" transform="translate(-0.13 -1.06)"/><rect class="cls-2" x="15.55" y="18.29" width="3" height="1.5" rx="0.3"/><rect class="cls-2" x="23.19" y="18.29" width="3" height="1.5" rx="0.3"/><rect class="cls-2" x="4.19" y="18.29" width="3" height="1.5" rx="0.3"/><path class="cls-2" d="M8.68,4.7V8.93H3.78A5.6,5.6,0,0,1,8.68,4.7Z" transform="translate(-0.13 -1.06)"/><path class="cls-2" d="M15.08,8.93h-4.9V4.73A5.59,5.59,0,0,1,15.08,8.93Z" transform="translate(-0.13 -1.06)"/><path class="cls-2" d="M18.67,8.27A9.33,9.33,0,0,0,9.4,1.06C1.86,1,.13,7.21.13,8.26V21.39A3.46,3.46,0,0,0,3.54,25H5v1.38a.7.7,0,0,0,.7.7h.05a.75.75,0,0,0,.75-.75V25h4.1l-.42-1.68-6.27.05a2,2,0,0,1-1.64-.85,2.78,2.78,0,0,1-.48-1.74c0-.66-.07-12.56-.07-12.56s.77-5.77,7.7-5.77A7.56,7.56,0,0,1,17,7.91s.08.27.1.37.05.4.07.67h1.54Z" transform="translate(-0.13 -1.06)"/><rect class="cls-3" x="5.45" y="24" width="4.02" height="2.2"/></svg>