<svg xmlns="http://www.w3.org/2000/svg" viewBox="0 0 320 320">
  <path fill="#fff" d="M160.5 294C86.89 294 27 234.11 27 160.5S86.89 27 160.5 27 294 86.89 294 160.5 234.11 294 160.5 294Zm0-247C97.92 47 47 97.92 47 160.5S97.92 274 160.5 274 274 223.08 274 160.5 223.08 47 160.5 47Z"/>
  <path fill="#fff" fill-rule="evenodd" d="m210.61 167.34-70.15 39.87c-3.84 2.18-8.72.84-10.91-3-.68-1.2-1.05-2.57-1.05-3.95v-79.75c0-4.42 3.58-8 8-8 1.39 0 2.75.36 3.95 1.05l70.15 39.87c3.84 2.18 5.18 7.07 3 10.91a8 8 0 0 1-3 3Z"/>
</svg>
