<?xml version="1.0" encoding="utf-8"?>
<svg version="1.1" id="Ebene_1" xmlns="http://www.w3.org/2000/svg" xmlns:xlink="http://www.w3.org/1999/xlink" x="0px" y="0px"
   viewBox="-2 -2 24 24"
>

  <path
     class="cls-1"
     d="M 10.008247,3.4003206e-6 A 10,10 0 1 0 19.999997,9.991753 10,10 0 0 0 10.008247,3.4003206e-6 Z m 0,18.7458745996794 a 8.7541255,8.7541254 0 1 1 8.745876,-8.754125 8.7541255,8.7541254 0 0 1 -8.745876,8.754125 z"
     id="path6"
     style="stroke-width:0.825083" />
  <path
     d="M 13.613858,9.76073 8.5891056,6.7491784 c -0.280528,-0.1650166 -0.511552,0 -0.511552,0.2970296 v 5.891089 c 0,0.330033 0.231024,0.462046 0.519802,0.305281 l 5.0165024,-2.879539 a 0.32178218,0.32178218 0 0 0 0,-0.602309 z"
     id="path8"
     style="stroke-width:0.825083" />
</svg>
