<?xml version="1.0" encoding="utf-8"?>
<!-- Generator: Adobe Illustrator 25.4.1, SVG Export Plug-In . SVG Version: 6.00 Build 0)  -->
<svg version="1.1" id="Ebene_1" xmlns="http://www.w3.org/2000/svg" xmlns:xlink="http://www.w3.org/1999/xlink" x="0px" y="0px"
	 viewBox="0 0 32 32" style="enable-background:new 0 0 32 32;" xml:space="preserve">
<style type="text/css">
	.st0{fill:#020203;}
</style>
<g>
	<g>
		<path class="st0" d="M21.3,15.7l-7.9-4.4c-0.4-0.3-0.9,0.1-0.9,0.5v8.9c0,0.4,0.5,0.8,0.9,0.5l7.9-4.6
			C21.8,16.6,21.8,16,21.3,15.7z"/>
	</g>
	<path class="st0" d="M16,3C8.8,3,3,8.8,3,16s5.8,13,13,13s13-5.8,13-13S23.2,3,16,3z M15.9,26.9C9.9,26.9,5.1,22,5.1,16
		S9.9,5.1,15.9,5.1S26.8,10,26.8,16S21.9,26.9,15.9,26.9z"/>
</g>
</svg>
