<?xml version="1.0" encoding="UTF-8"?>
<svg id="play" xmlns="http://www.w3.org/2000/svg" viewBox="0 0 320 320">
  <defs>
    <style>
      .cls-1, .cls-2 {
        fill: #fff;
      }

      .cls-2 {
        fill-rule: evenodd;
      }
    </style>
  </defs>
  <g id="play-2" data-name="play">
    <path id="Oval" class="cls-1" d="m160.5,27c73.73,0,133.5,59.77,133.5,133.5s-59.77,133.5-133.5,133.5S27,234.23,27,160.5,86.77,27,160.5,27Zm0,20c-62.68,0-113.5,50.82-113.5,113.5s50.82,113.5,113.5,113.5,113.5-50.82,113.5-113.5-50.82-113.5-113.5-113.5Z"/>
    <path id="Triangle" class="cls-2" d="m210.61,167.34l-70.15,39.87c-3.84,2.18-8.72.84-10.91-3-.68-1.2-1.05-2.57-1.05-3.95v-79.75c0-4.42,3.58-8,8-8,1.39,0,2.75.36,3.95,1.05l70.15,39.87c3.84,2.18,5.18,7.07,3,10.91-.71,1.25-1.75,2.29-3,3Z"/>
  </g>
</svg>