<?xml version="1.0" encoding="utf-8"?>
<!-- Generator: Adobe Illustrator 25.4.1, SVG Export Plug-In . SVG Version: 6.00 Build 0)  -->
<svg version="1.1" id="Ebene_1" xmlns="http://www.w3.org/2000/svg" xmlns:xlink="http://www.w3.org/1999/xlink" x="0px" y="0px"
	 viewBox="0 0 30.4 28.1" style="enable-background:new 0 0 30.4 28.1;" xml:space="preserve">
<g>
	<path id="Pfad_534" d="M15.1,27.1c7.3,0,13.3-5.9,13.3-13.3c0-7.3-5.9-13.3-13.3-13.3C7.8,0.5,1.8,6.5,1.8,13.8
		C1.8,21.1,7.8,27.1,15.1,27.1C15.1,27.1,15.1,27.1,15.1,27.1z M15.1,2.5c6.2,0,11.2,5,11.2,11.2s-5,11.2-11.2,11.2
		C9,24.8,4,19.8,4,13.7c0,0,0,0,0,0C4,7.5,9,2.5,15.1,2.5C15.1,2.5,15.1,2.5,15.1,2.5z"/>
	<path id="Pfad_535" d="M20.4,13.2L12.8,9c-0.3-0.2-0.6-0.1-0.8,0.2C12,9.3,12,9.4,12,9.5l0,8.6c0,0.3,0.3,0.6,0.6,0.6
		c0.1,0,0.2,0,0.3-0.1l7.6-4.4c0.3-0.2,0.4-0.5,0.2-0.8C20.6,13.3,20.5,13.3,20.4,13.2z"/>
</g>
</svg>
