<?xml version="1.0" encoding="utf-8"?>
<!-- Generator: Adobe Illustrator 19.2.0, SVG Export Plug-In . SVG Version: 6.00 Build 0)  -->
<svg version="1.1" id="Ebene_1" xmlns="http://www.w3.org/2000/svg" xmlns:xlink="http://www.w3.org/1999/xlink" x="0px" y="0px"
	 width="50px" height="36px" viewBox="0 0 50 36" enable-background="new 0 0 50 36" xml:space="preserve">
<g>
	<g>
		<path fill="#FFFFFF" d="M38.372,15.617v6.706l-3.789-2.334v-2.038L38.372,15.617 M40.372,12.036l-7.789,4.798v4.272l7.789,4.798
			V12.036L40.372,12.036z"/>
	</g>
	<path fill="#FFFFFF" d="M28.193,26.871h-16.31c-1.243,0-2.255-0.965-2.255-2.15V13.219c0-1.186,1.012-2.15,2.255-2.15h16.31
		c1.243,0,2.254,0.965,2.254,2.15V24.72C30.447,25.906,29.436,26.871,28.193,26.871z M11.883,13.069
		c-0.153,0-0.255,0.091-0.255,0.15V24.72c0,0.06,0.102,0.15,0.255,0.15h16.31c0.153,0,0.254-0.091,0.254-0.15V13.219
		c0-0.06-0.102-0.15-0.254-0.15H11.883z"/>
	<path fill="#FFFFFF" d="M24.739,17.436h-9.402c-0.552,0-1-0.447-1-1c0-0.553,0.448-1,1-1h9.402c0.552,0,1,0.447,1,1
		C25.739,16.989,25.291,17.436,24.739,17.436z"/>
</g>
</svg>
