<svg xmlns="http://www.w3.org/2000/svg" id="Ebene_1" x="0" y="0" version="1.1" viewBox="0 0 49 49" xml:space="preserve">
  <defs/>
  <style>
    .st0{fill:#020203}
  </style>
  <path d="M6.1 13.9v29.3H36c.3 0 7.6-.1 7.6-7.6V6.3H13.7c-.3 0-7.6 0-7.6 7.6zm29.4 22.5c0 1.1-.4 2-1.1 2.6-.7.6-1.6 1-2.6 1s-1.9-.3-2.6-1c-.7-.6-1.1-1.5-1.1-2.6v-5.1c0-1.1.4-2 1.1-2.6.7-.6 1.6-1 2.6-1s1.9.3 2.6 1c.7.6 1.1 1.5 1.1 2.6v5.1zM33 20.7c-.3-.2-.6-.4-1.2-.4l-.9-.1-.9-.1c-1.1-.1-2-.4-2.6-.9-.6-.5-.9-1.3-.9-2.3 0-1.1.4-2 1.3-2.6.8-.6 1.9-1 3.1-1 .9 0 1.7.1 2.4.3.7.2 1.4.5 1.9 1l-1.5 1.5c-.4-.3-.8-.5-1.3-.6-.5-.1-1-.2-1.6-.2-.7 0-1.2.1-1.6.4-.4.3-.6.6-.6 1.1 0 .4.1.7.4.9s.7.4 1.2.4l.9.1.9.1c1.1.1 2 .4 2.6 1 .6.5.9 1.3.9 2.3 0 1.2-.4 2.1-1.3 2.7-.9.6-2.1 1-3.5 1-1 0-2-.1-2.7-.4-.8-.2-1.5-.7-2.2-1.3l1.5-1.5c.4.4.9.8 1.5.9s1.2.3 1.8.3c.8 0 1.4-.1 1.8-.4.5-.3.7-.7.7-1.2.2-.5.1-.8-.1-1zm-6.7 10.6v5.1c0 1.1-.4 2-1.1 2.6-.7.6-1.6 1-2.6 1s-1.9-.3-2.6-1c-.7-.6-1.1-1.5-1.1-2.6v-5.1c0-1.1.4-2 1.1-2.6.7-.6 1.6-1 2.6-1s1.9.3 2.6 1c.7.6 1.1 1.5 1.1 2.6zM14 8.7h2.3v5.9c.8-.9 1.8-1.3 3-1.3 1.3 0 2.3.4 3 1.2.7.8 1.1 1.8 1.1 3.1v7.5H21V18c0-.8-.2-1.5-.7-1.9-.4-.4-1-.6-1.7-.6s-1.3.2-1.7.6c-.4.4-.7 1.1-.7 1.9v7.2H14V8.7zm2.2 19.1v12.1H14v-9.7l-2.5 2.1V30l2.5-2.1h2.2z" class="st0"/>
  <path d="M31.9 29.7c-.4 0-.8.2-1.1.5-.3.3-.4.7-.4 1.2v5c0 .5.1.9.4 1.2.3.3.6.4 1.1.4s.8-.1 1.1-.4.4-.7.4-1.2v-5c0-.5-.1-.9-.4-1.2-.3-.3-.7-.5-1.1-.5zM21.6 30.2c-.3.3-.4.7-.4 1.2v5c0 .5.1.9.4 1.2.3.3.6.4 1.1.4s.8-.1 1.1-.4.4-.7.4-1.2v-5c0-.5-.1-.9-.4-1.2-.3-.3-.6-.5-1.1-.5s-.9.2-1.1.5z" class="st0"/>
  <path d="M0 0v49h49V0H0zm45.6 35.5c0 7.6-6.3 9.6-9.6 9.6H4.1V13.9c0-7.6 6.3-9.6 9.6-9.6h31.9v31.2z" class="st0"/>
</svg>
