<?xml version="1.0" encoding="UTF-8"?>
<svg id="hs100" xmlns="http://www.w3.org/2000/svg" viewBox="0 0 320 320">
  <defs>
    <style>
      .cls-1 {
        fill: #fff;
      }
    </style>
  </defs>
  <path class="cls-1" d="m197.35,161.45c-7.18,0-15.08-1.61-20.97-7.75l-9.62,9.8c8.62,8.63,18.67,10.68,30.59,10.68,17.38,0,30.3-8.05,30.3-23.55,0-13.17-8.04-19.75-21.68-20.92l-11.49-1.02c-7.76-.73-10.05-4.1-10.05-8.49,0-5.56,4.45-9.51,13.21-9.51,6.89,0,13.35,1.46,17.95,5.41l9.19-9.51c-6.75-6-16.08-8.34-27-8.34-15.22,0-27.43,8.19-27.43,22.67,0,13.02,7.9,19.31,21.54,20.48l11.63,1.02c7.04.58,9.76,3.8,9.76,8.77,0,7.02-7.03,10.24-15.94,10.24Z"/>
  <path class="cls-1" d="m110.22,113.63s6.16-1.67,14.87-1.71c12.24-.06,11.89,6.7,11.89,12.15v49.23h16.2v-48.3c0-2.94.03-4.46-.11-7.2-.55-10.78-8.24-19.03-23.6-19.19-9.24-.1-19.76,2.09-19.76,2.09v-33.45s-15.31,1.01-15.31,1.01v105.04h15.81v-59.67Z"/>
  <path class="cls-1" d="m208.05,187.85c-9.67,0-15.9,4.53-18.48,12.56-.86,2.64-1.34,5.67-1.34,20.59s.48,17.95,1.34,20.59c2.59,8.03,8.81,12.56,18.48,12.56s15.9-4.53,18.58-12.56c.86-2.64,1.34-5.67,1.34-20.59s-.48-17.95-1.34-20.59c-2.68-8.03-8.91-12.56-18.58-12.56Zm8.31,52.02c-1.22,3.45-3.95,5.17-7.89,5.17s-6.58-1.72-7.8-5.17c-.66-2.01-.85-4.21-.85-18.86s.19-16.85.85-18.86c1.22-3.45,3.85-5.17,7.8-5.17s6.67,1.72,7.89,5.17c.66,2.01.85,4.21.85,18.86s-.19,16.85-.85,18.86Z"/>
  <path class="cls-1" d="m94.9,208.94l10.89-6.85h.19v41.48c0,.38-.19.56-.57.56h-10.51c-.57,0-.96.38-.96.94v7.32c0,.56.38.94.96.94h32.76c.57,0,.96-.38.96-.94v-7.32c0-.56-.38-.94-.96-.94h-10.51c-.38,0-.57-.19-.57-.56v-53.12c0-.56-.38-.94-.96-.94h-8.12c-.76,0-1.24.19-1.72.56l-11.27,7.41c-.48.38-.67.75-.67,1.31v9.57c0,.75.48.94,1.05.56Z"/>
  <path class="cls-1" d="m137.41,200.41c-.86,2.64-1.34,5.67-1.34,20.59s.48,17.95,1.34,20.59c2.58,8.03,8.81,12.56,18.48,12.56s15.89-4.53,18.58-12.56c.86-2.64,1.34-5.67,1.34-20.59s-.48-17.95-1.34-20.59c-2.68-8.03-8.91-12.56-18.58-12.56s-15.89,4.53-18.48,12.56Zm11.09,1.73c1.22-3.45,3.85-5.17,7.8-5.17s6.67,1.72,7.89,5.17c.66,2.01.85,4.21.85,18.86s-.19,16.85-.85,18.86c-1.22,3.45-3.95,5.17-7.89,5.17s-6.58-1.72-7.8-5.17c-.66-2.01-.85-4.21-.85-18.86s.19-16.85.85-18.86Z"/>
  <path class="cls-1" d="m93.63,29.95c-1.2.01-29.51.55-48.61,19.63-11.32,11.31-17.06,26.79-17.06,45.99v195.47h199.44c1.2-.02,29.54-.62,48.58-19.62,11.33-11.31,17.08-26.79,17.08-46V29.95H93.63Zm183.78,15.63v180.35c0,14.96-4.39,26.94-13.06,35.59-14.26,14.24-35.1,14.84-37.42,14.86H42.62V96.03c0-14.97,4.4-26.94,13.07-35.6,14.58-14.55,36.56-14.85,37.48-14.85h184.24Z"/>
</svg>