<?xml version="1.0" encoding="utf-8"?>
<!-- Generator: Adobe Illustrator 16.0.3, SVG Export Plug-In . SVG Version: 6.00 Build 0)  -->
<!DOCTYPE svg PUBLIC "-//W3C//DTD SVG 1.1//EN" "http://www.w3.org/Graphics/SVG/1.1/DTD/svg11.dtd">
<svg version="1.1" id="Ebene_1" xmlns="http://www.w3.org/2000/svg" xmlns:xlink="http://www.w3.org/1999/xlink" x="0px" y="0px"
	 width="36px" height="34px" viewBox="0 0 36 34" enable-background="new 0 0 36 34" xml:space="preserve">
<g id="out">
	<g>
		<path  preserve--fill="#FFFFFF" d="M9.422,0C4.647,0,0,3.38,0,9.57C0,16.773,8.357,24.139,18,34c9.645-9.861,18-17.227,18-24.43
			c0-6.199-4.645-9.554-9.409-9.554c-3.305,0-6.67,1.612-8.59,5.004C16.073,1.61,12.715,0,9.422,0L9.422,0z"/>
	</g>
</g>
<g id="in">
	<path  preserve--fill="#c20016" d="M17.999,31.079l-2.21-2.229C8.391,21.402,2,14.969,2,9.569c0-2.304,0.754-4.167,2.241-5.537
		C5.585,2.798,7.473,2.09,9.421,2.09c1.382,0,4.818,0.389,6.857,3.993L18,9.127l1.723-3.044c1.405-2.49,3.973-3.977,6.867-3.977
		c3.682,0,7.41,2.564,7.41,7.463c0,5.399-6.391,11.833-13.79,19.285L17.999,31.079z"/>
</g>
<path fill="#FFFFFF" d="M18,28.241l-0.791-0.798C10.121,20.309,4,14.145,4,9.569c0-1.723,0.537-3.09,1.595-4.065
	C6.574,4.606,7.968,4.09,9.422,4.09c1.032,0,3.596,0.29,5.116,2.978L18,13.189l3.465-6.121c1.047-1.854,2.963-2.961,5.126-2.961
	C29.283,4.106,32,5.795,32,9.569c0,4.575-6.121,10.738-13.216,17.882L18,28.241z"/>
</svg>
