<svg xmlns="http://www.w3.org/2000/svg" xml:space="preserve" width="36" height="34" viewBox="0 0 36 34">
  <path preserve--fill="#FFFFFF" d="M9.422 0C4.647 0 0 3.38 0 9.57 0 16.773 8.357 24.139 18 34c9.645-9.861 18-17.227 18-24.43C36 3.371 31.355.016 26.591.016c-3.305 0-6.67 1.612-8.59 5.004C16.073 1.61 12.715 0 9.422 0z"/>
  <path preserve--fill="#c20016" d="m17.999 31.079-2.21-2.229C8.391 21.402 2 14.969 2 9.569c0-2.304.754-4.167 2.241-5.537C5.585 2.798 7.473 2.09 9.421 2.09c1.382 0 4.818.389 6.857 3.993L18 9.127l1.723-3.044c1.405-2.49 3.973-3.977 6.867-3.977 3.682 0 7.41 2.564 7.41 7.463 0 5.399-6.391 11.833-13.79 19.285l-2.211 2.225z"/>
  <path fill="#FFF" d="m18 28.241-.791-.798C10.121 20.309 4 14.145 4 9.569c0-1.723.537-3.09 1.595-4.065.979-.898 2.373-1.414 3.827-1.414 1.032 0 3.596.29 5.116 2.978L18 13.189l3.465-6.121c1.047-1.854 2.963-2.961 5.126-2.961C29.283 4.106 32 5.795 32 9.569c0 4.575-6.121 10.738-13.216 17.882l-.784.79z"/>
</svg>
