<svg xmlns="http://www.w3.org/2000/svg" xml:space="preserve" viewBox="-360 314.5 148.5 140.5">
  <path fill="currentColor" d="M-260.6 353.4c0 1.5-1.9 2.8-3.5 2.8s-3.5-1.3-3.5-2.8v-18.8c0-1.5 1.9-2.8 3.5-2.8s3.5 1.3 3.5 2.8v18.8zm-21 4.7c1.1 1.1.5 3.5-.7 4.6-1.2 1.2-3.5 1.8-4.6.7l-13.3-13.3c-1.1-1.1-.5-3.5.7-4.6 1.2-1.2 3.5-1.8 4.6-.7l13.3 13.3zm20 52c0-1.5 1.9-2.8 3.5-2.8s3.5 1.3 3.5 2.8v18.8c0 1.5-1.9 2.8-3.5 2.8s-3.5-1.3-3.5-2.8v-18.8zm19.6-8.6c-1.1-1.1-.5-3.5.7-4.6 1.2-1.2 3.5-1.8 4.6-.7l13.3 13.3c1.1 1.1.5 3.5-.7 4.6-1.2 1.2-3.5 1.8-4.6.7l-13.3-13.3zm8.6-19c-1.5 0-2.8-1.9-2.8-3.5s1.3-3.5 2.8-3.5h18.8c1.5 0 2.8 1.9 2.8 3.5s-1.3 3.5-2.8 3.5h-18.8zm-5.4-20.1c-1.1 1.1-3.5.5-4.6-.7-1.2-1.2-1.8-3.5-.7-4.6l13.3-13.3c1.1-1.1 3.5-.5 4.6.7 1.2 1.2 1.8 3.5.7 4.6l-13.3 13.3z"/>
  <path fill="#989898" d="M-328.4 361h.7c5.8.1 10.1 1.7 13 4.7 3.4 3.5 3.6 7.9 3.6 9.6-.1 2.5 1.2 4.9 3.3 6.3 1.2.8 2.6 1.2 4 1.2 1 0 2.1-.2 3.1-.7 1.1-.5 3.5-1.1 6.7-1.1 1.9 0 18.5.4 18.8 13.7.1 5.8-1 9.9-3.6 12.4-4.7 4.8-15.3 5.5-24.9 5.5-3.5 0-7-.1-10.8-.2-3.8-.1-7.8-.2-11.8-.2h-1.4c-6.6 0-12.2-2.3-16.7-6.8-5.2-5.2-7.5-12-7.4-16.4-.2-10.8 6.2-28 23.4-28m0-7.3c-21.3 0-30.9 20.3-30.9 35.3 0 12.1 10.7 30.6 31.5 30.6h1.4c7.6 0 15.4.4 22.6.4 20.1 0 36.2-3 35.8-25.3-.3-15.4-14.8-20.9-26-20.9-3.9 0-7.4.7-9.8 1.8.2-9.3-5.8-21.4-23.7-21.8-.3-.1-.6-.1-.9-.1z"/>
  <path fill="currentColor" d="M-263.6 362.1c-5.7 0-10.8 2.2-14.6 5.7 3.9 1.3 12.7 5 15.9 13.4 3.5 9.4 2.1 16.9.4 21.2 10.8-.8 19.4-9.5 19.4-20.1-.1-11.2-9.5-20.2-21.1-20.2z"/>
</svg>
