<?xml version="1.0" encoding="utf-8"?>
<!-- Generator: Adobe Illustrator 25.4.1, SVG Export Plug-In . SVG Version: 6.00 Build 0)  -->
<svg version="1.1" id="Ebene_1" xmlns="http://www.w3.org/2000/svg" xmlns:xlink="http://www.w3.org/1999/xlink" x="0px" y="0px"
	 viewBox="0 0 30.4 28.1" style="enable-background:new 0 0 30.4 28.1;" xml:space="preserve">
<g>
	<path id="Pfad_540" d="M18.3,6.2c-3.4,0-6.3,2.4-6.8,5.8c-0.6,0.3-1.2,0.7-1.6,1.2c-3-1.8-6.9-0.7-8.7,2.3c-0.6,1-0.9,2.1-0.9,3.2
		c0,3.4,3.5,5.7,6,6.3c3.1,0.7,10.2,0.9,13.5,0.1c1.7-0.4,4.8-2.3,4.8-4.9c0-1-0.3-1.9-0.8-2.7c1-1.2,1.5-2.7,1.5-4.3
		C25.2,9.3,22.1,6.2,18.3,6.2z M17.8,23.7c-3.3,0.4-6.7,0.3-10-0.3c-0.7-0.2-5.5-1.2-5.5-4.7c-0.1-2.4,1.7-4.4,4.1-4.6
		c0.2,0,0.5,0,0.7,0c1.1,0.2,2.1,0.6,3,1.2c0.4-0.4,0.8-0.8,1.3-1.1c0.5-0.4,1.1-0.7,1.7-0.9c0.2-0.1,0.5-0.1,0.7-0.1
		c3.1-0.1,4.3,2.1,5,3.6c0.8,0.1,1.5,0.3,2.2,0.6c0.6,0.3,1,0.7,1.3,1.2c0.1,0.3,0.2,0.7,0.2,1C22.7,21.7,20.8,23.2,17.8,23.7z
		 M22.5,16.1c-0.7-0.5-1.5-0.8-2.4-0.9c-0.9-2.4-3.2-3.9-5.8-3.9c-0.3,0-0.5,0-0.8,0.1c1-2.7,4-4,6.6-3c2,0.8,3.3,2.7,3.3,4.8
		C23.5,14.2,23.1,15.3,22.5,16.1L22.5,16.1z"/>
	<path id="Pfad_541" d="M26.6,15.7c-0.3-0.1-0.7,0.1-0.9,0.6c-0.2,0.5-0.2,0.9,0.1,1.1l2.6,1.3c0.3,0.1,0.7-0.1,0.9-0.6
		c0.2-0.5,0.2-0.9-0.1-1.1L26.6,15.7z"/>
	<path id="Pfad_542" d="M30.2,9.9c-0.1-0.5-0.4-0.9-0.7-0.8l-2.8,0.7c-0.3,0.1-0.4,0.5-0.3,1s0.4,0.9,0.7,0.8l2.8-0.7
		C30.1,10.9,30.3,10.4,30.2,9.9z"/>
	<path id="Pfad_543" d="M16.4,5.2c0.5-0.2,0.8-0.5,0.7-0.8l-0.9-2.8c-0.1-0.3-0.6-0.4-1-0.2c-0.5,0.2-0.8,0.5-0.7,0.8L15.3,5
		C15.4,5.3,15.9,5.4,16.4,5.2z"/>
	<path id="Pfad_544" d="M10.2,9.6c0.2,0.2,0.7-0.1,0.9-0.5c0.3-0.4,0.3-0.9,0-1.1L8.7,6.5C8.4,6.3,8,6.5,7.7,7
		c-0.3,0.4-0.3,0.9,0,1.1L10.2,9.6z"/>
	<path id="Pfad_545" d="M24.5,2.8c-0.4-0.3-0.9-0.3-1.1,0L22,5.3c-0.2,0.2,0.1,0.7,0.5,0.9c0.4,0.3,0.9,0.3,1.1,0l1.5-2.5
		C25.2,3.5,25,3.1,24.5,2.8z"/>
</g>
</svg>
