<?xml version="1.0" encoding="utf-8"?>
<!-- Generator: Adobe Illustrator 27.6.1, SVG Export Plug-In . SVG Version: 6.00 Build 0)  -->
<svg version="1.1" id="wetter" xmlns="http://www.w3.org/2000/svg" xmlns:xlink="http://www.w3.org/1999/xlink" x="0px" y="0px"
	 viewBox="0 0 320 320" style="enable-background:new 0 0 320 320;" xml:space="preserve">
<style type="text/css">
	.st0{fill-rule:evenodd;clip-rule:evenodd;fill:#FFFFFF;}
	.st1{fill:#FFFFFF;}
</style>
<g id="sonne" transform="translate(196.5438, 147.2036) rotate(76) translate(-196.5438, -147.2036)translate(75.2865, 25.0644)">
	<g id="Rectangle">
		<path class="st0" d="M50.3,40.2l24,23.3C78,67.1,78,73,74.4,76.7c-0.1,0.1-0.1,0.1-0.2,0.2c-3.8,3.7-9.9,3.7-13.8,0l-24-23.3
			c-3.7-3.6-3.8-9.5-0.2-13.2c0.1-0.1,0.1-0.1,0.2-0.2C40.3,36.5,46.5,36.4,50.3,40.2z"/>
	</g>
	<g id="Rectangle_00000129166584932927235220000005671664920609910660_">
		<path class="st0" d="M145.7,9.2v31.9c0,5.5-4.5,10-10,10c-5.5,0-10-4.5-10-10l0-31.9c0-5.5,4.5-10,10-10
			C141.3-0.8,145.7,3.7,145.7,9.2z"/>
	</g>
	<g id="Rectangle_00000008844732721682047490000015175444366039526810_">
		<path class="st0" d="M233.2,53.6l-24,23.3c-3.8,3.7-10,3.7-13.8,0c-3.7-3.6-3.8-9.5-0.2-13.2c0.1-0.1,0.1-0.1,0.2-0.2l24-23.3
			c3.8-3.7,10-3.7,13.8,0c3.7,3.6,3.8,9.5,0.2,13.2C233.3,53.5,233.2,53.5,233.2,53.6z"/>
	</g>
	<g id="Rectangle_00000093873919033133865910000002269964773622228630_">
		<path class="st0" d="M39.4,222.6l24-23.3c3.8-3.7,10-3.7,13.8,0c3.7,3.6,3.8,9.5,0.2,13.2c-0.1,0.1-0.1,0.1-0.2,0.2l-24,23.3
			c-3.8,3.7-10,3.7-13.8,0c-3.7-3.6-3.8-9.5-0.2-13.2C39.3,222.7,39.4,222.7,39.4,222.6z"/>
	</g>
	<g id="Rectangle_00000131366677170516549070000008260706269183316624_">
		<path class="st0" d="M7.5,129.4h33.4c5.5,0,10,4.5,10,10l0,0c0,5.5-4.5,10-10,10H7.5c-5.5,0-10-4.5-10-10l0,0
			C-2.5,133.8,2,129.4,7.5,129.4z"/>
	</g>
</g>
<path class="st1" d="M261.3,163.3c0-40.5-33.8-73.5-75.3-73.5c-39.8,0-72.4,30.3-75.1,68.4c-6.4,3.2-12.1,7.4-17,12.4c0,0,0,0,0,0
	c-10-6.5-21.8-10-34-10c-15.9,0-30.9,5.8-42.2,16.4C6.4,187.7,0.2,201.7,0.2,216.7c0,9.6,2.6,19,7.6,27.3c5,8.3,12.2,15.4,21.1,20.5
	c22.6,13.8,58.2,21.8,97.6,21.8c1.5,0,3,0.1,4.6,0.1c13.8,0,31.1-1.3,52.7-4c18.6-2.3,34.6-8.2,46.2-17.1
	c11.4-8.7,17.4-19.6,17.4-31.5c0-7.1-2.2-14-6.3-20.3C254,199.9,261.3,182,261.3,163.3z M186,109.8c30.5,0,55.3,24,55.3,53.5
	c0,13.4-5.2,26.2-14.4,36c-7.5-5.2-16.6-8.9-26.6-11v0c-4.3-11-12.3-20.3-22.9-27c-10.6-6.7-23-10.2-36-10.2c-3.2,0-6.3,0.2-9.3,0.6
	C137.5,127.8,159.6,109.8,186,109.8z M217.9,249.4c-8.7,6.6-21.6,11.3-36.5,13.1c-23.2,2.9-41,4.1-54.5,3.8l-0.2,0
	c-35.5,0-68.1-7.1-87.4-18.9l-0.2-0.1c-6-3.5-10.7-8-14-13.5c-3.1-5.2-4.8-11.1-4.8-17.1c0-9.4,4-18.3,11.2-25
	c7.6-7.1,17.7-11,28.5-11c8.4,0,16.3,2.3,23.1,6.7c2,1.3,3.9,2.8,5.7,4.5l8.6,8.1l6.6-9.9c1.3-2,2.9-3.9,4.5-5.6
	c8.1-8.5,20.2-13.4,33-13.4c9.2,0,17.9,2.5,25.3,7.1c7,4.5,12.2,10.5,15,17.5c0.5,1.3,0.9,2.6,1.3,4l1.7,6.6l6.8,0.8
	c1.6,0.2,3.2,0.5,4.8,0.8c9.8,2,18.4,6.2,24.2,11.8c3.2,3.1,6.9,8,6.9,14C227.4,239.3,224.2,244.6,217.9,249.4z"/>
</svg>
