<?xml version="1.0" encoding="UTF-8"?>
<svg width="320px" height="320px" viewBox="0 0 320 320" version="1.1" xmlns="http://www.w3.org/2000/svg" xmlns:xlink="http://www.w3.org/1999/xlink">
    <title>Wetter</title>
    <g id="Wetter" stroke="none" stroke-width="1" fill="none" fill-rule="evenodd">
        <g id="wetter" transform="translate(0.2, -2.5874)">
            <g id="sonne" transform="translate(196.5438, 147.2036) rotate(76) translate(-196.5438, -147.2036)translate(75.2865, 25.0644)" fill="#005293">
                <path d="M41.2693038,49.9729497 L74.6745899,49.4890552 C79.8417441,49.4142061 84.0912275,53.542335 84.1660766,58.7094892 C84.1673269,58.7958038 84.1673827,58.8821315 84.166244,58.9684477 C84.0956001,64.3232427 79.7754963,68.6489346 74.420797,68.7265004 L41.0155109,69.2103949 C35.8483567,69.2852441 31.5988734,65.1571152 31.5240242,59.989961 C31.5227739,59.9036464 31.5227181,59.8173186 31.5238569,59.7310025 C31.5945008,54.3762075 35.9146046,50.0505156 41.2693038,49.9729497 Z" id="Rectangle" transform="translate(57.8451, 59.3497) rotate(45) translate(-57.8451, -59.3497)"></path>
                <path d="M122.25398,15.9574858 L154.168951,15.9574858 C159.691799,15.9574858 164.168951,20.4346383 164.168951,25.9574858 C164.168951,31.4803333 159.691799,35.9574858 154.168951,35.9574858 L122.25398,35.9574858 C116.731132,35.9574858 112.25398,31.4803333 112.25398,25.9574858 C112.25398,20.4346383 116.731132,15.9574858 122.25398,15.9574858 Z" id="Rectangle" transform="translate(138.2115, 25.9575) rotate(90) translate(-138.2115, -25.9575)"></path>
                <path d="M199.91232,49.4890552 L233.317606,49.9729497 C238.672305,50.0505156 242.992409,54.3762075 243.063053,59.7310025 C243.131223,64.8982491 238.997604,69.1423926 233.830358,69.2105623 C233.744041,69.211701 233.657714,69.2116452 233.571399,69.2103949 L200.166113,68.7265004 C194.811414,68.6489346 190.49131,64.3232427 190.420666,58.9684477 C190.352496,53.801201 194.486115,49.5570575 199.653362,49.4888879 C199.739678,49.4877491 199.826006,49.4878049 199.91232,49.4890552 Z" id="Rectangle" transform="translate(216.7419, 59.3497) rotate(135) translate(-216.7419, -59.3497)"></path>
                <path d="M43.9263981,208.644986 L77.3316842,209.12888 C82.6863834,209.206446 87.0064872,213.532138 87.0771312,218.886933 C87.1453008,224.05418 83.0116822,228.298323 77.8444356,228.366493 C77.7581194,228.367632 77.6717917,228.367576 77.5854771,228.366325 L44.180191,227.882431 C38.8254918,227.804865 34.505388,223.479173 34.434744,218.124378 C34.3665744,212.957132 38.500193,208.712988 43.6674396,208.644818 C43.7537558,208.64368 43.8400835,208.643735 43.9263981,208.644986 Z" id="Rectangle" transform="translate(60.7559, 218.5057) rotate(315) translate(-60.7559, -218.5057)"></path>
                <rect id="Rectangle" x="0" y="130.177065" width="53.3695804" height="20" rx="10"></rect>
            </g>
            <path d="M228.905752,213.631717 C242.516986,201.989318 251.106783,184.924244 251.106783,165.907597 C251.106783,130.82231 221.867613,102.380066 185.79927,102.380066 C149.730927,102.380066 120.491757,130.82231 120.491757,165.907597" id="Oval" stroke="#005293" stroke-width="20" fill-rule="nonzero"></path>
            <g id="Wolke" transform="translate(0, 153.7038)" stroke="#005293" stroke-width="20">
                <path d="M141.148495,10 C152.555463,10 163.135783,13.1887281 171.801367,18.6704619 C180.428054,24.1275906 187.162482,31.8592502 190.764157,40.9505449 C191.435514,42.6451746 191.995202,44.3799255 192.445727,46.1437365 C194.302687,46.3729417 196.175646,46.6797205 198.057492,47.0645847 C209.780753,49.4621568 219.99703,54.5113712 227.173789,61.4235128 C233.301074,67.3248754 237.185425,74.6140247 237.185425,82.6540994 C237.185425,92.1831919 231.794913,100.082698 223.725884,106.253952 C213.365536,114.177626 198.63069,119.354097 182.34633,121.37699 C157.882352,124.41598 139.936077,125.574672 126.38971,125.254946 C87.9874822,125.219098 54.1340794,117.337084 33.7462714,104.831445 C26.3039175,100.541795 20.3042241,94.7224917 16.163635,87.7852988 C12.2428228,81.2163228 10,73.6429232 10,65.5768062 C10,52.9393737 15.5126211,41.5315713 24.325649,33.2613163 C33.3760892,24.7682705 45.8920645,19.5632842 59.6896622,19.5632842 C70.2987914,19.5632842 80.1456633,22.6390841 88.2476186,27.9220032 C90.7418973,29.5484097 93.1114624,31.4105211 95.3221916,33.4906223 C96.9964323,30.9638011 98.8736173,28.6109052 100.931353,26.4625386 C110.647184,16.3187812 125.091868,10 141.148495,10 Z" id="Combined-Shape"></path>
            </g>
        </g>
    </g>
</svg>