<?xml version="1.0" encoding="utf-8"?>
<!-- Generator: Adobe Illustrator 18.1.1, SVG Export Plug-In . SVG Version: 6.00 Build 0)  -->
<svg version="1.1" id="Ebene_5" xmlns="http://www.w3.org/2000/svg" xmlns:xlink="http://www.w3.org/1999/xlink" x="0px" y="0px"
	 viewBox="-360 314.5 148.5 140.5" enable-background="new -360 314.5 148.5 140.5" xml:space="preserve">
<g>
	<path fill="currentColor" d="M-260.6,353.4c0,1.5-1.9,2.8-3.5,2.8l0,0c-1.6,0-3.5-1.3-3.5-2.8v-18.8c0-1.5,1.9-2.8,3.5-2.8l0,0
		c1.6,0,3.5,1.3,3.5,2.8V353.4z"/>
	<path fill="currentColor" d="M-281.6,358.1c1.1,1.1,0.5,3.5-0.7,4.6l0,0c-1.2,1.2-3.5,1.8-4.6,0.7l-13.3-13.3c-1.1-1.1-0.5-3.5,0.7-4.6
		l0,0c1.2-1.2,3.5-1.8,4.6-0.7L-281.6,358.1z"/>
	<path fill="currentColor" d="M-261.6,410.1c0-1.5,1.9-2.8,3.5-2.8l0,0c1.6,0,3.5,1.3,3.5,2.8v18.8c0,1.5-1.9,2.8-3.5,2.8l0,0
		c-1.6,0-3.5-1.3-3.5-2.8V410.1z"/>
	<path fill="currentColor" d="M-242,401.5c-1.1-1.1-0.5-3.5,0.7-4.6l0,0c1.2-1.2,3.5-1.8,4.6-0.7l13.3,13.3c1.1,1.1,0.5,3.5-0.7,4.6l0,0
		c-1.2,1.2-3.5,1.8-4.6,0.7L-242,401.5z"/>
	<path fill="currentColor" d="M-233.4,382.5c-1.5,0-2.8-1.9-2.8-3.5l0,0c0-1.6,1.3-3.5,2.8-3.5h18.8c1.5,0,2.8,1.9,2.8,3.5l0,0
		c0,1.6-1.3,3.5-2.8,3.5H-233.4z"/>
	<path fill="currentColor" d="M-238.8,362.4c-1.1,1.1-3.5,0.5-4.6-0.7l0,0c-1.2-1.2-1.8-3.5-0.7-4.6l13.3-13.3c1.1-1.1,3.5-0.5,4.6,0.7
		l0,0c1.2,1.2,1.8,3.5,0.7,4.6L-238.8,362.4z"/>
	<path fill="#989898" d="M-328.4,361l0.7,0c5.8,0.1,10.1,1.7,13,4.7c3.4,3.5,3.6,7.9,3.6,9.6c-0.1,2.5,1.2,4.9,3.3,6.3
		c1.2,0.8,2.6,1.2,4,1.2c1,0,2.1-0.2,3.1-0.7c1.1-0.5,3.5-1.1,6.7-1.1c1.9,0,18.5,0.4,18.8,13.7c0.1,5.8-1,9.9-3.6,12.4
		c-4.7,4.8-15.3,5.5-24.9,5.5c-3.5,0-7-0.1-10.8-0.2c-3.8-0.1-7.8-0.2-11.8-0.2l-1.4,0c-6.6,0-12.2-2.3-16.7-6.8
		c-5.2-5.2-7.5-12-7.4-16.4C-352,378.2-345.6,361-328.4,361L-328.4,361 M-328.4,353.7c-21.3,0-30.9,20.3-30.9,35.3
		c0,12.1,10.7,30.6,31.5,30.6c0.1,0,0.1,0,0.2,0c0.4,0,0.8,0,1.2,0c7.6,0,15.4,0.4,22.6,0.4c20.1,0,36.2-3,35.8-25.3
		c-0.3-15.4-14.8-20.9-26-20.9c-3.9,0-7.4,0.7-9.8,1.8c0.2-9.3-5.8-21.4-23.7-21.8C-327.8,353.7-328.1,353.7-328.4,353.7
		L-328.4,353.7z"/>
	<path fill="currentColor" d="M-263.6,362.1c-5.7,0-10.8,2.2-14.6,5.7c3.9,1.3,12.7,5,15.9,13.4c3.5,9.4,2.1,16.9,0.4,21.2
		c10.8-0.8,19.4-9.5,19.4-20.1C-242.6,371.1-252,362.1-263.6,362.1z"/>
</g>
</svg>
