<?xml version="1.0" encoding="utf-8"?>
<!-- Generator: Adobe Illustrator 25.4.1, SVG Export Plug-In . SVG Version: 6.00 Build 0)  -->
<svg version="1.1" id="Ebene_1" xmlns="http://www.w3.org/2000/svg" xmlns:xlink="http://www.w3.org/1999/xlink" x="0px" y="0px"
	 viewBox="0 0 32 32" style="enable-background:new 0 0 32 32;" xml:space="preserve">
<style type="text/css">
	.st0{fill:#020203;}
</style>	 
<g>
	<path class="st0" d="M19.4,8.1c-3.7,0-6.7,2.7-7.3,6.2c-0.6,0.3-1.2,0.8-1.8,1.3c-1-0.6-2.2-0.9-3.4-0.9c-3.8,0-6.8,3.1-6.8,6.8
		c0,3.6,3.7,6.2,6.5,6.8c3.3,0.7,11,1,14.5,0.1c1.8-0.5,5.1-2.4,5.1-5.3c0-1.1-0.3-2.1-0.9-2.9c1-1.3,1.6-2.8,1.6-4.6
		C26.9,11.4,23.5,8.1,19.4,8.1z M18.9,26.8c-2.7,0.5-8.1,0.3-10.7-0.3c-0.7-0.2-5.9-1.3-5.9-5.1s3.2-5.2,5.1-4.9
		c1.5,0.3,2.5,0.9,3.2,1.3c0.4-0.4,0.8-0.8,1.4-1.2c0.6-0.4,1.2-0.7,1.9-0.9c0.3-0.1,0.5-0.1,0.8-0.1c3.4-0.1,4.7,2.2,5.4,3.9
		c0.8,0.1,1.7,0.3,2.4,0.6c0.6,0.3,1.1,0.7,1.4,1.3c0.2,0.3,0.2,0.7,0.3,1.1C24.2,24.7,22.1,26.3,18.9,26.8z M23.9,18.7
		c-0.7-0.5-1.6-0.9-2.6-1c-1-2.5-3.4-4.2-6.2-4.2c-0.3,0-0.6,0-0.9,0.1C15,11.5,17,10,19.4,10c3.1,0,5.5,2.5,5.5,5.5
		C25,16.7,24.6,17.8,23.9,18.7z"/>
	<path class="st0" d="M28,18.2c-0.3-0.1-0.7,0.2-1,0.6c-0.2,0.5-0.2,1,0.1,1.1l2.8,1.4c0.3,0.1,0.7-0.2,1-0.6c0.2-0.5,0.2-1-0.1-1.1L28,18.2z"/>
	<path class="st0" d="M31.9,12.1c-0.1-0.5-0.5-0.9-0.8-0.9l-3,0.7c-0.3,0.1-0.5,0.6-0.3,1.1s0.5,0.9,0.8,0.9l3-0.7C31.8,13.1,32,12.6,31.9,12.1z
		"/>
	<path class="st0" d="M16.7,7.5c0.5-0.2,0.9-0.5,0.8-0.8l-1-3c-0.1-0.3-0.6-0.4-1.1-0.2S14.5,4,14.6,4.3l1,3C15.7,7.6,16.2,7.7,16.7,7.5z"/>
	<path class="st0" d="M11.3,11.7c0.3,0.2,0.7-0.1,1-0.6s0.3-1,0-1.2L9.6,8.3c-0.3-0.2-0.7,0.1-1,0.6s-0.3,1,0,1.2L11.3,11.7z"/>
	<path class="st0" d="M25.7,4.4c-0.5-0.3-1-0.3-1.2,0l-1.6,2.7c-0.2,0.3,0.1,0.7,0.6,1s1,0.3,1.2,0l1.6-2.7C26.4,5.1,26.1,4.7,25.7,4.4z"/>
</g>
</svg>
