<?xml version="1.0" encoding="utf-8"?>
<!-- Generator: Adobe Illustrator 25.0.0, SVG Export Plug-In . SVG Version: 6.00 Build 0)  -->
<svg version="1.1" id="Ebene_1" xmlns="http://www.w3.org/2000/svg" xmlns:xlink="http://www.w3.org/1999/xlink" x="0px" y="0px"
	 viewBox="0 0 1024 1024" style="enable-background:new 0 0 1024 1024;" xml:space="preserve">
<style type="text/css">
	.st0{fill-rule:evenodd;clip-rule:evenodd;}
</style>
<g id="WA_Logo">
	<g>
		<path class="st0" d="M870.9,151C775.7,55.6,649,3.1,514.1,3.1C236.1,3.1,9.8,229.3,9.7,507.4c0,88.9,23.2,175.7,67.3,252.2
			L5.5,1020.9l267.4-70.1c73.7,40.2,156.6,61.4,241,61.4h0.2c0,0,0,0,0,0c278,0,504.3-226.3,504.4-504.4
			C1018.6,373,966.1,246.3,870.9,151z M514.1,927h-0.2c-75.2,0-149-20.2-213.4-58.4l-15.3-9.1l-158.7,41.6L169,746.4l-10-15.9
			c-42-66.7-64.1-143.9-64.1-223.1C95,276.3,283,88.3,514.3,88.3c112,0,217.2,43.7,296.4,122.9c79.1,79.2,122.7,184.6,122.7,296.6
			C933.2,738.9,745.2,927,514.1,927z M744.1,613c-12.6-6.3-74.6-36.8-86.1-41c-11.6-4.2-20-6.3-28.4,6.3
			c-8.4,12.6-32.6,41-39.9,49.4c-7.3,8.4-14.7,9.5-27.3,3.2c-12.6-6.3-53.2-19.6-101.3-62.6c-37.5-33.4-62.8-74.7-70.1-87.3
			c-7.4-12.6-0.8-19.4,5.5-25.7c5.7-5.6,12.6-14.7,18.9-22.1c6.3-7.4,8.4-12.6,12.6-21c4.2-8.4,2.1-15.8-1.1-22.1
			c-3.2-6.3-28.4-68.3-38.9-93.6c-10.2-24.6-20.6-21.2-28.4-21.6c-7.3-0.4-15.8-0.4-24.2-0.4c-8.4,0-22.1,3.2-33.6,15.8
			c-11.6,12.6-44.1,43.1-44.1,105.1c0,62,45.2,122,51.5,130.4c6.3,8.4,88.9,135.7,215.3,190.3c30.1,13,53.5,20.7,71.8,26.5
			c30.2,9.6,57.7,8.2,79.4,5c24.2-3.6,74.6-30.5,85.1-59.9c10.5-29.4,10.5-54.7,7.3-59.9C765.1,622.5,756.7,619.3,744.1,613z"/>
	</g>
</g>
</svg>
