<svg xmlns="http://www.w3.org/2000/svg" xml:space="preserve" viewBox="0 0 1024 1024">
  <path fill-rule="evenodd" d="M870.9 151C775.7 55.6 649 3.1 514.1 3.1 236.1 3.1 9.8 229.3 9.7 507.4c0 88.9 23.2 175.7 67.3 252.2L5.5 1020.9l267.4-70.1c73.7 40.2 156.6 61.4 241 61.4h.2c278 0 504.3-226.3 504.4-504.4.1-134.8-52.4-261.5-147.6-356.8zM514.1 927h-.2c-75.2 0-149-20.2-213.4-58.4l-15.3-9.1-158.7 41.6L169 746.4l-10-15.9c-42-66.7-64.1-143.9-64.1-223.1C95 276.3 283 88.3 514.3 88.3c112 0 217.2 43.7 296.4 122.9 79.1 79.2 122.7 184.6 122.7 296.6C933.2 738.9 745.2 927 514.1 927zm230-314c-12.6-6.3-74.6-36.8-86.1-41-11.6-4.2-20-6.3-28.4 6.3-8.4 12.6-32.6 41-39.9 49.4-7.3 8.4-14.7 9.5-27.3 3.2-12.6-6.3-53.2-19.6-101.3-62.6-37.5-33.4-62.8-74.7-70.1-87.3-7.4-12.6-.8-19.4 5.5-25.7 5.7-5.6 12.6-14.7 18.9-22.1 6.3-7.4 8.4-12.6 12.6-21 4.2-8.4 2.1-15.8-1.1-22.1-3.2-6.3-28.4-68.3-38.9-93.6-10.2-24.6-20.6-21.2-28.4-21.6-7.3-.4-15.8-.4-24.2-.4-8.4 0-22.1 3.2-33.6 15.8-11.6 12.6-44.1 43.1-44.1 105.1 0 62 45.2 122 51.5 130.4 6.3 8.4 88.9 135.7 215.3 190.3 30.1 13 53.5 20.7 71.8 26.5 30.2 9.6 57.7 8.2 79.4 5 24.2-3.6 74.6-30.5 85.1-59.9s10.5-54.7 7.3-59.9c-3-5.3-11.4-8.5-24-14.8z" clip-rule="evenodd"/>
</svg>
