<?xml version="1.0" encoding="utf-8"?>
<!-- Generator: Adobe Illustrator 17.0.1, SVG Export Plug-In . SVG Version: 6.00 Build 0)  -->
<!DOCTYPE svg PUBLIC "-//W3C//DTD SVG 1.1//EN" "http://www.w3.org/Graphics/SVG/1.1/DTD/svg11.dtd">
<svg version="1.1" xmlns="http://www.w3.org/2000/svg" xmlns:xlink="http://www.w3.org/1999/xlink" x="0px" y="0px" width="88px" height="88px" viewBox="0 0 88 88" 
	enable-background="new 0 0 88 88" xml:space="preserve">
	<g id="whatsapp" display="inline">
		<path d="M61.5,26.8c-1.1-1.1-2.3-2.1-3.5-2.9c-1.3-0.9-2.6-1.6-4.1-2.2c-1.4-0.6-2.9-1.1-4.5-1.4c-1.6-0.3-3.2-0.5-4.8-0.5
			c-1.6,0-3.2,0.2-4.8,0.5c-1.5,0.3-3,0.8-4.5,1.4c-1.4,0.6-2.8,1.3-4.1,2.2c-1.3,0.9-2.5,1.8-3.5,2.9c-1.1,1.1-2.1,2.3-2.9,3.5
			c-0.9,1.3-1.6,2.6-2.2,4.1c-0.6,1.4-1.1,2.9-1.4,4.5c-0.3,1.6-0.5,3.2-0.5,4.8c0,2.3,0.3,4.5,0.9,6.7c0.6,2.1,1.5,4.1,2.6,5.9
			l1.3,2.2l-0.8,2.4l-1.9,5.2l5.9-1.9l2.2-0.7l2,1.1c1.7,1,3.6,1.7,5.5,2.2c2,0.5,4,0.8,6.1,0.8c1.6,0,3.2-0.2,4.8-0.5
			c1.5-0.3,3-0.8,4.5-1.4c1.4-0.6,2.8-1.3,4.1-2.2c1.3-0.9,2.5-1.8,3.5-2.9s2.1-2.3,2.9-3.5c0.9-1.3,1.6-2.6,2.2-4.1
			c0.6-1.4,1.1-2.9,1.4-4.5c0.3-1.6,0.5-3.2,0.5-4.8c0-1.6-0.2-3.2-0.5-4.8c-0.3-1.5-0.8-3-1.4-4.5c-0.6-1.4-1.3-2.8-2.2-4.1
			C63.6,29.1,62.6,27.9,61.5,26.8z M59.7,52.1c-0.1,0.7-0.3,2.4-0.8,3c-0.6,0.7-1.5,1.6-2.5,2.1c-1,0.5-2.3,1.1-3.3,1.1
			c-1,0-2.7,0.3-8-2.4c-4.5-2.3-6.4-4.1-8.1-5.9s-7.4-9-7-13.8s3.3-6.4,4-6.6c0.7-0.2,2.9,0,2.9,0c0.5,0.2,0.6,0.2,0.8,0.7
			s2.1,5.6,2.3,6.1s0.5,1,0,1.6c-0.7,0.8-1.4,1.8-1.8,2.1c-0.4,0.3-0.7,0.7-0.7,1s0.9,2.9,4.1,6.1c3.2,3.3,6.3,4.2,6.8,4.1
			s2.9-2.8,3.2-3.2c0.3-0.4,0.8-0.7,1.4-0.4s5.6,2.8,6.2,3.2C59.8,51.2,59.8,51.4,59.7,52.1z"/>
		<path d="M0,0v88l88,0V0H0z M44.6,73.4c-5.2,0-10.2-1.4-14.5-3.7L13.8,75l5.5-15.6c-2.8-4.6-4.5-9.9-4.5-15.7
			c0-16.4,13.3-29.8,29.8-29.8s29.8,13.3,29.8,29.8C74.4,60.1,61.1,73.4,44.6,73.4z"/>
	</g>
</svg>