<?xml version="1.0" encoding="UTF-8"?>
<svg width="320px" height="320px" viewBox="0 0 320 320" version="1.1" xmlns="http://www.w3.org/2000/svg" xmlns:xlink="http://www.w3.org/1999/xlink">
    <title>whatsapp copy 2@1x</title>
    <g id="whatsapp-copy-2" stroke="none" stroke-width="1" fill="none" fill-rule="evenodd">
        <g id="whatsapp" transform="translate(26, 25)" fill="#000000" fill-rule="nonzero">
            <path d="M229.805069,39.2346237 C204.524918,13.9270977 170.880011,0 135.057613,0 C61.2353234,0 1.14185555,60.0058951 1.11530077,133.779721 C1.11530077,157.36294 7.2760098,180.389074 18.9866679,200.682845 L0,270 L71.0074825,251.404009 C90.5783556,262.068186 112.592268,267.692081 135.004503,267.692081 L135.057613,267.692081 C135.057613,267.692081 135.057613,267.692081 135.057613,267.692081 C208.879902,267.692081 268.97337,207.659658 268.999962,133.885832 C269.026479,98.126351 255.08522,64.5156219 229.805069,39.2346237 Z M135.057613,245.090391 L135.004503,245.090391 C115.035308,245.090391 95.4378804,239.731774 78.3366019,229.598153 L74.2737205,227.184123 L32.1312842,238.21969 L43.4170658,197.181175 L40.7615878,192.963254 C29.60858,175.269208 23.7399736,154.789743 23.7399736,133.779721 C23.7665284,72.4739635 73.6895153,22.6016899 135.110722,22.6016899 C164.852076,22.6016899 192.787705,34.1943407 213.819091,55.2043624 C234.823922,76.214384 246.401806,104.174691 246.401806,133.885832 C246.348697,195.19159 196.42571,245.090391 135.057613,245.090391 Z M196.133607,161.793083 C192.787705,160.121831 176.323741,152.030851 173.269941,150.916683 C170.189587,149.802515 167.958985,149.245431 165.728384,152.587935 C163.497782,155.930438 157.071525,163.464335 155.133026,165.69267 C153.194528,167.921006 151.229474,168.212812 147.883571,166.54156 C144.537669,164.870309 133.756428,161.34211 120.983579,149.935154 C111.025536,141.074867 104.307177,130.118884 102.368678,126.77638 C100.403624,123.433877 102.15624,121.629986 103.829191,119.958735 C105.342813,118.473177 107.175093,116.059147 108.848044,114.09609 C110.520996,112.133032 111.078646,110.753586 112.193947,108.525251 C113.309248,106.296915 112.751597,104.333857 111.901844,102.662606 C111.052091,100.991354 104.360287,84.5441148 101.572035,77.8325801 C98.863447,71.30674 96.1017499,72.2086854 94.030477,72.1025742 C92.0919781,71.996463 89.8348217,71.996463 87.6042202,71.996463 C85.3736186,71.996463 81.7356137,72.8453527 78.681814,76.1878562 C75.6014595,79.5303596 66.9711559,87.6213401 66.9711559,104.068579 C66.9711559,120.515818 78.9739166,136.432501 80.6468678,138.660837 C82.3198189,140.889173 104.254067,174.659069 137.81931,189.14325 C145.812299,192.591865 152.026117,194.634506 156.885642,196.173118 C164.905186,198.719788 172.20775,198.348399 177.970138,197.499509 C184.396394,196.544508 197.780004,189.408528 200.568256,181.609354 C203.356507,173.810179 203.356507,167.098644 202.506755,165.719198 C201.710111,164.313225 199.47951,163.464335 196.133607,161.793083 Z" id="Shape"></path>
        </g>
    </g>
</svg>