<svg xmlns="http://www.w3.org/2000/svg" xml:space="preserve" width="88" height="88" viewBox="0 0 88 88">
  <path d="M61.5 26.8c-1.1-1.1-2.3-2.1-3.5-2.9-1.3-.9-2.6-1.6-4.1-2.2-1.4-.6-2.9-1.1-4.5-1.4-1.6-.3-3.2-.5-4.8-.5-1.6 0-3.2.2-4.8.5-1.5.3-3 .8-4.5 1.4-1.4.6-2.8 1.3-4.1 2.2-1.3.9-2.5 1.8-3.5 2.9-1.1 1.1-2.1 2.3-2.9 3.5-.9 1.3-1.6 2.6-2.2 4.1-.6 1.4-1.1 2.9-1.4 4.5-.3 1.6-.5 3.2-.5 4.8 0 2.3.3 4.5.9 6.7.6 2.1 1.5 4.1 2.6 5.9l1.3 2.2-.8 2.4-1.9 5.2 5.9-1.9 2.2-.7 2 1.1c1.7 1 3.6 1.7 5.5 2.2 2 .5 4 .8 6.1.8 1.6 0 3.2-.2 4.8-.5 1.5-.3 3-.8 4.5-1.4 1.4-.6 2.8-1.3 4.1-2.2 1.3-.9 2.5-1.8 3.5-2.9s2.1-2.3 2.9-3.5c.9-1.3 1.6-2.6 2.2-4.1.6-1.4 1.1-2.9 1.4-4.5.3-1.6.5-3.2.5-4.8 0-1.6-.2-3.2-.5-4.8-.3-1.5-.8-3-1.4-4.5-.6-1.4-1.3-2.8-2.2-4.1-.7-1.2-1.7-2.4-2.8-3.5zm-1.8 25.3c-.1.7-.3 2.4-.8 3-.6.7-1.5 1.6-2.5 2.1s-2.3 1.1-3.3 1.1-2.7.3-8-2.4c-4.5-2.3-6.4-4.1-8.1-5.9s-7.4-9-7-13.8 3.3-6.4 4-6.6c.7-.2 2.9 0 2.9 0 .5.2.6.2.8.7s2.1 5.6 2.3 6.1.5 1 0 1.6c-.7.8-1.4 1.8-1.8 2.1-.4.3-.7.7-.7 1s.9 2.9 4.1 6.1c3.2 3.3 6.3 4.2 6.8 4.1s2.9-2.8 3.2-3.2c.3-.4.8-.7 1.4-.4s5.6 2.8 6.2 3.2c.6.3.6.5.5 1.2z"/>
  <path d="M0 0v88h88V0H0zm44.6 73.4c-5.2 0-10.2-1.4-14.5-3.7L13.8 75l5.5-15.6c-2.8-4.6-4.5-9.9-4.5-15.7 0-16.4 13.3-29.8 29.8-29.8s29.8 13.3 29.8 29.8c0 16.4-13.3 29.7-29.8 29.7z"/>
</svg>
