<?xml version="1.0" encoding="utf-8"?>

<!-- Generator: Adobe Illustrator 28.5.0, SVG Export Plug-In . SVG Version: 9.03 Build 54727)  -->

<svg version="1.1" id="whatsapp" xmlns="http://www.w3.org/2000/svg" xmlns:xlink="http://www.w3.org/1999/xlink" x="0px" y="0px"

	 viewBox="0 0 320 320" style="enable-background:new 0 0 320 320;" xml:space="preserve">

<path id="Shape" d="M255.8,64.2C230.5,38.9,196.9,25,161.1,25C87.2,25,27.1,85,27.1,158.8c0,23.6,6.2,46.6,17.9,66.9L26,295l71-18.6

	c19.6,10.7,41.6,16.3,64,16.3h0.1c73.8,0,133.9-60,133.9-133.8C295,123.1,281.1,89.5,255.8,64.2z M161.1,270.1L161.1,270.1

	c-20,0-39.6-5.4-56.7-15.5l-4.1-2.4l-42.1,11l11.3-41l-2.7-4.2c-11.2-17.7-17-38.2-17-59.2c0-61.3,50-111.2,111.4-111.2

	c29.7,0,57.7,11.6,78.7,32.6c21,21,32.6,49,32.6,78.7C272.4,220.2,222.4,270.1,161.1,270.1L161.1,270.1z M222.1,186.8

	c-3.4-1.7-19.8-9.8-22.9-10.9c-3.1-1.1-5.3-1.7-7.5,1.7s-8.7,10.9-10.6,13.1s-3.9,2.5-7.2,0.9s-14.1-5.2-26.9-16.6

	c-10-8.9-16.7-19.8-18.6-23.2c-2-3.3-0.2-5.1,1.5-6.8c1.5-1.5,3.4-3.9,5-5.9s2.2-3.3,3.4-5.6c1.1-2.2,0.6-4.2-0.3-5.9

	c-0.9-1.7-7.5-18.1-10.3-24.8c-2.7-6.5-5.5-5.6-7.5-5.7c-1.9-0.1-4.2-0.1-6.4-0.1s-5.9,0.8-8.9,4.2C101.6,104.5,93,112.6,93,129

	s12,32.4,13.7,34.6c1.7,2.2,23.6,36,57.2,50.5c8,3.4,14.2,5.5,19.1,7c8,2.6,15.3,2.2,21.1,1.3c6.4-1,19.8-8.1,22.6-15.9

	c2.8-7.8,2.8-14.5,1.9-15.9C227.7,189.3,225.5,188.4,222.1,186.8L222.1,186.8z"/>

</svg>
