<?xml version="1.0" encoding="UTF-8"?>
<svg id="whatsapp" xmlns="http://www.w3.org/2000/svg" viewBox="0 0 320 320">
  <defs>
    <style>
      .cls-1 {
        fill: #fff;
      }
    </style>
  </defs>
  <path id="Shape" class="cls-1" d="m255.81,64.23c-25.28-25.31-58.93-39.23-94.75-39.23-73.82,0-133.92,60.01-133.94,133.78,0,23.58,6.16,46.61,17.87,66.9l-18.99,69.32,71.01-18.6c19.57,10.66,41.58,16.29,64,16.29h.05c73.82,0,133.92-60.03,133.94-133.81.03-35.76-13.91-69.37-39.19-94.65Zm-94.75,205.86h-.05c-19.97,0-39.57-5.36-56.67-15.49l-4.06-2.41-42.14,11.04,11.29-41.04-2.66-4.22c-11.15-17.69-17.02-38.17-17.02-59.18.03-61.31,49.95-111.18,111.37-111.18,29.74,0,57.68,11.59,78.71,32.6,21,21.01,32.58,48.97,32.58,78.68-.05,61.31-49.98,111.2-111.34,111.2Zm61.08-83.3c-3.35-1.67-19.81-9.76-22.86-10.88-3.08-1.11-5.31-1.67-7.54,1.67-2.23,3.34-8.66,10.88-10.6,13.1s-3.9,2.52-7.25.85-14.13-5.2-26.9-16.61c-9.96-8.86-16.68-19.82-18.61-23.16-1.97-3.34-.21-5.15,1.46-6.82,1.51-1.49,3.35-3.9,5.02-5.86s2.23-3.34,3.35-5.57c1.12-2.23.56-4.19-.29-5.86-.85-1.67-7.54-18.12-10.33-24.83-2.71-6.53-5.47-5.62-7.54-5.73-1.94-.11-4.2-.11-6.43-.11s-5.87.85-8.92,4.19c-3.08,3.34-11.71,11.43-11.71,27.88s12,32.36,13.68,34.59c1.67,2.23,23.61,36,57.17,50.48,7.99,3.45,14.21,5.49,19.07,7.03,8.02,2.55,15.32,2.18,21.08,1.33,6.43-.96,19.81-8.09,22.6-15.89,2.79-7.8,2.79-14.51,1.94-15.89-.8-1.41-3.03-2.25-6.37-3.93Z"/>
</svg>