<svg xmlns="http://www.w3.org/2000/svg" xml:space="preserve" viewBox="0 0 320 320">
  <path d="M255.8 64.2C230.5 38.9 196.9 25 161.1 25c-73.9 0-134 60-134 133.8 0 23.6 6.2 46.6 17.9 66.9L26 295l71-18.6c19.6 10.7 41.6 16.3 64 16.3h.1c73.8 0 133.9-60 133.9-133.8 0-35.8-13.9-69.4-39.2-94.7zm-94.7 205.9c-20 0-39.6-5.4-56.7-15.5l-4.1-2.4-42.1 11 11.3-41-2.7-4.2c-11.2-17.7-17-38.2-17-59.2 0-61.3 50-111.2 111.4-111.2 29.7 0 57.7 11.6 78.7 32.6s32.6 49 32.6 78.7c-.1 61.3-50.1 111.2-111.4 111.2zm61-83.3c-3.4-1.7-19.8-9.8-22.9-10.9-3.1-1.1-5.3-1.7-7.5 1.7s-8.7 10.9-10.6 13.1-3.9 2.5-7.2.9-14.1-5.2-26.9-16.6c-10-8.9-16.7-19.8-18.6-23.2-2-3.3-.2-5.1 1.5-6.8 1.5-1.5 3.4-3.9 5-5.9s2.2-3.3 3.4-5.6c1.1-2.2.6-4.2-.3-5.9-.9-1.7-7.5-18.1-10.3-24.8-2.7-6.5-5.5-5.6-7.5-5.7-1.9-.1-4.2-.1-6.4-.1s-5.9.8-8.9 4.2C101.6 104.5 93 112.6 93 129s12 32.4 13.7 34.6c1.7 2.2 23.6 36 57.2 50.5 8 3.4 14.2 5.5 19.1 7 8 2.6 15.3 2.2 21.1 1.3 6.4-1 19.8-8.1 22.6-15.9 2.8-7.8 2.8-14.5 1.9-15.9-.9-1.3-3.1-2.2-6.5-3.8z"/>
</svg>
