<?xml version="1.0" encoding="UTF-8"?>
<svg id="whatsapp" xmlns="http://www.w3.org/2000/svg" viewBox="0 0 280 281">
  <path id="whatsapp-2" data-name="whatsapp" d="m239.2,40.83C212.89,14.49,177.87,0,140.58,0,63.74,0,1.19,62.45,1.16,139.23c0,24.54,6.41,48.51,18.6,69.63L0,281l73.91-19.35c20.37,11.1,43.29,16.95,66.61,16.95h.06c76.84,0,139.39-62.48,139.42-139.26.03-37.22-14.48-72.2-40.8-98.51Zm-98.62,214.24h-.06c-20.79,0-41.18-5.58-58.99-16.12l-4.23-2.51-43.87,11.49,11.75-42.71-2.76-4.39c-11.61-18.41-17.72-39.73-17.72-61.59.03-63.8,51.99-115.71,115.92-115.71,30.96,0,60.04,12.06,81.93,33.93,21.86,21.87,33.92,50.97,33.92,81.89-.06,63.8-52.02,115.74-115.9,115.74Zm63.57-86.69c-3.48-1.74-20.62-10.16-23.8-11.32-3.21-1.16-5.53-1.74-7.85,1.74-2.32,3.48-9.01,11.32-11.03,13.64-2.02,2.32-4.06,2.62-7.55.88-3.48-1.74-14.7-5.41-28-17.28-10.37-9.22-17.36-20.62-19.38-24.1-2.05-3.48-.22-5.36,1.52-7.1,1.58-1.55,3.48-4.06,5.22-6.1,1.74-2.04,2.32-3.48,3.48-5.8,1.16-2.32.58-4.36-.3-6.1-.88-1.74-7.85-18.86-10.75-25.84-2.82-6.79-5.69-5.85-7.85-5.96-2.02-.11-4.37-.11-6.69-.11s-6.11.88-9.29,4.36c-3.21,3.48-12.19,11.9-12.19,29.02s12.49,33.68,14.23,36,24.57,37.46,59.51,52.54c8.32,3.59,14.79,5.71,19.85,7.32,8.35,2.65,15.95,2.26,21.95,1.38,6.69-.99,20.62-8.42,23.52-16.54,2.9-8.12,2.9-15.1,2.02-16.54-.83-1.46-3.15-2.35-6.63-4.09Z"/>
</svg>