<?xml version="1.0" encoding="UTF-8"?>
<svg id="X" xmlns="http://www.w3.org/2000/svg" viewBox="0 0 320 320">
  <defs>
    <style>
      .cls-1 {
        fill: #fff;
        fill-rule: evenodd;
      }
    </style>
  </defs>
  <path class="cls-1" d="m186.06,143.04c27.46-31.32,54.9-62.63,82.39-93.99-.15-.03-.17-.03-.2-.03-12.35,0-24.71,0-37.06.01-.27,0-.61.21-.8.42-10.47,11.92-20.93,23.86-31.39,35.79-9.31,10.62-18.61,21.23-27.92,31.85-.82.94-1.64,1.87-2.49,2.83-.16-.21-.28-.36-.4-.51-12.45-16.43-24.9-32.86-37.36-49.29-5.18-6.84-10.37-13.67-15.53-20.52-.33-.44-.66-.61-1.22-.61-25.42.01-50.85.01-76.27.01h-.82c.2.27.31.42.42.57,16.64,21.72,33.29,43.43,49.92,65.16,11.07,14.46,22.13,28.93,33.2,43.39,3.01,3.93,6.03,7.84,9.06,11.74.34.44.29.69-.06,1.08-12.6,14.35-25.19,28.72-37.78,43.08-16.45,18.77-32.91,37.54-49.36,56.31-.16.18-.31.38-.53.64h.38c12.28,0,24.57,0,36.85-.02.28,0,.63-.18.82-.39,3.16-3.57,6.3-7.16,9.45-10.75,17.47-19.93,34.95-39.86,52.42-59.78,1.94-2.21,3.88-4.42,5.84-6.66,2.29,2.99,4.55,5.93,6.8,8.88,14.1,18.4,28.2,36.8,42.3,55.19,3.33,4.34,6.66,8.68,9.98,13.04.27.36.54.5.99.5,24.88-.01,49.75-.01,74.63-.01.2,0,.39-.02.66-.04-32.35-42.69-64.65-85.3-96.94-127.91Zm50.13,104.94c-6.45,0-12.9,0-19.35.02-.55,0-.9-.19-1.19-.58-2.47-3.2-4.93-6.4-7.39-9.6-4.95-6.45-9.89-12.91-14.85-19.36-4.01-5.22-8.03-10.43-12.05-15.65-10.94-14.21-21.87-28.42-32.81-42.64-11.6-15.07-23.2-30.13-34.8-45.2-11.12-14.45-22.24-28.9-33.36-43.35-.08-.11-.16-.23-.23-.35-.05-.06-.1-.12-.16-.19.05-.02.1-.04.15-.05.19,0,.38-.02.57-.02,7,0,13.99,0,20.99,0,.41,0,.68.1.94.44,3.81,5.04,7.65,10.06,11.47,15.09,4.18,5.49,8.36,10.99,12.54,16.48,4.32,5.68,8.65,11.36,12.97,17.04,4.24,5.57,8.48,11.14,12.72,16.71,5.65,7.43,11.31,14.85,16.96,22.28,4.18,5.49,8.36,10.99,12.54,16.48,4.32,5.68,8.65,11.36,12.98,17.04,4.25,5.58,8.5,11.17,12.75,16.75,4.3,5.64,8.59,11.29,12.89,16.93,4.22,5.55,8.45,11.1,12.67,16.65,1.25,1.65,2.5,3.29,3.86,5.07h-.81Z"/>
</svg>