<?xml version="1.0" encoding="UTF-8"?>
<svg id="X" xmlns="http://www.w3.org/2000/svg" viewBox="0 0 320 320">
  <defs>
    <style>
      .cls-1 {
        stroke-width: 0px;
      }
    </style>
  </defs>
  <path id="xpfad" class="cls-1" d="m0,0v320h320V0H0Zm282.34,270.99c-24.88,0-49.75,0-74.63.01-.45,0-.72-.14-.99-.5-3.32-4.35-6.65-8.69-9.98-13.04-14.1-18.4-28.2-36.8-42.3-55.19-2.26-2.95-4.52-5.89-6.8-8.88-1.96,2.24-3.9,4.45-5.84,6.66-17.47,19.93-34.95,39.86-52.42,59.78-3.14,3.59-6.29,7.18-9.45,10.75-.19.21-.54.39-.82.39-12.28.02-24.57.02-36.85.02h-.38c.22-.26.37-.46.53-.64,16.45-18.77,32.91-37.54,49.36-56.31,12.59-14.36,25.18-28.72,37.78-43.08.34-.39.4-.65.06-1.08-3.04-3.9-6.06-7.81-9.06-11.74-11.07-14.46-22.12-28.93-33.2-43.39-16.64-21.72-33.28-43.44-49.92-65.16-.11-.15-.22-.3-.42-.57h.82c25.42,0,50.85,0,76.27-.01.56,0,.89.17,1.22.61,5.17,6.85,10.35,13.68,15.53,20.52,12.45,16.43,24.9,32.86,37.36,49.29.11.15.23.3.4.51.84-.96,1.67-1.89,2.49-2.83,9.31-10.62,18.61-21.23,27.92-31.85,10.46-11.93,20.92-23.87,31.39-35.79.19-.22.53-.42.8-.42,12.35-.02,24.71-.01,37.06-.01.02,0,.05,0,.2.03-27.49,31.36-54.94,62.67-82.39,93.99,32.29,42.61,64.58,85.22,96.94,127.91-.26.02-.46.04-.66.04Zm-100.48-95.46c4.32,5.68,8.65,11.36,12.98,17.04,4.25,5.58,8.5,11.17,12.75,16.75,4.3,5.64,8.59,11.29,12.89,16.93,4.22,5.55,8.45,11.1,12.67,16.65,1.25,1.65,2.5,3.29,3.86,5.07h-.81c-6.45,0-12.9,0-19.35.02-.55,0-.9-.19-1.19-.58-2.47-3.2-4.93-6.4-7.39-9.6-4.95-6.45-9.89-12.91-14.85-19.36-4.01-5.22-8.03-10.43-12.05-15.65-10.94-14.21-21.87-28.42-32.81-42.64-11.6-15.07-23.2-30.13-34.8-45.2-11.12-14.45-22.24-28.9-33.36-43.35-.08-.11-.16-.23-.23-.35-.05-.06-.1-.12-.16-.19.05-.02.1-.04.15-.05.19,0,.38-.02.57-.02,7,0,13.99,0,20.99,0,.41,0,.68.1.94.44,3.81,5.04,7.65,10.06,11.47,15.09,4.18,5.49,8.36,10.99,12.54,16.48,4.32,5.68,8.65,11.36,12.97,17.04,4.24,5.57,8.48,11.14,12.72,16.71,5.65,7.43,11.31,14.85,16.96,22.28,4.18,5.49,8.36,10.99,12.54,16.48Z"/>
</svg>