<?xml version="1.0" encoding="utf-8"?>
<!-- Generator: Adobe Illustrator 19.2.0, SVG Export Plug-In . SVG Version: 6.00 Build 0)  -->
<svg version="1.1" id="Ebene_2" xmlns="http://www.w3.org/2000/svg" xmlns:xlink="http://www.w3.org/1999/xlink" x="0px" y="0px"
	 viewBox="0 0 88 88" enable-background="new 0 0 88 88" xml:space="preserve">
<path d="M0,0v88l88,0V0H0z M27.238,59H16.714c-0.634,0-1.107-0.13-1.375-0.563c-0.277-0.45-0.292-0.956,0-1.537L26.52,37.207
	c0.012-0.022,0.012-0.017,0-0.04l-7.116-12.308c-0.294-0.586-0.337-0.958-0.06-1.407C19.613,23.015,20.146,23,20.78,23h10.524
	c1.614,0,2.406,0.838,2.93,1.771c0,0,7.192,12.446,7.235,12.516c-0.426,0.751-11.361,19.886-11.361,19.886
	C29.57,58.143,28.811,59,27.238,59z M77,10.481L53.7,51.68c-0.014,0.021-0.014,0.048,0,0.069l14.836,27.106
	c0.294,0.584,0.301,1.1,0.021,1.55C68.289,80.838,67.794,81,67.161,81H56.649c-1.612,0-2.418-0.995-2.94-1.928
	c0,0-14.915-27.324-14.953-27.395c0.746-1.32,23.418-41.599,23.418-41.599C62.738,9.064,63.42,8,64.991,8h10.631
	c0.634,0,1.131,0.332,1.399,0.765C77.299,9.214,77.292,9.9,77,10.481z"/>
</svg>
