<svg xmlns="http://www.w3.org/2000/svg" xml:space="preserve" viewBox="0 0 320 320">
  <path fill="#fff" fill-rule="evenodd" d="M297 160.3v-.3c0-4.9-.3-46.2-5.7-66.6-3.2-12-12.5-21.4-24.3-24.6-20.4-5.5-99-5.8-106.8-5.8h-1.3c-7.8 0-86.4.3-106.8 5.8C40.2 72 30.9 81.5 27.7 93.4 22.3 114.1 22 156 22 160.2v.7c0 4.1.3 46.1 5.7 66.7 3.2 12 12.5 21.4 24.3 24.6 20.6 5.6 100.7 5.8 107 5.8h.8c6.4 0 86.5-.2 107-5.8 11.8-3.2 21.2-12.6 24.3-24.6 5.4-20.4 5.7-61.7 5.7-66.6v-.4l.2-.3c0 .1 0 0 0 0zm-165.6 41.4v-82.3l71.9 41.2-71.9 41.1z" clip-rule="evenodd"/>
</svg>
