<?xml version="1.0" encoding="utf-8"?>
<!-- Generator: Adobe Illustrator 27.6.1, SVG Export Plug-In . SVG Version: 6.00 Build 0)  -->
<svg version="1.1" id="youtube" xmlns="http://www.w3.org/2000/svg" xmlns:xlink="http://www.w3.org/1999/xlink" x="0px" y="0px"
	 viewBox="0 0 320 320" style="enable-background:new 0 0 320 320;" xml:space="preserve">
<style type="text/css">
	.st0{fill-rule:evenodd;clip-rule:evenodd;fill:#FFFFFF;}
</style>
<path class="st0" d="M297,160.3l0-0.3c0-4.9-0.3-46.2-5.7-66.6c-3.2-12-12.5-21.4-24.3-24.6c-20.4-5.5-99-5.8-106.8-5.8h-1.3
	c-7.8,0-86.4,0.3-106.8,5.8C40.2,72,30.9,81.5,27.7,93.4C22.3,114.1,22,156,22,160.2v0.7c0,4.1,0.3,46.1,5.7,66.7
	c3.2,12,12.5,21.4,24.3,24.6c20.6,5.6,100.7,5.8,107,5.8h0.8c6.4,0,86.5-0.2,107-5.8c11.8-3.2,21.2-12.6,24.3-24.6
	c5.4-20.4,5.7-61.7,5.7-66.6l0-0.3c0,0,0-0.1,0-0.1L297,160.3C297,160.4,297,160.3,297,160.3z M131.4,201.7v-82.3l71.9,41.2
	L131.4,201.7z"/>
</svg>
