<?xml version="1.0" encoding="utf-8"?>
<!-- Generator: Adobe Illustrator 19.2.0, SVG Export Plug-In . SVG Version: 6.00 Build 0)  -->
<svg version="1.1" xmlns="http://www.w3.org/2000/svg" xmlns:xlink="http://www.w3.org/1999/xlink" x="0px" y="0px" width="88px"
	 height="88px" viewBox="0 0 88 88" enable-background="new 0 0 88 88" xml:space="preserve">
<g id="Ebene_5">
</g>
<g id="Ebene_3">
	<path d="M88,0H0v88l88,0V0z M76,46.39c0,5.095-0.674,10.191-0.674,10.191s-0.638,4.339-2.526,6.25
		c-2.394,2.508-5.089,2.52-6.32,2.667c-8.811,0.637-22.047,0.657-22.047,0.657s-16.373-0.149-21.411-0.633
		c-1.401-0.263-4.549-0.184-6.944-2.691c-1.888-1.911-2.475-6.25-2.475-6.25S13,51.486,13,46.39v-4.777
		c0-5.095,0.602-10.191,0.602-10.191s0.6-4.339,2.488-6.25c2.395-2.508,5.071-2.455,6.302-2.602C31.203,21.935,44.413,22,44.413,22
		h0.027c0,0,13.217-0.065,22.028,0.572c1.231,0.147,3.915,0.126,6.309,2.634c1.888,1.911,2.549,6.233,2.549,6.233
		S76,36.518,76,41.613V46.39z"/>
</g>
<g id="Ebene_2">
	<polygon points="37.72,35.166 37.72,52.858 54.733,44.043 	"/>
</g>
</svg>
