<svg xmlns="http://www.w3.org/2000/svg" xml:space="preserve" width="88" height="88" viewBox="0 0 88 88">
  <path d="M88 0H0v88h88V0zM76 46.39c0 5.095-.674 10.191-.674 10.191s-.638 4.339-2.526 6.25c-2.394 2.508-5.089 2.52-6.32 2.667-8.811.637-22.047.657-22.047.657s-16.373-.149-21.411-.633c-1.401-.263-4.549-.184-6.944-2.691-1.888-1.911-2.475-6.25-2.475-6.25S13 51.486 13 46.39v-4.777c0-5.095.602-10.191.602-10.191s.6-4.339 2.488-6.25c2.395-2.508 5.071-2.455 6.302-2.602 8.811-.635 22.021-.57 22.021-.57h.027s13.217-.065 22.028.572c1.231.147 3.915.126 6.309 2.634 1.888 1.911 2.549 6.233 2.549 6.233S76 36.518 76 41.613v4.777z"/>
  <path d="M37.72 35.166v17.692l17.013-8.815z"/>
</svg>
