<svg xmlns="http://www.w3.org/2000/svg" xmlns:xlink="http://www.w3.org/1999/xlink"><symbol id="brandlogo--footer" viewBox="0 0 44 50"><g><path d="M0 37.449v12.449h1.538v-2.755c0-.51.205-.918.718-.918.41-.204.923 0 1.128.408C3.897 47.347 5.641 50 5.641 50h1.846l-2.462-3.673c-.512-.919-1.128-1.123-1.64-1.327.41-.408 3.487-3.673 3.487-3.673H5.026s-2.974 3.163-3.487 3.469v-7.245H0v-.102zM13.949 41.122v5.408c0 1.327-.718 2.041-1.846 2.041s-1.846-.714-1.846-2.041v-5.408H8.513v5.51c0 1.122.41 1.837.923 2.449a3.258 3.258 0 0 0 2.256.919c.923 0 1.641-.408 2.256-.918V50h1.538v-8.673h-1.538l.001-.205zM18.462 37.449v10c0 1.531.923 2.449 2.256 2.449h1.128v-1.327h-.718c-.718 0-.923-.204-.923-1.122v-10h-1.743zM23.59 38.673v2.551h-1.026v1.327h1.026v5c0 1.531.923 2.449 2.256 2.449h1.128v-1.327h-.718c-.718 0-.923-.408-.923-1.122v-4.796h1.846v-1.327h-1.846v-2.551H23.59v-.204zM34.256 41.122v5.408c0 1.327-.718 2.041-1.846 2.041-1.128 0-1.846-.714-1.846-2.041v-5.408h-1.538v5.51c0 1.122.41 1.837.923 2.449.41.51 1.128.918 2.256.918.923 0 1.641-.408 2.256-.918V50h1.436v-8.673h-1.641v-.205zM21.436 33.163C14.359 33.367 5.538 32.041 0 29.592v-2.245c5.949 2.449 13.949 3.878 21.026 3.673 7.795-.204 15.795-1.531 21.436-3.469v2.041c-6.154 2.245-13.231 3.571-21.026 3.571M3.692.714v7.959s2.564-.51 4.821-.51c3.692 0 5.538 2.041 5.744 4.592v12.143h-4.103V14.49c0-1.327 0-2.959-2.769-2.959-2.051 0-3.487.408-3.487.408v13.163H0V.918L3.692.714zM27.59 8.367s-3.487 0-5.538.51c-2.462.51-3.897 2.041-4.103 4.082v12.143h3.897V14.49c0-.918 0-1.531.718-2.041s2.256-.714 3.179-.714c.513 0 1.846-.204 1.846-.204V8.367zM38.872 13.878c1.641-2.041 3.692-4.286 3.692-7.041C42.564 2.551 39.179 0 35.077 0 31.179 0 28 2.449 27.59 6.327h3.897c.205-2.041 2.256-2.755 3.487-2.755 1.846 0 3.385 1.327 3.385 3.163 0 1.531-.718 2.551-1.641 3.673l-8.923 10.714v4.286h14.564v-3.469H32.308l6.564-8.061zM40.41 42.041v-.918h-1.538v8.673h1.538v-5.204c0-1.327.718-2.041 1.846-2.041.513 0 .718.204 1.128.408l.205.204.411-1.632h-.205c-.41-.204-.718-.204-1.128-.204-.923-.205-1.744.204-2.257.714"/></g></symbol></svg>