<svg xmlns="http://www.w3.org/2000/svg" xml:space="preserve" viewBox="0 0 320 320">
  <path fill="#fff" d="M149.7 24.2c2-5.7 8.2-8.7 13.9-6.7 3.2 1.1 5.6 3.6 6.7 6.7l31.9 91.7 97 2c5.9.1 10.7 5 10.7 10.9v.3c-.1 3.3-1.7 6.5-4.3 8.5l-77.3 58.6 28.1 92.9c1.7 5.7-1.4 11.7-7 13.5l-.3.1c-3.2 1-6.7.4-9.4-1.5L160 245.8l-79.7 55.4c-4.9 3.4-11.5 2.3-15-2.5l-.2-.2c-1.9-2.7-2.5-6.2-1.5-9.4l28.1-92.9-77.3-58.7c-4.7-3.6-5.7-10.3-2.3-15.1l.2-.2c2-2.7 5.1-4.3 8.5-4.3l97-2 31.9-91.7zM160 55.5l-23.9 68.7c-2.4 6.9-8.8 11.6-16.1 11.7l-72.7 1.5 58 43.9c5.7 4.3 8.2 11.7 6.3 18.6l-.1.4-21.1 69.6 59.7-41.6c5.9-4.1 13.7-4.2 19.6-.2l.3.2 59.7 41.6-21.1-69.6c-2.1-6.9.3-14.3 5.9-18.7l.3-.2 58-43.9-72.7-1.5c-7.2-.1-13.5-4.7-16-11.4l-.1-.3-24-68.8z"/>
</svg>
