<svg xmlns="http://www.w3.org/2000/svg" xml:space="preserve" viewBox="0 0 30.4 28.1">
  <path d="M28.2 12.3c-.2-.6-.8-1.1-1.5-1.1H15.2c-.7 0-1.3.4-1.5 1.1l-2.1 6.2v3.3l1 4v.6c0 .9.7 1.6 1.6 1.6.9 0 1.6-.7 1.6-1.6 0-.3.2-.5.5-.5h9.4c.3 0 .5.2.5.5 0 .9.7 1.6 1.6 1.6.9 0 1.6-.7 1.6-1.6v-.6l1-4v-3.3l-2.2-6.2zm-14.6 6.2 1.9-4.9c.1-.2.3-.3.5-.3h10c.2 0 .4.1.5.3l1.9 4.9v3.3l-.5 1.7c-.1.2-.3.4-.5.4H14.7c-.2 0-.4-.2-.5-.4l-.5-1.7v-3.1c-.1-.1-.1-.2-.1-.2z"/>
  <path d="M18.4 21.7H16c-.2 0-.3-.1-.3-.3V20c0-.2.1-.3.3-.3h2.4c.2 0 .3.1.3.3v1.4c0 .2-.2.3-.3.3zm7.6 0h-2.4c-.2 0-.3-.1-.3-.3V20c0-.2.1-.3.3-.3H26c.2 0 .3.1.3.3v1.4c0 .2-.1.3-.3.3zm-19 0H4.6c-.2 0-.3-.1-.3-.3V20c0-.2.1-.3.3-.3H7c.2 0 .3.1.3.3v1.4c0 .2-.1.3-.3.3zM8.7 5.5v4.2H3.8c0 .1.8-3.8 4.9-4.2zm6.4 4.3h-4.9V5.6c4.1.5 4.9 4.2 4.9 4.2z"/>
  <path d="M18.6 9.1s-1.5-7.2-9.3-7.2C1.8 1.9 0 8.1 0 9.1v13.1c0 2 1.4 3.6 3.4 3.6H5v1.4c0 .5.3.8.7.8.4 0 .8-.3.8-.8v-1.3h4.1l-.4-2H4.4c-.7 0-1.4-.5-1.6-.8-.4-.5-.5-.8-.5-1.4V9.1s1.1-5.2 7-5.2c5.5 0 7.1 4 7.3 4.8 0 0 .1.3.1.4 0 .2 0 .4.1.7h2c-.1-.4-.2-.7-.2-.7z"/>
</svg>
