<svg xmlns="http://www.w3.org/2000/svg" xml:space="preserve" viewBox="0 0 320 320">
  <path d="m258.883 58.5311-16.8018 28.924c-2.598 4.461-8.3227 5.8883-12.7837 3.2903l-.2425-.1457c-4.5094-2.792-5.9851-8.7108-3.3385-13.39l16.8018-28.924c2.598-4.461 8.2985-5.9853 12.7595-3.3873l.2424.1456c4.5336 2.889 6.1306 8.8807 3.3627 13.4871zm53.1584 85.0667-30.9524 7.7173c-5.3366 1.3306-10.7916-1.9471-12.1222-7.2837-1.3305-5.3367 1.9471-10.7917 7.2838-12.1222l30.9524-7.7173c5.3366-1.3306 10.7916 1.947 12.1222 7.2837 1.3547 5.4337-1.9471 10.7916-7.2838 12.1222zM290.1285 239.24l-28.414-17.6503c-4.5094-2.792-6.0093-8.8079-3.3386-13.3901 2.598-4.461 8.2986-5.9854 12.7596-3.3874l.2424.1456 28.414 17.6504c4.5094 2.792 6.0093 8.8078 3.3385 13.39-2.598 4.461-8.2985 5.9854-12.7595 3.3875-.1212-.0729-.1454-.1699-.2424-.1457zM79.264 92.0815l28.414 17.6503c4.5095 2.792 6.0094 8.8078 3.3386 13.39-2.598 4.461-8.2985 5.9855-12.7595 3.3875l-.2425-.1457-28.414-17.6503c-4.5094-2.792-6.0093-8.8078-3.3385-13.39 2.598-4.461 8.2985-5.9854 12.7595-3.3875.1212.0728.1454.1699.2424.1457zm82.7143-53.4995 8.0802 32.4078c1.3306 5.3366-1.9471 10.7916-7.2838 12.1222-5.3366 1.3305-10.7916-1.9471-12.1221-7.2838l-8.0802-32.4078c-1.3306-5.3367 1.947-10.7916 7.2837-12.1222 5.4337-1.3548 10.7916 1.9471 12.1222 7.2837z"/>
  <path d="M261.3 163.3c0-40.5-33.8-73.5-75.3-73.5-39.8 0-72.4 30.3-75.1 68.4-6.4 3.2-12.1 7.4-17 12.4-10-6.5-21.8-10-34-10-15.9 0-30.9 5.8-42.2 16.4C6.4 187.7.2 201.7.2 216.7c0 9.6 2.6 19 7.6 27.3s12.2 15.4 21.1 20.5c22.6 13.8 58.2 21.8 97.6 21.8 1.5 0 3 .1 4.6.1 13.8 0 31.1-1.3 52.7-4 18.6-2.3 34.6-8.2 46.2-17.1 11.4-8.7 17.4-19.6 17.4-31.5 0-7.1-2.2-14-6.3-20.3 12.9-13.6 20.2-31.5 20.2-50.2zM186 109.8c30.5 0 55.3 24 55.3 53.5 0 13.4-5.2 26.2-14.4 36-7.5-5.2-16.6-8.9-26.6-11-4.3-11-12.3-20.3-22.9-27-10.6-6.7-23-10.2-36-10.2-3.2 0-6.3.2-9.3.6 5.4-23.9 27.5-41.9 53.9-41.9zm31.9 139.6c-8.7 6.6-21.6 11.3-36.5 13.1-23.2 2.9-41 4.1-54.5 3.8h-.2c-35.5 0-68.1-7.1-87.4-18.9l-.2-.1c-6-3.5-10.7-8-14-13.5-3.1-5.2-4.8-11.1-4.8-17.1 0-9.4 4-18.3 11.2-25 7.6-7.1 17.7-11 28.5-11 8.4 0 16.3 2.3 23.1 6.7 2 1.3 3.9 2.8 5.7 4.5l8.6 8.1 6.6-9.9c1.3-2 2.9-3.9 4.5-5.6 8.1-8.5 20.2-13.4 33-13.4 9.2 0 17.9 2.5 25.3 7.1 7 4.5 12.2 10.5 15 17.5.5 1.3.9 2.6 1.3 4l1.7 6.6 6.8.8c1.6.2 3.2.5 4.8.8 9.8 2 18.4 6.2 24.2 11.8 3.2 3.1 6.9 8 6.9 14-.1 5.6-3.3 10.9-9.6 15.7z"/>
</svg>
