<svg id="hrbb" xmlns="http://www.w3.org/2000/svg" viewBox="0 0 540 220" preserveAspectRatio="xMinYMid meet"><path d="M138.96 219.96H92.14V132.1c0-11.19-.05-16.25-3.26-19.44-2.76-2.75-8.09-4.15-17.18-4.15-6.84 0-14.83.86-24.78 2.49v108.96H0V2.97L46.92 0v71.1c10.17-1.7 22.7-3.29 33.35-3.29 21.57 0 35.86 6.3 45.19 15.62 12.44 12.44 13.52 27.14 13.51 44.39v92.13Zm67.85.04h-46.92v-89.48c0-15.9.62-30.16 13.25-42.79 13.94-13.94 36.05-19.31 84.67-19.81v39.81c-35.89.97-44.08 3.45-47.75 7.12-2.58 2.58-3.26 6.12-3.26 13.57V220Zm104.09-8.09h-19.4v-21.07h19.4c5.75 0 10.3 4.64 10.3 10.49s-4.55 10.58-10.3 10.58m-2.04-48.82c5.38 0 9.65 4.46 9.65 9.93s-4.27 9.93-9.65 9.93H291.5v-19.86h17.36Zm11.14 23.2c4.27-2.97 7.05-7.7 7.05-13.55 0-10.02-8.07-17.73-18.19-17.73h-25.99v64.98h28.03c10.49 0 18.84-7.98 18.84-18.38 0-7.05-3.9-12.53-9.74-15.32m28.31-53.64h8.63V67.68h-8.63v64.97Zm-37.4-8.08h-19.4V103.5h19.4c5.75 0 10.3 4.64 10.3 10.49s-4.55 10.58-10.3 10.58m-2.04-48.82c5.38 0 9.65 4.46 9.65 9.93s-4.27 9.93-9.65 9.93h-17.36V75.75h17.36Zm11.14 23.2c4.27-2.97 7.05-7.7 7.05-13.55 0-10.02-8.07-17.73-18.19-17.73h-25.99v64.98h28.03c10.49 0 18.84-7.98 18.84-18.38 0-7.06-3.9-12.53-9.74-15.32m119.71 1.49h-32.49v7.8h23.85c-1.67 9.74-9.65 17.17-23.11 17.17-15.5 0-25.8-11.14-25.8-25.25s10.4-25.34 25.43-25.34c9.19 0 17.08 4.73 20.79 11.69l7.43-4.36c-5.38-9.28-15.96-15.68-28.13-15.68-19.77 0-34.06 15.04-34.06 33.69s14.2 33.69 34.25 33.69 31.84-12.99 31.84-29.52v-3.9Zm68.94 111.38h-16.71v-48.64h16.71c13.37 0 22.55 10.58 22.55 24.32s-9.19 24.32-22.55 24.32m0-56.8h-25.34v64.97h25.34c17.91 0 30.82-14.48 30.82-32.49s-12.9-32.49-30.82-32.49m-56.25 0v48.45L419 155.01h-6.96v64.97h8.63v-48.54l33.41 48.54h6.96v-64.97h-8.63Zm-95.02 42.32 11.6-32.02 11.69 32.02h-23.3Zm31.56 22.65h9.19l-24.23-64.97h-9.75l-24.22 64.97h9.19l5.29-14.57h29.24l5.29 14.57Z" style="fill:#00646f;stroke-width:0"/></svg>