<svg version="1.1" id="big_band" xmlns="http://www.w3.org/2000/svg" x="0" y="0" width="148" height="49" viewBox="0 0 148 49" xml:space="preserve" preserveAspectRatio="xMinYMid meet"><g style="fill:#fff"><path d="M24.3 36.9c-8.2.199-18-1.4-24.3-4v-2.6c6.8 2.8 15.9 4.4 23.8 4.2 8.6-.2 18-1.6 24.3-4.2v2.3c-7.3 2.6-15.2 4-23.8 4.3M4.2 0v9.1s2.8-.7 5.4-.5c4.2 0 6.3 2.3 6.5 5.1 0 .7 0 1.2 0 1.9v11.9h-4.4V15.4c0-1.4 0-3.3-3.3-3.3-2.3 0-4 .5-4 .5v14.9H0V.2L4.2 0zM30.6 8.6c-.9 0-3.7 0-5.8.5-2.8.7-4.4 2.3-4.7 4.7 0 .5 0 .7 0 1.9v11.9h4.4V15.4c0-1.2 0-1.9.7-2.3.7-.7 2.6-.7 3.7-.9.5 0 1.2 0 1.6 0V8.6h.1zM51.8 8.2c0 2.6-1.9 4-4.4 4h-6.3V6.8c0-1.6.9-2.6 3-2.6h3.3c2.5.2 4.4 1.4 4.4 4m4.4 11.9c0-3.5-2.1-5.4-4.2-6.3 1.9-.7 3.7-2.8 3.7-5.8 0-4.4-3.3-7.5-8.4-7.5h-4.2c-3.5 0-6.3 2.1-6.3 5.6v21.5h11.3c4.9.2 8.1-2.6 8.1-7.5m-4.2-.3c0 2.3-1.6 4.2-4.4 4.2h-6.5v-8.2h6.5c2.8.1 4.4 1.7 4.4 4M62.1.7h4.2v18.9h-4.2zM90.1 22.4c-2.1 1.9-4.7 2.8-7.5 2.8s-5.4-.9-7.2-2.6c-2.8-2.3-2.6-5.1-2.6-9.8 0-4.7 0-7.5 2.6-9.8C77.3 1.4 79.6.4 82.6.4c5.8 0 9.3 3.3 10 7.5h-4.2c-.7-2.6-2.8-4-5.8-4-1.6 0-3 .5-4 1.4-1.4 1.5-1.6 2.4-1.6 7.3s.2 6.3 1.6 7.5c.9.9 2.6 1.4 4.2 1.4 1.9 0 3.3-.7 4.4-1.6.9-.9 1.4-2.1 1.4-3.7V15h-5.8v-3h10v3.7c-.2 3-.9 5.1-2.7 6.7M100.1 49S92.2 29.9 91 27.5c-.7-1.6-2.1-1.6-2.6-1.6-.7 0-1.9.199-2.3 1.399C85.4 28.5 76.8 49 76.8 49H81l1.9-4.7h10.7l1.9 4.7h4.6zm-7.5-7.5h-8.4L88.4 31l4.2 10.5zM118.5 49l-11.9-16.3V49h-4V27.8c0-1.399 1.2-2.3 2.1-2.3 1.2 0 1.6.5 2.8 1.6 1.2 1.601 10.7 14.7 10.7 14.7V25.4h4v23.3h-3.7v.3zM142.1 44.1c-1.199 1.2-2.8 1.4-4.699 1.4h-4.7V31.7c0-1.601 1.2-2.601 2.3-2.601 1.2 0 2.3 0 2.3 0 1.9 0 3.5.5 4.7 1.601 1.4 1.2 1.4 3 1.4 6.3s.099 5.7-1.301 7.1m2.8-16.3c-1.601-1.399-4-2.3-7-2.3h-3.5c-3.301 0-6.101 2.3-6.101 5.4V49h9.601c2.8 0 5.1-.7 7-2.1 2.8-2.601 2.8-6.301 2.8-9.801s0-6.799-2.8-9.299M71.4 29.6c0 2.601-1.9 4-4.4 4h-6.3v-5.4c0-1.601.9-2.601 3-2.601H67c2.5.101 4.4 1.501 4.4 4.001m4.7 11.9c0-3.5-2.1-5.4-4.2-6.3 1.9-.7 3.7-2.8 3.7-5.8 0-4.4-3.3-7.5-8.4-7.5h-4.4c-3.5 0-6.3 2.1-6.3 5.6V49h11.2c4.9 0 8.4-2.6 8.4-7.5m-4.2-.2c0 2.3-1.6 4.2-4.4 4.2H61v-8.2h6.5c2.7-.2 4.4 1.4 4.4 4"/></g></svg>