<svg xmlns="http://www.w3.org/2000/svg" xmlns:xlink="http://www.w3.org/1999/xlink"><symbol id="brandlogo--desk" viewBox="0 0 126 60"><g><path d="M3.597.324 3.596 8.1s2.444-.508 4.592-.487c3.571.035 5.36 1.954 5.486 4.46.033.636.026.987.026 1.671V23.87H9.932V13.529c0-1.266.081-2.839-2.763-2.826-2.026.011-3.457.4-3.457.4V23.87H.037V.558l3.56-.234zM20.668 31.67C13.77 31.79 5.409 30.531.006 28.2v-2.1c5.679 2.408 13.404 3.684 20.302 3.565 7.443-.128 15.192-1.38 20.557-3.485v2.037c-6.002 2.134-12.798 3.326-20.197 3.453M26.06 7.669c-.718.018-3.226.06-4.926.451-2.285.522-3.75 1.901-3.954 4.011-.039.405-.058.662-.058 1.589v10.15h3.762V13.491c0-.911.071-1.488.666-2.023.674-.604 2.214-.693 3.092-.764.463-.038 1.06-.007 1.418-.024V7.669zM44.07 7.392c0 2.129-1.551 3.289-3.832 3.289h-5.287V6.19c0-1.455.841-2.087 2.558-2.087h2.729c2.28 0 3.832 1.161 3.832 3.289m3.933 10.058c0-2.901-1.718-4.61-3.536-5.319 1.586-.613 3.172-2.386 3.172-4.868 0-3.87-2.742-6.287-7.104-6.287h-3.781c-2.925 0-5.372 1.836-5.372 4.774V23.929h9.517c4.163.001 7.104-2.255 7.104-6.479m-3.569-.16c0 2.031-1.387 3.514-3.865 3.514h-5.618v-6.997h5.618c2.477.001 3.865 1.451 3.865 3.483M52.906 1.038h3.568v16.049h-3.568V1.038zM76.714 19.451c-1.774 1.655-3.974 2.351-6.436 2.351-2.431 0-4.531-.784-6.142-2.206-2.298-2.033-2.265-4.327-2.265-8.305 0-3.976-.033-6.27 2.265-8.303 1.61-1.423 3.645-2.206 6.142-2.206 4.959 0 7.847 2.874 8.503 6.416h-3.578c-.592-2.264-2.329-3.363-4.956-3.363-1.379 0-2.598.464-3.419 1.247-1.148 1.104-1.411 2.058-1.411 6.209 0 4.152.263 5.304 1.411 6.408.821.784 2.106 1.224 3.484 1.224 1.543 0 2.854-.499 3.773-1.427.854-.871 1.183-1.878 1.183-3.213v-1.115h-4.991V10.45h8.537v3.164c.001 2.671-.557 4.385-2.1 5.837M85.18 42.133s-6.82-16.249-7.685-18.209c-.575-1.307-1.808-1.308-2.184-1.308-.601 0-1.531.202-1.967 1.127-.508 1.08-7.9 18.39-7.9 18.39h3.527l1.654-3.954h9.177l1.575 3.954h3.803zm-6.339-6.498h-7.208l3.643-8.889 3.565 8.889zM100.852 42.133 90.79 28.188v13.945h-3.458V24.145c0-1.28.977-1.888 1.847-1.888.969 0 1.481.341 2.289 1.422 1 1.339 9.108 12.494 9.108 12.494V22.258h3.458v19.875h-3.182zM120.934 37.918c-.981.923-2.289 1.187-3.955 1.187l-3.977-.01-.007-11.761c0-1.362.934-2.136 2.059-2.194.986-.051 1.925-.047 1.925-.047 1.667 0 2.974.42 3.955 1.344 1.21 1.147 1.243 2.791 1.243 5.535 0 2.742-.033 4.797-1.243 5.946m2.422-13.969c-1.443-1.274-3.436-1.895-5.901-1.895h-2.9c-2.8 0-5.17 2.027-5.17 4.606v15.477l8.066-.003c2.375 0 4.462-.557 5.905-1.831 2.469-2.179 2.308-5.404 2.308-8.318 0-2.914.161-5.859-2.308-8.036M60.846 25.577c0 2.128-1.552 3.288-3.832 3.288h-5.287v-4.49c0-1.455.841-2.088 2.559-2.088h2.729c2.28.001 3.831 1.163 3.831 3.29m3.934 10.058c0-2.9-1.719-4.609-3.536-5.319 1.585-.613 3.172-2.386 3.172-4.868 0-3.869-2.741-6.286-7.104-6.286H53.53c-2.925 0-5.372 1.835-5.372 4.773v18.18h9.516c4.164 0 7.106-2.255 7.106-6.48m-3.569-.16c0 2.031-1.388 3.513-3.866 3.513h-5.617v-6.996h5.617c2.478.001 3.866 1.453 3.866 3.483M.85 50.16v3.061h3.646v.794H.85v3.668h-.888v-8.318h5.166v.795H.85zM9.278 53.034c-.316-.315-.549-.421-.993-.421-.841 0-1.379.666-1.379 1.543v3.528h-.842v-5.748h.842v.701c.316-.479.947-.771 1.613-.771.549 0 .97.129 1.379.538l-.62.63zM14.188 57.683v-.549c-.467.467-.888.619-1.66.619-.795 0-1.262-.152-1.625-.526-.28-.28-.432-.712-.432-1.168 0-1.005.701-1.659 1.987-1.659h1.73v-.55c0-.841-.421-1.261-1.473-1.261-.736 0-1.11.175-1.449.654l-.572-.525c.514-.666 1.098-.853 2.033-.853 1.543 0 2.303.666 2.303 1.917v3.902h-.842v-.001zm0-2.651h-1.613c-.865 0-1.285.35-1.285 1.016s.409.982 1.32.982c.491 0 .923-.035 1.286-.386.199-.187.292-.514.292-.993v-.619zM20.466 57.683v-3.54c0-1.016-.549-1.531-1.414-1.531-.865 0-1.426.526-1.426 1.531v3.54h-.842v-5.748h.842v.631c.409-.467.97-.701 1.613-.701.62 0 1.122.187 1.473.538.409.397.596.935.596 1.6v3.68h-.842zM26.966 57.683l-1.823-2.944-1.122 1.286v1.658h-.842v-8.318h.842v5.561l2.594-2.991h1.052l-1.952 2.197 2.291 3.551h-1.04zM30.474 52.613v5.071h-.842v-5.071h-.736v-.642h.736v-1.087c0-.853.479-1.542 1.461-1.542h.608v.724h-.456c-.537 0-.771.316-.771.842v1.063h1.227v.642h-1.227zM36.54 57.683v-.643c-.409.468-.982.713-1.625.713-.619 0-1.134-.187-1.484-.538-.409-.397-.584-.946-.584-1.612v-3.668h.842v3.54c0 1.017.538 1.531 1.402 1.531.865 0 1.438-.526 1.438-1.531v-3.54h.842v5.748h-.831zM42.514 53.034c-.316-.315-.549-.421-.993-.421-.842 0-1.379.666-1.379 1.543v3.528H39.3v-5.748h.842v.701c.316-.479.947-.771 1.613-.771.549 0 .97.129 1.379.538l-.62.63zM45.893 57.683c-.981 0-1.472-.689-1.472-1.542v-3.529h-.725v-.642h.725v-1.799h.841v1.799h1.227v.642h-1.227v3.505c0 .526.246.841.783.841h.444v.724h-.596v.001zM55.946 57.683l-1.893-3.692h-1.999v3.692h-.888v-8.319h3.191c1.449 0 2.466.876 2.466 2.313 0 1.215-.736 2.009-1.812 2.232l1.975 3.773h-1.04v.001zm-1.671-7.523h-2.221v3.049h2.221c.97 0 1.659-.502 1.659-1.519 0-1.016-.689-1.53-1.659-1.53zM61.768 57.683v-.549c-.468.467-.888.619-1.66.619-.795 0-1.262-.152-1.625-.526-.28-.28-.432-.712-.432-1.168 0-1.005.701-1.659 1.987-1.659h1.73v-.55c0-.841-.421-1.261-1.473-1.261-.737 0-1.11.175-1.449.654l-.572-.525c.514-.666 1.098-.853 2.033-.853 1.543 0 2.302.666 2.302 1.917v3.902h-.841v-.001zm0-2.651h-1.613c-.865 0-1.285.35-1.285 1.016s.409.982 1.32.982c.491 0 .924-.035 1.286-.386.199-.187.292-.514.292-.993v-.619zM67.882 57.683v-.689c-.467.607-1.005.759-1.636.759-.584 0-1.098-.199-1.401-.502-.585-.584-.702-1.542-.702-2.442 0-.899.117-1.857.702-2.442.303-.304.817-.503 1.401-.503.631 0 1.158.14 1.625.737v-3.237h.843v8.319h-.832zm-1.449-5.07c-1.251 0-1.449 1.075-1.449 2.196 0 1.122.198 2.196 1.449 2.196s1.437-1.075 1.437-2.196c0-1.121-.186-2.196-1.437-2.196zM70.573 50.3v-.946h.946v.946h-.946zm.046 7.383v-5.748h.843v5.748h-.843zM77.271 57.099c-.398.397-.947.654-1.648.654s-1.251-.257-1.648-.654c-.584-.596-.701-1.402-.701-2.29 0-.888.117-1.694.701-2.29.398-.398.948-.655 1.648-.655.701 0 1.251.257 1.648.655.584.596.701 1.402.701 2.29 0 .888-.117 1.694-.701 2.29zm-.597-4.065a1.47 1.47 0 0 0-1.051-.421c-.409 0-.772.152-1.041.421-.42.42-.467 1.133-.467 1.776s.047 1.355.467 1.776c.269.268.631.42 1.041.42.409 0 .783-.152 1.051-.42.421-.421.457-1.133.457-1.776s-.036-1.356-.457-1.776zM86.108 57.683H82.87v-8.319h3.132c1.449 0 2.454.83 2.454 2.22 0 .876-.525 1.566-1.227 1.823.795.292 1.356.981 1.356 1.974 0 1.508-1.005 2.302-2.477 2.302zm-.175-7.523h-2.174v2.885h2.174c.923 0 1.635-.455 1.635-1.448 0-.993-.712-1.437-1.635-1.437zm.093 3.68h-2.268v3.049h2.268c1.029 0 1.671-.596 1.671-1.531 0-.934-.642-1.518-1.671-1.518zM90.189 50.3v-.946h.947v.946h-.947zm.047 7.383v-5.748h.841v5.748h-.841zM94.981 60.324c-.865 0-1.344-.222-1.951-.771l.549-.537c.421.374.714.572 1.379.572 1.11 0 1.579-.782 1.579-1.764v-.9c-.469.596-.993.748-1.614.748-.584 0-1.087-.21-1.39-.514-.574-.572-.702-1.46-.702-2.395s.129-1.823.702-2.395c.303-.304.817-.503 1.401-.503.631 0 1.146.14 1.613.748v-.678h.831v5.923c-.001 1.426-.889 2.466-2.397 2.466zm.129-7.711c-1.251 0-1.437 1.075-1.437 2.15s.186 2.149 1.437 2.149c1.251 0 1.426-1.074 1.426-2.149s-.176-2.15-1.426-2.15zM105.432 57.683h-3.237v-8.319h3.132c1.449 0 2.454.83 2.454 2.22 0 .876-.525 1.566-1.227 1.823.795.292 1.356.981 1.356 1.974 0 1.508-1.006 2.302-2.478 2.302zm-.174-7.523h-2.175v2.885h2.175c.922 0 1.635-.455 1.635-1.448 0-.993-.713-1.437-1.635-1.437zm.093 3.68h-2.268v3.049h2.268c1.029 0 1.671-.596 1.671-1.531-.001-.934-.642-1.518-1.671-1.518zM112.822 57.683v-.549c-.469.467-.888.619-1.66.619-.795 0-1.262-.152-1.625-.526-.281-.28-.433-.712-.433-1.168 0-1.005.702-1.659 1.988-1.659h1.73v-.55c0-.841-.421-1.261-1.474-1.261-.736 0-1.11.175-1.449.654l-.572-.525c.514-.666 1.098-.853 2.033-.853 1.543 0 2.303.666 2.303 1.917v3.902h-.841v-.001zm0-2.651h-1.613c-.865 0-1.286.35-1.286 1.016s.409.982 1.32.982c.491 0 .924-.035 1.286-.386.198-.187.293-.514.293-.993v-.619zM119.098 57.683v-3.54c0-1.016-.549-1.531-1.413-1.531-.865 0-1.426.526-1.426 1.531v3.54h-.841v-5.748h.841v.631c.409-.467.97-.701 1.613-.701.619 0 1.122.187 1.472.538.409.397.597.935.597 1.6v3.68h-.843zM125.13 57.683v-.689c-.467.607-1.005.759-1.637.759-.583 0-1.098-.199-1.401-.502-.585-.584-.702-1.542-.702-2.442 0-.899.117-1.857.702-2.442.303-.304.818-.503 1.401-.503.632 0 1.158.14 1.625.737v-3.237h.843v8.319h-.831zm-1.448-5.07c-1.251 0-1.448 1.075-1.448 2.196 0 1.122.198 2.196 1.448 2.196 1.251 0 1.437-1.075 1.437-2.196 0-1.121-.187-2.196-1.437-2.196z"/></g></symbol><symbol id="brandlogo--mobile" viewBox="0 0 148 49"><path d="M24.3 36.9c-8.2.199-18-1.4-24.3-4v-2.6c6.8 2.8 15.9 4.4 23.8 4.2 8.6-.2 18-1.6 24.3-4.2v2.3c-7.3 2.6-15.2 4-23.8 4.3M4.2 0v9.1s2.8-.7 5.4-.5c4.2 0 6.3 2.3 6.5 5.1v13.8h-4.4V15.4c0-1.4 0-3.3-3.3-3.3-2.3 0-4 .5-4 .5v14.9H0V.2L4.2 0zM30.6 8.6c-.9 0-3.7 0-5.8.5-2.8.7-4.4 2.3-4.7 4.7v13.8h4.4V15.4c0-1.2 0-1.9.7-2.3.7-.7 2.6-.7 3.7-.9h1.6V8.6h.1zM51.8 8.2c0 2.6-1.9 4-4.4 4h-6.3V6.8c0-1.6.9-2.6 3-2.6h3.3c2.5.2 4.4 1.4 4.4 4m4.4 11.9c0-3.5-2.1-5.4-4.2-6.3 1.9-.7 3.7-2.8 3.7-5.8 0-4.4-3.3-7.5-8.4-7.5h-4.2c-3.5 0-6.3 2.1-6.3 5.6v21.5h11.3c4.9.2 8.1-2.6 8.1-7.5m-4.2-.3c0 2.3-1.6 4.2-4.4 4.2h-6.5v-8.2h6.5c2.8.1 4.4 1.7 4.4 4M62.1.7h4.2v18.9h-4.2zM90.1 22.4c-2.1 1.9-4.7 2.8-7.5 2.8s-5.4-.9-7.2-2.6c-2.8-2.3-2.6-5.1-2.6-9.8 0-4.7 0-7.5 2.6-9.8C77.3 1.4 79.6.4 82.6.4c5.8 0 9.3 3.3 10 7.5h-4.2c-.7-2.6-2.8-4-5.8-4-1.6 0-3 .5-4 1.4-1.4 1.5-1.6 2.4-1.6 7.3s.2 6.3 1.6 7.5c.9.9 2.6 1.4 4.2 1.4 1.9 0 3.3-.7 4.4-1.6.9-.9 1.4-2.1 1.4-3.7V15h-5.8v-3h10v3.7c-.2 3-.9 5.1-2.7 6.7M100.1 49S92.2 29.9 91 27.5c-.7-1.6-2.1-1.6-2.6-1.6-.7 0-1.9.199-2.3 1.399C85.4 28.5 76.8 49 76.8 49H81l1.9-4.7h10.7l1.9 4.7h4.6zm-7.5-7.5h-8.4L88.4 31l4.2 10.5zM118.5 49l-11.9-16.3V49h-4V27.8c0-1.399 1.2-2.3 2.1-2.3 1.2 0 1.6.5 2.8 1.6 1.2 1.601 10.7 14.7 10.7 14.7V25.4h4v23.3h-3.7v.3zM142.1 44.1c-1.199 1.2-2.8 1.4-4.699 1.4h-4.7V31.7c0-1.601 1.2-2.601 2.3-2.601h2.3c1.9 0 3.5.5 4.7 1.601 1.4 1.2 1.4 3 1.4 6.3s.099 5.7-1.301 7.1m2.8-16.3c-1.601-1.399-4-2.3-7-2.3h-3.5c-3.301 0-6.101 2.3-6.101 5.4V49h9.601c2.8 0 5.1-.7 7-2.1 2.8-2.601 2.8-6.301 2.8-9.801s0-6.799-2.8-9.299M71.4 29.6c0 2.601-1.9 4-4.4 4h-6.3v-5.4c0-1.601.9-2.601 3-2.601H67c2.5.101 4.4 1.501 4.4 4.001m4.7 11.9c0-3.5-2.1-5.4-4.2-6.3 1.9-.7 3.7-2.8 3.7-5.8 0-4.4-3.3-7.5-8.4-7.5h-4.4c-3.5 0-6.3 2.1-6.3 5.6V49h11.2c4.9 0 8.4-2.6 8.4-7.5m-4.2-.2c0 2.3-1.6 4.2-4.4 4.2H61v-8.2h6.5c2.7-.2 4.4 1.4 4.4 4"/></symbol></svg>