<svg xmlns="http://www.w3.org/2000/svg" preserveAspectRatio="xMinYMid meet" viewBox="0 0 38.71 38.18" xml:space="preserve"><path fill="#fff" d="m28.01 20.25-2.12-.19c-1.43-.14-1.85-.76-1.85-1.56 0-1 .82-1.76 2.44-1.76a5 5 0 0 1 3.31 1l1.69-1.75a7.23 7.23 0 0 0-5-1.54c-2.8 0-5.05 1.51-5.05 4.18 0 2.4 1.45 3.56 4 3.77l2.14.19c1.3.11 1.8.7 1.8 1.62.03 1.29-1.3 1.85-2.97 1.85a5.15 5.15 0 0 1-3.86-1.43l-1.78 1.8a7.28 7.28 0 0 0 5.64 2c3.21 0 5.59-1.48 5.59-4.34 0-2.42-1.48-3.64-4-3.85M10.27 8.74v6.16a19.92 19.92 0 0 1 3.64-.38c2.83 0 4.25 1.55 4.35 3.53 0 .51 0 .79 0 1.33v8.9h-3v-9.07c0-1 .07-2.25-2.19-2.24a11.68 11.68 0 0 0-2.74.32v11H7.4V8.93Z"/><path fill="#fff" d="M29.19 38.18H0V9.52C0 .11 9.4 0 9.52 0h29.19v28.66c0 9.41-9.42 9.52-9.52 9.52M1.93 36.25h27.26c.31 0 7.59-.12 7.59-7.59V1.94H9.52c-.31 0-7.59.12-7.59 7.58Z"/></svg>