<svg id="Ebene_1" data-name="Ebene 1" xmlns="http://www.w3.org/2000/svg" preserveAspectRatio="xMinYMid meet" viewBox="0 0 38.71 38.18"><defs><style>.cls-1{fill:#fff;}</style></defs><path class="cls-1" d="M28.61,21.19,26.49,21c-1.43-.14-1.85-.76-1.85-1.56,0-1,.82-1.76,2.44-1.76a5,5,0,0,1,3.31,1l1.69-1.75a7.23,7.23,0,0,0-5-1.54c-2.8,0-5.05,1.51-5.05,4.18,0,2.4,1.45,3.56,4,3.77l2.14.19c1.3.11,1.8.7,1.8,1.62C30,26.44,28.67,27,27,27a5.15,5.15,0,0,1-3.86-1.43l-1.78,1.8a7.28,7.28,0,0,0,5.64,2c3.21,0,5.59-1.48,5.59-4.34,0-2.42-1.48-3.64-4-3.85" transform="translate(-0.6 -0.94)"/><path class="cls-1" d="M10.87,9.68v6.16a19.92,19.92,0,0,1,3.64-.38c2.83,0,4.25,1.55,4.35,3.53,0,.51,0,.79,0,1.33v8.9h-3V20.15c0-1,.07-2.25-2.19-2.24a11.68,11.68,0,0,0-2.74.32v11H8V9.87Z" transform="translate(-0.6 -0.94)"/><path class="cls-1" d="M29.79,39.12H.6V10.46C.6,1.05,10,.94,10.12.94H39.31V29.6c0,9.41-9.42,9.52-9.52,9.52M2.53,37.19H29.79c.31,0,7.59-.12,7.59-7.59V2.88H10.12c-.31,0-7.59.12-7.59,7.58Z" transform="translate(-0.6 -0.94)"/></svg>