<svg xmlns="http://www.w3.org/2000/svg" xmlns:xlink="http://www.w3.org/1999/xlink"><defs><style>.cls-1{fill:#1d1d1b}</style></defs><symbol id="brandlogo--desk" viewBox="0 0 208 62" preserveAspectRatio="xMinYMin meet"><path d="M66.9 33.2c3.5.3 5.5 2 5.5 5.2 0 3.9-3.3 5.9-7.7 5.9-3 0-5.6-.5-7.8-2.7l2.5-2.5c1.5 1.5 3.6 2 5.3 2 2.3 0 4.1-.8 4.1-2.6 0-1.2-.7-2-2.5-2.2l-2.9-.3c-3.5-.3-5.5-1.9-5.5-5.2 0-3.6 3.1-5.7 7-5.7 2.8 0 5.2.6 6.9 2.1l-2.3 2.4c-1.2-1-2.8-1.3-4.6-1.3-2.2 0-3.4 1-3.4 2.4 0 1.1.6 2 2.6 2.1l2.8.4m-18.3 0-2.9-.3c-2-.2-2.6-1.1-2.6-2.1 0-1.4 1.2-2.4 3.4-2.4 1.8 0 3.4.4 4.6 1.3l2.3-2.4c-1.7-1.5-4.1-2.1-6.9-2.1-3.9 0-7 2-7 5.7 0 3.3 2 4.9 5.5 5.2l2.9.3c1.8.2 2.5 1 2.5 2.2 0 1.8-1.8 2.6-4.1 2.6-1.9 0-3.8-.4-5.3-2l-2.5 2.5c2.2 2.1 4.8 2.7 7.8 2.7 4.4 0 7.7-2 7.7-5.9.1-3.4-1.9-5-5.4-5.3m-16.7.2c0-1.2-.2-1.7-.5-2.6-.6-1.4-1.9-2.3-3.6-2.3s-3.1 1-3.7 2.3c-.4.9-.4 1.4-.4 2.6h8.2zm-4.2-8.1c5 0 7.9 3.6 7.9 9V36h-12c0 3.2 1.7 5.2 4.7 5.2 2.1 0 3.2-.6 4.5-1.9l2.4 2.2c-1.9 1.9-3.7 2.9-6.9 2.9-4.6 0-8.4-2.5-8.4-9.5-.1-6.1 3-9.6 7.8-9.6m115.1 3.3c1.5 0 2.4.4 3.6 1.8l2.6-2.5c-1.8-1.9-3.6-2.6-6.1-2.6-4.2 0-8.3 2.6-8.3 9.5s4.1 9.5 8.3 9.5c2.6 0 4.4-.8 6.1-2.7l-2.6-2.5c-1.2 1.2-2.1 1.8-3.6 1.8s-2.7-.6-3.5-1.7c-.8-1.1-1.1-2.4-1.1-4.5s.3-3.5 1.1-4.5c.8-.9 2-1.6 3.5-1.6m-54.9 4.8c0-1.2-.2-1.7-.5-2.6-.6-1.4-1.9-2.3-3.6-2.3s-3.1 1-3.7 2.3c-.4.9-.4 1.4-.4 2.6h8.2zm-4.2-8.1c5 0 7.9 3.6 7.9 9V36h-12c0 3.2 1.7 5.2 4.7 5.2 2.1 0 3.2-.6 4.5-1.9l2.4 2.2c-1.9 1.9-3.7 2.9-6.9 2.9-4.6 0-8.4-2.5-8.4-9.5 0-6.1 3.1-9.6 7.8-9.6m100.1 10.6h-4.4c-2.2 0-3.4 1-3.4 2.7 0 1.7 1.1 2.7 3.4 2.7 1.4 0 2.5-.1 3.5-1.1.5-.5.8-1.4.8-2.8l.1-1.5zm-3.9-10.6c5.1 0 7.6 2.1 7.6 6.4v12.4h-3.6v-1.7c-1.3 1.3-2.7 1.9-5 1.9s-3.8-.5-5-1.7c-1-1-1.5-2.4-1.5-4 0-3.1 2.1-5.3 6.4-5.3h4.9V32c0-2.3-1.2-3.5-4.1-3.5-2 0-3 .4-4.1 1.8L173 28c2-2 3.8-2.7 6.9-2.7m-54.6 7.9-2.9-.3c-2-.2-2.6-1.1-2.6-2.1 0-1.4 1.2-2.4 3.4-2.4 1.8 0 3.4.4 4.6 1.3l2.3-2.4c-1.7-1.5-4.1-2.1-6.9-2.1-3.9 0-7 2-7 5.7 0 3.3 2 4.9 5.5 5.2l2.9.3c1.8.2 2.5 1 2.5 2.2 0 1.8-1.8 2.6-4.1 2.6-1.9 0-3.8-.4-5.3-2l-2.5 2.5c2.2 2.1 4.8 2.7 7.8 2.7 4.4 0 7.7-2 7.7-5.9.1-3.4-1.9-5-5.4-5.3M0 17.8v26.4h4v-15s1.6-.4 3.8-.4c3.1 0 3 1.7 3 3v12.4H15v-14c-.2-2.7-2.1-4.8-6-4.8-2.4 0-5.1.5-5.1.5v-8.4l-3.9.3zm153.1 0v26.4h4v-15s1.6-.4 3.8-.4c3.1 0 3 1.7 3 3v12.4h4.2v-14c-.2-2.7-2.1-4.8-6-4.8-2.4 0-5.1.5-5.1.5v-8.4l-3.9.3zm51.2 7.7v11.3c0 2.8-1 4.1-3.8 4.2-2.6 0-3.8-1.3-3.8-4.2V25.5H193v11.9c0 2-.5 6.9 7.6 6.9s7.6-4.9 7.6-6.9V25.5h-3.9zM100 44.1V32.8c0-2.8 1-4.1 3.8-4.2 2.6 0 3.8 1.3 3.8 4.2v11.3h3.7V32.3c0-2 .5-6.9-7.6-6.9s-7.6 4.9-7.6 6.9v11.9l3.9-.1z"/></symbol><symbol id="brandlogo--mobile" viewBox="0 0 38.71 38.18" preserveAspectRatio="xMinYMid meet"><path class="cls-1" d="M28.61 21.19 26.49 21c-1.43-.14-1.85-.76-1.85-1.56 0-1 .82-1.76 2.44-1.76a5 5 0 0 1 3.31 1l1.69-1.75a7.23 7.23 0 0 0-5-1.54c-2.8 0-5.05 1.51-5.05 4.18 0 2.4 1.45 3.56 4 3.77l2.14.19c1.3.11 1.8.7 1.8 1.62C30 26.44 28.67 27 27 27a5.15 5.15 0 0 1-3.86-1.43l-1.78 1.8a7.28 7.28 0 0 0 5.64 2c3.21 0 5.59-1.48 5.59-4.34 0-2.42-1.48-3.64-4-3.85M10.87 9.68v6.16a19.92 19.92 0 0 1 3.64-.38c2.83 0 4.25 1.55 4.35 3.53v10.23h-3v-9.07c0-1 .07-2.25-2.19-2.24a11.68 11.68 0 0 0-2.74.32v11H8V9.87Z" transform="translate(-.6 -.94)"/><path class="cls-1" d="M29.79 39.12H.6V10.46C.6 1.05 10 .94 10.12.94h29.19V29.6c0 9.41-9.42 9.52-9.52 9.52M2.53 37.19h27.26c.31 0 7.59-.12 7.59-7.59V2.88H10.12c-.31 0-7.59.12-7.59 7.58Z" transform="translate(-.6 -.94)"/></symbol></svg>