<svg xmlns="http://www.w3.org/2000/svg" xmlns:xlink="http://www.w3.org/1999/xlink"><defs><style>.cls-1{fill:#1d1d1b}</style></defs><symbol id="brandlogo--compact-40x40px" viewBox="0 0 38.71 38.18" preserveAspectRatio="xMidYMid meet"><path class="cls-1" d="M28.61 21.19 26.49 21c-1.43-.14-1.85-.76-1.85-1.56 0-1 .82-1.76 2.44-1.76a5 5 0 0 1 3.31 1l1.69-1.75a7.23 7.23 0 0 0-5-1.54c-2.8 0-5.05 1.51-5.05 4.18 0 2.4 1.45 3.56 4 3.77l2.14.19c1.3.11 1.8.7 1.8 1.62C30 26.44 28.67 27 27 27a5.15 5.15 0 0 1-3.86-1.43l-1.78 1.8a7.28 7.28 0 0 0 5.64 2c3.21 0 5.59-1.48 5.59-4.34 0-2.42-1.48-3.64-4-3.85M10.87 9.68v6.16a19.92 19.92 0 0 1 3.64-.38c2.83 0 4.25 1.55 4.35 3.53v10.23h-3v-9.07c0-1 .07-2.25-2.19-2.24a11.68 11.68 0 0 0-2.74.32v11H8V9.87Z" transform="translate(-.6 -.94)"/><path class="cls-1" d="M29.79 39.12H.6V10.46C.6 1.05 10 .94 10.12.94h29.19V29.6c0 9.41-9.42 9.52-9.52 9.52M2.53 37.19h27.26c.31 0 7.59-.12 7.59-7.59V2.88H10.12c-.31 0-7.59.12-7.59 7.58Z" transform="translate(-.6 -.94)"/></symbol><symbol id="brandlogo--desk" viewBox="0 0 234 30" preserveAspectRatio="xMidYMid meet"><path d="M75.3 17.6c3.9.3 6.2 2.2 6.2 5.9 0 4.4-3.7 6.6-8.7 6.6-3.4 0-6.3-.6-8.8-3l2.8-2.8c1.7 1.7 4 2.2 6 2.2 2.6 0 4.6-.9 4.6-2.9 0-1.4-.8-2.3-2.8-2.5l-3.3-.3c-3.9-.3-6.2-2.1-6.2-5.8 0-4.1 3.5-6.4 7.9-6.4 3.1 0 5.8.7 7.8 2.4l-2.6 2.7c-1.3-1.1-3.2-1.5-5.2-1.5-2.5 0-3.8 1.1-3.8 2.7 0 1.2.7 2.2 2.9 2.4l3.2.3m-20.6 0-3.3-.3c-2.2-.2-2.9-1.2-2.9-2.4 0-1.6 1.3-2.7 3.8-2.7 2 0 3.8.4 5.2 1.5l2.6-2.7c-1.9-1.7-4.6-2.4-7.8-2.4-4.4 0-7.9 2.3-7.9 6.4 0 3.7 2.3 5.5 6.2 5.8l3.3.3c2 .2 2.8 1.1 2.8 2.5 0 2-2 2.9-4.6 2.9-2.1 0-4.3-.5-6-2.2l-2.8 2.8c2.5 2.4 5.4 3 8.8 3 5 0 8.7-2.3 8.7-6.6.1-3.7-2.2-5.5-6.1-5.9m-18.8.2c0-1.3-.2-1.9-.6-2.9-.7-1.6-2.1-2.6-4.1-2.6s-3.5 1.1-4.2 2.6c-.4 1-.5 1.6-.5 2.9h9.4zm-4.7-9.1c5.6 0 8.9 4.1 8.9 10.1v1.9H26.5c0 3.6 1.9 5.9 5.3 5.9 2.4 0 3.6-.7 5.1-2.1l2.7 2.5c-2.1 2.1-4.2 3.3-7.8 3.3-5.2 0-9.4-2.8-9.4-10.7-.1-6.9 3.4-10.9 8.8-10.9m129.4 3.8c1.7 0 2.7.5 4 2l2.9-2.8c-2-2.1-4-2.9-6.9-2.9-4.7 0-9.3 2.9-9.3 10.7s4.6 10.7 9.3 10.7c2.9 0 4.9-.9 6.9-3l-2.9-2.8c-1.3 1.4-2.4 2-4 2s-3-.7-3.9-1.9c-.9-1.2-1.2-2.7-1.2-5.1 0-2.4.3-3.9 1.2-5.1.9-1.1 2.3-1.8 3.9-1.8m-61.7 5.3c0-1.3-.2-1.9-.6-2.9-.7-1.6-2.1-2.6-4.1-2.6-2 0-3.5 1.1-4.2 2.6-.4 1-.5 1.6-.5 2.9h9.4zm-4.7-9.1c5.6 0 8.9 4.1 8.9 10.1v1.9H89.5c0 3.6 1.9 5.9 5.3 5.9 2.4 0 3.6-.7 5.1-2.1l2.7 2.5c-2.1 2.1-4.2 3.3-7.8 3.3-5.2 0-9.4-2.8-9.4-10.7 0-6.9 3.5-10.9 8.8-10.9m112.6 12h-4.9c-2.5 0-3.8 1.1-3.8 3s1.2 3 3.8 3c1.6 0 2.8-.1 3.9-1.2.6-.6.9-1.6.9-3.1v-1.7zm-4.4-12c5.7 0 8.6 2.4 8.6 7.2v14h-4.1V28c-1.5 1.5-3 2.1-5.6 2.1-2.6 0-4.3-.6-5.6-1.9-1.1-1.1-1.7-2.7-1.7-4.5 0-3.5 2.4-6 7.2-6h5.5v-1.5c0-2.6-1.3-3.9-4.6-3.9-2.3 0-3.4.5-4.6 2l-2.8-2.6c2.2-2.2 4.2-3 7.7-3M141 17.6l-3.3-.3c-2.2-.2-2.9-1.2-2.9-2.4 0-1.6 1.3-2.7 3.8-2.7 2 0 3.8.4 5.2 1.5l2.6-2.7c-1.9-1.7-4.6-2.4-7.8-2.4-4.4 0-7.9 2.3-7.9 6.4 0 3.7 2.3 5.5 6.2 5.8l3.3.3c2 .2 2.8 1.1 2.8 2.5 0 2-2 2.9-4.6 2.9-2.1 0-4.3-.5-6-2.2l-2.8 2.8c2.5 2.4 5.4 3 8.8 3 5 0 8.7-2.3 8.7-6.6.1-3.7-2.2-5.5-6.1-5.9M0 .3V30h4.5V13.1s1.8-.5 4.3-.5c3.5 0 3.4 1.9 3.4 3.4v13.9h4.7V14.3c-.2-3-2.4-5.4-6.8-5.4-2.7 0-5.7.6-5.7.6V0L0 .3zm172.2 0V30h4.5V13.1s1.8-.5 4.3-.5c3.5 0 3.4 1.9 3.4 3.4v13.9h4.7V14.3c-.2-3-2.4-5.4-6.8-5.4-2.7 0-5.7.6-5.7.6V0l-4.4.3zM229.8 9v12.7c0 3.2-1.1 4.6-4.3 4.7-2.9 0-4.3-1.5-4.3-4.7V9H217v13.4c0 2.3-.6 7.8 8.5 7.8s8.5-5.5 8.5-7.8V9h-4.2zM112.5 29.9V17.2c0-3.2 1.1-4.6 4.3-4.7 2.9 0 4.3 1.5 4.3 4.7v12.7h4.2V16.6c0-2.3.6-7.8-8.5-7.8s-8.5 5.5-8.5 7.8V30h4.2z"/></symbol><symbol id="brandlogo--mobile" viewBox="0 0 160 19" preserveAspectRatio="xMidYMid meet"><path d="M46.182 11.02c2.349.197 3.735 1.311 3.735 3.537 0 2.622-2.226 3.982-5.22 3.982-2.053 0-3.784-.346-5.267-1.805l1.656-1.656c1.015 1.038 2.375 1.31 3.611 1.31 1.534 0 2.746-.545 2.746-1.733 0-.84-.469-1.385-1.682-1.483l-2.003-.173c-2.35-.197-3.71-1.262-3.71-3.462 0-2.449 2.103-3.834 4.725-3.834 1.879 0 3.487.395 4.65 1.41L47.839 8.72c-.792-.668-1.905-.916-3.092-.916-1.509 0-2.276.668-2.276 1.607 0 .743.396 1.311 1.732 1.435l1.979.174m-12.342 0-1.979-.173c-1.335-.124-1.732-.692-1.732-1.435 0-.939.767-1.607 2.276-1.607 1.187 0 2.3.247 3.091.916l1.583-1.607c-1.162-1.015-2.77-1.41-4.65-1.41-2.621 0-4.724 1.385-4.724 3.834 0 2.201 1.36 3.265 3.71 3.462l2.003.173c1.212.099 1.681.643 1.681 1.483 0 1.187-1.211 1.733-2.745 1.733-1.237 0-2.598-.273-3.612-1.31l-1.657 1.656c1.485 1.459 3.216 1.805 5.269 1.805 2.992 0 5.219-1.36 5.219-3.982.001-2.227-1.384-3.341-3.733-3.538m-11.255.074c-.024-.767-.099-1.138-.346-1.707-.396-.939-1.287-1.582-2.474-1.582-1.187 0-2.102.643-2.498 1.582-.247.569-.297.94-.322 1.707h5.64zm-2.819-5.392c3.364 0 5.318 2.473 5.318 6.035v1.113h-8.138c0 2.151 1.138 3.512 3.191 3.512 1.41 0 2.152-.396 3.043-1.285l1.607 1.509c-1.287 1.285-2.498 1.953-4.699 1.953-3.142 0-5.64-1.656-5.64-6.431-.001-4.057 2.102-6.406 5.318-6.406m77.516 2.251c.989 0 1.607.321 2.399 1.187l1.732-1.682c-1.188-1.262-2.4-1.756-4.131-1.756-2.819 0-5.59 1.707-5.59 6.406s2.77 6.431 5.59 6.431c1.731 0 2.943-.519 4.131-1.781l-1.732-1.656c-.792.865-1.41 1.187-2.399 1.187-.964 0-1.781-.395-2.325-1.113-.544-.693-.742-1.607-.742-3.067 0-1.459.197-2.35.742-3.042.544-.718 1.361-1.114 2.325-1.114m-36.928 3.141c-.025-.767-.099-1.138-.347-1.707-.396-.939-1.286-1.582-2.473-1.582-1.187 0-2.102.643-2.498 1.582-.247.569-.297.94-.321 1.707h5.639zm-2.819-5.392c3.364 0 5.318 2.473 5.318 6.035v1.113h-8.137c0 2.151 1.138 3.512 3.19 3.512 1.41 0 2.152-.396 3.043-1.285l1.607 1.509c-1.286 1.285-2.498 1.953-4.699 1.953-3.141 0-5.64-1.656-5.64-6.431 0-4.057 2.102-6.406 5.318-6.406m67.425 7.148h-2.944c-1.484 0-2.251.667-2.251 1.805s.717 1.781 2.3 1.781c.964 0 1.682-.074 2.35-.716.37-.372.544-.966.544-1.856V12.85zm-2.647-7.148c3.438 0 5.169 1.459 5.169 4.304v8.386h-2.473v-1.138c-.915.913-1.781 1.285-3.339 1.285-1.559 0-2.598-.372-3.365-1.138-.643-.667-.989-1.633-.989-2.696 0-2.102 1.459-3.611 4.328-3.611h3.315v-.89c0-1.583-.793-2.35-2.746-2.35-1.385 0-2.053.321-2.745 1.212l-1.658-1.558c1.189-1.386 2.425-1.806 4.503-1.806M85.534 11.02l-1.979-.173c-1.336-.124-1.731-.692-1.731-1.435 0-.939.767-1.607 2.275-1.607 1.187 0 2.301.247 3.092.916l1.583-1.607c-1.162-1.015-2.77-1.41-4.65-1.41-2.622 0-4.725 1.385-4.725 3.834 0 2.201 1.361 3.265 3.711 3.462l2.003.173c1.213.099 1.682.643 1.682 1.483 0 1.187-1.212 1.733-2.745 1.733-1.237 0-2.597-.273-3.612-1.31l-1.657 1.656c1.484 1.459 3.216 1.805 5.269 1.805 2.993 0 5.219-1.36 5.219-3.982 0-2.227-1.386-3.341-3.735-3.538M1.091.631V18.39h2.723V8.302s1.061-.283 2.562-.289c2.108-.009 2.048 1.133 2.048 2.055v8.322h2.791v-8.166c0-.498.004-.754-.019-1.217-.093-1.821-1.419-3.218-4.064-3.243-1.592-.016-3.403.353-3.403.353V.461l-2.638.17zm103.165 0V18.39h2.724V8.302s1.059-.283 2.561-.289c2.108-.009 2.048 1.133 2.048 2.055v8.322h2.791v-8.166c0-.498.006-.754-.018-1.217-.094-1.821-1.419-3.218-4.064-3.243-1.592-.017-3.403.353-3.403.353V.461l-2.639.17zm34.46 5.212v7.631c0 1.91-.683 2.738-2.56 2.791-1.734-.026-2.56-.881-2.56-2.791V5.843h-2.523v8.003c0 1.407-.375 4.692 5.083 4.692 5.457 0 5.083-3.285 5.083-4.692V5.843h-2.523zM68.473 18.39v-7.634c0-1.911.684-2.74 2.562-2.791 1.733.025 2.56.88 2.56 2.791v7.634h2.524v-8.007c0-1.407.375-4.693-5.085-4.693s-5.085 3.286-5.085 4.693v8.007h2.524z"/></symbol></svg>