<svg xmlns="http://www.w3.org/2000/svg" xmlns:xlink="http://www.w3.org/1999/xlink"><defs><style>.cls-1{fill:#1d1d1b}</style></defs><symbol preserveAspectRatio="xMidYMid meet" id="brandlogo--desk"><path d="M75.28 17.63c3.93.33 6.24 2.19 6.24 5.91 0 4.38-3.72 6.65-8.72 6.65-3.42 0-6.31-.58-8.79-3.02l2.77-2.76c1.69 1.73 3.96 2.18 6.02 2.18 2.57 0 4.59-.91 4.59-2.89 0-1.4-.79-2.31-2.81-2.47l-3.34-.29c-3.93-.33-6.2-2.11-6.2-5.78 0-4.09 3.51-6.4 7.89-6.4 3.14 0 5.82.65 7.76 2.35l-2.64 2.68c-1.32-1.11-3.18-1.53-5.16-1.53-2.52 0-3.8 1.12-3.8 2.69 0 1.24.66 2.19 2.89 2.39l3.3.29m-20.6 0l-3.31-.29c-2.23-.2-2.89-1.15-2.89-2.39 0-1.57 1.28-2.69 3.8-2.69 1.98 0 3.84.42 5.16 1.53l2.65-2.68c-1.94-1.7-4.63-2.36-7.77-2.36-4.37 0-7.88 2.32-7.88 6.4 0 3.68 2.27 5.46 6.19 5.78l3.35.29c2.02.17 2.8 1.08 2.8 2.48 0 1.98-2.02 2.89-4.58 2.89-2.06 0-4.34-.45-6.03-2.19l-2.77 2.77c2.48 2.44 5.37 3.01 8.8 3.01 5 0 8.71-2.27 8.71-6.64 0-3.72-2.31-5.58-6.23-5.91m-18.79.12c-.04-1.28-.17-1.89-.58-2.85-.66-1.56-2.15-2.64-4.13-2.64s-3.51 1.08-4.17 2.64c-.41.95-.5 1.57-.54 2.85h9.42zm-4.71-9c5.62 0 8.88 4.13 8.88 10.08v1.86H26.47c0 3.59 1.9 5.86 5.33 5.86 2.35 0 3.59-.66 5.08-2.14l2.68 2.51c-2.15 2.15-4.17 3.26-7.84 3.26-5.25 0-9.42-2.76-9.42-10.73 0-6.77 3.51-10.7 8.88-10.7m129.42 3.76c1.65 0 2.68.54 4.01 1.98l2.89-2.81c-1.99-2.1-4.01-2.93-6.9-2.93-4.71 0-9.33 2.85-9.33 10.7s4.62 10.74 9.33 10.74c2.89 0 4.91-.87 6.9-2.98l-2.89-2.76c-1.33 1.44-2.36 1.98-4.01 1.98-1.61 0-2.97-.66-3.88-1.86-.91-1.16-1.24-2.68-1.24-5.12 0-2.43.33-3.92 1.24-5.08.91-1.2 2.27-1.86 3.88-1.86m-61.65 5.24c-.04-1.28-.17-1.89-.58-2.85-.66-1.56-2.15-2.64-4.13-2.64-1.99 0-3.51 1.08-4.17 2.64-.42.95-.5 1.57-.54 2.85h9.42zm-4.71-9c5.61 0 8.88 4.13 8.88 10.08v1.86H89.53c0 3.59 1.9 5.86 5.33 5.86 2.35 0 3.59-.66 5.08-2.14l2.68 2.51c-2.15 2.15-4.17 3.26-7.84 3.26-5.25 0-9.42-2.76-9.42-10.73 0-6.77 3.51-10.7 8.88-10.7m112.57 11.94h-4.91c-2.48 0-3.76 1.11-3.76 3.01 0 1.9 1.2 2.98 3.84 2.98 1.61 0 2.81-.13 3.92-1.2.62-.62.91-1.61.91-3.1v-1.69zm-4.42-11.94c5.74 0 8.63 2.44 8.63 7.19v14h-4.13v-1.9c-1.52 1.53-2.97 2.15-5.57 2.15s-4.34-.62-5.62-1.9c-1.07-1.12-1.65-2.73-1.65-4.5 0-3.51 2.44-6.03 7.23-6.03h5.53v-1.49c0-2.64-1.32-3.92-4.58-3.92-2.32 0-3.43.53-4.59 2.02l-2.77-2.6c1.99-2.31 4.05-3.02 7.52-3.02m-61.4 8.88l-3.31-.29c-2.23-.2-2.89-1.15-2.89-2.39 0-1.57 1.28-2.69 3.8-2.69 1.98 0 3.84.42 5.16 1.53l2.65-2.68c-1.95-1.7-4.63-2.36-7.77-2.36-4.37 0-7.89 2.32-7.89 6.4 0 3.68 2.28 5.46 6.2 5.78l3.34.29c2.03.17 2.81 1.08 2.81 2.48 0 1.98-2.02 2.89-4.58 2.89-2.07 0-4.34-.45-6.03-2.19l-2.77 2.77c2.48 2.44 5.37 3.01 8.8 3.01 4.99 0 8.71-2.27 8.71-6.64 0-3.72-2.31-5.58-6.23-5.91M0 .29v29.65h4.55V13.09s1.77-.47 4.27-.48c3.52-.01 3.42 1.89 3.42 3.43v13.9h4.66V16.3c0-.83.01-1.25-.03-2.03-.16-3.04-2.37-5.37-6.78-5.41-2.66-.03-5.69.59-5.69.59V0L0 .29zm172.24 0v29.65h4.55V13.09s1.77-.47 4.28-.48c3.52-.01 3.42 1.89 3.42 3.43v13.9h4.66V16.3c0-.83.01-1.25-.03-2.03-.16-3.04-2.37-5.37-6.79-5.41-2.66-.03-5.68.59-5.68.59V0l-4.41.29zm57.54 8.7v12.74c0 3.19-1.14 4.57-4.28 4.66-2.89-.04-4.27-1.47-4.27-4.66V8.99h-4.21v13.36c0 2.35-.63 7.83 8.48 7.83 9.11 0 8.49-5.48 8.49-7.83V8.99h-4.21zM112.5 29.94V17.19c0-3.19 1.14-4.57 4.28-4.66 2.89.04 4.27 1.47 4.27 4.66v12.75h4.22V16.57c0-2.35.62-7.84-8.49-7.84-9.12 0-8.49 5.49-8.49 7.84v13.37h4.21z"/></symbol><symbol preserveAspectRatio="xMidYMid meet" viewBox="0 0 38.71 38.18" id="brandlogo--mobile"><path class="cls-1" d="M28.61 21.19L26.49 21c-1.43-.14-1.85-.76-1.85-1.56 0-1 .82-1.76 2.44-1.76a5 5 0 013.31 1l1.69-1.75a7.23 7.23 0 00-5-1.54c-2.8 0-5.05 1.51-5.05 4.18 0 2.4 1.45 3.56 4 3.77l2.14.19c1.3.11 1.8.7 1.8 1.62C30 26.44 28.67 27 27 27a5.15 5.15 0 01-3.86-1.43l-1.78 1.8a7.28 7.28 0 005.64 2c3.21 0 5.59-1.48 5.59-4.34 0-2.42-1.48-3.64-4-3.85M10.87 9.68v6.16a19.92 19.92 0 013.64-.38c2.83 0 4.25 1.55 4.35 3.53v10.23h-3v-9.07c0-1 .07-2.25-2.19-2.24a11.68 11.68 0 00-2.74.32v11H8V9.87z" transform="translate(-.6 -.94)"/><path class="cls-1" d="M29.79 39.12H.6V10.46C.6 1.05 10 .94 10.12.94h29.19V29.6c0 9.41-9.42 9.52-9.52 9.52M2.53 37.19h27.26c.31 0 7.59-.12 7.59-7.59V2.88H10.12c-.31 0-7.59.12-7.59 7.58z" transform="translate(-.6 -.94)"/></symbol></svg>