<svg xmlns="http://www.w3.org/2000/svg" xmlns:xlink="http://www.w3.org/1999/xlink"><defs><style>.cls-1{fill:#1d1d1b}</style></defs><symbol id="brandlogo--desk" viewBox="0 0 248 32" preserveAspectRatio="xMidYMid meet"><path d="M79.8 18.7c4.2.3 6.6 2.3 6.6 6.3 0 4.6-3.9 7-9.2 7-3.6 0-6.7-.6-9.3-3.2l2.9-2.9c1.8 1.8 4.2 2.3 6.4 2.3 2.7 0 4.9-1 4.9-3.1 0-1.5-.8-2.4-3-2.6l-3.5-.3c-4.2-.3-6.6-2.2-6.6-6.1 0-4.3 3.7-6.8 8.4-6.8 3.3 0 6.2.7 8.2 2.5l-2.8 2.8c-1.4-1.2-3.4-1.6-5.5-1.6-2.7 0-4 1.2-4 2.9 0 1.3.7 2.3 3.1 2.5l3.4.3m-21.8 0-3.5-.3c-2.4-.2-3.1-1.2-3.1-2.5 0-1.7 1.4-2.9 4-2.9 2.1 0 4.1.4 5.5 1.6l2.8-2.8c-2.1-1.8-4.9-2.5-8.2-2.5-4.6 0-8.4 2.5-8.4 6.8 0 3.9 2.4 5.8 6.6 6.1l3.6.3c2.1.2 3 1.1 3 2.6 0 2.1-2.1 3.1-4.9 3.1-2.2 0-4.6-.5-6.4-2.3l-3 2.9c2.6 2.6 5.7 3.2 9.3 3.2 5.3 0 9.2-2.4 9.2-7 .1-4-2.4-6-6.5-6.3m-20 .1c0-1.4-.2-2-.6-3-.7-1.7-2.3-2.8-4.4-2.8-2.1 0-3.7 1.1-4.4 2.8-.4 1-.5 1.7-.6 3h10zm-5-9.5c6 0 9.4 4.4 9.4 10.7v2H28.1c0 3.8 2 6.2 5.6 6.2 2.5 0 3.8-.7 5.4-2.3l2.8 2.7c-2.3 2.3-4.4 3.5-8.3 3.5-5.6 0-10-2.9-10-11.4 0-7.3 3.8-11.4 9.4-11.4m137.2 4c1.7 0 2.8.6 4.3 2.1l3.1-3c-2.1-2.2-4.3-3.1-7.3-3.1-5 0-9.9 3-9.9 11.3s4.9 11.4 9.9 11.4c3.1 0 5.2-.9 7.3-3.2l-3.1-2.9c-1.4 1.5-2.5 2.1-4.3 2.1s-3.1-.7-4.1-2c-1-1.2-1.3-2.8-1.3-5.4s.3-4.2 1.3-5.4c1-1.2 2.4-1.9 4.1-1.9m-65.3 5.5c0-1.4-.2-2-.6-3-.7-1.7-2.3-2.8-4.4-2.8-2.1 0-3.7 1.1-4.4 2.8-.4 1-.5 1.7-.6 3h10zm-5-9.5c5.9 0 9.4 4.4 9.4 10.7v2H94.9c0 3.8 2 6.2 5.6 6.2 2.5 0 3.8-.7 5.4-2.3l2.8 2.7c-2.3 2.3-4.4 3.5-8.3 3.5-5.6 0-10-2.9-10-11.4.1-7.3 3.8-11.4 9.5-11.4m119.3 12.6H214c-2.6 0-4 1.2-4 3.2s1.3 3.2 4.1 3.2c1.7 0 3-.1 4.2-1.3.7-.7 1-1.7 1-3.3-.1 0-.1-1.8-.1-1.8zm-4.7-12.6c6.1 0 9.1 2.6 9.1 7.6v14.8h-4.4v-2c-1.6 1.6-3.1 2.3-5.9 2.3-2.8 0-4.6-.7-6-2-1.1-1.2-1.7-2.9-1.7-4.8 0-3.7 2.6-6.4 7.7-6.4h5.9v-1.6c0-2.8-1.4-4.2-4.9-4.2-2.5 0-3.6.6-4.9 2.1l-2.9-2.8c2.2-2.3 4.3-3 8-3m-65.1 9.4-3.5-.3c-2.4-.2-3.1-1.2-3.1-2.5 0-1.7 1.4-2.9 4-2.9 2.1 0 4.1.4 5.5 1.6l2.8-2.8c-2.1-1.8-4.9-2.5-8.2-2.5-4.6 0-8.4 2.5-8.4 6.8 0 3.9 2.4 5.8 6.6 6.1l3.5.3c2.2.2 3 1.1 3 2.6 0 2.1-2.1 3.1-4.9 3.1-2.2 0-4.6-.5-6.4-2.3l-2.9 2.9c2.6 2.6 5.7 3.2 9.3 3.2 5.3 0 9.2-2.4 9.2-7 .1-4-2.3-6-6.5-6.3M0 .3v31.4h4.8V13.9s1.9-.5 4.5-.5c3.7 0 3.6 2 3.6 3.6v14.7h4.9V15.1c-.2-3.2-2.5-5.7-7.2-5.7-2.8 0-6 .6-6 .6V0L0 .3zm182.6 0v31.4h4.8V13.9s1.9-.5 4.5-.5c3.7 0 3.6 2 3.6 3.6v14.7h4.9V15.1c-.2-3.2-2.5-5.7-7.2-5.7-2.8 0-6 .6-6 .6V0l-4.6.3zm61 9.2V23c0 3.4-1.2 4.8-4.5 4.9-3.1 0-4.5-1.6-4.5-4.9V9.5H230v14.2c0 2.5-.7 8.3 9 8.3s9-5.8 9-8.3V9.5h-4.4zM119.2 31.7V18.2c0-3.4 1.2-4.8 4.5-4.9 3.1 0 4.5 1.6 4.5 4.9v13.5h4.5V17.6c0-2.5.7-8.3-9-8.3s-9 5.8-9 8.3v14.2c.1-.1 4.5-.1 4.5-.1z"/></symbol><symbol id="brandlogo--desk2" viewBox="0 0 248 32" preserveAspectRatio="xMidYMid meet"><path d="M79.8 18.7c4.2.3 6.6 2.3 6.6 6.3 0 4.6-3.9 7-9.2 7-3.6 0-6.7-.6-9.3-3.2l2.9-2.9c1.8 1.8 4.2 2.3 6.4 2.3 2.7 0 4.9-1 4.9-3.1 0-1.5-.8-2.4-3-2.6l-3.5-.3c-4.2-.3-6.6-2.2-6.6-6.1 0-4.3 3.7-6.8 8.4-6.8 3.3 0 6.2.7 8.2 2.5l-2.8 2.8c-1.4-1.2-3.4-1.6-5.5-1.6-2.7 0-4 1.2-4 2.9 0 1.3.7 2.3 3.1 2.5l3.4.3m-21.8 0-3.5-.3c-2.4-.2-3.1-1.2-3.1-2.5 0-1.7 1.4-2.9 4-2.9 2.1 0 4.1.4 5.5 1.6l2.8-2.8c-2.1-1.8-4.9-2.5-8.2-2.5-4.6 0-8.4 2.5-8.4 6.8 0 3.9 2.4 5.8 6.6 6.1l3.6.3c2.1.2 3 1.1 3 2.6 0 2.1-2.1 3.1-4.9 3.1-2.2 0-4.6-.5-6.4-2.3l-3 2.9c2.6 2.6 5.7 3.2 9.3 3.2 5.3 0 9.2-2.4 9.2-7 .1-4-2.4-6-6.5-6.3m-20 .1c0-1.4-.2-2-.6-3-.7-1.7-2.3-2.8-4.4-2.8-2.1 0-3.7 1.1-4.4 2.8-.4 1-.5 1.7-.6 3h10zm-5-9.5c6 0 9.4 4.4 9.4 10.7v2H28.1c0 3.8 2 6.2 5.6 6.2 2.5 0 3.8-.7 5.4-2.3l2.8 2.7c-2.3 2.3-4.4 3.5-8.3 3.5-5.6 0-10-2.9-10-11.4 0-7.3 3.8-11.4 9.4-11.4m137.2 4c1.7 0 2.8.6 4.3 2.1l3.1-3c-2.1-2.2-4.3-3.1-7.3-3.1-5 0-9.9 3-9.9 11.3s4.9 11.4 9.9 11.4c3.1 0 5.2-.9 7.3-3.2l-3.1-2.9c-1.4 1.5-2.5 2.1-4.3 2.1s-3.1-.7-4.1-2c-1-1.2-1.3-2.8-1.3-5.4s.3-4.2 1.3-5.4c1-1.2 2.4-1.9 4.1-1.9m-65.3 5.5c0-1.4-.2-2-.6-3-.7-1.7-2.3-2.8-4.4-2.8-2.1 0-3.7 1.1-4.4 2.8-.4 1-.5 1.7-.6 3h10zm-5-9.5c5.9 0 9.4 4.4 9.4 10.7v2H94.9c0 3.8 2 6.2 5.6 6.2 2.5 0 3.8-.7 5.4-2.3l2.8 2.7c-2.3 2.3-4.4 3.5-8.3 3.5-5.6 0-10-2.9-10-11.4.1-7.3 3.8-11.4 9.5-11.4m119.3 12.6H214c-2.6 0-4 1.2-4 3.2s1.3 3.2 4.1 3.2c1.7 0 3-.1 4.2-1.3.7-.7 1-1.7 1-3.3-.1 0-.1-1.8-.1-1.8zm-4.7-12.6c6.1 0 9.1 2.6 9.1 7.6v14.8h-4.4v-2c-1.6 1.6-3.1 2.3-5.9 2.3-2.8 0-4.6-.7-6-2-1.1-1.2-1.7-2.9-1.7-4.8 0-3.7 2.6-6.4 7.7-6.4h5.9v-1.6c0-2.8-1.4-4.2-4.9-4.2-2.5 0-3.6.6-4.9 2.1l-2.9-2.8c2.2-2.3 4.3-3 8-3m-65.1 9.4-3.5-.3c-2.4-.2-3.1-1.2-3.1-2.5 0-1.7 1.4-2.9 4-2.9 2.1 0 4.1.4 5.5 1.6l2.8-2.8c-2.1-1.8-4.9-2.5-8.2-2.5-4.6 0-8.4 2.5-8.4 6.8 0 3.9 2.4 5.8 6.6 6.1l3.5.3c2.2.2 3 1.1 3 2.6 0 2.1-2.1 3.1-4.9 3.1-2.2 0-4.6-.5-6.4-2.3l-2.9 2.9c2.6 2.6 5.7 3.2 9.3 3.2 5.3 0 9.2-2.4 9.2-7 .1-4-2.3-6-6.5-6.3M0 .3v31.4h4.8V13.9s1.9-.5 4.5-.5c3.7 0 3.6 2 3.6 3.6v14.7h4.9V15.1c-.2-3.2-2.5-5.7-7.2-5.7-2.8 0-6 .6-6 .6V0L0 .3zm182.6 0v31.4h4.8V13.9s1.9-.5 4.5-.5c3.7 0 3.6 2 3.6 3.6v14.7h4.9V15.1c-.2-3.2-2.5-5.7-7.2-5.7-2.8 0-6 .6-6 .6V0l-4.6.3zm61 9.2V23c0 3.4-1.2 4.8-4.5 4.9-3.1 0-4.5-1.6-4.5-4.9V9.5H230v14.2c0 2.5-.7 8.3 9 8.3s9-5.8 9-8.3V9.5h-4.4zM119.2 31.7V18.2c0-3.4 1.2-4.8 4.5-4.9 3.1 0 4.5 1.6 4.5 4.9v13.5h4.5V17.6c0-2.5.7-8.3-9-8.3s-9 5.8-9 8.3v14.2c.1-.1 4.5-.1 4.5-.1z"/></symbol><symbol id="brandlogo--mobile" viewBox="0 0 38.71 38.18" preserveAspectRatio="xMidYMid meet"><path class="cls-1" d="M28.61 21.19 26.49 21c-1.43-.14-1.85-.76-1.85-1.56 0-1 .82-1.76 2.44-1.76a5 5 0 0 1 3.31 1l1.69-1.75a7.23 7.23 0 0 0-5-1.54c-2.8 0-5.05 1.51-5.05 4.18 0 2.4 1.45 3.56 4 3.77l2.14.19c1.3.11 1.8.7 1.8 1.62C30 26.44 28.67 27 27 27a5.15 5.15 0 0 1-3.86-1.43l-1.78 1.8a7.28 7.28 0 0 0 5.64 2c3.21 0 5.59-1.48 5.59-4.34 0-2.42-1.48-3.64-4-3.85M10.87 9.68v6.16a19.92 19.92 0 0 1 3.64-.38c2.83 0 4.25 1.55 4.35 3.53v10.23h-3v-9.07c0-1 .07-2.25-2.19-2.24a11.68 11.68 0 0 0-2.74.32v11H8V9.87Z" transform="translate(-.6 -.94)"/><path class="cls-1" d="M29.79 39.12H.6V10.46C.6 1.05 10 .94 10.12.94h29.19V29.6c0 9.41-9.42 9.52-9.52 9.52M2.53 37.19h27.26c.31 0 7.59-.12 7.59-7.59V2.88H10.12c-.31 0-7.59.12-7.59 7.58Z" transform="translate(-.6 -.94)"/></symbol></svg>