<svg xmlns="http://www.w3.org/2000/svg" xmlns:xlink="http://www.w3.org/1999/xlink"><defs><style>.cls-1{fill:#1d1d1b}</style></defs><symbol id="brandlogo--desk" viewBox="0 0 234 30" preserveAspectRatio="xMidYMid meet"><path d="M75.3 17.6c3.9.3 6.2 2.2 6.2 5.9 0 4.4-3.7 6.6-8.7 6.6-3.4 0-6.3-.6-8.8-3l2.8-2.8c1.7 1.7 4 2.2 6 2.2 2.6 0 4.6-.9 4.6-2.9 0-1.4-.8-2.3-2.8-2.5l-3.3-.3c-3.9-.3-6.2-2.1-6.2-5.8 0-4.1 3.5-6.4 7.9-6.4 3.1 0 5.8.7 7.8 2.4l-2.6 2.7c-1.3-1.1-3.2-1.5-5.2-1.5-2.5 0-3.8 1.1-3.8 2.7 0 1.2.7 2.2 2.9 2.4l3.2.3m-20.6 0-3.3-.3c-2.2-.2-2.9-1.2-2.9-2.4 0-1.6 1.3-2.7 3.8-2.7 2 0 3.8.4 5.2 1.5l2.6-2.7c-1.9-1.7-4.6-2.4-7.8-2.4-4.4 0-7.9 2.3-7.9 6.4 0 3.7 2.3 5.5 6.2 5.8l3.3.3c2 .2 2.8 1.1 2.8 2.5 0 2-2 2.9-4.6 2.9-2.1 0-4.3-.5-6-2.2l-2.8 2.8c2.5 2.4 5.4 3 8.8 3 5 0 8.7-2.3 8.7-6.6.1-3.7-2.2-5.5-6.1-5.9m-18.8.2c0-1.3-.2-1.9-.6-2.9-.7-1.6-2.1-2.6-4.1-2.6s-3.5 1.1-4.2 2.6c-.4 1-.5 1.6-.5 2.9h9.4zm-4.7-9.1c5.6 0 8.9 4.1 8.9 10.1v1.9H26.5c0 3.6 1.9 5.9 5.3 5.9 2.4 0 3.6-.7 5.1-2.1l2.7 2.5c-2.1 2.1-4.2 3.3-7.8 3.3-5.2 0-9.4-2.8-9.4-10.7-.1-6.9 3.4-10.9 8.8-10.9m129.4 3.8c1.7 0 2.7.5 4 2l2.9-2.8c-2-2.1-4-2.9-6.9-2.9-4.7 0-9.3 2.9-9.3 10.7s4.6 10.7 9.3 10.7c2.9 0 4.9-.9 6.9-3l-2.9-2.8c-1.3 1.4-2.4 2-4 2s-3-.7-3.9-1.9c-.9-1.2-1.2-2.7-1.2-5.1 0-2.4.3-3.9 1.2-5.1.9-1.1 2.3-1.8 3.9-1.8m-61.7 5.3c0-1.3-.2-1.9-.6-2.9-.7-1.6-2.1-2.6-4.1-2.6-2 0-3.5 1.1-4.2 2.6-.4 1-.5 1.6-.5 2.9h9.4zm-4.7-9.1c5.6 0 8.9 4.1 8.9 10.1v1.9H89.5c0 3.6 1.9 5.9 5.3 5.9 2.4 0 3.6-.7 5.1-2.1l2.7 2.5c-2.1 2.1-4.2 3.3-7.8 3.3-5.2 0-9.4-2.8-9.4-10.7 0-6.9 3.5-10.9 8.8-10.9m112.6 12h-4.9c-2.5 0-3.8 1.1-3.8 3s1.2 3 3.8 3c1.6 0 2.8-.1 3.9-1.2.6-.6.9-1.6.9-3.1v-1.7zm-4.4-12c5.7 0 8.6 2.4 8.6 7.2v14h-4.1V28c-1.5 1.5-3 2.1-5.6 2.1-2.6 0-4.3-.6-5.6-1.9-1.1-1.1-1.7-2.7-1.7-4.5 0-3.5 2.4-6 7.2-6h5.5v-1.5c0-2.6-1.3-3.9-4.6-3.9-2.3 0-3.4.5-4.6 2l-2.8-2.6c2.2-2.2 4.2-3 7.7-3M141 17.6l-3.3-.3c-2.2-.2-2.9-1.2-2.9-2.4 0-1.6 1.3-2.7 3.8-2.7 2 0 3.8.4 5.2 1.5l2.6-2.7c-1.9-1.7-4.6-2.4-7.8-2.4-4.4 0-7.9 2.3-7.9 6.4 0 3.7 2.3 5.5 6.2 5.8l3.3.3c2 .2 2.8 1.1 2.8 2.5 0 2-2 2.9-4.6 2.9-2.1 0-4.3-.5-6-2.2l-2.8 2.8c2.5 2.4 5.4 3 8.8 3 5 0 8.7-2.3 8.7-6.6.1-3.7-2.2-5.5-6.1-5.9M0 .3V30h4.5V13.1s1.8-.5 4.3-.5c3.5 0 3.4 1.9 3.4 3.4v13.9h4.7V14.3c-.2-3-2.4-5.4-6.8-5.4-2.7 0-5.7.6-5.7.6V0L0 .3zm172.2 0V30h4.5V13.1s1.8-.5 4.3-.5c3.5 0 3.4 1.9 3.4 3.4v13.9h4.7V14.3c-.2-3-2.4-5.4-6.8-5.4-2.7 0-5.7.6-5.7.6V0l-4.4.3zM229.8 9v12.7c0 3.2-1.1 4.6-4.3 4.7-2.9 0-4.3-1.5-4.3-4.7V9H217v13.4c0 2.3-.6 7.8 8.5 7.8s8.5-5.5 8.5-7.8V9h-4.2zM112.5 29.9V17.2c0-3.2 1.1-4.6 4.3-4.7 2.9 0 4.3 1.5 4.3 4.7v12.7h4.2V16.6c0-2.3.6-7.8-8.5-7.8s-8.5 5.5-8.5 7.8V30h4.2z"/></symbol><symbol id="brandlogo--mobile" viewBox="0 0 38.71 38.18" preserveAspectRatio="xMidYMid meet"><path class="cls-1" d="M28.61 21.19 26.49 21c-1.43-.14-1.85-.76-1.85-1.56 0-1 .82-1.76 2.44-1.76a5 5 0 0 1 3.31 1l1.69-1.75a7.23 7.23 0 0 0-5-1.54c-2.8 0-5.05 1.51-5.05 4.18 0 2.4 1.45 3.56 4 3.77l2.14.19c1.3.11 1.8.7 1.8 1.62C30 26.44 28.67 27 27 27a5.15 5.15 0 0 1-3.86-1.43l-1.78 1.8a7.28 7.28 0 0 0 5.64 2c3.21 0 5.59-1.48 5.59-4.34 0-2.42-1.48-3.64-4-3.85M10.87 9.68v6.16a19.92 19.92 0 0 1 3.64-.38c2.83 0 4.25 1.55 4.35 3.53v10.23h-3v-9.07c0-1 .07-2.25-2.19-2.24a11.68 11.68 0 0 0-2.74.32v11H8V9.87Z" transform="translate(-.6 -.94)"/><path class="cls-1" d="M29.79 39.12H.6V10.46C.6 1.05 10 .94 10.12.94h29.19V29.6c0 9.41-9.42 9.52-9.52 9.52M2.53 37.19h27.26c.31 0 7.59-.12 7.59-7.59V2.88H10.12c-.31 0-7.59.12-7.59 7.58Z" transform="translate(-.6 -.94)"/></symbol></svg>