<svg xmlns="http://www.w3.org/2000/svg" xmlns:xlink="http://www.w3.org/1999/xlink"><symbol id="boerse_ard_de" viewBox="0 0 464.286 96.429" preserveAspectRatio="xMidYMid meet"><path fill="#001A4B" d="M447.092 22.215c9.17 0 16.605 7.434 16.605 16.604s-7.434 16.604-16.605 16.604c-9.17 0-16.604-7.434-16.604-16.604s7.434-16.604 16.604-16.604zm0 2.435c-7.824 0-14.168 6.343-14.168 14.168s6.344 14.168 14.168 14.168c7.825 0 14.168-6.343 14.168-14.168s-6.342-14.168-14.168-14.168zm6.668 20.893V28.921l-16.712 5.999v4.129l5.534-2v12.492l11.178-3.998zM250.218 70.852v-3.943c-.74-.925-1.787-1.787-2.958-2.526l-12.137-35.241h-10.166l-12.137 35.24c-1.356.616-2.588 1.541-3.573 2.526v3.943h15.341v-3.943c-1.047-.986-2.218-1.848-3.574-2.526l1.171-3.881h12.507l1.294 3.881c-1.356.616-2.649 1.541-3.758 2.526v3.943h17.99zm-47.919-3.449c0-2.218-1.848-4.067-4.066-4.067s-4.067 1.848-4.067 4.067c0 2.218 1.848 4.066 4.067 4.066 2.217 0 4.066-1.849 4.066-4.066zm-20.997-15.649h-12.384c.37-4.744 2.464-8.625 6.47-8.625s5.976 3.819 5.914 8.625zm7.147.924c0-8.07-4.066-13.185-12.753-13.185-9.119 0-14.048 6.716-14.048 16.018 0 10.536 5.299 15.896 14.17 15.896 4.744 0 9.057-1.664 12.446-4.067l-1.108-3.142c-2.279 1.417-5.854 2.279-8.811 2.279-6.038 0-9.487-3.389-9.487-10.598v-.739h19.531c.06-.676.06-1.538.06-2.462zm-31.788 9.18c0-10.289-14.848-7.887-14.848-15.219 0-2.095 1.356-3.511 3.758-3.511 1.663 0 3.265.431 4.19.862.431 1.725.986 3.45 1.724 4.806h2.958v-8.503c-2.095-.555-4.806-.801-7.578-.801-7.208 0-11.829 3.696-11.829 8.686 0 10.659 14.725 8.07 14.725 15.341 0 2.711-1.725 3.82-4.252 3.82-2.157 0-4.066-.555-5.422-1.171a29.659 29.659 0 0 0-1.787-4.806h-3.019v9.056c2.526.678 5.483.925 8.686.925 6.78.002 12.694-3.817 12.694-9.485zm-25.628-21.75c-1.294-.431-2.958-.677-4.436-.677-3.758 0-6.161 3.142-7.763 7.824.123-2.526.369-5.36.369-7.393-3.758-.124-8.379.246-11.398.925v2.464c1.602.246 3.327.739 4.744 1.232v21.996c-1.725.431-3.265 1.109-4.744 1.972v2.403h16.327V68.45c-1.478-.801-3.019-1.479-4.744-1.972V55.573c0-5.052 2.403-9.92 6.1-9.92 1.725 0 3.265.555 4.683 1.171l.862-6.716zM95.867 51.754H83.483c.37-4.744 2.464-8.625 6.47-8.625 4.005-.001 5.975 3.819 5.914 8.625zm7.147.924c0-8.07-4.066-13.185-12.753-13.185-9.118 0-14.047 6.716-14.047 16.018 0 10.536 5.299 15.896 14.17 15.896 4.744 0 9.056-1.664 12.446-4.067l-1.109-3.142c-2.279 1.417-5.853 2.279-8.81 2.279-6.038 0-9.487-3.389-9.487-10.598v-.739h19.531c.059-.676.059-1.538.059-2.462zm-38.87 3.08c0 7.639-2.958 11.213-7.763 11.213-5.73 0-9.056-4.806-9.056-12.076 0-7.332 2.958-10.967 7.824-10.967 5.791 0 8.995 4.683 8.995 11.83zm7.27-.986c0-9.858-5.484-15.28-14.725-15.28-9.056 0-16.573 6.038-16.573 16.636 0 10.166 5.915 15.341 14.725 15.341 9.24 0 16.573-6.161 16.573-16.697zm-43.246.431c0 8.194-3.204 12.384-8.379 12.384-2.403 0-4.313-.555-5.791-1.541V53.848c0-5.36 3.08-9.673 6.901-9.673 4.681 0 7.269 4.621 7.269 11.028zm7.085-1.293c0-8.564-4.252-14.478-11.83-14.478-4.498 0-8.318 2.958-9.735 6.346.185-1.479.309-3.389.309-5.053V25.569c-3.943-.123-8.503.185-11.521.863v2.526c1.602.246 3.265.74 4.683 1.232v39.677c3.327.925 7.208 1.479 11.337 1.479 9.672-.001 16.757-6.285 16.757-17.436zm381.064-2.156h-12.384c.37-4.744 2.464-8.626 6.47-8.626s5.975 3.819 5.914 8.626zm7.147.923c0-8.07-4.066-13.185-12.753-13.185-9.119 0-14.048 6.716-14.048 16.019 0 10.536 5.299 15.896 14.17 15.896 4.744 0 9.057-1.663 12.446-4.066l-1.108-3.142c-2.279 1.417-5.854 2.28-8.811 2.28-6.038 0-9.487-3.389-9.487-10.598v-.74h19.531c.06-.677.06-1.539.06-2.464zm-42.006 4.374c0 5.423-3.142 9.673-6.962 9.673-4.622 0-7.208-4.498-7.208-10.967 0-8.133 3.204-12.446 8.379-12.446 2.403 0 4.312.555 5.791 1.541v12.199zm11.275 13v-2.526a32.98 32.98 0 0 1-4.436-1.171V25.567c-3.943-.124-8.564.185-11.583.862v2.526c1.602.309 3.327.74 4.744 1.232v9.672c-1.602-.185-3.265-.246-4.744-.246-9.611 0-16.512 5.976-16.512 17.374 0 8.625 4.374 14.478 11.645 14.478 5.052 0 8.749-3.08 10.166-6.654-.247 2.279-.247 4.374-.247 6.285 4.19.187 7.949-.367 10.967-1.045zm-38.122-2.649c0-2.218-1.848-4.066-4.066-4.066s-4.067 1.848-4.067 4.066 1.848 4.066 4.067 4.066c2.217 0 4.066-1.848 4.066-4.066zm-24.023-17.313c0 10.042-4.374 14.478-9.981 14.478-2.464 0-4.005-.185-5.299-.616V35.117a33.477 33.477 0 0 1 3.696-.185c9.242.001 11.584 7.025 11.584 15.157zm10.905-.923c0-14.54-7.393-20.147-20.764-20.147-5.606 0-12.569.246-15.896.246h-4.99v3.881c1.541.925 3.389 2.157 5.114 2.711V64.26c-1.91.492-3.574 1.664-5.114 2.649v3.943h5.175c1.848 0 8.379.247 12.877.247 13.431 0 23.598-7.701 23.598-21.933zm-61.655-7.641c0 4.066-2.033 6.592-6.161 6.592h-2.773V35.179c.555-.124 1.541-.246 2.464-.246 4.684 0 6.47 3.081 6.47 6.592zm13.616 28.835-.493-4.621c-5.729 1.108-4.005-14.109-10.658-14.91 4.806-1.541 8.255-5.175 8.255-10.721 0-7.639-5.73-11.152-15.341-11.152-5.915 0-13.554.309-15.095.309h-4.682v3.881c1.541.925 3.389 2.157 5.113 2.649v28.526c-1.91.493-3.574 1.602-5.113 2.588v3.943h19.037v-3.943c-1.047-.925-2.157-1.91-3.573-2.588V54.032h1.848c6.407 0 4.19 17.498 13.616 17.498 2.281 0 4.991-.308 7.086-1.17zm-60.487-15.65h-9.119l4.374-14.971 4.745 14.971z"/></symbol><symbol id="hessenschau_de" viewBox="0 0 555 71.8" preserveAspectRatio="xMidYMid meet"><style type="text/css">.st2{display:inline;fill:#999}</style><path fill="#005293" d="m173.9 43.2-7.6-.7c-5.1-.5-6.7-2.7-6.7-5.5 0-3.6 3-6.2 8.8-6.2 4.6 0 8.9 1 11.9 3.5l6.1-6.2c-4.5-3.9-10.7-5.4-17.9-5.4-10.1 0-18.2 5.3-18.2 14.8 0 8.5 5.2 12.6 14.3 13.4l7.7.7c4.7.4 6.5 2.5 6.5 5.7 0 4.6-4.7 6.7-10.6 6.7-4.8 0-10-1-13.9-5.1l-6.4 6.4c5.7 5.6 12.4 7 20.3 7 11.5 0 20.1-5.2 20.1-15.4 0-8.6-5.4-12.9-14.4-13.7zm-47.6 0-7.6-.7c-5.2-.5-6.7-2.7-6.7-5.5 0-3.6 3-6.2 8.8-6.2 4.6 0 8.9 1 11.9 3.5l6.1-6.2c-4.5-3.9-10.7-5.4-17.9-5.4-10.1 0-18.2 5.3-18.2 14.8 0 8.5 5.2 12.6 14.3 13.4l7.7.7c4.7.4 6.5 2.5 6.5 5.7 0 4.6-4.7 6.7-10.6 6.7-4.8 0-10-1-13.9-5.1l-6.4 6.4c5.7 5.6 12.4 7 20.3 7 11.5 0 20.1-5.2 20.1-15.4 0-8.6-5.4-12.9-14.4-13.7zm244.6-11.8c3.8 0 6.2 1.2 9.3 4.6l6.7-6.5c-4.6-4.9-9.3-6.8-15.9-6.8-10.9 0-21.6 6.6-21.6 24.7s10.7 24.8 21.6 24.8c6.7 0 11.4-2 15.9-6.9l-6.7-6.4c-3.1 3.3-5.4 4.6-9.3 4.6-3.7 0-6.9-1.5-9-4.3-2.1-2.7-2.9-6.2-2.9-11.8s.8-9.1 2.9-11.7c2.2-2.8 5.3-4.3 9-4.3zm-45.3 11.8-7.6-.7c-5.2-.5-6.7-2.7-6.7-5.5 0-3.6 3-6.2 8.8-6.2 4.6 0 8.9 1 11.9 3.5l6.1-6.2c-4.5-3.9-10.7-5.4-17.9-5.4-10.1 0-18.2 5.3-18.2 14.8 0 8.5 5.2 12.6 14.3 13.4l7.7.7c4.7.4 6.5 2.5 6.5 5.7 0 4.6-4.7 6.7-10.6 6.7-4.8 0-10-1-13.9-5.1l-6.4 6.4c5.7 5.6 12.4 7 20.3 7 11.5 0 20.1-5.2 20.1-15.4 0-8.6-5.3-12.9-14.4-13.7zM10.2 2.5v21.8s7-1.4 13.1-1.4c10.2.1 15.3 5.5 15.7 12.6.1 1.8.1 2.8.1 4.7v31.5H28.3V39.5c0-3.6.2-8-7.9-7.9-5.8 0-9.9 1.1-9.9 1.1v38.9H0V3.2l10.2-.7zm397.8 0v21.8s7-1.4 13.1-1.4c10.2.1 15.3 5.5 15.7 12.5.1 1.8.1 2.8.1 4.7v31.5h-10.8V39.5c0-3.6.2-8-7.9-7.9-5.8 0-9.9 1.1-9.9 1.1v38.9h-10.5V3.2l10.2-.7zm132.4 20.7v30.9c0 5.4 1.4 18.1-19.6 18.1s-19.6-12.7-19.6-18.1V23.2h9.7v29.4c0 7.4 3.2 10.7 9.9 10.8 7.2-.2 9.9-3.4 9.9-10.8V23.2h9.7zM250.1 71.6V40.8c0-5.4-1.4-18.1 19.6-18.1 21.1 0 19.6 12.7 19.6 18.1v30.9h-9.7V42.2c0-7.4-3.2-10.7-9.9-10.8-7.2.2-9.9 3.4-9.9 10.8v29.4h-9.7zM92.5 46c0-13.7-7.5-23.3-20.5-23.3-12.4 0-20.5 9.1-20.5 24.7 0 18.4 9.6 24.8 21.7 24.8 8.5 0 13.2-2.6 18.1-7.5l-6.2-5.8c-3.4 3.4-6.3 5-11.7 5-7.9 0-12.3-5.2-12.3-13.5h31.4V46zm-31.4-2.5c0-.7.1-1.4.1-2s.1-1.1.2-1.6c0-.2.1-.5.2-.7.1-.5.3-1 .5-1.5.1-.3.2-.5.3-.8 1.4-3.4 4.6-5.8 8.8-6.1h1.6c.6 0 1.1.1 1.6.2s1 .3 1.5.4c.9.4 1.8.8 2.6 1.4 1.3 1 2.4 2.4 3 4 1 2.2 1.2 3.6 1.3 6.6l-21.7.1zM238.2 46c0-13.7-7.5-23.3-20.5-23.3-12.4 0-20.5 9.1-20.5 24.7 0 18.4 9.6 24.8 21.7 24.8 8.5 0 13.2-2.6 18.1-7.5l-6.2-5.8c-3.4 3.4-6.3 5-11.7 5-7.9 0-12.3-5.2-12.3-13.5h31.4V46zm-9.7-2.5h-21.7c.1-1.8.2-3.1.5-4.3.2-.7.4-1.4.8-2.3 0-.1.1-.2.1-.3 1.5-3.2 4.6-5.5 8.7-5.8h.8c4.6 0 8 2.5 9.5 6.1.9 2.2 1.2 3.6 1.3 6.6zm238.9-20.8c-8 0-12.8 1.6-17.4 7l6.4 6c2.7-3.4 5.2-4.7 10.6-4.7 7.5 0 10.6 3 10.6 9.1v3.4h-12.8c-11.1 0-16.7 5.8-16.7 13.9 0 4.1 1.3 7.8 3.8 10.4 3 3 7 4.4 13 4.4s9.3-1.4 12.9-5v4.4h9.5V39.3c.1-11-6.6-16.6-19.9-16.6zm10.3 31.5c0 3.4-.7 5.7-2.1 7.2-2.6 2.5-5.3 2.8-9.1 2.8-6.1 0-8.9-2.5-8.9-6.9s3-7 8.7-7h11.4v3.9z" id="hessenschau"/></symbol><symbol id="sportschau" viewBox="0 0 360 45" preserveAspectRatio="xMidYMid meet"><path d="M343.64.527c8.51 0 15.406 6.895 15.406 15.406 0 8.508-6.896 15.407-15.406 15.407-8.505 0-15.406-6.9-15.406-15.407 0-8.51 6.9-15.406 15.406-15.406m0 2.256c-7.26 0-13.14 5.89-13.14 13.15 0 7.266 5.88 13.146 13.14 13.146 7.263 0 13.15-5.882 13.15-13.147 0-7.26-5.888-13.15-13.15-13.15"/><path d="m349.83 6.748-15.504 5.57v3.832l5.13-1.863v11.596l10.374-3.71M24.423 16.11c-1.603-.552-3.54-.995-5.254-.995-3.658 0-4.875 1.273-4.875 3.045 0 3.984 9.797 4.15 9.797 13.228 0 7.692-6.863 14.058-16.657 14.058-2.88 0-5.538-.277-7.583-.664l1.77-9.574c2.045.773 4.207 1.218 6.362 1.218 3.376 0 4.982-.997 4.982-3.155 0-3.983-9.794-3.874-9.794-12.73 0-7.636 5.146-14 16.104-14 2.49 0 4.815.22 6.916.554l-1.77 9.017zm19.925-.716c-.664 0-1.048 0-1.495.054L41.14 24.58c.332.057.555.057.663.057 3.65 0 6.032-2.99 6.032-6.09 0-1.716-.996-3.153-3.487-3.153m-3.265 17.82c-.33 0-.94 0-1.66-.056l-2.16 11.512H27.19l7.086-37.358c3.43-.165 7.137-.276 11.57-.276 7.246 0 12.56 3.21 12.56 10.294 0 8.47-7.085 15.884-17.323 15.884m39.131-17.269c-6.587 0-10.02 7.36-10.02 13.893 0 4.096 1.774 6.143 5.203 6.143 6.198 0 10.07-7.083 10.07-14.333 0-3.21-1.605-5.702-5.253-5.702m-6.368 29.5c-10.016 0-14.442-5.367-14.442-13.78 0-13.34 9.738-25.128 22.47-25.128 9.518 0 14.28 5.037 14.28 13.894 0 14.554-10.186 25.015-22.308 25.015m40.737-29.943c-.83 0-1.772.055-2.106.11l-1.492 8.024c.386.057 1.05.11 1.603.11 3.542 0 5.646-2.767 5.646-5.534 0-1.66-1.106-2.71-3.65-2.71m5.31 13.946a111.715 111.715 0 0 1 1.772 4.263l4.207 10.957h-11.678l-4.262-13.615h-.386l-2.604 13.615H96.87l7.084-37.36c3.487-.22 7.97-.274 12.345-.274 8.798 0 12.782 3.21 12.782 9.077 0 5.977-2.935 10.68-9.19 13.337m31.219-13.282-5.425 28.502H135.61l5.427-28.502h-7.916l1.66-8.856h25.903l-1.66 8.856m23.686-3.543c-1.828-.607-3.762-.886-5.2-.886-5.26 0-7.475 2.823-7.475 5.59 0 6.254 11.125 6.42 11.125 15.33 0 7.084-6.25 12.564-15.11 12.564-2.158 0-4.592-.166-6.42-.72l1.108-5.7c1.606.664 3.818 1.16 5.757 1.16 5.312 0 8.244-2.488 8.244-6.31 0-5.976-11.015-6.032-11.015-14.942 0-6.475 4.87-11.954 14.17-11.954 1.995 0 3.762.11 5.868.498l-1.052 5.37zm31.658.941c-2.382-.83-4.87-1.273-7.252-1.273-10.458 0-14.39 10.295-14.39 18.817 0 5.148 2.106 8.58 8.802 8.58 2.987 0 5.868-.61 8.303-1.66l-.39 5.48c-2.875.995-6.306 1.603-9.682 1.603-11.017 0-13.673-6.53-13.673-12.895 0-12.952 7.416-25.238 21.694-25.238 3.1 0 5.756.443 8.08 1.106l-1.492 5.48zM239.05 44.67l3.155-16.77h-17.268l-3.154 16.77h-5.92l7.084-37.358h5.92l-2.932 15.44h17.267l2.934-15.44h5.92l-7.14 37.358m27.618-24.793a49.19 49.19 0 0 1-.66-5.758h-.057a62.133 62.133 0 0 1-2.826 5.92l-6.253 11.57h11.736l-1.94-11.733zm3.82 24.793-1.217-8.245h-14.834l-4.37 8.245h-6.258l20.258-37.357h6.585l6.2 37.357h-6.364zM317.197 31c-1.878 9.742-7.857 14.225-17.268 14.225-11.07 0-13.06-6.143-11.623-13.836L292.9 7.31h5.924l-4.704 24.41c-1.054 5.59.607 8.524 6.64 8.524 6.035 0 9.355-2.658 10.684-9.854l4.426-23.08h5.812L317.197 31z"/></symbol><symbol id="tagesschau-sw" viewBox="2.301 -2.967 443.187 87.916" preserveAspectRatio="xMidYMid meet"><path d="M432.566 27.368V5.753l-21.732 7.801v5.37l7.196-2.601v16.245l14.536-5.2zM423.896.2c-10.176 0-18.425 8.249-18.425 18.424 0 10.176 8.249 18.425 18.425 18.425 10.175 0 18.424-8.249 18.424-18.425C442.32 8.449 434.071.2 423.896.2zm0-3.167c11.925 0 21.592 9.667 21.592 21.592s-9.667 21.592-21.592 21.592-21.592-9.667-21.592-21.592 9.667-21.592 21.592-21.592zM67.357 64.266c-.08-3.434-.16-7.666-.16-11.418v-15.81c0-7.905-3.274-13.254-14.692-13.254-5.27 0-10.061 1.278-13.894 2.875l.719 6.148c3.434-2.076 8.224-3.274 11.977-3.274 6.547 0 8.703 2.955 8.703 8.464v2.954c-15.011 0-23.874 5.51-23.874 14.213 0 6.308 4.471 9.821 11.019 9.821 6.547 0 11.578-3.753 13.494-8.624-.24 2.235-.24 5.11-.24 7.905h6.948zm-7.346-17.567c0 6.228-4.312 12.616-10.779 12.616-3.673 0-6.068-2.156-6.068-5.509 0-3.593 3.034-7.825 16.848-7.825l-.001.718zm55.878 23.316c0-7.187-4.791-11.338-13.414-11.338h-7.346c-4.791 0-6.787-.878-6.787-3.114 0-1.277.798-2.555 2.555-3.273 1.357.24 3.354.479 5.03.479 11.338 0 17.247-6.228 17.247-14.771 0-3.354-1.277-6.148-3.354-7.745h6.707v-5.669h-13.494c-2.076-.479-3.912-.718-6.228-.718-11.099 0-17.406 6.946-17.406 15.331 0 5.03 1.916 9.103 5.829 11.338-2.794 1.278-4.471 3.833-4.471 6.627 0 2.635 1.517 4.711 3.913 5.829-3.514 1.837-6.548 5.589-6.548 10.3 0 7.585 6.468 11.658 16.688 11.658 12.455-.003 21.079-6.551 21.079-14.934zm-9.822-31.54c0 5.829-3.833 9.103-9.821 9.103-6.228 0-9.821-3.194-9.821-9.103 0-5.35 3.753-9.262 10.061-9.262 6.068 0 9.581 3.433 9.581 9.262zm2.715 32.418c0 4.871-4.711 8.304-12.855 8.304-6.228 0-10.699-2.555-10.699-7.266 0-3.034 1.996-5.669 5.11-7.266h10.141c5.588 0 8.303 2.395 8.303 6.228zm47.959-30.342c0-9.103-4.711-16.688-15.89-16.688-11.258 0-17.726 8.863-17.726 20.76 0 13.973 6.547 20.361 18.764 20.361 4.951 0 9.582-.878 13.415-2.476l-.639-5.829c-3.194 1.517-7.505 2.475-11.578 2.475-8.464 0-12.855-4.551-12.536-15.171h25.95c.16-1.356.24-2.474.24-3.432zm-7.345-1.676h-18.524c.798-5.829 4.471-9.742 9.661-9.742 5.589 0 9.022 3.912 8.863 9.742zm41.742 13.493c0-13.334-18.524-8.623-18.524-17.327 0-3.433 2.635-5.669 7.905-5.669 2.635 0 5.509.479 7.985 1.277l.16-5.988c-2.396-.479-5.19-.798-7.585-.798-10.38 0-15.89 5.19-15.89 11.897 0 13.973 18.445 8.543 18.445 17.407 0 3.673-3.593 6.068-8.863 6.068-3.034 0-6.228-.559-8.703-1.357l-.24 6.388c2.476.479 5.43.719 8.384.719 10.538-.001 16.926-5.43 16.926-12.617zm35.035-.639c0-12.456-14.852-10.939-14.852-15.889 0-1.837 1.438-3.034 4.551-3.034 2.396 0 4.951.319 7.027.958l.239-9.502c-2.236-.319-4.711-.639-6.947-.639-11.737 0-17.566 6.068-17.566 13.254 0 13.175 14.612 10.061 14.612 15.89 0 1.836-1.917 3.114-5.03 3.114-2.875 0-5.909-.559-8.304-1.278l-.24 9.901c2.555.32 5.43.639 8.225.639 11.099.001 18.285-5.189 18.285-13.414zm34.318 11.658-.958-10.3c-1.916.958-4.392 1.438-6.707 1.438-5.509 0-8.224-3.753-8.224-9.821 0-6.547 2.794-10.54 8.384-10.54 2.156 0 4.232.479 6.228 1.118l1.278-10.54c-2.476-.639-5.11-1.038-7.666-1.038-14.532 0-20.92 9.98-20.92 21.958 0 12.775 6.148 19.403 18.205 19.403 3.832-.001 7.665-.64 10.38-1.678zm43.752.879V36.24c0-6.867-2.875-12.536-11.738-12.536-5.909 0-10.22 2.555-12.536 6.308.399-2.475.559-5.829.559-8.144V5.978h-12.137v58.288h12.137V45.103c0-5.909 3.593-11.179 7.905-11.179 2.794 0 3.673 1.917 3.673 5.11v25.231l12.137.001zm43.013 0c-.24-3.114-.319-6.547-.319-9.422V37.757c0-9.103-3.833-14.212-17.487-14.212-4.95 0-10.3 1.038-14.372 2.315l.958 10.061c3.274-1.757 8.064-2.875 11.578-2.875 5.27 0 7.106 1.597 7.106 4.871v1.517c-12.616 0-22.357 4.791-22.357 14.852 0 6.388 3.992 10.859 11.578 10.859 5.509 0 10.22-2.715 12.137-6.867-.24 1.997-.24 4.072-.24 5.989l11.418-.001zm-12.536-15.97c0 3.912-2.794 7.585-6.867 7.585-2.555 0-3.993-1.438-3.993-3.434 0-2.875 2.076-5.27 10.859-5.27l.001 1.119zm58.424 15.97V24.582h-12.217v19.243c0 5.829-3.513 11.099-7.825 11.099-2.794 0-3.673-1.916-3.673-5.11V24.582h-12.216v28.026c0 6.867 2.954 12.536 11.817 12.536 6.308 0 10.699-3.034 13.095-7.106-.24 1.916-.319 4.791-.319 6.228h11.338zm-364.414-.16v-6.068c-1.597.399-3.593.718-5.429.718-4.472 0-5.669-1.756-5.669-8.304V30.171h11.099v-5.589H17.632V9.73l-7.186 1.997v12.855H2.301v5.589h8.145v22.836c0 8.543 2.475 11.897 10.62 11.897 2.555 0 5.429-.319 7.664-.798z"/></symbol><symbol id="tagesschau_de" viewBox="0 0 355 60" preserveAspectRatio="xMidYMid meet"><path fill-rule="evenodd" clip-rule="evenodd" fill="#1E2547" d="M19.535 45.186v-4.304c-1.133.283-2.549.51-3.851.51-3.172 0-4.021-1.246-4.021-5.89V21.115h7.873V17.15h-7.873V6.616L6.565 8.032v9.119H.788v3.964h5.777v16.198c0 6.061 1.756 8.439 7.533 8.439 1.812 0 3.851-.227 5.437-.566zm328.823-17.898h-13.14c.566-4.134 3.172-6.91 6.853-6.91 3.965 0 6.401 2.776 6.287 6.91zm5.211 1.19c0-6.457-3.341-11.837-11.271-11.837-7.986 0-12.574 6.287-12.574 14.725 0 9.912 4.645 14.442 13.31 14.442 3.511 0 6.796-.623 9.515-1.756l-.453-4.134c-2.265 1.076-5.324 1.756-8.212 1.756-6.003 0-9.119-3.229-8.892-10.761h18.407c.113-.963.17-1.756.17-2.435zm-36.622 2.265c0 4.927-2.605 10.875-7.703 10.875-4.248 0-6.23-3.455-6.23-9.515 0-8.099 3.568-11.328 8.949-11.328 1.586 0 3.285.17 4.984.623v9.345zm5.097 14.556V3.954h-5.097v13.084c-1.699-.17-3.228-.283-4.758-.283-8.892 0-14.556 5.947-14.556 15.802 0 8.212 3.455 13.253 10.365 13.253 4.418 0 7.873-2.492 9.458-6.287-.226 1.699-.34 4.191-.34 5.777h4.928zm-33.729-6.513a3.53 3.53 0 0 0-3.512 3.512 3.53 3.53 0 0 0 3.512 3.511 3.529 3.529 0 0 0 3.511-3.511 3.529 3.529 0 0 0-3.511-3.512zm-10.293 6.513V17.15h-8.666V30.8c0 4.135-2.492 7.873-5.551 7.873-1.983 0-2.605-1.359-2.605-3.625V17.15h-8.665v19.88c0 4.871 2.095 8.892 8.382 8.892 4.474 0 7.589-2.152 9.289-5.041-.171 1.359-.227 3.398-.227 4.417h8.043zm-41.441-11.327c0 2.775-1.983 5.38-4.871 5.38-1.812 0-2.832-1.02-2.832-2.436 0-2.039 1.472-3.738 7.703-3.738v.794zm8.892 11.327c-.17-2.208-.227-4.644-.227-6.683v-12.12c0-6.457-2.719-10.081-12.404-10.081-3.511 0-7.306.736-10.195 1.643l.68 7.136c2.322-1.246 5.721-2.039 8.213-2.039 3.738 0 5.041 1.133 5.041 3.455v1.076c-8.949 0-15.858 3.398-15.858 10.535 0 4.531 2.832 7.703 8.212 7.703 3.908 0 7.249-1.926 8.609-4.871-.17 1.416-.17 2.888-.17 4.248h8.099zm-30.511 0v-19.88c0-4.871-2.039-8.892-8.326-8.892-4.191 0-7.249 1.813-8.892 4.474.283-1.756.397-4.134.397-5.777V3.954h-8.609v41.345h8.609V31.706c0-4.191 2.549-7.929 5.607-7.929 1.982 0 2.605 1.359 2.605 3.625v17.897h8.609zm-31.034-.623-.68-7.306c-1.359.68-3.115 1.02-4.758 1.02-3.908 0-5.833-2.662-5.833-6.966 0-4.644 1.982-7.476 5.947-7.476 1.529 0 3.002.34 4.418.793l.906-7.476c-1.756-.453-3.625-.736-5.438-.736-10.308 0-14.839 7.08-14.839 15.575 0 9.062 4.361 13.763 12.913 13.763 2.72-.002 5.438-.455 7.364-1.191zm-24.342-8.269c0-8.836-10.535-7.759-10.535-11.271 0-1.303 1.02-2.152 3.229-2.152 1.699 0 3.511.227 4.984.68l.17-6.74c-1.586-.227-3.341-.453-4.927-.453-8.326 0-12.46 4.304-12.46 9.402 0 9.345 10.365 7.136 10.365 11.271 0 1.303-1.359 2.209-3.568 2.209-2.039 0-4.191-.397-5.89-.906l-.17 7.023c1.813.226 3.851.453 5.833.453 7.871-.001 12.969-3.682 12.969-9.516zm-24.852.453c0-9.458-13.14-6.117-13.14-12.29 0-2.436 1.869-4.021 5.607-4.021 1.869 0 3.908.34 5.664.906l.113-4.247c-1.699-.34-3.682-.566-5.381-.566-7.363 0-11.271 3.681-11.271 8.439 0 9.912 13.083 6.06 13.083 12.347 0 2.605-2.549 4.305-6.287 4.305-2.152 0-4.417-.396-6.173-.963l-.17 4.531c1.755.34 3.851.51 5.947.51 7.477-.002 12.008-3.854 12.008-8.951zm-29.609-9.572h-13.14c.566-4.134 3.172-6.91 6.853-6.91 3.965 0 6.4 2.776 6.287 6.91zm5.211 1.19c0-6.457-3.342-11.837-11.271-11.837-7.986 0-12.573 6.287-12.573 14.725 0 9.912 4.644 14.442 13.31 14.442 3.512 0 6.796-.623 9.515-1.756l-.453-4.134c-2.266 1.076-5.324 1.756-8.212 1.756-6.003 0-9.119-3.229-8.892-10.761h18.407c.112-.963.169-1.756.169-2.435zM76.317 50c0 3.455-3.342 5.89-9.119 5.89-4.417 0-7.589-1.813-7.589-5.154 0-2.152 1.416-4.021 3.625-5.154h7.193c3.965 0 5.89 1.699 5.89 4.418zm-1.925-22.995c0 4.135-2.718 6.457-6.966 6.457-4.417 0-6.966-2.266-6.966-6.457 0-3.794 2.662-6.57 7.136-6.57 4.304 0 6.796 2.436 6.796 6.57zm6.966 22.372c0-5.098-3.398-8.042-9.515-8.042h-5.211c-3.398 0-4.814-.623-4.814-2.209 0-.906.566-1.813 1.813-2.322.962.17 2.378.34 3.568.34 8.043 0 12.234-4.418 12.234-10.478 0-2.379-.906-4.361-2.379-5.494h4.757V17.15h-9.572a18.507 18.507 0 0 0-4.418-.51c-7.873 0-12.347 4.927-12.347 10.874 0 3.568 1.359 6.457 4.134 8.042-1.982.906-3.171 2.719-3.171 4.701 0 1.869 1.076 3.341 2.775 4.134-2.492 1.303-4.644 3.965-4.644 7.307 0 5.38 4.588 8.269 11.837 8.269 8.836.001 14.953-4.643 14.953-10.59zM41.723 32.839c0 4.417-3.059 8.949-7.646 8.949-2.605 0-4.305-1.529-4.305-3.908 0-2.548 2.152-5.55 11.951-5.55v.509zm5.21 12.46a363.441 363.441 0 0 1-.113-8.099V25.986c0-5.608-2.322-9.402-10.421-9.402-3.738 0-7.136.906-9.854 2.039l.51 4.361c2.435-1.473 5.833-2.322 8.496-2.322 4.644 0 6.173 2.096 6.173 6.004v2.095c-10.648 0-16.935 3.908-16.935 10.081 0 4.474 3.171 6.966 7.816 6.966 4.644 0 8.212-2.662 9.572-6.117-.17 1.586-.17 3.625-.17 5.607h4.926z"/></symbol></svg>