<svg xmlns="http://www.w3.org/2000/svg" xmlns:xlink="http://www.w3.org/1999/xlink"><defs><style>.cls-1{fill:#1d1d1b}</style></defs><symbol id="hessenschau_de" viewBox="0 0 38.71 38.18" preserveAspectRatio="xMidYMid meet"><path class="cls-1" d="M28.61 21.19 26.49 21c-1.43-.14-1.85-.76-1.85-1.56 0-1 .82-1.76 2.44-1.76a5 5 0 0 1 3.31 1l1.69-1.75a7.23 7.23 0 0 0-5-1.54c-2.8 0-5.05 1.51-5.05 4.18 0 2.4 1.45 3.56 4 3.77l2.14.19c1.3.11 1.8.7 1.8 1.62C30 26.44 28.67 27 27 27a5.15 5.15 0 0 1-3.86-1.43l-1.78 1.8a7.28 7.28 0 0 0 5.64 2c3.21 0 5.59-1.48 5.59-4.34 0-2.42-1.48-3.64-4-3.85M10.87 9.68v6.16a19.92 19.92 0 0 1 3.64-.38c2.83 0 4.25 1.55 4.35 3.53v10.23h-3v-9.07c0-1 .07-2.25-2.19-2.24a11.68 11.68 0 0 0-2.74.32v11H8V9.87Z" transform="translate(-.6 -.94)"/><path class="cls-1" d="M29.79 39.12H.6V10.46C.6 1.05 10 .94 10.12.94h29.19V29.6c0 9.41-9.42 9.52-9.52 9.52M2.53 37.19h27.26c.31 0 7.59-.12 7.59-7.59V2.88H10.12c-.31 0-7.59.12-7.59 7.58Z" transform="translate(-.6 -.94)"/></symbol><symbol id="tagesschau_de" viewBox="0 0 277.2 56" preserveAspectRatio="xMidYMid meet"><path d="M18.7 41.2v-4.3c-1.1.3-2.5.5-3.9.5-3.2 0-4-1.2-4-5.9V17.2h7.9v-4h-7.9V2.7l-5 1.4v9.1H0v4h5.8v16.2c0 6.1 1.8 8.4 7.5 8.4 1.8 0 3.9-.2 5.4-.6zm258.5.1V13.2h-8.7v13.6c0 4.1-2.5 7.9-5.6 7.9-2 0-2.6-1.4-2.6-3.6V13.2h-8.7v19.9c0 4.9 2.1 8.9 8.4 8.9 4.5 0 7.6-2.2 9.3-5-.2 1.4-.2 3.4-.2 4.4l8.1-.1zM235.8 30c0 2.8-2 5.4-4.9 5.4-1.8 0-2.8-1-2.8-2.4 0-2 1.5-3.7 7.7-3.7v.7zm8.9 11.3c-.2-2.2-.2-4.6-.2-6.7V22.5c0-6.5-2.7-10.1-12.4-10.1-3.5 0-7.3.7-10.2 1.6l.7 7.1c2.3-1.2 5.7-2 8.2-2 3.7 0 5 1.1 5 3.5v1.1c-8.9 0-15.9 3.4-15.9 10.5 0 4.5 2.8 7.7 8.2 7.7 3.9 0 7.2-1.9 8.6-4.9-.2 1.4-.2 2.9-.2 4.2l8.2.1zm-30.5 0V21.5c0-4.9-2-8.9-8.3-8.9-4.2 0-7.2 1.8-8.9 4.5.3-1.8.4-4.1.4-5.8V0h-8.6v41.3h8.6V27.8c0-4.2 2.5-7.9 5.6-7.9 2 0 2.6 1.4 2.6 3.6v17.9h8.6zm-31.1-.6-.7-7.3c-1.4.7-3.1 1-4.8 1-3.9 0-5.8-2.7-5.8-7 0-4.6 2-7.5 5.9-7.5 1.5 0 3 .3 4.4.8l.9-7.5c-1.8-.5-3.6-.7-5.4-.7-10.3 0-14.8 7.1-14.8 15.6 0 9.1 4.4 13.8 12.9 13.8 2.8 0 5.5-.4 7.4-1.2zm-24.3-8.2c0-8.8-10.5-7.8-10.5-11.3 0-1.3 1-2.2 3.2-2.2 1.7 0 3.5.2 5 .7l.2-6.7c-1.6-.2-3.3-.5-4.9-.5-8.3 0-12.5 4.3-12.5 9.4 0 9.3 10.4 7.1 10.4 11.3 0 1.3-1.4 2.2-3.6 2.2-2 0-4.2-.4-5.9-.9l-.2 7c1.8.2 3.9.5 5.8.5 7.9 0 13-3.7 13-9.5zm-24.9.4c0-9.5-13.1-6.1-13.1-12.3 0-2.4 1.9-4 5.6-4 1.9 0 3.9.3 5.7.9l.1-4.2c-1.7-.3-3.7-.6-5.4-.6-7.4 0-11.3 3.7-11.3 8.4 0 9.9 13.1 6.1 13.1 12.3 0 2.6-2.5 4.3-6.3 4.3-2.2 0-4.4-.4-6.2-1l-.2 4.5c1.8.3 3.9.5 5.9.5 7.6.2 12.1-3.7 12.1-8.8zm-29.6-9.6H91.2c.6-4.1 3.2-6.9 6.9-6.9 3.9 0 6.3 2.8 6.2 6.9zm5.2 1.2c0-6.5-3.3-11.8-11.3-11.8S85.6 19 85.6 27.4c0 9.9 4.6 14.4 13.3 14.4 3.5 0 6.8-.6 9.5-1.8l-.5-4.1c-2.3 1.1-5.3 1.8-8.2 1.8-6 0-9.1-3.2-8.9-10.8h18.4c.3-.9.3-1.7.3-2.4zM75.5 46c0 3.5-3.3 5.9-9.1 5.9-4.4 0-7.6-1.8-7.6-5.2 0-2.2 1.4-4 3.6-5.2h7.2c4 .1 5.9 1.8 5.9 4.5zm-1.9-22.9c0 4.1-2.7 6.5-7 6.5-4.4 0-7-2.3-7-6.5 0-3.8 2.7-6.6 7.1-6.6 4.4 0 6.9 2.4 6.9 6.6zm7 22.3c0-5.1-3.4-8-9.5-8h-5.2c-3.4 0-4.8-.6-4.8-2.2 0-.9.6-1.8 1.8-2.3 1 .2 2.4.3 3.6.3 8 0 12.2-4.4 12.2-10.5 0-2.4-.9-4.4-2.4-5.5H81v-4h-9.6c-1.5-.3-2.8-.5-4.4-.5-7.9 0-12.3 4.9-12.3 10.9 0 3.6 1.4 6.5 4.1 8-2 .9-3.2 2.7-3.2 4.7 0 1.9 1.1 3.3 2.8 4.1-2.5 1.3-4.6 4-4.6 7.3 0 5.4 4.6 8.3 11.8 8.3 8.9 0 15-4.6 15-10.6zM40.9 28.9c0 4.4-3.1 8.9-7.6 8.9-2.6 0-4.3-1.5-4.3-3.9 0-2.5 2.2-5.6 12-5.6v.6zm5.2 12.4c-.1-2.4-.1-5.4-.1-8.1V22c0-5.6-2.3-9.4-10.4-9.4-3.7 0-7.1.9-9.9 2l.5 4.4c2.4-1.5 5.8-2.3 8.5-2.3 4.6 0 6.2 2.1 6.2 6v2.1C30.3 24.8 24 28.7 24 34.9c0 4.5 3.2 7 7.8 7s8.2-2.7 9.6-6.1c-.2 1.6-.2 3.6-.2 5.6l4.9-.1z" fill-rule="evenodd" clip-rule="evenodd"/></symbol></svg>