<?xml version="1.0" encoding="UTF-8"?>
<svg id="hrsinf_" data-name="hrsinf+" xmlns="http://www.w3.org/2000/svg" viewBox="0 0 668 220">
  <defs>
    <style>
      .cls-1 {
        fill: #8d2725;
        stroke-width: 0px;
      }
    </style>
  </defs>
  <path class="cls-1" d="m586.39,194.8h-3.68l-6.71,11.59-6.71-11.59h-3.68l8.73,14.7v10.03h3.29v-10l8.76-14.74Zm-30.88,0v18.45l-12.72-18.45h-2.65v24.74h3.29v-18.48l12.72,18.48h2.65v-24.74h-3.29Zm-36.04,21.98c-5.41,0-9.54-4.2-9.54-9.61s4.13-9.65,9.54-9.65,9.54,4.21,9.54,9.65-4.13,9.61-9.54,9.61m0,3.22c7.17,0,12.83-5.73,12.83-12.83s-5.65-12.83-12.83-12.83-12.79,5.69-12.79,12.83,5.62,12.83,12.79,12.83m-23.92-25.2v10.5h-12.01v-10.5h-3.29v24.74h3.29v-11.13h12.01v11.13h3.25v-24.74h-3.25Zm-31.06,12.83h-5.69v-9.75h5.69c2.72,0,4.74,2.05,4.74,4.88s-2.01,4.88-4.74,4.88m0-12.83h-8.98v24.74h3.29v-8.83h5.69c4.56,0,7.99-3.46,7.99-7.95s-3.43-7.95-7.99-7.95m-18.16,0h-3.71l-7.85,13.07-7.88-13.07h-3.71v24.74h3.29v-19.29l8.09,13.43h.42l8.09-13.46v19.33h3.25v-24.74Zm-29.96,0h-3.68l-6.71,11.59-6.71-11.59h-3.68l8.73,14.7v10.03h3.29v-10l8.76-14.74Zm-33.64,25.2c5.05,0,8.55-2.76,8.55-7.1,0-4.77-4.06-6.04-8.37-7.46-3.46-1.1-5.19-1.94-5.19-4.24s1.84-3.68,4.49-3.68c3,0,4.74,1.7,5.62,3.82l2.76-1.59c-1.38-3.11-4.31-5.41-8.37-5.41s-7.77,2.55-7.77,7,3.82,5.83,7.77,7.1c3.64,1.13,5.83,1.98,5.83,4.52,0,2.23-1.73,3.82-5.23,3.82s-5.72-1.77-6.61-4.49l-2.83,1.62c1.31,3.71,4.66,6.08,9.37,6.08m-41.03-3.22c-5.41,0-9.54-4.2-9.54-9.61s4.13-9.65,9.54-9.65,9.54,4.21,9.54,9.65-4.13,9.61-9.54,9.61m0,3.22c7.17,0,12.83-5.73,12.83-12.83s-5.65-12.83-12.83-12.83-12.79,5.69-12.79,12.83,5.62,12.83,12.79,12.83m-23.96-.46h3.29v-24.74h-3.29v24.74Zm-19.61-3.11h-6.36v-18.52h6.36c5.09,0,8.59,4.03,8.59,9.26s-3.5,9.26-8.59,9.26m0-21.63h-9.65v24.74h9.65c6.82,0,11.73-5.51,11.73-12.37s-4.91-12.37-11.73-12.37m-31.98,16.12l4.42-12.19,4.45,12.19h-8.87Zm12.01,8.62h3.5l-9.22-24.74h-3.71l-9.22,24.74h3.5l2.01-5.55h11.13l2.01,5.55Zm-38.48-21.66h6.61c2.44,0,4.42,2.05,4.42,4.59s-1.98,4.63-4.42,4.63h-6.61v-9.22Zm11.38,21.66h3.64l-5.83-9.89c2.97-1.06,5.12-3.92,5.12-7.17,0-4.24-3.46-7.67-7.7-7.67h-9.89v24.74h3.29v-9.47h5.83l5.55,9.47Zm-34.17-24.74h-17.85v3.11h7.28v21.62h3.25v-21.62h7.31v-3.11Zm-37.49,3.07h6.61c2.44,0,4.42,2.05,4.42,4.59s-1.98,4.63-4.42,4.63h-6.61v-9.22Zm11.38,21.66h3.64l-5.83-9.89c2.97-1.06,5.12-3.92,5.12-7.17,0-4.24-3.46-7.67-7.7-7.67h-9.89v24.74h3.29v-9.47h5.83l5.55,9.47Zm-32.83.46c5.41,0,9.26-3.39,9.26-8.76v-16.43h-3.25v16.29c0,3.43-2.05,5.69-6.01,5.69s-6.01-2.26-6.01-5.69v-16.29h-3.29v16.43c0,5.37,3.89,8.76,9.29,8.76m-16.86-22.09v-3.11h-14.24v24.74h3.29v-10.49h10.5v-3.11h-10.5v-8.02h10.95Zm-21.06,21.62l-11.27-12.72,10.92-12.01h-4.03l-10.32,11.17v-11.17h-3.29v24.74h3.29v-11.87l10.67,11.87h4.03Zm-30.46-24.74v18.45l-12.72-18.45h-2.65v24.74h3.29v-18.48l12.72,18.48h2.65v-24.74h-3.29Zm-37.7,16.12l4.42-12.19,4.45,12.19h-8.87Zm12.01,8.62h3.5l-9.22-24.74h-3.71l-9.22,24.74h3.5l2.01-5.55h11.13l2.01,5.55Zm-38.48-21.66h6.61c2.44,0,4.42,2.05,4.42,4.59s-1.98,4.63-4.42,4.63h-6.61v-9.22Zm11.38,21.66h3.64l-5.83-9.89c2.97-1.06,5.12-3.92,5.12-7.17,0-4.24-3.46-7.67-7.7-7.67h-9.89v24.74h3.29v-9.47h5.83l5.55,9.47Zm-22.54-21.62v-3.11H0v24.74h3.29v-10.49h10.5v-3.11H3.29v-8.02h10.95Zm95.52-24.19h-36.98v-69.4c0-8.84-.04-12.83-2.57-15.35-2.18-2.17-6.39-3.28-13.57-3.28-5.4,0-11.71.68-19.57,1.97v86.06H0V2.34L37.06,0v56.16c8.03-1.35,17.93-2.6,26.34-2.6,17.04,0,28.33,4.97,35.69,12.34,9.82,9.82,10.68,21.44,10.67,35.06v72.77Zm53.59.03h-37.06v-70.67c0-12.56.49-23.82,10.47-33.8,11.01-11.01,28.48-15.25,66.88-15.65v31.44c-28.35.77-34.81,2.73-37.71,5.63-2.04,2.04-2.57,4.83-2.57,10.72v72.33Zm383.25-75.43v-16.28h21.63v-6.38h-21.63v-15.76h23.46v-6.45h-30.28v51.32h30.65v-6.45h-23.83Zm-31.23,6.45h6.82v-51.32h-6.82v51.32Zm-24.41-51.32v38.27l-26.39-38.27h-5.5v51.32h6.82v-38.34l26.39,38.34h5.5v-51.32h-6.82Zm-71.32,45.6c-11.22,0-19.79-8.72-19.79-19.94s8.58-20.02,19.79-20.02,19.8,8.72,19.8,20.02-8.58,19.94-19.8,19.94m0,6.67c14.88,0,26.61-11.88,26.61-26.61s-11.73-26.61-26.61-26.61-26.54,11.8-26.54,26.61,11.66,26.61,26.54,26.61m-36.82-45.82v-6.45h-29.55v51.32h6.82v-21.78h21.77v-6.45h-21.77v-16.64h22.73Zm-53.96-6.45v38.27l-26.39-38.27h-5.5v51.32h6.82v-38.35l26.39,38.35h5.5v-51.32h-6.82Zm-56.31,51.32h6.82v-51.32h-6.82v51.32Zm-32.04.95c10.48,0,17.74-5.72,17.74-14.74,0-9.9-8.43-12.54-17.38-15.47-7.19-2.27-10.78-4.03-10.78-8.8s3.81-7.63,9.31-7.63c6.23,0,9.82,3.52,11.66,7.92l5.72-3.3c-2.86-6.45-8.94-11.22-17.38-11.22s-16.13,5.28-16.13,14.52,7.92,12.1,16.13,14.74c7.55,2.35,12.1,4.11,12.1,9.39,0,4.62-3.59,7.92-10.85,7.92s-11.88-3.67-13.71-9.31l-5.87,3.37c2.71,7.7,9.68,12.61,19.43,12.61m395.59,23.09h13.71c5.06,0,9.16,4.25,9.16,9.53s-4.1,9.6-9.16,9.6h-13.71v-19.14Zm23.61,44.94h7.55l-12.1-20.53c6.16-2.2,10.63-8.14,10.63-14.88,0-8.8-7.19-15.91-15.98-15.91h-20.53v51.32h6.82v-19.65h12.1l11.51,19.65Zm-69.06-6.45v-16.28h21.63v-6.38h-21.63v-15.76h23.46v-6.45h-30.28v51.32h30.65v-6.45h-23.83Zm-17.23-44.87h-37.03v6.45h15.1v44.87h6.74v-44.87h15.18v-6.45Zm-61.95,52.27c10.48,0,17.74-5.72,17.74-14.74,0-9.9-8.43-12.54-17.38-15.47-7.19-2.27-10.78-4.03-10.78-8.8s3.81-7.63,9.31-7.63c6.23,0,9.82,3.52,11.66,7.92l5.72-3.3c-2.86-6.45-8.94-11.22-17.38-11.22s-16.13,5.28-16.13,14.52,7.92,12.1,16.13,14.74c7.55,2.35,12.1,4.11,12.1,9.39,0,4.62-3.59,7.92-10.85,7.92s-11.88-3.67-13.71-9.31l-5.86,3.37c2.71,7.7,9.68,12.61,19.43,12.61m-55.21-7.4v-16.28h21.63v-6.38h-21.63v-15.76h23.46v-6.45h-30.28v51.32h30.65v-6.45h-23.83Zm-31.16-44.87v21.77h-24.93v-21.77h-6.82v51.32h6.82v-23.1h24.93v23.1h6.74v-51.32h-6.74Zm-67,52.27c9.53,0,17.89-4.99,22.14-12.54l-5.94-3.37c-2.93,5.57-9.16,9.24-16.2,9.24-12.02,0-20.09-8.72-20.09-19.94s8.06-20.02,20.09-20.02c7.04,0,13.27,3.67,16.2,9.31l5.94-3.45c-4.33-7.55-12.68-12.46-22.14-12.46-15.69,0-26.83,11.8-26.83,26.61s11.14,26.61,26.83,26.61m-68.48-45.9h13.71c5.06,0,9.16,4.25,9.16,9.53s-4.11,9.6-9.16,9.6h-13.71v-19.14Zm23.61,44.94h7.55l-12.1-20.53c6.16-2.2,10.63-8.14,10.63-14.88,0-8.8-7.18-15.91-15.98-15.91h-20.53v51.32h6.82v-19.65h12.1l11.51,19.65Zm-69.58-5.72c-11.22,0-19.8-8.72-19.8-19.94s8.58-20.02,19.8-20.02,19.8,8.72,19.8,20.02-8.58,19.94-19.8,19.94m0,6.67c14.88,0,26.61-11.88,26.61-26.61s-11.73-26.61-26.61-26.61-26.54,11.8-26.54,26.61,11.66,26.61,26.54,26.61"/>
</svg>