<?xml version="1.0" encoding="utf-8"?>
<!-- Generator: Adobe Illustrator 19.2.0, SVG Export Plug-In . SVG Version: 6.00 Build 0)  -->
<svg version="1.1" id="hilfe" xmlns="http://www.w3.org/2000/svg" xmlns:xlink="http://www.w3.org/1999/xlink" x="0px" y="0px"
	 width="526.5px" height="527px" viewBox="0 0 526.5 527" enable-background="new 0 0 526.5 527" xml:space="preserve">
<path fill="#029AB0" d="M525.7,265.1c0,144.6-117.2,261.8-261.8,261.8S2,409.8,2,265.1C2,120.5,119.2,3.3,263.8,3.3
	S525.7,120.5,525.7,265.1z"/>
<path fill="#0C8FA3" d="M525.7,265.1c0-16.3-1.6-32.3-4.4-47.8L374.5,70.6L270,175l-10.5,130.1L283,415.2l72.9,95
	C455.1,473,525.7,377.3,525.7,265.1z"/>
<ellipse fill="#6D3500" cx="261.8" cy="355.6" rx="89.9" ry="97.3"/>
<path fill="#FFE9BA" d="M357.4,387.2l-28.1-6.7c-0.1,0-0.1,0-0.3,0c-15.2,0-28-9.3-28-24.4v-20.6c35-20.5,56.4-67.5,56.4-123.3
	c0-74.6-41.3-111.6-92.2-111.6h0c-50.9,0-93.4,37-93.4,111.6C171.8,268,197,315,227,335.4v20.6c0,15.1-10.4,24.4-25.6,24.4
	c-0.1,0-0.1,0-0.3,0l-28.1,6.7c-47.4,14.7-65.4,45.7-71.2,82.7c44.6,35.2,100.8,56.6,162.1,56.6c62.3,0,119.6-22.4,164.5-58.8
	C422.2,431.6,404,401.6,357.4,387.2z"/>
<path fill="#FFFFFF" d="M263.8,527c62.6,0,120.1-22,165.1-58.7c-6.2-36-25-66.7-71.5-81.1l-28.1-6.7c-0.1,0-0.1,0-0.3,0
	c-5.5,0-9.9-1.2-15-3.1c-10.9,15.2-28.7,25.8-48.8,25.8c-20.1,0-37.8-11-48.8-26.1c-5.8,2.2-9.6,3.5-15,3.5c-0.1,0-0.1,0-0.3,0
	l-28.1,6.7c-47.3,14.6-65.5,46.3-71.5,83.2C146.2,505.7,202.5,527,263.8,527z"/>
<polygon fill="#F2F2F5" points="247.2,527 218.9,477 206.7,498.3 179.2,386.1 186,384.4 209.3,479.8 219,462.9 255.1,526.9 "/>
<polygon fill="#F2F2F5" points="282.8,527 311,477 323.3,498.3 350.7,386.1 344,384.4 320.6,479.8 311,462.9 274.8,526.9 "/>
<path fill="#EED59C" d="M226.9,334.9l0.4,15.7c-0.1,0.1-0.1,0.3-0.1,0.3s0,0,0.1,0l0,3.8c7.1,2.3,14.1,3.3,21.6,3.3
	c18.3,0,31.3-3.7,45.5-16.2c3-2.7,5.9-5.6,8.6-8.7c0.1,0,0.1,0,0.3-0.1c0.1-0.1,0.1-0.1,0.1-0.3c0.5-0.6,1.1-1.2,1.6-1.9
	c-3.3,2.7-6.6,5.3-10.1,7.5c-0.1,0.1-0.3,0.3-0.5,0.3c-10.8,6.1-18.5,5.9-30.8,5.9C236.3,344.3,226.9,334.9,226.9,334.9z"/>
<path fill="#9C603E" d="M99.1,331.4c0,0.2,0.1,0.3,0.1,0.5c0-0.2,0.1-0.5,0.1-0.5s8.3,35.8,29,35.8c60.1,0.1,24.6-86.8,19.2-108.9
	c-6.8-27.6-18.8-202.6,117.8-186.7c136.6,16,116.8,151.3,109.3,186.7c-7.6,35.4-35.5,112.5,8.3,116.6c30.5,2.9,37.2-31.8,37.2-31.8
	s13.4,49-20.8,73.7c-34.2,24.8-80.9-36.2-80.9-36.2S354,237.8,301,211.5c-53-26.3-71.6-80.7-71.6-80.7
	c-80.9,101.6-17.1,177.4-20.9,251c0,0-54.5,48.1-88.7,23.3C85.7,380.4,99.1,331.4,99.1,331.4z"/>
<path fill="#FFFFFF" d="M385.3,101.8c0,28-23.4,50.7-52.2,50.7H191.7c-28.8,0-52.2-22.7-52.2-50.7l0,0c0-28,23.4-50.7,52.2-50.7
	h141.5C361.9,51.1,385.3,73.8,385.3,101.8L385.3,101.8z"/>
<path fill="#C6C6C6" d="M379.7,145.7c0,3.8-3.3,6.8-7.4,6.8H153.7c-4.1,0-7.4-3-7.4-6.8v-1.6c0-3.8,3.3-6.8,7.4-6.8h218.6
	c4.1,0,7.4,3.1,7.4,6.8V145.7z"/>
<polygon fill="#CC1A14" points="281,93.5 267,93.5 267,79.5 256,79.5 256,93.5 242,93.5 242,103.5 256,103.5 256,117.5 267,117.5 
	267,103.5 281,103.5 "/>
<path fill="#F07800" d="M217.3,378.9l46.9,148l49.1-148.3C313.3,378.7,274.9,420.9,217.3,378.9z"/>
</svg>
