<svg version="1.1" xmlns="http://www.w3.org/2000/svg" x="0" y="0" width="526.5" height="527" viewBox="0 0 526.5 527" xml:space="preserve"><path fill="#029AB0" d="M525.7 265.1c0 144.6-117.2 261.8-261.8 261.8S2 409.8 2 265.1C2 120.5 119.2 3.3 263.8 3.3s261.9 117.2 261.9 261.8z"/><path fill="#0C8FA3" d="M525.7 265.1c0-16.3-1.6-32.3-4.4-47.8L374.5 70.6 270 175l-10.5 130.1L283 415.2l72.9 95c99.2-37.2 169.8-132.9 169.8-245.1z"/><ellipse fill="#6D3500" cx="261.8" cy="355.6" rx="89.9" ry="97.3"/><path fill="#FFE9BA" d="M357.4 387.2l-28.1-6.7h-.3c-15.2 0-28-9.3-28-24.4v-20.6c35-20.5 56.4-67.5 56.4-123.3 0-74.6-41.3-111.6-92.2-111.6-50.9 0-93.4 37-93.4 111.6C171.8 268 197 315 227 335.4V356c0 15.1-10.4 24.4-25.6 24.4h-.3l-28.1 6.7c-47.4 14.7-65.4 45.7-71.2 82.7 44.6 35.2 100.8 56.6 162.1 56.6 62.3 0 119.6-22.4 164.5-58.8-6.2-36-24.4-66-71-80.4z"/><path fill="#FFF" d="M263.8 527c62.6 0 120.1-22 165.1-58.7-6.2-36-25-66.7-71.5-81.1l-28.1-6.7h-.3c-5.5 0-9.9-1.2-15-3.1-10.9 15.2-28.7 25.8-48.8 25.8-20.1 0-37.8-11-48.8-26.1-5.8 2.2-9.6 3.5-15 3.5h-.3l-28.1 6.7c-47.3 14.6-65.5 46.3-71.5 83.2 44.7 35.2 101 56.5 162.3 56.5z"/><path fill="#F2F2F5" d="M247.2 527l-28.3-50-12.2 21.3-27.5-112.2 6.8-1.7 23.3 95.4 9.7-16.9 36.1 64zM282.8 527l28.2-50 12.3 21.3 27.4-112.2-6.7-1.7-23.4 95.4-9.6-16.9-36.2 64z"/><path fill="#EED59C" d="M226.9 334.9l.4 15.7c-.1.1-.1.3-.1.3h.1v3.8c7.1 2.3 14.1 3.3 21.6 3.3 18.3 0 31.3-3.7 45.5-16.2 3-2.7 5.9-5.6 8.6-8.7.1 0 .1 0 .3-.1.1-.1.1-.1.1-.3.5-.6 1.1-1.2 1.6-1.9-3.3 2.7-6.6 5.3-10.1 7.5-.1.1-.3.3-.5.3-10.8 6.1-18.5 5.9-30.8 5.9-27.3-.2-36.7-9.6-36.7-9.6z"/><path fill="#9C603E" d="M99.1 331.4c0 .2.1.3.1.5 0-.2.1-.5.1-.5s8.3 35.8 29 35.8c60.1.1 24.6-86.8 19.2-108.9-6.8-27.6-18.8-202.6 117.8-186.7 136.6 16 116.8 151.3 109.3 186.7-7.6 35.4-35.5 112.5 8.3 116.6 30.5 2.9 37.2-31.8 37.2-31.8s13.4 49-20.8 73.7c-34.2 24.8-80.9-36.2-80.9-36.2S354 237.8 301 211.5c-53-26.3-71.6-80.7-71.6-80.7-80.9 101.6-17.1 177.4-20.9 251 0 0-54.5 48.1-88.7 23.3-34.1-24.7-20.7-73.7-20.7-73.7z"/><path fill="#FFF" d="M385.3 101.8c0 28-23.4 50.7-52.2 50.7H191.7c-28.8 0-52.2-22.7-52.2-50.7 0-28 23.4-50.7 52.2-50.7h141.5c28.7 0 52.1 22.7 52.1 50.7z"/><path fill="#C6C6C6" d="M379.7 145.7c0 3.8-3.3 6.8-7.4 6.8H153.7c-4.1 0-7.4-3-7.4-6.8v-1.6c0-3.8 3.3-6.8 7.4-6.8h218.6c4.1 0 7.4 3.1 7.4 6.8v1.6z"/><path fill="#CC1A14" d="M281 93.5h-14v-14h-11v14h-14v10h14v14h11v-14h14z"/><path fill="#F07800" d="M217.3 378.9l46.9 148 49.1-148.3c0 .1-38.4 42.3-96 .3z"/></svg>