<svg version="1.1" xmlns="http://www.w3.org/2000/svg" x="0" y="0" width="526.5" height="527" viewBox="0 0 526.5 527" xml:space="preserve"><path fill="#F07800" d="M525.7 265.1c0 144.6-117.2 261.8-261.8 261.8C119.2 527 2 409.7 2 265.1 2 120.5 119.2 3.3 263.8 3.3c144.6 0 261.9 117.2 261.9 261.8z"/><path fill="#E06C03" d="M525.3 277.9L351.7 109.2l-89.8 92.5-9.4 116.6-17.6 79.2 108.7 117.1C445.3 482.1 520 389.1 525.3 277.9z"/><path fill="#FFE9BA" d="M348.1 400.4l-25.1-4.8c-.1 0-2-.7-2.1-.8-9.5-3.4-24.4-11.4-24.4-25.3l.4-15.8C327.4 335 346 290.2 346 239c0-68.3-35.5-101.7-82.2-101.7s-83.3 33.4-83.3 101.7c0 51.2 20 93.4 50.4 112.2l.2 20.2c0 13.9-13.1 22.3-24.5 23.8-.1 0-.9.8-1 .8l-25.7 4.6c-45.2 14-61.7 42.6-66.4 78.4 42.6 29.9 94.4 47.8 150.3 47.8 56 0 107.8-18.1 150.3-48-4.7-35.9-20.8-64.4-66-78.4z"/><path fill="#ACCFE9" d="M349.3 399.3l-26-5.8h-.2c-5.1 0-9.8-.5-13.9-3.2-10.1 13.9-26.5 23.3-45.1 23.3s-35-9.7-45.1-23.6c-4 2.7-8.8 3.5-13.9 3.5h-.3l-26 5.7c-45.6 13.9-61.7 43.7-66.5 79.4 6.7 4.7 13.7 9.1 20.8 13.4 38.5 22.2 83.1 34.9 130.7 34.9 53.9 0 104-16.3 145.6-44.2.5-.3 1-.7 1.5-1 1.6-1.1 3.1-2.1 4.7-3.2-4.7-35.6-20.8-65.3-66.3-79.2z"/><path fill="#EED59C" d="M296.6 350.8v14.6c.1.1.1.2.1.2h-.1v3c-6.5 2.1-13.3 3.2-20.2 3.2-16.8 0-32.4-6.6-45.4-18.1-2.8-2.5-5.4-5.1-7.9-8-.1 0-.1 0-.3-.1-.1-.1-.1-.1-.1-.3-.5-.5-1-1.1-1.5-1.7 3 2.5 6 4.9 9.2 6.9.1.1.3.3.5.3 9.9 5.6 20.6 8.6 31.9 8.6 25.2 0 33.8-8.6 33.8-8.6z"/><path fill="#9C603E" d="M307.1 158.6s-63.2 12.5-95.4 45.4c-32.3 32.9-11.9 58.9-21.1 97.6 0 0-28.2-35.8-22-92.9 6.3-57.1 35.6-97.8 95.2-92.3 0 0 19.8-13.3 51-3.9 31.3 9.4 83.8 130 18.6 194.5 0-.1 35.5-100.7-26.3-148.4z"/><path fill="#FFE9BA" d="M199.3 273.3c0 12.1-5.5 21.9-12.2 21.9-6.7 0-12.2-9.8-12.2-21.9 0-12.1 5.5-21.9 12.2-21.9 6.7-.1 12.2 9.8 12.2 21.9zM352.8 273.3c0 12.1-5.5 21.9-12.2 21.9-6.7 0-12.2-9.8-12.2-21.9 0-12.1 5.5-21.9 12.2-21.9 6.7-.1 12.2 9.8 12.2 21.9z"/><path fill="#9C603E" d="M204.3 236.3c2.7-20.7 7.3-32.3 7.3-32.3s-15.5 2.2-16.6 11.4c-.2 1.8.1 3.7.6 5.6-3.3 5.9-8.2 15.1-15.8 29.3 0 0 .6 2.2 2.7 2.5 3.5.6 4.4 3.8 14.9 20.4 0 0-3.4-19.6.7-46 2.8 5.1 6.2 9.1 6.2 9.1zM307.1 158.6c-3.1.7-47.5 30.8-65.2 34.9l8.9-24.5 56.3-10.4zM330.7 312.4s-5.2 53-66.8 53.3c0 0-46.9 2.4-65.9-51.4 0 0 18.3-11.2 23.3 11.2 4.6 20.7 80 18.8 88.3-1 0-.1 2.5-19.4 21.1-12.1z"/><path fill="#029AB0" d="M270.5 448.5h9.8c3.8 0 7.7-4.5 7.7-8.3V424c0-3.8-3.9-5.5-7.7-5.5h-27.8c-3.8 0-5.5 1.6-5.5 5.5v16.2c0 3.8 1.6 8.3 5.5 8.3h7.4l-16.5 77.9c6.8.5 13.6.7 20.5.7 7.1 0 14.1-.1 21-.7l-14.4-77.9z"/><path fill="#FFF" d="M225.2 385.7l37.9 29.2-19 37.6-46.8-60.5zM306.1 385.2l-37.9 29.2 18.9 37.6 46.9-60.5z"/><path fill="#1B2431" d="M372.1 503.5c-11.2-48.5-54.7-84.8-106.4-84.8-52.4 0-96.3 37.1-107 86.3 7.8 3.4 15.7 6.4 23.8 9.1.7-4.2 1.8-8.3 3.1-12.3 13.3 1.8 30.5 7.1 39.6 22.4 8.3 1.2 16.8 2.1 25.4 2.5l10.7-10.7c1.6-.4 2.9-.4 3.3 0l10.8 10.7c8.5-.4 16.8-1.2 25.1-2.3 10.3-17.6 31.2-22.1 44.9-23.1 1.3 3.8 2.4 7.7 3.1 11.7 8-2.9 15.9-6 23.6-9.5zm-107.6 3.6c-.5.3-1.1.6-1.6.9-.5-.3-1.1-.6-1.6-.9-29.6-15.2-37.2-38.7-39.2-51.2 12.7-7.7 27.6-12.2 43.5-12.2 13.8 0 26.9 3.4 38.4 9.4-1.1 11.5-7.5 37.5-39.5 54z"/><path fill="#0F303F" d="M265.9 496.9c-16.1 0-29.2 12.6-30 28.6 9.2 1 18.5 1.5 27.9 1.5 10.8 0 21.4-.7 31.9-2-1-15.7-14-28.1-29.8-28.1z"/><path fill="#1B2431" d="M332.3 162c0 10.8-28.8 19.6-64.3 19.6s-64.3-8.8-64.3-19.6c0-10.9 28.8-19.7 64.3-19.7 35.5.1 64.3 8.9 64.3 19.7z"/><path fill="#0F303F" d="M356.8 111.9c0-10.2-39.7-18.5-88.8-18.5-49 0-88.8 8.3-88.8 18.5 0 .2-.1.3-.1.5s-.2.4-.2.6v42.3c0 3.5 2.9 6.1 6.2 6.1h165.6c3.3 0 6.2-2.7 6.2-6.1V113c0-.2-.1-.4-.1-.6.1-.1 0-.3 0-.5z"/><path fill="#ACCFE9" d="M298.1 142.8c0 3.5-2.8 6.3-6.3 6.3h-47.7c-3.5 0-6.3-2.8-6.3-6.3v-20.6c0-3.5 2.8-6.3 6.3-6.3h47.7c3.4 0 6.3 2.8 6.3 6.3v20.6z"/></svg>