<svg version="1.1" xmlns="http://www.w3.org/2000/svg" x="0" y="0" width="526.5" height="527" viewBox="0 0 526.5 527" xml:space="preserve"><path fill="#F5BB11" d="M525.7 265.1c0 144.6-117.2 261.8-261.8 261.8C119.2 527 2 409.7 2 265.1 2 120.5 119.2 3.3 263.8 3.3c144.6 0 261.9 117.2 261.9 261.8z"/><path fill="#E5A810" d="M525.7 265.1c0-5.1-.2-10.1-.5-15.1L370.1 95 265.7 199.4l-15.3 125.2 18 104.8 65.8 87.9c110.5-30.8 191.5-132 191.5-252.2z"/><path fill="#FFE9BA" d="M356 387.2l-28.1-6.7h-.3c-15.2 0-27.3-9.4-27.3-24.6l-.8-21.2c30.4-20.5 56.8-67.8 56.8-123.6 0-74.6-41.4-112.5-92.4-112.5-51 0-92.8 38-92.8 112.6C171.2 267 197 315 227 335.4V356c0 15.2-11.8 24.4-27 24.4h-.3l-28.1 6.7c-47 14.5-65.1 45.2-71.1 81.8 44.8 35.8 101.5 57.6 163.3 57.6 61.8 0 118.5-22 163.3-57.8-6-36.5-24-67-71.1-81.5z"/><path fill="#005293" d="M356.1 387.2l-28.1-6.7h-.3c-5.5 0-10.6-.1-15-3.1-10.9 15.2-28.7 25.8-48.8 25.8-20.1 0-37.8-11-48.8-26.1-4.4 3-9.6 3.5-15 3.5h-.3l-28.1 6.7c-47 14.5-65.4 45.6-71.4 82.2 9.5 7.6 19.8 14.3 30.2 21 39.1 23.2 84.7 36.6 133.4 36.6 47.2 0 91.4-12.5 129.6-34.4 11.8-7.3 23.3-14.5 33.8-23-6-36.7-24.2-68-71.2-82.5z"/><path fill="#EED59C" d="M299.6 335.4l.7 15.8c.1.1.1.3.1.3h-.1v3.3c-7.1 2.3-15.2 3.8-22.7 3.8-18.3 0-35.4-7.2-49.6-19.8-3-2.7-5.9-5.6-8.6-8.7-.1 0-.1 0-.3-.1-.1-.2-.1-.2-.1-.3-.5-.5-1.1-1.2-1.6-1.9 3.3 2.7 6.6 5.3 10.1 7.5.1.1.3.3.5.3 10.8 6.1 22.5 9.4 34.8 9.4 27.4-.2 36.8-9.6 36.8-9.6z"/><path fill="#C77543" d="M317.3 151.3s-45.5 67.2-116.1 70.6c0 0-8.5 59.7 18.2 108.1 0 0-24.3 23.9-69.9-4.4 0 0-114.6-255 109-241.5 0 0 25.7-28 73-13.5 59.1 18.1 123.5 113.7 41 250.9 0 0-15 11-65.3 7.5.1 0 60.2-41.1 10.1-177.7z"/><path fill="#9C603E" d="M201.2 221.8s-34-8.2-25.1-50.1c0 0-21 36.6 24.2 61.1l.9-11z"/><path fill="#FFF" d="M189.6 385.4l33.9 113.4 83.7 3.8 35.2-116.4-14.5-2.7-64.1 20.4-59.7-20.7z"/><path fill="#C6C6C6" d="M215.1 378.9l46.3 40.3-20.7 41.1-54.5-74.3zM316.2 380.7l-50 38.5 20.7 41.1 55.5-74.1z"/><path fill="#FFF" d="M220 373.7l41.4 31.8-20.7 41.2-51.1-66.2zM307.6 373.7l-41.4 31.8 20.7 41.2 51.2-66.2z"/><path fill="#C6C6C6" d="M261.4 419.2h5.8v72.2h-5.8z"/><path fill="#0F303F" d="M343.2 252.3l-2.2-.3c-3.7-.5-7.2 2.1-7.7 5.9l-1.9 14.5c-.1 1 0 1.9.2 2.8-4.9 10.3-18.2 30.2-49.1 34.8-.8-2.4-2.9-4.4-5.6-4.7l-18.4-2.4c-3.7-.5-7.2 2.1-7.7 5.9l-.3 2.6c-.5 3.7 2.1 7.2 5.9 7.7l18.4 2.4c3.2.4 6.1-1.5 7.2-4.5 32.8-4.5 48.4-24.9 54.8-37.1.2 0 .3.2.5.2l2.2.3c3.7.5 7.2-2.1 7.7-5.9l1.9-14.5c.4-3.8-2.2-7.2-5.9-7.7zM203.9 270.3c.9 3.7-1.4 7.4-5.1 8.2l-2.2.5c-3.7.9-7.4-1.4-8.2-5l-3.4-14.2c-.9-3.7 1.4-7.3 5.1-8.2l2.2-.5c3.7-.9 7.3 1.4 8.2 5.1l3.4 14.1z"/><path fill="#FFF" d="M163.5 455.6h205.9v21H163.5z"/><path fill="#029AB0" d="M379.5 459.5H154.2l-.4 42.9c30.4 15.9 71.6 24.5 111.4 24.5 41.1 0 78-10.3 114.5-27.2l-.2-40.2z"/><path fill="#0F303F" d="M286.6 464.4c0 4.6-3.1 8.3-6.8 8.3h-31.5c-3.8 0-6.8-3.7-6.8-8.3V453c0-4.6 3.1-8.3 6.8-8.3h31.5c3.8 0 6.8 3.7 6.8 8.3v11.4z"/><path fill="#F5BB11" d="M378.8 397.7c-1.5 3-4.6 4.5-6.8 3.4-2.3-1.1-2.9-4.5-1.4-7.5s4.5-4.5 6.8-3.4 2.9 4.5 1.4 7.5z"/><path fill="#FB671D" d="M375.1 397.8l-2.3-1.1c-3.4-1.7-7.5-.3-9.2 3.1L344.5 438c-1 2-.8 4.3.2 6.2-2.1.3-4 1.5-5 3.6L320.6 486c-.2.4-.2.9-.4 1.3-.1.2-.3.3-.4.6-2.9 5.9-4.3 21-2 22.2 2.3 1.1 13.8-10.2 16.8-16.1v-.1c.2-.2.4-.4.5-.7l19.1-38.3c1-2 .8-4.3-.2-6.2 2.1-.3 4-1.5 5-3.6l19.1-38.3c1.7-3.2.3-7.3-3-9z"/><path fill="#F5BB11" d="M346.4 462.7c-.7 1.4-2.4 2-3.9 1.3-1.4-.7-2-2.5-1.3-3.9l27.6-55.3c.7-1.4 2.4-2 3.9-1.3 1.4.7 2 2.5 1.3 3.9l-27.6 55.3z"/><path fill="#7E817A" d="M317.4 514.4c-.3.7-1.2 1-1.9.6s-1-1.2-.7-1.9l2.5-5.1c.4-.7 1.2-1 1.9-.6s1 1.2.7 1.9l-2.5 5.1z"/><path fill="#F5BB11" d="M360.845 405.744l1.652-3.31 14.227 7.097-1.652 3.311zM333.7 495.7l-14.2-7.1.9-2 14.2 7.1z"/></svg>