<svg version="1.1" xmlns="http://www.w3.org/2000/svg" x="0" y="0" width="526.5" height="527" viewBox="0 0 526.5 527" xml:space="preserve"><path fill="#87D5E0" d="M526.6 264.2c0 144.6-117.2 261.8-261.8 261.8C120.2 526 3 408.8 3 264.2 3 119.6 120.2 2.3 264.8 2.3c144.6 0 261.8 117.3 261.8 261.9z"/><path fill="#7AC8CE" d="M351.8 511.1C453.2 475.4 526.1 379 526.6 265.4L381.9 120.7l-93.6 93.6-9.4 116.7-30.7 76.5 103.6 103.6z"/><path fill="#FFE9BA" d="M353.9 386.7l-28.1-6.2h-.3c-15.2 0-24.4-10.2-24.4-25.4v-20.6c30-20.5 54.6-70 54.6-125.9 0-74.6-42.3-114.1-93.3-114.1h-.4c-50.9 0-91.8 39.5-91.8 114.1 0 55.9 19.8 105.4 56.8 125.9v20.6c0 15.2-14 25.4-29.1 25.4h-.3l-28.1 6.2c-46.1 14.2-64.3 43.8-70.7 79.4 45.2 37.1 103 59.7 166 59.7 60.5 0 116.2-21 160.5-55.4-5.7-37.7-23.5-68.9-71.4-83.7z"/><path fill="#019B72" d="M353.9 386.9s-36.1-7.6-43.1-10.1c-10.9 15.1-29 25.7-49.1 25.7s-37.8-10.5-48.8-25.7c-5.2 2.3-43.4 10.1-43.4 10.1-46.1 14.2-64.3 43.7-70.7 79.3 45.2 37.1 103 59.6 166 59.6 60.5 0 116.2-20.9 160.5-55.3-5.7-37.7-23.5-68.8-71.4-83.6z"/><path fill="#EED59C" d="M227.2 334.6l.1 19.9c7.1 2.3 13 3 20.5 3 18.3 0 35.4-7.2 49.6-19.8 3-2.7.5-.2 3.2-3.3.1 0 3.6-2.8 3.8-2.9.1-.1 2.3-1.6 2.3-1.7 0-.3-.2-.6-.5-.6-3.6 2.5-8.5 5.3-8.8 5.3-10.8 6.1-22.5 9.4-34.8 9.4-27.3 0-35.4-9.3-35.4-9.3z"/><path fill="#FFB114" d="M208.1 150.3s45.5 67.2 116.1 70.6c0 0 8.5 59.7-18.2 108.1 0 0 24.3 23.9 69.9-4.4 0 0 114.6-255-109-241.5 0 0-25.7-28-73-13.5-59.1 18.1-123.5 113.7-41 251 0 0 15 10.9 65.3 7.4 0 0-60.2-41.1-10.1-177.7z"/><path fill="#BD8025" d="M324.3 220.9s34-8.2 25.1-50.1c0 0 21 36.6-24.2 61.1l-.9-11z"/><path fill="#006DC1" d="M310.4 232.5h-23.7c-11.7 0-21.2 9.4-21.2 21.1 0 .6 0 1.2.1 1.9-3.5-1.5-7-2.1-10.5-1.8-2 .2-3.8.7-5.5 1.3 0-.5.1-.9.1-1.4 0-11.7-9.5-21.1-21.2-21.1h-23.7c-11.7 0-21.2 9.3-21.2 21s9.5 21 21.2 21h23.7c5.2 0 9.9-1.8 13.6-4.9l.2.2s.2-.4.7-1c1.1-1 2-2.1 2.9-3.3 2.3-2.3 5.8-4.7 9.9-5.1 4.5-.5 9.1 1.4 13.9 5.6 3.9 5.2 10 8.5 17 8.5h23.7c11.7 0 21.2-9.3 21.2-21-.1-11.7-9.6-21-21.2-21zm-105.6 35c-7.9 0-14.3-6.1-14.3-14s6.4-14 14.3-14h23.7c7.9 0 14.3 6.2 14.3 14.1 0 2.8-.8 5.4-2.2 7.6-1.2 1.2-2.1 2.1-2.8 3-2.5 2.2-5.8 3.3-9.3 3.3h-23.7zm105.6 0h-23.7c-3 0-5.7-.8-8-2.3-1.3-1.4-2.6-2.6-3.9-3.8-1.5-2.3-2.4-4.8-2.4-7.8 0-7.9 6.4-14.1 14.3-14.1h23.7c7.9 0 14.3 6.1 14.3 14s-6.4 14-14.3 14z"/><circle opacity=".8" fill="#FFF" cx="304.1" cy="417.9" r="62.1"/><path fill="#005293" d="M303.5 345.5c-39 0-70 31.7-70 71.2 0 39 31.7 71.2 70 71.2 16.4 0 32.3-6.1 45.1-16.4l28.7 29.1c6.9-3.3 13.7-6.9 20.3-10.8L363.3 455c7.3-11.6 11-24.4 11-37.8-.8-40.1-31.9-71.7-70.8-71.7zm0 119.9c-26.8 0-48.7-21.9-48.7-49.3 0-26.8 21.9-49.3 48.7-49.3 26.8 0 48.7 21.9 48.7 49.3s-21.9 49.3-48.7 49.3z"/></svg>