<?xml version="1.0" encoding="utf-8"?>
<!-- Generator: Adobe Illustrator 19.2.0, SVG Export Plug-In . SVG Version: 6.00 Build 0)  -->
<svg version="1.1" id="suche" xmlns="http://www.w3.org/2000/svg" xmlns:xlink="http://www.w3.org/1999/xlink" x="0px" y="0px"
	 width="526.5px" height="527px" viewBox="0 0 526.5 527" enable-background="new 0 0 526.5 527" xml:space="preserve">
<path fill="#87D5E0" d="M526.6,264.2c0,144.6-117.2,261.8-261.8,261.8C120.2,526,3,408.8,3,264.2C3,119.6,120.2,2.3,264.8,2.3
	C409.4,2.3,526.6,119.6,526.6,264.2z"/>
<path fill="#7AC8CE" d="M351.8,511.1C453.2,475.4,526.1,379,526.6,265.4L381.9,120.7l-93.6,93.6L278.9,331l-30.7,76.5L351.8,511.1z"
	/>
<path fill="#FFE9BA" d="M353.9,386.7l-28.1-6.2c-0.1,0-0.1,0-0.3,0c-15.2,0-24.4-10.2-24.4-25.4v-20.6c30-20.5,54.6-70,54.6-125.9
	c0-74.6-42.3-114.1-93.3-114.1H262c-50.9,0-91.8,39.5-91.8,114.1c0,55.9,19.8,105.4,56.8,125.9v20.6c0,15.2-14,25.4-29.1,25.4
	c-0.1,0-0.1,0-0.3,0l-28.1,6.2c-46.1,14.2-64.3,43.8-70.7,79.4c45.2,37.1,103,59.7,166,59.7c60.5,0,116.2-21,160.5-55.4
	C419.6,432.7,401.8,401.5,353.9,386.7z"/>
<path fill="#019B72" d="M353.9,386.9c0,0-36.1-7.6-43.1-10.1c-10.9,15.1-29,25.7-49.1,25.7c-20.1,0-37.8-10.5-48.8-25.7
	c-5.2,2.3-43.4,10.1-43.4,10.1c-46.1,14.2-64.3,43.7-70.7,79.3c45.2,37.1,103,59.6,166,59.6c60.5,0,116.2-20.9,160.5-55.3
	C419.6,432.8,401.8,401.7,353.9,386.9z"/>
<path fill="#EED59C" d="M227.2,334.6l0.1,19.9c7.1,2.3,13,3,20.5,3c18.3,0,35.4-7.2,49.6-19.8c3-2.7,0.5-0.2,3.2-3.3
	c0.1,0,3.6-2.8,3.8-2.9c0.1-0.1,2.3-1.6,2.3-1.7c0-0.3-0.2-0.6-0.5-0.6c-3.6,2.5-8.5,5.3-8.8,5.3c-10.8,6.1-22.5,9.4-34.8,9.4
	C235.3,343.9,227.2,334.6,227.2,334.6z"/>
<path fill="#FFB114" d="M208.1,150.3c0,0,45.5,67.2,116.1,70.6c0,0,8.5,59.7-18.2,108.1c0,0,24.3,23.9,69.9-4.4
	c0,0,114.6-255-109-241.5c0,0-25.7-28-73-13.5c-59.1,18.1-123.5,113.7-41,251c0,0,15,10.9,65.3,7.4C218.2,328,158,286.9,208.1,150.3
	z"/>
<path fill="#BD8025" d="M324.3,220.9c0,0,34-8.2,25.1-50.1c0,0,21,36.6-24.2,61.1L324.3,220.9z"/>
<path fill="#006DC1" d="M310.4,232.5h-23.7c-11.7,0-21.2,9.4-21.2,21.1c0,0.6,0,1.2,0.1,1.9c-3.5-1.5-7-2.1-10.5-1.8
	c-2,0.2-3.8,0.7-5.5,1.3c0-0.5,0.1-0.9,0.1-1.4c0-11.7-9.5-21.1-21.2-21.1h-23.7c-11.7,0-21.2,9.3-21.2,21c0,11.7,9.5,21,21.2,21
	h23.7c5.2,0,9.9-1.8,13.6-4.9l0.2,0.2c0,0,0.2-0.4,0.7-1c1.1-1,2-2.1,2.9-3.3c2.3-2.3,5.8-4.7,9.9-5.1c4.5-0.5,9.1,1.4,13.9,5.6
	c3.9,5.2,10,8.5,17,8.5h23.7c11.7,0,21.2-9.3,21.2-21C331.5,241.8,322,232.5,310.4,232.5z M204.8,267.5c-7.9,0-14.3-6.1-14.3-14
	c0-7.9,6.4-14,14.3-14h23.7c7.9,0,14.3,6.2,14.3,14.1c0,2.8-0.8,5.4-2.2,7.6c-1.2,1.2-2.1,2.1-2.8,3c-2.5,2.2-5.8,3.3-9.3,3.3H204.8
	z M310.4,267.5h-23.7c-3,0-5.7-0.8-8-2.3c-1.3-1.4-2.6-2.6-3.9-3.8c-1.5-2.3-2.4-4.8-2.4-7.8c0-7.9,6.4-14.1,14.3-14.1h23.7
	c7.9,0,14.3,6.1,14.3,14C324.7,261.4,318.3,267.5,310.4,267.5z"/>
<circle opacity="0.8" fill="#FFFFFF" enable-background="new    " cx="304.1" cy="417.9" r="62.1"/>
<path fill="#005293" d="M303.5,345.5c-39,0-70,31.7-70,71.2c0,39,31.7,71.2,70,71.2c16.4,0,32.3-6.1,45.1-16.4l28.7,29.1
	c6.9-3.3,13.7-6.9,20.3-10.8l-34.3-34.8c7.3-11.6,11-24.4,11-37.8C373.5,377.1,342.4,345.5,303.5,345.5z M303.5,465.4
	c-26.8,0-48.7-21.9-48.7-49.3c0-26.8,21.9-49.3,48.7-49.3c26.8,0,48.7,21.9,48.7,49.3C352.2,443.5,330.3,465.4,303.5,465.4z"/>
</svg>
