<svg xmlns="http://www.w3.org/2000/svg" viewBox="0 0 24 24" class="icon icon--chevronLeft" role="img"> <title>ChevronLinks</title>
<path d="M14.9957 18.9999C15.1271 19.0007 15.2573 18.9755 15.379 18.9257C15.5007 18.8759 15.6113 18.8026 15.7046 18.7099C15.7982 18.617 15.8725 18.5064 15.9232 18.3845C15.9739 18.2627 16 18.132 16 17.9999C16 17.8679 15.9739 17.7372 15.9232 17.6154C15.8725 17.4935 15.7982 17.3829 15.7046 17.2899L10.4123 11.9999L15.7046 6.70994C15.8927 6.52164 15.9983 6.26624 15.9983 5.99994C15.9983 5.73364 15.8927 5.47825 15.7046 5.28994C15.5166 5.10164 15.2616 4.99585 14.9957 4.99585C14.7297 4.99585 14.4747 5.10164 14.2867 5.28994L8.29537 11.2899C8.20178 11.3829 8.12749 11.4935 8.07679 11.6154C8.0261 11.7372 8 11.8679 8 11.9999C8 12.132 8.0261 12.2627 8.07679 12.3845C8.12749 12.5064 8.20178 12.617 8.29537 12.7099L14.2867 18.7099C14.38 18.8026 14.4906 18.8759 14.6123 18.9257C14.734 18.9755 14.8642 19.0007 14.9957 18.9999Z" fill="white"/>
</svg>
