<svg xmlns="http://www.w3.org/2000/svg" viewBox="0 0 24 24" class="icon icon--chevronRight" role="img"> <title>ChevronRechts</title>
<path d="M9.00434 18.9999C8.87293 19.0007 8.74265 18.9755 8.62099 18.9257C8.49933 18.8759 8.38868 18.8026 8.29537 18.7099C8.20178 18.617 8.12749 18.5064 8.07679 18.3845C8.0261 18.2627 8 18.132 8 17.9999C8 17.8679 8.0261 17.7372 8.07679 17.6154C8.12749 17.4935 8.20178 17.3829 8.29537 17.2899L13.5877 11.9999L8.29537 6.70994C8.10734 6.52164 8.0017 6.26624 8.0017 5.99994C8.0017 5.73364 8.10734 5.47825 8.29537 5.28994C8.4834 5.10164 8.73843 4.99585 9.00434 4.99585C9.27026 4.99585 9.52528 5.10164 9.71331 5.28994L15.7046 11.2899C15.7982 11.3829 15.8725 11.4935 15.9232 11.6154C15.9739 11.7372 16 11.8679 16 11.9999C16 12.132 15.9739 12.2627 15.9232 12.3845C15.8725 12.5064 15.7982 12.617 15.7046 12.7099L9.71331 18.7099C9.62001 18.8026 9.50936 18.8759 9.38769 18.9257C9.26603 18.9755 9.13576 19.0007 9.00434 18.9999Z" fill="white"/>
</svg>