<svg xmlns="http://www.w3.org/2000/svg" viewBox="0 0 24 24" class="icon icon--pause" role="img"> <title>Pause</title>
<path d="M8.5 5C8.10218 5 7.72065 5.15804 7.43934 5.43934C7.15804 5.72065 7 6.10218 7 6.5V17.5C7 17.8978 7.15804 18.2794 7.43934 18.5607C7.72065 18.842 8.10218 19 8.5 19C8.89782 19 9.27935 18.842 9.56066 18.5607C9.84196 18.2794 10 17.8978 10 17.5V6.5C10 6.10218 9.84196 5.72065 9.56066 5.43934C9.27935 5.15804 8.89782 5 8.5 5Z" fill="white"/>
<path d="M15.5 5C15.1022 5 14.7206 5.15804 14.4393 5.43934C14.158 5.72065 14 6.10218 14 6.5V17.5C14 17.8978 14.158 18.2794 14.4393 18.5607C14.7206 18.842 15.1022 19 15.5 19C15.8978 19 16.2794 18.842 16.5607 18.5607C16.842 18.2794 17 17.8978 17 17.5V6.5C17 6.10218 16.842 5.72065 16.5607 5.43934C16.2794 5.15804 15.8978 5 15.5 5Z" fill="white"/>
</svg>
