<svg xmlns="http://www.w3.org/2000/svg" viewBox="0 0 24 24" class="icon icon--play" role="img"> <title>Play</title>
<path d="M7.97714 5C7.72238 4.99992 7.47766 5.09013 7.29513 5.2514C7.11261 5.41266 7.0067 5.63224 7 5.86333V18.1367C7.0067 18.3678 7.11261 18.5873 7.29513 18.7486C7.47766 18.9099 7.72238 19.0001 7.97714 19C8.17581 18.9998 8.36987 18.9456 8.53429 18.8444L13.3686 15.8889L18.58 12.7C18.7091 12.6228 18.815 12.5177 18.8883 12.3942C18.9616 12.2706 19 12.1325 19 11.9922C19 11.8519 18.9616 11.7138 18.8883 11.5903C18.815 11.4668 18.7091 11.3617 18.58 11.2844L13.3686 8.11111L8.53429 5.15556C8.36987 5.05436 8.17581 5.00018 7.97714 5Z" fill="white"/>
</svg>