<svg id="hr3" xmlns="http://www.w3.org/2000/svg" viewBox="0 0 391 220" preserveAspectRatio="xMinYMid meet"><path d="M135.48 214.44H89.83v-85.66c0-10.91-.05-15.84-3.18-18.95-2.69-2.68-7.89-4.04-16.75-4.04-6.66 0-14.46.84-24.16 2.43v106.23H0V2.89L45.74 0v69.32c9.92-1.66 22.13-3.21 32.52-3.21 21.03 0 34.96 6.14 44.05 15.23 12.12 12.12 13.18 26.46 13.17 43.28v89.82Zm66.15.04h-45.74v-87.23c0-15.5.61-29.41 12.92-41.72 13.59-13.59 35.15-18.83 82.55-19.32v38.81c-34.99.95-42.97 3.37-46.55 6.95-2.52 2.52-3.18 5.96-3.18 13.23v89.28Zm128.54-96.69c.1.02.19.04.29.07v-.16c-.09.03-.19.06-.29.09M314.18 220c-16.69 0-31.94-3.29-45.33-9.79l-8.13-3.95 9.91-36.46 11.45 4.67c11.1 4.53 22.17 6.82 32.9 6.82 9.1 0 16.55-2.31 22.77-7.08 5.41-4.14 7.92-9.03 7.92-15.39s-2.58-10.54-8.37-14.55c-6.81-4.71-16.35-7.09-28.38-7.09H292.2V99.54h12.55c11.66 0 21.2-2.3 28.36-6.82 7.44-4.71 8.39-9.83 8.39-13.77 0-4.21-1.48-7.03-4.96-9.41-4.58-3.13-11.47-4.72-20.48-4.72-8.4 0-18.14 2.09-28.96 6.21l-12.34 4.7-6.85-38.26 8.27-3.29c13.45-5.35 27.23-8.06 40.96-8.06 19.21 0 35.46 4.61 48.29 13.71 13.8 9.78 21.1 23.23 21.1 38.89 0 11.22-4.33 21.65-12.89 31a58.044 58.044 0 0 1-6.8 6.37c3.83 2.56 7.31 5.5 10.41 8.82 8.93 9.53 13.45 20.51 13.45 32.63 0 18.07-8.01 33.33-23.82 45.36-14.91 11.34-32.64 17.09-52.7 17.09" style="fill:#c20016;stroke-width:0"/></svg>