<svg xmlns="http://www.w3.org/2000/svg" xmlns:xlink="http://www.w3.org/1999/xlink"><symbol id="brandlogo--desk" viewBox="0 0 48 48" preserveAspectRatio="xMidYMid meet"><style type="text/css">.st1{fill:#fff}</style><path d="M43 0s5 0 5 5.4v37.3s0 5.4-5 5.4H5s-5 0-5-5.4V5.4S0 0 5 0h38z" fill="#c20016"/><path class="st1" d="M23.5 39.6c-6.5.1-14.3-1.1-19.3-3.3v-2c5.3 2.3 12.5 3.5 19 3.4 7-.1 14.2-1.3 19.2-3.3v1.9c-5.6 2-12 3.2-18.9 3.3M7.6 9.7v7.4s2.3-.5 4.3-.5c3.3 0 5 1.9 5.1 4.3V32.2h-3.5v-9.9c0-1.2.1-2.7-2.6-2.7-1.9 0-3.2.4-3.2.4v12.2H4.2V9.9l3.4-.2zM36.3 32.6c-4.1 0-7.9-2-7.9-7H33c.1 2.1 1.6 3.1 3.4 3.1 2 0 3.4-1.2 3.4-3.3 0-2-1.3-3.3-3.5-3.3h-.7v-3.8h.7c2.2 0 3.2-1.3 3.2-3 0-2-1.4-3-3-3-1.7 0-3 1.1-3.1 2.9h-4.6c.1-4.3 3.4-6.8 7.6-6.8 4.4 0 7.6 2.8 7.6 6.8 0 2.6-1.2 4.1-2.9 4.9 1.8.9 3.2 2.5 3.2 5.4-.1 4.8-3.8 7.1-8 7.1M28.6 16.7c-.7 0-3 .1-4.6.4-2.1.5-3.5 1.8-3.7 3.8 0 .4-.1.6-.1 1.5v9.7h3.5v-9.9c0-.9.1-1.4.6-1.9.6-.6 2.1-.7 2.9-.7h1.3l.1-2.9z"/></symbol><symbol id="brandlogo--mobile" viewBox="0 0 48 48" preserveAspectRatio="xMidYMid meet"><style type="text/css">.st1{fill:#fff}</style><path d="M43 0s5 0 5 5.4v37.3s0 5.4-5 5.4H5s-5 0-5-5.4V5.4S0 0 5 0h38z" fill="#c20016"/><path class="st1" d="M23.5 39.6c-6.5.1-14.3-1.1-19.3-3.3v-2c5.3 2.3 12.5 3.5 19 3.4 7-.1 14.2-1.3 19.2-3.3v1.9c-5.6 2-12 3.2-18.9 3.3M7.6 9.7v7.4s2.3-.5 4.3-.5c3.3 0 5 1.9 5.1 4.3V32.2h-3.5v-9.9c0-1.2.1-2.7-2.6-2.7-1.9 0-3.2.4-3.2.4v12.2H4.2V9.9l3.4-.2zM36.3 32.6c-4.1 0-7.9-2-7.9-7H33c.1 2.1 1.6 3.1 3.4 3.1 2 0 3.4-1.2 3.4-3.3 0-2-1.3-3.3-3.5-3.3h-.7v-3.8h.7c2.2 0 3.2-1.3 3.2-3 0-2-1.4-3-3-3-1.7 0-3 1.1-3.1 2.9h-4.6c.1-4.3 3.4-6.8 7.6-6.8 4.4 0 7.6 2.8 7.6 6.8 0 2.6-1.2 4.1-2.9 4.9 1.8.9 3.2 2.5 3.2 5.4-.1 4.8-3.8 7.1-8 7.1M28.6 16.7c-.7 0-3 .1-4.6.4-2.1.5-3.5 1.8-3.7 3.8 0 .4-.1.6-.1 1.5v9.7h3.5v-9.9c0-.9.1-1.4.6-1.9.6-.6 2.1-.7 2.9-.7h1.3l.1-2.9z"/></symbol></svg>