<?xml version="1.0" encoding="utf-8"?>
<!-- Generator: Adobe Illustrator 16.0.3, SVG Export Plug-In . SVG Version: 6.00 Build 0)  -->
<!DOCTYPE svg PUBLIC "-//W3C//DTD SVG 1.1//EN" "http://www.w3.org/Graphics/SVG/1.1/DTD/svg11.dtd">
<svg version="1.1" id="big_band" xmlns="http://www.w3.org/2000/svg" xmlns:xlink="http://www.w3.org/1999/xlink" x="0px" y="0px"
	 width="148px" height="49px" viewBox="0 0 148 49" enable-background="new 0 0 148 49" xml:space="preserve">
	 <defs>
    <style>
      .cls-1 {
        fill: #fff;
      }
    </style>
  </defs>
<g class="cls-1">
	<path d="M24.3,36.9c-8.2,0.199-18-1.4-24.3-4V30.3c6.8,2.8,15.9,4.4,23.8,4.2c8.6-0.2,18-1.6,24.3-4.2v2.3
		C40.8,35.2,32.9,36.6,24.3,36.9"/>
	<path d="M4.2,0v9.1c0,0,2.8-0.7,5.4-0.5c4.2,0,6.3,2.3,6.5,5.1c0,0.7,0,1.2,0,1.9v11.9h-4.4V15.4c0-1.4,0-3.3-3.3-3.3
		c-2.3,0-4,0.5-4,0.5v14.9H0V0.2L4.2,0z"/>
	<path d="M30.6,8.6c-0.9,0-3.7,0-5.8,0.5c-2.8,0.7-4.4,2.3-4.7,4.7c0,0.5,0,0.7,0,1.9V27.6h4.4V15.4c0-1.2,0-1.9,0.7-2.3
		c0.7-0.7,2.6-0.7,3.7-0.9c0.5,0,1.2,0,1.6,0V8.6H30.6z"/>
	<path d="M51.8,8.2c0,2.6-1.9,4-4.4,4h-6.3V6.8c0-1.6,0.9-2.6,3-2.6h3.3C49.9,4.4,51.8,5.6,51.8,8.2 M56.2,20.1
		c0-3.5-2.1-5.4-4.2-6.3c1.9-0.7,3.7-2.8,3.7-5.8c0-4.4-3.3-7.5-8.4-7.5h-4.2c-3.5,0-6.3,2.1-6.3,5.6v19.6V27.6H39h9.1
		C53,27.8,56.2,25,56.2,20.1 M52,19.8c0,2.3-1.6,4.2-4.4,4.2h-6.5v-8.2h6.5C50.4,15.9,52,17.5,52,19.8"/>
	<rect x="62.1" y="0.7" width="4.2" height="18.9"/>
	<path d="M90.1,22.4c-2.1,1.9-4.7,2.8-7.5,2.8c-2.8,0-5.4-0.9-7.2-2.6c-2.8-2.3-2.6-5.1-2.6-9.8c0-4.7,0-7.5,2.6-9.8
		c1.9-1.6,4.2-2.6,7.2-2.6c5.8,0,9.3,3.3,10,7.5h-4.2c-0.7-2.6-2.8-4-5.8-4c-1.6,0-3,0.5-4,1.4C77.2,6.8,77,7.7,77,12.6
		s0.2,6.3,1.6,7.5c0.9,0.9,2.6,1.4,4.2,1.4c1.9,0,3.3-0.7,4.4-1.6c0.9-0.9,1.4-2.1,1.4-3.7V15h-5.8v-3h10v3.7
		C92.6,18.7,91.9,20.8,90.1,22.4"/>
	<path d="M100.1,49c0,0-7.9-19.1-9.1-21.5c-0.7-1.6-2.1-1.6-2.6-1.6c-0.7,0-1.9,0.199-2.3,1.399C85.4,28.5,76.8,49,76.8,49H81
		l1.9-4.7h10.7l1.9,4.7H100.1z M92.6,41.5h-8.4L88.4,31L92.6,41.5z"/>
	<path d="M118.5,49l-11.9-16.3V49h-4V27.8c0-1.399,1.2-2.3,2.1-2.3c1.2,0,1.6,0.5,2.8,1.6c1.2,1.601,10.7,14.7,10.7,14.7V25.4h4
		v23.3h-3.7V49z"/>
	<path d="M142.1,44.1c-1.199,1.2-2.8,1.4-4.699,1.4h-4.7V31.7c0-1.601,1.2-2.601,2.3-2.601c1.2,0,2.3,0,2.3,0
		c1.9,0,3.5,0.5,4.7,1.601c1.4,1.2,1.4,3,1.4,6.3S143.5,42.7,142.1,44.1 M144.9,27.8c-1.601-1.399-4-2.3-7-2.3h-3.5
		c-3.301,0-6.101,2.3-6.101,5.4V49h9.601c2.8,0,5.1-0.7,7-2.1c2.8-2.601,2.8-6.301,2.8-9.801S147.7,30.3,144.9,27.8"/>
	<path d="M71.4,29.6c0,2.601-1.9,4-4.4,4h-6.3V28.2c0-1.601,0.9-2.601,3-2.601H67C69.5,25.7,71.4,27.1,71.4,29.6 M76.1,41.5
		c0-3.5-2.1-5.4-4.2-6.3c1.9-0.7,3.7-2.8,3.7-5.8c0-4.4-3.3-7.5-8.4-7.5h-4.4c-3.5,0-6.3,2.1-6.3,5.6v19.6V49h2.1h9.1
		C72.6,49,76.1,46.4,76.1,41.5 M71.9,41.3c0,2.3-1.6,4.2-4.4,4.2H61v-8.2h6.5C70.2,37.1,71.9,38.7,71.9,41.3"/>
</g>
</svg>
