<?xml version="1.0" encoding="utf-8"?>
<!-- Generator: Adobe Illustrator 19.2.0, SVG Export Plug-In . SVG Version: 6.00 Build 0)  -->
<svg version="1.1" id="Ebene_1" xmlns="http://www.w3.org/2000/svg" xmlns:xlink="http://www.w3.org/1999/xlink" x="0.5px" y="0px"
	 viewBox="0 0 126 60" style="enable-background:new 0 0 126 60" preserveAspectRatio="xMidYMid meet" xml:space="preserve">
<g>
	<path fill="#FFFFFF" d="M3.597,0.324L3.596,8.1c0,0,2.444-0.508,4.592-0.487c3.571,0.035,5.36,1.954,5.486,4.46
		c0.033,0.636,0.026,0.987,0.026,1.671V23.87H9.932V13.529c0-1.266,0.081-2.839-2.763-2.826c-2.026,0.011-3.457,0.4-3.457,0.4V23.87
		H0.037V0.558L3.597,0.324L3.597,0.324z"/>
	<path fill="#FFFFFF" d="M20.668,31.67C13.77,31.79,5.409,30.531,0.006,28.2v-2.1c5.679,2.408,13.404,3.684,20.302,3.565
		c7.443-0.128,15.192-1.38,20.557-3.485v2.037C34.863,30.351,28.067,31.543,20.668,31.67"/>
	<path fill="#FFFFFF" d="M26.06,7.669c-0.718,0.018-3.226,0.06-4.926,0.451c-2.285,0.522-3.75,1.901-3.954,4.011
		c-0.039,0.405-0.058,0.662-0.058,1.589v10.15h3.762V13.491c0-0.911,0.071-1.488,0.666-2.023c0.674-0.604,2.214-0.693,3.092-0.764
		c0.463-0.038,1.06-0.007,1.418-0.024V7.669L26.06,7.669z"/>
	<path fill="#FFFFFF" d="M44.07,7.392c0,2.129-1.551,3.289-3.832,3.289h-5.287V6.19c0-1.455,0.841-2.087,2.558-2.087h2.729
		C42.518,4.103,44.07,5.264,44.07,7.392 M48.003,17.45c0-2.901-1.718-4.61-3.536-5.319c1.586-0.613,3.172-2.386,3.172-4.868
		c0-3.87-2.742-6.287-7.104-6.287h-3.781c-2.925,0-5.372,1.836-5.372,4.774v16.602v1.577h1.714h7.803
		C45.062,23.93,48.003,21.674,48.003,17.45 M44.434,17.29c0,2.031-1.387,3.514-3.865,3.514h-5.618v-6.997h5.618
		C43.046,13.808,44.434,15.258,44.434,17.29"/>
	<polygon fill="#FFFFFF" points="52.906,1.038 56.474,1.038 56.474,17.087 52.906,17.087 52.906,1.038 	"/>
	<path fill="#FFFFFF" d="M76.714,19.451c-1.774,1.655-3.974,2.351-6.436,2.351c-2.431,0-4.531-0.784-6.142-2.206
		c-2.298-2.033-2.265-4.327-2.265-8.305c0-3.976-0.033-6.27,2.265-8.303c1.61-1.423,3.645-2.206,6.142-2.206
		c4.959,0,7.847,2.874,8.503,6.416h-3.578c-0.592-2.264-2.329-3.363-4.956-3.363c-1.379,0-2.598,0.464-3.419,1.247
		c-1.148,1.104-1.411,2.058-1.411,6.209c0,4.152,0.263,5.304,1.411,6.408c0.821,0.784,2.106,1.224,3.484,1.224
		c1.543,0,2.854-0.499,3.773-1.427c0.854-0.871,1.183-1.878,1.183-3.213v-1.115h-4.991v-2.718h8.537v3.164
		C78.815,16.285,78.257,17.999,76.714,19.451"/>
	<path fill="#FFFFFF" d="M85.18,42.133c0,0-6.82-16.249-7.685-18.209c-0.575-1.307-1.808-1.308-2.184-1.308
		c-0.601,0-1.531,0.202-1.967,1.127c-0.508,1.08-7.9,18.39-7.9,18.39h3.527l1.654-3.954h9.177l1.575,3.954H85.18L85.18,42.133z
		 M78.841,35.635h-7.208l3.643-8.889L78.841,35.635L78.841,35.635z"/>
	<path fill="#FFFFFF" d="M100.852,42.133L90.79,28.188v13.945h-3.458V24.145c0-1.28,0.977-1.888,1.847-1.888
		c0.969,0,1.481,0.341,2.289,1.422c1,1.339,9.108,12.494,9.108,12.494V22.258h3.458v19.875H100.852L100.852,42.133z"/>
	<path fill="#FFFFFF" d="M120.934,37.918c-0.981,0.923-2.289,1.187-3.955,1.187l-3.977-0.01l-0.007-11.761
		c0-1.362,0.934-2.136,2.059-2.194c0.986-0.051,1.925-0.047,1.925-0.047c1.667,0,2.974,0.42,3.955,1.344
		c1.21,1.147,1.243,2.791,1.243,5.535C122.177,34.714,122.144,36.769,120.934,37.918 M123.356,23.949
		c-1.443-1.274-3.436-1.895-5.901-1.895h-2.9c-2.8,0-5.17,2.027-5.17,4.606v15.477l8.066-0.003c2.375,0,4.462-0.557,5.905-1.831
		c2.469-2.179,2.308-5.404,2.308-8.318C125.664,29.071,125.825,26.126,123.356,23.949"/>
	<path fill="#FFFFFF" d="M60.846,25.577c0,2.128-1.552,3.288-3.832,3.288h-5.287v-4.49c0-1.455,0.841-2.088,2.559-2.088h2.729
		C59.295,22.288,60.846,23.45,60.846,25.577 M64.78,35.635c0-2.9-1.719-4.609-3.536-5.319c1.585-0.613,3.172-2.386,3.172-4.868
		c0-3.869-2.741-6.286-7.104-6.286H53.53c-2.925,0-5.372,1.835-5.372,4.773v16.603v1.577h1.714h7.802
		C61.838,42.115,64.78,39.86,64.78,35.635 M61.211,35.475c0,2.031-1.388,3.513-3.866,3.513h-5.617v-6.996h5.617
		C59.823,31.993,61.211,33.445,61.211,35.475"/>
	<polygon fill="#FFFFFF" points="0.85,50.16 0.85,53.221 4.496,53.221 4.496,54.015 0.85,54.015 0.85,57.683 -0.038,57.683 
		-0.038,49.365 5.128,49.365 5.128,50.16 0.85,50.16 	"/>
	<path fill="#FFFFFF" d="M9.278,53.034c-0.316-0.315-0.549-0.421-0.993-0.421c-0.841,0-1.379,0.666-1.379,1.543v3.528H6.064v-5.748
		h0.842v0.701c0.316-0.479,0.947-0.771,1.613-0.771c0.549,0,0.97,0.129,1.379,0.538L9.278,53.034L9.278,53.034z"/>
	<path fill="#FFFFFF" d="M14.188,57.683v-0.549c-0.467,0.467-0.888,0.619-1.66,0.619c-0.795,0-1.262-0.152-1.625-0.526
		c-0.28-0.28-0.432-0.712-0.432-1.168c0-1.005,0.701-1.659,1.987-1.659h1.73v-0.55c0-0.841-0.421-1.261-1.473-1.261
		c-0.736,0-1.11,0.175-1.449,0.654l-0.572-0.525c0.514-0.666,1.098-0.853,2.033-0.853c1.543,0,2.303,0.666,2.303,1.917v3.902H14.188
		L14.188,57.683z M14.188,55.032h-1.613c-0.865,0-1.285,0.35-1.285,1.016c0,0.666,0.409,0.982,1.32,0.982
		c0.491,0,0.923-0.035,1.286-0.386c0.199-0.187,0.292-0.514,0.292-0.993V55.032L14.188,55.032z"/>
	<path fill="#FFFFFF" d="M20.466,57.683v-3.54c0-1.016-0.549-1.531-1.414-1.531c-0.865,0-1.426,0.526-1.426,1.531v3.54h-0.842
		v-5.748h0.842v0.631c0.409-0.467,0.97-0.701,1.613-0.701c0.62,0,1.122,0.187,1.473,0.538c0.409,0.397,0.596,0.935,0.596,1.6v3.68
		H20.466L20.466,57.683z"/>
	<polygon fill="#FFFFFF" points="26.966,57.683 25.143,54.739 24.021,56.025 24.021,57.683 23.179,57.683 23.179,49.365 
		24.021,49.365 24.021,54.926 26.615,51.935 27.667,51.935 25.715,54.132 28.006,57.683 26.966,57.683 	"/>
	<path fill="#FFFFFF" d="M30.474,52.613v5.071h-0.842v-5.071h-0.736v-0.642h0.736v-1.087c0-0.853,0.479-1.542,1.461-1.542h0.608
		v0.724h-0.456c-0.537,0-0.771,0.316-0.771,0.842v1.063h1.227v0.642H30.474L30.474,52.613z"/>
	<path fill="#FFFFFF" d="M36.54,57.683v-0.643c-0.409,0.468-0.982,0.713-1.625,0.713c-0.619,0-1.134-0.187-1.484-0.538
		c-0.409-0.397-0.584-0.946-0.584-1.612v-3.668h0.842v3.54c0,1.017,0.538,1.531,1.402,1.531c0.865,0,1.438-0.526,1.438-1.531v-3.54
		h0.842v5.748H36.54L36.54,57.683z"/>
	<path fill="#FFFFFF" d="M42.514,53.034c-0.316-0.315-0.549-0.421-0.993-0.421c-0.842,0-1.379,0.666-1.379,1.543v3.528H39.3v-5.748
		h0.842v0.701c0.316-0.479,0.947-0.771,1.613-0.771c0.549,0,0.97,0.129,1.379,0.538L42.514,53.034L42.514,53.034z"/>
	<path fill="#FFFFFF" d="M45.893,57.683c-0.981,0-1.472-0.689-1.472-1.542v-3.529h-0.725v-0.642h0.725v-1.799h0.841v1.799h1.227
		v0.642h-1.227v3.505c0,0.526,0.246,0.841,0.783,0.841h0.444v0.724H45.893L45.893,57.683z"/>
	<path fill="#FFFFFF" d="M55.946,57.683l-1.893-3.692h-1.999v3.692h-0.888v-8.319h3.191c1.449,0,2.466,0.876,2.466,2.313
		c0,1.215-0.736,2.009-1.812,2.232l1.975,3.773H55.946L55.946,57.683z M54.275,50.16h-2.221v3.049h2.221
		c0.97,0,1.659-0.502,1.659-1.519C55.934,50.674,55.245,50.16,54.275,50.16L54.275,50.16z"/>
	<path fill="#FFFFFF" d="M61.768,57.683v-0.549c-0.468,0.467-0.888,0.619-1.66,0.619c-0.795,0-1.262-0.152-1.625-0.526
		c-0.28-0.28-0.432-0.712-0.432-1.168c0-1.005,0.701-1.659,1.987-1.659h1.73v-0.55c0-0.841-0.421-1.261-1.473-1.261
		c-0.737,0-1.11,0.175-1.449,0.654l-0.572-0.525c0.514-0.666,1.098-0.853,2.033-0.853c1.543,0,2.302,0.666,2.302,1.917v3.902H61.768
		L61.768,57.683z M61.768,55.032h-1.613c-0.865,0-1.285,0.35-1.285,1.016c0,0.666,0.409,0.982,1.32,0.982
		c0.491,0,0.924-0.035,1.286-0.386c0.199-0.187,0.292-0.514,0.292-0.993V55.032L61.768,55.032z"/>
	<path fill="#FFFFFF" d="M67.882,57.683v-0.689c-0.467,0.607-1.005,0.759-1.636,0.759c-0.584,0-1.098-0.199-1.401-0.502
		c-0.585-0.584-0.702-1.542-0.702-2.442c0-0.899,0.117-1.857,0.702-2.442c0.303-0.304,0.817-0.503,1.401-0.503
		c0.631,0,1.158,0.14,1.625,0.737v-3.237h0.843v8.319H67.882L67.882,57.683z M66.433,52.613c-1.251,0-1.449,1.075-1.449,2.196
		c0,1.122,0.198,2.196,1.449,2.196s1.437-1.075,1.437-2.196C67.87,53.688,67.684,52.613,66.433,52.613L66.433,52.613z"/>
	<path fill="#FFFFFF" d="M70.573,50.3v-0.946h0.946V50.3H70.573L70.573,50.3z M70.619,57.683v-5.748h0.843v5.748H70.619
		L70.619,57.683z"/>
	<path fill="#FFFFFF" d="M77.271,57.099c-0.398,0.397-0.947,0.654-1.648,0.654c-0.701,0-1.251-0.257-1.648-0.654
		c-0.584-0.596-0.701-1.402-0.701-2.29c0-0.888,0.117-1.694,0.701-2.29c0.398-0.398,0.948-0.655,1.648-0.655
		c0.701,0,1.251,0.257,1.648,0.655c0.584,0.596,0.701,1.402,0.701,2.29C77.972,55.697,77.855,56.503,77.271,57.099L77.271,57.099z
		 M76.674,53.034c-0.268-0.269-0.642-0.421-1.051-0.421c-0.409,0-0.772,0.152-1.041,0.421c-0.42,0.42-0.467,1.133-0.467,1.776
		c0,0.643,0.047,1.355,0.467,1.776c0.269,0.268,0.631,0.42,1.041,0.42c0.409,0,0.783-0.152,1.051-0.42
		c0.421-0.421,0.457-1.133,0.457-1.776C77.131,54.167,77.095,53.454,76.674,53.034L76.674,53.034z"/>
	<path fill="#FFFFFF" d="M86.108,57.683H82.87v-8.319h3.132c1.449,0,2.454,0.83,2.454,2.22c0,0.876-0.525,1.566-1.227,1.823
		c0.795,0.292,1.356,0.981,1.356,1.974C88.585,56.889,87.58,57.683,86.108,57.683L86.108,57.683z M85.933,50.16h-2.174v2.885h2.174
		c0.923,0,1.635-0.455,1.635-1.448C87.568,50.604,86.856,50.16,85.933,50.16L85.933,50.16z M86.026,53.84h-2.268v3.049h2.268
		c1.029,0,1.671-0.596,1.671-1.531C87.697,54.424,87.055,53.84,86.026,53.84L86.026,53.84z"/>
	<path fill="#FFFFFF" d="M90.189,50.3v-0.946h0.947V50.3H90.189L90.189,50.3z M90.236,57.683v-5.748h0.841v5.748H90.236
		L90.236,57.683z"/>
	<path fill="#FFFFFF" d="M94.981,60.324c-0.865,0-1.344-0.222-1.951-0.771l0.549-0.537c0.421,0.374,0.714,0.572,1.379,0.572
		c1.11,0,1.579-0.782,1.579-1.764v-0.9c-0.469,0.596-0.993,0.748-1.614,0.748c-0.584,0-1.087-0.21-1.39-0.514
		c-0.574-0.572-0.702-1.46-0.702-2.395c0-0.935,0.129-1.823,0.702-2.395c0.303-0.304,0.817-0.503,1.401-0.503
		c0.631,0,1.146,0.14,1.613,0.748v-0.678h0.831v5.923C97.377,59.284,96.489,60.324,94.981,60.324L94.981,60.324z M95.11,52.613
		c-1.251,0-1.437,1.075-1.437,2.15c0,1.075,0.186,2.149,1.437,2.149c1.251,0,1.426-1.074,1.426-2.149
		C96.536,53.688,96.36,52.613,95.11,52.613L95.11,52.613z"/>
	<path fill="#FFFFFF" d="M105.432,57.683h-3.237v-8.319h3.132c1.449,0,2.454,0.83,2.454,2.22c0,0.876-0.525,1.566-1.227,1.823
		c0.795,0.292,1.356,0.981,1.356,1.974C107.91,56.889,106.904,57.683,105.432,57.683L105.432,57.683z M105.258,50.16h-2.175v2.885
		h2.175c0.922,0,1.635-0.455,1.635-1.448C106.893,50.604,106.18,50.16,105.258,50.16L105.258,50.16z M105.351,53.84h-2.268v3.049
		h2.268c1.029,0,1.671-0.596,1.671-1.531C107.021,54.424,106.38,53.84,105.351,53.84L105.351,53.84z"/>
	<path fill="#FFFFFF" d="M112.822,57.683v-0.549c-0.469,0.467-0.888,0.619-1.66,0.619c-0.795,0-1.262-0.152-1.625-0.526
		c-0.281-0.28-0.433-0.712-0.433-1.168c0-1.005,0.702-1.659,1.988-1.659h1.73v-0.55c0-0.841-0.421-1.261-1.474-1.261
		c-0.736,0-1.11,0.175-1.449,0.654l-0.572-0.525c0.514-0.666,1.098-0.853,2.033-0.853c1.543,0,2.303,0.666,2.303,1.917v3.902
		H112.822L112.822,57.683z M112.822,55.032h-1.613c-0.865,0-1.286,0.35-1.286,1.016c0,0.666,0.409,0.982,1.32,0.982
		c0.491,0,0.924-0.035,1.286-0.386c0.198-0.187,0.293-0.514,0.293-0.993V55.032L112.822,55.032z"/>
	<path fill="#FFFFFF" d="M119.098,57.683v-3.54c0-1.016-0.549-1.531-1.413-1.531c-0.865,0-1.426,0.526-1.426,1.531v3.54h-0.841
		v-5.748h0.841v0.631c0.409-0.467,0.97-0.701,1.613-0.701c0.619,0,1.122,0.187,1.472,0.538c0.409,0.397,0.597,0.935,0.597,1.6v3.68
		H119.098L119.098,57.683z"/>
	<path fill="#FFFFFF" d="M125.13,57.683v-0.689c-0.467,0.607-1.005,0.759-1.637,0.759c-0.583,0-1.098-0.199-1.401-0.502
		c-0.585-0.584-0.702-1.542-0.702-2.442c0-0.899,0.117-1.857,0.702-2.442c0.303-0.304,0.818-0.503,1.401-0.503
		c0.632,0,1.158,0.14,1.625,0.737v-3.237h0.843v8.319H125.13L125.13,57.683z M123.682,52.613c-1.251,0-1.448,1.075-1.448,2.196
		c0,1.122,0.198,2.196,1.448,2.196c1.251,0,1.437-1.075,1.437-2.196C125.119,53.688,124.932,52.613,123.682,52.613L123.682,52.613z"
		/>
</g>
</svg>
