<svg xmlns="http://www.w3.org/2000/svg" xmlns:xlink="http://www.w3.org/1999/xlink"><symbol id="brandlogo--mobile" viewBox="0 0 751 220" preserveAspectRatio="xMidYMid meet"><path d="m126.78.04-16.81 16.81L93.16.04H0v96.78l16.81 16.81L0 130.44v89.54h123.42l96.51-96.51V.04h-93.16Zm60.5 109.97-77.3 77.3H32.66v-46.2l27.49-27.49-27.49-27.49V32.7h49.81L109.96 60l27.49-27.3h49.81V110Zm562.44-63.25v62.72h-15.95V75.7l-15.23 25.18h-1.61l-15.14-25.09v33.69h-16.04V46.76h16.04l15.95 26.79 16.04-26.79h15.95Zm-72.25 15.5h-22.49v10.21h22.04v15.5h-22.04v21.5h-16.04V46.75h38.52v15.5ZM605.38 163.9c-9.34 8.08-21.36 12.11-36.06 12.11s-26.73-4.04-36.06-12.11c-9.34-8.07-14.01-18.8-14.01-32.18V46.76h32.36v81.89c0 10.61 5.9 15.91 17.72 15.91s17.72-5.3 17.72-15.91V46.76h32.36v84.97c0 13.38-4.67 24.1-14.01 32.18Zm-117.87-6.96c-12.84 12.72-28.53 19.07-47.09 19.07s-34.26-6.36-47.09-19.07c-12.84-12.71-19.25-28.35-19.25-46.91s6.42-34.2 19.25-46.91c12.84-12.71 28.53-19.07 47.09-19.07s34.26 6.36 47.09 19.07c12.84 12.72 19.25 28.35 19.25 46.91s-6.42 34.2-19.25 46.91Zm-71.5-22.23c6.51 6.45 14.64 9.67 24.41 9.67s17.9-3.22 24.4-9.67c6.51-6.45 9.76-14.67 9.76-24.68s-3.26-18.23-9.76-24.68c-6.51-6.44-14.64-9.67-24.4-9.67s-17.9 3.23-24.41 9.67c-6.51 6.45-9.76 14.68-9.76 24.68s3.25 18.23 9.76 24.68Zm-34.44-87.95-42.66 77.92v48.63h-32.36v-48.27l-42.66-78.28h36.34l22.42 46.82 22.6-46.82h36.34Z" fill="#010101" stroke-width="0"/></symbol></svg>