<svg xmlns="http://www.w3.org/2000/svg" xmlns:xlink="http://www.w3.org/1999/xlink"><symbol id="brandlogo--desk" viewBox="0 0 1704.47 500"><style type="text/css">.st0{fill:#010101}</style><path class="st0" d="m867.55 106.31-96.99 177.13V394H697V284.26l-97-177.95h82.61l50.96 106.45 51.37-106.45h82.61zM1108.37 356.8c-29.18 28.91-64.87 43.36-107.06 43.36-42.2 0-77.88-14.45-107.06-43.36-29.18-28.9-43.77-64.45-43.77-106.65 0-42.19 14.59-77.74 43.77-106.65 29.18-28.91 64.87-43.36 107.06-43.36s77.88 14.45 107.06 43.36c29.18 28.91 43.77 64.46 43.77 106.65 0 42.2-14.59 77.75-43.77 106.65zm-162.54-50.55c14.79 14.66 33.29 21.99 55.48 21.99 22.19 0 40.68-7.33 55.48-21.99 14.79-14.66 22.2-33.35 22.2-56.1 0-22.74-7.4-41.44-22.2-56.1-14.79-14.65-33.29-21.99-55.48-21.99-22.2 0-40.69 7.33-55.48 21.99-14.79 14.66-22.19 33.36-22.19 56.1 0 22.75 7.4 41.45 22.19 56.1zM1376.33 372.62c-21.23 18.36-48.56 27.54-81.99 27.54-33.43 0-60.76-9.18-81.99-27.54-21.24-18.35-31.85-42.74-31.85-73.15V106.31h73.57v186.17c0 24.11 13.42 36.16 40.27 36.16s40.27-12.05 40.27-36.16V106.31h73.57v193.16c.01 30.41-10.62 54.8-31.85 73.15zM1540.22 141.55h-51.12v23.22h50.11V200h-50.11v48.88h-36.46V106.31h87.58v35.24zM1704.47 106.31v142.58h-36.26V172.1l-34.62 57.23h-3.67l-34.42-57.03v76.58h-36.46V106.31h36.46l36.26 60.9 36.46-60.9h36.25zM288.31.1 250.1 38.31 211.88.1H.1v220.01l38.21 38.21L.1 296.53V500.1h280.59L500.1 280.68V.1H288.31zm137.53 250L250.1 425.84H74.35V320.82l62.5-62.5-62.5-62.5V74.35H187.6l62.5 62.06 62.5-62.06h113.24V250.1z"/></symbol><symbol id="brandlogo--mobile" viewBox="0 0 500 500"><path d="M288.31.1 250.1 38.31 211.88.1H.1v220.01l38.21 38.21L.1 296.53V500.1h280.59L500.1 280.68V.1H288.31zm137.53 250L250.1 425.84H74.35V320.82l62.5-62.5-62.5-62.5V74.35H187.6l62.5 62.06 62.5-62.06h113.24V250.1z"/></symbol></svg>