<?xml version="1.0" encoding="UTF-8"?>
<svg id="hr4" xmlns="http://www.w3.org/2000/svg" viewBox="0 0 416 220">
  <defs>
    <style>
      .cls-1 {
        fill: #bd006e;
        stroke-width: 0px;
      }
    </style>
  </defs>
  <path class="cls-1" d="m138.99,220h-46.83v-87.88c0-11.19-.06-16.25-3.26-19.44-2.76-2.75-8.09-4.15-17.18-4.15-6.84,0-14.83.86-24.78,2.49v108.98H0V2.97L46.93,0v71.12c10.17-1.71,22.71-3.29,33.36-3.29,21.57,0,35.87,6.3,45.2,15.62,12.44,12.44,13.52,27.15,13.51,44.4v92.15Zm67.86-91.6c0-7.46.68-10.99,3.26-13.57,3.67-3.67,11.86-6.15,47.75-7.13v-39.81c-48.63.5-70.74,5.87-84.69,19.82-12.63,12.63-13.26,26.9-13.26,42.8v89.5h46.93v-91.6Zm102.38,16.72h43.02v-59.99s-43.02,59.99-43.02,59.99Zm83.26-115.22v115.22h23.49v37.42h-23.49v37.45s-40.24,0-40.24,0v-37.45h-89.12v-37.42h.05s82.59-115.22,82.59-115.22h46.72Z"/>
</svg>