<?xml version="1.0" encoding="utf-8"?>
<!-- Generator: Adobe Illustrator 24.2.2, SVG Export Plug-In . SVG Version: 6.00 Build 0)  -->
<svg version="1.1" id="Logo_Reinzeichnung" xmlns="http://www.w3.org/2000/svg" xmlns:xlink="http://www.w3.org/1999/xlink" x="0px"
	 y="0px" viewBox="0 0 1704.47 500" style="enable-background:new 0 0 1704.47 500;" xml:space="preserve">
<style type="text/css">
	.st0{fill:#ffffff;}
</style>
<g>
	<g>
		<path class="st0" d="M867.55,106.31l-96.99,177.13V394h-73.56V284.26L600,106.31h82.61l50.96,106.45l51.37-106.45H867.55z"/>
		<path class="st0" d="M1108.37,356.8c-29.18,28.91-64.87,43.36-107.06,43.36c-42.2,0-77.88-14.45-107.06-43.36
			c-29.18-28.9-43.77-64.45-43.77-106.65c0-42.19,14.59-77.74,43.77-106.65c29.18-28.91,64.87-43.36,107.06-43.36
			c42.19,0,77.88,14.45,107.06,43.36c29.18,28.91,43.77,64.46,43.77,106.65C1152.14,292.35,1137.55,327.9,1108.37,356.8z
			 M945.83,306.25c14.79,14.66,33.29,21.99,55.48,21.99c22.19,0,40.68-7.33,55.48-21.99c14.79-14.66,22.2-33.35,22.2-56.1
			c0-22.74-7.4-41.44-22.2-56.1c-14.79-14.65-33.29-21.99-55.48-21.99c-22.2,0-40.69,7.33-55.48,21.99
			c-14.79,14.66-22.19,33.36-22.19,56.1C923.64,272.9,931.04,291.6,945.83,306.25z"/>
		<path class="st0" d="M1376.33,372.62c-21.23,18.36-48.56,27.54-81.99,27.54c-33.43,0-60.76-9.18-81.99-27.54
			c-21.24-18.35-31.85-42.74-31.85-73.15V106.31h73.57v186.17c0,24.11,13.42,36.16,40.27,36.16c26.85,0,40.27-12.05,40.27-36.16
			V106.31h73.57v193.16C1408.19,329.88,1397.56,354.27,1376.33,372.62z"/>
	</g>
	<g>
		<path class="st0" d="M1540.22,141.55h-51.12v23.22h50.11V200h-50.11v48.88h-36.46V106.31h87.58V141.55z"/>
		<path class="st0" d="M1704.47,106.31v142.58h-36.26V172.1l-34.62,57.23h-3.67l-34.42-57.03v76.58h-36.46V106.31h36.46l36.26,60.9
			l36.46-60.9H1704.47z"/>
	</g>
</g>
<path class="st0" d="M288.31,0.1L250.1,38.31L211.88,0.1H0.1v220.01l38.21,38.21L0.1,296.53V500.1h280.59L500.1,280.68V0.1H288.31z
	 M425.84,250.1L250.1,425.84H74.35V320.82l62.5-62.5l-62.5-62.5V74.35H187.6l62.5,62.06l62.5-62.06h113.24V250.1z"/>
</svg>
