<?xml version="1.0" encoding="utf-8"?>
<!-- Generator: Adobe Illustrator 19.2.0, SVG Export Plug-In . SVG Version: 6.00 Build 0)  -->
<svg version="1.1" xmlns="http://www.w3.org/2000/svg" xmlns:xlink="http://www.w3.org/1999/xlink" x="0px" y="0px" width="163px"
	 height="37px" viewBox="0 0 163 37" enable-background="new 0 0 163 37" xml:space="preserve">
<g id="Ebene_1" display="none">
	
		<image display="inline" overflow="visible" width="1915" height="1919" xlink:href="../#farben/farben alle wellen/indexseite-rundfunkrat.jpg"  transform="matrix(1 0 0 1 -483.5814 -48.7857)">
	</image>
</g>
<g id="Ebene_2">
	<g>
		<path fill="#FFFFFF" d="M12.367,21.392L7.508,11.91H2.381v9.48h-2.28V0h8.19c1.88,0,3.404,0.537,4.575,1.609
			c1.17,1.073,1.755,2.522,1.755,4.346c0,1.524-0.42,2.787-1.261,3.79c-0.84,1.002-1.97,1.654-3.39,1.955l5.07,9.69L12.367,21.392z
			 M8.081,2.04h-5.7V9.9h5.7c1.3,0,2.335-0.331,3.104-0.994c0.77-0.662,1.155-1.636,1.155-2.921c0-1.265-0.39-2.238-1.17-2.921
			S9.36,2.04,8.081,2.04z"/>
		<path fill="#FFFFFF" d="M28.69,21.39v-1.65c-1.057,1.22-2.442,1.83-4.157,1.83c-1.614,0-2.9-0.475-3.857-1.425
			c-0.957-0.95-1.436-2.314-1.436-4.095V6.63h2.16v9.09c0,1.28,0.315,2.255,0.945,2.925c0.63,0.67,1.515,1.005,2.654,1.005
			c1.141,0,2.04-0.34,2.7-1.02s0.99-1.65,0.99-2.91V6.63h2.16v14.76H28.69z"/>
		<path fill="#FFFFFF" d="M45.701,21.39V12.3c0-1.28-0.32-2.255-0.96-2.925c-0.641-0.67-1.53-1.005-2.671-1.005
			c-1.14,0-2.035,0.335-2.685,1.005c-0.65,0.67-0.975,1.646-0.975,2.925v9.09h-2.16V6.63h2.16v1.62c1.06-1.2,2.439-1.8,4.14-1.8
			c1.6,0,2.885,0.48,3.855,1.44c0.97,0.96,1.454,2.31,1.454,4.05v9.45H45.701z"/>
		<path fill="#FFFFFF" d="M61.9,21.39v-1.77c-0.559,0.74-1.172,1.25-1.84,1.53c-0.668,0.28-1.45,0.42-2.348,0.42
			c-1.535,0-2.691-0.39-3.469-1.17c-0.777-0.78-1.291-1.689-1.54-2.73c-0.25-1.04-0.374-2.26-0.374-3.66
			c0-1.38,0.125-2.595,0.375-3.645c0.25-1.05,0.646-1.845,1.186-2.385c0.539-0.54,1.135-0.93,1.784-1.17
			c0.65-0.24,1.335-0.36,2.056-0.36c0.899,0,1.675,0.13,2.324,0.39c0.65,0.26,1.266,0.76,1.846,1.5V0h2.16v21.39H61.9z M58.21,8.37
			c-1.46,0-2.444,0.51-2.955,1.53c-0.51,1.02-0.765,2.391-0.765,4.11c0,1.76,0.25,3.14,0.75,4.14c0.5,1,1.489,1.5,2.97,1.5
			c1.44,0,2.415-0.51,2.925-1.53c0.511-1.02,0.766-2.39,0.766-4.11c0-1.76-0.251-3.14-0.75-4.14C60.65,8.87,59.67,8.37,58.21,8.37z"
			/>
		<path fill="#FFFFFF" d="M72.1,8.37v13.02h-2.16V8.37h-1.89V6.72h1.89V3.942c0-1.134,0.325-2.075,0.976-2.822
			C71.564,0.374,72.49,0,73.689,0h1.561v1.86h-1.17c-1.32,0-1.98,0.715-1.98,2.146V6.72h3.15v1.65H72.1z"/>
		<path fill="#FFFFFF" d="M88.18,21.39v-1.65c-1.057,1.22-2.442,1.83-4.157,1.83c-1.614,0-2.9-0.475-3.857-1.425
			c-0.957-0.95-1.436-2.314-1.436-4.095V6.63h2.16v9.09c0,1.28,0.315,2.255,0.945,2.925c0.63,0.67,1.515,1.005,2.654,1.005
			c1.141,0,2.04-0.34,2.7-1.02s0.99-1.65,0.99-2.91V6.63h2.16v14.76H88.18z"/>
		<path fill="#FFFFFF" d="M105.19,21.39V12.3c0-1.28-0.32-2.255-0.96-2.925c-0.641-0.67-1.53-1.005-2.671-1.005
			c-1.14,0-2.035,0.335-2.685,1.005c-0.65,0.67-0.975,1.646-0.975,2.925v9.09h-2.16V6.63h2.16v1.62c1.06-1.2,2.439-1.8,4.14-1.8
			c1.6,0,2.885,0.48,3.855,1.44c0.97,0.96,1.454,2.31,1.454,4.05v9.45H105.19z"/>
		<path fill="#FFFFFF" d="M122.314,21.394l-4.669-7.573l-2.886,3.283v4.287h-2.16V0h2.16v14.31l6.659-7.68h2.7l-5.01,5.64l5.88,9.12
			L122.314,21.394z"/>
		<path fill="#FFFFFF" d="M136.93,9.45c-0.4-0.4-0.785-0.68-1.155-0.84s-0.835-0.24-1.395-0.24c-1.061,0-1.916,0.375-2.565,1.125
			c-0.65,0.75-0.975,1.695-0.975,2.835v9.06h-2.16V6.63h2.16v1.8c0.399-0.6,0.975-1.08,1.725-1.44s1.555-0.54,2.415-0.54
			c0.76,0,1.405,0.095,1.935,0.285c0.53,0.19,1.065,0.555,1.605,1.095L136.93,9.45z"/>
		<path fill="#FFFFFF" d="M149.68,21.39v-1.41c-0.581,0.581-1.19,0.99-1.83,1.23c-0.641,0.24-1.45,0.36-2.431,0.36
			c-1.04,0-1.875-0.101-2.505-0.3s-1.25-0.61-1.859-1.23c-0.61-0.62-0.915-1.56-0.915-2.82c0-1.32,0.439-2.36,1.319-3.12
			c0.88-0.76,2.141-1.14,3.78-1.14h4.44v-1.41c0-1.1-0.293-1.915-0.878-2.445c-0.586-0.529-1.543-0.795-2.872-0.795
			c-0.972,0-1.717,0.12-2.232,0.36c-0.516,0.24-1.002,0.68-1.458,1.32l-1.53-1.35c0.641-0.84,1.355-1.415,2.146-1.725
			c0.79-0.31,1.814-0.465,3.075-0.465c3.939,0,5.91,1.64,5.91,4.92v10.02H149.68z M149.68,14.58h-4.141c-2.2,0-3.3,0.87-3.3,2.61
			c0,1.68,1.13,2.52,3.39,2.52c0.761,0,1.391-0.06,1.891-0.18c0.5-0.12,0.984-0.405,1.455-0.855c0.47-0.45,0.705-1.285,0.705-2.505
			V14.58z"/>
		<path fill="#FFFFFF" d="M161.229,21.39c-1.22,0-2.155-0.37-2.805-1.11c-0.65-0.74-0.976-1.69-0.976-2.85V8.37h-1.859V6.72h1.859
			V2.1h2.16v4.62h3.15v1.65h-3.15v9c0,1.44,0.67,2.16,2.011,2.16h1.14v1.86H161.229z"/>
	</g>
	<g>
		<path fill="#FFFFFF" d="M4.375,36.598v-0.809C4.12,36.127,3.84,36.36,3.534,36.488c-0.305,0.128-0.663,0.192-1.073,0.192
			c-0.702,0-1.23-0.179-1.586-0.535s-0.59-0.772-0.704-1.248C0.057,34.422,0,33.864,0,33.224c0-0.631,0.057-1.187,0.171-1.667
			c0.114-0.48,0.295-0.844,0.542-1.091c0.247-0.247,0.519-0.425,0.816-0.535c0.297-0.11,0.61-0.165,0.939-0.165
			c0.411,0,0.766,0.06,1.063,0.178c0.297,0.119,0.578,0.348,0.843,0.686v-3.813h0.988v9.78H4.375z M2.688,30.645
			c-0.668,0-1.118,0.233-1.352,0.7c-0.232,0.466-0.35,1.093-0.35,1.879c0,0.805,0.114,1.436,0.343,1.893
			c0.229,0.458,0.682,0.686,1.358,0.686c0.658,0,1.104-0.233,1.337-0.7s0.35-1.093,0.35-1.879c0-0.805-0.114-1.436-0.343-1.893
			C3.804,30.874,3.355,30.645,2.688,30.645z"/>
		<path fill="#FFFFFF" d="M8.449,33.484c0,0.736,0.172,1.307,0.515,1.711c0.343,0.405,0.834,0.607,1.475,0.607
			c0.384,0,0.704-0.056,0.96-0.168s0.525-0.308,0.81-0.586l0.672,0.59c-0.366,0.366-0.729,0.631-1.091,0.795
			s-0.82,0.247-1.378,0.247c-0.924,0-1.646-0.286-2.168-0.857c-0.521-0.571-0.781-1.438-0.781-2.599
			c0-1.088,0.244-1.937,0.733-2.544c0.489-0.608,1.168-0.912,2.037-0.912s1.548,0.29,2.037,0.871
			c0.489,0.581,0.733,1.379,0.733,2.394v0.453H8.449z M11.81,31.619c-0.128-0.311-0.334-0.558-0.617-0.741
			c-0.283-0.183-0.604-0.274-0.96-0.274s-0.675,0.092-0.953,0.274C9,31.062,8.809,31.274,8.703,31.516
			c-0.105,0.243-0.174,0.451-0.206,0.624c-0.032,0.174-0.048,0.375-0.048,0.604h3.566c0-0.274-0.012-0.475-0.034-0.604
			C11.958,32.012,11.901,31.838,11.81,31.619z"/>
		<path fill="#FFFFFF" d="M17.228,36.681c-0.585,0-1.102-0.075-1.55-0.225s-0.855-0.396-1.221-0.741l0.658-0.653
			c0.256,0.27,0.558,0.465,0.905,0.586c0.348,0.122,0.745,0.182,1.193,0.182c0.576,0,1.02-0.098,1.331-0.293
			c0.311-0.195,0.466-0.493,0.466-0.893c0-0.591-0.375-0.918-1.125-0.982l-1.11-0.095c-0.649,0-1.148-0.161-1.495-0.482
			c-0.348-0.321-0.521-0.766-0.521-1.335c0-0.615,0.229-1.099,0.686-1.452c0.457-0.353,1.057-0.53,1.797-0.53
			c1.024,0,1.833,0.242,2.428,0.727l-0.645,0.645c-0.466-0.357-1.065-0.535-1.797-0.535c-0.493,0-0.869,0.097-1.125,0.29
			s-0.384,0.47-0.384,0.829c0,0.313,0.092,0.557,0.274,0.731s0.484,0.262,0.905,0.262l1.084,0.096
			c0.64,0.055,1.131,0.221,1.475,0.499c0.343,0.278,0.514,0.718,0.514,1.319c0,0.647-0.247,1.151-0.74,1.511
			C18.736,36.5,18.069,36.681,17.228,36.681z"/>
		<path fill="#FFFFFF" d="M31.177,36.598V32.14H26.54v4.458h-1.042v-9.78h1.042v4.389h4.637v-4.389h1.042v9.78H31.177z"/>
		<path fill="#FFFFFF" d="M35.483,33.484c0,0.736,0.172,1.307,0.515,1.711c0.343,0.405,0.834,0.607,1.475,0.607
			c0.384,0,0.704-0.056,0.96-0.168s0.525-0.308,0.81-0.586l0.672,0.59c-0.366,0.366-0.729,0.631-1.091,0.795
			s-0.82,0.247-1.378,0.247c-0.924,0-1.646-0.286-2.168-0.857c-0.521-0.571-0.781-1.438-0.781-2.599
			c0-1.088,0.244-1.937,0.733-2.544c0.489-0.608,1.168-0.912,2.037-0.912s1.548,0.29,2.037,0.871
			c0.489,0.581,0.733,1.379,0.733,2.394v0.453H35.483z M38.844,31.619c-0.128-0.311-0.334-0.558-0.617-0.741
			c-0.283-0.183-0.604-0.274-0.96-0.274s-0.675,0.092-0.953,0.274c-0.279,0.183-0.471,0.396-0.576,0.638
			c-0.105,0.243-0.174,0.451-0.206,0.624c-0.032,0.174-0.048,0.375-0.048,0.604h3.566c0-0.274-0.012-0.475-0.034-0.604
			C38.992,32.012,38.936,31.838,38.844,31.619z"/>
		<path fill="#FFFFFF" d="M44.262,36.681c-0.585,0-1.102-0.075-1.55-0.225s-0.855-0.396-1.221-0.741l0.658-0.653
			c0.256,0.27,0.558,0.465,0.905,0.586c0.348,0.122,0.745,0.182,1.193,0.182c0.576,0,1.02-0.098,1.331-0.293
			c0.311-0.195,0.466-0.493,0.466-0.893c0-0.591-0.375-0.918-1.125-0.982l-1.11-0.095c-0.649,0-1.148-0.161-1.495-0.482
			c-0.348-0.321-0.521-0.766-0.521-1.335c0-0.615,0.229-1.099,0.686-1.452c0.457-0.353,1.057-0.53,1.797-0.53
			c1.024,0,1.833,0.242,2.428,0.727l-0.645,0.645c-0.466-0.357-1.065-0.535-1.797-0.535c-0.493,0-0.869,0.097-1.125,0.29
			s-0.384,0.47-0.384,0.829c0,0.313,0.092,0.557,0.274,0.731s0.484,0.262,0.905,0.262l1.084,0.096
			c0.64,0.055,1.131,0.221,1.475,0.499c0.343,0.278,0.514,0.718,0.514,1.319c0,0.647-0.247,1.151-0.74,1.511
			C45.771,36.5,45.104,36.681,44.262,36.681z"/>
		<path fill="#FFFFFF" d="M51.065,36.681c-0.585,0-1.102-0.075-1.55-0.225s-0.855-0.396-1.221-0.741l0.658-0.653
			c0.256,0.27,0.558,0.465,0.905,0.586c0.348,0.122,0.745,0.182,1.193,0.182c0.576,0,1.02-0.098,1.331-0.293
			c0.311-0.195,0.466-0.493,0.466-0.893c0-0.591-0.375-0.918-1.125-0.982l-1.11-0.095c-0.649,0-1.148-0.161-1.495-0.482
			c-0.348-0.321-0.521-0.766-0.521-1.335c0-0.615,0.229-1.099,0.686-1.452c0.457-0.353,1.057-0.53,1.797-0.53
			c1.024,0,1.833,0.242,2.428,0.727l-0.645,0.645c-0.466-0.357-1.065-0.535-1.797-0.535c-0.493,0-0.869,0.097-1.125,0.29
			s-0.384,0.47-0.384,0.829c0,0.313,0.092,0.557,0.274,0.731s0.484,0.262,0.905,0.262l1.084,0.096
			c0.64,0.055,1.131,0.221,1.475,0.499c0.343,0.278,0.514,0.718,0.514,1.319c0,0.647-0.247,1.151-0.74,1.511
			C52.574,36.5,51.907,36.681,51.065,36.681z"/>
		<path fill="#FFFFFF" d="M55.688,27.929v-1.111h1.111v1.111H55.688z M55.742,36.598V29.85h0.987v6.749H55.742z"/>
		<path fill="#FFFFFF" d="M61.338,36.681c-0.585,0-1.102-0.075-1.55-0.225s-0.855-0.396-1.221-0.741l0.658-0.653
			c0.256,0.27,0.558,0.465,0.905,0.586c0.348,0.122,0.745,0.182,1.193,0.182c0.576,0,1.02-0.098,1.331-0.293
			c0.311-0.195,0.466-0.493,0.466-0.893c0-0.591-0.375-0.918-1.125-0.982l-1.11-0.095c-0.649,0-1.148-0.161-1.495-0.482
			c-0.348-0.321-0.521-0.766-0.521-1.335c0-0.615,0.229-1.099,0.686-1.452c0.457-0.353,1.057-0.53,1.797-0.53
			c1.024,0,1.833,0.242,2.428,0.727l-0.645,0.645c-0.466-0.357-1.065-0.535-1.797-0.535c-0.493,0-0.869,0.097-1.125,0.29
			s-0.384,0.47-0.384,0.829c0,0.313,0.092,0.557,0.274,0.731s0.484,0.262,0.905,0.262l1.084,0.096
			c0.64,0.055,1.131,0.221,1.475,0.499c0.343,0.278,0.514,0.718,0.514,1.319c0,0.647-0.247,1.151-0.74,1.511
			C62.847,36.5,62.18,36.681,61.338,36.681z"/>
		<path fill="#FFFFFF" d="M68.636,36.681c-0.878,0-1.596-0.3-2.153-0.898c-0.559-0.599-0.837-1.452-0.837-2.558
			c0-1.116,0.276-1.971,0.83-2.565c0.553-0.595,1.272-0.892,2.16-0.892c0.484,0,0.887,0.071,1.207,0.212
			c0.319,0.142,0.658,0.405,1.015,0.789l-0.672,0.631c-0.256-0.283-0.499-0.48-0.727-0.589c-0.229-0.11-0.504-0.165-0.823-0.165
			c-0.686,0-1.191,0.231-1.516,0.693c-0.325,0.462-0.487,1.09-0.487,1.886c0,0.43,0.032,0.782,0.096,1.056
			c0.064,0.274,0.227,0.597,0.487,0.967s0.734,0.556,1.42,0.556c0.329,0,0.604-0.055,0.823-0.165
			c0.219-0.11,0.461-0.311,0.727-0.604l0.672,0.645c-0.348,0.375-0.686,0.636-1.015,0.782S69.111,36.681,68.636,36.681z"/>
		<path fill="#FFFFFF" d="M77.057,36.598v-4.17c0-0.576-0.144-1.017-0.432-1.323c-0.288-0.307-0.692-0.46-1.214-0.46
			s-0.933,0.156-1.234,0.467c-0.302,0.311-0.453,0.75-0.453,1.316v4.17h-0.987v-9.78h0.987v3.772
			c0.485-0.549,1.116-0.823,1.894-0.823c0.759,0,1.353,0.224,1.783,0.672c0.43,0.448,0.645,1.056,0.645,1.824v4.334H77.057z"/>
		<path fill="#FFFFFF" d="M81.062,33.484c0,0.736,0.172,1.307,0.515,1.711c0.343,0.405,0.834,0.607,1.475,0.607
			c0.384,0,0.704-0.056,0.96-0.168s0.525-0.308,0.81-0.586l0.672,0.59c-0.366,0.366-0.729,0.631-1.091,0.795
			s-0.82,0.247-1.378,0.247c-0.924,0-1.646-0.286-2.168-0.857c-0.521-0.571-0.781-1.438-0.781-2.599
			c0-1.088,0.244-1.937,0.733-2.544c0.489-0.608,1.168-0.912,2.037-0.912s1.548,0.29,2.037,0.871
			c0.489,0.581,0.733,1.379,0.733,2.394v0.453H81.062z M84.422,31.619c-0.128-0.311-0.334-0.558-0.617-0.741
			c-0.283-0.183-0.604-0.274-0.96-0.274s-0.675,0.092-0.953,0.274c-0.279,0.183-0.471,0.396-0.576,0.638
			c-0.105,0.243-0.174,0.451-0.206,0.624c-0.032,0.174-0.048,0.375-0.048,0.604h3.566c0-0.274-0.012-0.475-0.034-0.604
			C84.57,32.012,84.514,31.838,84.422,31.619z"/>
		<path fill="#FFFFFF" d="M92.035,36.598v-4.156c0-0.585-0.146-1.031-0.438-1.337c-0.293-0.307-0.699-0.46-1.221-0.46
			s-0.931,0.153-1.228,0.46c-0.298,0.306-0.446,0.752-0.446,1.337v4.156h-0.987V29.85h0.987v0.741
			c0.485-0.549,1.116-0.823,1.894-0.823c0.731,0,1.318,0.219,1.763,0.658c0.443,0.439,0.665,1.056,0.665,1.852v4.321H92.035z"/>
		<path fill="#FFFFFF" d="M104.625,36.599l-2.223-4.335h-2.344v4.334h-1.042v-9.78h3.744c0.859,0,1.557,0.246,2.092,0.736
			c0.535,0.491,0.803,1.153,0.803,1.987c0,0.697-0.192,1.274-0.576,1.732s-0.901,0.756-1.55,0.894l2.318,4.43L104.625,36.599z
			 M102.665,27.751h-2.606v3.594h2.606c0.594,0,1.067-0.151,1.42-0.454c0.352-0.303,0.527-0.748,0.527-1.336
			c0-0.578-0.178-1.023-0.535-1.335C103.721,27.907,103.25,27.751,102.665,27.751z"/>
		<path fill="#FFFFFF" d="M112.088,36.598v-0.754c-0.482,0.558-1.116,0.837-1.9,0.837c-0.738,0-1.326-0.217-1.764-0.652
			c-0.438-0.434-0.656-1.058-0.656-1.872V29.85h0.987v4.156c0,0.585,0.145,1.031,0.433,1.337c0.288,0.306,0.692,0.459,1.214,0.459
			c0.521,0,0.933-0.155,1.234-0.466s0.452-0.754,0.452-1.331V29.85h0.987v6.749H112.088z"/>
		<path fill="#FFFFFF" d="M119.864,36.598v-4.156c0-0.585-0.146-1.031-0.438-1.337c-0.293-0.307-0.699-0.46-1.221-0.46
			s-0.931,0.153-1.228,0.46c-0.298,0.306-0.446,0.752-0.446,1.337v4.156h-0.987V29.85h0.987v0.741
			c0.485-0.549,1.116-0.823,1.894-0.823c0.731,0,1.318,0.219,1.763,0.658c0.443,0.439,0.665,1.056,0.665,1.852v4.321H119.864z"/>
		<path fill="#FFFFFF" d="M127.271,36.598v-0.809c-0.255,0.338-0.535,0.571-0.841,0.699c-0.305,0.128-0.663,0.192-1.073,0.192
			c-0.702,0-1.23-0.179-1.586-0.535s-0.59-0.772-0.704-1.248s-0.171-1.033-0.171-1.673c0-0.631,0.057-1.187,0.171-1.667
			c0.114-0.48,0.295-0.844,0.542-1.091c0.247-0.247,0.52-0.425,0.816-0.535c0.297-0.11,0.61-0.165,0.939-0.165
			c0.411,0,0.766,0.06,1.063,0.178c0.297,0.119,0.578,0.348,0.843,0.686v-3.813h0.988v9.78H127.271z M125.585,30.645
			c-0.668,0-1.118,0.233-1.352,0.7c-0.232,0.466-0.35,1.093-0.35,1.879c0,0.805,0.114,1.436,0.343,1.893
			c0.229,0.458,0.682,0.686,1.358,0.686c0.658,0,1.104-0.233,1.337-0.7s0.35-1.093,0.35-1.879c0-0.805-0.114-1.436-0.343-1.893
			C126.7,30.874,126.252,30.645,125.585,30.645z"/>
		<path fill="#FFFFFF" d="M131.936,30.645v5.953h-0.987v-5.953h-0.864v-0.754h0.864v-1.27c0-0.519,0.148-0.949,0.445-1.29
			s0.721-0.512,1.27-0.512h0.713v0.851h-0.535c-0.604,0-0.905,0.327-0.905,0.981v1.24h1.44v0.754H131.936z"/>
		<path fill="#FFFFFF" d="M139.287,36.598v-0.754c-0.482,0.558-1.116,0.837-1.9,0.837c-0.738,0-1.326-0.217-1.764-0.652
			c-0.438-0.434-0.656-1.058-0.656-1.872V29.85h0.987v4.156c0,0.585,0.145,1.031,0.433,1.337c0.288,0.306,0.692,0.459,1.214,0.459
			c0.521,0,0.933-0.155,1.234-0.466s0.452-0.754,0.452-1.331V29.85h0.987v6.749H139.287z"/>
		<path fill="#FFFFFF" d="M147.064,36.598v-4.156c0-0.585-0.146-1.031-0.438-1.337c-0.293-0.307-0.699-0.46-1.221-0.46
			s-0.931,0.153-1.228,0.46c-0.298,0.306-0.446,0.752-0.446,1.337v4.156h-0.987V29.85h0.987v0.741
			c0.485-0.549,1.116-0.823,1.894-0.823c0.731,0,1.318,0.219,1.763,0.658c0.443,0.439,0.665,1.056,0.665,1.852v4.321H147.064z"/>
		<path fill="#FFFFFF" d="M154.895,36.6l-2.135-3.462l-1.32,1.501v1.96h-0.987v-9.78h0.987v6.543l3.045-3.512h1.235l-2.291,2.579
			l2.688,4.17L154.895,36.6z"/>
		<path fill="#FFFFFF" d="M159.93,36.681c-0.585,0-1.102-0.075-1.55-0.225s-0.855-0.396-1.221-0.741l0.658-0.653
			c0.256,0.27,0.558,0.465,0.905,0.586c0.348,0.122,0.745,0.182,1.193,0.182c0.576,0,1.02-0.098,1.331-0.293
			c0.311-0.195,0.466-0.493,0.466-0.893c0-0.591-0.375-0.918-1.125-0.982l-1.11-0.095c-0.649,0-1.148-0.161-1.495-0.482
			c-0.348-0.321-0.521-0.766-0.521-1.335c0-0.615,0.229-1.099,0.686-1.452c0.457-0.353,1.057-0.53,1.797-0.53
			c1.024,0,1.833,0.242,2.428,0.727l-0.645,0.645c-0.466-0.357-1.065-0.535-1.797-0.535c-0.493,0-0.869,0.097-1.125,0.29
			s-0.384,0.47-0.384,0.829c0,0.313,0.092,0.557,0.274,0.731s0.484,0.262,0.905,0.262l1.084,0.096
			c0.64,0.055,1.131,0.221,1.475,0.499c0.343,0.278,0.514,0.718,0.514,1.319c0,0.647-0.247,1.151-0.74,1.511
			C161.438,36.5,160.771,36.681,159.93,36.681z"/>
	</g>
</g>
<g id="Ebene_3">
</g>
</svg>
