<?xml version="1.0" encoding="UTF-8"?>
<svg id="Ebene_2" data-name="Ebene 2" xmlns="http://www.w3.org/2000/svg" viewBox="0 0 1326.012 220">
  <defs>
    <style>
      .cls-1 {
        fill: #fff;
      }
    </style>
  </defs>
  <g id="Ebene_1-2" data-name="Ebene 1">
    <g>
      <g>
        <path class="cls-1" d="m48.221,78.888h-30.131v48.939H1.108V0h51.13c21.913,0,39.808,17.713,39.808,39.626,0,16.8-11.139,31.592-26.478,37.07l30.131,51.13h-18.809l-28.669-48.939Zm-30.131-15.339h34.148c12.6,0,22.826-10.774,22.826-23.922s-10.226-23.739-22.826-23.739H18.091v47.661Z"/>
        <path class="cls-1" d="m119.081,84.913V0h16.982v84.183c0,17.713,10.592,29.4,31.044,29.4s31.044-11.687,31.044-29.4V0h16.8v84.913c0,27.757-19.905,45.288-47.844,45.288s-48.026-17.53-48.026-45.288Z"/>
        <path class="cls-1" d="m346.436,0v127.827h-13.696l-65.739-95.505v95.505h-16.982V0h13.695l65.74,95.322V0h16.982Z"/>
        <path class="cls-1" d="m493.445,63.913c0,35.426-25.382,63.913-60.627,63.913h-49.852V0h49.852c35.245,0,60.627,28.487,60.627,63.913Zm-16.253,0c0-27.026-18.078-47.843-44.374-47.843h-32.869v95.687h32.869c26.296,0,44.374-20.818,44.374-47.844Z"/>
        <path class="cls-1" d="m540.202,16.07v41.452h54.235v16.07h-54.235v54.235h-16.983V0h73.592v16.07h-56.609Z"/>
        <path class="cls-1" d="m624.939,84.913V0h16.982v84.183c0,17.713,10.591,29.4,31.045,29.4s31.043-11.687,31.043-29.4V0h16.799v84.913c0,27.757-19.904,45.288-47.842,45.288s-48.026-17.53-48.026-45.288Z"/>
        <path class="cls-1" d="m852.294,0v127.827h-13.695l-65.74-95.505v95.505h-16.983V0h13.697l65.738,95.322V0h16.983Z"/>
        <path class="cls-1" d="m960.956,127.827l-55.149-61.357v61.357h-16.983V0h16.983v57.705L959.13,0h20.816l-56.425,62.087,58.251,65.74h-20.816Z"/>
        <path class="cls-1" d="m1053.18,78.888h-30.131v48.939h-16.983V0h51.13c21.914,0,39.809,17.713,39.809,39.626,0,16.8-11.139,31.592-26.478,37.07l30.131,51.13h-18.81l-28.669-48.939Zm-30.131-15.339h34.147c12.601,0,22.826-10.774,22.826-23.922s-10.225-23.739-22.826-23.739h-34.147v47.661Z"/>
        <path class="cls-1" d="m1200.552,99.157h-57.521l-10.409,28.669h-18.079L1162.204,0h19.174l47.662,127.827h-18.079l-10.409-28.669Zm-5.843-15.887l-23.01-63-22.826,63h45.836Z"/>
        <path class="cls-1" d="m1326.012,16.07h-37.799v111.756h-16.799V16.07h-37.619V0h92.218v16.07Z"/>
      </g>
      <g>
        <path class="cls-1" d="m43.553,193.867c0,13.966-10.006,25.196-23.9,25.196H0v-50.391h19.653c13.894,0,23.9,11.23,23.9,25.195Zm-6.407,0c0-10.652-7.126-18.86-17.492-18.86H6.695v37.721h12.958c10.366,0,17.492-8.206,17.492-18.862Z"/>
        <path class="cls-1" d="m85.378,212.729v6.335h-30.092v-50.391h29.731v6.335h-23.036v15.477h21.236v6.262h-21.236v15.982h23.396Z"/>
        <path class="cls-1" d="m95.672,207.618l5.759-3.312c1.799,5.543,6.118,9.142,13.462,9.142,7.126,0,10.654-3.238,10.654-7.773,0-5.183-4.464-6.911-11.878-9.214-8.063-2.593-15.837-5.112-15.837-14.47,0-9.071,7.414-14.254,15.837-14.254,8.278,0,14.253,4.68,17.061,11.014l-5.616,3.24c-1.799-4.319-5.326-7.775-11.445-7.775-5.399,0-9.142,2.879-9.142,7.487,0,4.678,3.527,6.405,10.582,8.638,8.782,2.879,17.061,5.471,17.061,15.189,0,8.854-7.127,14.47-17.422,14.47-9.574,0-16.413-4.825-19.076-12.382Z"/>
        <path class="cls-1" d="m203.005,168.673v50.391h-6.623v-22.675h-24.476v22.675h-6.695v-50.391h6.695v21.381h24.476v-21.381h6.623Z"/>
        <path class="cls-1" d="m250.374,212.729v6.335h-30.092v-50.391h29.731v6.335h-23.036v15.477h21.236v6.262h-21.236v15.982h23.396Z"/>
        <path class="cls-1" d="m263.548,207.618l5.759-3.312c1.799,5.543,6.118,9.142,13.462,9.142,7.126,0,10.654-3.238,10.654-7.773,0-5.183-4.464-6.911-11.878-9.214-8.063-2.593-15.837-5.112-15.837-14.47,0-9.071,7.414-14.254,15.837-14.254,8.278,0,14.253,4.68,17.061,11.014l-5.616,3.24c-1.799-4.319-5.326-7.775-11.445-7.775-5.399,0-9.142,2.879-9.142,7.487,0,4.678,3.527,6.405,10.582,8.638,8.782,2.879,17.061,5.471,17.061,15.189,0,8.854-7.127,14.47-17.422,14.47-9.574,0-16.413-4.825-19.076-12.382Z"/>
        <path class="cls-1" d="m309.908,207.618l5.759-3.312c1.799,5.543,6.118,9.142,13.462,9.142,7.126,0,10.654-3.238,10.654-7.773,0-5.183-4.464-6.911-11.878-9.214-8.063-2.593-15.837-5.112-15.837-14.47,0-9.071,7.414-14.254,15.837-14.254,8.278,0,14.253,4.68,17.061,11.014l-5.616,3.24c-1.799-4.319-5.326-7.775-11.445-7.775-5.399,0-9.142,2.879-9.142,7.487,0,4.678,3.527,6.405,10.582,8.638,8.782,2.879,17.061,5.471,17.061,15.189,0,8.854-7.127,14.47-17.422,14.47-9.574,0-16.413-4.825-19.076-12.382Z"/>
        <path class="cls-1" d="m368.505,168.673v50.391h-6.695v-50.391h6.695Z"/>
        <path class="cls-1" d="m382.184,207.618l5.759-3.312c1.8,5.543,6.119,9.142,13.461,9.142,7.126,0,10.654-3.238,10.654-7.773,0-5.183-4.462-6.911-11.876-9.214-8.063-2.593-15.839-5.112-15.839-14.47,0-9.071,7.416-14.254,15.839-14.254,8.278,0,14.253,4.68,17.06,11.014l-5.614,3.24c-1.8-4.319-5.328-7.775-11.445-7.775-5.4,0-9.144,2.879-9.144,7.487,0,4.678,3.528,6.405,10.582,8.638,8.783,2.879,17.061,5.471,17.061,15.189,0,8.854-7.126,14.47-17.42,14.47-9.575,0-16.413-4.825-19.077-12.382Z"/>
        <path class="cls-1" d="m431.495,193.867c0-14.54,10.942-26.131,26.346-26.131,9.287,0,17.492,4.823,21.739,12.239l-5.83,3.383c-2.879-5.543-8.999-9.142-15.91-9.142-11.806,0-19.725,8.566-19.725,19.651,0,11.014,7.92,19.58,19.725,19.58,6.911,0,13.03-3.598,15.91-9.069l5.83,3.31c-4.174,7.416-12.38,12.311-21.739,12.311-15.404,0-26.346-11.663-26.346-26.133Z"/>
        <path class="cls-1" d="m531.413,168.673v50.391h-6.623v-22.675h-24.476v22.675h-6.695v-50.391h6.695v21.381h24.476v-21.381h6.623Z"/>
        <path class="cls-1" d="m580.222,212.729v6.335h-30.092v-50.391h29.731v6.335h-23.036v15.477h21.236v6.262h-21.236v15.982h23.396Z"/>
        <path class="cls-1" d="m632.701,168.673v50.391h-5.399l-25.915-37.649v37.649h-6.695v-50.391h5.4l25.915,37.578v-37.578h6.693Z"/>
        <path class="cls-1" d="m687.268,199.771h-11.878v19.293h-6.695v-50.391h20.156c8.638,0,15.694,6.983,15.694,15.622,0,6.623-4.392,12.452-10.439,14.613l11.878,20.156h-7.414l-11.302-19.293Zm-11.878-6.047h13.461c4.968,0,8.999-4.247,8.999-9.43s-4.031-9.359-8.999-9.359h-13.461v18.789Z"/>
        <path class="cls-1" d="m719.518,202.147v-33.474h6.695v33.187c0,6.981,4.176,11.589,12.239,11.589s12.237-4.607,12.237-11.589v-33.187h6.623v33.474c0,10.942-7.847,17.853-18.86,17.853s-18.934-6.911-18.934-17.853Z"/>
        <path class="cls-1" d="m813.462,168.673v50.391h-5.399l-25.915-37.649v37.649h-6.695v-50.391h5.4l25.915,37.578v-37.578h6.693Z"/>
        <path class="cls-1" d="m874.221,193.867c0,13.966-10.006,25.196-23.9,25.196h-19.653v-50.391h19.653c13.894,0,23.9,11.23,23.9,25.195Zm-6.407,0c0-10.652-7.126-18.86-17.492-18.86h-12.958v37.721h12.958c10.366,0,17.492-8.206,17.492-18.862Z"/>
        <path class="cls-1" d="m896.969,175.008v16.341h21.381v6.335h-21.381v21.381h-6.695v-50.391h29.01v6.335h-22.315Z"/>
        <path class="cls-1" d="m934.692,202.147v-33.474h6.693v33.187c0,6.981,4.176,11.589,12.239,11.589s12.237-4.607,12.237-11.589v-33.187h6.623v33.474c0,10.942-7.845,17.853-18.86,17.853s-18.932-6.911-18.932-17.853Z"/>
        <path class="cls-1" d="m1027.194,168.673v50.391h-5.399l-25.915-37.649v37.649h-6.695v-50.391h5.4l25.915,37.578v-37.578h6.693Z"/>
        <path class="cls-1" d="m1074.274,219.064l-21.739-24.188v24.188h-6.695v-50.391h6.695v22.748l21.02-22.748h8.206l-22.243,24.476,22.963,25.915h-8.207Z"/>
        <path class="cls-1" d="m1090.687,207.618l5.759-3.312c1.8,5.543,6.119,9.142,13.461,9.142,7.128,0,10.654-3.238,10.654-7.773,0-5.183-4.462-6.911-11.878-9.214-8.063-2.593-15.835-5.112-15.835-14.47,0-9.071,7.414-14.254,15.835-14.254,8.28,0,14.254,4.68,17.061,11.014l-5.614,3.24c-1.8-4.319-5.328-7.775-11.447-7.775-5.399,0-9.142,2.879-9.142,7.487,0,4.678,3.528,6.405,10.583,8.638,8.781,2.879,17.06,5.471,17.06,15.189,0,8.854-7.126,14.47-17.42,14.47-9.575,0-16.413-4.825-19.077-12.382Z"/>
      </g>
    </g>
  </g>
</svg>