<svg id="hrsinf" xmlns="http://www.w3.org/2000/svg" viewBox="0 0 841 220" preserveAspectRatio="xMinYMid meet"><path d="M800.93 162.21h17.26c6.37 0 11.54 5.35 11.54 12s-5.17 12.09-11.54 12.09h-17.26v-24.09Zm29.72 56.59h9.51l-15.23-25.85c7.75-2.77 13.39-10.25 13.39-18.74 0-11.08-9.05-20.03-20.13-20.03h-25.85v64.62h8.59v-24.74h15.23l14.49 24.74Zm-86.96-8.12v-20.49h27.23v-8.03h-27.23v-19.85h29.54v-8.12H735.1v64.62h38.59v-8.12h-30ZM722 154.18h-46.62v8.12h19.02v56.5h8.49v-56.5H722v-8.12ZM643.99 220c13.2 0 22.34-7.2 22.34-18.55 0-12.46-10.62-15.79-21.88-19.48-9.05-2.86-13.57-5.08-13.57-11.08s4.8-9.6 11.72-9.6c7.85 0 12.37 4.43 14.68 9.97l7.2-4.15c-3.6-8.12-11.26-14.12-21.88-14.12s-20.31 6.65-20.31 18.28 9.97 15.23 20.31 18.55c9.51 2.96 15.23 5.17 15.23 11.82 0 5.82-4.52 9.97-13.66 9.97s-14.96-4.62-17.26-11.73l-7.38 4.25c3.42 9.69 12.19 15.88 24.46 15.88m-69.51-9.32V190.2h27.23v-8.03h-27.23v-19.85h29.54v-8.12h-38.13v64.62h38.59v-8.12h-30Zm-39.23-56.5v27.42h-31.39v-27.42h-8.59v64.62h8.59v-29.08h31.39v29.08h8.49v-64.62h-8.49Zm-84.36 65.82c12 0 22.53-6.28 27.88-15.79l-7.48-4.25c-3.69 7.02-11.54 11.63-20.4 11.63-15.14 0-25.29-10.99-25.29-25.11s10.15-25.2 25.29-25.2c8.86 0 16.71 4.62 20.4 11.73l7.48-4.34c-5.45-9.51-15.97-15.69-27.88-15.69-19.76 0-33.79 14.86-33.79 33.51s14.03 33.51 33.79 33.51m-86.22-57.79h17.26c6.37 0 11.54 5.35 11.54 12s-5.17 12.09-11.54 12.09h-17.26v-24.09Zm29.72 56.59h9.51l-15.23-25.85c7.75-2.77 13.38-10.25 13.38-18.74 0-11.08-9.05-20.03-20.12-20.03h-25.85v64.62h8.59v-24.74h15.23l14.49 24.74Zm-87.61-7.2c-14.12 0-24.93-10.99-24.93-25.11s10.8-25.2 24.93-25.2 24.93 10.99 24.93 25.2-10.8 25.11-24.93 25.11m0 8.4c18.74 0 33.51-14.96 33.51-33.51s-14.77-33.51-33.51-33.51-33.42 14.86-33.42 33.51 14.68 33.51 33.42 33.51m221.6-95.27c-14.12 0-24.92-10.99-24.92-25.11s10.8-25.2 24.92-25.2 24.93 10.99 24.93 25.2-10.8 25.11-24.93 25.11m0 8.4c18.74 0 33.51-14.96 33.51-33.51s-14.77-33.51-33.51-33.51-33.42 14.86-33.42 33.51 14.68 33.51 33.42 33.51m-46.37-57.7v-8.12h-37.2v64.62h8.59v-27.42h27.42V96.4H453.4V75.44h28.62Zm-67.94-8.12v48.19l-33.23-48.19h-6.92v64.62h8.59V83.66l33.23 48.28h6.92V67.32h-8.59Zm-70.9 64.62h8.59V67.32h-8.59v64.62Zm-40.34 1.2c13.2 0 22.34-7.2 22.34-18.55 0-12.46-10.62-15.79-21.88-19.48-9.05-2.86-13.57-5.08-13.57-11.08s4.8-9.6 11.72-9.6c7.85 0 12.37 4.43 14.68 9.97l7.2-4.15c-3.6-8.12-11.26-14.12-21.88-14.12s-20.31 6.65-20.31 18.28 9.97 15.23 20.31 18.55c9.51 2.96 15.23 5.17 15.23 11.82 0 5.82-4.52 9.97-13.66 9.97s-14.96-4.62-17.26-11.73l-7.39 4.25c3.42 9.69 12.19 15.88 24.46 15.88m-164.63 85.61H91.62v-87.38c0-11.13-.05-16.16-3.24-19.33-2.75-2.74-8.05-4.13-17.09-4.13-6.8 0-14.75.86-24.64 2.48v108.36H0V2.95L46.66 0v70.71c10.12-1.69 22.58-3.27 33.17-3.27 21.45 0 35.67 6.26 44.94 15.54 12.37 12.37 13.44 26.99 13.44 44.15v91.63Zm67.48.04h-46.66v-88.99c0-15.81.62-30 13.18-42.56 13.87-13.87 35.85-19.21 84.21-19.7v39.59c-35.69.97-43.83 3.44-47.48 7.09-2.57 2.57-3.24 6.08-3.24 13.5v91.08Zm482.57-94.98v-20.49h27.23V95.3h-27.23V75.45h29.54v-8.12h-38.13v64.62h38.59v-8.12h-30Zm-39.33 8.12h8.59V67.32h-8.59v64.62Zm-30.74-64.62v48.19l-33.23-48.19h-6.92v64.62h8.59V83.66l33.23 48.28h6.92V67.32h-8.59Z" style="fill:#8d2725;stroke-width:0"/></svg>