<?xml version="1.0" encoding="utf-8"?>
<!-- Generator: Adobe Illustrator 19.2.0, SVG Export Plug-In . SVG Version: 6.00 Build 0)  -->
<svg version="1.1" id="sinfonie_orchester" xmlns="http://www.w3.org/2000/svg" xmlns:xlink="http://www.w3.org/1999/xlink" x="0px"
	 y="0px" width="127px" height="43px" viewBox="0 0 127 43" style="enable-background:new 0 0 127 43;" xml:space="preserve">
<style type="text/css">
	.st0{fill:#FFFFFF;}
</style>
<g>
	<path class="st0" d="M23.204,42.666C15.47,42.791,5.988,41.418,0,38.799v-2.37c6.362,2.745,15.095,4.117,22.83,3.992
		c8.359-0.125,17.091-1.497,23.08-3.867v2.246C39.173,41.294,31.563,42.541,23.204,42.666L23.204,42.666z"/>
	<path class="st0" d="M3.992,7.485v8.733c0,0,2.745-0.624,5.115-0.499c3.992,0,5.988,2.246,6.113,4.99c0,0.749,0,1.123,0,1.871
		v11.353h-3.992V22.331c0-1.372,0.125-3.244-3.119-3.119c-2.246,0-3.867,0.499-3.867,0.499v14.347H0V7.86L3.992,7.485L3.992,7.485z"
		/>
	<path class="st0" d="M29.816,15.594c0,0-3.743,0.125-5.988,0.624c-2.62,0.624-4.242,2.121-4.491,4.491
		c0,0.499-0.125,0.749-0.125,1.747v11.477h4.242V22.206c0-0.998,0.125-1.622,0.749-2.246c0.749-0.624,2.495-0.749,3.493-0.873
		c0.624,0,1.996-0.125,1.996-0.125v-3.368H29.816z"/>
	<path class="st0" d="M37.551,8.608c0,1.996,1.248,3.119,3.618,3.244l1.871,0.125c1.248,0.125,1.747,0.499,1.747,1.497
		c0,1.622-1.747,1.871-2.869,1.871c-1.497,0-2.62-0.374-3.368-1.248l-0.125-0.125l-1.372,1.372l0.125,0.125
		c1.248,1.123,2.745,1.747,4.865,1.747c2.994,0,4.865-1.372,4.865-3.743c0-1.996-1.123-3.119-3.618-3.244l-1.871-0.125
		c-1.622-0.125-1.871-0.873-1.871-1.497c0-1.123,0.873-1.747,2.37-1.747c1.248,0,2.246,0.25,2.994,0.873l0.125,0.125l1.372-1.372
		l-0.25-0.125c-0.998-0.873-2.495-1.248-4.242-1.248C39.298,4.99,37.551,6.487,37.551,8.608L37.551,8.608z"/>
	<polygon class="st0" points="51.149,0 49.153,0 49.153,2.246 51.399,2.246 51.399,0 	"/>
	<polygon class="st0" points="51.025,5.115 49.153,5.115 49.153,17.091 51.274,17.091 51.274,5.115 	"/>
	<path class="st0" d="M56.763,6.487c0-0.374,0-1.248,0-1.248h-2.121v11.852h2.121V9.731c0-1.871,0.998-2.869,2.62-2.869
		c1.747,0,2.62,0.998,2.62,2.869v7.236h2.121V9.481c0-1.372-0.374-2.495-1.248-3.368C62.128,5.364,61.13,4.99,59.882,4.99
		C58.635,4.99,57.262,5.739,56.763,6.487L56.763,6.487z"/>
	<path class="st0" d="M72.108,0h-1.248c-1.871,0-3.119,1.248-3.119,3.244c0,0,0,1.622,0,1.996c-0.25,0-1.497,0-1.497,0v1.622
		c0,0,1.123,0,1.497,0c0,0.374,0,10.105,0,10.105h2.121c0,0,0-9.731,0-10.105c0.374,0,2.495,0,2.495,0V5.24c0,0-2.121,0-2.495,0
		c0-0.374,0-1.871,0-1.871c0-0.998,0.499-1.497,1.372-1.497h1.123V0H72.108L72.108,0z"/>
	<path class="st0" d="M81.465,6.362c-0.873-0.873-2.121-1.372-3.368-1.372c-1.372,0-2.495,0.499-3.368,1.372
		c-1.248,1.372-1.497,3.119-1.497,4.741s0.125,3.368,1.497,4.741c0.873,0.873,2.121,1.372,3.368,1.372
		c1.372,0,2.495-0.499,3.368-1.372c1.248-1.248,1.497-3.119,1.497-4.741C82.962,9.481,82.712,7.735,81.465,6.362L81.465,6.362z
		 M79.968,14.472c-0.499,0.499-1.248,0.749-1.996,0.749c-0.749,0-1.372-0.25-1.996-0.749c-0.749-0.749-0.873-2.121-0.873-3.368
		c0-1.372,0.125-2.62,0.873-3.368c0.499-0.499,1.123-0.749,1.871-0.749s1.497,0.25,1.996,0.749c0.749,0.749,0.873,2.121,0.873,3.368
		S80.841,13.723,79.968,14.472L79.968,14.472z"/>
	<path class="st0" d="M87.702,6.362c0-0.374,0-1.248,0-1.248h-2.121v11.852h2.121V9.731c0-1.871,0.998-2.869,2.62-2.869
		c1.747,0,2.62,0.998,2.62,2.869v7.236h2.121V9.481c0-1.372-0.374-2.495-1.248-3.368c-0.749-0.749-1.747-1.123-3.119-1.123
		C89.574,4.99,88.326,5.614,87.702,6.362L87.702,6.362z"/>
	<polygon class="st0" points="100.178,5.115 98.306,5.115 98.306,17.091 100.303,17.091 100.303,5.115 	"/>
	<polygon class="st0" points="100.303,0 98.182,0 98.182,2.246 100.427,2.246 100.427,0 	"/>
	<path class="st0" d="M112.903,10.729c0-3.493-1.871-5.739-4.865-5.739c-3.119,0-4.865,2.246-4.865,6.113s1.871,6.113,5.24,6.113
		c2.121,0,3.244-0.749,4.366-1.871l0.125-0.125l-1.497-1.248l-0.125,0.125c-0.873,0.873-1.622,1.248-2.869,1.248
		c-1.996,0-3.119-1.248-3.119-3.618c0.374,0,7.735,0,7.735,0v-0.998H112.903z M105.168,10.105c0-0.749,0.125-1.123,0.374-1.622
		c0.374-0.998,1.372-1.622,2.495-1.622c1.123,0,2.121,0.624,2.495,1.622c0.25,0.499,0.25,0.873,0.374,1.622
		C110.408,10.105,105.542,10.105,105.168,10.105L105.168,10.105z"/>
	<path class="st0" d="M44.787,23.454c-0.873-0.873-2.121-1.372-3.368-1.372c-1.372,0-2.495,0.499-3.368,1.372
		c-1.248,1.248-1.497,3.119-1.497,4.741s0.125,3.368,1.497,4.741c0.873,0.873,2.121,1.372,3.368,1.372
		c1.372,0,2.495-0.499,3.368-1.372c1.248-1.248,1.497-3.119,1.497-4.741C46.284,26.573,46.034,24.826,44.787,23.454L44.787,23.454z
		 M43.29,31.563c-0.499,0.499-1.248,0.749-1.996,0.749c-0.749,0-1.372-0.25-1.996-0.749c-0.749-0.749-0.873-2.121-0.873-3.368
		c0-1.372,0.125-2.62,0.873-3.368c0.499-0.499,1.123-0.749,1.996-0.749c0.749,0,1.497,0.25,1.996,0.749
		c0.749,0.749,0.873,2.121,0.873,3.368C44.163,29.442,44.163,30.814,43.29,31.563L43.29,31.563z"/>
	<path class="st0" d="M55.266,28.194c0,3.743,1.996,6.113,5.24,6.113c1.622,0,2.745-0.499,3.867-1.747l0.125-0.125l-1.372-1.372
		v0.125c-0.873,0.873-1.497,1.248-2.495,1.248c-1.123,0-1.871-0.374-2.495-1.248c-0.499-0.749-0.749-1.497-0.749-2.994
		c0-1.372,0.25-2.246,0.749-2.994c0.624-0.749,1.372-1.248,2.495-1.248c0.998,0,1.622,0.25,2.495,1.248l0.125,0.125l1.372-1.372
		l-0.125-0.125c-1.248-1.248-2.246-1.747-3.867-1.747C57.387,22.082,55.266,24.452,55.266,28.194L55.266,28.194z"/>
	<path class="st0" d="M68.49,18.089h-1.871v16.093h1.996v-7.236c0-1.747,0.998-2.869,2.62-2.869c1.622,0,2.62,0.998,2.62,2.869
		v7.236h2.121v-7.61c0-2.745-1.622-4.491-4.366-4.491c-1.248,0-2.495,0.624-2.994,1.372c0-0.749,0-5.489,0-5.489H68.49V18.089z"/>
	<path class="st0" d="M88.451,27.82c0-3.493-1.871-5.739-4.865-5.739c-3.119,0-4.865,2.246-4.865,6.113s1.871,6.113,5.24,6.113
		c2.121,0,3.244-0.749,4.366-1.871l0.125-0.125l-1.497-1.248l-0.25,0.125c-0.873,0.873-1.622,1.248-2.869,1.248
		c-1.996,0-3.119-1.248-3.119-3.618c0.374,0,7.735,0,7.735,0L88.451,27.82L88.451,27.82z M80.716,27.196
		c0-0.749,0.125-1.123,0.374-1.622c0.374-0.998,1.372-1.622,2.495-1.622c1.123,0,2.121,0.624,2.495,1.622
		c0.25,0.499,0.25,0.873,0.374,1.622C85.956,27.196,81.09,27.196,80.716,27.196L80.716,27.196z"/>
	<path class="st0" d="M90.821,25.699c0,1.996,1.248,3.119,3.618,3.244l1.871,0.125c1.248,0.125,1.747,0.499,1.747,1.497
		c0,1.622-1.747,1.871-2.869,1.871c-1.497,0-2.62-0.374-3.368-1.248l-0.125-0.125l-1.497,1.372l0.125,0.125
		c1.248,1.123,2.745,1.747,4.865,1.747c2.994,0,4.865-1.372,4.865-3.743c0-1.996-1.123-3.119-3.618-3.244l-1.871-0.125
		c-1.622-0.125-1.871-0.873-1.871-1.497c0-1.123,0.873-1.747,2.37-1.747c1.248,0,2.246,0.25,2.869,0.873l0.125,0.125l1.372-1.372
		l-0.125-0.125c-0.998-0.873-2.495-1.248-4.242-1.248C92.568,22.082,90.821,23.579,90.821,25.699L90.821,25.699z"/>
	<path class="st0" d="M104.419,19.711h-1.871c0,0,0,2.37,0,2.62c-0.25,0-1.497,0-1.497,0v1.622c0,0,1.123,0,1.497,0
		c0,0.374,0,6.861,0,6.861c0,1.996,1.248,3.244,3.119,3.244h1.372v-1.871h-0.998c-0.873,0-1.372-0.499-1.372-1.497
		c0,0,0-6.362,0-6.737c0.374,0,2.495,0,2.495,0v-1.622c0,0-2.121,0-2.495,0c0-0.374,0-2.62,0-2.62H104.419L104.419,19.711z"/>
	<path class="st0" d="M118.517,27.82c0-3.493-1.871-5.739-4.865-5.739c-3.119,0-4.865,2.246-4.865,6.113s1.871,6.113,5.24,6.113
		c2.121,0,3.244-0.749,4.366-1.871l0.125-0.125l-1.497-1.248l-0.125,0.125c-0.873,0.873-1.622,1.248-2.869,1.248
		c-1.996,0-3.119-1.248-3.119-3.618c0.374,0,7.735,0,7.735,0V27.82H118.517z M110.782,27.196c0-0.749,0.125-1.123,0.374-1.622
		c0.374-0.998,1.372-1.622,2.495-1.622c1.123,0,2.121,0.624,2.495,1.622c0.25,0.499,0.25,0.873,0.374,1.622
		C116.146,27.196,111.156,27.196,110.782,27.196L110.782,27.196z"/>
	<path class="st0" d="M51.025,23.579c0-0.374,0-1.372,0-1.372h-2.121v11.852h2.121v-7.236c0-1.747,0.998-2.869,2.495-2.869
		c0.25,0,0.499,0,0.749,0.125l0.374,0.125v-1.996h-0.374h-0.25C52.896,22.082,51.773,22.83,51.025,23.579L51.025,23.579z"/>
	<path class="st0" d="M123.382,23.579c0-0.374,0-1.372,0-1.372h-2.121v11.852h2.121v-7.236c0-1.747,0.998-2.869,2.495-2.869
		c0.374,0,0.624,0,0.873,0.125l0.25,0.125v-2.121h-0.25h-0.499C125.129,22.082,123.881,22.83,123.382,23.579L123.382,23.579z"/>
</g>
</svg>
