<?xml version="1.0" encoding="utf-8"?>
<!-- Generator: Adobe Illustrator 19.2.0, SVG Export Plug-In . SVG Version: 6.00 Build 0)  -->
<svg version="1.1" id="Ebene_1" xmlns="http://www.w3.org/2000/svg" xmlns:xlink="http://www.w3.org/1999/xlink" x="0px" y="0px"
	 width="120px" height="58px" viewBox="0 0 120 58" enable-background="new 0 0 120 58" xml:space="preserve">
<g>
	<path fill="#FFFFFF" d="M21.932,40.535C14.61,40.666,5.736,39.32,0,36.829v-2.244c6.028,2.573,14.227,3.937,21.55,3.808
		c7.899-0.137,16.125-1.474,21.819-3.724v2.177C36.998,39.126,29.785,40.402,21.932,40.535"/>
	<path fill="#FFFFFF" d="M3.812,7.05l-0.001,8.306c0,0,2.594-0.543,4.874-0.52c3.79,0.038,5.687,2.089,5.822,4.764
		c0.034,0.68,0.026,1.055,0.026,1.786v10.817h-3.996V21.157c0-1.353,0.085-3.031-2.934-3.017c-2.151,0.01-3.669,0.425-3.669,0.425
		v13.638h-3.9V7.3L3.812,7.05z"/>
	<path fill="#FFFFFF" d="M28.074,14.817c-0.049-0.009-3.569,0.081-5.649,0.561c-2.424,0.557-3.978,2.031-4.196,4.284
		c-0.043,0.433-0.062,0.709-0.062,1.698v10.844h3.994V21.117c0-0.974,0.075-1.591,0.706-2.161c0.716-0.645,2.35-0.739,3.284-0.817
		c0.64-0.052,1.923-0.112,1.923-0.112V14.817z"/>
	<path fill="#FFFFFF" d="M35.379,8.147c0,1.873,1.145,2.918,3.402,3.106l1.78,0.155c1.129,0.1,1.632,0.533,1.632,1.405
		c0,1.51-1.688,1.736-2.694,1.736c-1.406,0-2.462-0.393-3.227-1.201l-0.132-0.139l-1.324,1.33l0.137,0.133
		c1.158,1.123,2.568,1.623,4.569,1.623c2.827,0,4.582-1.343,4.582-3.506c0-1.919-1.066-2.912-3.355-3.127
		c-0.001,0-1.738-0.155-1.738-0.155c-1.525-0.123-1.72-0.815-1.72-1.405c0-1.034,0.793-1.604,2.232-1.604
		c1.132,0,2.062,0.278,2.765,0.825l0.13,0.1l1.294-1.302l-0.159-0.131c-0.964-0.795-2.35-1.215-4.007-1.215
		C37.053,4.776,35.379,6.131,35.379,8.147"/>
	<polygon fill="#FFFFFF" points="48.269,0.022 46.303,0.022 46.303,2.189 48.455,2.189 48.455,0.022 	"/>
	<polygon fill="#FFFFFF" points="48.16,4.909 46.39,4.909 46.39,16.163 48.346,16.163 48.346,4.909 	"/>
	<path fill="#FFFFFF" d="M53.574,6.108V4.909h-1.955v11.254h1.955V9.276c0-1.722,0.909-2.71,2.495-2.71
		c1.595,0,2.474,0.962,2.474,2.71v6.887h1.955V9.011c0-1.336-0.396-2.401-1.178-3.164c-0.695-0.7-1.698-1.071-2.899-1.071
		C55.298,4.776,54.024,5.388,53.574,6.108"/>
	<path fill="#FFFFFF" d="M67.96,0h-1.142c-1.782,0-2.934,1.22-2.934,3.106v1.869h-1.383v1.591h1.383v9.598h1.955V6.566h2.308V4.975
		h-2.308V3.151c0-0.945,0.414-1.405,1.265-1.405h1.043V0H67.96z"/>
	<path fill="#FFFFFF" d="M75.453,13.765c-0.474,0.478-1.13,0.74-1.846,0.74c-0.71,0-1.341-0.256-1.825-0.74
		c-0.725-0.731-0.825-1.984-0.825-3.23c0-1.245,0.1-2.498,0.826-3.227c0.482-0.485,1.112-0.742,1.824-0.742
		c0.716,0,1.372,0.263,1.846,0.742c0.743,0.744,0.804,2.056,0.804,3.227S76.196,13.019,75.453,13.765 M76.839,6.07
		c-0.84-0.848-1.957-1.295-3.232-1.295c-1.274,0-2.391,0.447-3.23,1.294c-1.211,1.243-1.374,2.956-1.374,4.466
		c0,1.512,0.163,3.225,1.373,4.467c0.841,0.848,1.958,1.295,3.231,1.295c1.273,0,2.391-0.447,3.231-1.294
		c1.212-1.241,1.374-2.955,1.374-4.468C78.213,9.024,78.05,7.311,76.839,6.07"/>
	<path fill="#FFFFFF" d="M82.742,6.087V4.909h-1.956v11.254h1.956V9.276c0-1.722,0.909-2.709,2.495-2.709
		c1.594,0,2.472,0.962,2.472,2.709v6.887h1.955V9.011c0-1.357-0.385-2.393-1.178-3.164c-0.696-0.699-1.699-1.071-2.9-1.071
		C84.464,4.776,83.296,5.367,82.742,6.087"/>
	<polygon fill="#FFFFFF" points="94.467,4.909 92.698,4.909 92.698,16.163 94.653,16.163 94.653,4.909 	"/>
	<polygon fill="#FFFFFF" points="94.578,0.022 92.61,0.022 92.61,2.189 94.764,2.189 94.764,0.022 	"/>
	<path fill="#FFFFFF" d="M99.194,9.576c0.041-0.725,0.094-1.04,0.303-1.556c0.395-0.937,1.297-1.52,2.355-1.52
		c1.061,0,1.963,0.583,2.356,1.521c0.208,0.514,0.263,0.842,0.304,1.554H99.194z M106.479,10.227c0-3.362-1.773-5.45-4.627-5.45
		c-2.896,0-4.626,2.153-4.626,5.76c0,3.715,1.744,5.76,4.912,5.76c1.969,0,3.025-0.664,4.09-1.735l0.141-0.142l-1.359-1.198
		l-0.123,0.123c-0.88,0.884-1.562,1.182-2.704,1.182c-1.88,0-2.929-1.204-2.99-3.383h7.286V10.227z"/>
	<path fill="#FFFFFF" d="M40.879,29.991c-0.477,0.478-1.132,0.741-1.847,0.741c-0.712,0-1.343-0.256-1.825-0.741
		c-0.725-0.729-0.825-1.983-0.825-3.229c0-1.245,0.1-2.499,0.825-3.227c0.481-0.485,1.112-0.741,1.825-0.741
		c0.715,0,1.372,0.263,1.847,0.741c0.74,0.744,0.802,2.056,0.802,3.227C41.681,27.934,41.619,29.246,40.879,29.991 M42.265,22.297
		c-0.844-0.848-1.961-1.296-3.233-1.296c-1.272,0-2.388,0.448-3.231,1.295c-1.211,1.241-1.374,2.954-1.374,4.466
		c0,1.512,0.163,3.224,1.372,4.465c0.842,0.848,1.959,1.295,3.233,1.295c1.273,0,2.391-0.447,3.231-1.293
		c1.21-1.242,1.373-2.955,1.373-4.467C43.637,25.249,43.473,23.536,42.265,22.297"/>
	<path fill="#FFFFFF" d="M52.168,26.762c0,3.553,1.908,5.76,4.977,5.76c1.573,0,2.575-0.454,3.697-1.674l0.124-0.135l-1.347-1.301
		l-0.129,0.144c-0.789,0.879-1.381,1.176-2.346,1.176c-1.009,0-1.822-0.4-2.352-1.159c-0.482-0.673-0.669-1.462-0.669-2.811
		c0-1.349,0.187-2.137,0.668-2.81c0.53-0.759,1.343-1.159,2.353-1.159c0.98,0,1.571,0.291,2.346,1.153l0.127,0.141l1.35-1.274
		l-0.125-0.137c-1.124-1.221-2.126-1.675-3.697-1.675C54.076,21.002,52.168,23.209,52.168,26.762"/>
	<path fill="#FFFFFF" d="M64.57,17.151h-1.769v15.238h1.955v-6.909c0-1.708,0.918-2.687,2.517-2.687c1.58,0,2.45,0.954,2.45,2.687
		v6.909h1.957v-7.175c0-2.599-1.563-4.213-4.078-4.213c-1.138,0-2.387,0.588-2.847,1.338v-5.188H64.57z"/>
	<path fill="#FFFFFF" d="M76.088,25.8c0.04-0.71,0.095-1.037,0.304-1.554c0.395-0.937,1.297-1.52,2.355-1.52
		c1.058,0,1.961,0.583,2.355,1.522c0.208,0.515,0.263,0.843,0.303,1.553H76.088z M83.373,26.453c0-3.363-1.773-5.451-4.626-5.451
		c-2.897,0-4.626,2.153-4.626,5.76c0,3.714,1.743,5.76,4.911,5.76c1.969,0,3.024-0.664,4.09-1.735l0.141-0.141l-1.359-1.198
		l-0.123,0.123c-0.881,0.885-1.563,1.184-2.704,1.184c-1.88,0-2.93-1.206-2.99-3.386h7.286V26.453z"/>
	<path fill="#FFFFFF" d="M85.678,24.373c0,1.872,1.145,2.917,3.404,3.107l1.781,0.155c1.129,0.098,1.631,0.532,1.631,1.405
		c0,1.511-1.688,1.737-2.694,1.737c-1.405,0-2.461-0.393-3.228-1.202l-0.132-0.139l-1.325,1.331l0.137,0.133
		c1.157,1.122,2.567,1.622,4.571,1.622c2.826,0,4.581-1.343,4.581-3.505c0-1.919-1.066-2.912-3.356-3.127
		c-0.001,0-1.737-0.155-1.737-0.155c-1.525-0.124-1.72-0.816-1.72-1.405c0-1.035,0.793-1.604,2.233-1.604
		c1.13,0,2.06,0.277,2.764,0.825l0.13,0.1l1.296-1.303l-0.16-0.131c-0.966-0.795-2.353-1.215-4.011-1.215
		C87.352,21.001,85.678,22.357,85.678,24.373"/>
	<path fill="#FFFFFF" d="M98.502,18.677h-1.767v2.524h-1.363v1.592h1.363v6.49c0,1.887,1.161,3.106,2.956,3.106h1.307v-1.746h-1.023
		c-0.866,0-1.288-0.459-1.288-1.405v-6.446h2.311v-1.592h-2.311v-2.524H98.502z"/>
	<path fill="#FFFFFF" d="M104.526,25.8c0.04-0.71,0.094-1.037,0.302-1.555c0.394-0.936,1.297-1.52,2.356-1.52
		c1.059,0,1.962,0.583,2.356,1.522c0.208,0.515,0.261,0.83,0.301,1.553H104.526z M111.812,26.453c0-3.363-1.773-5.451-4.627-5.451
		c-2.898,0-4.628,2.153-4.628,5.76c0,3.714,1.745,5.76,4.913,5.76c1.968,0,3.023-0.664,4.088-1.735l0.141-0.141l-1.357-1.198
		l-0.124,0.123c-0.881,0.885-1.564,1.184-2.705,1.184c-1.879,0-2.929-1.206-2.988-3.386h7.286V26.453z"/>
	<path fill="#FFFFFF" d="M48.164,22.402v-1.267h-1.955V32.39h1.955v-6.866c0-1.607,0.99-2.731,2.407-2.731
		c0.246,0,0.467,0.027,0.694,0.086l0.301,0.083V21.06l-0.326-0.049l-0.229-0.009C49.87,21.001,48.838,21.687,48.164,22.402"/>
	<path fill="#FFFFFF" d="M116.318,22.396v-1.261h-1.956v11.254h1.956v-6.866c0-1.607,0.99-2.73,2.406-2.73
		c0.345,0,0.621,0.043,0.872,0.135l0.251,0.092v-1.968l-0.247-0.024l-0.437-0.027C118.019,21.001,116.809,21.608,116.318,22.396"/>
	<path fill="#FFFFFF" d="M120,50.787h-1.225l-0.707,2.825l-0.697-2.825h-1.234l1.374,4.338v2.795h1.115v-2.795L120,50.787z
		 M114.742,57.92v-7.133h-1.115v4.238l-1.663-4.238h-0.996v7.133h1.115v-4.238l1.673,4.238H114.742z M108.051,54.354
		c0,1.302-0.03,2.024-0.239,2.364c-0.1,0.161-0.269,0.271-0.538,0.271c-0.269,0-0.428-0.11-0.528-0.271
		c-0.209-0.34-0.249-1.061-0.249-2.364s0.04-2.024,0.249-2.365c0.1-0.16,0.259-0.27,0.528-0.27c0.268,0,0.438,0.11,0.538,0.27
		C108.021,52.33,108.051,53.051,108.051,54.354 M109.166,54.354c0-1.403,0.01-2.445-0.517-3.045
		c-0.299-0.341-0.698-0.601-1.374-0.601c-0.677,0-1.075,0.261-1.374,0.601c-0.528,0.601-0.518,1.642-0.518,3.045
		c0,1.402-0.01,2.445,0.518,3.045c0.299,0.341,0.697,0.601,1.374,0.601c0.677,0,1.075-0.261,1.374-0.601
		C109.176,56.798,109.166,55.756,109.166,54.354 M103.581,57.92v-7.133h-1.116v3.005h-1.383v-3.005h-1.115v7.133h1.115v-3.126h1.383
		v3.126H103.581z M97.088,52.961c0,0.631-0.09,1.162-0.688,1.162h-0.687v-2.324h0.687C96.999,51.799,97.088,52.33,97.088,52.961
		 M98.203,52.951c0-1.492-0.538-2.164-1.822-2.164h-1.782v7.133h1.115v-2.785h0.667C97.725,55.135,98.203,54.394,98.203,52.951
		 M92.608,57.92v-7.133h-1.016l-1.364,3.747l-1.374-3.747h-1.006v7.133h1.115v-4.398l0.946,2.875h0.618l0.965-2.925v4.448H92.608z
		 M86.444,50.787h-1.225l-0.707,2.825l-0.697-2.825h-1.234l1.374,4.338v2.795h1.115v-2.795L86.444,50.787z M81.406,55.946
		c0-1.202-0.229-1.653-1.075-2.003l-0.837-0.341c-0.498-0.2-0.588-0.381-0.588-0.962c0-0.311,0.06-0.551,0.19-0.701
		c0.109-0.121,0.249-0.201,0.477-0.201c0.239,0,0.398,0.08,0.498,0.21c0.149,0.191,0.169,0.441,0.169,0.761h1.115
		c0-0.681-0.13-1.192-0.498-1.553c-0.289-0.28-0.707-0.43-1.274-0.43c-0.508,0-0.906,0.16-1.215,0.43
		c-0.389,0.351-0.577,0.871-0.577,1.513c0,1.102,0.268,1.493,0.986,1.793l0.847,0.351c0.548,0.221,0.667,0.411,0.667,1.172
		c0,0.381-0.04,0.621-0.19,0.791c-0.109,0.13-0.279,0.2-0.538,0.2c-0.249,0-0.418-0.08-0.517-0.19c-0.159-0.181-0.2-0.421-0.2-0.802
		h-1.115c0,0.751,0.119,1.192,0.458,1.532c0.299,0.301,0.757,0.471,1.374,0.471c0.627,0,1.096-0.19,1.384-0.471
		C81.306,57.169,81.406,56.677,81.406,55.946 M72.285,54.354c0,1.302-0.03,2.024-0.239,2.364c-0.099,0.161-0.268,0.271-0.538,0.271
		c-0.268,0-0.428-0.11-0.527-0.271c-0.209-0.34-0.249-1.061-0.249-2.364s0.04-2.024,0.249-2.365c0.099-0.16,0.259-0.27,0.527-0.27
		c0.269,0,0.439,0.11,0.538,0.27C72.255,52.33,72.285,53.051,72.285,54.354 M73.401,54.354c0-1.403,0.009-2.445-0.518-3.045
		c-0.299-0.341-0.697-0.601-1.374-0.601c-0.677,0-1.075,0.261-1.374,0.601c-0.527,0.601-0.517,1.642-0.517,3.045
		c0,1.402-0.01,2.445,0.517,3.045C70.433,57.739,70.831,58,71.508,58c0.677,0,1.075-0.261,1.374-0.601
		C73.41,56.798,73.401,55.756,73.401,54.354 M67.814,50.787h-1.115v7.133h1.115V50.787z M63.782,54.343
		c0,1.242-0.03,1.944-0.239,2.274c-0.11,0.17-0.299,0.29-0.568,0.29h-0.657v-5.109h0.657c0.269,0,0.458,0.12,0.568,0.29
		C63.752,52.42,63.782,53.102,63.782,54.343 M64.897,54.354c0-1.372,0.01-2.384-0.517-2.975c-0.289-0.33-0.698-0.591-1.374-0.591
		h-1.803v7.133h1.803c0.676,0,1.085-0.261,1.374-0.591C64.907,56.738,64.897,55.726,64.897,54.354 M58.086,55.496h-1.215
		l0.608-2.985L58.086,55.496z M59.749,57.92l-1.722-7.133h-1.085l-1.743,7.133h1.175l0.279-1.412h1.643l0.289,1.412H59.749z
		 M52.679,52.891c0,0.591-0.09,1.092-0.687,1.092h-0.688v-2.184h0.688C52.589,51.799,52.679,52.3,52.679,52.891 M54.024,57.92
		l-1.056-3.166c0.648-0.35,0.826-0.981,0.826-1.863c0-1.473-0.517-2.104-1.812-2.104H50.19v7.133h1.115v-2.925h0.627l0.926,2.925
		H54.024z M45.809,51.799v-1.012h-3.494v1.012h1.184v6.121h1.115v-6.121H45.809z M39.636,52.891c0,0.591-0.09,1.092-0.688,1.092
		h-0.687v-2.184h0.687C39.546,51.799,39.636,52.3,39.636,52.891 M40.98,57.92l-1.056-3.166c0.647-0.35,0.826-0.981,0.826-1.863
		c0-1.473-0.517-2.104-1.812-2.104h-1.792v7.133h1.115v-2.925h0.627l0.926,2.925H40.98z M35.214,56.167v-5.38h-1.115v5.439
		c0,0.511-0.309,0.761-0.687,0.761c-0.378,0-0.698-0.25-0.698-0.761v-5.439H31.6v5.38c0,0.541,0.179,0.991,0.488,1.312
		C32.426,57.83,32.884,58,33.413,58c0.527,0,0.975-0.17,1.314-0.521C35.036,57.158,35.214,56.708,35.214,56.167 M29.957,51.799
		v-1.012H26.98v7.133h1.115v-3.086h1.604v-1.011h-1.604v-2.024H29.957z M25.516,57.92l-1.643-4.177l1.424-2.956h-1.125l-1.543,3.356
		v-3.356h-1.115v7.133h1.115v-1.833l0.538-1.102l1.145,2.935H25.516z M19.522,57.92v-7.133h-1.116v4.238l-1.663-4.238h-0.996v7.133
		h1.115v-4.238l1.673,4.238H19.522z M12.631,55.496h-1.215l0.608-2.985L12.631,55.496z M14.294,57.92l-1.722-7.133h-1.085
		L9.744,57.92h1.174l0.279-1.412h1.643l0.289,1.412H14.294z M7.224,52.891c0,0.591-0.09,1.092-0.687,1.092H5.85v-2.184h0.688
		C7.135,51.799,7.224,52.3,7.224,52.891 M8.569,57.92l-1.056-3.166c0.648-0.35,0.826-0.981,0.826-1.863
		c0-1.473-0.517-2.104-1.812-2.104H4.735v7.133H5.85v-2.925h0.627l0.926,2.925H8.569z M3.033,51.799v-1.012H0.056v7.133h1.115
		v-3.086h1.603v-1.011H1.171v-2.024H3.033z"/>
</g>
</svg>
