<svg version="1.1" id="sinfonie_orchester" xmlns="http://www.w3.org/2000/svg" x="0" y="0" width="127" height="43" viewBox="0 0 127 43" style="enable-background:new 0 0 127 43" xml:space="preserve" preserveAspectRatio="xMinYMid meet"><style>.st0{fill:#fff}</style><g><path class="st0" d="M23.204 42.666C15.47 42.791 5.988 41.418 0 38.799v-2.37c6.362 2.745 15.095 4.117 22.83 3.992 8.359-.125 17.091-1.497 23.08-3.867V38.8c-6.737 2.494-14.347 3.741-22.706 3.866zM3.992 7.485v8.733s2.745-.624 5.115-.499c3.992 0 5.988 2.246 6.113 4.99 0 .749 0 1.123 0 1.871v11.353h-3.992V22.331c0-1.372.125-3.244-3.119-3.119-2.246 0-3.867.499-3.867.499v14.347H0V7.86l3.992-.375zM29.816 15.594s-3.743.125-5.988.624c-2.62.624-4.242 2.121-4.491 4.491 0 .499-.125.749-.125 1.747v11.477h4.242V22.206c0-.998.125-1.622.749-2.246.749-.624 2.495-.749 3.493-.873.624 0 1.996-.125 1.996-.125v-3.368h.124zM37.551 8.608c0 1.996 1.248 3.119 3.618 3.244l1.871.125c1.248.125 1.747.499 1.747 1.497 0 1.622-1.747 1.871-2.869 1.871-1.497 0-2.62-.374-3.368-1.248l-.125-.125-1.372 1.372.125.125c1.248 1.123 2.745 1.747 4.865 1.747 2.994 0 4.865-1.372 4.865-3.743 0-1.996-1.123-3.119-3.618-3.244l-1.871-.125c-1.622-.125-1.871-.873-1.871-1.497 0-1.123.873-1.747 2.37-1.747 1.248 0 2.246.25 2.994.873l.125.125 1.372-1.372-.25-.125c-.998-.873-2.495-1.248-4.242-1.248-2.619-.123-4.366 1.374-4.366 3.495zM51.149 0h-1.996v2.246h2.246V0zM51.025 5.115h-1.872v11.976h2.121V5.115zM56.763 6.487c0-.374 0-1.248 0-1.248h-2.121v11.852h2.121v-7.36c0-1.871.998-2.869 2.62-2.869 1.747 0 2.62.998 2.62 2.869v7.236h2.121V9.481c0-1.372-.374-2.495-1.248-3.368-.748-.749-1.746-1.123-2.994-1.123-1.247 0-2.62.749-3.119 1.497zM72.108 0H70.86c-1.871 0-3.119 1.248-3.119 3.244 0 0 0 1.622 0 1.996-.25 0-1.497 0-1.497 0v1.622s1.123 0 1.497 0c0 .374 0 10.105 0 10.105h2.121s0-9.731 0-10.105c.374 0 2.495 0 2.495 0V5.24s-2.121 0-2.495 0c0-.374 0-1.871 0-1.871 0-.998.499-1.497 1.372-1.497h1.123V0h-.249zM81.465 6.362c-.873-.873-2.121-1.372-3.368-1.372-1.372 0-2.495.499-3.368 1.372-1.248 1.372-1.497 3.119-1.497 4.741s.125 3.368 1.497 4.741c.873.873 2.121 1.372 3.368 1.372 1.372 0 2.495-.499 3.368-1.372 1.248-1.248 1.497-3.119 1.497-4.741 0-1.622-.25-3.368-1.497-4.741zm-1.497 8.11c-.499.499-1.248.749-1.996.749-.749 0-1.372-.25-1.996-.749-.749-.749-.873-2.121-.873-3.368 0-1.372.125-2.62.873-3.368.499-.499 1.123-.749 1.871-.749s1.497.25 1.996.749c.749.749.873 2.121.873 3.368s.125 2.619-.748 3.368zM87.702 6.362c0-.374 0-1.248 0-1.248h-2.121v11.852h2.121V9.731c0-1.871.998-2.869 2.62-2.869 1.747 0 2.62.998 2.62 2.869v7.236h2.121V9.481c0-1.372-.374-2.495-1.248-3.368-.749-.749-1.747-1.123-3.119-1.123-1.122 0-2.37.624-2.994 1.372zM100.178 5.115h-1.872v11.976h1.997V5.115zM100.303 0h-2.121v2.246h2.245V0zM112.903 10.729c0-3.493-1.871-5.739-4.865-5.739-3.119 0-4.865 2.246-4.865 6.113s1.871 6.113 5.24 6.113c2.121 0 3.244-.749 4.366-1.871l.125-.125-1.497-1.248-.125.125c-.873.873-1.622 1.248-2.869 1.248-1.996 0-3.119-1.248-3.119-3.618.374 0 7.735 0 7.735 0v-.998h-.126zm-7.735-.624c0-.749.125-1.123.374-1.622.374-.998 1.372-1.622 2.495-1.622s2.121.624 2.495 1.622c.25.499.25.873.374 1.622-.498 0-5.364 0-5.738 0zM44.787 23.454c-.873-.873-2.121-1.372-3.368-1.372-1.372 0-2.495.499-3.368 1.372-1.248 1.248-1.497 3.119-1.497 4.741s.125 3.368 1.497 4.741c.873.873 2.121 1.372 3.368 1.372 1.372 0 2.495-.499 3.368-1.372 1.248-1.248 1.497-3.119 1.497-4.741 0-1.622-.25-3.369-1.497-4.741zm-1.497 8.109c-.499.499-1.248.749-1.996.749-.749 0-1.372-.25-1.996-.749-.749-.749-.873-2.121-.873-3.368 0-1.372.125-2.62.873-3.368.499-.499 1.123-.749 1.996-.749.749 0 1.497.25 1.996.749.749.749.873 2.121.873 3.368 0 1.247 0 2.619-.873 3.368zM55.266 28.194c0 3.743 1.996 6.113 5.24 6.113 1.622 0 2.745-.499 3.867-1.747l.125-.125-1.372-1.372v.125c-.873.873-1.497 1.248-2.495 1.248-1.123 0-1.871-.374-2.495-1.248-.499-.749-.749-1.497-.749-2.994 0-1.372.25-2.246.749-2.994.624-.749 1.372-1.248 2.495-1.248.998 0 1.622.25 2.495 1.248l.125.125 1.372-1.372-.125-.125c-1.248-1.248-2.246-1.747-3.867-1.747-3.244.001-5.365 2.371-5.365 6.113zM68.49 18.089h-1.871v16.093h1.996v-7.236c0-1.747.998-2.869 2.62-2.869s2.62.998 2.62 2.869v7.236h2.121v-7.61c0-2.745-1.622-4.491-4.366-4.491-1.248 0-2.495.624-2.994 1.372 0-.749 0-5.489 0-5.489h-.126v.125zM88.451 27.82c0-3.493-1.871-5.739-4.865-5.739-3.119 0-4.865 2.246-4.865 6.113s1.871 6.113 5.24 6.113c2.121 0 3.244-.749 4.366-1.871l.125-.125-1.497-1.248-.25.125c-.873.873-1.622 1.248-2.869 1.248-1.996 0-3.119-1.248-3.119-3.618.374 0 7.735 0 7.735 0l-.001-.998zm-7.735-.624c0-.749.125-1.123.374-1.622.374-.998 1.372-1.622 2.495-1.622s2.121.624 2.495 1.622c.25.499.25.873.374 1.622-.498 0-5.364 0-5.738 0zM90.821 25.699c0 1.996 1.248 3.119 3.618 3.244l1.871.125c1.248.125 1.747.499 1.747 1.497 0 1.622-1.747 1.871-2.869 1.871-1.497 0-2.62-.374-3.368-1.248l-.125-.125-1.497 1.372.125.125c1.248 1.123 2.745 1.747 4.865 1.747 2.994 0 4.865-1.372 4.865-3.743 0-1.996-1.123-3.119-3.618-3.244l-1.871-.125c-1.622-.125-1.871-.873-1.871-1.497 0-1.123.873-1.747 2.37-1.747 1.248 0 2.246.25 2.869.873l.125.125 1.372-1.372-.125-.125c-.998-.873-2.495-1.248-4.242-1.248-2.494-.122-4.241 1.375-4.241 3.495zM104.419 19.711h-1.871s0 2.37 0 2.62c-.25 0-1.497 0-1.497 0v1.622s1.123 0 1.497 0c0 .374 0 6.861 0 6.861 0 1.996 1.248 3.244 3.119 3.244h1.372v-1.871h-.998c-.873 0-1.372-.499-1.372-1.497 0 0 0-6.362 0-6.737.374 0 2.495 0 2.495 0v-1.622s-2.121 0-2.495 0c0-.374 0-2.62 0-2.62h-.25zM118.517 27.82c0-3.493-1.871-5.739-4.865-5.739-3.119 0-4.865 2.246-4.865 6.113s1.871 6.113 5.24 6.113c2.121 0 3.244-.749 4.366-1.871l.125-.125-1.497-1.248-.125.125c-.873.873-1.622 1.248-2.869 1.248-1.996 0-3.119-1.248-3.119-3.618.374 0 7.735 0 7.735 0v-.998h-.126zm-7.735-.624c0-.749.125-1.123.374-1.622.374-.998 1.372-1.622 2.495-1.622s2.121.624 2.495 1.622c.25.499.25.873.374 1.622-.374 0-5.364 0-5.738 0zM51.025 23.579c0-.374 0-1.372 0-1.372h-2.121v11.852h2.121v-7.236c0-1.747.998-2.869 2.495-2.869.25 0 .499 0 .749.125l.374.125v-1.996h-.624c-1.123-.126-2.246.622-2.994 1.371zM123.382 23.579c0-.374 0-1.372 0-1.372h-2.121v11.852h2.121v-7.236c0-1.747.998-2.869 2.495-2.869.374 0 .624 0 .873.125l.25.125v-2.121h-.749c-1.122-.001-2.37.747-2.869 1.496z"/></g></svg>