<svg xmlns="http://www.w3.org/2000/svg" xmlns:xlink="http://www.w3.org/1999/xlink"><symbol id="brandlogo--desk" viewBox="new 0 0 120 58"><g><path d="M21.932 40.535C14.61 40.666 5.736 39.32 0 36.829v-2.244c6.028 2.573 14.227 3.937 21.55 3.808 7.899-.137 16.125-1.474 21.819-3.724v2.177c-6.371 2.28-13.584 3.556-21.437 3.689M3.812 7.05l-.001 8.306s2.594-.543 4.874-.52c3.79.038 5.687 2.089 5.822 4.764.034.68.026 1.055.026 1.786v10.817h-3.996V21.157c0-1.353.085-3.031-2.934-3.017-2.151.01-3.669.425-3.669.425v13.638h-3.9V7.3l3.778-.25zM28.074 14.817c-.049-.009-3.569.081-5.649.561-2.424.557-3.978 2.031-4.196 4.284-.043.433-.062.709-.062 1.698v10.844h3.994V21.117c0-.974.075-1.591.706-2.161.716-.645 2.35-.739 3.284-.817.64-.052 1.923-.112 1.923-.112v-3.21zM35.379 8.147c0 1.873 1.145 2.918 3.402 3.106l1.78.155c1.129.1 1.632.533 1.632 1.405 0 1.51-1.688 1.736-2.694 1.736-1.406 0-2.462-.393-3.227-1.201l-.132-.139-1.324 1.33.137.133c1.158 1.123 2.568 1.623 4.569 1.623 2.827 0 4.582-1.343 4.582-3.506 0-1.919-1.066-2.912-3.355-3.127l-1.738-.155c-1.525-.123-1.72-.815-1.72-1.405 0-1.034.793-1.604 2.232-1.604 1.132 0 2.062.278 2.765.825l.13.1 1.294-1.302-.159-.131c-.964-.795-2.35-1.215-4.007-1.215-2.493.001-4.167 1.356-4.167 3.372M48.269.022h-1.966v2.167h2.152V.022zM48.16 4.909h-1.77v11.254h1.956V4.909zM53.574 6.108V4.909h-1.955v11.254h1.955V9.276c0-1.722.909-2.71 2.495-2.71 1.595 0 2.474.962 2.474 2.71v6.887h1.955V9.011c0-1.336-.396-2.401-1.178-3.164-.695-.7-1.698-1.071-2.899-1.071-1.123 0-2.397.612-2.847 1.332M67.96 0h-1.142c-1.782 0-2.934 1.22-2.934 3.106v1.869h-1.383v1.591h1.383v9.598h1.955V6.566h2.308V4.975h-2.308V3.151c0-.945.414-1.405 1.265-1.405h1.043V0h-.187zM75.453 13.765c-.474.478-1.13.74-1.846.74-.71 0-1.341-.256-1.825-.74-.725-.731-.825-1.984-.825-3.23 0-1.245.1-2.498.826-3.227a2.512 2.512 0 0 1 1.824-.742c.716 0 1.372.263 1.846.742.743.744.804 2.056.804 3.227s-.061 2.484-.804 3.23m1.386-7.695c-.84-.848-1.957-1.295-3.232-1.295-1.274 0-2.391.447-3.23 1.294-1.211 1.243-1.374 2.956-1.374 4.466 0 1.512.163 3.225 1.373 4.467.841.848 1.958 1.295 3.231 1.295s2.391-.447 3.231-1.294c1.212-1.241 1.374-2.955 1.374-4.468.001-1.511-.162-3.224-1.373-4.465M82.742 6.087V4.909h-1.956v11.254h1.956V9.276c0-1.722.909-2.709 2.495-2.709 1.594 0 2.472.962 2.472 2.709v6.887h1.955V9.011c0-1.357-.385-2.393-1.178-3.164-.696-.699-1.699-1.071-2.9-1.071-1.122 0-2.29.591-2.844 1.311M94.467 4.909h-1.769v11.254h1.955V4.909zM94.578.022H92.61v2.167h2.154V.022zM99.194 9.576c.041-.725.094-1.04.303-1.556.395-.937 1.297-1.52 2.355-1.52 1.061 0 1.963.583 2.356 1.521.208.514.263.842.304 1.554h-5.318zm7.285.651c0-3.362-1.773-5.45-4.627-5.45-2.896 0-4.626 2.153-4.626 5.76 0 3.715 1.744 5.76 4.912 5.76 1.969 0 3.025-.664 4.09-1.735l.141-.142-1.359-1.198-.123.123c-.88.884-1.562 1.182-2.704 1.182-1.88 0-2.929-1.204-2.99-3.383h7.286v-.917zM40.879 29.991c-.477.478-1.132.741-1.847.741-.712 0-1.343-.256-1.825-.741-.725-.729-.825-1.983-.825-3.229 0-1.245.1-2.499.825-3.227.481-.485 1.112-.741 1.825-.741.715 0 1.372.263 1.847.741.74.744.802 2.056.802 3.227 0 1.172-.062 2.484-.802 3.229m1.386-7.694c-.844-.848-1.961-1.296-3.233-1.296s-2.388.448-3.231 1.295c-1.211 1.241-1.374 2.954-1.374 4.466s.163 3.224 1.372 4.465c.842.848 1.959 1.295 3.233 1.295 1.273 0 2.391-.447 3.231-1.293 1.21-1.242 1.373-2.955 1.373-4.467.001-1.513-.163-3.226-1.371-4.465M52.168 26.762c0 3.553 1.908 5.76 4.977 5.76 1.573 0 2.575-.454 3.697-1.674l.124-.135-1.347-1.301-.129.144c-.789.879-1.381 1.176-2.346 1.176-1.009 0-1.822-.4-2.352-1.159-.482-.673-.669-1.462-.669-2.811s.187-2.137.668-2.81c.53-.759 1.343-1.159 2.353-1.159.98 0 1.571.291 2.346 1.153l.127.141 1.35-1.274-.125-.137c-1.124-1.221-2.126-1.675-3.697-1.675-3.069.001-4.977 2.208-4.977 5.761M64.57 17.151h-1.769v15.238h1.955V25.48c0-1.708.918-2.687 2.517-2.687 1.58 0 2.45.954 2.45 2.687v6.909h1.957v-7.175c0-2.599-1.563-4.213-4.078-4.213-1.138 0-2.387.588-2.847 1.338v-5.188h-.185zM76.088 25.8c.04-.71.095-1.037.304-1.554.395-.937 1.297-1.52 2.355-1.52s1.961.583 2.355 1.522c.208.515.263.843.303 1.553h-5.317zm7.285.653c0-3.363-1.773-5.451-4.626-5.451-2.897 0-4.626 2.153-4.626 5.76 0 3.714 1.743 5.76 4.911 5.76 1.969 0 3.024-.664 4.09-1.735l.141-.141-1.359-1.198-.123.123c-.881.885-1.563 1.184-2.704 1.184-1.88 0-2.93-1.206-2.99-3.386h7.286v-.916zM85.678 24.373c0 1.872 1.145 2.917 3.404 3.107l1.781.155c1.129.098 1.631.532 1.631 1.405 0 1.511-1.688 1.737-2.694 1.737-1.405 0-2.461-.393-3.228-1.202l-.132-.139-1.325 1.331.137.133c1.157 1.122 2.567 1.622 4.571 1.622 2.826 0 4.581-1.343 4.581-3.505 0-1.919-1.066-2.912-3.356-3.127l-1.737-.155c-1.525-.124-1.72-.816-1.72-1.405 0-1.035.793-1.604 2.233-1.604 1.13 0 2.06.277 2.764.825l.13.1 1.296-1.303-.16-.131c-.966-.795-2.353-1.215-4.011-1.215-2.491-.001-4.165 1.355-4.165 3.371M98.502 18.677h-1.767v2.524h-1.363v1.592h1.363v6.49c0 1.887 1.161 3.106 2.956 3.106h1.307v-1.746h-1.023c-.866 0-1.288-.459-1.288-1.405v-6.446h2.311V21.2h-2.311v-2.524h-.185zM104.526 25.8c.04-.71.094-1.037.302-1.555.394-.936 1.297-1.52 2.356-1.52s1.962.583 2.356 1.522c.208.515.261.83.301 1.553h-5.315zm7.286.653c0-3.363-1.773-5.451-4.627-5.451-2.898 0-4.628 2.153-4.628 5.76 0 3.714 1.745 5.76 4.913 5.76 1.968 0 3.023-.664 4.088-1.735l.141-.141-1.357-1.198-.124.123c-.881.885-1.564 1.184-2.705 1.184-1.879 0-2.929-1.206-2.988-3.386h7.286v-.916zM48.164 22.402v-1.267h-1.955V32.39h1.955v-6.866c0-1.607.99-2.731 2.407-2.731.246 0 .467.027.694.086l.301.083V21.06l-.326-.049-.229-.009c-1.141-.001-2.173.685-2.847 1.4M116.318 22.396v-1.261h-1.956v11.254h1.956v-6.866c0-1.607.99-2.73 2.406-2.73.345 0 .621.043.872.135l.251.092v-1.968l-.247-.024-.437-.027c-1.144 0-2.354.607-2.845 1.395M120 50.787h-1.225l-.707 2.825-.697-2.825h-1.234l1.374 4.338v2.795h1.115v-2.795L120 50.787zm-5.258 7.133v-7.133h-1.115v4.238l-1.663-4.238h-.996v7.133h1.115v-4.238l1.673 4.238h.986zm-6.691-3.566c0 1.302-.03 2.024-.239 2.364-.1.161-.269.271-.538.271s-.428-.11-.528-.271c-.209-.34-.249-1.061-.249-2.364s.04-2.024.249-2.365c.1-.16.259-.27.528-.27.268 0 .438.11.538.27.209.341.239 1.062.239 2.365m1.115 0c0-1.403.01-2.445-.517-3.045-.299-.341-.698-.601-1.374-.601-.677 0-1.075.261-1.374.601-.528.601-.518 1.642-.518 3.045 0 1.402-.01 2.445.518 3.045.299.341.697.601 1.374.601.677 0 1.075-.261 1.374-.601.527-.601.517-1.643.517-3.045m-5.585 3.566v-7.133h-1.116v3.005h-1.383v-3.005h-1.115v7.133h1.115v-3.126h1.383v3.126h1.116zm-6.493-4.959c0 .631-.09 1.162-.688 1.162h-.687v-2.324h.687c.599 0 .688.531.688 1.162m1.115-.01c0-1.492-.538-2.164-1.822-2.164h-1.782v7.133h1.115v-2.785h.667c1.344 0 1.822-.741 1.822-2.184m-5.595 4.969v-7.133h-1.016l-1.364 3.747-1.374-3.747h-1.006v7.133h1.115v-4.398l.946 2.875h.618l.965-2.925v4.448h1.116zm-6.164-7.133h-1.225l-.707 2.825-.697-2.825h-1.234l1.374 4.338v2.795h1.115v-2.795l1.374-4.338zm-5.038 5.159c0-1.202-.229-1.653-1.075-2.003l-.837-.341c-.498-.2-.588-.381-.588-.962 0-.311.06-.551.19-.701a.592.592 0 0 1 .477-.201c.239 0 .398.08.498.21.149.191.169.441.169.761h1.115c0-.681-.13-1.192-.498-1.553-.289-.28-.707-.43-1.274-.43-.508 0-.906.16-1.215.43-.389.351-.577.871-.577 1.513 0 1.102.268 1.493.986 1.793l.847.351c.548.221.667.411.667 1.172 0 .381-.04.621-.19.791-.109.13-.279.2-.538.2-.249 0-.418-.08-.517-.19-.159-.181-.2-.421-.2-.802h-1.115c0 .751.119 1.192.458 1.532.299.301.757.471 1.374.471.627 0 1.096-.19 1.384-.471.359-.347.459-.839.459-1.57m-9.121-1.592c0 1.302-.03 2.024-.239 2.364-.099.161-.268.271-.538.271-.268 0-.428-.11-.527-.271-.209-.34-.249-1.061-.249-2.364s.04-2.024.249-2.365c.099-.16.259-.27.527-.27.269 0 .439.11.538.27.209.341.239 1.062.239 2.365m1.116 0c0-1.403.009-2.445-.518-3.045-.299-.341-.697-.601-1.374-.601-.677 0-1.075.261-1.374.601-.527.601-.517 1.642-.517 3.045 0 1.402-.01 2.445.517 3.045.298.34.696.601 1.373.601s1.075-.261 1.374-.601c.528-.601.519-1.643.519-3.045m-5.587-3.567h-1.115v7.133h1.115v-7.133zm-4.032 3.556c0 1.242-.03 1.944-.239 2.274a.645.645 0 0 1-.568.29h-.657v-5.109h.657c.269 0 .458.12.568.29.209.332.239 1.014.239 2.255m1.115.011c0-1.372.01-2.384-.517-2.975-.289-.33-.698-.591-1.374-.591h-1.803v7.133h1.803c.676 0 1.085-.261 1.374-.591.527-.592.517-1.604.517-2.976m-6.811 1.142h-1.215l.608-2.985.607 2.985zm1.663 2.424-1.722-7.133h-1.085l-1.743 7.133h1.175l.279-1.412h1.643l.289 1.412h1.164zm-7.07-5.029c0 .591-.09 1.092-.687 1.092h-.688v-2.184h.688c.597 0 .687.501.687 1.092m1.345 5.029-1.056-3.166c.648-.35.826-.981.826-1.863 0-1.473-.517-2.104-1.812-2.104H50.19v7.133h1.115v-2.925h.627l.926 2.925h1.166zm-8.215-6.121v-1.012h-3.494v1.012h1.184v6.121h1.115v-6.121h1.195zm-6.173 1.092c0 .591-.09 1.092-.688 1.092h-.687v-2.184h.687c.598 0 .688.501.688 1.092m1.344 5.029-1.056-3.166c.647-.35.826-.981.826-1.863 0-1.473-.517-2.104-1.812-2.104h-1.792v7.133h1.115v-2.925h.627l.926 2.925h1.166zm-5.766-1.753v-5.38h-1.115v5.439c0 .511-.309.761-.687.761-.378 0-.698-.25-.698-.761v-5.439H31.6v5.38c0 .541.179.991.488 1.312.338.351.796.521 1.325.521.527 0 .975-.17 1.314-.521.309-.321.487-.771.487-1.312m-5.257-4.368v-1.012H26.98v7.133h1.115v-3.086h1.604v-1.011h-1.604v-2.024h1.862zm-4.441 6.121-1.643-4.177 1.424-2.956h-1.125l-1.543 3.356v-3.356h-1.115v7.133h1.115v-1.833l.538-1.102 1.145 2.935h1.204zm-5.994 0v-7.133h-1.116v4.238l-1.663-4.238h-.996v7.133h1.115v-4.238l1.673 4.238h.987zm-6.891-2.424h-1.215l.608-2.985.607 2.985zm1.663 2.424-1.722-7.133h-1.085L9.744 57.92h1.174l.279-1.412h1.643l.289 1.412h1.165zm-7.07-5.029c0 .591-.09 1.092-.687 1.092H5.85v-2.184h.688c.597 0 .686.501.686 1.092m1.345 5.029-1.056-3.166c.648-.35.826-.981.826-1.863 0-1.473-.517-2.104-1.812-2.104H4.735v7.133H5.85v-2.925h.627l.926 2.925h1.166zm-5.536-6.121v-1.012H.056v7.133h1.115v-3.086h1.603v-1.011H1.171v-2.024h1.862z"/></g></symbol><symbol id="brandlogo--mobile" viewBox="0 0 127 43"><style type="text/css">.st0{fill:#fff}</style><path class="st0" d="M23.204 42.666C15.47 42.791 5.988 41.418 0 38.799v-2.37c6.362 2.745 15.095 4.117 22.83 3.992 8.359-.125 17.091-1.497 23.08-3.867V38.8c-6.737 2.494-14.347 3.741-22.706 3.866zM3.992 7.485v8.733s2.745-.624 5.115-.499c3.992 0 5.988 2.246 6.113 4.99v13.224h-3.992V22.331c0-1.372.125-3.244-3.119-3.119-2.246 0-3.867.499-3.867.499v14.347H0V7.86l3.992-.375zM29.816 15.594s-3.743.125-5.988.624c-2.62.624-4.242 2.121-4.491 4.491 0 .499-.125.749-.125 1.747v11.477h4.242V22.206c0-.998.125-1.622.749-2.246.749-.624 2.495-.749 3.493-.873.624 0 1.996-.125 1.996-.125v-3.368h.124zM37.551 8.608c0 1.996 1.248 3.119 3.618 3.244l1.871.125c1.248.125 1.747.499 1.747 1.497 0 1.622-1.747 1.871-2.869 1.871-1.497 0-2.62-.374-3.368-1.248l-.125-.125-1.372 1.372.125.125c1.248 1.123 2.745 1.747 4.865 1.747 2.994 0 4.865-1.372 4.865-3.743 0-1.996-1.123-3.119-3.618-3.244l-1.871-.125c-1.622-.125-1.871-.873-1.871-1.497 0-1.123.873-1.747 2.37-1.747 1.248 0 2.246.25 2.994.873l.125.125 1.372-1.372-.25-.125c-.998-.873-2.495-1.248-4.242-1.248-2.619-.123-4.366 1.374-4.366 3.495zM51.149 0h-1.996v2.246h2.246V0zM51.025 5.115h-1.872v11.976h2.121V5.115zM56.763 6.487V5.239h-2.121v11.852h2.121v-7.36c0-1.871.998-2.869 2.62-2.869 1.747 0 2.62.998 2.62 2.869v7.236h2.121V9.481c0-1.372-.374-2.495-1.248-3.368-.748-.749-1.746-1.123-2.994-1.123-1.247 0-2.62.749-3.119 1.497zM72.108 0H70.86c-1.871 0-3.119 1.248-3.119 3.244V5.24h-1.497v1.622h1.497v10.105h2.121V6.862h2.495V5.24h-2.495V3.369c0-.998.499-1.497 1.372-1.497h1.123V0h-.249zM81.465 6.362c-.873-.873-2.121-1.372-3.368-1.372-1.372 0-2.495.499-3.368 1.372-1.248 1.372-1.497 3.119-1.497 4.741s.125 3.368 1.497 4.741c.873.873 2.121 1.372 3.368 1.372 1.372 0 2.495-.499 3.368-1.372 1.248-1.248 1.497-3.119 1.497-4.741 0-1.622-.25-3.368-1.497-4.741zm-1.497 8.11c-.499.499-1.248.749-1.996.749-.749 0-1.372-.25-1.996-.749-.749-.749-.873-2.121-.873-3.368 0-1.372.125-2.62.873-3.368.499-.499 1.123-.749 1.871-.749s1.497.25 1.996.749c.749.749.873 2.121.873 3.368s.125 2.619-.748 3.368zM87.702 6.362V5.114h-2.121v11.852h2.121V9.731c0-1.871.998-2.869 2.62-2.869 1.747 0 2.62.998 2.62 2.869v7.236h2.121V9.481c0-1.372-.374-2.495-1.248-3.368-.749-.749-1.747-1.123-3.119-1.123-1.122 0-2.37.624-2.994 1.372zM100.178 5.115h-1.872v11.976h1.997V5.115zM100.303 0h-2.121v2.246h2.245V0zM112.903 10.729c0-3.493-1.871-5.739-4.865-5.739-3.119 0-4.865 2.246-4.865 6.113s1.871 6.113 5.24 6.113c2.121 0 3.244-.749 4.366-1.871l.125-.125-1.497-1.248-.125.125c-.873.873-1.622 1.248-2.869 1.248-1.996 0-3.119-1.248-3.119-3.618h7.735v-.998h-.126zm-7.735-.624c0-.749.125-1.123.374-1.622.374-.998 1.372-1.622 2.495-1.622s2.121.624 2.495 1.622c.25.499.25.873.374 1.622h-5.738zM44.787 23.454c-.873-.873-2.121-1.372-3.368-1.372-1.372 0-2.495.499-3.368 1.372-1.248 1.248-1.497 3.119-1.497 4.741s.125 3.368 1.497 4.741c.873.873 2.121 1.372 3.368 1.372 1.372 0 2.495-.499 3.368-1.372 1.248-1.248 1.497-3.119 1.497-4.741 0-1.622-.25-3.369-1.497-4.741zm-1.497 8.109c-.499.499-1.248.749-1.996.749-.749 0-1.372-.25-1.996-.749-.749-.749-.873-2.121-.873-3.368 0-1.372.125-2.62.873-3.368.499-.499 1.123-.749 1.996-.749.749 0 1.497.25 1.996.749.749.749.873 2.121.873 3.368 0 1.247 0 2.619-.873 3.368zM55.266 28.194c0 3.743 1.996 6.113 5.24 6.113 1.622 0 2.745-.499 3.867-1.747l.125-.125-1.372-1.372v.125c-.873.873-1.497 1.248-2.495 1.248-1.123 0-1.871-.374-2.495-1.248-.499-.749-.749-1.497-.749-2.994 0-1.372.25-2.246.749-2.994.624-.749 1.372-1.248 2.495-1.248.998 0 1.622.25 2.495 1.248l.125.125 1.372-1.372-.125-.125c-1.248-1.248-2.246-1.747-3.867-1.747-3.244.001-5.365 2.371-5.365 6.113zM68.49 18.089h-1.871v16.093h1.996v-7.236c0-1.747.998-2.869 2.62-2.869s2.62.998 2.62 2.869v7.236h2.121v-7.61c0-2.745-1.622-4.491-4.366-4.491-1.248 0-2.495.624-2.994 1.372v-5.489h-.126v.125zM88.451 27.82c0-3.493-1.871-5.739-4.865-5.739-3.119 0-4.865 2.246-4.865 6.113s1.871 6.113 5.24 6.113c2.121 0 3.244-.749 4.366-1.871l.125-.125-1.497-1.248-.25.125c-.873.873-1.622 1.248-2.869 1.248-1.996 0-3.119-1.248-3.119-3.618h7.735l-.001-.998zm-7.735-.624c0-.749.125-1.123.374-1.622.374-.998 1.372-1.622 2.495-1.622s2.121.624 2.495 1.622c.25.499.25.873.374 1.622h-5.738zM90.821 25.699c0 1.996 1.248 3.119 3.618 3.244l1.871.125c1.248.125 1.747.499 1.747 1.497 0 1.622-1.747 1.871-2.869 1.871-1.497 0-2.62-.374-3.368-1.248l-.125-.125-1.497 1.372.125.125c1.248 1.123 2.745 1.747 4.865 1.747 2.994 0 4.865-1.372 4.865-3.743 0-1.996-1.123-3.119-3.618-3.244l-1.871-.125c-1.622-.125-1.871-.873-1.871-1.497 0-1.123.873-1.747 2.37-1.747 1.248 0 2.246.25 2.869.873l.125.125 1.372-1.372-.125-.125c-.998-.873-2.495-1.248-4.242-1.248-2.494-.122-4.241 1.375-4.241 3.495zM104.419 19.711h-1.871v2.62h-1.497v1.622h1.497v6.861c0 1.996 1.248 3.244 3.119 3.244h1.372v-1.871h-.998c-.873 0-1.372-.499-1.372-1.497v-6.737h2.495v-1.622h-2.495v-2.62h-.25zM118.517 27.82c0-3.493-1.871-5.739-4.865-5.739-3.119 0-4.865 2.246-4.865 6.113s1.871 6.113 5.24 6.113c2.121 0 3.244-.749 4.366-1.871l.125-.125-1.497-1.248-.125.125c-.873.873-1.622 1.248-2.869 1.248-1.996 0-3.119-1.248-3.119-3.618h7.735v-.998h-.126zm-7.735-.624c0-.749.125-1.123.374-1.622.374-.998 1.372-1.622 2.495-1.622s2.121.624 2.495 1.622c.25.499.25.873.374 1.622h-5.738zM51.025 23.579v-1.372h-2.121v11.852h2.121v-7.236c0-1.747.998-2.869 2.495-2.869.25 0 .499 0 .749.125l.374.125v-1.996h-.624c-1.123-.126-2.246.622-2.994 1.371zM123.382 23.579v-1.372h-2.121v11.852h2.121v-7.236c0-1.747.998-2.869 2.495-2.869.374 0 .624 0 .873.125l.25.125v-2.121h-.749c-1.122-.001-2.37.747-2.869 1.496z"/></symbol></svg>