<svg xmlns="http://www.w3.org/2000/svg" xmlns:xlink="http://www.w3.org/1999/xlink"><symbol id="brandlogo--desk" viewBox="0 0 668 220" preserveAspectRatio="xMidYMid meet"><path d="M586.39 194.8h-3.68L576 206.39l-6.71-11.59h-3.68l8.73 14.7v10.03h3.29v-10l8.76-14.74Zm-30.88 0v18.45l-12.72-18.45h-2.65v24.74h3.29v-18.48l12.72 18.48h2.65V194.8h-3.29Zm-36.04 21.98c-5.41 0-9.54-4.2-9.54-9.61s4.13-9.65 9.54-9.65 9.54 4.21 9.54 9.65-4.13 9.61-9.54 9.61m0 3.22c7.17 0 12.83-5.73 12.83-12.83s-5.65-12.83-12.83-12.83-12.79 5.69-12.79 12.83S512.3 220 519.47 220m-23.92-25.2v10.5h-12.01v-10.5h-3.29v24.74h3.29v-11.13h12.01v11.13h3.25V194.8h-3.25Zm-31.06 12.83h-5.69v-9.75h5.69c2.72 0 4.74 2.05 4.74 4.88s-2.01 4.88-4.74 4.88m0-12.83h-8.98v24.74h3.29v-8.83h5.69c4.56 0 7.99-3.46 7.99-7.95s-3.43-7.95-7.99-7.95m-18.16 0h-3.71l-7.85 13.07-7.88-13.07h-3.71v24.74h3.29v-19.29l8.09 13.43h.42l8.09-13.46v19.33h3.25v-24.74Zm-29.96 0h-3.68l-6.71 11.59-6.71-11.59h-3.68l8.73 14.7v10.03h3.29v-10l8.76-14.74Zm-33.64 25.2c5.05 0 8.55-2.76 8.55-7.1 0-4.77-4.06-6.04-8.37-7.46-3.46-1.1-5.19-1.94-5.19-4.24s1.84-3.68 4.49-3.68c3 0 4.74 1.7 5.62 3.82l2.76-1.59c-1.38-3.11-4.31-5.41-8.37-5.41s-7.77 2.55-7.77 7 3.82 5.83 7.77 7.1c3.64 1.13 5.83 1.98 5.83 4.52 0 2.23-1.73 3.82-5.23 3.82s-5.72-1.77-6.61-4.49l-2.83 1.62c1.31 3.71 4.66 6.08 9.37 6.08m-41.03-3.22c-5.41 0-9.54-4.2-9.54-9.61s4.13-9.65 9.54-9.65 9.54 4.21 9.54 9.65-4.13 9.61-9.54 9.61m0 3.22c7.17 0 12.83-5.73 12.83-12.83s-5.65-12.83-12.83-12.83-12.79 5.69-12.79 12.83 5.62 12.83 12.79 12.83m-23.96-.46h3.29v-24.74h-3.29v24.74Zm-19.61-3.11h-6.36v-18.52h6.36c5.09 0 8.59 4.03 8.59 9.26s-3.5 9.26-8.59 9.26m0-21.63h-9.65v24.74h9.65c6.82 0 11.73-5.51 11.73-12.37s-4.91-12.37-11.73-12.37m-31.98 16.12 4.42-12.19 4.45 12.19h-8.87Zm12.01 8.62h3.5l-9.22-24.74h-3.71l-9.22 24.74h3.5l2.01-5.55h11.13l2.01 5.55Zm-38.48-21.66h6.61c2.44 0 4.42 2.05 4.42 4.59s-1.98 4.63-4.42 4.63h-6.61v-9.22Zm11.38 21.66h3.64l-5.83-9.89c2.97-1.06 5.12-3.92 5.12-7.17 0-4.24-3.46-7.67-7.7-7.67h-9.89v24.74h3.29v-9.47h5.83l5.55 9.47Zm-34.17-24.74h-17.85v3.11h7.28v21.62h3.25v-21.62h7.31v-3.11Zm-37.49 3.07h6.61c2.44 0 4.42 2.05 4.42 4.59s-1.98 4.63-4.42 4.63h-6.61v-9.22Zm11.38 21.66h3.64l-5.83-9.89c2.97-1.06 5.12-3.92 5.12-7.17 0-4.24-3.46-7.67-7.7-7.67h-9.89v24.74h3.29v-9.47h5.83l5.55 9.47Zm-32.83.46c5.41 0 9.26-3.39 9.26-8.76v-16.43h-3.25v16.29c0 3.43-2.05 5.69-6.01 5.69s-6.01-2.26-6.01-5.69v-16.29h-3.29v16.43c0 5.37 3.89 8.76 9.29 8.76m-16.86-22.09v-3.11h-14.24v24.74h3.29v-10.49h10.5v-3.11h-10.5v-8.02h10.95Zm-21.06 21.62-11.27-12.72 10.92-12.01h-4.03l-10.32 11.17V194.8h-3.29v24.74h3.29v-11.87l10.67 11.87h4.03Zm-30.46-24.74v18.45l-12.72-18.45h-2.65v24.74h3.29v-18.48l12.72 18.48h2.65v-24.74h-3.29Zm-37.7 16.12 4.42-12.19 4.45 12.19h-8.87Zm12.01 8.62h3.5l-9.22-24.74h-3.71l-9.22 24.74h3.5l2.01-5.55h11.13l2.01 5.55Zm-38.48-21.66h6.61c2.44 0 4.42 2.05 4.42 4.59s-1.98 4.63-4.42 4.63h-6.61v-9.22Zm11.38 21.66h3.64l-5.83-9.89c2.97-1.06 5.12-3.92 5.12-7.17 0-4.24-3.46-7.67-7.7-7.67h-9.89v24.74h3.29v-9.47h5.83l5.55 9.47Zm-22.54-21.62v-3.11H0v24.74h3.29v-10.49h10.5v-3.11H3.29v-8.02h10.95Zm95.52-24.19H72.79v-69.4c0-8.84-.04-12.83-2.57-15.35-2.18-2.17-6.39-3.28-13.57-3.28-5.4 0-11.71.68-19.57 1.97v86.06H0V2.34L37.06 0v56.16c8.03-1.35 17.93-2.6 26.34-2.6 17.04 0 28.33 4.97 35.69 12.34 9.82 9.82 10.68 21.44 10.67 35.06v72.77Zm53.59.03H126.3v-70.67c0-12.56.49-23.82 10.47-33.8 11.01-11.01 28.48-15.25 66.88-15.65v31.44c-28.35.77-34.81 2.73-37.71 5.63-2.04 2.04-2.57 4.83-2.57 10.72v72.33Zm383.25-75.43V82.04h21.63v-6.38h-21.63V59.9h23.46v-6.45h-30.28v51.32h30.65v-6.45h-23.83Zm-31.23 6.45h6.82V53.45h-6.82v51.32Zm-24.41-51.32v38.27l-26.39-38.27h-5.5v51.32h6.82V66.43l26.39 38.34h5.5V53.45h-6.82Zm-71.32 45.6c-11.22 0-19.79-8.72-19.79-19.94s8.58-20.02 19.79-20.02 19.8 8.72 19.8 20.02-8.58 19.94-19.8 19.94m0 6.67c14.88 0 26.61-11.88 26.61-26.61S434.53 52.5 419.65 52.5s-26.54 11.8-26.54 26.61 11.66 26.61 26.54 26.61M382.83 59.9v-6.45h-29.55v51.32h6.82V82.99h21.77v-6.45H360.1V59.9h22.73Zm-53.96-6.45v38.27l-26.39-38.27h-5.5v51.32h6.82V66.42l26.39 38.35h5.5V53.45h-6.82Zm-56.31 51.32h6.82V53.45h-6.82v51.32Zm-32.04.95c10.48 0 17.74-5.72 17.74-14.74 0-9.9-8.43-12.54-17.38-15.47-7.19-2.27-10.78-4.03-10.78-8.8s3.81-7.63 9.31-7.63c6.23 0 9.82 3.52 11.66 7.92l5.72-3.3c-2.86-6.45-8.94-11.22-17.38-11.22S223.28 57.76 223.28 67s7.92 12.1 16.13 14.74c7.55 2.35 12.1 4.11 12.1 9.39 0 4.62-3.59 7.92-10.85 7.92s-11.88-3.67-13.71-9.31l-5.87 3.37c2.71 7.7 9.68 12.61 19.43 12.61m395.59 23.09h13.71c5.06 0 9.16 4.25 9.16 9.53s-4.1 9.6-9.16 9.6H636.1V128.8Zm23.61 44.94h7.55l-12.1-20.53c6.16-2.2 10.63-8.14 10.63-14.88 0-8.8-7.19-15.91-15.98-15.91h-20.53v51.32h6.82V154.1h12.1l11.51 19.65Zm-69.06-6.45v-16.28h21.63v-6.38h-21.63v-15.76h23.46v-6.45h-30.28v51.32h30.65v-6.45h-23.83Zm-17.23-44.87h-37.03v6.45h15.1v44.87h6.74v-44.87h15.18v-6.45Zm-61.95 52.27c10.48 0 17.74-5.72 17.74-14.74 0-9.9-8.43-12.54-17.38-15.47-7.19-2.27-10.78-4.03-10.78-8.8s3.81-7.63 9.31-7.63c6.23 0 9.82 3.52 11.66 7.92l5.72-3.3c-2.86-6.45-8.94-11.22-17.38-11.22s-16.13 5.28-16.13 14.52 7.92 12.1 16.13 14.74c7.55 2.35 12.1 4.11 12.1 9.39 0 4.62-3.59 7.92-10.85 7.92s-11.88-3.67-13.71-9.31l-5.86 3.37c2.71 7.7 9.68 12.61 19.43 12.61m-55.21-7.4v-16.28h21.63v-6.38h-21.63v-15.76h23.46v-6.45h-30.28v51.32h30.65v-6.45h-23.83Zm-31.16-44.87v21.77h-24.93v-21.77h-6.82v51.32h6.82v-23.1h24.93v23.1h6.74v-51.32h-6.74Zm-67 52.27c9.53 0 17.89-4.99 22.14-12.54l-5.94-3.37c-2.93 5.57-9.16 9.24-16.2 9.24-12.02 0-20.09-8.72-20.09-19.94s8.06-20.02 20.09-20.02c7.04 0 13.27 3.67 16.2 9.31l5.94-3.45c-4.33-7.55-12.68-12.46-22.14-12.46-15.69 0-26.83 11.8-26.83 26.61s11.14 26.61 26.83 26.61m-68.48-45.9h13.71c5.06 0 9.16 4.25 9.16 9.53s-4.11 9.6-9.16 9.6h-13.71v-19.14Zm23.61 44.94h7.55l-12.1-20.53c6.16-2.2 10.63-8.14 10.63-14.88 0-8.8-7.18-15.91-15.98-15.91H282.8v51.32h6.82v-19.65h12.1l11.51 19.65Zm-69.58-5.72c-11.22 0-19.8-8.72-19.8-19.94s8.58-20.02 19.8-20.02 19.8 8.72 19.8 20.02-8.58 19.94-19.8 19.94m0 6.67c14.88 0 26.61-11.88 26.61-26.61s-11.73-26.61-26.61-26.61-26.54 11.8-26.54 26.61 11.66 26.61 26.54 26.61" fill="#8d2725" stroke-width="0"/></symbol><symbol id="brandlogo--mobile" viewBox="0 0 841 220" preserveAspectRatio="xMidYMid meet"><path d="M800.93 162.21h17.26c6.37 0 11.54 5.35 11.54 12s-5.17 12.09-11.54 12.09h-17.26v-24.09Zm29.72 56.59h9.51l-15.23-25.85c7.75-2.77 13.39-10.25 13.39-18.74 0-11.08-9.05-20.03-20.13-20.03h-25.85v64.62h8.59v-24.74h15.23l14.49 24.74Zm-86.96-8.12v-20.49h27.23v-8.03h-27.23v-19.85h29.54v-8.12H735.1v64.62h38.59v-8.12h-30ZM722 154.18h-46.62v8.12h19.02v56.5h8.49v-56.5H722v-8.12ZM643.99 220c13.2 0 22.34-7.2 22.34-18.55 0-12.46-10.62-15.79-21.88-19.48-9.05-2.86-13.57-5.08-13.57-11.08s4.8-9.6 11.72-9.6c7.85 0 12.37 4.43 14.68 9.97l7.2-4.15c-3.6-8.12-11.26-14.12-21.88-14.12s-20.31 6.65-20.31 18.28 9.97 15.23 20.31 18.55c9.51 2.96 15.23 5.17 15.23 11.82 0 5.82-4.52 9.97-13.66 9.97s-14.96-4.62-17.26-11.73l-7.38 4.25c3.42 9.69 12.19 15.88 24.46 15.88m-69.51-9.32V190.2h27.23v-8.03h-27.23v-19.85h29.54v-8.12h-38.13v64.62h38.59v-8.12h-30Zm-39.23-56.5v27.42h-31.39v-27.42h-8.59v64.62h8.59v-29.08h31.39v29.08h8.49v-64.62h-8.49Zm-84.36 65.82c12 0 22.53-6.28 27.88-15.79l-7.48-4.25c-3.69 7.02-11.54 11.63-20.4 11.63-15.14 0-25.29-10.99-25.29-25.11s10.15-25.2 25.29-25.2c8.86 0 16.71 4.62 20.4 11.73l7.48-4.34c-5.45-9.51-15.97-15.69-27.88-15.69-19.76 0-33.79 14.86-33.79 33.51s14.03 33.51 33.79 33.51m-86.22-57.79h17.26c6.37 0 11.54 5.35 11.54 12s-5.17 12.09-11.54 12.09h-17.26v-24.09Zm29.72 56.59h9.51l-15.23-25.85c7.75-2.77 13.38-10.25 13.38-18.74 0-11.08-9.05-20.03-20.12-20.03h-25.85v64.62h8.59v-24.74h15.23l14.49 24.74Zm-87.61-7.2c-14.12 0-24.93-10.99-24.93-25.11s10.8-25.2 24.93-25.2 24.93 10.99 24.93 25.2-10.8 25.11-24.93 25.11m0 8.4c18.74 0 33.51-14.96 33.51-33.51s-14.77-33.51-33.51-33.51-33.42 14.86-33.42 33.51 14.68 33.51 33.42 33.51m221.6-95.27c-14.12 0-24.92-10.99-24.92-25.11s10.8-25.2 24.92-25.2 24.93 10.99 24.93 25.2-10.8 25.11-24.93 25.11m0 8.4c18.74 0 33.51-14.96 33.51-33.51s-14.77-33.51-33.51-33.51-33.42 14.86-33.42 33.51 14.68 33.51 33.42 33.51m-46.37-57.7v-8.12h-37.2v64.62h8.59v-27.42h27.42V96.4H453.4V75.44h28.62Zm-67.94-8.12v48.19l-33.23-48.19h-6.92v64.62h8.59V83.66l33.23 48.28h6.92V67.32h-8.59Zm-70.9 64.62h8.59V67.32h-8.59v64.62Zm-40.34 1.2c13.2 0 22.34-7.2 22.34-18.55 0-12.46-10.62-15.79-21.88-19.48-9.05-2.86-13.57-5.08-13.57-11.08s4.8-9.6 11.72-9.6c7.85 0 12.37 4.43 14.68 9.97l7.2-4.15c-3.6-8.12-11.26-14.12-21.88-14.12s-20.31 6.65-20.31 18.28 9.97 15.23 20.31 18.55c9.51 2.96 15.23 5.17 15.23 11.82 0 5.82-4.52 9.97-13.66 9.97s-14.96-4.62-17.26-11.73l-7.39 4.25c3.42 9.69 12.19 15.88 24.46 15.88m-164.63 85.61H91.62v-87.38c0-11.13-.05-16.16-3.24-19.33-2.75-2.74-8.05-4.13-17.09-4.13-6.8 0-14.75.86-24.64 2.48v108.36H0V2.95L46.66 0v70.71c10.12-1.69 22.58-3.27 33.17-3.27 21.45 0 35.67 6.26 44.94 15.54 12.37 12.37 13.44 26.99 13.44 44.15v91.63Zm67.48.04h-46.66v-88.99c0-15.81.62-30 13.18-42.56 13.87-13.87 35.85-19.21 84.21-19.7v39.59c-35.69.97-43.83 3.44-47.48 7.09-2.57 2.57-3.24 6.08-3.24 13.5v91.08Zm482.57-94.98v-20.49h27.23V95.3h-27.23V75.45h29.54v-8.12h-38.13v64.62h38.59v-8.12h-30Zm-39.33 8.12h8.59V67.32h-8.59v64.62Zm-30.74-64.62v48.19l-33.23-48.19h-6.92v64.62h8.59V83.66l33.23 48.28h6.92V67.32h-8.59Z" fill="#8d2725" stroke-width="0"/></symbol></svg>