<?xml version="1.0" encoding="utf-8"?>
<!-- Generator: Adobe Illustrator 24.2.1, SVG Export Plug-In . SVG Version: 6.00 Build 0)  -->
<svg version="1.1" id="Ebene_1" xmlns="http://www.w3.org/2000/svg" xmlns:xlink="http://www.w3.org/1999/xlink" x="0px" y="0px"
	 viewBox="0 0 30 35" style="enable-background:new 0 0 30 35;" xml:space="preserve">
<path d="M26.4,10c-0.3-1-1.2-1.7-2.3-1.7H6c-1.1,0-2,0.7-2.3,1.7l-3.4,9.8v4.9l1.6,6.6V33c0,0.9,0.7,1.6,1.6,1.6h1.6
	c0.9,0,1.6-0.7,1.6-1.6v-1.6h16.4V33c0,0.9,0.7,1.6,1.6,1.6h1.6c0.9,0,1.6-0.7,1.6-1.6v-1.6l1.6-6.6v-4.9L26.4,10z M6,26.4
	c-1.4,0-2.5-1.1-2.5-2.5c0-1.4,1.1-2.5,2.5-2.5s2.5,1.1,2.5,2.5C8.5,25.3,7.4,26.4,6,26.4z M24,26.4c-1.4,0-2.5-1.1-2.5-2.5
	c0-1.4,1.1-2.5,2.5-2.5c1.4,0,2.5,1.1,2.5,2.5C26.5,25.3,25.4,26.4,24,26.4z M3.6,18.2L6,10.8h18l2.5,7.4H3.6z"/>
</svg>
