<svg version="1.1" xmlns="http://www.w3.org/2000/svg" x="0" y="0" viewBox="0 0 30 35" xml:space="preserve"><path d="M26.4 10c-.3-1-1.2-1.7-2.3-1.7H6C4.9 8.3 4 9 3.7 10L.3 19.8v4.9l1.6 6.6V33c0 .9.7 1.6 1.6 1.6h1.6c.9 0 1.6-.7 1.6-1.6v-1.6h16.4V33c0 .9.7 1.6 1.6 1.6h1.6c.9 0 1.6-.7 1.6-1.6v-1.6l1.6-6.6v-4.9L26.4 10zM6 26.4c-1.4 0-2.5-1.1-2.5-2.5s1.1-2.5 2.5-2.5 2.5 1.1 2.5 2.5-1.1 2.5-2.5 2.5zm18 0c-1.4 0-2.5-1.1-2.5-2.5s1.1-2.5 2.5-2.5 2.5 1.1 2.5 2.5-1.1 2.5-2.5 2.5zM3.6 18.2L6 10.8h18l2.5 7.4H3.6z"/></svg>