<?xml version="1.0" encoding="utf-8"?>
<!-- Generator: Adobe Illustrator 24.2.1, SVG Export Plug-In . SVG Version: 6.00 Build 0)  -->
<svg version="1.1" id="Ebene_1" xmlns="http://www.w3.org/2000/svg" xmlns:xlink="http://www.w3.org/1999/xlink" x="0px" y="0px"
	 viewBox="0 0 30 35" style="enable-background:new 0 0 30 35;" xml:space="preserve">
<path d="M15,0.4C3.1,0.4,3.1,9.3,3.1,10.8v15.6c0,2.9,2.3,5.2,5.2,5.2l-2.2,2.2v0.7h3.3l3-3H18l3,3h3v-0.7l-2.2-2.2
	c2.9,0,5.2-2.3,5.2-5.2V10.8C26.9,9.3,26.9,0.4,15,0.4z M8.3,28.7c-1.2,0-2.2-1-2.2-2.2c0-1.2,1-2.2,2.2-2.2s2.2,1,2.2,2.2
	C10.5,27.7,9.5,28.7,8.3,28.7z M13.5,12.3H6.1l1.5-5.9h5.9V12.3z M16.5,12.3V6.3h5.9l1.5,5.9H16.5z M21.7,28.7c-1.2,0-2.2-1-2.2-2.2
	c0-1.2,1-2.2,2.2-2.2c1.2,0,2.2,1,2.2,2.2C23.9,27.7,22.9,28.7,21.7,28.7z"/>
</svg>
