<svg version="1.1" xmlns="http://www.w3.org/2000/svg" x="0" y="0" viewBox="0 0 30 35" xml:space="preserve"><path d="M15 .4C3.1.4 3.1 9.3 3.1 10.8v15.6c0 2.9 2.3 5.2 5.2 5.2l-2.2 2.2v.7h3.3l3-3H18l3 3h3v-.7l-2.2-2.2c2.9 0 5.2-2.3 5.2-5.2V10.8C26.9 9.3 26.9.4 15 .4zM8.3 28.7c-1.2 0-2.2-1-2.2-2.2 0-1.2 1-2.2 2.2-2.2s2.2 1 2.2 2.2c0 1.2-1 2.2-2.2 2.2zm5.2-16.4H6.1l1.5-5.9h5.9v5.9zm3 0v-6h5.9l1.5 5.9h-7.4zm5.2 16.4c-1.2 0-2.2-1-2.2-2.2 0-1.2 1-2.2 2.2-2.2 1.2 0 2.2 1 2.2 2.2 0 1.2-1 2.2-2.2 2.2z"/></svg>