<svg xmlns="http://www.w3.org/2000/svg" xmlns:xlink="http://www.w3.org/1999/xlink" width="25" height="25"><defs><path id="a" d="M1.25 4.667h25v25h-25z"/></defs><clipPath id="b"><use xlink:href="#a" overflow="visible"/></clipPath><circle cx="12.5" cy="12.5" r="12.5" fill="#a3047a"/><g fill="#fff"><path d="M19.898 7.77H5.597a.427.427 0 00-.423.376 9255.478 9255.478 0 01-.499 4.268v2.028a.427.427 0 00.426.426l1.333-.001a.098.098 0 00.093-.064 2.1 2.1 0 013.938-.001.1.1 0 00.094.065l3.779-.001a.097.097 0 00.092-.064 2.098 2.098 0 013.94 0 .098.098 0 00.092.065H19.9a.427.427 0 00.426-.426V8.195a.429.429 0 00-.428-.425zM7.586 12.424a.094.094 0 01-.069.029l-1.952.018a.096.096 0 01-.073-.033.094.094 0 01-.025-.076l.417-3.652a.099.099 0 01.098-.088h1.444c.054 0 .098.042.099.097l.09 3.633a.095.095 0 01-.029.072zm3.86-.981c0 .026-.01.052-.028.07s-.044.029-.069.029H8.625a.098.098 0 01-.098-.099V8.721c0-.026.011-.051.029-.07a.098.098 0 01.069-.028h2.724c.025 0 .051.011.069.028a.1.1 0 01.028.07v2.722zm3.919 0c0 .026-.01.052-.029.07a.095.095 0 01-.07.029h-2.723a.105.105 0 01-.07-.029.1.1 0 01-.027-.07V8.721c0-.026.01-.051.027-.07a.105.105 0 01.07-.028h2.723a.1.1 0 01.07.028c.02.02.029.044.029.07v2.722zm3.918 0c0 .026-.01.052-.027.07a.102.102 0 01-.07.029h-2.723a.097.097 0 01-.07-.029.094.094 0 01-.029-.07V8.721c0-.026.01-.051.029-.07a.098.098 0 01.07-.028h2.723c.025 0 .051.011.07.028.018.02.027.044.027.07v2.722z"/><circle cx="8.549" cy="15.609" r="1.621"/><circle cx="16.451" cy="15.61" r="1.621"/></g></svg>