<svg xmlns="http://www.w3.org/2000/svg" width="25" height="25">
  <circle cx="12.5" cy="12.5" r="12.5" fill="#8166a1"/>
  <path d="M19.97 13.106a.679.679 0 00-.676-.599l-1.549.003-1.291-2.65a.34.34 0 00-.297-.193l-4.278-.15a.097.097 0 01-.078-.045c-.242-.367-1.949-2.977-1.949-2.977-.08-.121-.225-.18-.365-.147s-.246.149-.266.292l-.205 1.564a.09.09 0 01-.039.067 4.664 4.664 0 00-1.635 2.41c-.148.523-.273 1.444-.325 1.85l-2.161.004a.1.1 0 00-.083.045.097.097 0 00-.005.095l1.683 3.54c.111.236.35.389.611.391 1.904.025 9.61.111 11.603-.004a4.33 4.33 0 00.732-.1c.543-.133.902-.65.836-1.207l-.263-2.189zM7.713 12.53c.053-.418.162-1.201.292-1.661.412-1.451 1.51-2.133 1.51-2.133a.346.346 0 00.16-.248l.076-.571a.095.095 0 01.074-.083.095.095 0 01.105.041l1.42 2.168a.343.343 0 00.275.156l4.241.148c.035 0 .068.021.084.055l1.028 2.11-9.265.018z" fill="#fff"/>
</svg>
