<svg xmlns="http://www.w3.org/2000/svg" width="25" height="25" viewBox="0 0 25 25">
  <g fill="none" fill-rule="evenodd">
    <path d="M0 0h25v25H0z"/>
    <circle cx="12.5" cy="12.5" r="12.5" fill="#C1001F"/>
    <path fill="#FFF" fill-rule="nonzero" d="M12.2992 10.928c1.3391 0 1.9292.728 1.9824 1.4715l.004.1115V15.9H12.924l-.067-.6466c-.2902.5353-.8482.7136-1.3614.7136-.8704 0-1.406-.5128-1.406-1.4938 0-1.0663.735-1.5615 2.2833-1.6025l.2162-.0028h.2455v-.156c0-.4461-.223-.669-.8258-.669-.5165 0-.9346.0656-1.2543.1545l-.1516.0462v-1.0702c.3124-.0893.9596-.2453 1.6963-.2453Zm-2.165.0224v1.4939c-.1115-.0223-.2677-.0223-.3794-.0223-.7141 0-1.0714.4236-1.0714 1.2709v2.207H7.032v-4.8158h1.4506l.0893.9588c.268-.8695.7365-1.0925 1.473-1.0925h.0894Zm10.735-.0001c.893 0 1.4733.6244 1.4733 1.6054v3.3442H20.713v-2.8983c0-.4013-.2007-.5796-.5131-.5796-.4465 0-.6251.3343-.6251.7358v2.7421h-1.5847v-2.8983c0-.4013-.2007-.5796-.513-.5796-.4466 0-.6252.3343-.6252.7358v2.7421h-1.6292v-4.8158h1.5623v.8473c.0893-.6243.6472-.9811 1.3392-.9811.6027 0 1.0714.3345 1.2944.8473.2455-.4905.692-.8473 1.4506-.8473ZM7.5674 9.0329v1.3154H5.9383V15.9H4.1528v-5.5516H2.6575V9.033h4.91Zm5.2672 4.593h-.1114c-.915 0-1.2054.2231-1.2054.7802 0 .424.223.6245.5358.6245.3523 0 .7238-.173.775-.7511l.006-.1408v-.5129Z"/>
  </g>
</svg>
