<?xml version="1.0" encoding="UTF-8"?>
<svg width="25px" height="25px" viewBox="0 0 25 25" version="1.1" xmlns="http://www.w3.org/2000/svg" xmlns:xlink="http://www.w3.org/1999/xlink">
    <title>Verkehr/NVV/nvvLegendeRegio</title>
    <g id="Assets" stroke="none" stroke-width="1" fill="none" fill-rule="evenodd">
        <g id="Assets/Verkehr/ÖPNV/NVV/Legende/Regio" transform="translate(0.000000, 0.000000)">
            <circle id="Oval" fill="#569387" cx="12.4999864" cy="12.4999922" r="12.5000015"></circle>
            <path d="M13.3210918,5.88203022 C16.2148553,5.88203022 17.368916,7.570962 17.368916,9.45484572 C17.368916,11.1275781 16.280118,12.2807179 14.8005817,12.6216975 L14.8005817,12.6216975 L14.8005817,12.6704821 C15.6459712,12.8652944 16.0684099,13.46621 16.409759,14.4730893 L16.409759,14.4730893 L17.9546512,19.1179542 L14.6216445,19.1179542 L13.3700622,15.0740049 C13.0772644,14.115817 12.5572109,13.8235288 11.8743265,13.8235288 L11.8743265,13.8235288 L11.1753359,13.8235288 L11.1753359,19.1179542 L8.05399082,19.1179542 L8.05399082,5.88203022 Z M12.3295828,8.09074074 L11.1752893,8.09074074 L11.1752893,11.5985257 L12.3457355,11.5985257 C13.3536767,11.5985257 14.11793,10.8677352 14.11793,9.87714849 C14.11793,8.85397665 13.5812582,8.09074074 12.3295828,8.09074074 L12.3295828,8.09074074 Z" id="Combined-Shape" fill="#FFFFFF" fill-rule="nonzero"></path>
        </g>
    </g>
</svg>