<?xml version="1.0" encoding="UTF-8"?>
<svg width="25px" height="25px" viewBox="0 0 25 25" version="1.1" xmlns="http://www.w3.org/2000/svg" xmlns:xlink="http://www.w3.org/1999/xlink">
    <title>Verkehr/NVV/nvvLegendeBus</title>
    <g id="Assets" stroke="none" stroke-width="1" fill="none" fill-rule="evenodd">
        <g id="Bus-NVV" transform="translate(0.000000, 0.000000)">
            <rect id="Rectangle" x="0" y="0" width="25" height="25"></rect>
            <g id="Bus" fill-rule="nonzero">
                <circle id="circle3" fill="#FFFFFF" cx="12.5" cy="12.5" r="12.5"></circle>
                <g id="g5" transform="translate(0.591528, 0.592298)" fill="#751673">
                    <path d="M11.9085067,23.8124637 C5.34249101,23.8124637 0.00370977155,18.4735581 0.00370977155,11.9077018 C0.00370977155,5.34184536 5.34249101,0.00293981033 11.9085067,0.00293981033 C18.4743824,0.00293981033 23.8132336,5.34184536 23.8132336,11.9077018 C23.8132336,18.4735581 18.4743824,23.8124637 11.9085067,23.8124637 Z M6.74184484,11.9077018 C7.68902651,11.6063712 8.16261735,11.0895945 8.16261735,10.0778798 C8.16261735,8.93709341 7.34450773,8.07572898 5.38553836,8.07572898 L2.62994805,8.07572898 L2.62994805,16.0194465 L5.19186029,16.0194465 C7.21550567,16.0194465 8.22715337,15.2877137 8.22715337,13.7805009 C8.22715337,12.725809 7.73207386,12.058332 6.74184484,11.9077018 L6.74184484,11.9077018 Z M5.08413692,11.3480179 L4.6752221,11.3480179 L4.6752221,9.56138313 L5.08413692,9.56138313 C5.70849847,9.56138313 6.11748329,9.81952648 6.11748329,10.4653748 C6.11741329,10.9820815 5.70849847,11.3480179 5.08413692,11.3480179 L5.08413692,11.3480179 Z M5.27795498,14.5770495 L4.67515211,14.5770495 L4.67515211,12.6609932 L5.32086234,12.6609932 C5.98834124,12.6609932 6.22513667,13.0055109 6.22513667,13.6298007 C6.22520665,14.2324618 5.90224654,14.5770495 5.27795498,14.5770495 Z M15.4388793,8.07572898 L13.4367226,8.07572898 L13.4367226,13.0055809 C13.4367226,14.0604829 13.1569498,14.4479779 12.4682622,14.4479779 C11.8436907,14.4479779 11.5424992,14.0389243 11.5424992,13.1562112 L11.5424992,8.07572898 L9.38971178,8.07572898 L9.38971178,13.4146345 C9.38971178,15.0290104 10.3583121,16.1055409 12.4250749,16.1055409 C14.3839742,16.1055409 15.4388793,15.0076618 15.4388793,13.113234 L15.4388793,8.07572898 Z M20.0458556,11.2402248 C18.9908805,10.8314512 18.7327364,10.5514693 18.7327364,10.1423457 C18.7327364,9.71201341 19.0556966,9.41061286 19.7660828,9.41061286 C20.2610223,9.41061286 20.8852439,9.56131314 21.3803934,9.79775788 L21.4665581,8.24791787 C20.7131945,8.07565899 20.0673443,7.98977453 19.3998654,7.98977453 C17.6777614,7.98977453 16.5367617,8.8937662 16.5367617,10.3145345 C16.5367617,11.4556009 17.0964472,12.2521495 18.2375169,12.6392946 C19.421564,13.0486981 19.6583594,13.3068415 19.6583594,13.7587323 C19.6583594,14.2323918 19.2063973,14.4478379 18.5389184,14.4478379 C17.9791628,14.4478379 17.440966,14.383372 16.7951858,14.1033201 L16.6874624,15.8471176 C17.505572,16.0193765 18.1730509,16.1054709 18.8618085,16.1054709 C20.7561718,16.1054709 21.8756829,15.0721276 21.8756829,13.5222876 C21.8756129,12.445827 21.3803934,11.7570715 20.0458556,11.2402248 Z" id="path7"></path>
                </g>
            </g>
        </g>
    </g>
</svg>