<svg xmlns="http://www.w3.org/2000/svg" width="25" height="25" viewBox="0 0 25 25">
  <g fill="none" fill-rule="evenodd">
    <path d="M0 0h25v25H0z"/>
    <circle cx="12.5" cy="12.5" r="12.5" fill="#C1001F"/>
    <path fill="#FFF" d="M11.8098 7.815c.7078.7356 1.0314 2.4667.3357 3.5425-.3746.5791-.9836.9028-1.7902 1.1188.239.1656.536.2364.746.4477.5536.558.7492 1.5847 1.0068 2.4987.2314.8208.5013 1.6318.6704 2.3398l.0755.345H9.796c-.1807-.6054-.4093-1.3895-.634-2.2375-.2525-.9517-.3388-2.1127-1.4853-2.1629l-.1556-.0001v4.4005H4.5005L4.5007 6.92l.0991.0004.0342.0001 1.1064.0003c.1122-.0002.2273-.0006.3432-.0011l.3481-.0021c.3463-.0026.6807-.0067.9457-.0133 1.8027-.0444 3.5479-.0088 4.4324.9108Zm9.3227-.8951v2.2748h-2.424v8.9128H15.688V9.1947h-2.3867v-2.163c-.0032-.0527-.0062-.1056.0373-.1118h7.7939ZM7.642 9.081l-.1957.002v2.4614c.5385 0 .8786.0813 1.2679-.0374.898-.2739 1.0179-1.622.4104-2.163-.3281-.2919-.8429-.272-1.4826-.263Z"/>
  </g>
</svg>
