<svg width="25" height="25" viewBox="0 0 25 25" version="1.1" xmlns="http://www.w3.org/2000/svg"><g stroke="none" stroke-width="1" fill="none" fill-rule="evenodd"><path d="M0 0h25v25H0z"/><g fill-rule="nonzero"><path d="M25 12.5C25 19.404 19.404 25 12.5 25S0 19.404 0 12.5C0 5.597 5.596 0 12.5 0S25 5.597 25 12.5z" fill="#F8DD38"/><path d="M12.5 24.405C5.934 24.405.595 19.066.595 12.5.595 5.934 5.934.595 12.5.595c6.566 0 11.905 5.34 11.905 11.905 0 6.566-5.34 11.905-11.905 11.905zM8.108 8.604H5.762l-2.648 8.03h1.98l.517-1.744h2.454l.43 1.743h2.11l-2.497-8.03zm-2.088 4.8l.904-3.207h.022l.753 3.207H6.02zm7.104-2.69c0-.431.323-.733 1.034-.733.495 0 1.12.13 1.593.323l.086-1.593a8.706 8.706 0 00-2.046-.215c-1.721 0-2.862.969-2.862 2.432 0 2.778 3.12 2.046 3.12 3.488 0 .495-.451.732-1.118.732-.56 0-1.185-.108-1.744-.344l-.108 1.722c.71.172 1.486.258 2.174.258 1.895 0 3.014-1.055 3.014-2.648 0-2.626-3.143-2.023-3.143-3.423zm8.956-2.11h-5.533v1.55h1.765v6.48h2.002v-6.48h1.766v-1.55z" fill="#000"/></g></g></svg>