<svg width="25" height="25" viewBox="0 0 25 25" version="1.1" xmlns="http://www.w3.org/2000/svg"><g stroke="none" stroke-width="1" fill="none" fill-rule="evenodd"><path d="M0 0h25v25H0z"/><g fill-rule="nonzero"><circle fill="#FFF" cx="12.5" cy="12.5" r="12.5"/><path d="M12.5 24.405C5.934 24.405.595 19.065.595 12.5.595 5.934 5.934.595 12.5.595c6.566 0 11.905 5.34 11.905 11.905 0 6.566-5.34 11.905-11.905 11.905zM7.333 12.5c.948-.301 1.421-.818 1.421-1.83 0-1.14-.818-2.002-2.777-2.002H3.221v7.944h2.562c2.024 0 3.036-.732 3.036-2.24 0-1.054-.495-1.721-1.486-1.872zm-1.657-.56h-.41v-1.786h.41c.624 0 1.033.258 1.033.904 0 .516-.409.882-1.033.882zm.193 3.23h-.602v-1.917h.645c.668 0 .905.345.905.97 0 .602-.323.946-.948.946zM16.03 8.667h-2.002v4.93c0 1.055-.28 1.442-.968 1.442-.625 0-.926-.409-.926-1.291V8.668H9.981v5.339c0 1.614.969 2.69 3.036 2.69 1.959 0 3.013-1.097 3.013-2.991V8.668zm4.607 3.165c-1.055-.41-1.313-.69-1.313-1.098 0-.43.323-.732 1.034-.732.495 0 1.119.15 1.614.387l.086-1.55c-.753-.172-1.4-.258-2.067-.258-1.722 0-2.863.904-2.863 2.325 0 1.14.56 1.937 1.701 2.325 1.184.409 1.42.667 1.42 1.119 0 .474-.451.69-1.119.69-.56 0-1.098-.065-1.743-.345l-.108 1.743c.818.173 1.486.259 2.174.259 1.895 0 3.014-1.034 3.014-2.583 0-1.077-.495-1.766-1.83-2.282z" fill="#751673"/></g></g></svg>