<svg width="25" height="25" viewBox="0 0 25 25" version="1.1" xmlns="http://www.w3.org/2000/svg"><g stroke="none" stroke-width="1" fill="none" fill-rule="evenodd"><path d="M0 0h25v25H0z"/><g><circle fill="#C1001F" cx="12.5" cy="12.5" r="12.5"/><path d="M11.81 7.815c.708.736 1.031 2.467.336 3.543-.375.579-.984.902-1.79 1.118.238.166.535.237.745.448.554.558.75 1.585 1.007 2.499.231.82.501 1.632.67 2.34l.076.345H9.796c-.18-.606-.41-1.39-.634-2.238-.252-.952-.339-2.113-1.485-2.163H7.52v4.4h-3.02V6.92H6.084l.348-.002c.346-.003.68-.007.945-.014 1.803-.044 3.548-.008 4.433.911zm9.322-.895v2.275H18.71v8.913h-3.021V9.195h-2.387V7.032c-.003-.053-.006-.106.038-.112h7.793zM7.642 9.08l-.196.002v2.461c.539 0 .879.082 1.268-.037.898-.274 1.018-1.622.41-2.163-.327-.292-.842-.272-1.482-.263z" fill="#FFF"/></g></g></svg>