<svg xmlns="http://www.w3.org/2000/svg" width="25" height="25" viewBox="0 0 25 25">
  <g fill="none" fill-rule="evenodd">
    <path d="M0 0h25v25H0z"/>
    <g fill-rule="nonzero">
      <path fill="#F8DD38" d="M25 12.4999C25 19.4036 19.4036 25 12.5 25S0 19.4036 0 12.4999C0 5.5965 5.5964 0 12.5 0S25 5.5965 25 12.4999Z"/>
      <path fill="#000" d="M12.5001 24.4048C5.934 24.4048.5952 19.066.5952 12.4998.5952 5.9344 5.934.5953 12.5002.5953c6.5655 0 11.9046 5.339 11.9046 11.9047 0 6.5661-5.339 11.9049-11.9047 11.9049ZM8.1083 8.6036H5.7617l-2.6476 8.0298h1.9803l.5168-1.7437h2.454l.4306 1.7437h2.11L8.1082 8.6036ZM6.02 13.4042l.9043-3.2075h.0215l.7535 3.2075H6.02Zm7.1043-2.6908c0-.4306.3228-.7323 1.0333-.7323.495 0 1.1194.1295 1.5931.323l.0861-1.5927c-.7535-.1722-1.3778-.2156-2.0454-.2156-1.722 0-2.863.9691-2.863 2.4327 0 2.7771 3.1214 2.0454 3.1214 3.4875 0 .495-.452.732-1.1194.732-.5598 0-1.184-.1077-1.7435-.3444l-.108 1.722c.7105.1722 1.4856.2583 2.1744.2583 1.8945 0 3.0139-1.0546 3.0139-2.6477 0-2.6265-3.1429-2.0236-3.1429-3.4228Zm8.9552-2.1098h-5.5323v1.5497h1.765v6.48h2.002v-6.48h1.7654V8.6036h-.0001Z"/>
    </g>
  </g>
</svg>
