<svg width="25" height="25" viewBox="0 0 25 25" version="1.1" xmlns="http://www.w3.org/2000/svg"><g stroke="none" stroke-width="1" fill="none" fill-rule="evenodd"><path d="M0 0h25v25H0z"/><circle fill="#C1001F" cx="12.5" cy="12.5" r="12.5"/><path d="M12.3 10.928c1.338 0 1.928.728 1.982 1.471l.004.112V15.9h-1.362l-.067-.647c-.29.536-.848.714-1.361.714-.87 0-1.406-.513-1.406-1.494 0-1.066.735-1.561 2.283-1.602l.216-.003h.246v-.156c0-.446-.223-.67-.826-.67-.517 0-.935.067-1.254.155l-.152.047v-1.07c.312-.09.96-.246 1.696-.246zm-2.166.022v1.494c-.111-.022-.268-.022-.38-.022-.713 0-1.07.424-1.07 1.27V15.9H7.031v-4.816h1.45l.09.959c.268-.87.736-1.093 1.473-1.093h.09zm10.735 0c.893 0 1.474.625 1.474 1.606V15.9h-1.63v-2.898c0-.402-.2-.58-.513-.58-.447 0-.625.334-.625.736V15.9H17.99v-2.898c0-.402-.2-.58-.513-.58-.446 0-.625.334-.625.736V15.9h-1.63v-4.816h1.563v.847c.09-.624.647-.98 1.34-.98.602 0 1.07.334 1.294.847.245-.49.692-.848 1.45-.848zM7.567 9.033v1.315H5.938V15.9H4.153v-5.552H2.657V9.033h4.91zm5.268 4.593h-.112c-.915 0-1.205.223-1.205.78 0 .424.223.625.536.625.352 0 .723-.173.775-.752l.006-.14v-.513z" fill="#FFF" fill-rule="nonzero"/></g></svg>