<svg xmlns="http://www.w3.org/2000/svg" width="25" height="25" viewBox="0 0 25 25">
  <g fill="none" fill-rule="evenodd">
    <path d="M0 0h25v25H0z"/>
    <g fill-rule="nonzero">
      <circle cx="12.5" cy="12.5" r="12.5" fill="#FFF"/>
      <path fill="#751673" d="M12.5 24.4048C5.934 24.4048.5952 19.0658.5952 12.5.5952 5.9341 5.934.5952 12.5.5952S24.4048 5.9342 24.4048 12.5c0 6.5659-5.3389 11.9048-11.9048 11.9048ZM7.3334 12.5c.9472-.3013 1.4207-.8181 1.4207-1.8298 0-1.1408-.818-2.0022-2.777-2.0022H3.2215v7.9437h2.5619c2.0236 0 3.0353-.7317 3.0353-2.2389 0-1.0547-.4951-1.7222-1.4853-1.8728Zm-1.6577-.5597h-.409v-1.7866h.409c.6243 0 1.0333.2581 1.0333.904 0 .5167-.409.8826-1.0333.8826Zm.1938 3.229h-.6028v-1.916h.6457c.6675 0 .9043.3445.9043.9688 0 .6027-.323.9472-.9472.9472Zm10.161-6.5013h-2.0022v4.9299c0 1.0549-.2798 1.4424-.9685 1.4424-.6246 0-.9258-.409-.9258-1.2918V8.668H9.9812v5.339c0 1.6143.9686 2.6908 3.0354 2.6908 1.9589 0 3.0138-1.0978 3.0138-2.9923V8.668Zm4.6069 3.1645c-1.055-.4088-1.3131-.6887-1.3131-1.0979 0-.4303.323-.7317 1.0333-.7317.495 0 1.1192.1507 1.6143.3872l.0862-1.5499c-.7534-.1722-1.3992-.2581-2.0667-.2581-1.7221 0-2.8631.904-2.8631 2.3247 0 1.1411.5597 1.9376 1.7007 2.3248 1.184.4094 1.4209.6675 1.4209 1.1194 0 .4737-.452.6891-1.1195.6891-.5597 0-1.098-.0644-1.7437-.3445l-.1077 1.7438c.8181.1723 1.4856.2584 2.1743.2584 1.8944 0 3.014-1.0334 3.014-2.5832-.0002-1.0765-.4954-1.7652-1.83-2.282Z"/>
    </g>
  </g>
</svg>
