<?xml version="1.0" encoding="UTF-8"?>
<svg width="25px" height="25px" viewBox="0 0 25 25" version="1.1" xmlns="http://www.w3.org/2000/svg" xmlns:xlink="http://www.w3.org/1999/xlink">
    <title>Verkehr/NVV/nvvLegendeTaxi</title>
    <g id="Assets" stroke="none" stroke-width="1" fill="none" fill-rule="evenodd">
        <g id="Assets/Verkehr/ÖPNV/NVV/Legende/Taxi" transform="translate(0.000000, 0.000000)">
            <rect id="Rectangle" x="0" y="0" width="25" height="25"></rect>
            <g id="AST" fill-rule="nonzero">
                <path d="M25,12.4998857 C25,19.4036333 19.4035667,25 12.5,25 C5.59643333,25 0,19.4035571 0,12.4998857 C0,5.59651905 5.59635714,0 12.5,0 C19.4036429,0 25,5.59651905 25,12.4998857 Z" id="path5" fill="#F8DD38"></path>
                <g id="g7" transform="translate(0.556951, 0.549951)" fill="#000000">
                    <path d="M11.9431895,23.854811 C5.3769831,23.854811 0.0382875298,18.5161154 0.0382875298,11.949909 C0.0382875298,5.38433262 5.3769831,0.0452870782 11.9431895,0.0452870782 C18.5087659,0.0452870782 23.8478114,5.38426263 23.8478114,11.949909 C23.8478114,18.5160454 18.5088359,23.854811 11.9431895,23.854811 Z M7.55132281,8.0536804 L5.2047942,8.0536804 L2.55714502,16.0834224 L4.53745726,16.0834224 L5.05423392,14.3397648 L7.50827559,14.3397648 L7.93888781,16.0834224 L10.0487617,16.0834224 L7.55132281,8.0536804 Z M5.46314754,12.8542507 L6.36748919,9.64677762 L6.38890781,9.64677762 L7.1424092,12.8542507 L5.46314754,12.8542507 L5.46314754,12.8542507 Z M12.5674792,10.1634843 C12.5674792,9.73287207 12.8902984,9.43112154 13.6007525,9.43112154 C14.0958306,9.43112154 14.7201203,9.56061318 15.1938497,9.75422069 L15.2799442,8.16147345 C14.5264428,7.98921456 13.9021531,7.94588736 13.2345362,7.94588736 C11.5125772,7.94588736 10.3715809,8.91497484 10.3715809,10.3785104 C10.3715809,13.1556512 13.4929595,12.4239185 13.4929595,13.8660354 C13.4929595,14.3611135 13.0409286,14.5981182 12.3735917,14.5981182 C11.8137678,14.5981182 11.1894781,14.4903251 10.6300042,14.2536004 L10.5221411,15.9756293 C11.2325253,16.1478882 12.0076553,16.2339826 12.6964109,16.2339826 C14.5909086,16.2339826 15.7103464,15.1793607 15.7103464,13.5862635 C15.7102764,10.9597529 12.5674792,11.562624 12.5674792,10.1634843 L12.5674792,10.1634843 Z M21.5226314,8.0536804 L15.9903284,8.0536804 L15.9903284,9.60338042 L17.7553345,9.60338042 L17.7553345,16.0834224 L19.7574153,16.0834224 L19.7574153,9.60338042 L21.5227014,9.60338042 L21.5227014,8.0536804 L21.5226314,8.0536804 Z" id="path9"></path>
                </g>
            </g>
        </g>
    </g>
</svg>