<?xml version="1.0" encoding="utf-8"?>
<!-- Generator: Adobe Illustrator 24.2.1, SVG Export Plug-In . SVG Version: 6.00 Build 0)  -->
<svg version="1.1" id="Ebene_1" xmlns="http://www.w3.org/2000/svg" xmlns:xlink="http://www.w3.org/1999/xlink" x="0px" y="0px"
	 viewBox="0 0 12 15" style="enable-background:new 0 0 12 15;" xml:space="preserve">
<g>
	<path class="st0" d="M10.9,11.9h-0.4L10,10L9.5,7.7L9,5.5L8.5,3.2L8.3,2.1C8,0.9,7.1,0,6,0S4,0.9,3.7,2.1L3.5,3.2L3,5.5L2.5,7.7
		L2,10l-0.4,1.9H1.1c-0.6,0-1.1,0.6-1.1,1.4v0.3C0,14.4,0.5,15,1.1,15h9.7c0.6,0,1.1-0.6,1.1-1.4v-0.3
		C11.9,12.4,11.5,11.9,10.9,11.9z M11.5,13.6c0,0.5-0.2,0.9-0.6,0.9H1.1c-0.4,0-0.7-0.4-0.7-0.9v-0.3c0-0.5,0.3-0.9,0.7-0.9h0.3h9
		h0.3C11.6,12.4,11.5,13,11.5,13.6z M8.1,3.2l0.5,2.3H3.4l0.5-2.3H8.1z M9.1,7.7L9.6,10H2.4l0.5-2.3H9.1z"/>
</g>
</svg>
