<svg xmlns="http://www.w3.org/2000/svg" width="25" height="25"><circle cx="12.5" cy="12.5" r="12.5" fill="#009892"/><path d="M15.005 18.309a.099.099 0 00-.098.098v1.451c0 .055.044.098.098.098h.656a.098.098 0 00.098-.098v-1.451a.099.099 0 00-.098-.098h-.656zm2.556-2.346c.017-2.076.081-5.201.096-5.914a1.719 1.719 0 00-.023-.312c-.179-.979-.649-2.333-1.122-3.187-.44-.795-.877-1.116-1.841-1.315-.684-.141-2.17-.19-2.17-.19-.777.003-1.476.047-2.17.19-.964.199-1.4.52-1.842 1.315-.472.854-.943 2.209-1.122 3.187a1.712 1.712 0 00-.023.312c.014.713.079 3.838.096 5.914a1.93 1.93 0 001.929 1.912h6.264a1.93 1.93 0 001.928-1.912zM8.17 9.93a.096.096 0 01-.017-.086l.713-2.504a.099.099 0 01.095-.071h3.085c.055 0 .099.044.099.098V9.87a.098.098 0 01-.099.098H8.248a.094.094 0 01-.078-.038zm1.771 6.959a.89.89 0 11.001-1.78.89.89 0 01-.001 1.78zm2.559-4.54a.889.889 0 110-1.778.889.889 0 010 1.778zm2.741 4.54a.89.89 0 11.001-1.78.89.89 0 01-.001 1.78zm1.59-6.959a.101.101 0 01-.078.039h-3.799a.098.098 0 01-.099-.098V7.368c0-.054.044-.098.099-.098h3.085c.044 0 .083.029.095.071l.713 2.503a.099.099 0 01-.016.086zm-7.492 8.379a.098.098 0 00-.097.098v1.451c0 .055.043.098.097.098h.656a.098.098 0 00.098-.098v-1.451a.099.099 0 00-.098-.098h-.656z" fill="#fff"/></svg>