<svg xmlns="http://www.w3.org/2000/svg" width="25" height="25">
  <circle cx="12.5" cy="12.5" r="12.5" fill="#009252"/>
  <path d="M15.98 11.817c-2.529-1.407-3.91-.746-5.294-2.079-.834-.799-.369-2.251 1.455-2.191 2.466.079 4.631 2.199 4.631 2.199V7.498c-3.381-2.24-6.188-1.727-7.606-.687-2.21 1.614-2.735 5.217.735 6.672 1.682.705 3.089.792 3.888 1.136.927.398 1.468 2.23-.878 2.639-1.843.318-3.794-.77-5.347-2.672.015.033 0 2.594 0 2.594 2.593 2.16 7.122 3.055 9.489-.496 1.131-1.692.365-4.068-1.073-4.867z" fill="#fff"/>
</svg>
