<svg xmlns="http://www.w3.org/2000/svg" width="25" height="25">
  <circle cx="12.5" cy="12.5" r="12.5" fill="#d5a602"/>
  <circle cx="17.496" cy="13.542" r="1.016" fill="none"/>
  <path d="M18.227 11.068l-1.042-2.88a.768.768 0 00-.722-.507H8.537a.77.77 0 00-.722.507l-1.042 2.88h11.454z" fill="none"/>
  <circle cx="7.574" cy="13.542" r="1.016" fill="none"/>
  <path d="M6.845 15.913h11.311c.542 0 1.01-.408 1.117-.975.164-.848.22-1.619.155-2.463-.037-.488-.241-.975-.247-.99l-1.285-3.554a1.524 1.524 0 00-1.433-1.006H8.537c-.642 0-1.215.402-1.433 1.006a3801.64 3801.64 0 01-1.286 3.554c-.004.016-.209.502-.246.99a9.012 9.012 0 00.154 2.463c.109.567.577.975 1.119.975zm10.651-1.355a1.016 1.016 0 110-2.032 1.016 1.016 0 010 2.032zm-9.681-6.37a.768.768 0 01.722-.507h7.926a.77.77 0 01.722.507l1.042 2.88H6.774l1.041-2.88zm-.241 4.338a1.016 1.016 0 110 2.032 1.016 1.016 0 010-2.032zM9.036 16.412H7.672a.101.101 0 00-.069.027.102.102 0 00-.028.07v1.223c0 .188.153.342.343.342h.874a.343.343 0 00.343-.342v-1.223a.105.105 0 00-.028-.07.108.108 0 00-.071-.027zM17.162 16.412h-1.363a.104.104 0 00-.07.027.1.1 0 00-.027.07v1.223c0 .188.152.342.342.342h.875a.342.342 0 00.342-.342v-1.223a.104.104 0 00-.027-.07.113.113 0 00-.072-.027z" fill="#fff"/>
</svg>
