<svg xmlns="http://www.w3.org/2000/svg" width="25" height="25">
  <circle cx="12.5" cy="12.5" r="12.5" fill="#ee1c24"/>
  <path fill="#fff" d="M19.619 9.494h-9.01l1.812-1.812a.098.098 0 0 0 0-.137L9.563 4.688a.098.098 0 0 0-.137 0L6.568 7.546a.097.097 0 0 0 0 .137l1.811 1.812H5.82a.794.794 0 0 0-.793.733c-.111 1.418-.354 4.493-.441 5.627a.399.399 0 0 0 .398.433h.701a.995.995 0 0 0 1.891.134.995.995 0 0 0 1.885-.624.098.098 0 0 1 .094-.123h5.532c.03 0 .06.015.077.038a.1.1 0 0 1 .017.085.995.995 0 0 0 1.886.624.995.995 0 0 0 1.89-.134h1.06a.402.402 0 0 0 .4-.4v-5.597a.797.797 0 0 0-.798-.797zM7.543 15.008a.095.095 0 0 1-.07.029H5.516a.098.098 0 0 1-.072-.031.095.095 0 0 1-.027-.073l.289-4.705a.099.099 0 0 1 .098-.093h1.553a.1.1 0 0 1 .1.096l.117 4.706a.11.11 0 0 1-.031.071zm.1-7.45a.098.098 0 0 1 0-.137l1.725-1.725a.097.097 0 0 1 .137 0l1.725 1.725a.097.097 0 0 1 0 .137L9.504 9.283a.098.098 0 0 1-.137 0L7.643 7.558zm2.845 4.738a.1.1 0 0 1-.099.099H8.327a.099.099 0 0 1-.099-.099v-2.063a.1.1 0 0 1 .099-.099h2.063a.1.1 0 0 1 .099.099v2.063zm3.033 0a.099.099 0 0 1-.099.099h-2.063a.099.099 0 0 1-.099-.099v-2.063a.1.1 0 0 1 .099-.099h2.063a.1.1 0 0 1 .099.099v2.063zm3.032 0a.099.099 0 0 1-.099.099h-2.063a.099.099 0 0 1-.099-.099v-2.063a.1.1 0 0 1 .099-.099h2.063a.1.1 0 0 1 .099.099v2.063zm3.032 2.577a.099.099 0 0 1-.099.099h-2.063a.099.099 0 0 1-.099-.099v-4.64a.1.1 0 0 1 .099-.099h2.063a.1.1 0 0 1 .099.099v4.64z"/>
</svg>
