<svg xmlns="http://www.w3.org/2000/svg" width="25" height="25"><circle cx="12.5" cy="12.5" r="12.5" fill="#eb6810"/><path d="M19.619 9.494h-9.01l1.812-1.812a.098.098 0 000-.137L9.563 4.688a.098.098 0 00-.137 0L6.568 7.546a.097.097 0 000 .137l1.811 1.812H5.82a.794.794 0 00-.793.733c-.111 1.418-.354 4.493-.441 5.627a.399.399 0 00.398.433h.701a.995.995 0 001.891.134.995.995 0 001.885-.624.098.098 0 01.094-.123h5.532c.03 0 .06.015.077.038a.1.1 0 01.017.085.995.995 0 001.886.624.995.995 0 001.89-.134h1.06a.402.402 0 00.4-.4v-5.597a.797.797 0 00-.798-.797zM7.543 15.008a.095.095 0 01-.07.029H5.516a.098.098 0 01-.072-.031.095.095 0 01-.027-.073l.289-4.705a.099.099 0 01.098-.093h1.553a.1.1 0 01.1.096l.117 4.706a.11.11 0 01-.031.071zm.1-7.45a.098.098 0 010-.137l1.725-1.725a.097.097 0 01.137 0l1.725 1.725a.097.097 0 010 .137L9.504 9.283a.098.098 0 01-.137 0L7.643 7.558zm2.845 4.738a.1.1 0 01-.099.099H8.327a.099.099 0 01-.099-.099v-2.063a.1.1 0 01.099-.099h2.063a.1.1 0 01.099.099v2.063zm3.033 0a.099.099 0 01-.099.099h-2.063a.099.099 0 01-.099-.099v-2.063a.1.1 0 01.099-.099h2.063a.1.1 0 01.099.099v2.063zm3.032 0a.099.099 0 01-.099.099h-2.063a.099.099 0 01-.099-.099v-2.063a.1.1 0 01.099-.099h2.063a.1.1 0 01.099.099v2.063zm3.032 2.577a.099.099 0 01-.099.099h-2.063a.099.099 0 01-.099-.099v-4.64a.1.1 0 01.099-.099h2.063a.1.1 0 01.099.099v4.64z" fill="#fff"/></svg>