<svg xmlns="http://www.w3.org/2000/svg" width="25" height="25">
  <circle cx="12.5" cy="12.5" r="12.5" fill="#0067ad"/>
  <path d="M7.291 5.924v4.292c0 4.303.009 4.667.117 5.211.273 1.344 1.111 2.41 2.392 3.053.942.469 2.159.678 3.288.566 1.008-.096 1.949-.418 2.695-.914.375-.252.906-.773 1.135-1.113.336-.504.58-1.105.711-1.756.053-.252.059-.695.068-4.809l.012-4.531h-3.104v4.15c0 2.727-.014 4.256-.035 4.461-.043.369-.164.809-.285 1.035a1.744 1.744 0 01-.738.705c-.818.402-2.016.256-2.584-.311-.288-.289-.486-.754-.57-1.338-.019-.143-.031-1.821-.031-4.466V5.924H7.291z" fill="#fff"/>
</svg>
