<svg version="1.1" xmlns="http://www.w3.org/2000/svg" x="0" y="0" width="110" height="86" viewBox="0 0 110 86" xml:space="preserve"><path fill="#F0C900" d="M7 76c-3.309 0-6-2.996-6-6.678V16.677C1 12.996 3.691 10 7 10h96c3.309 0 6 2.996 6 6.677v52.645c0 3.682-2.691 6.678-6 6.678H7z"/><path d="M103 11c2.757 0 5 2.547 5 5.677v52.645c0 3.131-2.243 5.677-5 5.677H7c-2.757 0-5-2.547-5-5.677V16.677C2 13.547 4.243 11 7 11h96m0-2H7c-3.866 0-7 3.437-7 7.677v52.645C0 73.563 3.134 77 7 77h96c3.866 0 7-3.437 7-7.677V16.677c0-4.24-3.134-7.677-7-7.677z"/></svg>