<svg version="1.1" xmlns="http://www.w3.org/2000/svg" x="0" y="0" width="110" height="86" viewBox="0 0 110 86" xml:space="preserve"><path fill="#CC1A14" d="M7.544 80.893C9.066 78.089 50.438 4.405 51.989 1.937c1.55-2.467 4.134-2.727 5.685.13 1.55 2.857 42.818 74.906 44.574 78.047 1.515 2.71.798 5.87-2.553 5.849-3.747-.024-85.47.03-89.092.042-2.587.009-4.609-2.255-3.059-5.112z"/><path fill="#FFF" d="M19.992 77.014h70.271L54.998 14.542 19.862 76.754"/><circle cx="58.12" cy="40.372" r="3.251"/><path d="M54.479 74.704s-.13-.13.65-1.17 4.812-5.722 5.332-6.112c.52-.39 1.561-.78 2.081-1.3s3.901-4.682 4.292-5.202c.39-.52 1.691-1.04 2.341-1.04.65 0 2.081-.13 2.991.91.91 1.04 10.144 13.915 10.144 13.915H54.479z"/><path d="M62.412 65.081s-3.336-2.776-7.285-6.052a.686.686 0 00.003-.06V44.663c0-1.04-1.04-2.601-2.601-2.601h-9.233s-3.251 5.202-3.511 5.592c-.26.39-.26 1.561-.13 2.211.13.65 1.561 1.691 1.561 1.691l.889-1.563 1.885 1.547.648-1.173a165.274 165.274 0 00-1.881-1.521L44.92 45.3h2.991s-4.082 8.046-4.453 8.745l5.379 2.854.206-.386-.027-.015.337-.562 2.673-5.005c.011 1.839.03 3.856.059 5.577l-1.474-1.22c-.186.006-.392.106-.554.429a1.321 1.321 0 00-.143.678l2.207 1.808c.036 1.375.084 2.33.147 2.456.26.52 1.951 1.17 2.211.78.111-.167.246-.57.364-1.008l6.789 5.56s.26.26.65-.13.13-.78.13-.78zM42.941 55.024c-3.653 6.901-7.755 14.641-7.969 14.999-.39.65-.26 1.3-.26 1.821s.26 1.821.65 2.081l.78.52 8.525-15.003 4.48 4.989s.051 8.056.13 8.843c.13 1.3 3.121 1.561 3.121 1.561V63l-4.032-5.202-5.425-2.774z"/></svg>