<?xml version="1.0" encoding="utf-8"?>
<!-- Generator: Adobe Illustrator 17.0.1, SVG Export Plug-In . SVG Version: 6.00 Build 0)  -->
<!DOCTYPE svg PUBLIC "-//W3C//DTD SVG 1.1//EN" "http://www.w3.org/Graphics/SVG/1.1/DTD/svg11.dtd">
<svg version="1.1" id="blitzer" xmlns="http://www.w3.org/2000/svg" xmlns:xlink="http://www.w3.org/1999/xlink" x="0px" y="0px"
	 width="110px" height="86px" viewBox="0 0 110 86" enable-background="new 0 0 110 86" xml:space="preserve">
<path fill="#CB1C17" d="M7.666,80.888C9.188,78.084,50.56,4.399,52.111,1.932c1.55-2.467,4.134-2.727,5.685,0.13
	c1.55,2.857,42.818,74.906,44.574,78.047c1.515,2.71,0.798,5.87-2.553,5.849c-3.747-0.024-85.47,0.03-89.092,0.042
	C8.137,86.009,6.115,83.745,7.666,80.888z"/>
<polyline fill="#FFFFFF" points="20.117,77.008 90.388,77.008 55.123,14.537 19.988,76.748 "/>
<g>
	<path d="M44.341,45.408V69.16h21.983V45.408H44.341z M55.548,66.239c-2.039,0-3.692-1.653-3.692-3.692s1.653-3.692,3.692-3.692
		c2.039,0,3.692,1.653,3.692,3.692S57.587,66.239,55.548,66.239z M55.548,56.337c-2.039,0-3.692-1.653-3.692-3.692
		c0-2.039,1.653-3.692,3.692-3.692c2.039,0,3.692,1.653,3.692,3.692C59.24,54.684,57.587,56.337,55.548,56.337z"/>
	<polygon points="44.169,43.318 66.097,43.318 68.186,40.891 42.48,40.891 	"/>
	<polygon points="51.572,70.885 58.948,70.885 58.948,72.841 56.639,72.841 56.639,75.597 53.972,75.597 53.972,72.875 
		51.572,72.875 	"/>
</g>
</svg>
