<svg version="1.1" xmlns="http://www.w3.org/2000/svg" x="0" y="0" width="110" height="86" viewBox="0 0 110 86" xml:space="preserve"><path fill="#CB1C17" d="M7.666 80.888C9.188 78.084 50.56 4.399 52.111 1.932c1.55-2.467 4.134-2.727 5.685.13 1.55 2.857 42.818 74.906 44.574 78.047 1.515 2.71.798 5.87-2.553 5.849-3.747-.024-85.47.03-89.092.042-2.588.009-4.61-2.255-3.059-5.112z"/><path fill="#FFF" d="M20.117 77.008h70.271L55.123 14.537 19.988 76.748"/><path d="M44.341 45.408V69.16h21.983V45.408H44.341zm11.207 20.831a3.692 3.692 0 110-7.384 3.692 3.692 0 010 7.384zm0-9.902a3.692 3.692 0 110-7.384 3.692 3.692 0 010 7.384zM44.169 43.318h21.928l2.089-2.427H42.48zM51.572 70.885h7.376v1.956h-2.309v2.756h-2.667v-2.722h-2.4z"/></svg>