<svg version="1.1" xmlns="http://www.w3.org/2000/svg" x="0" y="0" width="110" height="86" viewBox="0 0 110 86" xml:space="preserve"><path fill="#005293" d="M98 81.302C98 84.152 96.152 86 93.303 86H16.698C13.848 86 12 84.152 12 81.303V4.698C12 1.848 13.848 0 16.697 0h76.605C96.152 0 98 1.848 98 4.697v76.605z"/><path fill="#FFF" d="M25.538 13.122h59.108v60.129H25.538z"/><path d="M64.064 65.4c-.993 0-1.474.156-1.474-1.645V38.188H44.479v2.056H46.6c.993 0 1.474.334 1.474 2.135v21.375c0 1.801-.481 1.645-1.474 1.645h-4.339v2.056h26.141V65.4h-4.338z"/><circle cx="55.107" cy="27.325" r="6.879"/></svg>