<svg version="1.1" xmlns="http://www.w3.org/2000/svg" x="0" y="0" width="110" height="86" viewBox="0 0 110 86" xml:space="preserve"><path fill="#CC1A14" d="M7.541 80.893C9.062 78.089 50.435 4.405 51.985 1.937c1.55-2.467 4.134-2.727 5.685.13 1.55 2.857 42.818 74.906 44.574 78.047 1.515 2.71.798 5.87-2.553 5.849-3.747-.024-85.47.03-89.092.042-2.587.009-4.609-2.255-3.058-5.112z"/><path fill="#FFF" d="M19.992 77.014h70.271L54.998 14.542 19.862 76.754"/><path d="M45.301 51.899l19.361 5.008c1.269.328 2.283.365 2.523-.56.24-.926.879-3.541 1.065-4.115.185-.574-.124-1.642-.25-2.004-.126-.362-.729-5.105-1.003-6.59-.274-1.486-1.481-1.487-1.481-1.487L51.71 38.579s-1.17-.451-2.13.715-3.674 4.89-3.959 5.145c-.285.255-1.074 1.039-1.19 1.631-.117.592-.825 3.189-1.064 4.115-.24.926.665 1.385 1.934 1.714zm5.752-11.808l14.302 3.699.904 5.379-18.605-4.812 3.399-4.266zm10.043 20.017c-.134.518.232.709.686.827l1.833.474c.454.118.867.128 1.001-.39l.887-3.429-3.521-.911-.886 3.429zm-8.774 1.655c3.359-.265 4.679-.319 5.58-.423 0 0 2.334-.36.39-.509-1.414.095-8.151-.201-12.958.969-3.843.936-4.266 1.905-4.219 2.508.067.86 1.157 1.086 3.054 1.366 1.605.237 1.92.771 1.878 1.342-.042.572-2.942 1.633-5.423 1.67-2.481.037-5.233.057-6.993-.144-1.76-.201-2.264 1.404-.438 1.685 1.826.281 7.575.396 10.769-.179 3.194-.576 6.181-1.766 6.181-3.338 0-1.065-1.216-1.323-2.532-1.504-1.316-.181-2.508-.262-2.444-1.085.066-.824 3.796-2.094 7.155-2.358zm-8.289-5.419l1.833.474c.454.118.867.128 1.001-.39l.887-3.429-3.521-.91-.887 3.429c-.134.518.232.709.687.826zM83.24 68.866c-.066-.731-2.092-2.155-6.512-2.155s-10.677-.507-12.571-.718c-1.894-.211-4.027-.859-3.987-1.855.04-.996.962-1.256 1.621-1.541.658-.285 1.414-.958-.407-.839-2.251.147-5.091 1.294-5.151 2.739-.06 1.444 5.102 2.807 7.482 2.919 2.38.112 9.125.451 11.575.451 2.451 0 3.596.583 3.615 1.207.019.625-1.023 1.139-.74 1.387.284.248 1.571.223 2.562-.137.816-.298 2.58-.728 2.513-1.458zm-47.425-3.623c-.051-.524.16-.494-.94-.843-1.1-.348-2.283-.953.441-2.076 3.131-1.291 8.074-1.927 12.882-2.135 4.808-.208 2.098-.672 2.098-.672-1.721 0-12.401.12-16.912 1.516-4.511 1.396-4.122 2.212-4.061 2.837.061.625.855 1.718 3.737 1.795.001.001 2.806.102 2.755-.422z"/></svg>