<svg version="1.1" xmlns="http://www.w3.org/2000/svg" x="0" y="0" width="110" height="86" viewBox="0 0 110 86" xml:space="preserve"><path fill="#CC1A14" d="M7.544 80.893C9.066 78.089 50.438 4.405 51.989 1.937c1.55-2.467 4.134-2.727 5.685.13 1.55 2.857 42.818 74.906 44.574 78.047 1.515 2.71.798 5.87-2.553 5.849-3.747-.024-85.47.03-89.092.042-2.587.009-4.609-2.255-3.059-5.112z"/><path fill="#FFF" d="M19.992 77.014h70.271L54.998 14.542 19.862 76.754"/><path d="M38.59 56.931c0 .369.276.433.598.433h1.298c.322 0 .598-.064.598-.433v-2.442H38.59v2.442zm8.905-2.754c.508-1.217 1.165-2.853 1.497-3.571.511-1.104 1.507-.989 1.507-.989h3.821a4.716 4.716 0 00-.272-.475c-.146-.22-1.36-3.282-1.797-4.226-.437-.944-1.239-.737-1.239-.737h-9.778s-.802-.207-1.239.737c-.437.944-1.652 4.006-1.797 4.226-.146.22-.534.879-.51 1.294.024.415 0 2.271 0 2.931s.68.81 1.579.81h8.228zm-7.961-5.44l1.524-3.435h10.131l1.524 3.435H39.534zm17.915 12.965c.601-1.437 1.436-3.527 1.847-4.413.604-1.304 1.783-1.167 1.783-1.167h4.983a5.271 5.271 0 00-.186-.307c-.17-.257-1.591-3.838-2.102-4.942-.511-1.104-1.449-.862-1.449-.862H50.89s-.982-.144-1.494.96c-.511 1.104-1.887 4.586-2.057 4.843-.17.257-.625 1.028-.597 1.514.029.486 0 2.656 0 3.427 0 .771.795.947 1.846.947h8.861zm-6.765-10.379h11.847l1.782 4.017H48.902l1.782-4.017zm29.183 13.832c.034-.573-.503-1.484-.704-1.787s-1.878-4.531-2.482-5.835c-.604-1.304-1.71-1.018-1.71-1.018H61.469s-1.179-.137-1.783 1.167c-.604 1.304-2.208 5.382-2.409 5.686s-.738 1.214-.704 1.787c.034.573 0 3.136 0 4.046s.938 1.118 2.18 1.118H77.688c1.241 0 2.18-.207 2.18-1.118s-.035-3.473-.001-4.046zm-20.745-2.348l2.104-4.742h13.988l2.104 4.742H59.122zM57.819 74.12c0 .51.381.598.825.598h1.793c.444 0 .825-.089.825-.598v-3.372h-3.443v3.372zm17.359 0c0 .51.381.598.825.598h1.793c.444 0 .825-.089.825-.598v-3.372h-3.443v3.372zm-27.38-9.198c0 .432.323.507.699.507h1.518c.376 0 .699-.075.699-.507v-2.856h-2.916v2.856z"/></svg>