<svg version="1.1" xmlns="http://www.w3.org/2000/svg" x="0" y="0" width="110" height="86" viewBox="0 0 110 86" xml:space="preserve"><path fill="#CC1A14" d="M7.541 80.893C9.062 78.089 50.435 4.405 51.985 1.937c1.55-2.467 4.134-2.727 5.685.13 1.55 2.857 42.818 74.906 44.574 78.047 1.515 2.71.798 5.87-2.553 5.849-3.747-.024-85.47.03-89.092.042-2.587.009-4.609-2.255-3.058-5.112z"/><path fill="#FFF" d="M19.992 77.014h70.271L54.998 14.542 19.862 76.754"/><path d="M34.025 70.191c.57-.177 1.253-1.094 1.253-1.964a2.166 2.166 0 00-4.332 0c0 .87.676 1.75 1.253 1.964.724.268 1.255.177 1.826 0zM58.881 57.954l2.967-3.01-.977-.502zM61.848 50.428l-1.484 3.512 2.724-3.088z"/><circle cx="51.31" cy="66.999" r="2.166"/><circle cx="77.061" cy="68.025" r="2.166"/><circle cx="59.52" cy="66.728" r="2.166"/><path d="M65.577 56.083v-1.428l-6.573 5.728zM68.834 54.133l-1.54 1.197 2.517-.271zM55.577 62.952c-.139.25-.555.464-.611.69-.056.226-.167.476 0 .92.167.445.266.833.438 1.139.12.212.37.557.512.749.318-.012.669-.017.953.003l.008-.074a2.665 2.665 0 015.306.447c3.992.275 8.396.749 12.219 1.001l.015-.15a2.665 2.665 0 015.304.486c.178.009.284.013.307.011.396-.031.967.1 1.02-.089a.145.145 0 00.003-.062c.019-.457.143-3.317.143-3.593v-.003c.018-.07.001-.141-.078-.217-.274-.26-4.29-4.097-4.437-4.256-.147-.159-.116-.183-.474-.231-.358-.047-8.935-.618-8.935-.618-.389-.023-.546-.025-.911.402-.325.382-2.324 1.967-2.956 2.497-.246.365-.33.365-.94.226-.611-.139-1.805-.692-2.305-.735-.5-.043-.75-.207-.972 0-.222.207-.306.29-.583.263-.278-.028-.611-.417-.611-.417s-.916.683-1.055.772c-.139.089-1.361 0-1.361 0s.14.589.001.839zm16.082-2.535l3.926.278 2.468 3.155s-3.276-.191-6.682-.394l.288-3.039zm-7.417 1.974c.233-.277 2.664-2.354 2.664-2.354l3.916.321-.29 3.048c-3.268-.196-5.801-.39-6.059-.424-.551-.073-.463-.314-.231-.591zM45.321 48.999h-1.54l3.08 2.509zM46.411 54.944l3.756 2.2-3.756-3.356zM57.228 49.81v8.419l1.653-7.801zM54.486 58.229l-3.831-3.285-.301 1.254z"/><path d="M29.282 68.366c.058 0 .477-.023 1.166-.064l-.002-.075a2.666 2.666 0 015.319-.253c3.993-.25 9.061-.574 12.884-.825a2.667 2.667 0 015.317-.365c.177-.014.283-.024.306-.029.389-.083.972-.028.999-.222.028-.194-.345-.278-.422-.472-.078-.194-.383-1.583-.383-1.999 0-.416.121-.639.296-.889.176-.25.592-.528.287-.75-.305-.222-4.915-3.388-5.081-3.526-.167-.139-.139-.167-.5-.167s-9.552.639-9.552.639c-.389.028-.639.194-.944.666-.305.472-2.499 2.721-2.749 3.027-.25.305-.361.305-.805.416-.444.111-5.72 1.388-6.248 1.555-.528.167-.5.333-.555.639-.056.305-.028 2.055 0 2.249.028.195.195.445.667.445zm19.603-8.522l2.86 2.886s-3.273.24-6.676.485l-.112-3.131 3.928-.24zm-11.634 3.33c.194-.305 2.332-2.683 2.332-2.683l4.537-.357.112 3.14c-3.265.234-6.414.455-6.675.455-.556 0-.5-.25-.306-.555zM50.354 49.347l-1.427 1.081 6.603 7.801zM55.53 52.184l-1.72.637 2.104 4.323zM52.27 45.603l-1.916.231 1.916 4.594z"/></svg>