<?xml version="1.0" encoding="utf-8"?>
<!-- Generator: Adobe Illustrator 17.0.1, SVG Export Plug-In . SVG Version: 6.00 Build 0)  -->
<!DOCTYPE svg PUBLIC "-//W3C//DTD SVG 1.1//EN" "http://www.w3.org/Graphics/SVG/1.1/DTD/svg11.dtd">
<svg version="1.1" xmlns="http://www.w3.org/2000/svg" xmlns:xlink="http://www.w3.org/1999/xlink" x="0px" y="0px" width="110px"
	 height="86px" viewBox="0 0 110 86" enable-background="new 0 0 110 86" xml:space="preserve">
<g id="verkehr" display="none">
	<g id="layer1_1_" display="inline">
		<path id="rect3836-5_1_" fill="#999999" d="M49.802,4.005c-1.806,0-2.875,1.598-3.256,3.432l-4.411,11.171H12.697
			c-1.806,0-2.875,1.598-3.256,3.432L0.145,45.57c-0.015,0.072-0.03,0.145-0.038,0.217C0.038,45.998,0,55.793,0,56.022v8.427
			c0,1.442,1.451,2.609,3.256,2.609h2.79v12.337c0,1.442,1.458,2.609,3.264,2.609h13.714c1.806,0,3.264-1.167,3.264-2.609V67.058
			h19.714v12.337c0,1.442,1.458,2.609,3.264,2.609h13.714c1.806,0,3.264-1.167,3.264-2.609V67.058h3.394
			c1.806,0,3.256-1.167,3.256-2.609v-8.427c0-0.08-0.014-1.979-0.023-3.567h10.236v12.337c0,1.442,1.458,2.609,3.264,2.609h13.714
			c1.806,0,3.264-1.167,3.264-2.609V52.456h3.394c1.806,0,3.256-1.167,3.256-2.609V41.42c0-0.229-0.038-10.025-0.107-10.236
			c-0.008-0.072-0.023-0.144-0.038-0.217l-9.295-23.53c-0.381-1.834-1.451-3.432-3.256-3.432H49.802L49.802,4.005z M53.624,8.671
			h39.368c1.497,0,2.382,1.266,2.698,2.722l7.705,18.678c0.012,0.057,0.024,0.115,0.031,0.172c0.057,0.168,0.092,7.946,0.092,8.127
			v6.692c0,1.145-1.202,2.071-2.698,2.071H72.826c-0.012-0.754-0.023-1.3-0.038-1.346c-0.008-0.072-0.023-0.144-0.038-0.217
			l-9.295-23.53c-0.381-1.834-1.451-3.432-3.256-3.432H47.952l2.974-7.215C51.242,9.937,52.127,8.671,53.624,8.671L53.624,8.671z
			 M16.519,23.273h39.368c1.497,0,2.382,1.266,2.698,2.722l7.705,18.678c0.012,0.057,0.024,0.115,0.031,0.172
			c0.057,0.168,0.092,7.946,0.092,8.127v6.692c0,1.145-1.202,2.071-2.698,2.071H8.691c-1.497,0-2.698-0.926-2.698-2.071v-6.692
			c0-0.182,0.035-7.96,0.092-8.127c0.007-0.057,0.018-0.115,0.031-0.172l7.705-18.678C14.137,24.539,15.022,23.273,16.519,23.273z
			 M88.359,52.598h9.685v9.982h-9.685L88.359,52.598L88.359,52.598z M11.466,67.111h9.693v9.982h-9.693V67.111z M51.254,67.2h9.685
			v9.982h-9.685V67.2z"/>
		<path id="rect3969-2-1_1_" fill="#999999" d="M16.339,44.52h10.862c1.47,0,2.662,1.166,2.662,2.603V48.1
			c0,1.438-1.192,2.603-2.662,2.603H16.339c-1.47,0-2.662-1.166-2.662-2.603v-0.976C13.677,45.686,14.869,44.52,16.339,44.52z"/>
		<path id="rect3969-2-4-7_1_" fill="#999999" d="M45.815,44.52h10.862c1.47,0,2.662,1.166,2.662,2.603V48.1
			c0,1.438-1.192,2.603-2.662,2.603H45.815c-1.47,0-2.662-1.166-2.662-2.603v-0.976C43.153,45.686,44.345,44.52,45.815,44.52z"/>
		<path id="rect3969-2-4-7-5_1_" fill="#999999" d="M83.41,29.922h10.862c1.47,0,2.662,1.166,2.662,2.603v0.976
			c0,1.438-1.192,2.603-2.662,2.603H83.41c-1.47,0-2.662-1.166-2.662-2.603v-0.976C80.748,31.087,81.94,29.922,83.41,29.922z"/>
	</g>
</g>
<g id="burger" display="none">
	<path display="inline" fill="#005293" d="M7.857,19h94.286c4.337,0,7.857-3.584,7.857-8s-3.52-8-7.857-8H7.857C3.52,3,0,6.584,0,11
		S3.52,19,7.857,19z M102.143,35H7.857C3.52,35,0,38.584,0,43s3.52,8,7.857,8h94.286c4.337,0,7.857-3.584,7.857-8
		S106.48,35,102.143,35z M102.143,67H7.857C3.52,67,0,70.584,0,75s3.52,8,7.857,8h94.286c4.337,0,7.857-3.584,7.857-8
		S106.48,67,102.143,67z"/>
</g>
<g id="Ebene_4" display="none">
</g>
<g id="Ebene_6" display="none">
</g>
<g id="Ebene_7" display="none">
</g>
<g id="autobahn_mit_Zahl" display="none">
	<path display="inline" fill="#005293" d="M106,21.021"/>
	<path display="inline" fill="#005293" d="M55,13.031"/>
	<path display="inline" fill="#005293" d="M4,21.083"/>
	<polygon display="inline" fill="#005293" points="0,17.937 55.078,9 110,18.004 110,67.76 55.167,77 0.013,67.803 	"/>
	<text transform="matrix(1 0 0 1 16.2469 59.9526)" display="inline" fill="#FFFFFF" font-family="'DIN-Bold'" font-size="48">672</text>
</g>
<g id="autobahn_ohne_zahl" display="none">
	<path display="inline" fill="#005293" d="M106,21.021"/>
	<path display="inline" fill="#005293" d="M55,13.031"/>
	<path display="inline" fill="#005293" d="M4,21.083"/>
	<polygon display="inline" fill="#005293" points="0,17.937 55.078,9 110,18.004 110,67.76 55.167,77 0.013,67.803 	"/>
</g>
<g id="bundesstrasse_mit_zahl" display="none">
	<g display="inline">
		<path fill="#F0C900" d="M7,76c-3.309,0-6-2.996-6-6.678V16.677C1,12.996,3.691,10,7,10h96c3.309,0,6,2.996,6,6.677v52.645
			c0,3.682-2.691,6.678-6,6.678H7z"/>
		<path d="M103,11c2.757,0,5,2.547,5,5.677v52.645c0,3.131-2.243,5.677-5,5.677H7c-2.757,0-5-2.547-5-5.677V16.677
			C2,13.547,4.243,11,7,11H103 M103,9H7c-3.866,0-7,3.437-7,7.677v52.645C0,73.563,3.134,77,7,77h96c3.866,0,7-3.437,7-7.677V16.677
			C110,12.437,106.866,9,103,9L103,9z"/>
	</g>
	<text transform="matrix(1 0 0 1 16.2842 59.9801)" display="inline" font-family="'DIN-Bold'" font-size="48">672</text>
</g>
<g id="bundesstrasse_ohne_zahl" display="none">
	<g display="inline">
		<path fill="#F0C900" d="M7,76c-3.309,0-6-2.996-6-6.678V16.677C1,12.996,3.691,10,7,10h96c3.309,0,6,2.996,6,6.677v52.645
			c0,3.682-2.691,6.678-6,6.678H7z"/>
		<path d="M103,11c2.757,0,5,2.547,5,5.677v52.645c0,3.131-2.243,5.677-5,5.677H7c-2.757,0-5-2.547-5-5.677V16.677
			C2,13.547,4.243,11,7,11H103 M103,9H7c-3.866,0-7,3.437-7,7.677v52.645C0,73.563,3.134,77,7,77h96c3.866,0,7-3.437,7-7.677V16.677
			C110,12.437,106.866,9,103,9L103,9z"/>
	</g>
</g>
<g id="landstrassen_mit_zahl_6_zeichen" display="none">
	<g display="inline">
		<path fill="#FFFFFF" d="M7,76c-3.309,0-6-2.996-6-6.678V16.677C1,12.996,3.691,10,7,10h96c3.309,0,6,2.996,6,6.677v52.645
			c0,3.682-2.691,6.678-6,6.678H7z"/>
		<path d="M103,11c2.757,0,5,2.547,5,5.677v52.645c0,3.131-2.243,5.677-5,5.677H7c-2.757,0-5-2.547-5-5.677V16.677
			C2,13.547,4.243,11,7,11H103 M103,9H7c-3.866,0-7,3.437-7,7.677v52.645C0,73.563,3.134,77,7,77h96c3.866,0,7-3.437,7-7.677V16.677
			C110,12.437,106.866,9,103,9L103,9z"/>
	</g>
	<text transform="matrix(1 0 0 1 10.9116 54.7852)" display="inline" font-family="'DIN-Bold'" font-size="30">L 2310</text>
</g>
<g id="kreisstrassen_mit_zahl_6_zeichen_Kopie" display="none">
	<g display="inline">
		<path fill="#FFFFFF" d="M7,76c-3.309,0-6-2.996-6-6.678V16.677C1,12.996,3.691,10,7,10h96c3.309,0,6,2.996,6,6.677v52.645
			c0,3.682-2.691,6.678-6,6.678H7z"/>
		<path d="M103,11c2.757,0,5,2.547,5,5.677v52.645c0,3.131-2.243,5.677-5,5.677H7c-2.757,0-5-2.547-5-5.677V16.677
			C2,13.547,4.243,11,7,11H103 M103,9H7c-3.866,0-7,3.437-7,7.677v52.645C0,73.563,3.134,77,7,77h96c3.866,0,7-3.437,7-7.677V16.677
			C110,12.437,106.866,9,103,9L103,9z"/>
	</g>
	<text transform="matrix(1 0 0 1 17.707 54.7852)" display="inline" font-family="'DIN-Bold'" font-size="30">K 180</text>
</g>
<g id="gemeindestrassen_mit_zahl_6_zeichen_Kopie_Kopie" display="none">
	<g display="inline">
		<path fill="#FFFFFF" d="M7,76c-3.309,0-6-2.996-6-6.678V16.677C1,12.996,3.691,10,7,10h96c3.309,0,6,2.996,6,6.677v52.645
			c0,3.682-2.691,6.678-6,6.678H7z"/>
		<path d="M103,11c2.757,0,5,2.547,5,5.677v52.645c0,3.131-2.243,5.677-5,5.677H7c-2.757,0-5-2.547-5-5.677V16.677
			C2,13.547,4.243,11,7,11H103 M103,9H7c-3.866,0-7,3.437-7,7.677v52.645C0,73.563,3.134,77,7,77h96c3.866,0,7-3.437,7-7.677V16.677
			C110,12.437,106.866,9,103,9L103,9z"/>
	</g>
	<text transform="matrix(1 0 0 1 6.6523 54.7852)" display="inline" font-family="'DIN-Bold'" font-size="30">GDA 10</text>
</g>
<g id="strassenuntrlage" display="none">
	<g display="inline">
		<path fill="#FFFFFF" d="M7,76c-3.309,0-6-2.996-6-6.678V16.677C1,12.996,3.691,10,7,10h96c3.309,0,6,2.996,6,6.677v52.645
			c0,3.682-2.691,6.678-6,6.678H7z"/>
		<path d="M103,11c2.757,0,5,2.547,5,5.677v52.645c0,3.131-2.243,5.677-5,5.677H7c-2.757,0-5-2.547-5-5.677V16.677
			C2,13.547,4.243,11,7,11H103 M103,9H7c-3.866,0-7,3.437-7,7.677v52.645C0,73.563,3.134,77,7,77h96c3.866,0,7-3.437,7-7.677V16.677
			C110,12.437,106.866,9,103,9L103,9z"/>
	</g>
</g>
<g id="stau" display="none">
	<path display="inline" fill="#CC1A14" d="M7.544,80.893C9.066,78.089,50.438,4.405,51.989,1.937c1.55-2.467,4.134-2.727,5.685,0.13
		c1.55,2.857,42.818,74.906,44.574,78.047c1.515,2.71,0.798,5.87-2.553,5.849c-3.747-0.024-85.47,0.03-89.092,0.042
		C8.016,86.014,5.994,83.75,7.544,80.893z"/>
	<polyline display="inline" fill="#FFFFFF" points="19.992,77.014 90.263,77.014 54.998,14.542 19.862,76.754 	"/>
	<g display="inline">
		<g>
			<path d="M38.59,56.931c0,0.369,0.276,0.433,0.598,0.433h1.298c0.322,0,0.598-0.064,0.598-0.433c0-0.369,0-2.442,0-2.442H38.59
				C38.59,54.488,38.59,56.561,38.59,56.931z M47.495,54.177c0.508-1.217,1.165-2.853,1.497-3.571
				c0.511-1.104,1.507-0.989,1.507-0.989h3.821c-0.101-0.203-0.209-0.38-0.272-0.475c-0.146-0.22-1.36-3.282-1.797-4.226
				c-0.437-0.944-1.239-0.737-1.239-0.737h-9.778c0,0-0.802-0.207-1.239,0.737c-0.437,0.944-1.652,4.006-1.797,4.226
				c-0.146,0.22-0.534,0.879-0.51,1.294c0.024,0.415,0,2.271,0,2.931s0.68,0.81,1.579,0.81h5.868c1.135,0,1.978,0,1.978,0H47.495z
				 M39.534,48.737l1.524-3.435h10.131l1.524,3.435H39.534z M57.449,61.702c0.601-1.437,1.436-3.527,1.847-4.413
				c0.604-1.304,1.783-1.167,1.783-1.167h4.983c-0.073-0.129-0.14-0.238-0.186-0.307c-0.17-0.257-1.591-3.838-2.102-4.942
				c-0.511-1.104-1.449-0.862-1.449-0.862H50.89c0,0-0.982-0.144-1.494,0.96c-0.511,1.104-1.887,4.586-2.057,4.843
				c-0.17,0.257-0.625,1.028-0.597,1.514c0.029,0.486,0,2.656,0,3.427c0,0.771,0.795,0.947,1.846,0.947H57.449z M50.684,51.323
				h11.847l1.782,4.017H48.902L50.684,51.323z M79.867,65.155c0.034-0.573-0.503-1.484-0.704-1.787s-1.878-4.531-2.482-5.835
				c-0.604-1.304-1.71-1.018-1.71-1.018H61.469c0,0-1.179-0.137-1.783,1.167c-0.604,1.304-2.208,5.382-2.409,5.686
				s-0.738,1.214-0.704,1.787c0.034,0.573,0,3.136,0,4.046s0.938,1.118,2.18,1.118h8.102c1.568,0,2.731,0,2.731,0h8.102
				c1.241,0,2.18-0.207,2.18-1.118S79.833,65.728,79.867,65.155z M59.122,62.807l2.104-4.742h13.988l2.104,4.742H59.122z
				 M57.819,74.12c0,0.51,0.381,0.598,0.825,0.598h1.793c0.444,0,0.825-0.089,0.825-0.598s0-3.372,0-3.372h-3.443
				C57.819,70.748,57.819,73.61,57.819,74.12z M75.178,74.12c0,0.51,0.381,0.598,0.825,0.598h1.793c0.444,0,0.825-0.089,0.825-0.598
				s0-3.372,0-3.372h-3.443C75.178,70.748,75.178,73.61,75.178,74.12z M47.798,64.922c0,0.432,0.323,0.507,0.699,0.507h1.518
				c0.376,0,0.699-0.075,0.699-0.507s0-2.856,0-2.856h-2.916C47.798,62.066,47.798,64.49,47.798,64.922z"/>
		</g>
	</g>
</g>
<g id="baustelle" display="none">
	<path display="inline" fill="#CC1A14" d="M7.544,80.893C9.066,78.089,50.438,4.405,51.989,1.937c1.55-2.467,4.134-2.727,5.685,0.13
		c1.55,2.857,42.818,74.906,44.574,78.047c1.515,2.71,0.798,5.87-2.553,5.849c-3.747-0.024-85.47,0.03-89.092,0.042
		C8.016,86.014,5.994,83.75,7.544,80.893z"/>
	<polyline display="inline" fill="#FFFFFF" points="19.992,77.014 90.263,77.014 54.998,14.542 19.862,76.754 	"/>
	<g display="inline">
		<circle cx="58.12" cy="40.372" r="3.251"/>
		<path d="M54.479,74.704c0,0-0.13-0.13,0.65-1.17s4.812-5.722,5.332-6.112c0.52-0.39,1.561-0.78,2.081-1.3s3.901-4.682,4.292-5.202
			c0.39-0.52,1.691-1.04,2.341-1.04c0.65,0,2.081-0.13,2.991,0.91c0.91,1.04,10.144,13.915,10.144,13.915H54.479z"/>
		<path d="M62.412,65.081c0,0-3.336-2.776-7.285-6.052c0.002-0.022,0.003-0.043,0.003-0.06V44.663c0-1.04-1.04-2.601-2.601-2.601
			c-1.561,0-9.233,0-9.233,0s-3.251,5.202-3.511,5.592c-0.26,0.39-0.26,1.561-0.13,2.211c0.13,0.65,1.561,1.691,1.561,1.691
			l0.889-1.563c0.442,0.363,1.092,0.896,1.885,1.547l0.648-1.173c-0.842-0.688-1.497-1.218-1.881-1.521L44.92,45.3h2.991
			c0,0-4.082,8.046-4.453,8.745l5.379,2.854l0.206-0.386l-0.027-0.015c0,0,0.337-0.562,0.337-0.562l2.673-5.005
			c0.011,1.839,0.03,3.856,0.059,5.577c-0.495-0.41-0.986-0.816-1.474-1.22c-0.186,0.006-0.392,0.106-0.554,0.429
			c-0.122,0.244-0.155,0.475-0.143,0.678c0.729,0.598,1.47,1.204,2.207,1.808c0.036,1.375,0.084,2.33,0.147,2.456
			c0.26,0.52,1.951,1.17,2.211,0.78c0.111-0.167,0.246-0.57,0.364-1.008c3.733,3.057,6.789,5.56,6.789,5.56s0.26,0.26,0.65-0.13
			S62.412,65.081,62.412,65.081z M42.941,55.024c-3.653,6.901-7.755,14.641-7.969,14.999c-0.39,0.65-0.26,1.3-0.26,1.821
			s0.26,1.821,0.65,2.081c0.39,0.26,0.78,0.52,0.78,0.52l8.525-15.003l4.48,4.989c0,0,0.051,8.056,0.13,8.843
			c0.13,1.3,3.121,1.561,3.121,1.561V63l-4.032-5.202L42.941,55.024z"/>
	</g>
</g>
<g id="verengte_fahrbahn" display="none">
	<path display="inline" fill="#CC1A14" d="M7.541,80.893C9.062,78.089,50.435,4.405,51.985,1.937c1.55-2.467,4.134-2.727,5.685,0.13
		c1.55,2.857,42.818,74.906,44.574,78.047c1.515,2.71,0.798,5.87-2.553,5.849c-3.747-0.024-85.47,0.03-89.092,0.042
		C8.012,86.014,5.99,83.75,7.541,80.893z"/>
	<polyline display="inline" fill="#FFFFFF" points="19.992,77.014 90.263,77.014 54.998,14.542 19.862,76.754 	"/>
	<g display="inline">
		<g>
			<polygon points="47.126,34.993 52.611,34.993 52.611,50.187 47.074,55.366 47.074,73.799 41.746,73.799 41.746,52.975 
				47.126,48.2 			"/>
		</g>
		<g>
			<polygon points="62.874,34.993 57.389,34.993 57.389,50.187 62.926,55.366 62.926,73.799 68.254,73.799 68.254,52.975 
				62.874,48.2 			"/>
		</g>
	</g>
</g>
<g id="schleudergefahr" display="none">
	<path display="inline" fill="#CC1A14" d="M7.541,80.893C9.062,78.089,50.435,4.405,51.985,1.937c1.55-2.467,4.134-2.727,5.685,0.13
		c1.55,2.857,42.818,74.906,44.574,78.047c1.515,2.71,0.798,5.87-2.553,5.849c-3.747-0.024-85.47,0.03-89.092,0.042
		C8.012,86.014,5.99,83.75,7.541,80.893z"/>
	<polyline display="inline" fill="#FFFFFF" points="19.992,77.014 90.263,77.014 54.998,14.542 19.862,76.754 	"/>
	<g display="inline">
		<path d="M45.301,51.899l19.361,5.008c1.269,0.328,2.283,0.365,2.523-0.56c0.24-0.926,0.879-3.541,1.065-4.115
			c0.185-0.574-0.124-1.642-0.25-2.004c-0.126-0.362-0.729-5.105-1.003-6.59c-0.274-1.486-1.481-1.487-1.481-1.487L51.71,38.579
			c0,0-1.17-0.451-2.13,0.715c-0.96,1.166-3.674,4.89-3.959,5.145c-0.285,0.255-1.074,1.039-1.19,1.631
			c-0.117,0.592-0.825,3.189-1.064,4.115C43.127,51.111,44.032,51.57,45.301,51.899z M51.053,40.091l14.302,3.699l0.904,5.379
			l-18.605-4.812L51.053,40.091z M61.096,60.108c-0.134,0.518,0.232,0.709,0.686,0.827l1.833,0.474
			c0.454,0.118,0.867,0.128,1.001-0.39c0.134-0.518,0.887-3.429,0.887-3.429l-3.521-0.911C61.982,56.679,61.229,59.59,61.096,60.108
			z M52.322,61.763c3.359-0.265,4.679-0.319,5.58-0.423c0,0,2.334-0.36,0.39-0.509c-1.414,0.095-8.151-0.201-12.958,0.969
			c-3.843,0.936-4.266,1.905-4.219,2.508c0.067,0.86,1.157,1.086,3.054,1.366c1.605,0.237,1.92,0.771,1.878,1.342
			c-0.042,0.572-2.942,1.633-5.423,1.67c-2.481,0.037-5.233,0.057-6.993-0.144c-1.76-0.201-2.264,1.404-0.438,1.685
			c1.826,0.281,7.575,0.396,10.769-0.179c3.194-0.576,6.181-1.766,6.181-3.338c0-1.065-1.216-1.323-2.532-1.504
			c-1.316-0.181-2.508-0.262-2.444-1.085C45.233,63.297,48.963,62.027,52.322,61.763z M44.033,56.344l1.833,0.474
			c0.454,0.118,0.867,0.128,1.001-0.39c0.134-0.518,0.887-3.429,0.887-3.429l-3.521-0.91c0,0-0.753,2.911-0.887,3.429
			C43.212,56.036,43.578,56.227,44.033,56.344z M83.24,68.866c-0.066-0.731-2.092-2.155-6.512-2.155
			c-4.42,0-10.677-0.507-12.571-0.718c-1.894-0.211-4.027-0.859-3.987-1.855c0.04-0.996,0.962-1.256,1.621-1.541
			c0.658-0.285,1.414-0.958-0.407-0.839c-2.251,0.147-5.091,1.294-5.151,2.739c-0.06,1.444,5.102,2.807,7.482,2.919
			c2.38,0.112,9.125,0.451,11.575,0.451c2.451,0,3.596,0.583,3.615,1.207c0.019,0.625-1.023,1.139-0.74,1.387
			c0.284,0.248,1.571,0.223,2.562-0.137C81.543,70.026,83.307,69.596,83.24,68.866z M35.815,65.243
			c-0.051-0.524,0.16-0.494-0.94-0.843c-1.1-0.348-2.283-0.953,0.441-2.076c3.131-1.291,8.074-1.927,12.882-2.135
			c4.808-0.208,2.098-0.672,2.098-0.672c-1.721,0-12.401,0.12-16.912,1.516c-4.511,1.396-4.122,2.212-4.061,2.837
			c0.061,0.625,0.855,1.718,3.737,1.795C33.061,65.666,35.866,65.767,35.815,65.243z"/>
	</g>
</g>
<g id="warnung" display="none">
	<path display="inline" fill="#CC1A14" d="M7.541,80.893C9.062,78.089,50.435,4.405,51.985,1.937c1.55-2.467,4.134-2.727,5.685,0.13
		c1.55,2.857,42.818,74.906,44.574,78.047c1.515,2.71,0.798,5.87-2.553,5.849c-3.747-0.024-85.47,0.03-89.092,0.042
		C8.012,86.014,5.99,83.75,7.541,80.893z"/>
	<polyline display="inline" fill="#FFFFFF" points="19.992,77.014 90.263,77.014 54.998,14.542 19.862,76.754 	"/>
	<text transform="matrix(1 0 0 1 43.4232 72.9654)" display="inline" font-family="'DIN-Bold'" font-size="60.0995">!</text>
</g>
<g id="unfall" display="none">
	<path display="inline" fill="#CC1A14" d="M7.541,80.893C9.062,78.089,50.435,4.405,51.985,1.937c1.55-2.467,4.134-2.727,5.685,0.13
		c1.55,2.857,42.818,74.906,44.574,78.047c1.515,2.71,0.798,5.87-2.553,5.849c-3.747-0.024-85.47,0.03-89.092,0.042
		C8.012,86.014,5.99,83.75,7.541,80.893z"/>
	<polyline display="inline" fill="#FFFFFF" points="19.992,77.014 90.263,77.014 54.998,14.542 19.862,76.754 	"/>
	<g display="inline">
		<g>
			<path d="M79.176,70.191H34.025c0.74-0.344,1.253-1.094,1.253-1.964c0-1.196-0.97-2.166-2.166-2.166
				c-1.196,0-2.166,0.97-2.166,2.166c0,0.87,0.513,1.62,1.253,1.964h-1.671l1.265,1.265H77.91L79.176,70.191z"/>
		</g>
		<g>
			<polygon points="58.881,57.954 61.848,54.944 60.871,54.442 			"/>
		</g>
		<g>
			<polygon points="61.848,50.428 60.364,53.94 63.088,50.852 			"/>
		</g>
		<g>
			<circle cx="51.31" cy="66.999" r="2.166"/>
		</g>
		<g>
			<circle cx="77.061" cy="68.025" r="2.166"/>
		</g>
		<g>
			<circle cx="59.52" cy="66.728" r="2.166"/>
		</g>
		<g>
			<polygon points="65.577,56.083 65.577,54.655 59.004,60.383 			"/>
		</g>
		<g>
			<polygon points="68.834,54.133 67.294,55.33 69.811,55.059 			"/>
		</g>
		<g>
			<path d="M55.577,62.952c-0.139,0.25-0.555,0.464-0.611,0.69c-0.056,0.226-0.167,0.476,0,0.92
				c0.167,0.445,0.266,0.833,0.438,1.139c0.12,0.212,0.37,0.557,0.512,0.749c0.318-0.012,0.669-0.017,0.953,0.003
				c0.003-0.025,0.005-0.049,0.008-0.074c0.193-1.459,1.532-2.486,2.992-2.293c1.375,0.182,2.366,1.381,2.314,2.74
				c3.992,0.275,8.396,0.749,12.219,1.001c0.004-0.05,0.009-0.1,0.015-0.15c0.193-1.46,1.532-2.486,2.992-2.293
				c1.388,0.183,2.384,1.404,2.312,2.779c0.178,0.009,0.284,0.013,0.307,0.011c0.396-0.031,0.967,0.1,1.02-0.089
				c0.006-0.021,0.006-0.042,0.003-0.062c0.019-0.457,0.143-3.317,0.143-3.593c0-0.001,0-0.002,0-0.003
				c0.018-0.07,0.001-0.141-0.078-0.217c-0.274-0.26-4.29-4.097-4.437-4.256c-0.147-0.159-0.116-0.183-0.474-0.231
				c-0.358-0.047-8.935-0.618-8.935-0.618c-0.389-0.023-0.546-0.025-0.911,0.402c-0.325,0.382-2.324,1.967-2.956,2.497
				c-0.246,0.365-0.33,0.365-0.94,0.226c-0.611-0.139-1.805-0.692-2.305-0.735c-0.5-0.043-0.75-0.207-0.972,0
				c-0.222,0.207-0.306,0.29-0.583,0.263c-0.278-0.028-0.611-0.417-0.611-0.417s-0.916,0.683-1.055,0.772
				c-0.139,0.089-1.361,0-1.361,0S55.716,62.702,55.577,62.952z M71.659,60.417l3.926,0.278l2.468,3.155
				c0,0-3.276-0.191-6.682-0.394L71.659,60.417z M64.242,62.391c0.233-0.277,2.664-2.354,2.664-2.354l3.916,0.321l-0.29,3.048
				c-3.268-0.196-5.801-0.39-6.059-0.424C63.922,62.909,64.01,62.668,64.242,62.391z"/>
		</g>
		<g>
			<polygon points="45.321,48.999 43.781,48.999 46.861,51.508 			"/>
		</g>
		<g>
			<polygon points="46.411,54.944 50.167,57.144 46.411,53.788 			"/>
		</g>
		<g>
			<polygon points="57.228,49.81 57.228,58.229 58.881,50.428 			"/>
		</g>
		<g>
			<polygon points="54.486,58.229 50.655,54.944 50.354,56.198 			"/>
		</g>
		<g>
			<path d="M29.282,68.366c0.058,0,0.477-0.023,1.166-0.064c-0.001-0.025-0.002-0.05-0.002-0.075c0-1.472,1.193-2.666,2.666-2.666
				c1.387,0,2.526,1.059,2.653,2.413c3.993-0.25,9.061-0.574,12.884-0.825c-0.003-0.05-0.005-0.1-0.005-0.151
				c0-1.472,1.194-2.666,2.666-2.666c1.4,0,2.547,1.08,2.656,2.452c0.177-0.014,0.283-0.024,0.306-0.029
				c0.389-0.083,0.972-0.028,0.999-0.222c0.028-0.194-0.345-0.278-0.422-0.472c-0.078-0.194-0.383-1.583-0.383-1.999
				c0-0.416,0.121-0.639,0.296-0.889c0.176-0.25,0.592-0.528,0.287-0.75c-0.305-0.222-4.915-3.388-5.081-3.526
				c-0.167-0.139-0.139-0.167-0.5-0.167c-0.361,0-9.552,0.639-9.552,0.639c-0.389,0.028-0.639,0.194-0.944,0.666
				c-0.305,0.472-2.499,2.721-2.749,3.027c-0.25,0.305-0.361,0.305-0.805,0.416c-0.444,0.111-5.72,1.388-6.248,1.555
				c-0.528,0.167-0.5,0.333-0.555,0.639c-0.056,0.305-0.028,2.055,0,2.249C28.643,68.116,28.81,68.366,29.282,68.366z
				 M48.885,59.844l2.86,2.886c0,0-3.273,0.24-6.676,0.485l-0.112-3.131L48.885,59.844z M37.251,63.174
				c0.194-0.305,2.332-2.683,2.332-2.683l4.537-0.357l0.112,3.14c-3.265,0.234-6.414,0.455-6.675,0.455
				C37.001,63.729,37.057,63.479,37.251,63.174z"/>
		</g>
		<g>
			<polygon points="50.354,49.347 48.927,50.428 55.53,58.229 			"/>
		</g>
		<g>
			<polygon points="55.53,52.184 53.81,52.821 55.914,57.144 			"/>
		</g>
		<g>
			<polygon points="52.27,45.603 50.354,45.834 52.27,50.428 			"/>
		</g>
	</g>
</g>
<g id="unfall_alternativ">
	<path fill="#CC1A14" d="M7.541,80.893C9.062,78.089,50.435,4.405,51.985,1.937c1.55-2.467,4.134-2.727,5.685,0.13
		c1.55,2.857,42.818,74.906,44.574,78.047c1.515,2.71,0.798,5.87-2.553,5.849c-3.747-0.024-85.47,0.03-89.092,0.042
		C8.012,86.014,5.99,83.75,7.541,80.893z"/>
	<polyline fill="#FFFFFF" points="19.992,77.014 90.263,77.014 54.998,14.542 19.862,76.754 	"/>
	<g>
		<g>
			<path d="M34.025,70.191c0.57-0.177,1.253-1.094,1.253-1.964c0-1.196-0.97-2.166-2.166-2.166c-1.196,0-2.166,0.97-2.166,2.166
				c0,0.87,0.676,1.75,1.253,1.964C32.923,70.459,33.454,70.368,34.025,70.191z"/>
		</g>
		<g>
			<polygon points="58.881,57.954 61.848,54.944 60.871,54.442 			"/>
		</g>
		<g>
			<polygon points="61.848,50.428 60.364,53.94 63.088,50.852 			"/>
		</g>
		<g>
			<circle cx="51.31" cy="66.999" r="2.166"/>
		</g>
		<g>
			<circle cx="77.061" cy="68.025" r="2.166"/>
		</g>
		<g>
			<circle cx="59.52" cy="66.728" r="2.166"/>
		</g>
		<g>
			<polygon points="65.577,56.083 65.577,54.655 59.004,60.383 			"/>
		</g>
		<g>
			<polygon points="68.834,54.133 67.294,55.33 69.811,55.059 			"/>
		</g>
		<g>
			<path d="M55.577,62.952c-0.139,0.25-0.555,0.464-0.611,0.69c-0.056,0.226-0.167,0.476,0,0.92
				c0.167,0.445,0.266,0.833,0.438,1.139c0.12,0.212,0.37,0.557,0.512,0.749c0.318-0.012,0.669-0.017,0.953,0.003
				c0.003-0.025,0.005-0.049,0.008-0.074c0.193-1.459,1.532-2.486,2.992-2.293c1.375,0.182,2.366,1.381,2.314,2.74
				c3.992,0.275,8.396,0.749,12.219,1.001c0.004-0.05,0.009-0.1,0.015-0.15c0.193-1.46,1.532-2.486,2.992-2.293
				c1.388,0.183,2.384,1.404,2.312,2.779c0.178,0.009,0.284,0.013,0.307,0.011c0.396-0.031,0.967,0.1,1.02-0.089
				c0.006-0.021,0.006-0.042,0.003-0.062c0.019-0.457,0.143-3.317,0.143-3.593c0-0.001,0-0.002,0-0.003
				c0.018-0.07,0.001-0.141-0.078-0.217c-0.274-0.26-4.29-4.097-4.437-4.256c-0.147-0.159-0.116-0.183-0.474-0.231
				c-0.358-0.047-8.935-0.618-8.935-0.618c-0.389-0.023-0.546-0.025-0.911,0.402c-0.325,0.382-2.324,1.967-2.956,2.497
				c-0.246,0.365-0.33,0.365-0.94,0.226c-0.611-0.139-1.805-0.692-2.305-0.735c-0.5-0.043-0.75-0.207-0.972,0
				c-0.222,0.207-0.306,0.29-0.583,0.263c-0.278-0.028-0.611-0.417-0.611-0.417s-0.916,0.683-1.055,0.772
				c-0.139,0.089-1.361,0-1.361,0S55.716,62.702,55.577,62.952z M71.659,60.417l3.926,0.278l2.468,3.155
				c0,0-3.276-0.191-6.682-0.394L71.659,60.417z M64.242,62.391c0.233-0.277,2.664-2.354,2.664-2.354l3.916,0.321l-0.29,3.048
				c-3.268-0.196-5.801-0.39-6.059-0.424C63.922,62.909,64.01,62.668,64.242,62.391z"/>
		</g>
		<g>
			<polygon points="45.321,48.999 43.781,48.999 46.861,51.508 			"/>
		</g>
		<g>
			<polygon points="46.411,54.944 50.167,57.144 46.411,53.788 			"/>
		</g>
		<g>
			<polygon points="57.228,49.81 57.228,58.229 58.881,50.428 			"/>
		</g>
		<g>
			<polygon points="54.486,58.229 50.655,54.944 50.354,56.198 			"/>
		</g>
		<g>
			<path d="M29.282,68.366c0.058,0,0.477-0.023,1.166-0.064c-0.001-0.025-0.002-0.05-0.002-0.075c0-1.472,1.193-2.666,2.666-2.666
				c1.387,0,2.526,1.059,2.653,2.413c3.993-0.25,9.061-0.574,12.884-0.825c-0.003-0.05-0.005-0.1-0.005-0.151
				c0-1.472,1.194-2.666,2.666-2.666c1.4,0,2.547,1.08,2.656,2.452c0.177-0.014,0.283-0.024,0.306-0.029
				c0.389-0.083,0.972-0.028,0.999-0.222c0.028-0.194-0.345-0.278-0.422-0.472c-0.078-0.194-0.383-1.583-0.383-1.999
				c0-0.416,0.121-0.639,0.296-0.889c0.176-0.25,0.592-0.528,0.287-0.75c-0.305-0.222-4.915-3.388-5.081-3.526
				c-0.167-0.139-0.139-0.167-0.5-0.167c-0.361,0-9.552,0.639-9.552,0.639c-0.389,0.028-0.639,0.194-0.944,0.666
				c-0.305,0.472-2.499,2.721-2.749,3.027c-0.25,0.305-0.361,0.305-0.805,0.416c-0.444,0.111-5.72,1.388-6.248,1.555
				c-0.528,0.167-0.5,0.333-0.555,0.639c-0.056,0.305-0.028,2.055,0,2.249C28.643,68.116,28.81,68.366,29.282,68.366z
				 M48.885,59.844l2.86,2.886c0,0-3.273,0.24-6.676,0.485l-0.112-3.131L48.885,59.844z M37.251,63.174
				c0.194-0.305,2.332-2.683,2.332-2.683l4.537-0.357l0.112,3.14c-3.265,0.234-6.414,0.455-6.675,0.455
				C37.001,63.729,37.057,63.479,37.251,63.174z"/>
		</g>
		<g>
			<polygon points="50.354,49.347 48.927,50.428 55.53,58.229 			"/>
		</g>
		<g>
			<polygon points="55.53,52.184 53.81,52.821 55.914,57.144 			"/>
		</g>
		<g>
			<polygon points="52.27,45.603 50.354,45.834 52.27,50.428 			"/>
		</g>
	</g>
</g>
<g id="sperrung" display="none">
	<circle display="inline" fill="#CC1A14" cx="55" cy="43" r="43"/>
	<circle display="inline" fill="#FFFFFF" cx="55" cy="43" r="31.84"/>
</g>
<g id="info" display="none">
	<g display="inline">
		<path fill="#005293" d="M98,81.302C98,84.152,96.152,86,93.303,86l-76.605,0C13.848,86,12,84.152,12,81.303l0-76.605
			C12,1.848,13.848,0,16.697,0l76.605,0C96.152,0,98,1.848,98,4.697L98,81.302z"/>
		<g>
			<rect x="25.538" y="13.122" fill="#FFFFFF" width="59.108" height="60.129"/>
		</g>
		<g>
			<path d="M64.064,65.4c-0.993,0-1.474,0.156-1.474-1.645c0-1.801,0-25.567,0-25.567H44.479v2.056c0,0,1.128,0,2.121,0
				s1.474,0.334,1.474,2.135v21.375c0,1.801-0.481,1.645-1.474,1.645s-4.339,0-4.339,0v2.056h26.141V65.4
				C68.402,65.4,65.057,65.4,64.064,65.4z"/>
		</g>
		<g>
			<circle cx="55.107" cy="27.325" r="6.879"/>
		</g>
	</g>
</g>
</svg>
