<svg xmlns="http://www.w3.org/2000/svg" xml:space="preserve" width="110" height="86" viewBox="0 0 110 86">
  <path fill="#CC1A14" d="M7.541 80.893C9.062 78.089 50.435 4.405 51.985 1.937c1.55-2.467 4.134-2.727 5.685.13 1.55 2.857 42.818 74.906 44.574 78.047 1.515 2.71.798 5.87-2.553 5.849-3.747-.024-85.47.03-89.092.042-2.587.009-4.609-2.255-3.058-5.112z"/>
  <path fill="#FFF" d="M19.992 77.014h70.271L54.998 14.542 19.862 76.754"/>
  <path d="M34.025 70.191c.57-.177 1.253-1.094 1.253-1.964 0-1.196-.97-2.166-2.166-2.166s-2.166.97-2.166 2.166c0 .87.676 1.75 1.253 1.964.724.268 1.255.177 1.826 0zm24.856-12.237 2.967-3.01-.977-.502zm2.967-7.526-1.484 3.512 2.724-3.088z"/>
  <circle cx="51.31" cy="66.999" r="2.166"/>
  <circle cx="77.061" cy="68.025" r="2.166"/>
  <circle cx="59.52" cy="66.728" r="2.166"/>
  <path d="M65.577 56.083v-1.428l-6.573 5.728zm3.257-1.95-1.54 1.197 2.517-.271zm-13.257 8.819c-.139.25-.555.464-.611.69-.056.226-.167.476 0 .92.167.445.266.833.438 1.139.12.212.37.557.512.749.318-.012.669-.017.953.003.003-.025.005-.049.008-.074.193-1.459 1.532-2.486 2.992-2.293 1.375.182 2.366 1.381 2.314 2.74 3.992.275 8.396.749 12.219 1.001.004-.05.009-.1.015-.15.193-1.46 1.532-2.486 2.992-2.293 1.388.183 2.384 1.404 2.312 2.779.178.009.284.013.307.011.396-.031.967.1 1.02-.089a.1453.1453 0 0 0 .003-.062c.019-.457.143-3.317.143-3.593v-.003c.018-.07.001-.141-.078-.217-.274-.26-4.29-4.097-4.437-4.256-.147-.159-.116-.183-.474-.231-.358-.047-8.935-.618-8.935-.618-.389-.023-.546-.025-.911.402-.325.382-2.324 1.967-2.956 2.497-.246.365-.33.365-.94.226-.611-.139-1.805-.692-2.305-.735-.5-.043-.75-.207-.972 0-.222.207-.306.29-.583.263-.278-.028-.611-.417-.611-.417s-.916.683-1.055.772c-.139.089-1.361 0-1.361 0s.14.589.001.839zm16.082-2.535 3.926.278 2.468 3.155s-3.276-.191-6.682-.394l.288-3.039zm-7.417 1.974c.233-.277 2.664-2.354 2.664-2.354l3.916.321-.29 3.048c-3.268-.196-5.801-.39-6.059-.424-.551-.073-.463-.314-.231-.591zM45.321 48.999h-1.54l3.08 2.509zm1.09 5.945 3.756 2.2-3.756-3.356zm10.817-5.134v8.419l1.653-7.801zm-2.742 8.419-3.831-3.285-.301 1.254z"/>
  <path d="M29.282 68.366c.058 0 .477-.023 1.166-.064-.001-.025-.002-.05-.002-.075 0-1.472 1.193-2.666 2.666-2.666 1.387 0 2.526 1.059 2.653 2.413 3.993-.25 9.061-.574 12.884-.825-.003-.05-.005-.1-.005-.151 0-1.472 1.194-2.666 2.666-2.666 1.4 0 2.547 1.08 2.656 2.452.177-.014.283-.024.306-.029.389-.083.972-.028.999-.222.028-.194-.345-.278-.422-.472-.078-.194-.383-1.583-.383-1.999 0-.416.121-.639.296-.889.176-.25.592-.528.287-.75-.305-.222-4.915-3.388-5.081-3.526-.167-.139-.139-.167-.5-.167s-9.552.639-9.552.639c-.389.028-.639.194-.944.666-.305.472-2.499 2.721-2.749 3.027-.25.305-.361.305-.805.416-.444.111-5.72 1.388-6.248 1.555-.528.167-.5.333-.555.639-.056.305-.028 2.055 0 2.249.028.195.195.445.667.445zm19.603-8.522 2.86 2.886s-3.273.24-6.676.485l-.112-3.131 3.928-.24zm-11.634 3.33c.194-.305 2.332-2.683 2.332-2.683l4.537-.357.112 3.14c-3.265.234-6.414.455-6.675.455-.556 0-.5-.25-.306-.555zm13.103-13.827-1.427 1.081 6.603 7.801zm5.176 2.837-1.72.637 2.104 4.323zm-3.26-6.581-1.916.231 1.916 4.594z"/>
</svg>
