<svg version="1.1" xmlns="http://www.w3.org/2000/svg" x="0" y="0" width="110" height="86" viewBox="0 0 110 86" xml:space="preserve"><path fill="#CC1A14" d="M7.541 80.893C9.062 78.089 50.435 4.405 51.985 1.937c1.55-2.467 4.134-2.727 5.685.13 1.55 2.857 42.818 74.906 44.574 78.047 1.515 2.71.798 5.87-2.553 5.849-3.747-.024-85.47.03-89.092.042-2.587.009-4.609-2.255-3.058-5.112z"/><path fill="#FFF" d="M19.992 77.014h70.271L54.998 14.542 19.862 76.754"/><path d="M47.126 34.993h5.485v15.194l-5.537 5.179v18.433h-5.328V52.975l5.38-4.775zM62.874 34.993h-5.485v15.194l5.537 5.179v18.433h5.328V52.975l-5.38-4.775z"/></svg>