<?xml version="1.0" encoding="utf-8"?>
<!-- Generator: Adobe Illustrator 18.1.1, SVG Export Plug-In . SVG Version: 6.00 Build 0)  -->
<svg version="1.1" id="Ebene_1" xmlns="http://www.w3.org/2000/svg" xmlns:xlink="http://www.w3.org/1999/xlink" x="0px" y="0px"
	 viewBox="11 2 110 86" enable-background="new 11 2 110 86" xml:space="preserve">
<g id="verkehr" display="none">
	<g id="layer1_1_" display="inline">
		<path id="rect3836-5_1_" fill="#999999" d="M60.8,6c-1.8,0-2.9,1.6-3.3,3.4l-4.4,11.2H23.7c-1.8,0-2.9,1.6-3.3,3.4l-9.3,23.5
			c0,0.1,0,0.1,0,0.2C11,48,11,57.8,11,58v8.4c0,1.4,1.5,2.6,3.3,2.6H17v12.3c0,1.4,1.5,2.6,3.3,2.6H34c1.8,0,3.3-1.2,3.3-2.6V69.1
			H57v12.3c0,1.4,1.5,2.6,3.3,2.6H74c1.8,0,3.3-1.2,3.3-2.6V69.1h3.4c1.8,0,3.3-1.2,3.3-2.6V58c0-0.1,0-2,0-3.6h10.2v12.3
			c0,1.4,1.5,2.6,3.3,2.6h13.7c1.8,0,3.3-1.2,3.3-2.6V54.5h3.4c1.8,0,3.3-1.2,3.3-2.6v-8.4c0-0.2,0-10-0.1-10.2c0-0.1,0-0.1,0-0.2
			l-9.3-23.5c-0.4-1.8-1.5-3.4-3.3-3.4L60.8,6L60.8,6z M64.6,10.7H104c1.5,0,2.4,1.3,2.7,2.7l7.7,18.7c0,0.1,0,0.1,0,0.2
			c0.1,0.2,0.1,7.9,0.1,8.1v6.7c0,1.1-1.2,2.1-2.7,2.1h-28c0-0.8,0-1.3,0-1.3c0-0.1,0-0.1,0-0.2L74.5,24c-0.4-1.8-1.5-3.4-3.3-3.4
			H59l3-7.2C62.2,11.9,63.1,10.7,64.6,10.7L64.6,10.7z M27.5,25.3h39.4c1.5,0,2.4,1.3,2.7,2.7l7.7,18.7c0,0.1,0,0.1,0,0.2
			c0.1,0.2,0.1,7.9,0.1,8.1v6.7c0,1.1-1.2,2.1-2.7,2.1h-55c-1.5,0-2.7-0.9-2.7-2.1V55c0-0.2,0-8,0.1-8.1c0-0.1,0-0.1,0-0.2L24.8,28
			C25.1,26.5,26,25.3,27.5,25.3z M99.4,54.6h9.7v10h-9.7V54.6L99.4,54.6z M22.5,69.1h9.7v10h-9.7C22.5,79.1,22.5,69.1,22.5,69.1z
			 M62.3,69.2h9.7v10h-9.7V69.2z"/>
		<path id="rect3969-2-1_1_" fill="#999999" d="M27.3,46.5h10.9c1.5,0,2.7,1.2,2.7,2.6v1c0,1.4-1.2,2.6-2.7,2.6H27.3
			c-1.5,0-2.7-1.2-2.7-2.6v-1C24.7,47.7,25.9,46.5,27.3,46.5z"/>
		<path id="rect3969-2-4-7_1_" fill="#999999" d="M56.8,46.5h10.9c1.5,0,2.7,1.2,2.7,2.6v1c0,1.4-1.2,2.6-2.7,2.6H56.8
			c-1.5,0-2.7-1.2-2.7-2.6v-1C54.2,47.7,55.3,46.5,56.8,46.5z"/>
		<path id="rect3969-2-4-7-5_1_" fill="#999999" d="M94.4,31.9h10.9c1.5,0,2.7,1.2,2.7,2.6v1c0,1.4-1.2,2.6-2.7,2.6H94.4
			c-1.5,0-2.7-1.2-2.7-2.6v-1C91.7,33.1,92.9,31.9,94.4,31.9z"/>
	</g>
</g>
<g id="burger" display="none">
	<path display="inline" fill="#005293" d="M18.9,21h94.3c4.3,0,7.9-3.6,7.9-8s-3.5-8-7.9-8H18.9C14.5,5,11,8.6,11,13
		S14.5,21,18.9,21z M113.1,37H18.9c-4.3,0-7.9,3.6-7.9,8s3.5,8,7.9,8h94.3c4.3,0,7.9-3.6,7.9-8S117.5,37,113.1,37z M113.1,69H18.9
		c-4.3,0-7.9,3.6-7.9,8s3.5,8,7.9,8h94.3c4.3,0,7.9-3.6,7.9-8S117.5,69,113.1,69z"/>
</g>
<g id="Ebene_4" display="none">
</g>
<g id="Ebene_6" display="none">
</g>
<g id="Ebene_7" display="none">
</g>
<g id="autobahn_mit_Zahl" display="none">
	<path display="inline" fill="#005293" d="M117,23"/>
	<path display="inline" fill="#005293" d="M66,15"/>
	<path display="inline" fill="#005293" d="M15,23.1"/>
	<polygon display="inline" fill="#005293" points="11,19.9 66.1,11 121,20 121,69.8 66.2,79 11,69.8 	"/>
	<text transform="matrix(1 0 0 1 27.2469 61.9526)" display="inline" fill="#FFFFFF" font-family="'DIN-Bold'" font-size="48">672</text>
</g>
<g id="autobahn_ohne_zahl" display="none">
	<path display="inline" fill="#005293" d="M117,23"/>
	<path display="inline" fill="#005293" d="M66,15"/>
	<path display="inline" fill="#005293" d="M15,23.1"/>
	<polygon display="inline" fill="#005293" points="11,19.9 66.1,11 121,20 121,69.8 66.2,79 11,69.8 	"/>
</g>
<g id="bundesstrasse_mit_zahl" display="none">
	<g display="inline">
		<path fill="#F0C900" d="M18,78c-3.3,0-6-3-6-6.7V18.7c0-3.7,2.7-6.7,6-6.7h96c3.3,0,6,3,6,6.7v52.6c0,3.7-2.7,6.7-6,6.7H18z"/>
		<path d="M114,13c2.8,0,5,2.5,5,5.7v52.6c0,3.1-2.2,5.7-5,5.7H18c-2.8,0-5-2.5-5-5.7V18.7c0-3.1,2.2-5.7,5-5.7H114 M114,11H18
			c-3.9,0-7,3.4-7,7.7v52.6c0,4.2,3.1,7.7,7,7.7h96c3.9,0,7-3.4,7-7.7V18.7C121,14.4,117.9,11,114,11L114,11z"/>
	</g>
	<text transform="matrix(1 0 0 1 27.2842 61.9801)" display="inline" font-family="'DIN-Bold'" font-size="48">672</text>
</g>
<g id="bundesstrasse_ohne_zahl" display="none">
	<g display="inline">
		<path fill="#F0C900" d="M18,78c-3.3,0-6-3-6-6.7V18.7c0-3.7,2.7-6.7,6-6.7h96c3.3,0,6,3,6,6.7v52.6c0,3.7-2.7,6.7-6,6.7H18z"/>
		<path d="M114,13c2.8,0,5,2.5,5,5.7v52.6c0,3.1-2.2,5.7-5,5.7H18c-2.8,0-5-2.5-5-5.7V18.7c0-3.1,2.2-5.7,5-5.7H114 M114,11H18
			c-3.9,0-7,3.4-7,7.7v52.6c0,4.2,3.1,7.7,7,7.7h96c3.9,0,7-3.4,7-7.7V18.7C121,14.4,117.9,11,114,11L114,11z"/>
	</g>
</g>
<g id="landstrassen_mit_zahl_6_zeichen" display="none">
	<g display="inline">
		<path fill="#FFFFFF" d="M18,76c-3.3,0-6-2.8-6-6.2V20.2c0-3.4,2.7-6.2,6-6.2h96c3.3,0,6,2.8,6,6.2v49.5c0,3.4-2.7,6.2-6,6.2L18,76
			L18,76z"/>
		<path d="M114,15c2.8,0,5,2.3,5,5.2v49.5c0,2.9-2.2,5.2-5,5.2H18c-2.8,0-5-2.3-5-5.2V20.2c0-2.9,2.2-5.2,5-5.2H114 M114,13H18
			c-3.9,0-7,3.2-7,7.2v49.5c0,4,3.1,7.2,7,7.2h96c3.9,0,7-3.2,7-7.2V20.2C121,16.2,117.9,13,114,13L114,13z"/>
	</g>
	<text transform="matrix(1 0 0 1 21.9116 56.7852)" display="inline" font-family="'DIN-Bold'" font-size="30">L 2310</text>
</g>
<g id="kreisstrassen_mit_zahl_6_zeichen_Kopie" display="none">
	<g display="inline">
		<path fill="#FFFFFF" d="M18,76c-3.3,0-6-2.8-6-6.2V20.2c0-3.4,2.7-6.2,6-6.2h96c3.3,0,6,2.8,6,6.2v49.5c0,3.4-2.7,6.2-6,6.2L18,76
			L18,76z"/>
		<path d="M114,15c2.8,0,5,2.3,5,5.2v49.5c0,2.9-2.2,5.2-5,5.2H18c-2.8,0-5-2.3-5-5.2V20.2c0-2.9,2.2-5.2,5-5.2H114 M114,13H18
			c-3.9,0-7,3.2-7,7.2v49.5c0,4,3.1,7.2,7,7.2h96c3.9,0,7-3.2,7-7.2V20.2C121,16.2,117.9,13,114,13L114,13z"/>
	</g>
	<text transform="matrix(1 0 0 1 28.7071 56.7852)" display="inline" font-family="'DIN-Bold'" font-size="30">K 180</text>
</g>
<g id="kreisstrassen_mit_zahl_6_zeichen_Kopie_Kopie" display="none">
	<g display="inline">
		<path fill="#FFFFFF" d="M18,76c-3.3,0-6-2.8-6-6.2V20.2c0-3.4,2.7-6.2,6-6.2h96c3.3,0,6,2.8,6,6.2v49.5c0,3.4-2.7,6.2-6,6.2L18,76
			L18,76z"/>
		<path d="M114,15c2.8,0,5,2.3,5,5.2v49.5c0,2.9-2.2,5.2-5,5.2H18c-2.8,0-5-2.3-5-5.2V20.2c0-2.9,2.2-5.2,5-5.2H114 M114,13H18
			c-3.9,0-7,3.2-7,7.2v49.5c0,4,3.1,7.2,7,7.2h96c3.9,0,7-3.2,7-7.2V20.2C121,16.2,117.9,13,114,13L114,13z"/>
	</g>
	<text transform="matrix(1 0 0 1 17.6524 56.7852)" display="inline" font-family="'DIN-Bold'" font-size="30">GDA 10</text>
</g>
<g id="strassenuntrlage" display="none">
	<g display="inline">
		<path fill="#FFFFFF" d="M18,76c-3.3,0-6-2.8-6-6.2V20.2c0-3.4,2.7-6.2,6-6.2h96c3.3,0,6,2.8,6,6.2v49.5c0,3.4-2.7,6.2-6,6.2L18,76
			L18,76z"/>
		<path d="M114,15c2.8,0,5,2.3,5,5.2v49.5c0,2.9-2.2,5.2-5,5.2H18c-2.8,0-5-2.3-5-5.2V20.2c0-2.9,2.2-5.2,5-5.2H114 M114,13H18
			c-3.9,0-7,3.2-7,7.2v49.5c0,4,3.1,7.2,7,7.2h96c3.9,0,7-3.2,7-7.2V20.2C121,16.2,117.9,13,114,13L114,13z"/>
	</g>
</g>
<g id="stau" display="none">
	<path display="inline" fill="#CC1A14" d="M18.5,82.9c1.5-2.8,42.9-76.5,44.4-79c1.6-2.5,4.1-2.7,5.7,0.1c1.6,2.9,42.8,74.9,44.6,78
		c1.5,2.7,0.8,5.9-2.6,5.8c-3.7,0-85.5,0-89.1,0C19,88,17,85.8,18.5,82.9z"/>
	<polyline display="inline" fill="#FFFFFF" points="31,79 101.3,79 66,16.5 30.9,78.8 	"/>
	<g display="inline">
		<g>
			<path d="M49.6,58.9c0,0.4,0.3,0.4,0.6,0.4h1.3c0.3,0,0.6-0.1,0.6-0.4s0-2.4,0-2.4h-2.5C49.6,56.5,49.6,58.6,49.6,58.9z
				 M58.5,56.2c0.5-1.2,1.2-2.9,1.5-3.6c0.5-1.1,1.5-1,1.5-1h3.8c-0.1-0.2-0.2-0.4-0.3-0.5c-0.1-0.2-1.4-3.3-1.8-4.2
				S62,46.2,62,46.2h-9.8c0,0-0.8-0.2-1.2,0.7s-1.7,4-1.8,4.2c-0.1,0.2-0.5,0.9-0.5,1.3c0,0.4,0,2.3,0,2.9s0.7,0.8,1.6,0.8h5.9
				c1.1,0,2,0,2,0H58.5z M50.5,50.7l1.5-3.4h10.1l1.5,3.4H50.5z M68.4,63.7c0.6-1.4,1.4-3.5,1.8-4.4c0.6-1.3,1.8-1.2,1.8-1.2h5
				c-0.1-0.1-0.1-0.2-0.2-0.3c-0.2-0.3-1.6-3.8-2.1-4.9S73.3,52,73.3,52H61.9c0,0-1-0.1-1.5,1c-0.5,1.1-1.9,4.6-2.1,4.8
				s-0.6,1-0.6,1.5c0,0.5,0,2.7,0,3.4s0.8,0.9,1.8,0.9C59.6,63.7,68.4,63.7,68.4,63.7z M61.7,53.3h11.8l1.8,4H59.9L61.7,53.3z
				 M90.9,67.2c0-0.6-0.5-1.5-0.7-1.8c-0.2-0.3-1.9-4.5-2.5-5.8c-0.6-1.3-1.7-1-1.7-1H72.5c0,0-1.2-0.1-1.8,1.2
				c-0.6,1.3-2.2,5.4-2.4,5.7s-0.7,1.2-0.7,1.8c0,0.6,0,3.1,0,4s0.9,1.1,2.2,1.1h8.1c1.6,0,2.7,0,2.7,0h8.1c1.2,0,2.2-0.2,2.2-1.1
				S90.8,67.7,90.9,67.2z M70.1,64.8l2.1-4.7h14l2.1,4.7H70.1z M68.8,76.1c0,0.5,0.4,0.6,0.8,0.6h1.8c0.4,0,0.8-0.1,0.8-0.6
				s0-3.4,0-3.4h-3.4C68.8,72.7,68.8,75.6,68.8,76.1z M86.2,76.1c0,0.5,0.4,0.6,0.8,0.6h1.8c0.4,0,0.8-0.1,0.8-0.6s0-3.4,0-3.4h-3.4
				C86.2,72.7,86.2,75.6,86.2,76.1z M58.8,66.9c0,0.4,0.3,0.5,0.7,0.5H61c0.4,0,0.7-0.1,0.7-0.5s0-2.9,0-2.9h-2.9
				C58.8,64.1,58.8,66.5,58.8,66.9z"/>
		</g>
	</g>
</g>
<g id="baustelle" display="none">
	<path display="inline" fill="#CC1A14" d="M18.5,82.9c1.5-2.8,42.9-76.5,44.4-79c1.6-2.5,4.1-2.7,5.7,0.1c1.6,2.9,42.8,74.9,44.6,78
		c1.5,2.7,0.8,5.9-2.6,5.8c-3.7,0-85.5,0-89.1,0C19,88,17,85.8,18.5,82.9z"/>
	<polyline display="inline" fill="#FFFFFF" points="31,79 101.3,79 66,16.5 30.9,78.8 	"/>
	<g display="inline">
		<circle cx="69.1" cy="42.4" r="3.3"/>
		<path d="M65.5,76.7c0,0-0.1-0.1,0.6-1.2c0.8-1,4.8-5.7,5.3-6.1c0.5-0.4,1.6-0.8,2.1-1.3c0.5-0.5,3.9-4.7,4.3-5.2
			c0.4-0.5,1.7-1,2.3-1s2.1-0.1,3,0.9c0.9,1,10.1,13.9,10.1,13.9L65.5,76.7L65.5,76.7z"/>
		<path d="M73.4,67.1c0,0-3.3-2.8-7.3-6.1c0,0,0,0,0-0.1V46.7c0-1-1-2.6-2.6-2.6s-9.2,0-9.2,0s-3.3,5.2-3.5,5.6
			c-0.3,0.4-0.3,1.6-0.1,2.2c0.1,0.7,1.6,1.7,1.6,1.7l0.9-1.6c0.4,0.4,1.1,0.9,1.9,1.5l0.6-1.2c-0.8-0.7-1.5-1.2-1.9-1.5l2.2-3.5h3
			c0,0-4.1,8-4.5,8.7l5.4,2.9l0.2-0.4l0,0l0.3-0.6l2.7-5c0,1.8,0,3.9,0.1,5.6c-0.5-0.4-1-0.8-1.5-1.2c-0.2,0-0.4,0.1-0.6,0.4
			c-0.1,0.2-0.2,0.5-0.1,0.7c0.7,0.6,1.5,1.2,2.2,1.8c0,1.4,0.1,2.3,0.1,2.5c0.3,0.5,2,1.2,2.2,0.8c0.1-0.2,0.2-0.6,0.4-1
			c3.7,3.1,6.8,5.6,6.8,5.6s0.3,0.3,0.6-0.1C73.7,67.5,73.4,67.1,73.4,67.1z M53.9,57c-3.7,6.9-7.8,14.6-8,15
			c-0.4,0.7-0.3,1.3-0.3,1.8s0.3,1.8,0.7,2.1c0.4,0.3,0.8,0.5,0.8,0.5l8.5-15l4.5,5c0,0,0.1,8.1,0.1,8.8c0.1,1.3,3.1,1.6,3.1,1.6V65
			l-4-5.2L53.9,57z"/>
	</g>
</g>
<g id="verengte_fahrbahn" display="none">
	<path display="inline" fill="#CC1A14" d="M18.5,82.9c1.5-2.8,42.9-76.5,44.4-79c1.6-2.5,4.1-2.7,5.7,0.1c1.6,2.9,42.8,74.9,44.6,78
		c1.5,2.7,0.8,5.9-2.6,5.8c-3.7,0-85.5,0-89.1,0C19,88,17,85.8,18.5,82.9z"/>
	<polyline display="inline" fill="#FFFFFF" points="31,79 101.3,79 66,16.5 30.9,78.8 	"/>
	<g display="inline">
		<g>
			<polygon points="58.1,37 63.6,37 63.6,52.2 58.1,57.4 58.1,75.8 52.7,75.8 52.7,55 58.1,50.2 			"/>
		</g>
		<g>
			<polygon points="73.9,37 68.4,37 68.4,52.2 73.9,57.4 73.9,75.8 79.3,75.8 79.3,55 73.9,50.2 			"/>
		</g>
	</g>
</g>
<g id="schleudergefahr" display="none">
	<path display="inline" fill="#CC1A14" d="M18.5,82.9c1.5-2.8,42.9-76.5,44.4-79c1.6-2.5,4.1-2.7,5.7,0.1c1.6,2.9,42.8,74.9,44.6,78
		c1.5,2.7,0.8,5.9-2.6,5.8c-3.7,0-85.5,0-89.1,0C19,88,17,85.8,18.5,82.9z"/>
	<polyline display="inline" fill="#FFFFFF" points="31,79 101.3,79 66,16.5 30.9,78.8 	"/>
	<g display="inline">
		<path d="M56.3,53.9l19.4,5c1.3,0.3,2.3,0.4,2.5-0.6c0.2-0.9,0.9-3.5,1.1-4.1c0.2-0.6-0.1-1.6-0.3-2c-0.1-0.4-0.7-5.1-1-6.6
			c-0.3-1.5-1.5-1.5-1.5-1.5l-13.8-3.6c0,0-1.2-0.5-2.1,0.7c-1,1.2-3.7,4.9-4,5.1s-1.1,1-1.2,1.6c-0.1,0.6-0.8,3.2-1.1,4.1
			C54.1,53.1,55,53.6,56.3,53.9z M62.1,42.1l14.3,3.7l0.9,5.4l-18.6-4.8L62.1,42.1z M72.1,62.1c-0.1,0.5,0.2,0.7,0.7,0.8l1.8,0.5
			c0.5,0.1,0.9,0.1,1-0.4c0.1-0.5,0.9-3.4,0.9-3.4L73,58.7C73,58.7,72.2,61.6,72.1,62.1z M63.3,63.8c3.4-0.3,4.7-0.3,5.6-0.4
			c0,0,2.3-0.4,0.4-0.5c-1.4,0.1-8.2-0.2-13,1c-3.8,0.9-4.3,1.9-4.2,2.5c0.1,0.9,1.2,1.1,3.1,1.4c1.6,0.2,1.9,0.8,1.9,1.3
			c0,0.6-2.9,1.6-5.4,1.7c-2.5,0-5.2,0.1-7-0.1s-2.3,1.4-0.4,1.7S51.8,72.6,55,72c3.2-0.6,6.2-1.8,6.2-3.3c0-1.1-1.2-1.3-2.5-1.5
			c-1.3-0.2-2.5-0.3-2.4-1.1C56.2,65.3,60,64,63.3,63.8z M55,58.3l1.8,0.5c0.5,0.1,0.9,0.1,1-0.4c0.1-0.5,0.9-3.4,0.9-3.4l-3.5-0.9
			c0,0-0.8,2.9-0.9,3.4C54.2,58,54.6,58.2,55,58.3z M94.2,70.9c-0.1-0.7-2.1-2.2-6.5-2.2S77.1,68.2,75.2,68s-4-0.9-4-1.9
			c0-1,1-1.3,1.6-1.5c0.7-0.3,1.4-1-0.4-0.8c-2.3,0.1-5.1,1.3-5.2,2.7c-0.1,1.4,5.1,2.8,7.5,2.9c2.4,0.1,9.1,0.5,11.6,0.5
			c2.5,0,3.6,0.6,3.6,1.2c0,0.6-1,1.1-0.7,1.4c0.3,0.2,1.6,0.2,2.6-0.1C92.5,72,94.3,71.6,94.2,70.9z M46.8,67.2
			c-0.1-0.5,0.2-0.5-0.9-0.8c-1.1-0.3-2.3-1,0.4-2.1c3.1-1.3,8.1-1.9,12.9-2.1s2.1-0.7,2.1-0.7c-1.7,0-12.4,0.1-16.9,1.5
			s-4.1,2.2-4.1,2.8s0.9,1.7,3.7,1.8C44.1,67.7,46.9,67.8,46.8,67.2z"/>
	</g>
</g>
<path fill="#CC1A14" d="M18.5,82.9c1.5-2.8,42.9-76.5,44.4-79c1.6-2.5,4.1-2.7,5.7,0.1c1.6,2.9,42.8,74.9,44.6,78
	c1.5,2.7,0.8,5.9-2.6,5.8c-3.7,0-85.5,0-89.1,0C19,88,17,85.8,18.5,82.9z"/>
<polyline fill="#FFFFFF" points="31,79 101.3,79 66,16.5 30.9,78.8 "/>
<g enable-background="new    ">
	<path d="M68.8,61.6h-5.8l-1.9-29.4h9.7L68.8,61.6z M61.5,75v-8.9h9V75H61.5z"/>
</g>
<g id="unfall" display="none">
	<path display="inline" fill="#CC1A14" d="M18.5,82.9c1.5-2.8,42.9-76.5,44.4-79c1.6-2.5,4.1-2.7,5.7,0.1c1.6,2.9,42.8,74.9,44.6,78
		c1.5,2.7,0.8,5.9-2.6,5.8c-3.7,0-85.5,0-89.1,0C19,88,17,85.8,18.5,82.9z"/>
	<polyline display="inline" fill="#FFFFFF" points="31,79 101.3,79 66,16.5 30.9,78.8 	"/>
	<g display="inline">
		<g>
			<path d="M90.2,72.2H45c0.7-0.3,1.3-1.1,1.3-2c0-1.2-1-2.2-2.2-2.2s-2.2,1-2.2,2.2c0,0.9,0.5,1.6,1.3,2h-1.7l1.3,1.3h46.1
				L90.2,72.2z"/>
		</g>
		<g>
			<polygon points="69.9,60 72.8,56.9 71.9,56.4 			"/>
		</g>
		<g>
			<polygon points="72.8,52.4 71.4,55.9 74.1,52.9 			"/>
		</g>
		<g>
			<circle cx="62.3" cy="69" r="2.2"/>
		</g>
		<g>
			<circle cx="88.1" cy="70" r="2.2"/>
		</g>
		<g>
			<circle cx="70.5" cy="68.7" r="2.2"/>
		</g>
		<g>
			<polygon points="76.6,58.1 76.6,56.7 70,62.4 			"/>
		</g>
		<g>
			<polygon points="79.8,56.1 78.3,57.3 80.8,57.1 			"/>
		</g>
		<g>
			<path d="M66.6,65c-0.1,0.3-0.6,0.5-0.6,0.7s-0.2,0.5,0,0.9c0.2,0.4,0.3,0.8,0.4,1.1c0.1,0.2,0.4,0.6,0.5,0.7c0.3,0,0.7,0,1,0
				c0,0,0,0,0-0.1c0.2-1.5,1.5-2.5,3-2.3c1.4,0.2,2.4,1.4,2.3,2.7c4,0.3,8.4,0.7,12.2,1c0-0.1,0-0.1,0-0.2c0.2-1.5,1.5-2.5,3-2.3
				c1.4,0.2,2.4,1.4,2.3,2.8c0.2,0,0.3,0,0.3,0c0.4,0,1,0.1,1-0.1c0,0,0,0,0-0.1c0-0.5,0.1-3.3,0.1-3.6c0,0,0,0,0,0
				c0-0.1,0-0.1-0.1-0.2c-0.3-0.3-4.3-4.1-4.4-4.3c-0.1-0.2-0.1-0.2-0.5-0.2c-0.4,0-8.9-0.6-8.9-0.6c-0.4,0-0.5,0-0.9,0.4
				c-0.3,0.4-2.3,2-3,2.5c-0.2,0.4-0.3,0.4-0.9,0.2c-0.6-0.1-1.8-0.7-2.3-0.7s-0.8-0.2-1,0s-0.3,0.3-0.6,0.3c-0.3,0-0.6-0.4-0.6-0.4
				s-0.9,0.7-1.1,0.8c-0.1,0.1-1.4,0-1.4,0S66.7,64.7,66.6,65z M82.7,62.4l3.9,0.3l2.5,3.2c0,0-3.3-0.2-6.7-0.4L82.7,62.4z
				 M75.2,64.4c0.2-0.3,2.7-2.4,2.7-2.4l3.9,0.3l-0.3,3c-3.3-0.2-5.8-0.4-6.1-0.4C74.9,64.9,75,64.7,75.2,64.4z"/>
		</g>
		<g>
			<polygon points="56.3,51 54.8,51 57.9,53.5 			"/>
		</g>
		<g>
			<polygon points="57.4,56.9 61.2,59.1 57.4,55.8 			"/>
		</g>
		<g>
			<polygon points="68.2,51.8 68.2,60.2 69.9,52.4 			"/>
		</g>
		<g>
			<polygon points="65.5,60.2 61.7,56.9 61.4,58.2 			"/>
		</g>
		<g>
			<path d="M40.3,70.4c0.1,0,0.5,0,1.2-0.1c0,0,0-0.1,0-0.1c0-1.5,1.2-2.7,2.7-2.7c1.4,0,2.5,1.1,2.7,2.4c4-0.3,9.1-0.6,12.9-0.8
				c0-0.1,0-0.1,0-0.2c0-1.5,1.2-2.7,2.7-2.7c1.4,0,2.5,1.1,2.7,2.5c0.2,0,0.3,0,0.3,0c0.4-0.1,1,0,1-0.2c0-0.2-0.3-0.3-0.4-0.5
				c-0.1-0.2-0.4-1.6-0.4-2s0.1-0.6,0.3-0.9c0.2-0.3,0.6-0.5,0.3-0.8S61.1,61,61,60.9c-0.2-0.1-0.1-0.2-0.5-0.2s-9.6,0.6-9.6,0.6
				c-0.4,0-0.6,0.2-0.9,0.7s-2.5,2.7-2.7,3c-0.3,0.3-0.4,0.3-0.8,0.4s-5.7,1.4-6.2,1.6s-0.5,0.3-0.6,0.6c-0.1,0.3,0,2.1,0,2.2
				C39.6,70.1,39.8,70.4,40.3,70.4z M59.9,61.8l2.9,2.9c0,0-3.3,0.2-6.7,0.5L56,62.1L59.9,61.8z M48.3,65.2c0.2-0.3,2.3-2.7,2.3-2.7
				l4.5-0.4l0.1,3.1c-3.3,0.2-6.4,0.5-6.7,0.5C48,65.7,48.1,65.5,48.3,65.2z"/>
		</g>
		<g>
			<polygon points="61.4,51.3 59.9,52.4 66.5,60.2 			"/>
		</g>
		<g>
			<polygon points="66.5,54.2 64.8,54.8 66.9,59.1 			"/>
		</g>
		<g>
			<polygon points="63.3,47.6 61.4,47.8 63.3,52.4 			"/>
		</g>
	</g>
</g>
<g id="sperrung" display="none">
	<circle display="inline" fill="#CC1A14" cx="66" cy="45" r="43"/>
	<circle display="inline" fill="#FFFFFF" cx="66" cy="45" r="31.8"/>
</g>
<g id="info" display="none">
	<g display="inline">
		<path fill="#005293" d="M109,83.3c0,2.8-1.8,4.7-4.7,4.7H27.7c-2.8,0-4.7-1.8-4.7-4.7V6.7C23,3.8,24.8,2,27.7,2h76.6
			c2.8,0,4.7,1.8,4.7,4.7V83.3z"/>
		<g>
			<rect x="36.5" y="15.1" fill="#FFFFFF" width="59.1" height="60.1"/>
		</g>
		<g>
			<path d="M75.1,67.4c-1,0-1.5,0.2-1.5-1.6c0-1.8,0-25.6,0-25.6H55.5v2.1c0,0,1.1,0,2.1,0s1.5,0.3,1.5,2.1v21.4
				c0,1.8-0.5,1.6-1.5,1.6s-4.3,0-4.3,0v2.1h26.1v-2.1C79.4,67.4,76.1,67.4,75.1,67.4z"/>
		</g>
		<g>
			<circle cx="66.1" cy="29.3" r="6.9"/>
		</g>
	</g>
</g>
</svg>
