<svg xmlns="http://www.w3.org/2000/svg" xml:space="preserve" width="50" height="36" viewBox="0 0 50 36">
  <path fill="#FFF" d="M37.209 8.822v22.401H12.771V8.822h3.055V9.84c0 1.123.913 2.036 2.036 2.036s2.036-.913 2.036-2.036V8.822H30.08V9.84c0 1.123.913 2.036 2.036 2.036s2.036-.913 2.036-2.036V8.822h3.057zm-2.037 6.11H14.808v14.255h20.365V14.932zm-2.036-7.128c0-.562-.455-1.018-1.018-1.018S31.1 7.242 31.1 7.804V9.84c0 .562.455 1.018 1.018 1.018s1.018-.456 1.018-1.018V7.804zM18.881 9.841c0 .562-.455 1.018-1.018 1.018s-1.018-.456-1.018-1.018V7.804c0-.562.455-1.018 1.018-1.018s1.018.456 1.018 1.018v2.037zm6.809 13.728c0-.817-.426-1.455-1.129-1.726.538-.269.851-.822.851-1.53 0-1.371-1.336-2.188-2.628-2.188-1.504 0-2.638.942-2.707 2.813h1.675c-.014-.775.276-1.339 1.044-1.339.457 0 .95.277.95.885 0 .768-.831.878-1.596.812v1.303c1.086 0 1.735.068 1.735 1.003 0 .737-.558 1.067-1.111 1.067-.837 0-1.18-.625-1.21-1.478H19.9c-.033 1.927 1.134 2.943 2.894 2.943 1.571-.002 2.896-.962 2.896-2.565zm4.391 2.563v-7.859h-1.417c-.176 1.175-1.013 1.518-2.211 1.486v1.371h1.886v5.003h1.742z"/>
</svg>
