<svg xmlns="http://www.w3.org/2000/svg" xml:space="preserve" width="14" height="14" viewBox="0 0 14 14">
  <path fill="#196CB3" d="M14 1.167V14H0V1.167h1.75v.583c0 .643.523 1.167 1.167 1.167s1.166-.524 1.166-1.167v-.583h5.833v.583c0 .643.523 1.167 1.167 1.167.643 0 1.167-.523 1.167-1.167v-.583H14zm-1.967 3.5H1.997v7.267h10.037V4.667zM11.667.583c0-.322-.261-.583-.584-.583S10.5.261 10.5.583V1.75a.583.583 0 1 0 1.166 0V.583zM3.5 1.75c0 .322-.261.583-.583.583s-.584-.261-.584-.583V.583c0-.322.261-.583.584-.583S3.5.261 3.5.583V1.75z"/>
</svg>
