<svg xmlns="http://www.w3.org/2000/svg" xml:space="preserve" width="110" height="86" viewBox="0 0 110 86">
  <path fill="#007EC1" d="M95.751 73.123v-.002c-2.189-2.759-15.595-15.944-30.186-30.233C79.502 28.66 92.338 15.619 95.402 13.1c6.788-6.53-.712-18.764-11.139-10.109-4.802 4.036-16.811 16.215-29.517 29.305C40.573 18.412 27.611 5.651 25.1 2.598 18.57-4.19 6.336 3.31 14.991 13.737c4.028 4.792 16.165 16.762 29.224 29.439-13.741 14.227-26.179 27.167-28.865 29.43-8.352 7.038.458 18.197 9.526 11.145h.002c2.754-2.185 15.895-15.546 30.154-30.105C69.316 67.442 82.335 79.955 84.606 82.65c7.038 8.351 18.197-.459 11.145-9.527z"/>
</svg>
