<svg xmlns="http://www.w3.org/2000/svg" xml:space="preserve" viewBox="0 0 20 23">
  <path d="M10.327 5.735c-.487.585-3.533 4.335-4.375 5.26-.724.853.3 1.473.845.915.386-.435 3.12-3.819 3.533-4.325.407.504 3.144 3.891 3.529 4.327.547.558 1.57-.058.847-.915-.847-.927-3.892-4.673-4.38-5.26v-.002z"/>
  <path d="M10.327 10.609c-.487.585-3.533 4.335-4.375 5.26-.724.853.3 1.473.845.915.386-.435 3.12-3.819 3.533-4.325.407.504 3.144 3.891 3.529 4.327.547.558 1.57-.058.847-.915-.847-.927-3.892-4.673-4.38-5.26v-.002z"/>
</svg>
