<svg xmlns="http://www.w3.org/2000/svg" xml:space="preserve" width="50" height="36" viewBox="0 0 50 36">
  <path fill="#FFF" d="m20.56 16.139-.001 3.618s1.136-.237 2.135-.227c1.66.017 2.492.909 2.551 2.075.015.296.012.46.012.778v4.711h-1.751v-4.811c0-.589.037-1.32-1.286-1.314-.942.005-1.608.186-1.608.186v5.939h-1.709V16.248l1.657-.109zm10.631 3.383c-.021-.004-1.564.035-2.475.245-1.063.243-1.744.885-1.839 1.866-.018.189-.027.309-.027.739v4.722h1.75v-4.829c0-.424.033-.693.31-.941.314-.281 1.029-.322 1.439-.355.281-.023.843-.049.843-.049l-.001-1.398z"/>
  <path fill="#FFF" d="M37.209 8.822v22.401H12.771V8.822h3.055V9.84c0 1.123.913 2.036 2.036 2.036s2.036-.913 2.036-2.036V8.822H30.08V9.84c0 1.123.913 2.036 2.036 2.036s2.036-.913 2.036-2.036V8.822h3.057zm-2.037 6.11H14.808v14.255h20.365l-.001-14.255zm-2.036-7.128c0-.562-.455-1.018-1.018-1.018S31.1 7.242 31.1 7.804V9.84c0 .562.455 1.018 1.018 1.018s1.018-.456 1.018-1.018V7.804zM18.881 9.841c0 .562-.455 1.018-1.018 1.018s-1.018-.456-1.018-1.018V7.804c0-.562.455-1.018 1.018-1.018s1.018.456 1.018 1.018v2.037z"/>
</svg>
