<svg xmlns="http://www.w3.org/2000/svg" xml:space="preserve" width="88" height="88" viewBox="0 0 88 88">
  <path d="M44.2 32.8c-6.1 0-11.1 5-11.1 11.1S38.1 55 44.2 55s11.1-5 11.1-11.1-5-11.1-11.1-11.1z"/>
  <path d="M57.8 17H30.2C22.9 17 17 22.9 17 30.2v27.7C17 65.1 22.9 71 30.2 71h27.7C65.1 71 71 65.1 71 57.8V30.2C71 22.9 65.1 17 57.8 17zM44.2 60.8c-9.3 0-16.8-7.5-16.8-16.8s7.5-16.8 16.8-16.8S61 34.7 61 44s-7.5 16.8-16.8 16.8zm17.5-30.4c-2.2 0-4-1.8-4-3.9 0-2.2 1.8-4 4-4s4 1.8 4 4c-.1 2.1-1.9 3.9-4 3.9z"/>
  <path d="M0 0v88h88V0H0zm77 58.1C77 68.6 68.6 77 58.1 77H29.9C19.4 77 11 68.6 11 58.1V29.9C11 19.4 19.4 11 29.9 11h28.3C68.6 11 77 19.4 77 29.9v28.2z"/>
</svg>
