<svg xmlns="http://www.w3.org/2000/svg" xml:space="preserve" width="148.5" height="140.5" viewBox="0 0 148.5 140.5">
  <path fill="#FFF" d="M50 111.3c5 5.8 13.9 9.7 24 9.7s19-3.9 24-9.7H50zm74.8-69.7c0-2.9-2.4-5.3-5.3-5.3H29c-2.9 0-5.3 2.4-5.3 5.3v57.1c0 2.9 2.4 5.3 5.3 5.3h90.5c2.9 0 5.3-2.4 5.3-5.3V41.6zm-7.4 55.2H31V43.6h86.4v53.2z"/>
  <path fill="#FFF" d="M89.517 71.144c-1.388.917-17.451 11.042-21.939 13.702-3.755 2.226-3.523.884-3.564-.136-.052-.656-.041-27.278 0-29.162.041-1.884 1.853-.692 2.775-.15 4.236 2.593 22.714 14.187 22.714 14.187s1.402.642.014 1.559z"/>
</svg>
