<svg xmlns="http://www.w3.org/2000/svg" xml:space="preserve" width="680.315" height="71.802" viewBox="0 0 680.315 71.802">
  <path fill="#800000018000000180000001" d="M470.264 56.422c0 4.509 2.843 7.059 9.116 7.059 3.821 0 6.664-.296 9.311-2.843 1.47-1.47 2.157-3.822 2.157-7.352v-4.018h-11.664c-5.882 0-8.92 2.645-8.92 7.154zM223.665 29.273c-4.704 0-8.33 2.549-9.899 6.272-.98 2.255-1.176 3.726-1.274 6.764h22.347c-.099-3.038-.391-4.509-1.373-6.764-1.568-3.723-5.097-6.272-9.801-6.272zM74 29.273c-4.706 0-8.331 2.549-9.899 6.272-.979 2.255-1.177 3.726-1.275 6.764h22.347c-.098-3.038-.392-4.509-1.371-6.764-1.569-3.723-5.097-6.272-9.802-6.272zm104.678 12.741-7.841-.684c-5.293-.491-6.863-2.745-6.863-5.685 0-3.725 3.038-6.371 9.018-6.371 4.705 0 9.116.98 12.253 3.627l6.272-6.37c-4.607-4.019-10.977-5.588-18.426-5.588-10.391 0-18.721 5.488-18.721 15.193 0 8.723 5.39 12.939 14.701 13.722l7.939.686c4.803.39 6.664 2.548 6.664 5.879 0 4.705-4.801 6.861-10.88 6.861-4.9 0-10.29-1.077-14.309-5.192l-6.565 6.565c5.879 5.783 12.74 7.153 20.874 7.153 11.861 0 20.681-5.39 20.681-15.778.002-8.822-5.487-13.234-14.797-14.018zm-48.909 0-7.841-.684c-5.293-.491-6.861-2.745-6.861-5.685 0-3.725 3.038-6.371 9.017-6.371 4.705 0 9.114.98 12.25 3.627l6.274-6.37c-4.606-4.019-10.976-5.588-18.428-5.588-10.387 0-18.721 5.488-18.721 15.193 0 8.723 5.393 12.939 14.705 13.722l7.937.686c4.803.39 6.664 2.548 6.664 5.879 0 4.705-4.802 6.861-10.878 6.861-4.901 0-10.292-1.077-14.311-5.192l-6.567 6.565c5.882 5.783 12.741 7.153 20.878 7.153 11.859 0 20.68-5.39 20.68-15.778.001-8.822-5.486-13.234-14.798-14.018z"/>
  <path fill="#800000018000000180000001" d="M74 20.942c-12.741 0-21.074 9.311-21.074 25.386 0 18.918 9.899 25.482 22.349 25.482 8.722 0 13.525-2.644 18.622-7.739l-6.371-5.979c-3.529 3.527-6.469 5.094-12.055 5.094-8.137 0-12.645-5.39-12.645-13.917h32.247v-4.411c0-14.116-7.742-23.916-21.073-23.916zM62.826 42.309c.099-3.038.296-4.509 1.275-6.764 1.568-3.723 5.193-6.272 9.899-6.272 4.705 0 8.233 2.549 9.802 6.272.979 2.255 1.273 3.726 1.371 6.764H62.826zm318.345-12.447c3.921 0 6.371 1.273 9.508 4.705l6.861-6.667c-4.704-4.999-9.509-6.959-16.369-6.959-11.172 0-22.15 6.763-22.15 25.386 0 18.622 10.978 25.482 22.15 25.482 6.86 0 11.665-2.056 16.369-7.056l-6.861-6.565c-3.137 3.429-5.587 4.705-9.508 4.705-3.821 0-7.057-1.569-9.214-4.412-2.157-2.746-2.94-6.373-2.94-12.154s.784-9.312 2.94-12.055c2.157-2.842 5.392-4.41 9.214-4.41zm-157.506-8.92c-12.742 0-21.072 9.311-21.072 25.386 0 18.918 9.899 25.482 22.346 25.482 8.723 0 13.525-2.644 18.623-7.739l-6.37-5.979c-3.529 3.527-6.468 5.094-12.057 5.094-8.133 0-12.642-5.39-12.642-13.917h32.247v-4.411c-.002-14.116-7.745-23.916-21.075-23.916zm-11.173 21.367c.098-3.038.293-4.509 1.274-6.764 1.569-3.723 5.196-6.272 9.899-6.272 4.704 0 8.233 2.549 9.801 6.272.981 2.255 1.274 3.726 1.373 6.764h-22.347zM480.36 20.942c-8.234 0-13.134 1.667-17.84 7.155l6.568 6.175c2.745-3.529 5.391-4.802 10.879-4.802 7.742 0 10.88 3.039 10.88 9.31v3.529h-13.135c-11.369 0-17.152 5.98-17.152 14.308 0 4.216 1.374 8.038 3.921 10.683 3.039 3.039 7.156 4.509 13.33 4.509 6.175 0 9.607-1.47 13.233-5.094v4.509h9.802V37.996c-.001-11.272-6.862-17.054-20.486-17.054zm10.488 32.344c0 3.529-.686 5.882-2.157 7.352-2.646 2.547-5.489 2.843-9.311 2.843-6.273 0-9.116-2.55-9.116-7.059s3.038-7.154 8.919-7.154h11.664v4.018zM334.614 42.014l-7.84-.684c-5.294-.491-6.862-2.745-6.862-5.685 0-3.725 3.039-6.371 9.017-6.371 4.705 0 9.116.98 12.252 3.627l6.273-6.37c-4.606-4.019-10.977-5.588-18.425-5.588-10.391 0-18.723 5.488-18.723 15.193 0 8.723 5.392 12.939 14.703 13.722l7.938.686c4.802.39 6.665 2.548 6.665 5.879 0 4.705-4.802 6.861-10.88 6.861-4.901 0-10.29-1.077-14.309-5.192l-6.566 6.565c5.88 5.783 12.741 7.153 20.875 7.153 11.86 0 20.682-5.39 20.682-15.778.002-8.822-5.489-13.234-14.8-14.018zM10.453.175l-.001 22.416s7.175-1.467 13.485-1.404c10.483.103 15.733 5.636 16.105 12.856.093 1.835.075 2.848.075 4.821v32.36H29.059V38.243c0-3.651.235-8.181-8.117-8.142-5.949.028-10.152 1.147-10.152 1.147v39.976H0V.849L10.453.175zm408.809 0-.003 22.416s7.179-1.467 13.488-1.404c10.482.103 15.733 5.636 16.107 12.856.093 1.835.072 2.848.072 4.821v32.36h-11.058V38.243c0-3.651.235-8.181-8.117-8.142-5.95.028-10.152 1.147-10.152 1.147v39.976h-10.79V.849l10.453-.674zm251.152 42.132h-22.346c.096-3.036.294-4.509 1.274-6.762 1.567-3.726 5.193-6.273 9.899-6.273 4.704 0 8.233 2.547 9.801 6.273.981 2.253 1.276 3.727 1.372 6.762m9.901 6.959v-4.409c0-14.115-7.744-23.916-21.073-23.916-12.742 0-21.073 9.312-21.073 25.387 0 18.915 9.9 25.482 22.348 25.482 8.724 0 13.526-2.647 18.622-7.742l-6.371-5.979c-3.527 3.529-6.467 5.097-12.056 5.097-8.136 0-12.643-5.39-12.643-13.919h32.246zM571.411 71.809c3.348 0 5.809-2.362 5.809-6.006 0-3.445-2.462-5.906-5.809-5.906-3.348 0-5.811 2.461-5.811 5.906 0 3.644 2.463 6.006 5.811 6.006m56.546-26.123L627.954 0h-10.187v25.569c-3.696-4.393-7.892-5.692-13.284-5.692-5.095 0-9.488 1.697-12.285 4.494-5.095 5.095-5.695 13.685-5.695 21.376 0 7.69.6 16.378 5.695 21.472 2.701 2.702 6.987 4.372 11.864 4.485 1.02.069 2.099.105 3.245.105 1.234 0 2.388-.044 3.477-.124 1.398-.049 2.736-.228 3.998-.523.377-.078.733-.173 1.067-.282 2.575-.763 4.782-2.025 6.429-3.674 4.697-4.694 5.566-12.453 5.672-19.664-.001 0 .008-1.845.007-1.856zM607.28 28.967c9.189 0 10.487 7.788 10.487 16.78 0 6.458-.67 12.348-4.456 15.152-1.481 1.092-3.437 1.713-6.014 1.713-.036 0-.063-.005-.098-.005v.014c-9.116-.048-10.507-7.915-10.507-16.875 0-8.99 1.397-16.779 10.588-16.779zM555.357 21.5v31.712c0 5.577 1.483 18.594-20.142 18.594-21.628 0-20.142-13.017-20.142-18.594V21.5h10v30.239c0 7.569 3.274 10.957 10.142 11.058 7.438-.206 10.146-3.489 10.146-11.058V21.5h9.996zM257.01 71.224V39.498c0-5.58-1.483-18.602 20.151-18.602 21.638 0 20.15 13.022 20.15 18.602v31.726h-10.004V40.972c0-7.572-3.277-10.962-10.146-11.062-7.442.206-10.15 3.49-10.15 11.062v30.253H257.01z"/>
</svg>
