<svg xmlns="http://www.w3.org/2000/svg" xml:space="preserve" viewBox="0 0 48 48">
  <circle cx="24" cy="24" r="24" fill="#fff"/>
  <path d="M24 0C10.7 0 0 10.7 0 24s10.7 24 24 24 24-10.7 24-24S37.3 0 24 0m0 45.6C12.1 45.6 2.4 35.9 2.4 24S12.1 2.4 24 2.4 45.6 12.1 45.6 24c0 11.9-9.7 21.6-21.6 21.6" class="st1"/>
  <path d="M27 15.9c-.8 0-1.4.4-1.4.9V32c0 .5.6.9 1.4.9.8 0 1.4-.4 1.4-.9V16.7c0-.5-.7-.8-1.4-.8zm-6.5 0c-.8 0-1.4.4-1.4.9V32c0 .5.6.9 1.4.9.8 0 1.4-.4 1.4-.9V16.7c0-.5-.6-.8-1.4-.8z" class="st1"/>
</svg>
