<svg xmlns="http://www.w3.org/2000/svg" xml:space="preserve" viewBox="0 0 40 40">
  <path fill="currentColor" d="M20 2C10.1 2 2 10.1 2 20s8.1 18 18 18 18-8.1 18-18S29.9 2 20 2zm-8.3 15.8c0-4.7 3.8-8.4 8.4-8.4 4.7 0 8.4 3.8 8.4 8.4 0 2.7-1.3 5.1-3.3 6.7l-.9-1.6c1.4-1.2 2.3-3 2.3-5 0-3.6-3-6.6-6.6-6.6-3.6 0-6.6 3-6.6 6.6 0 2.1 1 4 2.5 5.2l-.9 1.7c-2-1.7-3.3-4.2-3.3-7zm8.4-2.9c-1.6 0-3 1.3-3 3 0 .7.2 1.3.6 1.8l-.8 1.6c-1-.9-1.6-2.1-1.6-3.6 0-2.7 2.2-4.8 4.8-4.8 2.7 0 4.8 2.2 4.8 4.8 0 1.3-.6 2.6-1.5 3.4l-.9-1.6c.3-.5.5-1.1.5-1.7.1-1.6-1.2-2.9-2.9-2.9zm4.8 15.2h-9.2c-.7 0-1.1-.7-.8-1.3l4.5-9.7c-.5-.3-.8-.8-.8-1.3 0-.9.7-1.6 1.6-1.6.9 0 1.6.7 1.6 1.6 0 .6-.3 1.1-.8 1.3l4.7 9.7c.3.6-.2 1.3-.8 1.3z"/>
  <path d="M20 0C9 0 0 9 0 20s9 20 20 20 20-9 20-20S31 0 20 0zm0 38c-9.9 0-18-8.1-18-18S10.1 2 20 2s18 8.1 18 18-8.1 18-18 18z" class="st1"/>
  <path d="M16 23c-1.5-1.2-2.5-3.1-2.5-5.2 0-3.6 3-6.6 6.6-6.6 3.6 0 6.6 3 6.6 6.6 0 2-.9 3.8-2.3 5l.9 1.6c2-1.5 3.3-3.9 3.3-6.7 0-4.7-3.8-8.4-8.4-8.4-4.7 0-8.4 3.8-8.4 8.4 0 2.8 1.4 5.3 3.5 6.8L16 23z" class="st1"/>
  <path d="m22.6 19.6.9 1.6c.9-.9 1.5-2.1 1.5-3.4 0-2.7-2.2-4.8-4.8-4.8-2.7 0-4.8 2.2-4.8 4.8 0 1.4.6 2.7 1.6 3.6l.8-1.6c-.4-.5-.6-1.1-.6-1.8 0-1.7 1.3-3 3-3s3 1.3 3 3c-.1.5-.3 1.1-.6 1.6z" class="st1"/>
  <path d="m25.6 28.8-4.7-9.7c.5-.3.8-.8.8-1.3 0-.9-.7-1.6-1.6-1.6-.9 0-1.6.7-1.6 1.6 0 .6.3 1.1.8 1.3l-4.5 9.7c-.3.6.1 1.3.8 1.3h9.2c.7 0 1.2-.7.8-1.3z" class="st1"/>
</svg>
