<svg xmlns="http://www.w3.org/2000/svg" xml:space="preserve" width="72" height="22" viewBox="0 0 72 22">
  <path fill="#C62C46" d="M61.02-.1c-6.075 0-11 4.925-11 11s4.925 11 11 11 11-4.925 11-11-4.925-11-11-11zm0 19.073-7.765-9.297h5.655V2.827h4.221v6.849h5.655l-7.766 9.297zM8.107 5.742v10.101H5.636l.014-.567c-.352.297-.905.77-2.012.77-.217 0-.811-.013-1.364-.283-.688-.338-1.729-1.31-1.729-3.214 0-.973.283-1.931.985-2.62.298-.285.69-.528 1.081-.649.364-.122.716-.15 1.108-.15 1.053 0 1.525.311 1.931.595V5.742h2.457zm-3.065 8.075c.513-.216.783-.716.783-1.256 0-.811-.554-1.364-1.364-1.364-.837 0-1.351.554-1.351 1.364 0 .837.514 1.377 1.351 1.377.283-.014.472-.067.581-.121zm4.44-6.455c0-.729.594-1.31 1.323-1.31s1.323.594 1.323 1.323-.607 1.323-1.323 1.323c-.162 0-.595-.054-.945-.392-.122-.121-.378-.444-.378-.944zm2.579 8.48H9.59V9.32h2.472v6.522zm5.791-4.416c-.148-.067-.823-.405-1.485-.405-.04 0-.176 0-.311.055-.188.067-.243.202-.243.297 0 .257.352.351.783.445.5.122 1.162.257 1.566.607.243.203.365.486.392.595.041.095.108.351.108.648 0 .58-.257 1.215-.688 1.62-.271.257-.662.526-1.473.675-.148.027-.499.081-.918.081-.27 0-1.121-.04-1.944-.323-.202-.068-.271-.095-.621-.271l.554-1.985c.107.067.216.136.324.189.188.095.932.473 1.688.473.054 0 .229.014.405-.067.202-.081.257-.271.257-.352 0-.067-.014-.188-.148-.27-.257-.149-.689-.081-1.311-.298-.392-.135-1.363-.526-1.363-1.769 0-.324.081-1.107.77-1.675.716-.58 1.58-.567 1.863-.567.878 0 1.485.176 2.31.446l-.515 1.851zm4.321-5.672v10.088h-2.472V5.754h2.472zm1.376 1.608c0-.729.594-1.31 1.323-1.31s1.323.594 1.323 1.323-.607 1.323-1.323 1.323c-.162 0-.595-.054-.945-.392-.122-.121-.378-.444-.378-.944zm2.579 8.48h-2.472V9.32h2.472v6.522zm5.98-6.522h2.998l-2.917 3.228 3.174 3.295h-3.065l-2.255-2.458v2.458h-2.458V5.742h2.458v6.171l2.065-2.593zm5.724 3.849c.055.311.271 1.229 1.337 1.229.648 0 .905-.351 1.026-.58h2.606c-.095.27-.162.392-.229.513-.405.743-1.377 1.729-3.403 1.729-.229 0-.958 0-1.661-.243-.796-.283-2.065-1.094-2.052-3.2 0-.864.188-1.634.756-2.296.445-.499 1.351-1.215 2.984-1.215.445 0 1.647.014 2.62.932.54.513.77 1.094.851 1.337.135.419.216.878.216 1.782l-5.051.012zm2.58-1.432c-.055-.148-.081-.229-.162-.364-.243-.378-.662-.554-1.095-.554-.216 0-.77.054-1.106.607-.055.095-.081.148-.162.311h2.525z"/>
</svg>
