<svg xmlns="http://www.w3.org/2000/svg" xml:space="preserve" width="72" height="22" viewBox="0 0 72 22">
  <path fill="#70B224" d="M61.07.1c-6.075 0-11 4.925-11 11s4.925 11 11 11 11-4.925 11-11-4.925-11-11-11zm2.11 11.546v6.849h-4.22v-6.849h-5.655l7.765-9.297 7.765 9.297H63.18zM22.36 5.954v10.088h-2.472V5.954h2.472zm1.376 1.608c0-.729.594-1.31 1.323-1.31s1.323.594 1.323 1.323-.607 1.323-1.323 1.323c-.162 0-.595-.054-.945-.392-.122-.121-.378-.444-.378-.944zm2.579 8.48h-2.472V9.52h2.472v6.522zm5.981-6.522h2.998l-2.917 3.228 3.174 3.295h-3.065l-2.255-2.458v2.458h-2.458V5.942h2.458v6.171l2.065-2.593zm5.723 3.849c.055.311.271 1.229 1.337 1.229.648 0 .905-.351 1.026-.58h2.606c-.095.27-.162.392-.229.513-.405.743-1.377 1.729-3.403 1.729-.229 0-.958 0-1.661-.243-.796-.283-2.065-1.094-2.052-3.2 0-.864.188-1.634.756-2.296.445-.499 1.351-1.215 2.984-1.215.445 0 1.647.014 2.62.932.54.513.77 1.094.851 1.337.135.419.216.878.216 1.782l-5.051.012zm2.579-1.432c-.054-.148-.08-.229-.161-.364-.243-.378-.662-.554-1.095-.554-.216 0-.77.054-1.106.607-.055.095-.081.148-.162.311h2.524z"/>
</svg>
