<svg xmlns="http://www.w3.org/2000/svg" xml:space="preserve" viewBox="0 0 110 86">
  <path fill="#FFF" d="M54.746 0c24.247 0 43.903 19.597 43.903 43.764 0 .002 0-.002 0 0H110L91.506 62.209 72.992 43.764h11.591c0-.004 0 .004 0 0 0-16.424-13.358-29.744-29.837-29.744-8.239 0-15.698 3.328-21.098 8.71l-9.946-9.913C31.647 4.898 42.623 0 54.746 0zM0 42.236h11.351c0 .002 0-.002 0 0C11.351 66.403 31.007 86 55.254 86c12.123 0 23.099-4.898 31.044-12.816l-9.946-9.913c-5.4 5.381-12.859 8.71-21.098 8.71-16.478 0-29.837-13.32-29.837-29.744 0-.005 0 .004 0 0h11.591L18.494 23.791 0 42.236z"/>
</svg>
