<svg xmlns="http://www.w3.org/2000/svg" xml:space="preserve" viewBox="0 0 48 48">
  <path d="M43.9 36.8c0 3.6-3.1 6.6-6.7 6.4-3.8-.3-6.4-3.5-6-7.2 0-.2-.2-.6-.4-.7l-12-6c-.5-.3-.7 0-1 .3-2.2 2.2-4.8 3-7.8 2.2-3.1-.9-5-2.8-5.7-5.8-.9-3.5.7-7.1 3.8-8.9 3.1-1.8 7.1-1.2 9.5 1.4.6.6.9.6 1.6.2 3.8-1.9 7.6-3.8 11.5-5.7.5-.2.6-.4.5-1-.5-3.5 2-6.6 5.5-7.2 3.4-.5 6.7 1.9 7.2 5.2.6 3.6-1.7 6.9-5.2 7.5-2.1.4-4-.1-5.5-1.6-.4-.4-.7-.4-1.2-.2-3.9 2-7.7 3.9-11.6 5.8-.6.3-.7.6-.6 1.2.1.9 0 1.8 0 2.8 0 .3.2.6.3.7 4 2 8.1 4.1 12.1 6.1.2.1.7-.1.9-.2 3.6-3.3 9.4-1.6 10.5 3.2.2.6.2 1.1.3 1.5z"/>
</svg>
