<svg xmlns="http://www.w3.org/2000/svg" xml:space="preserve" viewBox="0 0 24 23">
  <path d="M23.6 13.5c-.1-.2-1-1-1.9-1.9l1.9-1.9c.4-.4-.6-1.7-1.2-1.1-.3.3-1.1 1-1.9 1.9l-1.9-1.9c-.4-.4-1.7.7-1.2 1.3.3.3 1 1.1 1.9 1.9-.9.9-1.7 1.7-1.8 1.9-.5.5.5 1.7 1.1 1.2.2-.1 1-1 1.9-1.9l1.9 1.9c.4.4 1.7-.8 1.2-1.4zM3 6.1C1.3 6.1.7 7.2.3 8.7c-.4 1.9-.4 4.1 0 6 .4 1.5 1.1 2.5 2.6 2.5H6C4.7 14.4 4.7 8.8 6 6.1H3z"/>
  <path d="M17.8 19.5c-.8-.5-1.1-1.2-1.5-2-.6-1.2-.7-2-.8-3.1v-.2c-.2-1.2-.1-4.4 0-5.5s.4-2.1.9-3.3c.4-.8.7-1.4 1.5-1.9 2.5-1.7 1.2-4.1 0-3.4-1.2.8-9.2 5.5-9.2 5.5-1.9 2.1-1.9 10 0 12 0 0 8 4.8 9.2 5.4 1.2.7 2.4-1.9-.1-3.5z"/>
</svg>
