<svg xmlns="http://www.w3.org/2000/svg" xml:space="preserve" viewBox="0 0 30 30">
  <path fill="#006dc1" d="M0 0v30h30V0H0zm15.3 17.3 3.7 2.4c.3.2.7.3 1.1.1.3-.1.5-.2.8-.2 1.6-.1 3 1 3.2 2.7.1 1.6-1 3-2.7 3.2-1.6.1-3-1-3.2-2.7 0-.4-.2-.8-.6-1L13.4 19c-.4-.3-.9-.3-1.3 0-.6.4-1.3.5-2 .5-2.3 0-4.1-1.9-4.1-4.2 0-2.3 1.8-4.2 4.1-4.2.7 0 1.4.2 2 .5.4.2.9.2 1.3 0l4.2-2.8c.3-.2.5-.6.6-1 .1-1.6 1.4-2.9 3-2.8 1.6 0 2.9 1.4 2.8 3 0 .4-.1.8-.2 1.1-.6 1.5-2.3 2.3-3.8 1.7-.4-.1-.8-.1-1.1.1l-3.7 2.4c-.6.4-1 1.2-1 1.9 0 .9.4 1.7 1.1 2.1z"/>
</svg>
