<svg xmlns="http://www.w3.org/2000/svg" xml:space="preserve" viewBox="-360 314.5 148.5 140.5">
  <path fill="#989899" d="M-310.8 426.8c5 5.8 13.9 9.7 24 9.7s19-3.9 24-9.7h-48zm74.8-69.7c0-2.9-2.4-5.3-5.3-5.3h-90.5c-2.9 0-5.3 2.4-5.3 5.3v57.1c0 2.9 2.4 5.3 5.3 5.3h90.5c2.9 0 5.3-2.4 5.3-5.3v-57.1zm-7.4 55.2h-86.4v-53.2h86.4v53.2z"/>
  <path fill="#989899" stroke="#989899" stroke-miterlimit="10" stroke-width=".5" d="M-297.6 376.5v21.6h-5.1v-21.6h-6.8v-4.6h18.8v4.6h-6.9zm25 21.6h-3.8l-8.6-26.2h5.3l5.3 17.1 5.3-17.1h5.3l-8.8 26.2z"/>
</svg>
