<svg xmlns="http://www.w3.org/2000/svg" xml:space="preserve" viewBox="0 0 148.5 140.5">
  <path d="M85.7 95.1h-5.5c-2.2 0-3.9-1.8-3.9-3.9s1.8-3.9 3.9-3.9h5.5c2.2 0 3.9 1.8 3.9 3.9s-1.7 3.9-3.9 3.9zm28.8 0H109c-2.2 0-3.9-1.8-3.9-3.9s1.8-3.9 3.9-3.9h5.5c2.2 0 3.9 1.8 3.9 3.9s-1.7 3.9-3.9 3.9zm-72 0H37c-2.2 0-3.9-1.8-3.9-3.9s1.8-3.9 3.9-3.9h5.5c2.2 0 3.9 1.8 3.9 3.9s-1.8 3.9-3.9 3.9z" class="st0"/>
  <path d="m134.7 79.6-7.9-20.7c-1.1-3-4.1-5-7.3-5H76.7c-3.2 0-6.1 1.9-7.3 5l-8.5 21.8c-.4.9-.5 1.9-.5 2.9V94c0 .6.1 1.2.2 1.8l2.5 10.4c.7 3.1 3.2 5.3 6.2 5.9v8.1c0 1.5 1.2 2.7 2.7 2.7h6.7c1.5 0 2.7-1.2 2.7-2.7v-8H113v8.2c0 1.5 1.2 2.7 2.7 2.7h6.7c1.5 0 2.7-1.2 2.7-2.7V112c3.1-.3 5.7-2.4 6.6-5.4l3.1-10.3c.2-.7.3-1.5.3-2.2V82.4c.1-1 0-1.9-.4-2.8zm-10.1 25.8-53.7.1L67.4 94V83.5l8.2-22.8H120l8.2 21.7v11.9l-3.6 11.1z" class="st0"/>
  <path d="M60.4 17.3H46.1c-15.6 0-28.2 12.5-28.2 27.9v49.7c0 8.2 6.1 15 14.1 16.3v9.1c0 1.5 1.2 2.7 2.7 2.7h3.4c1.5 0 2.7-1.2 2.7-2.7v-8.9h13.5v-6.9H34.6c-4.9 0-10.4-4.5-10.4-9.3l.1-49.9c0-11 10.8-21.7 22.1-21.7h14.2c12.4 0 23.7 11.5 23.7 23.7h6.5c0-16.6-13.7-30-30.4-30z" class="st0"/>
  <path d="M58 46.7h16.8s-1.4-14.6-13.6-14.6H58v14.6zm-8.5-14.6h-3.3c-12.9 0-13.6 14.6-13.6 14.6h16.8V32.1z" class="st0"/>
</svg>
