<svg xmlns="http://www.w3.org/2000/svg" xml:space="preserve" width="50" height="36" viewBox="0 0 50 36">
  <path fill="#FFF" d="M38.372 15.617v6.706l-3.789-2.334v-2.038l3.789-2.334m2-3.581-7.789 4.798v4.272l7.789 4.798V12.036zM28.193 26.871h-16.31c-1.243 0-2.255-.965-2.255-2.15V13.219c0-1.186 1.012-2.15 2.255-2.15h16.31c1.243 0 2.254.965 2.254 2.15V24.72c0 1.186-1.011 2.151-2.254 2.151zm-16.31-13.802c-.153 0-.255.091-.255.15V24.72c0 .06.102.15.255.15h16.31c.153 0 .254-.091.254-.15V13.219c0-.06-.102-.15-.254-.15h-16.31z"/>
  <path fill="#FFF" d="M24.739 17.436h-9.402c-.552 0-1-.447-1-1 0-.553.448-1 1-1h9.402c.552 0 1 .447 1 1 0 .553-.448 1-1 1z"/>
</svg>
