<svg xmlns="http://www.w3.org/2000/svg" xml:space="preserve" viewBox="0 0 88 88">
  <path d="M0 0v88h88V0H0zm27.238 59H16.714c-.634 0-1.107-.13-1.375-.563-.277-.45-.292-.956 0-1.537L26.52 37.207c.012-.022.012-.017 0-.04l-7.116-12.308c-.294-.586-.337-.958-.06-1.407.269-.437.802-.452 1.436-.452h10.524c1.614 0 2.406.838 2.93 1.771 0 0 7.192 12.446 7.235 12.516-.426.751-11.361 19.886-11.361 19.886-.538.97-1.297 1.827-2.87 1.827zM77 10.481 53.7 51.68a.062.062 0 0 0 0 .069l14.836 27.106c.294.584.301 1.1.021 1.55-.268.433-.763.595-1.396.595H56.649c-1.612 0-2.418-.995-2.94-1.928 0 0-14.915-27.324-14.953-27.395.746-1.32 23.418-41.599 23.418-41.599C62.738 9.064 63.42 8 64.991 8h10.631c.634 0 1.131.332 1.399.765.278.449.271 1.135-.021 1.716z"/>
</svg>
