<svg xmlns="http://www.w3.org/2000/svg" xmlns:xlink="http://www.w3.org/1999/xlink"><symbol id="asr16-9" viewBox="0 0 39 22" preserveAspectRatio="xMidYMid meet"><path fill="#606060" d="M36 22H3c-1.6 0-3-1.4-3-3V3c0-1.6 1.4-3 3-3h33c1.7 0 3 1.4 3 3v16c0 1.7-1.3 3-3 3z"/><path d="M10.5 15V7.6L8.6 9.3V7.5l1.9-1.6h1.7V15h-1.7zm6.6.1c-.8 0-1.5-.3-2.1-.8-.5-.5-.8-1.2-.8-2.1 0-.3 0-.6.1-.9.1-.3.3-.8.6-1.5l1.9-4h1.8l-1.9 3.8c.1 0 .2-.1.3-.1h.3c.7 0 1.2.3 1.7.8s.7 1.2.7 2c0 .9-.3 1.6-.8 2.1s-1 .7-1.8.7zm0-4.2c-.4 0-.6.1-.9.4-.2.2-.3.6-.3 1s.1.8.3 1c.2.2.5.4.9.4s.6-.1.9-.4.3-.6.3-1-.1-.7-.3-1c-.3-.3-.6-.4-.9-.4zm4.7.6V9.6h1.9v1.9h-1.9zm0 3.5v-1.9h1.9V15h-1.9zm8.5-4-2 4h-1.8l1.9-3.8c-.1 0-.2.1-.3.1h-.4c-.7 0-1.2-.3-1.7-.8s-.7-1.2-.7-2c0-.9.3-1.6.8-2.1s1.2-.8 2.1-.8 1.5.3 2.1.8c.5.5.8 1.2.8 2.1 0 .3 0 .6-.1 1-.2.4-.4.9-.7 1.5zm-2.1-3.8c-.4 0-.6.1-.9.4s-.3.6-.3 1 .1.7.3 1c.2.2.5.4.9.4s.6-.1.9-.4c.2-.2.3-.6.3-1s-.1-.8-.3-1c-.3-.2-.5-.4-.9-.4z" fill="#FFF"/></symbol><symbol id="asr4-3" viewBox="0 0 22 22" preserveAspectRatio="xMidYMid meet"><path fill="#606060" d="M19 22H3c-1.7 0-3-1.4-3-3V3c0-1.6 1.3-3 3-3h16c1.7 0 3 1.4 3 3v16c0 1.6-1.3 3-3 3z"/><path d="M7.9 13.7V15H6.3v-1.3H2.5v-1.6l3.2-6.3h1.8l-3.2 6.3h1.9v-1.7h1.6v1.7h.8v1.6h-.7zm2.5-2.2V9.6h1.9v1.9h-1.9zm0 3.5v-1.9h1.9V15h-1.9zm6.3.1c-.8 0-1.5-.2-2.1-.7s-.9-1.1-.9-2h1.7c0 .4.1.7.4.9.2.2.5.3.9.3s.7-.1.9-.3c.2-.2.3-.5.3-1 0-.4-.1-.7-.3-.9-.2-.2-.5-.3-1-.3h-.2V9.6h.2c.4 0 .7-.1.9-.3.2-.2.3-.5.3-.8 0-.4-.1-.7-.3-.9s-.5-.4-.8-.4-.6.1-.8.3c-.2.2-.3.5-.3.8h-1.7c0-.8.3-1.4.8-1.9s1.2-.7 2-.7 1.5.2 2 .7.8 1.1.8 1.9c0 .5-.1.9-.3 1.2-.2.3-.5.5-.8.7.4.2.7.5.9.8.2.3.3.8.3 1.3 0 .9-.3 1.6-.8 2-.6.6-1.3.8-2.1.8z" fill="#FFF"/></symbol><symbol id="audioDescription" viewBox="0 0 22 22" preserveAspectRatio="xMidYMid meet"><path fill="#606060" d="M19.1 22h-16c-1.6 0-3-1.4-3-3V3c0-1.6 1.4-3 3-3h16c1.6 0 3 1.4 3 3v16c0 1.6-1.3 3-3 3z"/><path d="m9 15-.5-1.6H5.2L4.6 15H2.7l3.4-9.3h1.4l3.4 9.3H9zM6.9 8.5l-1.2 3.4H8L6.9 8.5zm10.9 5.7c-.3.3-.6.5-1.1.7-.4.1-.8.1-1.3.1H12V5.8h3.3c.5 0 .9.1 1.4.2s.8.4 1.2.7c.4.4.6.8.7 1.2.1.5.2 1.1.2 1.8V11c0 .8-.1 1.4-.2 1.9-.1.4-.4.9-.8 1.3zM16.6 8c-.2-.2-.3-.3-.6-.4s-.5-.1-.8-.1h-1.4v6h1.4c.6 0 1-.1 1.2-.4s.4-.6.4-.9c0-.3.1-.9.1-1.7 0-.7 0-1.3-.1-1.6s-.1-.7-.2-.9z" fill="#FFF"/></symbol><symbol id="closedCaptioned" viewBox="0 0 22 22" preserveAspectRatio="xMidYMid meet"><path fill="#606060" d="M19.1 22h-16c-1.6 0-3-1.4-3-3V3c0-1.6 1.4-3 3-3h16c1.6 0 3 1.4 3 3v16c0 1.6-1.3 3-3 3z"/><path d="M7.4 15.1c-1 0-1.8-.3-2.4-.9s-1-1.4-1-2.4v-6h1.8v6c0 .5.1.9.4 1.2s.7.5 1.2.5.9-.2 1.2-.4c.3-.3.4-.8.4-1.3v-6h1.8v6.1c0 1-.3 1.8-1 2.4s-1.4.8-2.4.8zm9-7.7V15h-1.8V7.4h-2.4V5.8h6.6v1.6h-2.4z" fill="#FFF"/></symbol><symbol id="coChannel" viewBox="0 0 22 22" preserveAspectRatio="xMidYMid meet"><path fill="#606060" d="M19 22H3c-1.7 0-3-1.4-3-3V3c0-1.6 1.3-3 3-3h16c1.7 0 3 1.4 3 3v16c0 1.6-1.3 3-3 3z"/><g fill="#FFF"><circle cx="6.5" cy="11" r="3.7"/><circle cx="15.6" cy="11" r="3.7"/></g></symbol><symbol id="dolbyDigital" viewBox="0 0 22 22" preserveAspectRatio="xMidYMid meet"><path fill="#606060" d="M19.1 22h-16c-1.6 0-3-1.4-3-3V3c0-1.6 1.4-3 3-3h16c1.6 0 3 1.4 3 3v16c0 1.6-1.3 3-3 3z"/><path d="M10.1 0h2v22h-2zM19 6c-3 0-5 2.2-5 5s2 5 5 5V6zM3 16c3.6 0 5-2.2 5-5S6.6 6 3 6v10z" fill="#FFF"/></symbol><symbol id="fsk12" viewBox="0 0 22 22" preserveAspectRatio="xMidYMid meet"><path fill="#606060" d="M19.1 22h-16c-1.6 0-3-1.4-3-3V3c0-1.6 1.4-3 3-3h16c1.6 0 3 1.4 3 3v16c0 1.6-1.3 3-3 3z"/><path d="M7.7 15V7.6L5.8 9.3V7.5l1.9-1.6h1.7V15H7.7zm3.8 0v-1.5l3.5-4c.2-.2.3-.4.4-.6.1-.2.1-.4.1-.6 0-.3-.1-.6-.3-.8-.2-.2-.5-.3-.8-.3s-.6.1-.8.3c-.2.2-.3.5-.3.9h-1.7c0-.8.3-1.5.8-2s1.2-.7 2-.7 1.5.2 2 .7.8 1.1.8 2c0 .4-.1.8-.2 1.1s-.4.6-.8 1.1l-2.6 3h3.6V15h-5.7z" fill="#FFF"/></symbol><symbol id="fsk16" viewBox="0 0 22 22" preserveAspectRatio="xMidYMid meet"><path fill="#606060" d="M19.1 22h-16c-1.6 0-3-1.4-3-3V3c0-1.6 1.4-3 3-3h16c1.6 0 3 1.4 3 3v16c0 1.6-1.3 3-3 3z"/><path d="M7.7 15V7.6L5.8 9.3V7.5l1.9-1.6h1.7V15H7.7zm6.5.1c-.8 0-1.5-.3-2.1-.8-.5-.5-.8-1.2-.8-2.1 0-.3 0-.6.1-.9.1-.3.3-.8.6-1.5l1.9-4h1.8L14 9.6c.1 0 .2-.1.3-.1h.3c.7 0 1.2.3 1.7.8s.7 1.2.7 2c0 .9-.3 1.6-.8 2.1s-1.1.7-2 .7zm0-4.2c-.4 0-.6.1-.9.4s-.3.6-.3 1 .1.8.3 1 .5.4.9.4.6-.1.9-.4.3-.6.3-1-.1-.7-.3-1c-.2-.3-.5-.4-.9-.4z" fill="#FFF"/></symbol><symbol id="fsk18" viewBox="0 0 22 22" preserveAspectRatio="xMidYMid meet"><path fill="#606060" d="M19.1 22h-16c-1.6 0-3-1.4-3-3V3c0-1.6 1.4-3 3-3h16c1.6 0 3 1.4 3 3v16c0 1.6-1.3 3-3 3z"/><path d="M7.7 15V7.6L5.8 9.3V7.5l1.9-1.6h1.7V15H7.7zm6.6.1c-.9 0-1.6-.2-2.1-.7-.6-.5-.8-1.2-.8-2 0-.5.1-.9.3-1.3.2-.3.5-.6.8-.8-.3-.2-.5-.5-.7-.8s-.3-.7-.3-1.1c0-.8.3-1.4.8-1.9s1.2-.7 2-.7 1.5.2 2 .7.8 1.1.8 1.9c0 .5-.1.8-.3 1.1-.2.3-.4.6-.7.8.3.2.6.5.8.8.2.3.3.8.3 1.3 0 .9-.3 1.5-.8 2s-1.3.7-2.1.7zm0-4.1c-.4 0-.7.1-.9.4-.3.3-.4.6-.4.9 0 .4.1.7.4.9.2.2.5.4.9.4s.7-.1.9-.4c.2-.2.4-.5.4-.9s-.1-.7-.4-.9c-.3-.2-.6-.4-.9-.4zm0-3.8c-.3 0-.6.1-.8.3-.2.2-.3.5-.3.8s.1.6.3.8.5.3.8.3.6-.1.8-.3.3-.5.3-.8-.1-.6-.3-.8c-.2-.2-.5-.3-.8-.3z" fill="#FFF"/></symbol><symbol id="fsk6" viewBox="0 0 22 22" preserveAspectRatio="xMidYMid meet"><path fill="#606060" d="M19.1 22h-16c-1.6 0-3-1.4-3-3V3c0-1.6 1.4-3 3-3h16c1.6 0 3 1.4 3 3v16c0 1.6-1.3 3-3 3z"/><path fill="#FFF" d="M11.1 15.1c-.8 0-1.5-.3-2.1-.8-.5-.5-.8-1.2-.8-2.1 0-.3 0-.6.1-.9.1-.3.3-.8.7-1.5l2-4h1.8l-1.9 3.8c.1 0 .2-.1.3-.1h.4c.7 0 1.2.3 1.7.8s.7 1.2.7 2c0 .9-.3 1.6-.8 2.1-.6.5-1.3.7-2.1.7zm0-4.2c-.4 0-.6.1-.9.4s-.3.6-.3 1 .1.8.3 1 .5.4.9.4.6-.1.9-.4c.2-.2.3-.6.3-1s-.1-.7-.3-1c-.3-.3-.5-.4-.9-.4z"/></symbol><symbol id="highDefinition" viewBox="0 0 22 22" preserveAspectRatio="xMidYMid meet"><path fill="#606060" d="M19.1 22h-16c-1.6 0-3-1.4-3-3V3c0-1.6 1.4-3 3-3h16c1.6 0 3 1.4 3 3v16c0 1.6-1.3 3-3 3z"/><path d="M8.4 15v-3.9H5.3V15H3.4V5.8h1.8v3.8h3.1V5.8h1.8V15H8.4zm9.7-.8c-.3.3-.6.5-1.1.7-.4.1-.8.1-1.3.1h-3.3V5.8h3.3c.5 0 .9.1 1.4.2s.8.4 1.2.7c.4.4.6.8.7 1.2.1.5.2 1.1.2 1.8V11c0 .8-.1 1.4-.2 1.9-.2.4-.5.9-.9 1.3zM16.9 8c-.2-.2-.3-.3-.6-.4s-.5-.1-.8-.1h-1.4v6h1.4c.6 0 1-.1 1.2-.4s.4-.6.4-.9c0-.3.1-.9.1-1.7 0-.7 0-1.3-.1-1.6 0-.4-.1-.7-.2-.9z" fill="#FFF"/></symbol><symbol id="monochrome" viewBox="0 0 22 22" preserveAspectRatio="xMidYMid meet"><path fill="#606060" d="M19 22H3c-1.7 0-3-1.4-3-3V3c0-1.6 1.3-3 3-3h16c1.7 0 3 1.4 3 3v16c0 1.6-1.3 3-3 3z"/><path d="M5.9 15.1c-.6 0-1.2-.1-1.6-.2-.4-.1-.9-.4-1.3-.8L4.1 13c.2.2.5.4.8.5.3.1.6.1 1 .1.3 0 .6-.1.8-.2s.4-.3.4-.5-.1-.3-.2-.4-.3-.2-.6-.2l-1.1-.1c-.6-.1-1.1-.2-1.5-.5-.3-.3-.5-.8-.5-1.4 0-.7.3-1.2.8-1.6s1.3-.5 2-.5c.6 0 1.1.1 1.5.2.4.1.8.3 1.1.6l-1 1.1c-.2-.2-.5-.3-.7-.4-.3-.1-.6-.1-.9-.1-.3 0-.6.1-.7.2s-.3.3-.3.4c0 .2 0 .3.1.4.1.1.3.2.6.2l1.1.1c.7.1 1.2.3 1.5.6.3.3.5.8.5 1.4 0 .7-.3 1.3-.8 1.6-.5.4-1.2.6-2.1.6zM17 15h-1.4l-1.4-4.3-1.4 4.3h-1.4L9.3 8.3h1.8l1.1 4.2 1.4-4.2h1.2l1.4 4.2 1.1-4.2h1.8L17 15z" fill="#FFF"/></symbol></svg>