<svg xmlns="http://www.w3.org/2000/svg" viewBox="0 0 163 37" style="enable-background:new 0 0 163 37" xml:space="preserve" preserveAspectRatio="xMinYMid meet"><g id="Ebene_2"><g><path d="M12.367 21.392 7.508 11.91H2.381v9.48H.101V0h8.19c1.88 0 3.404.537 4.575 1.609 1.17 1.073 1.755 2.522 1.755 4.346 0 1.524-.42 2.787-1.261 3.79-.84 1.002-1.97 1.654-3.39 1.955l5.07 9.69-2.673.002zM8.081 2.04h-5.7V9.9h5.7c1.3 0 2.335-.331 3.104-.994.77-.662 1.155-1.636 1.155-2.921 0-1.265-.39-2.238-1.17-2.921S9.36 2.04 8.081 2.04zM28.69 21.39v-1.65c-1.057 1.22-2.442 1.83-4.157 1.83-1.614 0-2.9-.475-3.857-1.425-.957-.95-1.436-2.314-1.436-4.095V6.63h2.16v9.09c0 1.28.315 2.255.945 2.925.63.67 1.515 1.005 2.654 1.005 1.141 0 2.04-.34 2.7-1.02s.99-1.65.99-2.91V6.63h2.16v14.76H28.69zM45.701 21.39V12.3c0-1.28-.32-2.255-.96-2.925-.641-.67-1.53-1.005-2.671-1.005-1.14 0-2.035.335-2.685 1.005-.65.67-.975 1.646-.975 2.925v9.09h-2.16V6.63h2.16v1.62c1.06-1.2 2.439-1.8 4.14-1.8 1.6 0 2.885.48 3.855 1.44.97.96 1.454 2.31 1.454 4.05v9.45h-2.158zM61.9 21.39v-1.77c-.559.74-1.172 1.25-1.84 1.53-.668.28-1.45.42-2.348.42-1.535 0-2.691-.39-3.469-1.17a5.678 5.678 0 0 1-1.54-2.73c-.25-1.04-.374-2.26-.374-3.66 0-1.38.125-2.595.375-3.645.25-1.05.646-1.845 1.186-2.385a4.93 4.93 0 0 1 1.784-1.17c.65-.24 1.335-.36 2.056-.36.899 0 1.675.13 2.324.39.65.26 1.266.76 1.846 1.5V0h2.16v21.39H61.9zM58.21 8.37c-1.46 0-2.444.51-2.955 1.53-.51 1.02-.765 2.391-.765 4.11 0 1.76.25 3.14.75 4.14.5 1 1.489 1.5 2.97 1.5 1.44 0 2.415-.51 2.925-1.53.511-1.02.766-2.39.766-4.11 0-1.76-.251-3.14-.75-4.14-.501-1-1.481-1.5-2.941-1.5zM72.1 8.37v13.02h-2.16V8.37h-1.89V6.72h1.89V3.942c0-1.134.325-2.075.976-2.822C71.564.374 72.49 0 73.689 0h1.561v1.86h-1.17c-1.32 0-1.98.715-1.98 2.146V6.72h3.15v1.65H72.1zM88.18 21.39v-1.65c-1.057 1.22-2.442 1.83-4.157 1.83-1.614 0-2.9-.475-3.857-1.425-.957-.95-1.436-2.314-1.436-4.095V6.63h2.16v9.09c0 1.28.315 2.255.945 2.925.63.67 1.515 1.005 2.654 1.005 1.141 0 2.04-.34 2.7-1.02s.99-1.65.99-2.91V6.63h2.16v14.76H88.18zM105.19 21.39V12.3c0-1.28-.32-2.255-.96-2.925-.641-.67-1.53-1.005-2.671-1.005-1.14 0-2.035.335-2.685 1.005-.65.67-.975 1.646-.975 2.925v9.09h-2.16V6.63h2.16v1.62c1.06-1.2 2.439-1.8 4.14-1.8 1.6 0 2.885.48 3.855 1.44.97.96 1.454 2.31 1.454 4.05v9.45h-2.158zM122.314 21.394l-4.669-7.573-2.886 3.283v4.287h-2.16V0h2.16v14.31l6.659-7.68h2.7l-5.01 5.64 5.88 9.12-2.674.004zM136.93 9.45c-.4-.4-.785-.68-1.155-.84s-.835-.24-1.395-.24c-1.061 0-1.916.375-2.565 1.125-.65.75-.975 1.695-.975 2.835v9.06h-2.16V6.63h2.16v1.8c.399-.6.975-1.08 1.725-1.44s1.555-.54 2.415-.54c.76 0 1.405.095 1.935.285.53.19 1.065.555 1.605 1.095l-1.59 1.62zM149.68 21.39v-1.41c-.581.581-1.19.99-1.83 1.23-.641.24-1.45.36-2.431.36-1.04 0-1.875-.101-2.505-.3s-1.25-.61-1.859-1.23c-.61-.62-.915-1.56-.915-2.82 0-1.32.439-2.36 1.319-3.12.88-.76 2.141-1.14 3.78-1.14h4.44v-1.41c0-1.1-.293-1.915-.878-2.445-.586-.529-1.543-.795-2.872-.795-.972 0-1.717.12-2.232.36-.516.24-1.002.68-1.458 1.32l-1.53-1.35c.641-.84 1.355-1.415 2.146-1.725.79-.31 1.814-.465 3.075-.465 3.939 0 5.91 1.64 5.91 4.92v10.02h-2.16zm0-6.81h-4.141c-2.2 0-3.3.87-3.3 2.61 0 1.68 1.13 2.52 3.39 2.52.761 0 1.391-.06 1.891-.18s.984-.405 1.455-.855c.47-.45.705-1.285.705-2.505v-1.59zM161.229 21.39c-1.22 0-2.155-.37-2.805-1.11-.65-.74-.976-1.69-.976-2.85V8.37h-1.859V6.72h1.859V2.1h2.16v4.62h3.15v1.65h-3.15v9c0 1.44.67 2.16 2.011 2.16h1.14v1.86h-1.53z"/></g><g><path d="M4.375 36.598v-.809c-.255.338-.535.571-.841.699a2.76 2.76 0 0 1-1.073.192c-.702 0-1.23-.179-1.586-.535s-.59-.772-.704-1.248C.057 34.422 0 33.864 0 33.224c0-.631.057-1.187.171-1.667.114-.48.295-.844.542-1.091a2.26 2.26 0 0 1 .816-.535c.297-.11.61-.165.939-.165.411 0 .766.06 1.063.178.297.119.578.348.843.686v-3.813h.988v9.78h-.987zm-1.687-5.953c-.668 0-1.118.233-1.352.7-.232.466-.35 1.093-.35 1.879 0 .805.114 1.436.343 1.893.229.458.682.686 1.358.686.658 0 1.104-.233 1.337-.7s.35-1.093.35-1.879c0-.805-.114-1.436-.343-1.893-.227-.457-.676-.686-1.343-.686zM8.449 33.484c0 .736.172 1.307.515 1.711.343.405.834.607 1.475.607.384 0 .704-.056.96-.168s.525-.308.81-.586l.672.59c-.366.366-.729.631-1.091.795s-.82.247-1.378.247c-.924 0-1.646-.286-2.168-.857-.521-.571-.781-1.438-.781-2.599 0-1.088.244-1.937.733-2.544.489-.608 1.168-.912 2.037-.912s1.548.29 2.037.871c.489.581.733 1.379.733 2.394v.453H8.449zm3.361-1.865a1.58 1.58 0 0 0-.617-.741c-.283-.183-.604-.274-.96-.274s-.675.092-.953.274c-.28.184-.471.396-.577.638a3.016 3.016 0 0 0-.206.624 3.368 3.368 0 0 0-.048.604h3.566c0-.274-.012-.475-.034-.604a2.713 2.713 0 0 0-.171-.521zM17.228 36.681c-.585 0-1.102-.075-1.55-.225s-.855-.396-1.221-.741l.658-.653c.256.27.558.465.905.586.348.122.745.182 1.193.182.576 0 1.02-.098 1.331-.293.311-.195.466-.493.466-.893 0-.591-.375-.918-1.125-.982l-1.11-.095c-.649 0-1.148-.161-1.495-.482-.348-.321-.521-.766-.521-1.335 0-.615.229-1.099.686-1.452.457-.353 1.057-.53 1.797-.53 1.024 0 1.833.242 2.428.727l-.645.645c-.466-.357-1.065-.535-1.797-.535-.493 0-.869.097-1.125.29s-.384.47-.384.829c0 .313.092.557.274.731s.484.262.905.262l1.084.096c.64.055 1.131.221 1.475.499.343.278.514.718.514 1.319 0 .647-.247 1.151-.74 1.511-.495.358-1.162.539-2.003.539zM31.177 36.598V32.14H26.54v4.458h-1.042v-9.78h1.042v4.389h4.637v-4.389h1.042v9.78h-1.042zM35.483 33.484c0 .736.172 1.307.515 1.711.343.405.834.607 1.475.607.384 0 .704-.056.96-.168s.525-.308.81-.586l.672.59c-.366.366-.729.631-1.091.795s-.82.247-1.378.247c-.924 0-1.646-.286-2.168-.857-.521-.571-.781-1.438-.781-2.599 0-1.088.244-1.937.733-2.544.489-.608 1.168-.912 2.037-.912s1.548.29 2.037.871c.489.581.733 1.379.733 2.394v.453h-4.554zm3.361-1.865a1.58 1.58 0 0 0-.617-.741c-.283-.183-.604-.274-.96-.274s-.675.092-.953.274c-.279.183-.471.396-.576.638a3.016 3.016 0 0 0-.206.624 3.368 3.368 0 0 0-.048.604h3.566c0-.274-.012-.475-.034-.604a2.73 2.73 0 0 0-.172-.521zM44.262 36.681c-.585 0-1.102-.075-1.55-.225s-.855-.396-1.221-.741l.658-.653c.256.27.558.465.905.586.348.122.745.182 1.193.182.576 0 1.02-.098 1.331-.293.311-.195.466-.493.466-.893 0-.591-.375-.918-1.125-.982l-1.11-.095c-.649 0-1.148-.161-1.495-.482-.348-.321-.521-.766-.521-1.335 0-.615.229-1.099.686-1.452.457-.353 1.057-.53 1.797-.53 1.024 0 1.833.242 2.428.727l-.645.645c-.466-.357-1.065-.535-1.797-.535-.493 0-.869.097-1.125.29s-.384.47-.384.829c0 .313.092.557.274.731s.484.262.905.262l1.084.096c.64.055 1.131.221 1.475.499.343.278.514.718.514 1.319 0 .647-.247 1.151-.74 1.511-.494.358-1.161.539-2.003.539zM51.065 36.681c-.585 0-1.102-.075-1.55-.225s-.855-.396-1.221-.741l.658-.653c.256.27.558.465.905.586.348.122.745.182 1.193.182.576 0 1.02-.098 1.331-.293.311-.195.466-.493.466-.893 0-.591-.375-.918-1.125-.982l-1.11-.095c-.649 0-1.148-.161-1.495-.482-.348-.321-.521-.766-.521-1.335 0-.615.229-1.099.686-1.452.457-.353 1.057-.53 1.797-.53 1.024 0 1.833.242 2.428.727l-.645.645c-.466-.357-1.065-.535-1.797-.535-.493 0-.869.097-1.125.29s-.384.47-.384.829c0 .313.092.557.274.731s.484.262.905.262l1.084.096c.64.055 1.131.221 1.475.499.343.278.514.718.514 1.319 0 .647-.247 1.151-.74 1.511-.494.358-1.161.539-2.003.539zM55.688 27.929v-1.111h1.111v1.111h-1.111zm.054 8.669V29.85h.987v6.749h-.987zM61.338 36.681c-.585 0-1.102-.075-1.55-.225s-.855-.396-1.221-.741l.658-.653c.256.27.558.465.905.586.348.122.745.182 1.193.182.576 0 1.02-.098 1.331-.293.311-.195.466-.493.466-.893 0-.591-.375-.918-1.125-.982l-1.11-.095c-.649 0-1.148-.161-1.495-.482-.348-.321-.521-.766-.521-1.335 0-.615.229-1.099.686-1.452.457-.353 1.057-.53 1.797-.53 1.024 0 1.833.242 2.428.727l-.645.645c-.466-.357-1.065-.535-1.797-.535-.493 0-.869.097-1.125.29s-.384.47-.384.829c0 .313.092.557.274.731s.484.262.905.262l1.084.096c.64.055 1.131.221 1.475.499.343.278.514.718.514 1.319 0 .647-.247 1.151-.74 1.511-.494.358-1.161.539-2.003.539zM68.636 36.681c-.878 0-1.596-.3-2.153-.898-.559-.599-.837-1.452-.837-2.558 0-1.116.276-1.971.83-2.565.553-.595 1.272-.892 2.16-.892.484 0 .887.071 1.207.212.319.142.658.405 1.015.789l-.672.631c-.256-.283-.499-.48-.727-.589a1.888 1.888 0 0 0-.823-.165c-.686 0-1.191.231-1.516.693-.325.462-.487 1.09-.487 1.886 0 .43.032.782.096 1.056s.227.597.487.967.734.556 1.42.556c.329 0 .604-.055.823-.165.219-.11.461-.311.727-.604l.672.645c-.348.375-.686.636-1.015.782s-.732.219-1.207.219zM77.057 36.598v-4.17c0-.576-.144-1.017-.432-1.323-.288-.307-.692-.46-1.214-.46s-.933.156-1.234.467c-.302.311-.453.75-.453 1.316v4.17h-.987v-9.78h.987v3.772c.485-.549 1.116-.823 1.894-.823.759 0 1.353.224 1.783.672.43.448.645 1.056.645 1.824v4.334h-.989zM81.062 33.484c0 .736.172 1.307.515 1.711.343.405.834.607 1.475.607.384 0 .704-.056.96-.168s.525-.308.81-.586l.672.59c-.366.366-.729.631-1.091.795s-.82.247-1.378.247c-.924 0-1.646-.286-2.168-.857-.521-.571-.781-1.438-.781-2.599 0-1.088.244-1.937.733-2.544.489-.608 1.168-.912 2.037-.912s1.548.29 2.037.871c.489.581.733 1.379.733 2.394v.453h-4.554zm3.36-1.865a1.58 1.58 0 0 0-.617-.741c-.283-.183-.604-.274-.96-.274s-.675.092-.953.274c-.279.183-.471.396-.576.638a3.016 3.016 0 0 0-.206.624 3.368 3.368 0 0 0-.048.604h3.566c0-.274-.012-.475-.034-.604a2.73 2.73 0 0 0-.172-.521zM92.035 36.598v-4.156c0-.585-.146-1.031-.438-1.337-.293-.307-.699-.46-1.221-.46s-.931.153-1.228.46c-.298.306-.446.752-.446 1.337v4.156h-.987V29.85h.987v.741c.485-.549 1.116-.823 1.894-.823.731 0 1.318.219 1.763.658.443.439.665 1.056.665 1.852v4.321h-.989zM104.625 36.599l-2.223-4.335h-2.344v4.334h-1.042v-9.78h3.744c.859 0 1.557.246 2.092.736.535.491.803 1.153.803 1.987 0 .697-.192 1.274-.576 1.732s-.901.756-1.55.894l2.318 4.43-1.222.002zm-1.96-8.848h-2.606v3.594h2.606c.594 0 1.067-.151 1.42-.454.352-.303.527-.748.527-1.336 0-.578-.178-1.023-.535-1.335-.356-.313-.827-.469-1.412-.469zM112.088 36.598v-.754c-.482.558-1.116.837-1.9.837-.738 0-1.326-.217-1.764-.652-.438-.434-.656-1.058-.656-1.872V29.85h.987v4.156c0 .585.145 1.031.433 1.337.288.306.692.459 1.214.459.521 0 .933-.155 1.234-.466s.452-.754.452-1.331V29.85h.987v6.749h-.987zM119.864 36.598v-4.156c0-.585-.146-1.031-.438-1.337-.293-.307-.699-.46-1.221-.46s-.931.153-1.228.46c-.298.306-.446.752-.446 1.337v4.156h-.987V29.85h.987v.741c.485-.549 1.116-.823 1.894-.823.731 0 1.318.219 1.763.658.443.439.665 1.056.665 1.852v4.321h-.989zM127.271 36.598v-.809c-.255.338-.535.571-.841.699a2.76 2.76 0 0 1-1.073.192c-.702 0-1.23-.179-1.586-.535s-.59-.772-.704-1.248-.171-1.033-.171-1.673c0-.631.057-1.187.171-1.667.114-.48.295-.844.542-1.091.247-.247.52-.425.816-.535.297-.11.61-.165.939-.165.411 0 .766.06 1.063.178.297.119.578.348.843.686v-3.813h.988v9.78h-.987zm-1.686-5.953c-.668 0-1.118.233-1.352.7-.232.466-.35 1.093-.35 1.879 0 .805.114 1.436.343 1.893.229.458.682.686 1.358.686.658 0 1.104-.233 1.337-.7s.35-1.093.35-1.879c0-.805-.114-1.436-.343-1.893-.228-.457-.676-.686-1.343-.686zM131.936 30.645v5.953h-.987v-5.953h-.864v-.754h.864v-1.27c0-.519.148-.949.445-1.29s.721-.512 1.27-.512h.713v.851h-.535c-.604 0-.905.327-.905.981v1.24h1.44v.754h-1.441zM139.287 36.598v-.754c-.482.558-1.116.837-1.9.837-.738 0-1.326-.217-1.764-.652-.438-.434-.656-1.058-.656-1.872V29.85h.987v4.156c0 .585.145 1.031.433 1.337.288.306.692.459 1.214.459.521 0 .933-.155 1.234-.466s.452-.754.452-1.331V29.85h.987v6.749h-.987zM147.064 36.598v-4.156c0-.585-.146-1.031-.438-1.337-.293-.307-.699-.46-1.221-.46s-.931.153-1.228.46c-.298.306-.446.752-.446 1.337v4.156h-.987V29.85h.987v.741c.485-.549 1.116-.823 1.894-.823.731 0 1.318.219 1.763.658.443.439.665 1.056.665 1.852v4.321h-.989zM154.895 36.6l-2.135-3.462-1.32 1.501v1.96h-.987v-9.78h.987v6.543l3.045-3.512h1.235l-2.291 2.579 2.688 4.17-1.222.001zM159.93 36.681c-.585 0-1.102-.075-1.55-.225s-.855-.396-1.221-.741l.658-.653c.256.27.558.465.905.586.348.122.745.182 1.193.182.576 0 1.02-.098 1.331-.293.311-.195.466-.493.466-.893 0-.591-.375-.918-1.125-.982l-1.11-.095c-.649 0-1.148-.161-1.495-.482-.348-.321-.521-.766-.521-1.335 0-.615.229-1.099.686-1.452.457-.353 1.057-.53 1.797-.53 1.024 0 1.833.242 2.428.727l-.645.645c-.466-.357-1.065-.535-1.797-.535-.493 0-.869.097-1.125.29s-.384.47-.384.829c0 .313.092.557.274.731s.484.262.905.262l1.084.096c.64.055 1.131.221 1.475.499.343.278.514.718.514 1.319 0 .647-.247 1.151-.74 1.511-.495.358-1.162.539-2.003.539z"/></g></g></svg>