<?xml version="1.0" encoding="utf-8"?>
<!-- Generator: Adobe Illustrator 19.2.0, SVG Export Plug-In . SVG Version: 6.00 Build 0)  -->
<svg version="1.1" id="kontakt" xmlns="http://www.w3.org/2000/svg" xmlns:xlink="http://www.w3.org/1999/xlink" x="0px" y="0px"
	 width="526.5px" height="527px" viewBox="0 0 526.5 527" enable-background="new 0 0 526.5 527" xml:space="preserve">
<path fill="#F5BB11" d="M525.7,265.1c0,144.6-117.2,261.8-261.8,261.8C119.2,527,2,409.7,2,265.1C2,120.5,119.2,3.3,263.8,3.3
	C408.4,3.3,525.7,120.5,525.7,265.1z"/>
<path fill="#E5A810" d="M525.7,265.1c0-5.1-0.2-10.1-0.5-15.1L370.1,95L265.7,199.4l-15.3,125.2l18,104.8l65.8,87.9
	C444.7,486.5,525.7,385.3,525.7,265.1z"/>
<path fill="#FFE9BA" d="M356,387.2l-28.1-6.7c-0.1,0-0.1,0-0.3,0c-15.2,0-27.3-9.4-27.3-24.6l-0.8-21.2
	c30.4-20.5,56.8-67.8,56.8-123.6c0-74.6-41.4-112.5-92.4-112.5c-51,0-92.8,38-92.8,112.6C171.2,267,197,315,227,335.4v20.6
	c0,15.2-11.8,24.4-27,24.4c-0.1,0-0.1,0-0.3,0l-28.1,6.7c-47,14.5-65.1,45.2-71.1,81.8c44.8,35.8,101.5,57.6,163.3,57.6
	c61.8,0,118.5-22,163.3-57.8C421.1,432.2,403.1,401.7,356,387.2z"/>
<path fill="#005293" d="M356.1,387.2l-28.1-6.7c-0.1,0-0.1,0-0.3,0c-5.5,0-10.6-0.1-15-3.1c-10.9,15.2-28.7,25.8-48.8,25.8
	c-20.1,0-37.8-11-48.8-26.1c-4.4,3-9.6,3.5-15,3.5c-0.1,0-0.1,0-0.3,0l-28.1,6.7c-47,14.5-65.4,45.6-71.4,82.2
	c9.5,7.6,19.8,14.3,30.2,21c39.1,23.2,84.7,36.6,133.4,36.6c47.2,0,91.4-12.5,129.6-34.4c11.8-7.3,23.3-14.5,33.8-23
	C421.3,433,403.1,401.7,356.1,387.2z"/>
<path fill="#EED59C" d="M299.6,335.4l0.7,15.8c0.1,0.1,0.1,0.3,0.1,0.3s0,0-0.1,0v3.3c-7.1,2.3-15.2,3.8-22.7,3.8
	c-18.3,0-35.4-7.2-49.6-19.8c-3-2.7-5.9-5.6-8.6-8.7c-0.1,0-0.1,0-0.3-0.1c-0.1-0.2-0.1-0.2-0.1-0.3c-0.5-0.5-1.1-1.2-1.6-1.9
	c3.3,2.7,6.6,5.3,10.1,7.5c0.1,0.1,0.3,0.3,0.5,0.3c10.8,6.1,22.5,9.4,34.8,9.4C290.2,344.8,299.6,335.4,299.6,335.4z"/>
<path fill="#C77543" d="M317.3,151.3c0,0-45.5,67.2-116.1,70.6c0,0-8.5,59.7,18.2,108.1c0,0-24.3,23.9-69.9-4.4
	c0,0-114.6-255,109-241.5c0,0,25.7-28,73-13.5c59.1,18.1,123.5,113.7,41,250.9c0,0-15,11-65.3,7.5
	C307.3,329,367.4,287.9,317.3,151.3z"/>
<path fill="#9C603E" d="M201.2,221.8c0,0-34-8.2-25.1-50.1c0,0-21,36.6,24.2,61.1L201.2,221.8z"/>
<polygon fill="#FFFFFF" points="189.6,385.4 223.5,498.8 307.2,502.6 342.4,386.2 327.9,383.5 263.8,403.9 204.1,383.2 "/>
<polygon fill="#C6C6C6" points="215.1,378.9 261.4,419.2 240.7,460.3 186.2,386 "/>
<polygon fill="#C6C6C6" points="316.2,380.7 266.2,419.2 286.9,460.3 342.4,386.2 "/>
<polygon fill="#FFFFFF" points="220,373.7 261.4,405.5 240.7,446.7 189.6,380.5 "/>
<polygon fill="#FFFFFF" points="307.6,373.7 266.2,405.5 286.9,446.7 338.1,380.5 "/>
<rect x="261.4" y="419.2" fill="#C6C6C6" width="5.8" height="72.2"/>
<path fill="#0F303F" d="M343.2,252.3l-2.2-0.3c-3.7-0.5-7.2,2.1-7.7,5.9l-1.9,14.5c-0.1,1,0,1.9,0.2,2.8
	c-4.9,10.3-18.2,30.2-49.1,34.8c-0.8-2.4-2.9-4.4-5.6-4.7l-18.4-2.4c-3.7-0.5-7.2,2.1-7.7,5.9l-0.3,2.6c-0.5,3.7,2.1,7.2,5.9,7.7
	l18.4,2.4c3.2,0.4,6.1-1.5,7.2-4.5c32.8-4.5,48.4-24.9,54.8-37.1c0.2,0,0.3,0.2,0.5,0.2l2.2,0.3c3.7,0.5,7.2-2.1,7.7-5.9l1.9-14.5
	C349.5,256.2,346.9,252.8,343.2,252.3z"/>
<path fill="#0F303F" d="M203.9,270.3c0.9,3.7-1.4,7.4-5.1,8.2l-2.2,0.5c-3.7,0.9-7.4-1.4-8.2-5l-3.4-14.2c-0.9-3.7,1.4-7.3,5.1-8.2
	l2.2-0.5c3.7-0.9,7.3,1.4,8.2,5.1L203.9,270.3z"/>
<rect x="163.5" y="455.6" fill="#FFFFFF" width="205.9" height="21"/>
<path fill="#029AB0" d="M379.5,459.5H154.2l-0.4,42.9c30.4,15.9,71.6,24.5,111.4,24.5c41.1,0,78-10.3,114.5-27.2L379.5,459.5z"/>
<path fill="#0F303F" d="M286.6,464.4c0,4.6-3.1,8.3-6.8,8.3h-31.5c-3.8,0-6.8-3.7-6.8-8.3V453c0-4.6,3.1-8.3,6.8-8.3h31.5
	c3.8,0,6.8,3.7,6.8,8.3V464.4z"/>
<g>
	<path fill="#F5BB11" d="M378.8,397.7c-1.5,3-4.6,4.5-6.8,3.4c-2.3-1.1-2.9-4.5-1.4-7.5c1.5-3,4.5-4.5,6.8-3.4
		C379.7,391.3,380.3,394.7,378.8,397.7z"/>
	<path fill="#FB671D" d="M375.1,397.8l-2.3-1.1c-3.4-1.7-7.5-0.3-9.2,3.1L344.5,438c-1,2-0.8,4.3,0.2,6.2c-2.1,0.3-4,1.5-5,3.6
		L320.6,486c-0.2,0.4-0.2,0.9-0.4,1.3c-0.1,0.2-0.3,0.3-0.4,0.6c-2.9,5.9-4.3,21-2,22.2c2.3,1.1,13.8-10.2,16.8-16.1c0,0,0,0,0-0.1
		c0.2-0.2,0.4-0.4,0.5-0.7l19.1-38.3c1-2,0.8-4.3-0.2-6.2c2.1-0.3,4-1.5,5-3.6l19.1-38.3C379.8,403.6,378.4,399.5,375.1,397.8z"/>
	<path fill="#F5BB11" d="M346.4,462.7c-0.7,1.4-2.4,2-3.9,1.3l0,0c-1.4-0.7-2-2.5-1.3-3.9l27.6-55.3c0.7-1.4,2.4-2,3.9-1.3l0,0
		c1.4,0.7,2,2.5,1.3,3.9L346.4,462.7z"/>
	<path fill="#7E817A" d="M317.4,514.4c-0.3,0.7-1.2,1-1.9,0.6l0,0c-0.7-0.4-1-1.2-0.7-1.9l2.5-5.1c0.4-0.7,1.2-1,1.9-0.6l0,0
		c0.7,0.4,1,1.2,0.7,1.9L317.4,514.4z"/>
	
		<rect x="366.9" y="399.7" transform="matrix(0.4464 -0.8948 0.8948 0.4464 -160.5906 555.6205)" fill="#F5BB11" width="3.7" height="15.9"/>
	<polygon fill="#F5BB11" points="333.7,495.7 319.5,488.6 320.4,486.6 334.6,493.7 	"/>
</g>
</svg>
