<svg xmlns="http://www.w3.org/2000/svg" xmlns:xlink="http://www.w3.org/1999/xlink"><symbol id="Auto.min" viewBox="0 0 30 35" preserveAspectRatio="xMidYMid meet"><path d="M26.4 10c-.3-1-1.2-1.7-2.3-1.7H6C4.9 8.3 4 9 3.7 10L.3 19.8v4.9l1.6 6.6V33c0 .9.7 1.6 1.6 1.6h1.6c.9 0 1.6-.7 1.6-1.6v-1.6h16.4V33c0 .9.7 1.6 1.6 1.6h1.6c.9 0 1.6-.7 1.6-1.6v-1.6l1.6-6.6v-4.9L26.4 10zM6 26.4c-1.4 0-2.5-1.1-2.5-2.5s1.1-2.5 2.5-2.5 2.5 1.1 2.5 2.5-1.1 2.5-2.5 2.5zm18 0c-1.4 0-2.5-1.1-2.5-2.5s1.1-2.5 2.5-2.5 2.5 1.1 2.5 2.5-1.1 2.5-2.5 2.5zM3.6 18.2 6 10.8h18l2.5 7.4H3.6z"/></symbol><symbol id="Auto" viewBox="0 0 30 35" preserveAspectRatio="xMidYMid meet"><path d="M26.4 10c-.3-1-1.2-1.7-2.3-1.7H6C4.9 8.3 4 9 3.7 10L.3 19.8v4.9l1.6 6.6V33c0 .9.7 1.6 1.6 1.6h1.6c.9 0 1.6-.7 1.6-1.6v-1.6h16.4V33c0 .9.7 1.6 1.6 1.6h1.6c.9 0 1.6-.7 1.6-1.6v-1.6l1.6-6.6v-4.9L26.4 10zM6 26.4c-1.4 0-2.5-1.1-2.5-2.5s1.1-2.5 2.5-2.5 2.5 1.1 2.5 2.5-1.1 2.5-2.5 2.5zm18 0c-1.4 0-2.5-1.1-2.5-2.5s1.1-2.5 2.5-2.5 2.5 1.1 2.5 2.5-1.1 2.5-2.5 2.5zM3.6 18.2 6 10.8h18l2.5 7.4H3.6z"/></symbol><symbol id="Bahn.min" viewBox="0 0 30 35" preserveAspectRatio="xMidYMid meet"><path d="M15 .4C3.1.4 3.1 9.3 3.1 10.8v15.6c0 2.9 2.3 5.2 5.2 5.2l-2.2 2.2v.7h3.3l3-3H18l3 3h3v-.7l-2.2-2.2c2.9 0 5.2-2.3 5.2-5.2V10.8C26.9 9.3 26.9.4 15 .4zM8.3 28.7c-1.2 0-2.2-1-2.2-2.2 0-1.2 1-2.2 2.2-2.2s2.2 1 2.2 2.2c0 1.2-1 2.2-2.2 2.2zm5.2-16.4H6.1l1.5-5.9h5.9v5.9zm3 0v-6h5.9l1.5 5.9h-7.4zm5.2 16.4c-1.2 0-2.2-1-2.2-2.2 0-1.2 1-2.2 2.2-2.2 1.2 0 2.2 1 2.2 2.2 0 1.2-1 2.2-2.2 2.2z"/></symbol><symbol id="Bahn" viewBox="0 0 30 35" preserveAspectRatio="xMidYMid meet"><path d="M15 .4C3.1.4 3.1 9.3 3.1 10.8v15.6c0 2.9 2.3 5.2 5.2 5.2l-2.2 2.2v.7h3.3l3-3H18l3 3h3v-.7l-2.2-2.2c2.9 0 5.2-2.3 5.2-5.2V10.8C26.9 9.3 26.9.4 15 .4zM8.3 28.7c-1.2 0-2.2-1-2.2-2.2 0-1.2 1-2.2 2.2-2.2s2.2 1 2.2 2.2c0 1.2-1 2.2-2.2 2.2zm5.2-16.4H6.1l1.5-5.9h5.9v5.9zm3 0v-6h5.9l1.5 5.9h-7.4zm5.2 16.4c-1.2 0-2.2-1-2.2-2.2 0-1.2 1-2.2 2.2-2.2 1.2 0 2.2 1 2.2 2.2 0 1.2-1 2.2-2.2 2.2z"/></symbol><symbol id="Bus.min" preserveAspectRatio="xMidYMid meet"><circle cx="12.5" cy="12.5" r="12.5" fill="#a3047a"/><g fill="#fff"><path d="M19.898 7.77H5.597a.427.427 0 0 0-.423.376 9255.478 9255.478 0 0 1-.499 4.268v2.028a.427.427 0 0 0 .426.426l1.333-.001a.098.098 0 0 0 .093-.064 2.1 2.1 0 0 1 3.938-.001.1.1 0 0 0 .094.065l3.779-.001a.097.097 0 0 0 .092-.064 2.098 2.098 0 0 1 3.94 0 .098.098 0 0 0 .092.065H19.9a.427.427 0 0 0 .426-.426V8.195a.429.429 0 0 0-.428-.425zM7.586 12.424a.094.094 0 0 1-.069.029l-1.952.018a.096.096 0 0 1-.073-.033.094.094 0 0 1-.025-.076l.417-3.652a.099.099 0 0 1 .098-.088h1.444c.054 0 .098.042.099.097l.09 3.633a.095.095 0 0 1-.029.072zm3.86-.981c0 .026-.01.052-.028.07s-.044.029-.069.029H8.625a.098.098 0 0 1-.098-.099V8.721c0-.026.011-.051.029-.07a.098.098 0 0 1 .069-.028h2.724c.025 0 .051.011.069.028a.1.1 0 0 1 .028.07v2.722zm3.919 0c0 .026-.01.052-.029.07a.095.095 0 0 1-.07.029h-2.723a.105.105 0 0 1-.07-.029.1.1 0 0 1-.027-.07V8.721c0-.026.01-.051.027-.07a.105.105 0 0 1 .07-.028h2.723a.1.1 0 0 1 .07.028c.02.02.029.044.029.07v2.722zm3.918 0c0 .026-.01.052-.027.07a.102.102 0 0 1-.07.029h-2.723a.097.097 0 0 1-.07-.029.094.094 0 0 1-.029-.07V8.721c0-.026.01-.051.029-.07a.098.098 0 0 1 .07-.028h2.723c.025 0 .051.011.07.028.018.02.027.044.027.07v2.722z"/><circle cx="8.549" cy="15.609" r="1.621"/><circle cx="16.451" cy="15.61" r="1.621"/></g></symbol><symbol id="Bus" preserveAspectRatio="xMidYMid meet"><circle cx="12.5" cy="12.5" r="12.5" fill="#a3047a"/><g fill="#fff"><path d="M19.898 7.77H5.597a.427.427 0 0 0-.423.376 9255.478 9255.478 0 0 1-.499 4.268v2.028a.427.427 0 0 0 .426.426l1.333-.001a.098.098 0 0 0 .093-.064 2.1 2.1 0 0 1 3.938-.001.1.1 0 0 0 .094.065l3.779-.001a.097.097 0 0 0 .092-.064 2.098 2.098 0 0 1 3.94 0 .098.098 0 0 0 .092.065H19.9a.427.427 0 0 0 .426-.426V8.195a.429.429 0 0 0-.428-.425zM7.586 12.424a.094.094 0 0 1-.069.029l-1.952.018a.096.096 0 0 1-.073-.033.094.094 0 0 1-.025-.076l.417-3.652a.099.099 0 0 1 .098-.088h1.444c.054 0 .098.042.099.097l.09 3.633a.095.095 0 0 1-.029.072zm3.86-.981c0 .026-.01.052-.028.07s-.044.029-.069.029H8.625a.098.098 0 0 1-.098-.099V8.721c0-.026.011-.051.029-.07a.098.098 0 0 1 .069-.028h2.724c.025 0 .051.011.069.028a.1.1 0 0 1 .028.07v2.722zm3.919 0c0 .026-.01.052-.029.07a.095.095 0 0 1-.07.029h-2.723a.105.105 0 0 1-.07-.029.1.1 0 0 1-.027-.07V8.721c0-.026.01-.051.027-.07a.105.105 0 0 1 .07-.028h2.723a.1.1 0 0 1 .07.028c.02.02.029.044.029.07v2.722zm3.918 0c0 .026-.01.052-.027.07a.102.102 0 0 1-.07.029h-2.723a.097.097 0 0 1-.07-.029.094.094 0 0 1-.029-.07V8.721c0-.026.01-.051.029-.07a.098.098 0 0 1 .07-.028h2.723c.025 0 .051.011.07.028.018.02.027.044.027.07v2.722z"/><circle cx="8.549" cy="15.609" r="1.621"/><circle cx="16.451" cy="15.61" r="1.621"/></g></symbol><symbol id="Faehre.min" preserveAspectRatio="xMidYMid meet"><circle cx="12.5" cy="12.5" r="12.5" fill="#8166a1"/><path d="M19.97 13.106a.679.679 0 0 0-.676-.599l-1.549.003-1.291-2.65a.34.34 0 0 0-.297-.193l-4.278-.15a.097.097 0 0 1-.078-.045c-.242-.367-1.949-2.977-1.949-2.977-.08-.121-.225-.18-.365-.147s-.246.149-.266.292l-.205 1.564a.09.09 0 0 1-.039.067 4.664 4.664 0 0 0-1.635 2.41c-.148.523-.273 1.444-.325 1.85l-2.161.004a.1.1 0 0 0-.083.045.097.097 0 0 0-.005.095l1.683 3.54c.111.236.35.389.611.391 1.904.025 9.61.111 11.603-.004a4.33 4.33 0 0 0 .732-.1c.543-.133.902-.65.836-1.207l-.263-2.189zM7.713 12.53c.053-.418.162-1.201.292-1.661.412-1.451 1.51-2.133 1.51-2.133a.346.346 0 0 0 .16-.248l.076-.571a.095.095 0 0 1 .074-.083.095.095 0 0 1 .105.041l1.42 2.168a.343.343 0 0 0 .275.156l4.241.148c.035 0 .068.021.084.055l1.028 2.11-9.265.018z" fill="#fff"/></symbol><symbol id="Faehre" preserveAspectRatio="xMidYMid meet"><circle cx="12.5" cy="12.5" r="12.5" fill="#8166a1"/><path d="M19.97 13.106a.679.679 0 0 0-.676-.599l-1.549.003-1.291-2.65a.34.34 0 0 0-.297-.193l-4.278-.15a.097.097 0 0 1-.078-.045c-.242-.367-1.949-2.977-1.949-2.977-.08-.121-.225-.18-.365-.147s-.246.149-.266.292l-.205 1.564a.09.09 0 0 1-.039.067 4.664 4.664 0 0 0-1.635 2.41c-.148.523-.273 1.444-.325 1.85l-2.161.004a.1.1 0 0 0-.083.045.097.097 0 0 0-.005.095l1.683 3.54c.111.236.35.389.611.391 1.904.025 9.61.111 11.603-.004a4.33 4.33 0 0 0 .732-.1c.543-.133.902-.65.836-1.207l-.263-2.189zM7.713 12.53c.053-.418.162-1.201.292-1.661.412-1.451 1.51-2.133 1.51-2.133a.346.346 0 0 0 .16-.248l.076-.571a.095.095 0 0 1 .074-.083.095.095 0 0 1 .105.041l1.42 2.168a.343.343 0 0 0 .275.156l4.241.148c.035 0 .068.021.084.055l1.028 2.11-9.265.018z" fill="#fff"/></symbol><symbol id="Regio-NVV.min" preserveAspectRatio="xMidYMid meet"><circle cx="12.5" cy="12.5" r="12.5" fill="#009892"/><path d="M15.005 18.309a.099.099 0 0 0-.098.098v1.451c0 .055.044.098.098.098h.656a.098.098 0 0 0 .098-.098v-1.451a.099.099 0 0 0-.098-.098h-.656zm2.556-2.346c.017-2.076.081-5.201.096-5.914a1.719 1.719 0 0 0-.023-.312c-.179-.979-.649-2.333-1.122-3.187-.44-.795-.877-1.116-1.841-1.315-.684-.141-2.17-.19-2.17-.19-.777.003-1.476.047-2.17.19-.964.199-1.4.52-1.842 1.315-.472.854-.943 2.209-1.122 3.187a1.712 1.712 0 0 0-.023.312c.014.713.079 3.838.096 5.914a1.93 1.93 0 0 0 1.929 1.912h6.264a1.93 1.93 0 0 0 1.928-1.912zM8.17 9.93a.096.096 0 0 1-.017-.086l.713-2.504a.099.099 0 0 1 .095-.071h3.085c.055 0 .099.044.099.098V9.87a.098.098 0 0 1-.099.098H8.248a.094.094 0 0 1-.078-.038zm1.771 6.959a.89.89 0 1 1 .001-1.78.89.89 0 0 1-.001 1.78zm2.559-4.54a.889.889 0 1 1 0-1.778.889.889 0 0 1 0 1.778zm2.741 4.54a.89.89 0 1 1 .001-1.78.89.89 0 0 1-.001 1.78zm1.59-6.959a.101.101 0 0 1-.078.039h-3.799a.098.098 0 0 1-.099-.098V7.368c0-.054.044-.098.099-.098h3.085c.044 0 .083.029.095.071l.713 2.503a.099.099 0 0 1-.016.086zm-7.492 8.379a.098.098 0 0 0-.097.098v1.451c0 .055.043.098.097.098h.656a.098.098 0 0 0 .098-.098v-1.451a.099.099 0 0 0-.098-.098h-.656z" fill="#fff"/></symbol><symbol id="Regio-NVV" preserveAspectRatio="xMidYMid meet"><circle cx="12.5" cy="12.5" r="12.5" fill="#009892"/><path d="M15.005 18.309a.099.099 0 0 0-.098.098v1.451c0 .055.044.098.098.098h.656a.098.098 0 0 0 .098-.098v-1.451a.099.099 0 0 0-.098-.098h-.656zm2.556-2.346c.017-2.076.081-5.201.096-5.914a1.719 1.719 0 0 0-.023-.312c-.179-.979-.649-2.333-1.122-3.187-.44-.795-.877-1.116-1.841-1.315-.684-.141-2.17-.19-2.17-.19-.777.003-1.476.047-2.17.19-.964.199-1.4.52-1.842 1.315-.472.854-.943 2.209-1.122 3.187a1.712 1.712 0 0 0-.023.312c.014.713.079 3.838.096 5.914a1.93 1.93 0 0 0 1.929 1.912h6.264a1.93 1.93 0 0 0 1.928-1.912zM8.17 9.93a.096.096 0 0 1-.017-.086l.713-2.504a.099.099 0 0 1 .095-.071h3.085c.055 0 .099.044.099.098V9.87a.098.098 0 0 1-.099.098H8.248a.094.094 0 0 1-.078-.038zm1.771 6.959a.89.89 0 1 1 .001-1.78.89.89 0 0 1-.001 1.78zm2.559-4.54a.889.889 0 1 1 0-1.778.889.889 0 0 1 0 1.778zm2.741 4.54a.89.89 0 1 1 .001-1.78.89.89 0 0 1-.001 1.78zm1.59-6.959a.101.101 0 0 1-.078.039h-3.799a.098.098 0 0 1-.099-.098V7.368c0-.054.044-.098.099-.098h3.085c.044 0 .083.029.095.071l.713 2.503a.099.099 0 0 1-.016.086zm-7.492 8.379a.098.098 0 0 0-.097.098v1.451c0 .055.043.098.097.098h.656a.098.098 0 0 0 .098-.098v-1.451a.099.099 0 0 0-.098-.098h-.656z" fill="#fff"/></symbol><symbol id="Regio-RMV.min" preserveAspectRatio="xMidYMid meet"><circle cx="12.5" cy="12.5" r="12.5"/><path d="M15.005 18.309a.099.099 0 0 0-.098.098v1.451c0 .055.044.098.098.098h.656a.098.098 0 0 0 .098-.098v-1.451a.099.099 0 0 0-.098-.098h-.656zm2.556-2.346c.017-2.076.081-5.201.096-5.914a1.719 1.719 0 0 0-.023-.312c-.179-.979-.649-2.333-1.122-3.187-.44-.795-.877-1.116-1.841-1.315-.684-.141-2.17-.19-2.17-.19-.777.003-1.476.047-2.17.19-.964.199-1.4.52-1.842 1.315-.472.854-.943 2.209-1.122 3.187a1.712 1.712 0 0 0-.023.312c.014.713.079 3.838.096 5.914a1.93 1.93 0 0 0 1.929 1.912h6.264a1.93 1.93 0 0 0 1.928-1.912zM8.17 9.93a.096.096 0 0 1-.017-.086l.713-2.504a.099.099 0 0 1 .095-.071h3.085c.055 0 .099.044.099.098V9.87a.098.098 0 0 1-.099.098H8.248a.094.094 0 0 1-.078-.038zm1.771 6.959a.89.89 0 1 1 .001-1.78.89.89 0 0 1-.001 1.78zm2.559-4.54a.889.889 0 1 1 0-1.778.889.889 0 0 1 0 1.778zm2.741 4.54a.89.89 0 1 1 .001-1.78.89.89 0 0 1-.001 1.78zm1.59-6.959a.101.101 0 0 1-.078.039h-3.799a.098.098 0 0 1-.099-.098V7.368c0-.054.044-.098.099-.098h3.085c.044 0 .083.029.095.071l.713 2.503a.099.099 0 0 1-.016.086zm-7.492 8.379a.098.098 0 0 0-.097.098v1.451c0 .055.043.098.097.098h.656a.098.098 0 0 0 .098-.098v-1.451a.099.099 0 0 0-.098-.098h-.656z" fill="#fff"/></symbol><symbol id="Regio-RMV" preserveAspectRatio="xMidYMid meet"><circle cx="12.5" cy="12.5" r="12.5"/><path d="M15.005 18.309a.099.099 0 0 0-.098.098v1.451c0 .055.044.098.098.098h.656a.098.098 0 0 0 .098-.098v-1.451a.099.099 0 0 0-.098-.098h-.656zm2.556-2.346c.017-2.076.081-5.201.096-5.914a1.719 1.719 0 0 0-.023-.312c-.179-.979-.649-2.333-1.122-3.187-.44-.795-.877-1.116-1.841-1.315-.684-.141-2.17-.19-2.17-.19-.777.003-1.476.047-2.17.19-.964.199-1.4.52-1.842 1.315-.472.854-.943 2.209-1.122 3.187a1.712 1.712 0 0 0-.023.312c.014.713.079 3.838.096 5.914a1.93 1.93 0 0 0 1.929 1.912h6.264a1.93 1.93 0 0 0 1.928-1.912zM8.17 9.93a.096.096 0 0 1-.017-.086l.713-2.504a.099.099 0 0 1 .095-.071h3.085c.055 0 .099.044.099.098V9.87a.098.098 0 0 1-.099.098H8.248a.094.094 0 0 1-.078-.038zm1.771 6.959a.89.89 0 1 1 .001-1.78.89.89 0 0 1-.001 1.78zm2.559-4.54a.889.889 0 1 1 0-1.778.889.889 0 0 1 0 1.778zm2.741 4.54a.89.89 0 1 1 .001-1.78.89.89 0 0 1-.001 1.78zm1.59-6.959a.101.101 0 0 1-.078.039h-3.799a.098.098 0 0 1-.099-.098V7.368c0-.054.044-.098.099-.098h3.085c.044 0 .083.029.095.071l.713 2.503a.099.099 0 0 1-.016.086zm-7.492 8.379a.098.098 0 0 0-.097.098v1.451c0 .055.043.098.097.098h.656a.098.098 0 0 0 .098-.098v-1.451a.099.099 0 0 0-.098-.098h-.656z" fill="#fff"/></symbol><symbol id="S-Bahn.min" preserveAspectRatio="xMidYMid meet"><circle cx="12.5" cy="12.5" r="12.5" fill="#009252"/><path d="M15.98 11.817c-2.529-1.407-3.91-.746-5.294-2.079-.834-.799-.369-2.251 1.455-2.191 2.466.079 4.631 2.199 4.631 2.199V7.498c-3.381-2.24-6.188-1.727-7.606-.687-2.21 1.614-2.735 5.217.735 6.672 1.682.705 3.089.792 3.888 1.136.927.398 1.468 2.23-.878 2.639-1.843.318-3.794-.77-5.347-2.672.015.033 0 2.594 0 2.594 2.593 2.16 7.122 3.055 9.489-.496 1.131-1.692.365-4.068-1.073-4.867z" fill="#fff"/></symbol><symbol id="S-Bahn" preserveAspectRatio="xMidYMid meet"><circle cx="12.5" cy="12.5" r="12.5" fill="#009252"/><path d="M15.98 11.817c-2.529-1.407-3.91-.746-5.294-2.079-.834-.799-.369-2.251 1.455-2.191 2.466.079 4.631 2.199 4.631 2.199V7.498c-3.381-2.24-6.188-1.727-7.606-.687-2.21 1.614-2.735 5.217.735 6.672 1.682.705 3.089.792 3.888 1.136.927.398 1.468 2.23-.878 2.639-1.843.318-3.794-.77-5.347-2.672.015.033 0 2.594 0 2.594 2.593 2.16 7.122 3.055 9.489-.496 1.131-1.692.365-4.068-1.073-4.867z" fill="#fff"/></symbol><symbol id="Taxi.min" preserveAspectRatio="xMidYMid meet"><circle cx="12.5" cy="12.5" r="12.5" fill="#d5a602"/><circle cx="17.496" cy="13.542" r="1.016" fill="none"/><path d="m18.227 11.068-1.042-2.88a.768.768 0 0 0-.722-.507H8.537a.77.77 0 0 0-.722.507l-1.042 2.88h11.454z" fill="none"/><circle cx="7.574" cy="13.542" r="1.016" fill="none"/><path d="M6.845 15.913h11.311c.542 0 1.01-.408 1.117-.975.164-.848.22-1.619.155-2.463-.037-.488-.241-.975-.247-.99l-1.285-3.554a1.524 1.524 0 0 0-1.433-1.006H8.537c-.642 0-1.215.402-1.433 1.006a3801.64 3801.64 0 0 1-1.286 3.554c-.004.016-.209.502-.246.99a9.012 9.012 0 0 0 .154 2.463c.109.567.577.975 1.119.975zm10.651-1.355a1.016 1.016 0 1 1 0-2.032 1.016 1.016 0 0 1 0 2.032zm-9.681-6.37a.768.768 0 0 1 .722-.507h7.926a.77.77 0 0 1 .722.507l1.042 2.88H6.774l1.041-2.88zm-.241 4.338a1.016 1.016 0 1 1 0 2.032 1.016 1.016 0 0 1 0-2.032zm1.462 3.886H7.672a.101.101 0 0 0-.069.027.102.102 0 0 0-.028.07v1.223c0 .188.153.342.343.342h.874a.343.343 0 0 0 .343-.342v-1.223a.105.105 0 0 0-.028-.07.108.108 0 0 0-.071-.027zm8.126 0h-1.363a.104.104 0 0 0-.07.027.1.1 0 0 0-.027.07v1.223c0 .188.152.342.342.342h.875a.342.342 0 0 0 .342-.342v-1.223a.104.104 0 0 0-.027-.07.113.113 0 0 0-.072-.027z" fill="#fff"/></symbol><symbol id="Taxi" preserveAspectRatio="xMidYMid meet"><circle cx="12.5" cy="12.5" r="12.5" fill="#d5a602"/><circle cx="17.496" cy="13.542" r="1.016" fill="none"/><path d="m18.227 11.068-1.042-2.88a.768.768 0 0 0-.722-.507H8.537a.77.77 0 0 0-.722.507l-1.042 2.88h11.454z" fill="none"/><circle cx="7.574" cy="13.542" r="1.016" fill="none"/><path d="M6.845 15.913h11.311c.542 0 1.01-.408 1.117-.975.164-.848.22-1.619.155-2.463-.037-.488-.241-.975-.247-.99l-1.285-3.554a1.524 1.524 0 0 0-1.433-1.006H8.537c-.642 0-1.215.402-1.433 1.006a3801.64 3801.64 0 0 1-1.286 3.554c-.004.016-.209.502-.246.99a9.012 9.012 0 0 0 .154 2.463c.109.567.577.975 1.119.975zm10.651-1.355a1.016 1.016 0 1 1 0-2.032 1.016 1.016 0 0 1 0 2.032zm-9.681-6.37a.768.768 0 0 1 .722-.507h7.926a.77.77 0 0 1 .722.507l1.042 2.88H6.774l1.041-2.88zm-.241 4.338a1.016 1.016 0 1 1 0 2.032 1.016 1.016 0 0 1 0-2.032zm1.462 3.886H7.672a.101.101 0 0 0-.069.027.102.102 0 0 0-.028.07v1.223c0 .188.153.342.343.342h.874a.343.343 0 0 0 .343-.342v-1.223a.105.105 0 0 0-.028-.07.108.108 0 0 0-.071-.027zm8.126 0h-1.363a.104.104 0 0 0-.07.027.1.1 0 0 0-.027.07v1.223c0 .188.152.342.342.342h.875a.342.342 0 0 0 .342-.342v-1.223a.104.104 0 0 0-.027-.07.113.113 0 0 0-.072-.027z" fill="#fff"/></symbol><symbol id="Tram-NVV.min" preserveAspectRatio="xMidYMid meet"><circle cx="12.5" cy="12.5" r="12.5" fill="#ee1c24"/><path d="M19.619 9.494h-9.01l1.812-1.812a.098.098 0 0 0 0-.137L9.563 4.688a.098.098 0 0 0-.137 0L6.568 7.546a.097.097 0 0 0 0 .137l1.811 1.812H5.82a.794.794 0 0 0-.793.733c-.111 1.418-.354 4.493-.441 5.627a.399.399 0 0 0 .398.433h.701a.995.995 0 0 0 1.891.134.995.995 0 0 0 1.885-.624.098.098 0 0 1 .094-.123h5.532c.03 0 .06.015.077.038a.1.1 0 0 1 .017.085.995.995 0 0 0 1.886.624.995.995 0 0 0 1.89-.134h1.06a.402.402 0 0 0 .4-.4v-5.597a.797.797 0 0 0-.798-.797zM7.543 15.008a.095.095 0 0 1-.07.029H5.516a.098.098 0 0 1-.072-.031.095.095 0 0 1-.027-.073l.289-4.705a.099.099 0 0 1 .098-.093h1.553a.1.1 0 0 1 .1.096l.117 4.706a.11.11 0 0 1-.031.071zm.1-7.45a.098.098 0 0 1 0-.137l1.725-1.725a.097.097 0 0 1 .137 0l1.725 1.725a.097.097 0 0 1 0 .137L9.504 9.283a.098.098 0 0 1-.137 0L7.643 7.558zm2.845 4.738a.1.1 0 0 1-.099.099H8.327a.099.099 0 0 1-.099-.099v-2.063a.1.1 0 0 1 .099-.099h2.063a.1.1 0 0 1 .099.099v2.063zm3.033 0a.099.099 0 0 1-.099.099h-2.063a.099.099 0 0 1-.099-.099v-2.063a.1.1 0 0 1 .099-.099h2.063a.1.1 0 0 1 .099.099v2.063zm3.032 0a.099.099 0 0 1-.099.099h-2.063a.099.099 0 0 1-.099-.099v-2.063a.1.1 0 0 1 .099-.099h2.063a.1.1 0 0 1 .099.099v2.063zm3.032 2.577a.099.099 0 0 1-.099.099h-2.063a.099.099 0 0 1-.099-.099v-4.64a.1.1 0 0 1 .099-.099h2.063a.1.1 0 0 1 .099.099v4.64z" fill="#fff"/></symbol><symbol id="Tram-NVV" preserveAspectRatio="xMidYMid meet"><circle cx="12.5" cy="12.5" r="12.5" fill="#ee1c24"/><path d="M19.619 9.494h-9.01l1.812-1.812a.098.098 0 0 0 0-.137L9.563 4.688a.098.098 0 0 0-.137 0L6.568 7.546a.097.097 0 0 0 0 .137l1.811 1.812H5.82a.794.794 0 0 0-.793.733c-.111 1.418-.354 4.493-.441 5.627a.399.399 0 0 0 .398.433h.701a.995.995 0 0 0 1.891.134.995.995 0 0 0 1.885-.624.098.098 0 0 1 .094-.123h5.532c.03 0 .06.015.077.038a.1.1 0 0 1 .017.085.995.995 0 0 0 1.886.624.995.995 0 0 0 1.89-.134h1.06a.402.402 0 0 0 .4-.4v-5.597a.797.797 0 0 0-.798-.797zM7.543 15.008a.095.095 0 0 1-.07.029H5.516a.098.098 0 0 1-.072-.031.095.095 0 0 1-.027-.073l.289-4.705a.099.099 0 0 1 .098-.093h1.553a.1.1 0 0 1 .1.096l.117 4.706a.11.11 0 0 1-.031.071zm.1-7.45a.098.098 0 0 1 0-.137l1.725-1.725a.097.097 0 0 1 .137 0l1.725 1.725a.097.097 0 0 1 0 .137L9.504 9.283a.098.098 0 0 1-.137 0L7.643 7.558zm2.845 4.738a.1.1 0 0 1-.099.099H8.327a.099.099 0 0 1-.099-.099v-2.063a.1.1 0 0 1 .099-.099h2.063a.1.1 0 0 1 .099.099v2.063zm3.033 0a.099.099 0 0 1-.099.099h-2.063a.099.099 0 0 1-.099-.099v-2.063a.1.1 0 0 1 .099-.099h2.063a.1.1 0 0 1 .099.099v2.063zm3.032 0a.099.099 0 0 1-.099.099h-2.063a.099.099 0 0 1-.099-.099v-2.063a.1.1 0 0 1 .099-.099h2.063a.1.1 0 0 1 .099.099v2.063zm3.032 2.577a.099.099 0 0 1-.099.099h-2.063a.099.099 0 0 1-.099-.099v-4.64a.1.1 0 0 1 .099-.099h2.063a.1.1 0 0 1 .099.099v4.64z" fill="#fff"/></symbol><symbol id="Tram-RMV.min" preserveAspectRatio="xMidYMid meet"><circle cx="12.5" cy="12.5" r="12.5" fill="#eb6810"/><path d="M19.619 9.494h-9.01l1.812-1.812a.098.098 0 0 0 0-.137L9.563 4.688a.098.098 0 0 0-.137 0L6.568 7.546a.097.097 0 0 0 0 .137l1.811 1.812H5.82a.794.794 0 0 0-.793.733c-.111 1.418-.354 4.493-.441 5.627a.399.399 0 0 0 .398.433h.701a.995.995 0 0 0 1.891.134.995.995 0 0 0 1.885-.624.098.098 0 0 1 .094-.123h5.532c.03 0 .06.015.077.038a.1.1 0 0 1 .017.085.995.995 0 0 0 1.886.624.995.995 0 0 0 1.89-.134h1.06a.402.402 0 0 0 .4-.4v-5.597a.797.797 0 0 0-.798-.797zM7.543 15.008a.095.095 0 0 1-.07.029H5.516a.098.098 0 0 1-.072-.031.095.095 0 0 1-.027-.073l.289-4.705a.099.099 0 0 1 .098-.093h1.553a.1.1 0 0 1 .1.096l.117 4.706a.11.11 0 0 1-.031.071zm.1-7.45a.098.098 0 0 1 0-.137l1.725-1.725a.097.097 0 0 1 .137 0l1.725 1.725a.097.097 0 0 1 0 .137L9.504 9.283a.098.098 0 0 1-.137 0L7.643 7.558zm2.845 4.738a.1.1 0 0 1-.099.099H8.327a.099.099 0 0 1-.099-.099v-2.063a.1.1 0 0 1 .099-.099h2.063a.1.1 0 0 1 .099.099v2.063zm3.033 0a.099.099 0 0 1-.099.099h-2.063a.099.099 0 0 1-.099-.099v-2.063a.1.1 0 0 1 .099-.099h2.063a.1.1 0 0 1 .099.099v2.063zm3.032 0a.099.099 0 0 1-.099.099h-2.063a.099.099 0 0 1-.099-.099v-2.063a.1.1 0 0 1 .099-.099h2.063a.1.1 0 0 1 .099.099v2.063zm3.032 2.577a.099.099 0 0 1-.099.099h-2.063a.099.099 0 0 1-.099-.099v-4.64a.1.1 0 0 1 .099-.099h2.063a.1.1 0 0 1 .099.099v4.64z" fill="#fff"/></symbol><symbol id="Tram-RMV" preserveAspectRatio="xMidYMid meet"><circle cx="12.5" cy="12.5" r="12.5" fill="#eb6810"/><path d="M19.619 9.494h-9.01l1.812-1.812a.098.098 0 0 0 0-.137L9.563 4.688a.098.098 0 0 0-.137 0L6.568 7.546a.097.097 0 0 0 0 .137l1.811 1.812H5.82a.794.794 0 0 0-.793.733c-.111 1.418-.354 4.493-.441 5.627a.399.399 0 0 0 .398.433h.701a.995.995 0 0 0 1.891.134.995.995 0 0 0 1.885-.624.098.098 0 0 1 .094-.123h5.532c.03 0 .06.015.077.038a.1.1 0 0 1 .017.085.995.995 0 0 0 1.886.624.995.995 0 0 0 1.89-.134h1.06a.402.402 0 0 0 .4-.4v-5.597a.797.797 0 0 0-.798-.797zM7.543 15.008a.095.095 0 0 1-.07.029H5.516a.098.098 0 0 1-.072-.031.095.095 0 0 1-.027-.073l.289-4.705a.099.099 0 0 1 .098-.093h1.553a.1.1 0 0 1 .1.096l.117 4.706a.11.11 0 0 1-.031.071zm.1-7.45a.098.098 0 0 1 0-.137l1.725-1.725a.097.097 0 0 1 .137 0l1.725 1.725a.097.097 0 0 1 0 .137L9.504 9.283a.098.098 0 0 1-.137 0L7.643 7.558zm2.845 4.738a.1.1 0 0 1-.099.099H8.327a.099.099 0 0 1-.099-.099v-2.063a.1.1 0 0 1 .099-.099h2.063a.1.1 0 0 1 .099.099v2.063zm3.033 0a.099.099 0 0 1-.099.099h-2.063a.099.099 0 0 1-.099-.099v-2.063a.1.1 0 0 1 .099-.099h2.063a.1.1 0 0 1 .099.099v2.063zm3.032 0a.099.099 0 0 1-.099.099h-2.063a.099.099 0 0 1-.099-.099v-2.063a.1.1 0 0 1 .099-.099h2.063a.1.1 0 0 1 .099.099v2.063zm3.032 2.577a.099.099 0 0 1-.099.099h-2.063a.099.099 0 0 1-.099-.099v-4.64a.1.1 0 0 1 .099-.099h2.063a.1.1 0 0 1 .099.099v4.64z" fill="#fff"/></symbol><symbol id="U-Bahn.min" preserveAspectRatio="xMidYMid meet"><circle cx="12.5" cy="12.5" r="12.5" fill="#0067ad"/><path d="M7.291 5.924v4.292c0 4.303.009 4.667.117 5.211.273 1.344 1.111 2.41 2.392 3.053.942.469 2.159.678 3.288.566 1.008-.096 1.949-.418 2.695-.914.375-.252.906-.773 1.135-1.113.336-.504.58-1.105.711-1.756.053-.252.059-.695.068-4.809l.012-4.531h-3.104v4.15c0 2.727-.014 4.256-.035 4.461-.043.369-.164.809-.285 1.035a1.744 1.744 0 0 1-.738.705c-.818.402-2.016.256-2.584-.311-.288-.289-.486-.754-.57-1.338-.019-.143-.031-1.821-.031-4.466V5.924H7.291z" fill="#fff"/></symbol><symbol id="U-Bahn" preserveAspectRatio="xMidYMid meet"><circle cx="12.5" cy="12.5" r="12.5" fill="#0067ad"/><path d="M7.291 5.924v4.292c0 4.303.009 4.667.117 5.211.273 1.344 1.111 2.41 2.392 3.053.942.469 2.159.678 3.288.566 1.008-.096 1.949-.418 2.695-.914.375-.252.906-.773 1.135-1.113.336-.504.58-1.105.711-1.756.053-.252.059-.695.068-4.809l.012-4.531h-3.104v4.15c0 2.727-.014 4.256-.035 4.461-.043.369-.164.809-.285 1.035a1.744 1.744 0 0 1-.738.705c-.818.402-2.016.256-2.584-.311-.288-.289-.486-.754-.57-1.338-.019-.143-.031-1.821-.031-4.466V5.924H7.291z" fill="#fff"/></symbol><symbol id="nvvLegendeBus.min" viewBox="0 0 25 25" preserveAspectRatio="xMidYMid meet"><g stroke="none" stroke-width="1" fill="none" fill-rule="evenodd"><path d="M0 0h25v25H0z"/><g fill-rule="nonzero"><circle fill="#FFF" cx="12.5" cy="12.5" r="12.5"/><path d="M12.5 24.405C5.934 24.405.595 19.065.595 12.5.595 5.934 5.934.595 12.5.595c6.566 0 11.905 5.34 11.905 11.905 0 6.566-5.34 11.905-11.905 11.905zM7.333 12.5c.948-.301 1.421-.818 1.421-1.83 0-1.14-.818-2.002-2.777-2.002H3.221v7.944h2.562c2.024 0 3.036-.732 3.036-2.24 0-1.054-.495-1.721-1.486-1.872zm-1.657-.56h-.41v-1.786h.41c.624 0 1.033.258 1.033.904 0 .516-.409.882-1.033.882zm.193 3.23h-.602v-1.917h.645c.668 0 .905.345.905.97 0 .602-.323.946-.948.946zM16.03 8.667h-2.002v4.93c0 1.055-.28 1.442-.968 1.442-.625 0-.926-.409-.926-1.291v-5.08H9.981v5.339c0 1.614.969 2.69 3.036 2.69 1.959 0 3.013-1.097 3.013-2.991V8.668zm4.607 3.165c-1.055-.41-1.313-.69-1.313-1.098 0-.43.323-.732 1.034-.732.495 0 1.119.15 1.614.387l.086-1.55c-.753-.172-1.4-.258-2.067-.258-1.722 0-2.863.904-2.863 2.325 0 1.14.56 1.937 1.701 2.325 1.184.409 1.42.667 1.42 1.119 0 .474-.451.69-1.119.69-.56 0-1.098-.065-1.743-.345l-.108 1.743c.818.173 1.486.259 2.174.259 1.895 0 3.014-1.034 3.014-2.583 0-1.077-.495-1.766-1.83-2.282z" fill="#751673"/></g></g></symbol><symbol id="nvvLegendeBus" viewBox="0 0 25 25" preserveAspectRatio="xMidYMid meet"><g stroke="none" stroke-width="1" fill="none" fill-rule="evenodd"><path d="M0 0h25v25H0z"/><g fill-rule="nonzero"><circle fill="#FFF" cx="12.5" cy="12.5" r="12.5"/><path d="M12.5 24.405C5.934 24.405.595 19.065.595 12.5.595 5.934 5.934.595 12.5.595c6.566 0 11.905 5.34 11.905 11.905 0 6.566-5.34 11.905-11.905 11.905ZM7.333 12.5c.948-.301 1.421-.818 1.421-1.83 0-1.14-.818-2.002-2.777-2.002H3.221v7.944h2.562c2.024 0 3.036-.732 3.036-2.24 0-1.054-.495-1.721-1.486-1.872Zm-1.657-.56h-.41v-1.786h.41c.624 0 1.033.258 1.033.904 0 .516-.409.882-1.033.882Zm.193 3.23h-.602v-1.917h.645c.668 0 .905.345.905.97 0 .602-.323.946-.948.946ZM16.03 8.667h-2.002v4.93c0 1.055-.28 1.442-.968 1.442-.625 0-.926-.409-.926-1.291v-5.08H9.981v5.339c0 1.614.969 2.69 3.036 2.69 1.959 0 3.013-1.097 3.013-2.991V8.668Zm4.607 3.165c-1.055-.41-1.313-.69-1.313-1.098 0-.43.323-.732 1.034-.732.495 0 1.119.15 1.614.387l.086-1.55c-.753-.172-1.4-.258-2.067-.258-1.722 0-2.863.904-2.863 2.325 0 1.14.56 1.937 1.701 2.325 1.184.409 1.42.667 1.42 1.119 0 .474-.451.69-1.119.69-.56 0-1.098-.065-1.743-.345l-.108 1.743c.818.173 1.486.259 2.174.259 1.895 0 3.014-1.034 3.014-2.583 0-1.077-.495-1.766-1.83-2.282Z" fill="#751673"/></g></g></symbol><symbol id="nvvLegendeRegio.min" viewBox="0 0 25 25" preserveAspectRatio="xMidYMid meet"><g stroke="none" stroke-width="1" fill="none" fill-rule="evenodd"><circle fill="#569387" cx="12.5" cy="12.5" r="12.5"/><path d="M13.321 5.882c2.894 0 4.048 1.689 4.048 3.573 0 1.673-1.089 2.826-2.568 3.167v.048c.845.195 1.267.796 1.609 1.803l1.545 4.645h-3.333l-1.252-4.044c-.293-.958-.813-1.25-1.496-1.25h-.699v5.294H8.054V5.882zm-.991 2.209h-1.155v3.508h1.17c1.009 0 1.773-.731 1.773-1.722 0-1.023-.537-1.786-1.788-1.786z" fill="#FFF" fill-rule="nonzero"/></g></symbol><symbol id="nvvLegendeRegio" viewBox="0 0 25 25" preserveAspectRatio="xMidYMid meet"><g stroke="none" stroke-width="1" fill="none" fill-rule="evenodd"><circle fill="#569387" cx="12.5" cy="12.5" r="12.5"/><path d="M13.321 5.882c2.894 0 4.048 1.689 4.048 3.573 0 1.673-1.089 2.826-2.568 3.167v.048c.845.195 1.267.796 1.609 1.803l1.545 4.645h-3.333l-1.252-4.044c-.293-.958-.813-1.25-1.496-1.25h-.699v5.294H8.054V5.882Zm-.991 2.209h-1.155v3.508h1.17c1.009 0 1.773-.731 1.773-1.722 0-1.023-.537-1.786-1.788-1.786Z" fill="#FFF" fill-rule="nonzero"/></g></symbol><symbol id="nvvLegendeRegioTram.min" viewBox="0 0 25 25" preserveAspectRatio="xMidYMid meet"><g stroke="none" stroke-width="1" fill="none" fill-rule="evenodd"><path d="M0 0h25v25H0z"/><circle fill="#C1001F" cx="12.5" cy="12.5" r="12.5"/><path d="M11.81 7.815c.708.736 1.031 2.467.336 3.543-.375.579-.984.902-1.79 1.118.238.166.535.237.745.448.554.558.75 1.585 1.007 2.499.231.82.501 1.632.67 2.34l.076.345H9.796c-.18-.606-.41-1.39-.634-2.238-.252-.952-.339-2.113-1.485-2.163H7.52v4.4H4.5V6.92h1.584l.348-.002c.346-.003.68-.007.945-.014 1.803-.044 3.548-.008 4.433.911zm9.322-.895v2.275H18.71v8.913h-3.021V9.195h-2.387V7.032c-.003-.053-.006-.106.038-.112h7.793zM7.642 9.08l-.196.002v2.461c.539 0 .879.082 1.268-.037.898-.274 1.018-1.622.41-2.163-.327-.292-.842-.272-1.482-.263z" fill="#FFF"/></g></symbol><symbol id="nvvLegendeRegioTram" viewBox="0 0 25 25" preserveAspectRatio="xMidYMid meet"><g stroke="none" stroke-width="1" fill="none" fill-rule="evenodd"><path d="M0 0h25v25H0z"/><circle fill="#C1001F" cx="12.5" cy="12.5" r="12.5"/><path d="M11.81 7.815c.708.736 1.031 2.467.336 3.543-.375.579-.984.902-1.79 1.118.238.166.535.237.745.448.554.558.75 1.585 1.007 2.499.231.82.501 1.632.67 2.34l.076.345H9.796c-.18-.606-.41-1.39-.634-2.238-.252-.952-.339-2.113-1.485-2.163H7.52v4.4H4.5V6.92h1.584l.348-.002c.346-.003.68-.007.945-.014 1.803-.044 3.548-.008 4.433.911Zm9.322-.895v2.275H18.71v8.913h-3.021V9.195h-2.387V7.032c-.003-.053-.006-.106.038-.112h7.793ZM7.642 9.08l-.196.002v2.461c.539 0 .879.082 1.268-.037.898-.274 1.018-1.622.41-2.163-.327-.292-.842-.272-1.482-.263Z" fill="#FFF"/></g></symbol><symbol id="nvvLegendeTaxi.min" viewBox="0 0 25 25" preserveAspectRatio="xMidYMid meet"><g stroke="none" stroke-width="1" fill="none" fill-rule="evenodd"><path d="M0 0h25v25H0z"/><g fill-rule="nonzero"><path d="M25 12.5C25 19.404 19.404 25 12.5 25S0 19.404 0 12.5C0 5.597 5.596 0 12.5 0S25 5.597 25 12.5z" fill="#F8DD38"/><path d="M12.5 24.405C5.934 24.405.595 19.066.595 12.5.595 5.934 5.934.595 12.5.595c6.566 0 11.905 5.34 11.905 11.905 0 6.566-5.34 11.905-11.905 11.905zM8.108 8.604H5.762l-2.648 8.03h1.98l.517-1.744h2.454l.43 1.743h2.11l-2.497-8.03zm-2.088 4.8.904-3.207h.022l.753 3.207H6.02zm7.104-2.69c0-.431.323-.733 1.034-.733.495 0 1.12.13 1.593.323l.086-1.593a8.706 8.706 0 0 0-2.046-.215c-1.721 0-2.862.969-2.862 2.432 0 2.778 3.12 2.046 3.12 3.488 0 .495-.451.732-1.118.732-.56 0-1.185-.108-1.744-.344l-.108 1.722c.71.172 1.486.258 2.174.258 1.895 0 3.014-1.055 3.014-2.648 0-2.626-3.143-2.023-3.143-3.423zm8.956-2.11h-5.533v1.55h1.765v6.48h2.002v-6.48h1.766v-1.55z" fill="#000"/></g></g></symbol><symbol id="nvvLegendeTaxi" viewBox="0 0 25 25" preserveAspectRatio="xMidYMid meet"><g stroke="none" stroke-width="1" fill="none" fill-rule="evenodd"><path d="M0 0h25v25H0z"/><g fill-rule="nonzero"><path d="M25 12.5C25 19.404 19.404 25 12.5 25S0 19.404 0 12.5C0 5.597 5.596 0 12.5 0S25 5.597 25 12.5Z" fill="#F8DD38"/><path d="M12.5 24.405C5.934 24.405.595 19.066.595 12.5.595 5.934 5.934.595 12.5.595c6.566 0 11.905 5.34 11.905 11.905 0 6.566-5.34 11.905-11.905 11.905ZM8.108 8.604H5.762l-2.648 8.03h1.98l.517-1.744h2.454l.43 1.743h2.11l-2.497-8.03Zm-2.088 4.8.904-3.207h.022l.753 3.207H6.02Zm7.104-2.69c0-.431.323-.733 1.034-.733.495 0 1.12.13 1.593.323l.086-1.593a8.706 8.706 0 0 0-2.046-.215c-1.721 0-2.862.969-2.862 2.432 0 2.778 3.12 2.046 3.12 3.488 0 .495-.451.732-1.118.732-.56 0-1.185-.108-1.744-.344l-.108 1.722c.71.172 1.486.258 2.174.258 1.895 0 3.014-1.055 3.014-2.648 0-2.626-3.143-2.023-3.143-3.423Zm8.956-2.11h-5.533v1.55h1.765v6.48h2.002v-6.48h1.766v-1.55Z" fill="#000"/></g></g></symbol><symbol id="nvvLegendeTram.min" viewBox="0 0 25 25" preserveAspectRatio="xMidYMid meet"><g stroke="none" stroke-width="1" fill="none" fill-rule="evenodd"><path d="M0 0h25v25H0z"/><circle fill="#C1001F" cx="12.5" cy="12.5" r="12.5"/><path d="M12.3 10.928c1.338 0 1.928.728 1.982 1.471l.004.112V15.9h-1.362l-.067-.647c-.29.536-.848.714-1.361.714-.87 0-1.406-.513-1.406-1.494 0-1.066.735-1.561 2.283-1.602l.216-.003h.246v-.156c0-.446-.223-.67-.826-.67-.517 0-.935.067-1.254.155l-.152.047v-1.07c.312-.09.96-.246 1.696-.246zm-2.166.022v1.494c-.111-.022-.268-.022-.38-.022-.713 0-1.07.424-1.07 1.27V15.9H7.031v-4.816h1.45l.09.959c.268-.87.736-1.093 1.473-1.093h.09zm10.735 0c.893 0 1.474.625 1.474 1.606V15.9h-1.63v-2.898c0-.402-.2-.58-.513-.58-.447 0-.625.334-.625.736V15.9H17.99v-2.898c0-.402-.2-.58-.513-.58-.446 0-.625.334-.625.736V15.9h-1.63v-4.816h1.563v.847c.09-.624.647-.98 1.34-.98.602 0 1.07.334 1.294.847.245-.49.692-.848 1.45-.848zM7.567 9.033v1.315H5.938V15.9H4.153v-5.552H2.657V9.033h4.91zm5.268 4.593h-.112c-.915 0-1.205.223-1.205.78 0 .424.223.625.536.625.352 0 .723-.173.775-.752l.006-.14v-.513z" fill="#FFF" fill-rule="nonzero"/></g></symbol><symbol id="nvvLegendeTram" viewBox="0 0 25 25" preserveAspectRatio="xMidYMid meet"><g stroke="none" stroke-width="1" fill="none" fill-rule="evenodd"><path d="M0 0h25v25H0z"/><circle fill="#C1001F" cx="12.5" cy="12.5" r="12.5"/><path d="M12.3 10.928c1.338 0 1.928.728 1.982 1.471l.004.112V15.9h-1.362l-.067-.647c-.29.536-.848.714-1.361.714-.87 0-1.406-.513-1.406-1.494 0-1.066.735-1.561 2.283-1.602l.216-.003h.246v-.156c0-.446-.223-.67-.826-.67-.517 0-.935.067-1.254.155l-.152.047v-1.07c.312-.09.96-.246 1.696-.246Zm-2.166.022v1.494c-.111-.022-.268-.022-.38-.022-.713 0-1.07.424-1.07 1.27V15.9H7.031v-4.816h1.45l.09.959c.268-.87.736-1.093 1.473-1.093h.09Zm10.735 0c.893 0 1.474.625 1.474 1.606V15.9h-1.63v-2.898c0-.402-.2-.58-.513-.58-.447 0-.625.334-.625.736V15.9H17.99v-2.898c0-.402-.2-.58-.513-.58-.446 0-.625.334-.625.736V15.9h-1.63v-4.816h1.563v.847c.09-.624.647-.98 1.34-.98.602 0 1.07.334 1.294.847.245-.49.692-.848 1.45-.848ZM7.567 9.033v1.315H5.938V15.9H4.153v-5.552H2.657V9.033h4.91Zm5.268 4.593h-.112c-.915 0-1.205.223-1.205.78 0 .424.223.625.536.625.352 0 .723-.173.775-.752l.006-.14v-.513Z" fill="#FFF" fill-rule="nonzero"/></g></symbol><symbol id="poller.min" viewBox="0 0 12 15" preserveAspectRatio="xMidYMid meet"><path class="st0" d="M10.9 11.9h-.4L10 10l-.5-2.3L9 5.5l-.5-2.3-.2-1.1C8 .9 7.1 0 6 0S4 .9 3.7 2.1l-.2 1.1L3 5.5l-.5 2.2L2 10l-.4 1.9h-.5c-.6 0-1.1.6-1.1 1.4v.3c0 .8.5 1.4 1.1 1.4h9.7c.6 0 1.1-.6 1.1-1.4v-.3c0-.9-.4-1.4-1-1.4zm.6 1.7c0 .5-.2.9-.6.9H1.1c-.4 0-.7-.4-.7-.9v-.3c0-.5.3-.9.7-.9h9.6c.9 0 .8.6.8 1.2zM8.1 3.2l.5 2.3H3.4l.5-2.3h4.2zm1 4.5.5 2.3H2.4l.5-2.3h6.2z"/></symbol><symbol id="poller" viewBox="0 0 12 15" preserveAspectRatio="xMidYMid meet"><path class="st0" d="M10.9 11.9h-.4L10 10l-.5-2.3L9 5.5l-.5-2.3-.2-1.1C8 .9 7.1 0 6 0S4 .9 3.7 2.1l-.2 1.1L3 5.5l-.5 2.2L2 10l-.4 1.9h-.5c-.6 0-1.1.6-1.1 1.4v.3c0 .8.5 1.4 1.1 1.4h9.7c.6 0 1.1-.6 1.1-1.4v-.3c0-.9-.4-1.4-1-1.4zm.6 1.7c0 .5-.2.9-.6.9H1.1c-.4 0-.7-.4-.7-.9v-.3c0-.5.3-.9.7-.9h9.6c.9 0 .8.6.8 1.2zM8.1 3.2l.5 2.3H3.4l.5-2.3h4.2zm1 4.5.5 2.3H2.4l.5-2.3h6.2z"/></symbol></svg>