<svg xmlns="http://www.w3.org/2000/svg" xmlns:xlink="http://www.w3.org/1999/xlink"><symbol id="chevronLeft" viewBox="0 0 24 24" preserveAspectRatio="xMidYMid meet"><path d="M14.996 19A.996.996 0 0 0 16 18a1 1 0 0 0-.295-.71L10.412 12l5.293-5.29a1.005 1.005 0 0 0-1.418-1.42l-5.992 6a1 1 0 0 0 0 1.42l5.992 6a.998.998 0 0 0 .709.29Z" fill="#fff"/></symbol><symbol id="chevronRight" viewBox="0 0 24 24" preserveAspectRatio="xMidYMid meet"><path d="M9.004 19A.996.996 0 0 1 8 18a1 1 0 0 1 .295-.71L13.588 12 8.295 6.71a1.005 1.005 0 0 1 .71-1.714c.265 0 .52.106.708.294l5.992 6a1 1 0 0 1 0 1.42l-5.992 6a.999.999 0 0 1-.709.29Z" fill="#fff"/></symbol><symbol id="pause-m" viewBox="0 0 24 24" preserveAspectRatio="xMidYMid meet"><path d="M8 5a1 1 0 0 0-1 1v12a1 1 0 1 0 2 0V6a1 1 0 0 0-1-1Zm8 0a1 1 0 0 0-1 1v12a1 1 0 0 0 2 0V6a1 1 0 0 0-1-1Z" fill="#fff"/></symbol><symbol id="pause" viewBox="0 0 24 24" preserveAspectRatio="xMidYMid meet"><path d="M8.5 5A1.5 1.5 0 0 0 7 6.5v11a1.5 1.5 0 0 0 3 0v-11A1.5 1.5 0 0 0 8.5 5Zm7 0A1.5 1.5 0 0 0 14 6.5v11a1.5 1.5 0 1 0 3 0v-11A1.5 1.5 0 0 0 15.5 5Z" fill="#fff"/></symbol><symbol id="play-m" viewBox="0 0 24 24" preserveAspectRatio="xMidYMid meet"><path d="M7.977 5c-.255 0-.5.09-.682.251A.85.85 0 0 0 7 5.863v12.274a.85.85 0 0 0 .295.612 1.067 1.067 0 0 0 1.24.096l4.834-2.956L18.58 12.7a.884.884 0 0 0 .308-.306.787.787 0 0 0 0-.804.885.885 0 0 0-.308-.306l-5.211-3.173-4.835-2.955A1.067 1.067 0 0 0 7.977 5Z" fill="#fff"/></symbol></svg>