<?xml version="1.0" encoding="utf-8"?>
<!-- Generator: Adobe Illustrator 16.0.3, SVG Export Plug-In . SVG Version: 6.00 Build 0)  -->
<!DOCTYPE svg PUBLIC "-//W3C//DTD SVG 1.1//EN" "http://www.w3.org/Graphics/SVG/1.1/DTD/svg11.dtd">
<svg version="1.1" id="Ebene_2" xmlns="http://www.w3.org/2000/svg" xmlns:xlink="http://www.w3.org/1999/xlink" x="0px" y="0px"
	 width="181.417px" height="173.672px" viewBox="0 0 181.417 173.672" enable-background="new 0 0 181.417 173.672"
	 xml:space="preserve">
<g>
	<path fill="#FFFFFF" d="M91.807,134.353c-19.952,0.342-44.129-3.251-59.756-9.906v-5.997c16.423,6.873,38.762,10.519,58.714,10.18
		c21.523-0.369,43.933-3.941,59.447-9.951v5.818C132.856,130.586,113.201,133.993,91.807,134.353"/>
	<path fill="#FFFFFF" d="M42.438,44.059l-0.003,22.202c0,0,7.065-1.453,13.278-1.392c10.324,0.104,15.497,5.58,15.863,12.733
		c0.092,1.819,0.075,2.82,0.075,4.774v28.908h-10.89V81.759c0-3.611,0.233-8.101-7.995-8.062c-5.858,0.028-9.995,1.139-9.995,1.139
		v36.448H32.144V44.728L42.438,44.059z"/>
	<path fill="#FFFFFF" d="M108.541,64.962c-0.133-0.024-9.725,0.15-15.39,1.435c-6.607,1.489-10.843,5.427-11.436,11.447
		c-0.114,1.16-0.167,1.896-0.167,4.536v28.982h10.879V81.73c0-2.601,0.203-4.249,1.927-5.776c1.951-1.724,6.399-1.975,8.946-2.179
		c1.744-0.14,5.24-0.235,5.24-0.235V64.962z"/>
	<polygon fill="#FFFFFF" points="155.188,96.168 155.188,86.92 147.173,86.92 147.173,71.231 136.953,71.231 136.953,86.92 
		124.235,86.92 143.316,42.483 132.061,42.483 112.832,86.92 112.832,96.168 136.953,96.168 136.953,111.284 147.669,111.284 
		147.669,96.168 	"/>
</g>
</svg>
