<svg xmlns="http://www.w3.org/2000/svg" xmlns:xlink="http://www.w3.org/1999/xlink"><defs><linearGradient id="Unbenannter_Verlauf" data-name="Unbenannter Verlauf" x1="51.64" y1="171.64" x2="12.95" y2="132.95" gradientTransform="matrix(1 0 0 -1 0 182)" gradientUnits="userSpaceOnUse"><stop offset=".03" stop-color="#d6007f"/><stop offset=".48" stop-color="#9b0058"/></linearGradient><style>.cls-1{fill:#fff}</style><linearGradient id="Unbenannter_Verlauf" data-name="Unbenannter Verlauf" x1="51.64" y1="171.64" x2="12.95" y2="132.95" gradientTransform="matrix(1 0 0 -1 0 182)" gradientUnits="userSpaceOnUse"><stop offset=".03" stop-color="#d6007f"/><stop offset=".48" stop-color="#9b0058"/></linearGradient><style>.cls-1{fill:#fff}</style></defs><symbol id="brandlogo--desk" viewBox="0 0 62 62" preserveAspectRatio="xMidYMid meet"><path d="M50 62H0V12C0 5.4 5.4 0 12 0h50v50c0 6.6-5.4 12-12 12Z" fill="url(#Unbenannter_Verlauf)"/><path class="cls-1" d="M30.36 47.41c-7.14.11-15.75-1.18-21.36-3.54v-2.14c5.86 2.46 13.86 3.75 20.96 3.64 7.68-.14 15.68-1.39 21.21-3.57v2.07c-6.14 2.18-13.18 3.39-20.82 3.54M12.71 15.16v7.93s2.54-.54 4.75-.5c3.68.04 5.54 2 5.68 4.54.04.64.04 1 .04 1.71v10.32h-3.89V28.62c0-1.29.07-2.89-2.86-2.89-2.11 0-3.57.39-3.57.39v13H9.04V15.37l3.68-.21ZM36.32 22.62s-3.46.07-5.5.5c-2.36.54-3.86 1.93-4.07 4.07-.04.43-.07.68-.07 1.61v10.36h3.89V28.59c0-.93.07-1.5.68-2.07.71-.61 2.29-.71 3.18-.79.61-.04 1.86-.07 1.86-.07l.04-3.04ZM53 33.76v-3.32h-2.86v-5.6H46.5v5.6h-4.57l6.82-15.85h-4l-6.89 15.85v3.32h8.64v5.4h3.82v-5.4H53z"/></symbol><symbol id="brandlogo--mobile" viewBox="0 0 62 62" preserveAspectRatio="xMidYMid meet"><path d="M50 62H0V12C0 5.4 5.4 0 12 0h50v50c0 6.6-5.4 12-12 12Z" fill="url(#Unbenannter_Verlauf)"/><path class="cls-1" d="M30.36 47.41c-7.14.11-15.75-1.18-21.36-3.54v-2.14c5.86 2.46 13.86 3.75 20.96 3.64 7.68-.14 15.68-1.39 21.21-3.57v2.07c-6.14 2.18-13.18 3.39-20.82 3.54M12.71 15.16v7.93s2.54-.54 4.75-.5c3.68.04 5.54 2 5.68 4.54.04.64.04 1 .04 1.71v10.32h-3.89V28.62c0-1.29.07-2.89-2.86-2.89-2.11 0-3.57.39-3.57.39v13H9.04V15.37l3.68-.21ZM36.32 22.62s-3.46.07-5.5.5c-2.36.54-3.86 1.93-4.07 4.07-.04.43-.07.68-.07 1.61v10.36h3.89V28.59c0-.93.07-1.5.68-2.07.71-.61 2.29-.71 3.18-.79.61-.04 1.86-.07 1.86-.07l.04-3.04ZM53 33.76v-3.32h-2.86v-5.6H46.5v5.6h-4.57l6.82-15.85h-4l-6.89 15.85v3.32h8.64v5.4h3.82v-5.4H53z"/></symbol></svg>