<svg xmlns="http://www.w3.org/2000/svg" xmlns:xlink="http://www.w3.org/1999/xlink"><symbol id="brandlogo--desk" viewBox="0 0 181.417 173.672"><g><path d="M91.807 134.353c-19.952.342-44.129-3.251-59.756-9.906v-5.997c16.423 6.873 38.762 10.519 58.714 10.18 21.523-.369 43.933-3.941 59.447-9.951v5.818c-17.356 6.089-37.011 9.496-58.405 9.856M42.438 44.059l-.003 22.202s7.065-1.453 13.278-1.392c10.324.104 15.497 5.58 15.863 12.733.092 1.819.075 2.82.075 4.774v28.908h-10.89V81.759c0-3.611.233-8.101-7.995-8.062-5.858.028-9.995 1.139-9.995 1.139v36.448H32.144V44.728l10.294-.669zM108.541 64.962c-.133-.024-9.725.15-15.39 1.435-6.607 1.489-10.843 5.427-11.436 11.447-.114 1.16-.167 1.896-.167 4.536v28.982h10.879V81.73c0-2.601.203-4.249 1.927-5.776 1.951-1.724 6.399-1.975 8.946-2.179 1.744-.14 5.24-.235 5.24-.235v-8.578zM155.188 96.168V86.92h-8.015V71.231h-10.22V86.92h-12.718l19.081-44.437h-11.255L112.832 86.92v9.248h24.121v15.116h10.716V96.168z"/></g></symbol><symbol id="brandlogo--mobile" viewBox="0 0 181.417 173.672"><g><path d="M91.807 134.353c-19.952.342-44.129-3.251-59.756-9.906v-5.997c16.423 6.873 38.762 10.519 58.714 10.18 21.523-.369 43.933-3.941 59.447-9.951v5.818c-17.356 6.089-37.011 9.496-58.405 9.856M42.438 44.059l-.003 22.202s7.065-1.453 13.278-1.392c10.324.104 15.497 5.58 15.863 12.733.092 1.819.075 2.82.075 4.774v28.908h-10.89V81.759c0-3.611.233-8.101-7.995-8.062-5.858.028-9.995 1.139-9.995 1.139v36.448H32.144V44.728l10.294-.669zM108.541 64.962c-.133-.024-9.725.15-15.39 1.435-6.607 1.489-10.843 5.427-11.436 11.447-.114 1.16-.167 1.896-.167 4.536v28.982h10.879V81.73c0-2.601.203-4.249 1.927-5.776 1.951-1.724 6.399-1.975 8.946-2.179 1.744-.14 5.24-.235 5.24-.235v-8.578zM155.188 96.168V86.92h-8.015V71.231h-10.22V86.92h-12.718l19.081-44.437h-11.255L112.832 86.92v9.248h24.121v15.116h10.716V96.168z"/></g></symbol></svg>