<svg version="1.1" id="Ebene_1" xmlns="http://www.w3.org/2000/svg" x="0" y="0" width="101.5" height="33" viewBox="0 0 101.5 33" xml:space="preserve" preserveAspectRatio="xMinYMid meet"><g><path d="M63.8 5.5v19.1h-3.4L51 11.9v12.7h-3.7V5.5h3.4L60 18.2V5.5h3.8zM82.6 5.5v3H72.2v5.2h8.9v3h-8.9v7.9h-4V5.5h14.4zM98.9 7.1C97.2 5.6 95.2 5 92.7 5s-4.5.6-6.1 2.1c-2.2 2-2.2 4.8-2.2 7.7v.6c0 3.1.1 5.8 2.3 7.8 1.6 1.5 3.6 2 6.1 2 2.5 0 4.4-.5 6.1-2.1 2.2-2 2.2-4.5 2.2-7.9v-.3c-.1-3.4 0-5.9-2.2-7.8zM95.8 21c-.7.7-1.8 1.1-3 1.1s-2.4-.4-3.1-1.1c-1-.9-1.2-2-1.2-5.9 0-3.9.2-4.9 1.2-5.9.7-.7 1.8-1.1 3.1-1.1 1.2 0 2.3.4 3 1.1.9.9 1.2 1.8 1.2 5.9 0 4-.3 5-1.2 5.9zM42.8 5.5v2.2h-4V5.5h4zM42.8 10.8c0 .4 0 13.8 0 13.8h-4s0-13.4 0-13.8c.3 0 3.7 0 4 0zM21.8 32.7C14.7 32.9 6 31.5.4 29.1v-2.2c5.9 2.5 13.9 3.8 21.1 3.7 7.7-.1 15.8-1.4 21.4-3.6v2.1c-6.3 2.3-13.4 3.5-21.1 3.6zM4.1.2v8.1s2.5-.5 4.8-.5c3.7 0 5.6 2 5.7 4.6 0 .7 0 1 0 1.7v10.5h-3.9V13.9c0-1.3.1-2.9-2.9-2.9-2.1 0-3.6.4-3.6.4v13.3H.4V.4L4.1.2zM28 7.7s-3.5.1-5.5.5c-2.4.5-3.9 2-4.1 4.2 0 .4-.1.7-.1 1.7v10.5h3.9V13.8c0-.9.1-1.5.7-2.1.7-.6 2.3-.7 3.2-.8.6-.1 1.9-.1 1.9-.1V7.7z"/></g></svg>