<svg xmlns="http://www.w3.org/2000/svg" xmlns:xlink="http://www.w3.org/1999/xlink"><symbol id="brandlogo--desk" viewBox="0 0 101.5 33" preserveAspectRatio="xMidYMid meet"><g fill="#fff"><polygon points="63.8,5.5 63.8,24.6 60.4,24.6 51,11.9 51,24.6 47.3,24.6 47.3,5.5 50.7,5.5 60,18.2 60,5.5 63.8,5.5"/><polygon points="82.6,5.5 82.6,8.5 72.2,8.5 72.2,13.7 81.1,13.7 81.1,16.7 72.2,16.7 72.2,24.6 68.2,24.6 68.2,5.5 82.6,5.5"/><path d="M98.9 7.1C97.2 5.6 95.2 5 92.7 5s-4.5.6-6.1 2.1c-2.2 2-2.2 4.8-2.2 7.7v.6c0 3.1.1 5.8 2.3 7.8 1.6 1.5 3.6 2 6.1 2 2.5 0 4.4-.5 6.1-2.1 2.2-2 2.2-4.5 2.2-7.9v-.3c-.1-3.4 0-5.9-2.2-7.8zM95.8 21c-.7.7-1.8 1.1-3 1.1s-2.4-.4-3.1-1.1c-1-.9-1.2-2-1.2-5.9 0-3.9.2-4.9 1.2-5.9.7-.7 1.8-1.1 3.1-1.1 1.2 0 2.3.4 3 1.1.9.9 1.2 1.8 1.2 5.9 0 4-.3 5-1.2 5.9z"/><polygon points="42.8,5.5 42.8,7.7 38.8,7.7 38.8,5.5 42.8,5.5"/><path d="M42.8 10.8v13.8h-4V10.8h4zM21.8 32.7C14.7 32.9 6 31.5.4 29.1v-2.2c5.9 2.5 13.9 3.8 21.1 3.7 7.7-.1 15.8-1.4 21.4-3.6v2.1c-6.3 2.3-13.4 3.5-21.1 3.6zM4.1.2v8.1s2.5-.5 4.8-.5c3.7 0 5.6 2 5.7 4.6v12.2h-3.9V13.9c0-1.3.1-2.9-2.9-2.9-2.1 0-3.6.4-3.6.4v13.3H.4V.4L4.1.2zM28 7.7s-3.5.1-5.5.5c-2.4.5-3.9 2-4.1 4.2 0 .4-.1.7-.1 1.7v10.5h3.9V13.8c0-.9.1-1.5.7-2.1.7-.6 2.3-.7 3.2-.8.6-.1 1.9-.1 1.9-.1V7.7z"/></g></symbol><symbol id="brandlogo--footer-desk" viewBox="0 0 101.5 33" preserveAspectRatio="xMidYMid meet"><g fill="#276b9e"><polygon points="63.8,5.5 63.8,24.6 60.4,24.6 51,11.9 51,24.6 47.3,24.6 47.3,5.5 50.7,5.5 60,18.2 60,5.5 63.8,5.5"/><polygon points="82.6,5.5 82.6,8.5 72.2,8.5 72.2,13.7 81.1,13.7 81.1,16.7 72.2,16.7 72.2,24.6 68.2,24.6 68.2,5.5 82.6,5.5"/><path d="M98.9 7.1C97.2 5.6 95.2 5 92.7 5s-4.5.6-6.1 2.1c-2.2 2-2.2 4.8-2.2 7.7v.6c0 3.1.1 5.8 2.3 7.8 1.6 1.5 3.6 2 6.1 2 2.5 0 4.4-.5 6.1-2.1 2.2-2 2.2-4.5 2.2-7.9v-.3c-.1-3.4 0-5.9-2.2-7.8zM95.8 21c-.7.7-1.8 1.1-3 1.1s-2.4-.4-3.1-1.1c-1-.9-1.2-2-1.2-5.9 0-3.9.2-4.9 1.2-5.9.7-.7 1.8-1.1 3.1-1.1 1.2 0 2.3.4 3 1.1.9.9 1.2 1.8 1.2 5.9 0 4-.3 5-1.2 5.9z"/><polygon points="42.8,5.5 42.8,7.7 38.8,7.7 38.8,5.5 42.8,5.5"/><path d="M42.8 10.8v13.8h-4V10.8h4zM21.8 32.7C14.7 32.9 6 31.5.4 29.1v-2.2c5.9 2.5 13.9 3.8 21.1 3.7 7.7-.1 15.8-1.4 21.4-3.6v2.1c-6.3 2.3-13.4 3.5-21.1 3.6zM4.1.2v8.1s2.5-.5 4.8-.5c3.7 0 5.6 2 5.7 4.6v12.2h-3.9V13.9c0-1.3.1-2.9-2.9-2.9-2.1 0-3.6.4-3.6.4v13.3H.4V.4L4.1.2zM28 7.7s-3.5.1-5.5.5c-2.4.5-3.9 2-4.1 4.2 0 .4-.1.7-.1 1.7v10.5h3.9V13.8c0-.9.1-1.5.7-2.1.7-.6 2.3-.7 3.2-.8.6-.1 1.9-.1 1.9-.1V7.7z"/></g></symbol><symbol id="brandlogo--footer" viewBox="0 0 101.5 33" preserveAspectRatio="xMidYMid meet"><g fill="#276b9e"><polygon points="63.8,5.5 63.8,24.6 60.4,24.6 51,11.9 51,24.6 47.3,24.6 47.3,5.5 50.7,5.5 60,18.2 60,5.5 63.8,5.5"/><polygon points="82.6,5.5 82.6,8.5 72.2,8.5 72.2,13.7 81.1,13.7 81.1,16.7 72.2,16.7 72.2,24.6 68.2,24.6 68.2,5.5 82.6,5.5"/><path d="M98.9 7.1C97.2 5.6 95.2 5 92.7 5s-4.5.6-6.1 2.1c-2.2 2-2.2 4.8-2.2 7.7v.6c0 3.1.1 5.8 2.3 7.8 1.6 1.5 3.6 2 6.1 2 2.5 0 4.4-.5 6.1-2.1 2.2-2 2.2-4.5 2.2-7.9v-.3c-.1-3.4 0-5.9-2.2-7.8zM95.8 21c-.7.7-1.8 1.1-3 1.1s-2.4-.4-3.1-1.1c-1-.9-1.2-2-1.2-5.9 0-3.9.2-4.9 1.2-5.9.7-.7 1.8-1.1 3.1-1.1 1.2 0 2.3.4 3 1.1.9.9 1.2 1.8 1.2 5.9 0 4-.3 5-1.2 5.9z"/><polygon points="42.8,5.5 42.8,7.7 38.8,7.7 38.8,5.5 42.8,5.5"/><path d="M42.8 10.8v13.8h-4V10.8h4zM21.8 32.7C14.7 32.9 6 31.5.4 29.1v-2.2c5.9 2.5 13.9 3.8 21.1 3.7 7.7-.1 15.8-1.4 21.4-3.6v2.1c-6.3 2.3-13.4 3.5-21.1 3.6zM4.1.2v8.1s2.5-.5 4.8-.5c3.7 0 5.6 2 5.7 4.6v12.2h-3.9V13.9c0-1.3.1-2.9-2.9-2.9-2.1 0-3.6.4-3.6.4v13.3H.4V.4L4.1.2zM28 7.7s-3.5.1-5.5.5c-2.4.5-3.9 2-4.1 4.2 0 .4-.1.7-.1 1.7v10.5h3.9V13.8c0-.9.1-1.5.7-2.1.7-.6 2.3-.7 3.2-.8.6-.1 1.9-.1 1.9-.1V7.7z"/></g></symbol><symbol id="brandlogo--mobile" viewBox="0 0 101.5 33" preserveAspectRatio="xMidYMid meet"><g fill="#fff"><polygon points="63.8,5.5 63.8,24.6 60.4,24.6 51,11.9 51,24.6 47.3,24.6 47.3,5.5 50.7,5.5 60,18.2 60,5.5 63.8,5.5"/><polygon points="82.6,5.5 82.6,8.5 72.2,8.5 72.2,13.7 81.1,13.7 81.1,16.7 72.2,16.7 72.2,24.6 68.2,24.6 68.2,5.5 82.6,5.5"/><path d="M98.9 7.1C97.2 5.6 95.2 5 92.7 5s-4.5.6-6.1 2.1c-2.2 2-2.2 4.8-2.2 7.7v.6c0 3.1.1 5.8 2.3 7.8 1.6 1.5 3.6 2 6.1 2 2.5 0 4.4-.5 6.1-2.1 2.2-2 2.2-4.5 2.2-7.9v-.3c-.1-3.4 0-5.9-2.2-7.8zM95.8 21c-.7.7-1.8 1.1-3 1.1s-2.4-.4-3.1-1.1c-1-.9-1.2-2-1.2-5.9 0-3.9.2-4.9 1.2-5.9.7-.7 1.8-1.1 3.1-1.1 1.2 0 2.3.4 3 1.1.9.9 1.2 1.8 1.2 5.9 0 4-.3 5-1.2 5.9z"/><polygon points="42.8,5.5 42.8,7.7 38.8,7.7 38.8,5.5 42.8,5.5"/><path d="M42.8 10.8v13.8h-4V10.8h4zM21.8 32.7C14.7 32.9 6 31.5.4 29.1v-2.2c5.9 2.5 13.9 3.8 21.1 3.7 7.7-.1 15.8-1.4 21.4-3.6v2.1c-6.3 2.3-13.4 3.5-21.1 3.6zM4.1.2v8.1s2.5-.5 4.8-.5c3.7 0 5.6 2 5.7 4.6v12.2h-3.9V13.9c0-1.3.1-2.9-2.9-2.9-2.1 0-3.6.4-3.6.4v13.3H.4V.4L4.1.2zM28 7.7s-3.5.1-5.5.5c-2.4.5-3.9 2-4.1 4.2 0 .4-.1.7-.1 1.7v10.5h3.9V13.8c0-.9.1-1.5.7-2.1.7-.6 2.3-.7 3.2-.8.6-.1 1.9-.1 1.9-.1V7.7z"/></g></symbol></svg>