<svg xmlns="http://www.w3.org/2000/svg" xmlns:xlink="http://www.w3.org/1999/xlink"><symbol preserveAspectRatio="xMidYMid meet" viewBox="0 0 234 50" id="brandlogo--desk"><path d="M75.284 27.222c3.922.329 6.235 2.189 6.235 5.906 0 4.377-3.717 6.648-8.715 6.648-3.427 0-6.318-.578-8.794-3.014l2.765-2.765c1.694 1.733 3.965 2.188 6.029 2.188 2.562 0 4.584-.91 4.584-2.893 0-1.403-.784-2.312-2.808-2.476l-3.344-.289c-3.924-.329-6.195-2.106-6.195-5.781 0-4.089 3.511-6.4 7.888-6.4 3.138 0 5.822.659 7.763 2.354l-2.642 2.684c-1.322-1.116-3.18-1.529-5.162-1.529-2.519 0-3.799 1.116-3.799 2.684 0 1.24.662 2.189 2.891 2.396l3.304.287m-20.607 0l-3.304-.289c-2.229-.207-2.891-1.155-2.891-2.396 0-1.568 1.28-2.684 3.8-2.684 1.982 0 3.84.413 5.161 1.529l2.644-2.684c-1.94-1.694-4.624-2.354-7.764-2.354-4.376 0-7.887 2.312-7.887 6.4 0 3.674 2.271 5.452 6.195 5.781l3.345.289c2.024.165 2.807 1.073 2.807 2.476 0 1.983-2.022 2.893-4.582 2.893-2.065 0-4.337-.455-6.031-2.188l-2.767 2.765c2.479 2.437 5.369 3.014 8.797 3.014 4.996 0 8.713-2.271 8.713-6.648-.001-3.715-2.314-5.575-6.236-5.904m-18.791.123c-.041-1.28-.165-1.9-.577-2.85-.662-1.568-2.148-2.642-4.13-2.642-1.982 0-3.509 1.073-4.171 2.642-.412.95-.495 1.57-.537 2.85h9.415zm-4.707-9.002c5.617 0 8.878 4.13 8.878 10.076v1.859H26.471c0 3.592 1.9 5.864 5.328 5.864 2.354 0 3.593-.66 5.08-2.146l2.684 2.519c-2.148 2.146-4.171 3.26-7.846 3.26-5.246 0-9.417-2.765-9.417-10.737 0-6.772 3.51-10.695 8.879-10.695m129.422 3.758c1.651 0 2.684.537 4.006 1.983l2.892-2.809c-1.984-2.106-4.007-2.932-6.898-2.932-4.707 0-9.333 2.85-9.333 10.696s4.626 10.737 9.333 10.737c2.89 0 4.914-.867 6.898-2.973l-2.892-2.765c-1.322 1.445-2.355 1.981-4.006 1.981-1.609 0-2.973-.659-3.882-1.859-.909-1.156-1.238-2.684-1.238-5.12 0-2.435.329-3.923 1.238-5.08.908-1.198 2.272-1.859 3.882-1.859m-61.655 5.244c-.041-1.28-.165-1.9-.579-2.85-.66-1.568-2.147-2.642-4.129-2.642-1.983 0-3.509 1.073-4.171 2.642-.413.95-.496 1.57-.536 2.85h9.415zm-4.708-9.002c5.616 0 8.879 4.13 8.879 10.076v1.859H89.531c0 3.592 1.9 5.864 5.326 5.864 2.355 0 3.593-.66 5.081-2.146l2.683 2.519c-2.147 2.146-4.171 3.26-7.845 3.26-5.245 0-9.416-2.765-9.416-10.737 0-6.772 3.509-10.695 8.878-10.695m112.573 11.935h-4.915c-2.477 0-3.757 1.114-3.757 3.014 0 1.9 1.197 2.973 3.84 2.973 1.61 0 2.808-.124 3.923-1.196.618-.621.909-1.613.909-3.099v-1.692zm-4.419-11.935c5.74 0 8.63 2.437 8.63 7.186V39.53h-4.13v-1.9c-1.527 1.525-2.973 2.146-5.574 2.146-2.602 0-4.337-.621-5.618-1.9-1.074-1.114-1.651-2.726-1.651-4.501 0-3.51 2.437-6.029 7.227-6.029h5.535v-1.487c0-2.643-1.323-3.923-4.585-3.923-2.313 0-3.427.537-4.584 2.023l-2.768-2.601c1.985-2.313 4.049-3.015 7.518-3.015m-61.407 8.879l-3.303-.289c-2.23-.207-2.89-1.155-2.89-2.396 0-1.568 1.28-2.684 3.798-2.684 1.981 0 3.841.413 5.162 1.529l2.643-2.684c-1.941-1.694-4.624-2.354-7.763-2.354-4.377 0-7.888 2.312-7.888 6.4 0 3.674 2.272 5.452 6.195 5.781l3.344.289c2.025.165 2.809 1.073 2.809 2.476 0 1.983-2.023 2.893-4.584 2.893-2.065 0-4.336-.455-6.031-2.188l-2.767 2.765c2.479 2.437 5.37 3.014 8.797 3.014 4.997 0 8.713-2.271 8.713-6.648.001-3.715-2.312-5.575-6.235-5.904M0 9.877v29.651h4.546V22.685s1.772-.472 4.278-.483c3.519-.016 3.419 1.892 3.419 3.431v13.895h4.659V25.894c0-.831.007-1.258-.032-2.032-.156-3.041-2.369-5.372-6.785-5.415-2.659-.028-5.681.59-5.681.59V9.594L0 9.877zm172.244 0v29.651h4.549V22.685s1.769-.472 4.276-.483c3.52-.016 3.419 1.892 3.419 3.431v13.895h4.659V25.894c0-.831.01-1.258-.03-2.032-.157-3.041-2.369-5.372-6.786-5.415-2.659-.028-5.682.59-5.682.59V9.594l-4.405.283zm57.534 8.701v12.741c0 3.188-1.141 4.572-4.274 4.659-2.895-.043-4.274-1.471-4.274-4.659V18.578h-4.213V31.94c0 2.349-.627 7.834 8.486 7.834 9.111 0 8.486-5.485 8.486-7.834V18.578h-4.211zm-117.277 20.95V26.782c0-3.191 1.141-4.575 4.277-4.66 2.893.042 4.274 1.47 4.274 4.66v12.746h4.215V26.16c0-2.349.627-7.835-8.489-7.835-9.116 0-8.491 5.487-8.491 7.835v13.368h4.214z"/></symbol><symbol preserveAspectRatio="xMidYMid meet" viewBox="0 0 160 19" id="brandlogo--mobile"><path d="M46.182 11.02c2.349.197 3.735 1.311 3.735 3.537 0 2.622-2.226 3.982-5.22 3.982-2.053 0-3.784-.346-5.267-1.805l1.656-1.656c1.015 1.038 2.375 1.31 3.611 1.31 1.534 0 2.746-.545 2.746-1.733 0-.84-.469-1.385-1.682-1.483l-2.003-.173c-2.35-.197-3.71-1.262-3.71-3.462 0-2.449 2.103-3.834 4.725-3.834 1.879 0 3.487.395 4.65 1.41L47.839 8.72c-.792-.668-1.905-.916-3.092-.916-1.509 0-2.276.668-2.276 1.607 0 .743.396 1.311 1.732 1.435l1.979.174m-12.342 0l-1.979-.173c-1.335-.124-1.732-.692-1.732-1.435 0-.939.767-1.607 2.276-1.607 1.187 0 2.3.247 3.091.916l1.583-1.607c-1.162-1.015-2.77-1.41-4.65-1.41-2.621 0-4.724 1.385-4.724 3.834 0 2.201 1.36 3.265 3.71 3.462l2.003.173c1.212.099 1.681.643 1.681 1.483 0 1.187-1.211 1.733-2.745 1.733-1.237 0-2.598-.273-3.612-1.31l-1.657 1.656c1.485 1.459 3.216 1.805 5.269 1.805 2.992 0 5.219-1.36 5.219-3.982.001-2.227-1.384-3.341-3.733-3.538m-11.255.074c-.024-.767-.099-1.138-.346-1.707-.396-.939-1.287-1.582-2.474-1.582-1.187 0-2.102.643-2.498 1.582-.247.569-.297.94-.322 1.707h5.64zm-2.819-5.392c3.364 0 5.318 2.473 5.318 6.035v1.113h-8.138c0 2.151 1.138 3.512 3.191 3.512 1.41 0 2.152-.396 3.043-1.285l1.607 1.509c-1.287 1.285-2.498 1.953-4.699 1.953-3.142 0-5.64-1.656-5.64-6.431-.001-4.057 2.102-6.406 5.318-6.406m77.516 2.251c.989 0 1.607.321 2.399 1.187l1.732-1.682c-1.188-1.262-2.4-1.756-4.131-1.756-2.819 0-5.59 1.707-5.59 6.406s2.77 6.431 5.59 6.431c1.731 0 2.943-.519 4.131-1.781l-1.732-1.656c-.792.865-1.41 1.187-2.399 1.187-.964 0-1.781-.395-2.325-1.113-.544-.693-.742-1.607-.742-3.067 0-1.459.197-2.35.742-3.042.544-.718 1.361-1.114 2.325-1.114m-36.928 3.141c-.025-.767-.099-1.138-.347-1.707-.396-.939-1.286-1.582-2.473-1.582-1.187 0-2.102.643-2.498 1.582-.247.569-.297.94-.321 1.707h5.639zm-2.819-5.392c3.364 0 5.318 2.473 5.318 6.035v1.113h-8.137c0 2.151 1.138 3.512 3.19 3.512 1.41 0 2.152-.396 3.043-1.285l1.607 1.509c-1.286 1.285-2.498 1.953-4.699 1.953-3.141 0-5.64-1.656-5.64-6.431 0-4.057 2.102-6.406 5.318-6.406m67.425 7.148h-2.944c-1.484 0-2.251.667-2.251 1.805s.717 1.781 2.3 1.781c.964 0 1.682-.074 2.35-.716.37-.372.544-.966.544-1.856V12.85zm-2.647-7.148c3.438 0 5.169 1.459 5.169 4.304v8.386h-2.473v-1.138c-.915.913-1.781 1.285-3.339 1.285-1.559 0-2.598-.372-3.365-1.138-.643-.667-.989-1.633-.989-2.696 0-2.102 1.459-3.611 4.328-3.611h3.315v-.89c0-1.583-.793-2.35-2.746-2.35-1.385 0-2.053.321-2.745 1.212l-1.658-1.558c1.189-1.386 2.425-1.806 4.503-1.806M85.534 11.02l-1.979-.173c-1.336-.124-1.731-.692-1.731-1.435 0-.939.767-1.607 2.275-1.607 1.187 0 2.301.247 3.092.916l1.583-1.607c-1.162-1.015-2.77-1.41-4.65-1.41-2.622 0-4.725 1.385-4.725 3.834 0 2.201 1.361 3.265 3.711 3.462l2.003.173c1.213.099 1.682.643 1.682 1.483 0 1.187-1.212 1.733-2.745 1.733-1.237 0-2.597-.273-3.612-1.31l-1.657 1.656c1.484 1.459 3.216 1.805 5.269 1.805 2.993 0 5.219-1.36 5.219-3.982 0-2.227-1.386-3.341-3.735-3.538M1.091.631V18.39h2.723V8.302s1.061-.283 2.562-.289c2.108-.009 2.048 1.133 2.048 2.055v8.322h2.791v-8.166c0-.498.004-.754-.019-1.217-.093-1.821-1.419-3.218-4.064-3.243-1.592-.016-3.403.353-3.403.353V.461l-2.638.17zm103.165 0V18.39h2.724V8.302s1.059-.283 2.561-.289c2.108-.009 2.048 1.133 2.048 2.055v8.322h2.791v-8.166c0-.498.006-.754-.018-1.217-.094-1.821-1.419-3.218-4.064-3.243-1.592-.017-3.403.353-3.403.353V.461l-2.639.17zm34.46 5.212v7.631c0 1.91-.683 2.738-2.56 2.791-1.734-.026-2.56-.881-2.56-2.791V5.843h-2.523v8.003c0 1.407-.375 4.692 5.083 4.692 5.457 0 5.083-3.285 5.083-4.692V5.843h-2.523zM68.473 18.39v-7.634c0-1.911.684-2.74 2.562-2.791 1.733.025 2.56.88 2.56 2.791v7.634h2.524v-8.007c0-1.407.375-4.693-5.085-4.693s-5.085 3.286-5.085 4.693v8.007h2.524z"/></symbol></svg>