<?xml version="1.0" encoding="utf-8"?>
<!-- Generator: Adobe Illustrator 17.0.1, SVG Export Plug-In . SVG Version: 6.00 Build 0)  -->
<!DOCTYPE svg PUBLIC "-//W3C//DTD SVG 1.1//EN" "http://www.w3.org/Graphics/SVG/1.1/DTD/svg11.dtd">
<svg version="1.1" id="Ebene_2" xmlns="http://www.w3.org/2000/svg" xmlns:xlink="http://www.w3.org/1999/xlink" x="0px" y="0px"
	 width="464.286px" height="96.429px" viewBox="0 0 464.286 96.429" enable-background="new 0 0 464.286 96.429"
	 xml:space="preserve">
<g id="Logo_2_">
	<path fill="#001A4B" d="M447.092,22.215c9.17,0,16.605,7.434,16.605,16.604s-7.434,16.604-16.605,16.604
		c-9.17,0-16.604-7.434-16.604-16.604S437.922,22.215,447.092,22.215z M447.092,24.65c-7.824,0-14.168,6.343-14.168,14.168
		s6.344,14.168,14.168,14.168c7.825,0,14.168-6.343,14.168-14.168S454.918,24.65,447.092,24.65z M453.76,45.543V28.921
		l-16.712,5.999v4.129l5.534-2v12.492L453.76,45.543z M250.218,70.852v-3.943c-0.74-0.925-1.787-1.787-2.958-2.526l-12.137-35.241
		h-10.166L212.82,64.382c-1.356,0.616-2.588,1.541-3.573,2.526v3.943h15.341v-3.943c-1.047-0.986-2.218-1.848-3.574-2.526
		l1.171-3.881h12.507l1.294,3.881c-1.356,0.616-2.649,1.541-3.758,2.526v3.943H250.218z M202.299,67.403
		c0-2.218-1.848-4.067-4.066-4.067c-2.218,0-4.067,1.848-4.067,4.067c0,2.218,1.848,4.066,4.067,4.066
		C200.45,71.469,202.299,69.62,202.299,67.403z M181.302,51.754h-12.384c0.37-4.744,2.464-8.625,6.47-8.625
		S181.364,46.948,181.302,51.754z M188.449,52.678c0-8.07-4.066-13.185-12.753-13.185c-9.119,0-14.048,6.716-14.048,16.018
		c0,10.536,5.299,15.896,14.17,15.896c4.744,0,9.057-1.664,12.446-4.067l-1.108-3.142c-2.279,1.417-5.854,2.279-8.811,2.279
		c-6.038,0-9.487-3.389-9.487-10.598v-0.739h19.531C188.449,54.464,188.449,53.602,188.449,52.678z M156.661,61.858
		c0-10.289-14.848-7.887-14.848-15.219c0-2.095,1.356-3.511,3.758-3.511c1.663,0,3.265,0.431,4.19,0.862
		c0.431,1.725,0.986,3.45,1.724,4.806h2.958v-8.503c-2.095-0.555-4.806-0.801-7.578-0.801c-7.208,0-11.829,3.696-11.829,8.686
		c0,10.659,14.725,8.07,14.725,15.341c0,2.711-1.725,3.82-4.252,3.82c-2.157,0-4.066-0.555-5.422-1.171
		c-0.431-1.602-1.109-3.389-1.787-4.806h-3.019v9.056c2.526,0.678,5.483,0.925,8.686,0.925
		C150.747,71.345,156.661,67.526,156.661,61.858z M131.033,40.108c-1.294-0.431-2.958-0.677-4.436-0.677
		c-3.758,0-6.161,3.142-7.763,7.824c0.123-2.526,0.369-5.36,0.369-7.393c-3.758-0.124-8.379,0.246-11.398,0.925v2.464
		c1.602,0.246,3.327,0.739,4.744,1.232v21.996c-1.725,0.431-3.265,1.109-4.744,1.972v2.403h16.327V68.45
		c-1.478-0.801-3.019-1.479-4.744-1.972V55.573c0-5.052,2.403-9.92,6.1-9.92c1.725,0,3.265,0.555,4.683,1.171L131.033,40.108z
		 M95.867,51.754H83.483c0.37-4.744,2.464-8.625,6.47-8.625C93.958,43.128,95.928,46.948,95.867,51.754z M103.014,52.678
		c0-8.07-4.066-13.185-12.753-13.185c-9.118,0-14.047,6.716-14.047,16.018c0,10.536,5.299,15.896,14.17,15.896
		c4.744,0,9.056-1.664,12.446-4.067l-1.109-3.142c-2.279,1.417-5.853,2.279-8.81,2.279c-6.038,0-9.487-3.389-9.487-10.598v-0.739
		h19.531C103.014,54.464,103.014,53.602,103.014,52.678z M64.144,55.758c0,7.639-2.958,11.213-7.763,11.213
		c-5.73,0-9.056-4.806-9.056-12.076c0-7.332,2.958-10.967,7.824-10.967C60.94,43.928,64.144,48.611,64.144,55.758z M71.414,54.772
		c0-9.858-5.484-15.28-14.725-15.28c-9.056,0-16.573,6.038-16.573,16.636c0,10.166,5.915,15.341,14.725,15.341
		C64.081,71.469,71.414,65.308,71.414,54.772z M28.168,55.203c0,8.194-3.204,12.384-8.379,12.384c-2.403,0-4.313-0.555-5.791-1.541
		V53.848c0-5.36,3.08-9.673,6.901-9.673C25.58,44.175,28.168,48.796,28.168,55.203z M35.253,53.91
		c0-8.564-4.252-14.478-11.83-14.478c-4.498,0-8.318,2.958-9.735,6.346c0.185-1.479,0.309-3.389,0.309-5.053V25.569
		c-3.943-0.123-8.503,0.185-11.521,0.863v2.526c1.602,0.246,3.265,0.74,4.683,1.232v39.677c3.327,0.925,7.208,1.479,11.337,1.479
		C28.168,71.345,35.253,65.061,35.253,53.91z M416.317,51.754h-12.384c0.37-4.744,2.464-8.626,6.47-8.626
		S416.378,46.947,416.317,51.754z M423.464,52.677c0-8.07-4.066-13.185-12.753-13.185c-9.119,0-14.048,6.716-14.048,16.019
		c0,10.536,5.299,15.896,14.17,15.896c4.744,0,9.057-1.663,12.446-4.066l-1.108-3.142c-2.279,1.417-5.854,2.28-8.811,2.28
		c-6.038,0-9.487-3.389-9.487-10.598v-0.74h19.531C423.464,54.464,423.464,53.602,423.464,52.677z M381.458,57.051
		c0,5.423-3.142,9.673-6.962,9.673c-4.622,0-7.208-4.498-7.208-10.967c0-8.133,3.204-12.446,8.379-12.446
		c2.403,0,4.312,0.555,5.791,1.541L381.458,57.051L381.458,57.051z M392.733,70.051v-2.526c-1.664-0.309-3.142-0.74-4.436-1.171
		V25.567c-3.943-0.124-8.564,0.185-11.583,0.862v2.526c1.602,0.309,3.327,0.74,4.744,1.232v9.672
		c-1.602-0.185-3.265-0.246-4.744-0.246c-9.611,0-16.512,5.976-16.512,17.374c0,8.625,4.374,14.478,11.645,14.478
		c5.052,0,8.749-3.08,10.166-6.654c-0.247,2.279-0.247,4.374-0.247,6.285C385.956,71.283,389.715,70.729,392.733,70.051z
		 M354.611,67.402c0-2.218-1.848-4.066-4.066-4.066s-4.067,1.848-4.067,4.066s1.848,4.066,4.067,4.066
		C352.762,71.468,354.611,69.62,354.611,67.402z M330.588,50.089c0,10.042-4.374,14.478-9.981,14.478
		c-2.464,0-4.005-0.185-5.299-0.616V35.117c1.109-0.124,2.341-0.185,3.696-0.185C328.246,34.933,330.588,41.957,330.588,50.089z
		 M341.493,49.166c0-14.54-7.393-20.147-20.764-20.147c-5.606,0-12.569,0.246-15.896,0.246h-4.99v3.881
		c1.541,0.925,3.389,2.157,5.114,2.711V64.26c-1.91,0.492-3.574,1.664-5.114,2.649v3.943h5.175c1.848,0,8.379,0.247,12.877,0.247
		C331.326,71.099,341.493,63.398,341.493,49.166z M279.838,41.525c0,4.066-2.033,6.592-6.161,6.592h-2.773V35.179
		c0.555-0.124,1.541-0.246,2.464-0.246C278.052,34.933,279.838,38.014,279.838,41.525z M293.454,70.36l-0.493-4.621
		c-5.729,1.108-4.005-14.109-10.658-14.91c4.806-1.541,8.255-5.175,8.255-10.721c0-7.639-5.73-11.152-15.341-11.152
		c-5.915,0-13.554,0.309-15.095,0.309h-4.682v3.881c1.541,0.925,3.389,2.157,5.113,2.649v28.526
		c-1.91,0.493-3.574,1.602-5.113,2.588v3.943h19.037v-3.943c-1.047-0.925-2.157-1.91-3.573-2.588V54.032h1.848
		c6.407,0,4.19,17.498,13.616,17.498C288.649,71.53,291.359,71.222,293.454,70.36z M232.967,54.71h-9.119l4.374-14.971
		L232.967,54.71z"/>
</g>
</svg>
