<?xml version="1.0" encoding="utf-8"?>
<!-- Generator: Adobe Illustrator 24.2.1, SVG Export Plug-In . SVG Version: 6.00 Build 0)  -->
<svg version="1.1" id="Ebene_1" xmlns="http://www.w3.org/2000/svg" xmlns:xlink="http://www.w3.org/1999/xlink" x="0px" y="0px"
	 viewBox="0 0 555 71.8" style="enable-background:new 0 0 555 71.8;" xml:space="preserve">
<style type="text/css">
	.st0{fill:#005293;}
	.st1{display:none;}
	.st2{display:inline;fill:#999999;}
</style>
<g id="hessenschau">
	<g>
		<path fill="#005293" class="st0" d="M173.9,43.2l-7.6-0.7c-5.1-0.5-6.7-2.7-6.7-5.5c0-3.6,3-6.2,8.8-6.2c4.6,0,8.9,1,11.9,3.5l6.1-6.2
			c-4.5-3.9-10.7-5.4-17.9-5.4c-10.1,0-18.2,5.3-18.2,14.8c0,8.5,5.2,12.6,14.3,13.4l7.7,0.7c4.7,0.4,6.5,2.5,6.5,5.7
			c0,4.6-4.7,6.7-10.6,6.7c-4.8,0-10-1-13.9-5.1l-6.4,6.4c5.7,5.6,12.4,7,20.3,7c11.5,0,20.1-5.2,20.1-15.4
			C188.3,48.3,182.9,44,173.9,43.2z"/>
		<path fill="#005293" class="st0" d="M126.3,43.2l-7.6-0.7c-5.2-0.5-6.7-2.7-6.7-5.5c0-3.6,3-6.2,8.8-6.2c4.6,0,8.9,1,11.9,3.5l6.1-6.2
			c-4.5-3.9-10.7-5.4-17.9-5.4c-10.1,0-18.2,5.3-18.2,14.8c0,8.5,5.2,12.6,14.3,13.4l7.7,0.7c4.7,0.4,6.5,2.5,6.5,5.7
			c0,4.6-4.7,6.7-10.6,6.7c-4.8,0-10-1-13.9-5.1l-6.4,6.4c5.7,5.6,12.4,7,20.3,7c11.5,0,20.1-5.2,20.1-15.4
			C140.7,48.3,135.3,44,126.3,43.2z"/>
		<path fill="#005293" class="st0" d="M370.9,31.4c3.8,0,6.2,1.2,9.3,4.6l6.7-6.5c-4.6-4.9-9.3-6.8-15.9-6.8c-10.9,0-21.6,6.6-21.6,24.7
			c0,18.1,10.7,24.8,21.6,24.8c6.7,0,11.4-2,15.9-6.9l-6.7-6.4c-3.1,3.3-5.4,4.6-9.3,4.6c-3.7,0-6.9-1.5-9-4.3
			c-2.1-2.7-2.9-6.2-2.9-11.8s0.8-9.1,2.9-11.7C364.1,32.9,367.2,31.4,370.9,31.4z"/>
		<path fill="#005293" class="st0" d="M325.6,43.2l-7.6-0.7c-5.2-0.5-6.7-2.7-6.7-5.5c0-3.6,3-6.2,8.8-6.2c4.6,0,8.9,1,11.9,3.5l6.1-6.2
			c-4.5-3.9-10.7-5.4-17.9-5.4c-10.1,0-18.2,5.3-18.2,14.8c0,8.5,5.2,12.6,14.3,13.4l7.7,0.7c4.7,0.4,6.5,2.5,6.5,5.7
			c0,4.6-4.7,6.7-10.6,6.7c-4.8,0-10-1-13.9-5.1l-6.4,6.4c5.7,5.6,12.4,7,20.3,7c11.5,0,20.1-5.2,20.1-15.4
			C340,48.3,334.7,44,325.6,43.2z"/>
		<path fill="#005293" class="st0" d="M10.2,2.5l0,21.8c0,0,7-1.4,13.1-1.4C33.5,23,38.6,28.4,39,35.5c0.1,1.8,0.1,2.8,0.1,4.7v31.5H28.3V39.5
			c0-3.6,0.2-8-7.9-7.9c-5.8,0-9.9,1.1-9.9,1.1v38.9H0V3.2L10.2,2.5z"/>
		<path fill="#005293" class="st0" d="M408,2.5l0,21.8c0,0,7-1.4,13.1-1.4c10.2,0.1,15.3,5.5,15.7,12.5c0.1,1.8,0.1,2.8,0.1,4.7v31.5h-10.8V39.5
			c0-3.6,0.2-8-7.9-7.9c-5.8,0-9.9,1.1-9.9,1.1v38.9h-10.5V3.2L408,2.5z"/>
		<g>
			<path fill="#005293" class="st0" d="M540.4,23.2v30.9c0,5.4,1.4,18.1-19.6,18.1c-21,0-19.6-12.7-19.6-18.1V23.2h9.7v29.4
				c0,7.4,3.2,10.7,9.9,10.8c7.2-0.2,9.9-3.4,9.9-10.8V23.2H540.4z"/>
		</g>
		<g>
			<path fill="#005293" class="st0" d="M250.1,71.6V40.8c0-5.4-1.4-18.1,19.6-18.1c21.1,0,19.6,12.7,19.6,18.1v30.9h-9.7V42.2
				c0-7.4-3.2-10.7-9.9-10.8c-7.2,0.2-9.9,3.4-9.9,10.8v29.4C259.8,71.6,250.1,71.6,250.1,71.6z"/>
		</g>
		<path fill="#005293" class="st0" d="M92.5,46c0-13.7-7.5-23.3-20.5-23.3c-12.4,0-20.5,9.1-20.5,24.7c0,18.4,9.6,24.8,21.7,24.8
			c8.5,0,13.2-2.6,18.1-7.5l-6.2-5.8c-3.4,3.4-6.3,5-11.7,5c-7.9,0-12.3-5.2-12.3-13.5h31.4V46z M61.1,43.5c0-0.7,0.1-1.4,0.1-2
			s0.1-1.1,0.2-1.6c0-0.2,0.1-0.5,0.2-0.7c0.1-0.5,0.3-1,0.5-1.5c0.1-0.3,0.2-0.5,0.3-0.8c1.4-3.4,4.6-5.8,8.8-6.1
			c0.3,0,0.6,0,0.8,0s0.6,0,0.8,0c0.6,0,1.1,0.1,1.6,0.2c0.5,0.1,1,0.3,1.5,0.4c0.9,0.4,1.8,0.8,2.6,1.4c1.3,1,2.4,2.4,3,4
			c1,2.2,1.2,3.6,1.3,6.6L61.1,43.5L61.1,43.5z"/>
		<path fill="#005293" class="st0" d="M238.2,46c0-13.7-7.5-23.3-20.5-23.3c-12.4,0-20.5,9.1-20.5,24.7c0,18.4,9.6,24.8,21.7,24.8
			c8.5,0,13.2-2.6,18.1-7.5l-6.2-5.8c-3.4,3.4-6.3,5-11.7,5c-7.9,0-12.3-5.2-12.3-13.5h31.4L238.2,46L238.2,46z M228.5,43.5h-21.7
			c0.1-1.8,0.2-3.1,0.5-4.3c0.2-0.7,0.4-1.4,0.8-2.3c0-0.1,0.1-0.2,0.1-0.3c1.5-3.2,4.6-5.5,8.7-5.8c0.3,0,0.6,0,0.8,0l0,0l0,0
			c4.6,0,8,2.5,9.5,6.1C228.1,39.1,228.4,40.5,228.5,43.5C228.5,43.5,228.5,43.5,228.5,43.5z"/>
		<path fill="#005293" class="st0" d="M467.4,22.7c-8,0-12.8,1.6-17.4,7l6.4,6c2.7-3.4,5.2-4.7,10.6-4.7c7.5,0,10.6,3,10.6,9.1v3.4h-12.8
			c-11.1,0-16.7,5.8-16.7,13.9c0,4.1,1.3,7.8,3.8,10.4c3,3,7,4.4,13,4.4c6,0,9.3-1.4,12.9-5v4.4h9.5V39.3
			C487.4,28.3,480.7,22.7,467.4,22.7z M477.7,54.2c0,3.4-0.7,5.7-2.1,7.2c-2.6,2.5-5.3,2.8-9.1,2.8c-6.1,0-8.9-2.5-8.9-6.9
			s3-7,8.7-7h11.4V54.2z"/>
	</g>
</g>
<g id="de" class="st1">
	<path class="st2" d="M661.8,43.5H640c0.1-3,0.3-4.4,1.2-6.6c1.5-3.6,5.1-6.1,9.6-6.1c4.6,0,8,2.5,9.5,6.1
		C661.4,39.1,661.7,40.5,661.8,43.5 M671.4,50.3V46c0-13.7-7.5-23.3-20.5-23.3c-12.4,0-20.5,9.1-20.5,24.7
		c0,18.4,9.6,24.8,21.7,24.8c8.5,0,13.2-2.6,18.1-7.5l-6.2-5.8c-3.4,3.4-6.3,5-11.7,5c-7.9,0-12.3-5.2-12.3-13.5L671.4,50.3
		L671.4,50.3L671.4,50.3z"/>
	<path class="st2" d="M565.5,72.2c3.3,0,5.7-2.3,5.7-5.8c0-3.4-2.4-5.7-5.7-5.7s-5.7,2.4-5.7,5.7C559.8,69.9,562.2,72.2,565.5,72.2"
		/>
	<path class="st2" d="M620.5,46.8l0-44.5h-9.9v24.9c-3.6-4.3-7.7-5.5-12.9-5.5c-5,0-9.2,1.7-12,4.4c-5,5-5.5,13.3-5.5,20.8
		c0,7.5,0.6,15.9,5.5,20.9c2.6,2.6,6.8,4.3,11.5,4.4c1,0.1,2,0.1,3.2,0.1c1.2,0,2.3,0,3.4-0.1c1.4,0,2.7-0.2,3.9-0.5
		c0.4-0.1,0.7-0.2,1-0.3c2.5-0.7,4.7-2,6.3-3.6c4.6-4.6,5.4-12.1,5.5-19.1C620.5,48.6,620.5,46.8,620.5,46.8z M600.4,30.5
		c8.9,0,10.2,7.6,10.2,16.3c0,6.3-0.7,12-4.3,14.7c-1.4,1.1-3.3,1.7-5.9,1.7c0,0-0.1,0-0.1,0v0c-8.9,0-10.2-7.7-10.2-16.4
		C590.1,38.1,591.4,30.5,600.4,30.5z"/>
</g>
</svg>
