<?xml version="1.0" encoding="utf-8"?>
<!-- Generator: Adobe Illustrator 17.0.1, SVG Export Plug-In . SVG Version: 6.00 Build 0)  -->
<!DOCTYPE svg PUBLIC "-//W3C//DTD SVG 1.1//EN" "http://www.w3.org/Graphics/SVG/1.1/DTD/svg11.dtd">
<svg version="1.1" id="Ebene_1" xmlns="http://www.w3.org/2000/svg" xmlns:xlink="http://www.w3.org/1999/xlink" x="0px" y="0px"
	 width="443.187px" height="87.916px" viewBox="2.301 -2.967 443.187 87.916" enable-background="new 2.301 -2.967 443.187 87.916"
	 xml:space="preserve">
<g id="Hintergrund">
</g>
<g id="Hilfslinien_anzeigen">
</g>
<g id="Vordergrund">
	<g>
		<path d="M432.566,27.368V5.753l-21.732,7.801v5.37l7.196-2.601v16.245L432.566,27.368z M423.896,0.2
			c-10.176,0-18.425,8.249-18.425,18.424c0,10.176,8.249,18.425,18.425,18.425c10.175,0,18.424-8.249,18.424-18.425
			C442.32,8.449,434.071,0.2,423.896,0.2z M423.896-2.967c11.925,0,21.592,9.667,21.592,21.592s-9.667,21.592-21.592,21.592
			s-21.592-9.667-21.592-21.592S411.971-2.967,423.896-2.967z"/>
		<path d="M67.357,64.266c-0.08-3.434-0.16-7.666-0.16-11.418v-15.81c0-7.905-3.274-13.254-14.692-13.254
			c-5.27,0-10.061,1.278-13.894,2.875l0.719,6.148c3.434-2.076,8.224-3.274,11.977-3.274c6.547,0,8.703,2.955,8.703,8.464v2.954
			c-15.011,0-23.874,5.51-23.874,14.213c0,6.308,4.471,9.821,11.019,9.821c6.547,0,11.578-3.753,13.494-8.624
			c-0.24,2.235-0.24,5.11-0.24,7.905L67.357,64.266L67.357,64.266z M60.011,46.699c0,6.228-4.312,12.616-10.779,12.616
			c-3.673,0-6.068-2.156-6.068-5.509c0-3.593,3.034-7.825,16.848-7.825L60.011,46.699L60.011,46.699L60.011,46.699z M115.889,70.015
			c0-7.187-4.791-11.338-13.414-11.338h-7.346c-4.791,0-6.787-0.878-6.787-3.114c0-1.277,0.798-2.555,2.555-3.273
			c1.357,0.24,3.354,0.479,5.03,0.479c11.338,0,17.247-6.228,17.247-14.771c0-3.354-1.277-6.148-3.354-7.745h6.707v-5.669h-13.494
			c-2.076-0.479-3.912-0.718-6.228-0.718c-11.099,0-17.406,6.946-17.406,15.331c0,5.03,1.916,9.103,5.829,11.338
			c-2.794,1.278-4.471,3.833-4.471,6.627c0,2.635,1.517,4.711,3.913,5.829c-3.514,1.837-6.548,5.589-6.548,10.3
			c0,7.585,6.468,11.658,16.688,11.658C107.265,84.946,115.889,78.398,115.889,70.015z M106.067,38.475
			c0,5.829-3.833,9.103-9.821,9.103c-6.228,0-9.821-3.194-9.821-9.103c0-5.35,3.753-9.262,10.061-9.262
			C102.554,29.213,106.067,32.646,106.067,38.475z M108.782,70.893c0,4.871-4.711,8.304-12.855,8.304
			c-6.228,0-10.699-2.555-10.699-7.266c0-3.034,1.996-5.669,5.11-7.266h10.141C106.067,64.665,108.782,67.06,108.782,70.893z
			 M156.741,40.551c0-9.103-4.711-16.688-15.89-16.688c-11.258,0-17.726,8.863-17.726,20.76c0,13.973,6.547,20.361,18.764,20.361
			c4.951,0,9.582-0.878,13.415-2.476l-0.639-5.829c-3.194,1.517-7.505,2.475-11.578,2.475c-8.464,0-12.855-4.551-12.536-15.171
			h25.95C156.661,42.627,156.741,41.509,156.741,40.551z M149.396,38.875h-18.524c0.798-5.829,4.471-9.742,9.661-9.742
			C146.122,29.133,149.555,33.045,149.396,38.875z M191.138,52.368c0-13.334-18.524-8.623-18.524-17.327
			c0-3.433,2.635-5.669,7.905-5.669c2.635,0,5.509,0.479,7.985,1.277l0.16-5.988c-2.396-0.479-5.19-0.798-7.585-0.798
			c-10.38,0-15.89,5.19-15.89,11.897c0,13.973,18.445,8.543,18.445,17.407c0,3.673-3.593,6.068-8.863,6.068
			c-3.034,0-6.228-0.559-8.703-1.357l-0.24,6.388c2.476,0.479,5.43,0.719,8.384,0.719C184.75,64.984,191.138,59.555,191.138,52.368z
			 M226.173,51.729c0-12.456-14.852-10.939-14.852-15.889c0-1.837,1.438-3.034,4.551-3.034c2.396,0,4.951,0.319,7.027,0.958
			l0.239-9.502c-2.236-0.319-4.711-0.639-6.947-0.639c-11.737,0-17.566,6.068-17.566,13.254c0,13.175,14.612,10.061,14.612,15.89
			c0,1.836-1.917,3.114-5.03,3.114c-2.875,0-5.909-0.559-8.304-1.278l-0.24,9.901c2.555,0.32,5.43,0.639,8.225,0.639
			C218.987,65.144,226.173,59.954,226.173,51.729z M260.491,63.387l-0.958-10.3c-1.916,0.958-4.392,1.438-6.707,1.438
			c-5.509,0-8.224-3.753-8.224-9.821c0-6.547,2.794-10.54,8.384-10.54c2.156,0,4.232,0.479,6.228,1.118l1.278-10.54
			c-2.476-0.639-5.11-1.038-7.666-1.038c-14.532,0-20.92,9.98-20.92,21.958c0,12.775,6.148,19.403,18.205,19.403
			C253.943,65.064,257.776,64.425,260.491,63.387z M304.243,64.266V36.24c0-6.867-2.875-12.536-11.738-12.536
			c-5.909,0-10.22,2.555-12.536,6.308c0.399-2.475,0.559-5.829,0.559-8.144V5.978h-12.137v58.288h12.137V45.103
			c0-5.909,3.593-11.179,7.905-11.179c2.794,0,3.673,1.917,3.673,5.11v25.231L304.243,64.266L304.243,64.266L304.243,64.266z
			 M347.256,64.266c-0.24-3.114-0.319-6.547-0.319-9.422V37.757c0-9.103-3.833-14.212-17.487-14.212
			c-4.95,0-10.3,1.038-14.372,2.315l0.958,10.061c3.274-1.757,8.064-2.875,11.578-2.875c5.27,0,7.106,1.597,7.106,4.871v1.517
			c-12.616,0-22.357,4.791-22.357,14.852c0,6.388,3.992,10.859,11.578,10.859c5.509,0,10.22-2.715,12.137-6.867
			c-0.24,1.997-0.24,4.072-0.24,5.989L347.256,64.266L347.256,64.266L347.256,64.266z M334.72,48.296
			c0,3.912-2.794,7.585-6.867,7.585c-2.555,0-3.993-1.438-3.993-3.434c0-2.875,2.076-5.27,10.859-5.27L334.72,48.296L334.72,48.296z
			 M393.144,64.266V24.582h-12.217v19.243c0,5.829-3.513,11.099-7.825,11.099c-2.794,0-3.673-1.916-3.673-5.11V24.582h-12.216
			v28.026c0,6.867,2.954,12.536,11.817,12.536c6.308,0,10.699-3.034,13.095-7.106c-0.24,1.916-0.319,4.791-0.319,6.228H393.144
			L393.144,64.266z M28.73,64.106v-6.068c-1.597,0.399-3.593,0.718-5.429,0.718c-4.472,0-5.669-1.756-5.669-8.304V30.171h11.099
			v-5.589H17.632V9.73l-7.186,1.997v12.855H2.301v5.589h8.145v22.836c0,8.543,2.475,11.897,10.62,11.897
			C23.621,64.904,26.495,64.585,28.73,64.106z"/>
	</g>
</g>
<g id="Logo">
</g>
<g id="Ebene_1_1_">
</g>
</svg>
