<?xml version="1.0" encoding="utf-8"?>
<!-- Generator: Adobe Illustrator 17.0.1, SVG Export Plug-In . SVG Version: 6.00 Build 0)  -->
<!DOCTYPE svg PUBLIC "-//W3C//DTD SVG 1.1//EN" "http://www.w3.org/Graphics/SVG/1.1/DTD/svg11.dtd">
<svg version="1.1" id="Ebene_1" xmlns="http://www.w3.org/2000/svg" xmlns:xlink="http://www.w3.org/1999/xlink" x="0px" y="0px"
	 width="355px" height="60px" viewBox="0 0 355 60" enable-background="new 0 0 355 60" xml:space="preserve">
<path fill-rule="evenodd" clip-rule="evenodd" fill="#1E2547" d="M19.535,45.186v-4.304c-1.133,0.283-2.549,0.51-3.851,0.51
	c-3.172,0-4.021-1.246-4.021-5.89V21.115h7.873V17.15h-7.873V6.616L6.565,8.032v9.119H0.788v3.964h5.777v16.198
	c0,6.061,1.756,8.439,7.533,8.439C15.91,45.752,17.949,45.525,19.535,45.186z M348.358,27.288h-13.14
	c0.566-4.134,3.172-6.91,6.853-6.91C346.036,20.378,348.472,23.154,348.358,27.288z M353.569,28.478
	c0-6.457-3.341-11.837-11.271-11.837c-7.986,0-12.574,6.287-12.574,14.725c0,9.912,4.645,14.442,13.31,14.442
	c3.511,0,6.796-0.623,9.515-1.756l-0.453-4.134c-2.265,1.076-5.324,1.756-8.212,1.756c-6.003,0-9.119-3.229-8.892-10.761h18.407
	C353.512,29.95,353.569,29.157,353.569,28.478z M316.947,30.743c0,4.927-2.605,10.875-7.703,10.875c-4.248,0-6.23-3.455-6.23-9.515
	c0-8.099,3.568-11.328,8.949-11.328c1.586,0,3.285,0.17,4.984,0.623V30.743z M322.044,45.299V3.954h-5.097v13.084
	c-1.699-0.17-3.228-0.283-4.758-0.283c-8.892,0-14.556,5.947-14.556,15.802c0,8.212,3.455,13.253,10.365,13.253
	c4.418,0,7.873-2.492,9.458-6.287c-0.226,1.699-0.34,4.191-0.34,5.777H322.044z M288.315,38.786c-1.926,0-3.512,1.586-3.512,3.512
	c0,1.925,1.586,3.511,3.512,3.511c1.926,0,3.511-1.586,3.511-3.511C291.826,40.372,290.241,38.786,288.315,38.786z M278.022,45.299
	V17.15h-8.666V30.8c0,4.135-2.492,7.873-5.551,7.873c-1.983,0-2.605-1.359-2.605-3.625V17.15h-8.665V37.03
	c0,4.871,2.095,8.892,8.382,8.892c4.474,0,7.589-2.152,9.289-5.041c-0.171,1.359-0.227,3.398-0.227,4.417H278.022z M236.581,33.972
	c0,2.775-1.983,5.38-4.871,5.38c-1.812,0-2.832-1.02-2.832-2.436c0-2.039,1.472-3.738,7.703-3.738V33.972z M245.473,45.299
	c-0.17-2.208-0.227-4.644-0.227-6.683v-12.12c0-6.457-2.719-10.081-12.404-10.081c-3.511,0-7.306,0.736-10.195,1.643l0.68,7.136
	c2.322-1.246,5.721-2.039,8.213-2.039c3.738,0,5.041,1.133,5.041,3.455v1.076c-8.949,0-15.858,3.398-15.858,10.535
	c0,4.531,2.832,7.703,8.212,7.703c3.908,0,7.249-1.926,8.609-4.871c-0.17,1.416-0.17,2.888-0.17,4.248H245.473z M214.962,45.299
	V25.419c0-4.871-2.039-8.892-8.326-8.892c-4.191,0-7.249,1.813-8.892,4.474c0.283-1.756,0.397-4.134,0.397-5.777V3.954h-8.609
	v41.345h8.609V31.706c0-4.191,2.549-7.929,5.607-7.929c1.982,0,2.605,1.359,2.605,3.625v17.897H214.962z M183.928,44.676
	l-0.68-7.306c-1.359,0.68-3.115,1.02-4.758,1.02c-3.908,0-5.833-2.662-5.833-6.966c0-4.644,1.982-7.476,5.947-7.476
	c1.529,0,3.002,0.34,4.418,0.793l0.906-7.476c-1.756-0.453-3.625-0.736-5.438-0.736c-10.308,0-14.839,7.08-14.839,15.575
	c0,9.062,4.361,13.763,12.913,13.763C179.284,45.865,182.002,45.412,183.928,44.676z M159.586,36.407
	c0-8.836-10.535-7.759-10.535-11.271c0-1.303,1.02-2.152,3.229-2.152c1.699,0,3.511,0.227,4.984,0.68l0.17-6.74
	c-1.586-0.227-3.341-0.453-4.927-0.453c-8.326,0-12.46,4.304-12.46,9.402c0,9.345,10.365,7.136,10.365,11.271
	c0,1.303-1.359,2.209-3.568,2.209c-2.039,0-4.191-0.397-5.89-0.906l-0.17,7.023c1.813,0.226,3.851,0.453,5.833,0.453
	C154.488,45.922,159.586,42.241,159.586,36.407z M134.734,36.86c0-9.458-13.14-6.117-13.14-12.29c0-2.436,1.869-4.021,5.607-4.021
	c1.869,0,3.908,0.34,5.664,0.906l0.113-4.247c-1.699-0.34-3.682-0.566-5.381-0.566c-7.363,0-11.271,3.681-11.271,8.439
	c0,9.912,13.083,6.06,13.083,12.347c0,2.605-2.549,4.305-6.287,4.305c-2.152,0-4.417-0.396-6.173-0.963l-0.17,4.531
	c1.755,0.34,3.851,0.51,5.947,0.51C130.203,45.809,134.734,41.957,134.734,36.86z M105.125,27.288h-13.14
	c0.566-4.134,3.172-6.91,6.853-6.91C102.803,20.378,105.238,23.154,105.125,27.288z M110.336,28.478
	c0-6.457-3.342-11.837-11.271-11.837c-7.986,0-12.573,6.287-12.573,14.725c0,9.912,4.644,14.442,13.31,14.442
	c3.512,0,6.796-0.623,9.515-1.756l-0.453-4.134c-2.266,1.076-5.324,1.756-8.212,1.756c-6.003,0-9.119-3.229-8.892-10.761h18.407
	C110.279,29.95,110.336,29.157,110.336,28.478z M76.317,50c0,3.455-3.342,5.89-9.119,5.89c-4.417,0-7.589-1.813-7.589-5.154
	c0-2.152,1.416-4.021,3.625-5.154h7.193C74.392,45.582,76.317,47.281,76.317,50z M74.392,27.005c0,4.135-2.718,6.457-6.966,6.457
	c-4.417,0-6.966-2.266-6.966-6.457c0-3.794,2.662-6.57,7.136-6.57C71.9,20.435,74.392,22.871,74.392,27.005z M81.358,49.377
	c0-5.098-3.398-8.042-9.515-8.042h-5.211c-3.398,0-4.814-0.623-4.814-2.209c0-0.906,0.566-1.813,1.813-2.322
	c0.962,0.17,2.378,0.34,3.568,0.34c8.043,0,12.234-4.418,12.234-10.478c0-2.379-0.906-4.361-2.379-5.494h4.757V17.15h-9.572
	c-1.472-0.34-2.775-0.51-4.418-0.51c-7.873,0-12.347,4.927-12.347,10.874c0,3.568,1.359,6.457,4.134,8.042
	c-1.982,0.906-3.171,2.719-3.171,4.701c0,1.869,1.076,3.341,2.775,4.134c-2.492,1.303-4.644,3.965-4.644,7.307
	c0,5.38,4.588,8.269,11.837,8.269C75.241,59.968,81.358,55.324,81.358,49.377z M41.723,32.839c0,4.417-3.059,8.949-7.646,8.949
	c-2.605,0-4.305-1.529-4.305-3.908c0-2.548,2.152-5.55,11.951-5.55V32.839z M46.933,45.299c-0.057-2.436-0.113-5.437-0.113-8.099
	V25.986c0-5.608-2.322-9.402-10.421-9.402c-3.738,0-7.136,0.906-9.854,2.039l0.51,4.361c2.435-1.473,5.833-2.322,8.496-2.322
	c4.644,0,6.173,2.096,6.173,6.004v2.095c-10.648,0-16.935,3.908-16.935,10.081c0,4.474,3.171,6.966,7.816,6.966
	c4.644,0,8.212-2.662,9.572-6.117c-0.17,1.586-0.17,3.625-0.17,5.607H46.933z"/>
</svg>
