<?xml version="1.0" encoding="utf-8"?>
<!-- Generator: Adobe Illustrator 26.3.1, SVG Export Plug-In . SVG Version: 6.00 Build 0)  -->
<svg version="1.1" id="Ebene_1" xmlns="http://www.w3.org/2000/svg" xmlns:xlink="http://www.w3.org/1999/xlink" x="0px" y="0px"
	 viewBox="0 0 277.2 56" style="enable-background:new 0 0 277.2 56;" xml:space="preserve">
<style type="text/css">
	.st0{fill-rule:evenodd;clip-rule:evenodd;}
</style>
<path class="st0" d="M18.7,41.2v-4.3c-1.1,0.3-2.5,0.5-3.9,0.5c-3.2,0-4-1.2-4-5.9V17.2h7.9v-4h-7.9V2.7L5.8,4.1v9.1H0v4h5.8v16.2
	c0,6.1,1.8,8.4,7.5,8.4C15.1,41.8,17.2,41.6,18.7,41.2z M277.2,41.3V13.2h-8.7v13.6c0,4.1-2.5,7.9-5.6,7.9c-2,0-2.6-1.4-2.6-3.6
	V13.2h-8.7v19.9c0,4.9,2.1,8.9,8.4,8.9c4.5,0,7.6-2.2,9.3-5c-0.2,1.4-0.2,3.4-0.2,4.4L277.2,41.3L277.2,41.3z M235.8,30
	c0,2.8-2,5.4-4.9,5.4c-1.8,0-2.8-1-2.8-2.4c0-2,1.5-3.7,7.7-3.7V30z M244.7,41.3c-0.2-2.2-0.2-4.6-0.2-6.7V22.5
	c0-6.5-2.7-10.1-12.4-10.1c-3.5,0-7.3,0.7-10.2,1.6l0.7,7.1c2.3-1.2,5.7-2,8.2-2c3.7,0,5,1.1,5,3.5v1.1c-8.9,0-15.9,3.4-15.9,10.5
	c0,4.5,2.8,7.7,8.2,7.7c3.9,0,7.2-1.9,8.6-4.9c-0.2,1.4-0.2,2.9-0.2,4.2L244.7,41.3L244.7,41.3z M214.2,41.3V21.5
	c0-4.9-2-8.9-8.3-8.9c-4.2,0-7.2,1.8-8.9,4.5c0.3-1.8,0.4-4.1,0.4-5.8V0h-8.6v41.3h8.6V27.8c0-4.2,2.5-7.9,5.6-7.9
	c2,0,2.6,1.4,2.6,3.6v17.9H214.2z M183.1,40.7l-0.7-7.3c-1.4,0.7-3.1,1-4.8,1c-3.9,0-5.8-2.7-5.8-7c0-4.6,2-7.5,5.9-7.5
	c1.5,0,3,0.3,4.4,0.8l0.9-7.5c-1.8-0.5-3.6-0.7-5.4-0.7c-10.3,0-14.8,7.1-14.8,15.6c0,9.1,4.4,13.8,12.9,13.8
	C178.5,41.9,181.2,41.5,183.1,40.7z M158.8,32.5c0-8.8-10.5-7.8-10.5-11.3c0-1.3,1-2.2,3.2-2.2c1.7,0,3.5,0.2,5,0.7l0.2-6.7
	c-1.6-0.2-3.3-0.5-4.9-0.5c-8.3,0-12.5,4.3-12.5,9.4c0,9.3,10.4,7.1,10.4,11.3c0,1.3-1.4,2.2-3.6,2.2c-2,0-4.2-0.4-5.9-0.9l-0.2,7
	c1.8,0.2,3.9,0.5,5.8,0.5C153.7,42,158.8,38.3,158.8,32.5z M133.9,32.9c0-9.5-13.1-6.1-13.1-12.3c0-2.4,1.9-4,5.6-4
	c1.9,0,3.9,0.3,5.7,0.9l0.1-4.2c-1.7-0.3-3.7-0.6-5.4-0.6c-7.4,0-11.3,3.7-11.3,8.4c0,9.9,13.1,6.1,13.1,12.3c0,2.6-2.5,4.3-6.3,4.3
	c-2.2,0-4.4-0.4-6.2-1l-0.2,4.5c1.8,0.3,3.9,0.5,5.9,0.5C129.4,41.9,133.9,38,133.9,32.9z M104.3,23.3H91.2c0.6-4.1,3.2-6.9,6.9-6.9
	C102,16.4,104.4,19.2,104.3,23.3z M109.5,24.5c0-6.5-3.3-11.8-11.3-11.8c-8,0-12.6,6.3-12.6,14.7c0,9.9,4.6,14.4,13.3,14.4
	c3.5,0,6.8-0.6,9.5-1.8l-0.5-4.1c-2.3,1.1-5.3,1.8-8.2,1.8c-6,0-9.1-3.2-8.9-10.8h18.4C109.5,26,109.5,25.2,109.5,24.5z M75.5,46
	c0,3.5-3.3,5.9-9.1,5.9c-4.4,0-7.6-1.8-7.6-5.2c0-2.2,1.4-4,3.6-5.2h7.2C73.6,41.6,75.5,43.3,75.5,46z M73.6,23.1
	c0,4.1-2.7,6.5-7,6.5c-4.4,0-7-2.3-7-6.5c0-3.8,2.7-6.6,7.1-6.6C71.1,16.5,73.6,18.9,73.6,23.1z M80.6,45.4c0-5.1-3.4-8-9.5-8h-5.2
	c-3.4,0-4.8-0.6-4.8-2.2c0-0.9,0.6-1.8,1.8-2.3c1,0.2,2.4,0.3,3.6,0.3c8,0,12.2-4.4,12.2-10.5c0-2.4-0.9-4.4-2.4-5.5H81v-4h-9.6
	c-1.5-0.3-2.8-0.5-4.4-0.5c-7.9,0-12.3,4.9-12.3,10.9c0,3.6,1.4,6.5,4.1,8c-2,0.9-3.2,2.7-3.2,4.7c0,1.9,1.1,3.3,2.8,4.1
	c-2.5,1.3-4.6,4-4.6,7.3c0,5.4,4.6,8.3,11.8,8.3C74.5,56,80.6,51.4,80.6,45.4z M40.9,28.9c0,4.4-3.1,8.9-7.6,8.9
	c-2.6,0-4.3-1.5-4.3-3.9c0-2.5,2.2-5.6,12-5.6V28.9z M46.1,41.3c-0.1-2.4-0.1-5.4-0.1-8.1V22c0-5.6-2.3-9.4-10.4-9.4
	c-3.7,0-7.1,0.9-9.9,2l0.5,4.4c2.4-1.5,5.8-2.3,8.5-2.3c4.6,0,6.2,2.1,6.2,6v2.1C30.3,24.8,24,28.7,24,34.9c0,4.5,3.2,7,7.8,7
	c4.6,0,8.2-2.7,9.6-6.1c-0.2,1.6-0.2,3.6-0.2,5.6L46.1,41.3L46.1,41.3z"/>
</svg>
