<?xml version="1.0" encoding="UTF-8"?>
<svg id="Ebene_2" data-name="Ebene 2" xmlns="http://www.w3.org/2000/svg" viewBox="0 0 184.266 42">
  <defs>
    <style>
      .cls-1 {
        fill: #fff;
      }
    </style>
  </defs>
  <g id="hr_fernsehen" data-name="hr fernsehen">
    <g>
      <path class="cls-1" d="m27.787,41.985c-9.33.203-20.688-1.623-27.787-4.766v-2.738c7.505,3.144,18.051,4.969,27.178,4.766,9.938-.203,20.384-1.825,27.584-4.766v2.738c-8.012,2.941-17.139,4.564-26.976,4.766"/>
      <path class="cls-1" d="m4.766,0v10.547s3.347-.608,6.186-.608c4.766,0,7.099,2.535,7.302,5.983v15.82h-4.969v-13.995c0-1.825.203-3.752-3.752-3.752-2.738,0-4.564.608-4.564.608v17.037H0V.101l4.766-.101Z"/>
      <path class="cls-1" d="m35.494,9.634s-4.564.203-7.099.811c-2.941.811-4.969,2.535-5.375,5.375v15.82h4.969v-13.893c0-1.217,0-2.028,1.014-2.738,1.014-.811,2.941-1.014,4.158-1.014.811,0,2.332-.203,2.332-.203v-4.158Z"/>
      <path class="cls-1" d="m62.064,16.632h-7.91c0-1.014.203-1.623.406-2.332.608-1.217,1.825-2.13,3.347-2.13,1.623,0,2.941.811,3.347,2.13.608.71.811,1.318.811,2.332m3.347,2.332v-1.623c0-4.766-2.738-8.113-7.302-8.113-4.361,0-7.302,3.144-7.302,8.721,0,6.49,3.347,8.721,7.707,8.721,2.941,0,4.766-1.014,6.49-2.535l-2.13-2.028c-1.217,1.217-2.13,1.825-4.158,1.825-2.738,0-4.361-1.825-4.361-4.766h11.054v-.203Z"/>
      <path class="cls-1" d="m105.266,26.874c-2.738,0-5.172-.406-7.302-2.332l2.332-2.13c1.42,1.42,3.347,1.825,4.969,1.825,2.13,0,3.752-.811,3.752-2.332,0-1.217-.608-1.825-2.332-2.028l-2.738-.203c-3.144-.203-5.172-1.825-5.172-4.766,0-3.347,2.941-5.172,6.49-5.172,2.535,0,4.766.608,6.389,2.028l-2.028,2.028c-1.217-1.014-2.535-1.217-4.361-1.217-2.13,0-3.144,1.014-3.144,2.13,0,1.014.608,1.825,2.332,2.028h2.941c3.144.203,5.172,1.825,5.172,4.766,0,3.448-3.144,5.375-7.302,5.375"/>
      <path class="cls-1" d="m126.461,16.834h-7.707c0-1.014.203-1.623.406-2.332.608-1.217,1.825-2.13,3.347-2.13s2.941.811,3.347,2.13c.406.71.608,1.318.608,2.332m3.549,2.332v-1.623c0-4.766-2.738-8.113-7.302-8.113-4.361,0-7.302,3.144-7.302,8.721,0,6.49,3.347,8.721,7.707,8.721,2.941,0,4.766-1.014,6.49-2.535l-2.13-2.028c-1.217,1.217-2.13,1.825-4.158,1.825-2.738,0-4.361-1.825-4.361-4.766h11.054v-.203Z"/>
      <path class="cls-1" d="m162.868,16.834h-7.707c0-1.014.203-1.623.406-2.332.608-1.217,1.825-2.13,3.347-2.13,1.623,0,2.941.811,3.347,2.13.507.71.608,1.318.608,2.332m3.651,2.332v-1.623c0-4.766-2.738-8.113-7.302-8.113-4.361,0-7.302,3.144-7.302,8.721,0,6.49,3.347,8.721,7.707,8.721,2.941,0,4.766-1.014,6.49-2.535l-2.13-2.028c-1.217,1.217-2.13,1.825-4.158,1.825-2.738,0-4.361-1.825-4.361-4.766h11.054v-.203h0Z"/>
      <path class="cls-1" d="m46.954,5.273h1.623v-2.941h-2.332c-2.941,0-4.564,2.028-4.766,4.361v19.775h3.549v-13.589h3.347v-3.144h-3.347v-2.332c0-1.318.608-2.13,1.927-2.13"/>
      <path class="cls-1" d="m137.515,2.13v7.707s2.332-.608,4.564-.406c3.549,0,5.375,2.028,5.578,4.361v12.677h-3.752v-11.257c0-1.217,0-2.738-2.738-2.738-2.028,0-3.549.406-3.549.406v13.691h-3.752V2.332l3.651-.203Z"/>
      <path class="cls-1" d="m80.42,26.469v-10.851c0-2.028-.203-3.347,1.623-4.969,1.014-1.014,3.549-1.42,5.375-1.42s4.361.406,5.375,1.42c1.521,1.623,1.521,3.144,1.521,4.969v10.851h-3.347v-10.243c0-2.535-1.217-3.752-3.549-3.752-2.535,0-3.549,1.217-3.549,3.752v10.344l-3.448-.101h0Z"/>
      <path class="cls-1" d="m170.271,26.469v-10.851c0-2.028-.203-3.347,1.623-4.969,1.014-1.014,3.549-1.42,5.375-1.42s4.361.406,5.375,1.42c1.623,1.623,1.623,3.144,1.623,4.969v10.851h-3.347v-10.243c0-2.535-1.217-3.752-3.549-3.752-2.535,0-3.549,1.217-3.549,3.752v10.344l-3.549-.101h0Z"/>
      <path class="cls-1" d="m77.682,9.229c-.608,0-2.941,0-4.564.406-2.13.608-3.549,1.825-3.752,3.955v12.879h3.549v-11.662c0-.811,0-1.42.608-2.028s2.028-.608,2.941-.811h1.42v-2.738h-.203Z"/>
    </g>
  </g>
</svg>