<?xml version="1.0" encoding="utf-8"?>
<!-- Generator: Adobe Illustrator 19.2.0, SVG Export Plug-In . SVG Version: 6.00 Build 0)  -->
<svg version="1.1" id="hr_fernsehen" xmlns="http://www.w3.org/2000/svg" xmlns:xlink="http://www.w3.org/1999/xlink" x="0px"
	 y="0px" width="181.7px" height="41.7px" viewBox="0 0 181.7 41.7" style="enable-background:new 0 0 181.7 41.7;"
	 xml:space="preserve">
<style type="text/css">
	.st0{fill:#FFFFFF;}
</style>
<g>
	<path class="st0" d="M27.4,41.7C18.2,41.9,7,40.1,0,37v-2.7c7.4,3.1,17.8,4.9,26.8,4.7c9.8-0.2,20.1-1.8,27.2-4.7V37
		C46.1,39.9,37.1,41.5,27.4,41.7"/>
	<path class="st0" d="M4.7,0.3v10.4c0,0,3.3-0.6,6.1-0.6c4.7,0,7,2.5,7.2,5.9c0,0.8,0,1.4,0,2.1v13.5h-4.9V17.8
		c0-1.8,0.2-3.7-3.7-3.7c-2.7,0-4.5,0.6-4.5,0.6v16.8H0V0.4L4.7,0.3z"/>
	<path class="st0" d="M35,9.8c0,0-4.5,0.2-7,0.8c-2.9,0.8-4.9,2.5-5.3,5.3c0,0.6,0,0.8,0,2.1v13.5h4.9V17.8c0-1.2,0-2,1-2.7
		c1-0.8,2.9-1,4.1-1c0.8,0,2.3-0.2,2.3-0.2V9.8z"/>
	<path class="st0" d="M61.2,16.7h-7.8c0-1,0.2-1.6,0.4-2.3c0.6-1.2,1.8-2.1,3.3-2.1c1.6,0,2.9,0.8,3.3,2.1
		C61,15.1,61.2,15.7,61.2,16.7 M64.5,19v-1.6c0-4.7-2.7-8-7.2-8c-4.3,0-7.2,3.1-7.2,8.6c0,6.4,3.3,8.6,7.6,8.6c2.9,0,4.7-1,6.4-2.5
		l-2.1-2c-1.2,1.2-2.1,1.8-4.1,1.8c-2.7,0-4.3-1.8-4.3-4.7h10.9V19z"/>
	<path class="st0" d="M103.8,26.8c-2.7,0-5.1-0.4-7.2-2.3l2.3-2.1c1.4,1.4,3.3,1.8,4.9,1.8c2.1,0,3.7-0.8,3.7-2.3
		c0-1.2-0.6-1.8-2.3-2l-2.7-0.2c-3.1-0.2-5.1-1.8-5.1-4.7c0-3.3,2.9-5.1,6.4-5.1c2.5,0,4.7,0.6,6.3,2l-2,2c-1.2-1-2.5-1.2-4.3-1.2
		c-2.1,0-3.1,1-3.1,2.1c0,1,0.6,1.8,2.3,2h2.9c3.1,0.2,5.1,1.8,5.1,4.7C111,24.9,107.9,26.8,103.8,26.8"/>
	<path class="st0" d="M124.7,16.9h-7.6c0-1,0.2-1.6,0.4-2.3c0.6-1.2,1.8-2.1,3.3-2.1s2.9,0.8,3.3,2.1
		C124.5,15.3,124.7,15.9,124.7,16.9 M128.2,19.2v-1.6c0-4.7-2.7-8-7.2-8c-4.3,0-7.2,3.1-7.2,8.6c0,6.4,3.3,8.6,7.6,8.6
		c2.9,0,4.7-1,6.4-2.5l-2.1-2c-1.2,1.2-2.1,1.8-4.1,1.8c-2.7,0-4.3-1.8-4.3-4.7h10.9V19.2z"/>
	<path class="st0" d="M160.6,16.9H153c0-1,0.2-1.6,0.4-2.3c0.6-1.2,1.8-2.1,3.3-2.1c1.6,0,2.9,0.8,3.3,2.1
		C160.5,15.3,160.6,15.9,160.6,16.9 M164.2,19.2v-1.6c0-4.7-2.7-8-7.2-8c-4.3,0-7.2,3.1-7.2,8.6c0,6.4,3.3,8.6,7.6,8.6
		c2.9,0,4.7-1,6.4-2.5l-2.1-2c-1.2,1.2-2.1,1.8-4.1,1.8c-2.7,0-4.3-1.8-4.3-4.7h10.9L164.2,19.2L164.2,19.2z"/>
	<path class="st0" d="M46.3,5.5h1.6V2.6h-2.3c-2.9,0-4.5,2-4.7,4.3v19.5h3.5V13h3.3V9.9h-3.3V7.6C44.4,6.3,45,5.5,46.3,5.5"/>
	<path class="st0" d="M135.6,2.4V10c0,0,2.3-0.6,4.5-0.4c3.5,0,5.3,2,5.5,4.3c0,0.6,0,1,0,1.6v10.9h-3.7V15.3c0-1.2,0-2.7-2.7-2.7
		c-2,0-3.5,0.4-3.5,0.4v13.5H132V2.6L135.6,2.4z"/>
	<path class="st0" d="M79.3,26.4V15.7c0-2-0.2-3.3,1.6-4.9c1-1,3.5-1.4,5.3-1.4s4.3,0.4,5.3,1.4c1.5,1.6,1.5,3.1,1.5,4.9v10.7h-3.3
		V16.3c0-2.5-1.2-3.7-3.5-3.7c-2.5,0-3.5,1.2-3.5,3.7v10.2L79.3,26.4L79.3,26.4z"/>
	<path class="st0" d="M167.9,26.4V15.7c0-2-0.2-3.3,1.6-4.9c1-1,3.5-1.4,5.3-1.4s4.3,0.4,5.3,1.4c1.6,1.6,1.6,3.1,1.6,4.9v10.7h-3.3
		V16.3c0-2.5-1.2-3.7-3.5-3.7c-2.5,0-3.5,1.2-3.5,3.7v10.2L167.9,26.4L167.9,26.4z"/>
	<path class="st0" d="M76.6,9.4c-0.6,0-2.9,0-4.5,0.4c-2.1,0.6-3.5,1.8-3.7,3.9c0,0.4,0,0.6,0,1.6v11.1h3.5V14.9c0-0.8,0-1.4,0.6-2
		s2-0.6,2.9-0.8c0.4,0,1,0,1.4,0V9.4C76.8,9.4,76.6,9.4,76.6,9.4z"/>
</g>
</svg>
