<svg xmlns="http://www.w3.org/2000/svg" xmlns:xlink="http://www.w3.org/1999/xlink"><symbol id="brandlogo--desk" viewBox="0 0 181.7 41.7" preserveAspectRatio="xMidYMid meet"><style type="text/css">.st0{fill:#fff}</style><path class="st0" d="M27.4 41.7C18.2 41.9 7 40.1 0 37v-2.7c7.4 3.1 17.8 4.9 26.8 4.7 9.8-.2 20.1-1.8 27.2-4.7V37c-7.9 2.9-16.9 4.5-26.6 4.7M4.7.3v10.4s3.3-.6 6.1-.6c4.7 0 7 2.5 7.2 5.9v15.6h-4.9V17.8c0-1.8.2-3.7-3.7-3.7-2.7 0-4.5.6-4.5.6v16.8H0V.4L4.7.3zM35 9.8s-4.5.2-7 .8c-2.9.8-4.9 2.5-5.3 5.3v15.6h4.9V17.8c0-1.2 0-2 1-2.7 1-.8 2.9-1 4.1-1 .8 0 2.3-.2 2.3-.2V9.8zM61.2 16.7h-7.8c0-1 .2-1.6.4-2.3.6-1.2 1.8-2.1 3.3-2.1 1.6 0 2.9.8 3.3 2.1.6.7.8 1.3.8 2.3m3.3 2.3v-1.6c0-4.7-2.7-8-7.2-8-4.3 0-7.2 3.1-7.2 8.6 0 6.4 3.3 8.6 7.6 8.6 2.9 0 4.7-1 6.4-2.5l-2.1-2c-1.2 1.2-2.1 1.8-4.1 1.8-2.7 0-4.3-1.8-4.3-4.7h10.9V19zM103.8 26.8c-2.7 0-5.1-.4-7.2-2.3l2.3-2.1c1.4 1.4 3.3 1.8 4.9 1.8 2.1 0 3.7-.8 3.7-2.3 0-1.2-.6-1.8-2.3-2l-2.7-.2c-3.1-.2-5.1-1.8-5.1-4.7 0-3.3 2.9-5.1 6.4-5.1 2.5 0 4.7.6 6.3 2l-2 2c-1.2-1-2.5-1.2-4.3-1.2-2.1 0-3.1 1-3.1 2.1 0 1 .6 1.8 2.3 2h2.9c3.1.2 5.1 1.8 5.1 4.7 0 3.4-3.1 5.3-7.2 5.3M124.7 16.9h-7.6c0-1 .2-1.6.4-2.3.6-1.2 1.8-2.1 3.3-2.1s2.9.8 3.3 2.1c.4.7.6 1.3.6 2.3m3.5 2.3v-1.6c0-4.7-2.7-8-7.2-8-4.3 0-7.2 3.1-7.2 8.6 0 6.4 3.3 8.6 7.6 8.6 2.9 0 4.7-1 6.4-2.5l-2.1-2c-1.2 1.2-2.1 1.8-4.1 1.8-2.7 0-4.3-1.8-4.3-4.7h10.9v-.2zM160.6 16.9H153c0-1 .2-1.6.4-2.3.6-1.2 1.8-2.1 3.3-2.1 1.6 0 2.9.8 3.3 2.1.5.7.6 1.3.6 2.3m3.6 2.3v-1.6c0-4.7-2.7-8-7.2-8-4.3 0-7.2 3.1-7.2 8.6 0 6.4 3.3 8.6 7.6 8.6 2.9 0 4.7-1 6.4-2.5l-2.1-2c-1.2 1.2-2.1 1.8-4.1 1.8-2.7 0-4.3-1.8-4.3-4.7h10.9v-.2zM46.3 5.5h1.6V2.6h-2.3c-2.9 0-4.5 2-4.7 4.3v19.5h3.5V13h3.3V9.9h-3.3V7.6c0-1.3.6-2.1 1.9-2.1M135.6 2.4V10s2.3-.6 4.5-.4c3.5 0 5.3 2 5.5 4.3v12.5h-3.7V15.3c0-1.2 0-2.7-2.7-2.7-2 0-3.5.4-3.5.4v13.5H132V2.6l3.6-.2zM79.3 26.4V15.7c0-2-.2-3.3 1.6-4.9 1-1 3.5-1.4 5.3-1.4s4.3.4 5.3 1.4c1.5 1.6 1.5 3.1 1.5 4.9v10.7h-3.3V16.3c0-2.5-1.2-3.7-3.5-3.7-2.5 0-3.5 1.2-3.5 3.7v10.2l-3.4-.1zM167.9 26.4V15.7c0-2-.2-3.3 1.6-4.9 1-1 3.5-1.4 5.3-1.4s4.3.4 5.3 1.4c1.6 1.6 1.6 3.1 1.6 4.9v10.7h-3.3V16.3c0-2.5-1.2-3.7-3.5-3.7-2.5 0-3.5 1.2-3.5 3.7v10.2l-3.5-.1zM76.6 9.4c-.6 0-2.9 0-4.5.4-2.1.6-3.5 1.8-3.7 3.9v12.7h3.5V14.9c0-.8 0-1.4.6-2s2-.6 2.9-.8h1.4V9.4h-.2z"/></symbol><symbol id="brandlogo--mobile" viewBox="0 0 181.7 41.7" preserveAspectRatio="xMidYMid meet"><style type="text/css">.st0{fill:#fff}</style><path class="st0" d="M27.4 41.7C18.2 41.9 7 40.1 0 37v-2.7c7.4 3.1 17.8 4.9 26.8 4.7 9.8-.2 20.1-1.8 27.2-4.7V37c-7.9 2.9-16.9 4.5-26.6 4.7M4.7.3v10.4s3.3-.6 6.1-.6c4.7 0 7 2.5 7.2 5.9v15.6h-4.9V17.8c0-1.8.2-3.7-3.7-3.7-2.7 0-4.5.6-4.5.6v16.8H0V.4L4.7.3zM35 9.8s-4.5.2-7 .8c-2.9.8-4.9 2.5-5.3 5.3v15.6h4.9V17.8c0-1.2 0-2 1-2.7 1-.8 2.9-1 4.1-1 .8 0 2.3-.2 2.3-.2V9.8zM61.2 16.7h-7.8c0-1 .2-1.6.4-2.3.6-1.2 1.8-2.1 3.3-2.1 1.6 0 2.9.8 3.3 2.1.6.7.8 1.3.8 2.3m3.3 2.3v-1.6c0-4.7-2.7-8-7.2-8-4.3 0-7.2 3.1-7.2 8.6 0 6.4 3.3 8.6 7.6 8.6 2.9 0 4.7-1 6.4-2.5l-2.1-2c-1.2 1.2-2.1 1.8-4.1 1.8-2.7 0-4.3-1.8-4.3-4.7h10.9V19zM103.8 26.8c-2.7 0-5.1-.4-7.2-2.3l2.3-2.1c1.4 1.4 3.3 1.8 4.9 1.8 2.1 0 3.7-.8 3.7-2.3 0-1.2-.6-1.8-2.3-2l-2.7-.2c-3.1-.2-5.1-1.8-5.1-4.7 0-3.3 2.9-5.1 6.4-5.1 2.5 0 4.7.6 6.3 2l-2 2c-1.2-1-2.5-1.2-4.3-1.2-2.1 0-3.1 1-3.1 2.1 0 1 .6 1.8 2.3 2h2.9c3.1.2 5.1 1.8 5.1 4.7 0 3.4-3.1 5.3-7.2 5.3M124.7 16.9h-7.6c0-1 .2-1.6.4-2.3.6-1.2 1.8-2.1 3.3-2.1s2.9.8 3.3 2.1c.4.7.6 1.3.6 2.3m3.5 2.3v-1.6c0-4.7-2.7-8-7.2-8-4.3 0-7.2 3.1-7.2 8.6 0 6.4 3.3 8.6 7.6 8.6 2.9 0 4.7-1 6.4-2.5l-2.1-2c-1.2 1.2-2.1 1.8-4.1 1.8-2.7 0-4.3-1.8-4.3-4.7h10.9v-.2zM160.6 16.9H153c0-1 .2-1.6.4-2.3.6-1.2 1.8-2.1 3.3-2.1 1.6 0 2.9.8 3.3 2.1.5.7.6 1.3.6 2.3m3.6 2.3v-1.6c0-4.7-2.7-8-7.2-8-4.3 0-7.2 3.1-7.2 8.6 0 6.4 3.3 8.6 7.6 8.6 2.9 0 4.7-1 6.4-2.5l-2.1-2c-1.2 1.2-2.1 1.8-4.1 1.8-2.7 0-4.3-1.8-4.3-4.7h10.9v-.2zM46.3 5.5h1.6V2.6h-2.3c-2.9 0-4.5 2-4.7 4.3v19.5h3.5V13h3.3V9.9h-3.3V7.6c0-1.3.6-2.1 1.9-2.1M135.6 2.4V10s2.3-.6 4.5-.4c3.5 0 5.3 2 5.5 4.3v12.5h-3.7V15.3c0-1.2 0-2.7-2.7-2.7-2 0-3.5.4-3.5.4v13.5H132V2.6l3.6-.2zM79.3 26.4V15.7c0-2-.2-3.3 1.6-4.9 1-1 3.5-1.4 5.3-1.4s4.3.4 5.3 1.4c1.5 1.6 1.5 3.1 1.5 4.9v10.7h-3.3V16.3c0-2.5-1.2-3.7-3.5-3.7-2.5 0-3.5 1.2-3.5 3.7v10.2l-3.4-.1zM167.9 26.4V15.7c0-2-.2-3.3 1.6-4.9 1-1 3.5-1.4 5.3-1.4s4.3.4 5.3 1.4c1.6 1.6 1.6 3.1 1.6 4.9v10.7h-3.3V16.3c0-2.5-1.2-3.7-3.5-3.7-2.5 0-3.5 1.2-3.5 3.7v10.2l-3.5-.1zM76.6 9.4c-.6 0-2.9 0-4.5.4-2.1.6-3.5 1.8-3.7 3.9v12.7h3.5V14.9c0-.8 0-1.4.6-2s2-.6 2.9-.8h1.4V9.4h-.2z"/></symbol></svg>