<svg xmlns="http://www.w3.org/2000/svg" xmlns:xlink="http://www.w3.org/1999/xlink"><defs><style>.cls-1{fill:#fff}</style></defs><symbol id="brandlogo--desk" viewBox="0 0 184.266 42"><g id="hr_fernsehen" data-name="hr fernsehen"><path class="cls-1" d="M27.787 41.985c-9.33.203-20.688-1.623-27.787-4.766v-2.738c7.505 3.144 18.051 4.969 27.178 4.766 9.938-.203 20.384-1.825 27.584-4.766v2.738c-8.012 2.941-17.139 4.564-26.976 4.766M4.766 0v10.547s3.347-.608 6.186-.608c4.766 0 7.099 2.535 7.302 5.983v15.82h-4.969V17.747c0-1.825.203-3.752-3.752-3.752-2.738 0-4.564.608-4.564.608V31.64H0V.101L4.766 0ZM35.494 9.634s-4.564.203-7.099.811c-2.941.811-4.969 2.535-5.375 5.375v15.82h4.969V17.747c0-1.217 0-2.028 1.014-2.738 1.014-.811 2.941-1.014 4.158-1.014.811 0 2.332-.203 2.332-.203V9.634ZM62.064 16.632h-7.91c0-1.014.203-1.623.406-2.332.608-1.217 1.825-2.13 3.347-2.13 1.623 0 2.941.811 3.347 2.13.608.71.811 1.318.811 2.332m3.347 2.332v-1.623c0-4.766-2.738-8.113-7.302-8.113-4.361 0-7.302 3.144-7.302 8.721 0 6.49 3.347 8.721 7.707 8.721 2.941 0 4.766-1.014 6.49-2.535l-2.13-2.028c-1.217 1.217-2.13 1.825-4.158 1.825-2.738 0-4.361-1.825-4.361-4.766H65.41v-.203ZM105.266 26.874c-2.738 0-5.172-.406-7.302-2.332l2.332-2.13c1.42 1.42 3.347 1.825 4.969 1.825 2.13 0 3.752-.811 3.752-2.332 0-1.217-.608-1.825-2.332-2.028l-2.738-.203c-3.144-.203-5.172-1.825-5.172-4.766 0-3.347 2.941-5.172 6.49-5.172 2.535 0 4.766.608 6.389 2.028l-2.028 2.028c-1.217-1.014-2.535-1.217-4.361-1.217-2.13 0-3.144 1.014-3.144 2.13 0 1.014.608 1.825 2.332 2.028h2.941c3.144.203 5.172 1.825 5.172 4.766 0 3.448-3.144 5.375-7.302 5.375M126.461 16.834h-7.707c0-1.014.203-1.623.406-2.332.608-1.217 1.825-2.13 3.347-2.13s2.941.811 3.347 2.13c.406.71.608 1.318.608 2.332m3.549 2.332v-1.623c0-4.766-2.738-8.113-7.302-8.113-4.361 0-7.302 3.144-7.302 8.721 0 6.49 3.347 8.721 7.707 8.721 2.941 0 4.766-1.014 6.49-2.535l-2.13-2.028c-1.217 1.217-2.13 1.825-4.158 1.825-2.738 0-4.361-1.825-4.361-4.766h11.054v-.203ZM162.868 16.834h-7.707c0-1.014.203-1.623.406-2.332.608-1.217 1.825-2.13 3.347-2.13 1.623 0 2.941.811 3.347 2.13.507.71.608 1.318.608 2.332m3.651 2.332v-1.623c0-4.766-2.738-8.113-7.302-8.113-4.361 0-7.302 3.144-7.302 8.721 0 6.49 3.347 8.721 7.707 8.721 2.941 0 4.766-1.014 6.49-2.535l-2.13-2.028c-1.217 1.217-2.13 1.825-4.158 1.825-2.738 0-4.361-1.825-4.361-4.766h11.054v-.203ZM46.954 5.273h1.623V2.332h-2.332c-2.941 0-4.564 2.028-4.766 4.361v19.775h3.549V12.879h3.347V9.735h-3.347V7.403c0-1.318.608-2.13 1.927-2.13M137.515 2.13v7.707s2.332-.608 4.564-.406c3.549 0 5.375 2.028 5.578 4.361v12.677h-3.752V15.212c0-1.217 0-2.738-2.738-2.738-2.028 0-3.549.406-3.549.406v13.691h-3.752V2.332l3.651-.203ZM80.42 26.469V15.618c0-2.028-.203-3.347 1.623-4.969 1.014-1.014 3.549-1.42 5.375-1.42s4.361.406 5.375 1.42c1.521 1.623 1.521 3.144 1.521 4.969v10.851h-3.347V16.226c0-2.535-1.217-3.752-3.549-3.752-2.535 0-3.549 1.217-3.549 3.752V26.57l-3.448-.101ZM170.271 26.469V15.618c0-2.028-.203-3.347 1.623-4.969 1.014-1.014 3.549-1.42 5.375-1.42s4.361.406 5.375 1.42c1.623 1.623 1.623 3.144 1.623 4.969v10.851h-3.347V16.226c0-2.535-1.217-3.752-3.549-3.752-2.535 0-3.549 1.217-3.549 3.752V26.57l-3.549-.101ZM77.682 9.229c-.608 0-2.941 0-4.564.406-2.13.608-3.549 1.825-3.752 3.955v12.879h3.549V14.807c0-.811 0-1.42.608-2.028s2.028-.608 2.941-.811h1.42V9.23h-.203Z"/></g></symbol><symbol id="brandlogo--mobile" viewBox="0 0 181.7 41.7"><style type="text/css">.st0{fill:#fff}</style><path class="st0" d="M27.4 41.7C18.2 41.9 7 40.1 0 37v-2.7c7.4 3.1 17.8 4.9 26.8 4.7 9.8-.2 20.1-1.8 27.2-4.7V37c-7.9 2.9-16.9 4.5-26.6 4.7M4.7.3v10.4s3.3-.6 6.1-.6c4.7 0 7 2.5 7.2 5.9v15.6h-4.9V17.8c0-1.8.2-3.7-3.7-3.7-2.7 0-4.5.6-4.5.6v16.8H0V.4L4.7.3zM35 9.8s-4.5.2-7 .8c-2.9.8-4.9 2.5-5.3 5.3v15.6h4.9V17.8c0-1.2 0-2 1-2.7 1-.8 2.9-1 4.1-1 .8 0 2.3-.2 2.3-.2V9.8zM61.2 16.7h-7.8c0-1 .2-1.6.4-2.3.6-1.2 1.8-2.1 3.3-2.1 1.6 0 2.9.8 3.3 2.1.6.7.8 1.3.8 2.3m3.3 2.3v-1.6c0-4.7-2.7-8-7.2-8-4.3 0-7.2 3.1-7.2 8.6 0 6.4 3.3 8.6 7.6 8.6 2.9 0 4.7-1 6.4-2.5l-2.1-2c-1.2 1.2-2.1 1.8-4.1 1.8-2.7 0-4.3-1.8-4.3-4.7h10.9V19zM103.8 26.8c-2.7 0-5.1-.4-7.2-2.3l2.3-2.1c1.4 1.4 3.3 1.8 4.9 1.8 2.1 0 3.7-.8 3.7-2.3 0-1.2-.6-1.8-2.3-2l-2.7-.2c-3.1-.2-5.1-1.8-5.1-4.7 0-3.3 2.9-5.1 6.4-5.1 2.5 0 4.7.6 6.3 2l-2 2c-1.2-1-2.5-1.2-4.3-1.2-2.1 0-3.1 1-3.1 2.1 0 1 .6 1.8 2.3 2h2.9c3.1.2 5.1 1.8 5.1 4.7 0 3.4-3.1 5.3-7.2 5.3M124.7 16.9h-7.6c0-1 .2-1.6.4-2.3.6-1.2 1.8-2.1 3.3-2.1s2.9.8 3.3 2.1c.4.7.6 1.3.6 2.3m3.5 2.3v-1.6c0-4.7-2.7-8-7.2-8-4.3 0-7.2 3.1-7.2 8.6 0 6.4 3.3 8.6 7.6 8.6 2.9 0 4.7-1 6.4-2.5l-2.1-2c-1.2 1.2-2.1 1.8-4.1 1.8-2.7 0-4.3-1.8-4.3-4.7h10.9v-.2zM160.6 16.9H153c0-1 .2-1.6.4-2.3.6-1.2 1.8-2.1 3.3-2.1 1.6 0 2.9.8 3.3 2.1.5.7.6 1.3.6 2.3m3.6 2.3v-1.6c0-4.7-2.7-8-7.2-8-4.3 0-7.2 3.1-7.2 8.6 0 6.4 3.3 8.6 7.6 8.6 2.9 0 4.7-1 6.4-2.5l-2.1-2c-1.2 1.2-2.1 1.8-4.1 1.8-2.7 0-4.3-1.8-4.3-4.7h10.9v-.2zM46.3 5.5h1.6V2.6h-2.3c-2.9 0-4.5 2-4.7 4.3v19.5h3.5V13h3.3V9.9h-3.3V7.6c0-1.3.6-2.1 1.9-2.1M135.6 2.4V10s2.3-.6 4.5-.4c3.5 0 5.3 2 5.5 4.3v12.5h-3.7V15.3c0-1.2 0-2.7-2.7-2.7-2 0-3.5.4-3.5.4v13.5H132V2.6l3.6-.2zM79.3 26.4V15.7c0-2-.2-3.3 1.6-4.9 1-1 3.5-1.4 5.3-1.4s4.3.4 5.3 1.4c1.5 1.6 1.5 3.1 1.5 4.9v10.7h-3.3V16.3c0-2.5-1.2-3.7-3.5-3.7-2.5 0-3.5 1.2-3.5 3.7v10.2l-3.4-.1zM167.9 26.4V15.7c0-2-.2-3.3 1.6-4.9 1-1 3.5-1.4 5.3-1.4s4.3.4 5.3 1.4c1.6 1.6 1.6 3.1 1.6 4.9v10.7h-3.3V16.3c0-2.5-1.2-3.7-3.5-3.7-2.5 0-3.5 1.2-3.5 3.7v10.2l-3.5-.1zM76.6 9.4c-.6 0-2.9 0-4.5.4-2.1.6-3.5 1.8-3.7 3.9v12.7h3.5V14.9c0-.8 0-1.4.6-2s2-.6 2.9-.8h1.4V9.4h-.2z"/></symbol></svg>