<?xml version="1.0" encoding="utf-8"?>
<!-- Generator: Adobe Illustrator 19.2.0, SVG Export Plug-In . SVG Version: 6.00 Build 0)  -->
<svg version="1.1" id="hr2" xmlns="http://www.w3.org/2000/svg" xmlns:xlink="http://www.w3.org/1999/xlink" x="0px" y="0px"
	 viewBox="0 0 44 50" enable-background="new 0 0 44 50" xml:space="preserve">
<g>
	<path fill="#ec6602" d="M0,37.449v12.449h1.538v-2.755c0-0.51,0.205-0.918,0.718-0.918c0.41-0.204,0.923,0,1.128,0.408
		C3.897,47.347,5.641,50,5.641,50h1.846c0,0-2.256-3.367-2.462-3.673C4.513,45.408,3.897,45.204,3.385,45
		c0.41-0.408,3.487-3.673,3.487-3.673H5.026c0,0-2.974,3.163-3.487,3.469v-7.245H0V37.449z"/>
	<path fill="#ec6602" d="M13.949,41.122v5.408c0,1.327-0.718,2.041-1.846,2.041s-1.846-0.714-1.846-2.041v-5.408H8.513v5.51
		c0,1.122,0.41,1.837,0.923,2.449C9.949,49.592,10.769,50,11.692,50c0.923,0,1.641-0.408,2.256-0.918V50h1.538v-8.673h-1.538
		C13.949,41.327,13.949,41.122,13.949,41.122z"/>
	<path fill="#ec6602" d="M18.462,37.449v10c0,1.531,0.923,2.449,2.256,2.449h1.128v-1.327h-0.718c-0.718,0-0.923-0.204-0.923-1.122
		v-10C20.103,37.449,18.462,37.449,18.462,37.449z"/>
	<path fill="#ec6602" d="M23.59,38.673v2.551h-1.026v1.327h1.026v5c0,1.531,0.923,2.449,2.256,2.449h1.128v-1.327h-0.718
		c-0.718,0-0.923-0.408-0.923-1.122v-4.796h1.846v-1.327h-1.846v-2.551H23.59V38.673z"/>
	<path fill="#ec6602" d="M34.256,41.122v5.408c0,1.327-0.718,2.041-1.846,2.041c-1.128,0-1.846-0.714-1.846-2.041v-5.408h-1.538
		v5.51c0,1.122,0.41,1.837,0.923,2.449c0.41,0.51,1.128,0.918,2.256,0.918c0.923,0,1.641-0.408,2.256-0.918V50h1.436v-8.673h-1.641
		V41.122z"/>
	<path fill="#ec6602" d="M21.436,33.163C14.359,33.367,5.538,32.041,0,29.592v-2.245c5.949,2.449,13.949,3.878,21.026,3.673
		c7.795-0.204,15.795-1.531,21.436-3.469v2.041C36.308,31.837,29.231,33.163,21.436,33.163"/>
	<path fill="#ec6602" d="M3.692,0.714v7.959c0,0,2.564-0.51,4.821-0.51c3.692,0,5.538,2.041,5.744,4.592c0,0.714,0,1.122,0,1.633
		v10.51h-4.103V14.49c0-1.327,0-2.959-2.769-2.959c-2.051,0-3.487,0.408-3.487,0.408v13.163H0V0.918L3.692,0.714z"/>
	<path fill="#ec6602" d="M27.59,8.367c0,0-3.487,0-5.538,0.51c-2.462,0.51-3.897,2.041-4.103,4.082c0,0.408,0,0.714,0,1.633v10.51
		h3.897V14.49c0-0.918,0-1.531,0.718-2.041c0.718-0.51,2.256-0.714,3.179-0.714c0.513,0,1.846-0.204,1.846-0.204V8.367z"/>
	<path fill="#ec6602" d="M38.872,13.878c1.641-2.041,3.692-4.286,3.692-7.041C42.564,2.551,39.179,0,35.077,0
		C31.179,0,28,2.449,27.59,6.327h3.897c0.205-2.041,2.256-2.755,3.487-2.755c1.846,0,3.385,1.327,3.385,3.163
		c0,1.531-0.718,2.551-1.641,3.673l-8.923,10.714v4.286h14.564v-3.469H32.308L38.872,13.878z"/>
	<path fill="#ec6602" d="M40.41,42.041v-0.918h-1.538v8.673h1.538v-5.204c0-1.327,0.718-2.041,1.846-2.041
		c0.513,0,0.718,0.204,1.128,0.408l0.205,0.204L44,41.531h-0.205c-0.41-0.204-0.718-0.204-1.128-0.204
		C41.744,41.122,40.923,41.531,40.41,42.041"/>
</g>
</svg>
