<?xml version="1.0" encoding="UTF-8"?>
<svg id="hr2" xmlns="http://www.w3.org/2000/svg" viewBox="0 0 404 220">
  <defs>
    <style>
      .cls-1 {
        stroke-width: 0px;
        fill:#ec6602;
      }
    </style>
  </defs>
  <path class="cls-1" d="m138.99,220h-46.83v-87.88c0-11.19-.05-16.25-3.26-19.44-2.76-2.75-8.09-4.15-17.18-4.15-6.84,0-14.83.86-24.78,2.49v108.98H0V2.97L46.93,0v71.12c10.17-1.71,22.71-3.3,33.36-3.3,21.57,0,35.87,6.3,45.19,15.63,12.44,12.44,13.52,27.15,13.52,44.4v92.15Zm67.86-91.6c0-7.46.68-10.99,3.26-13.58,3.67-3.67,11.86-6.15,47.75-7.13v-39.81c-48.63.5-70.74,5.87-84.69,19.82-12.63,12.63-13.26,26.9-13.26,42.8v89.49h46.93v-91.6Zm196.8,91.59v-36.66h-40.59v-.03s-.02.01-.04.01h-30.06v-.54l47.12-49.29c13-13.27,21.39-28.44,21.39-47.4,0-32.5-22.75-53.62-60.12-53.62-25.73,0-44.15,7.58-54.98,14.89-.62.41-1.9,1.32-1.9,1.32v44.44h39.81v-18.68c0-1.08.27-1.9,1.35-2.44,2.98-1.35,7.85-2.44,13-2.44,11.65,0,18.15,6.5,18.15,17.87,0,8.67-3.25,15.44-10.29,23.29l-64.73,72.31h0s-1.35,1.54-1.35,1.54v2.13s0,.07,0,.12v33.17s14.7,0,14.7,0h108.53Z"/>
</svg>