<svg version="1.1" xmlns="http://www.w3.org/2000/svg" x="0" y="0" viewBox="0 0 39 22" xml:space="preserve"><path fill="#606060" d="M36 22H3c-1.6 0-3-1.4-3-3V3c0-1.6 1.4-3 3-3h33c1.7 0 3 1.4 3 3v16c0 1.7-1.3 3-3 3z"/><g fill="#FFF"><path d="M10.5 15V7.6L8.6 9.3V7.5l1.9-1.6h1.7V15h-1.7zM17.1 15.1c-.8 0-1.5-.3-2.1-.8-.5-.5-.8-1.2-.8-2.1 0-.3 0-.6.1-.9.1-.3.3-.8.6-1.5l1.9-4h1.8l-1.9 3.8c.1 0 .2-.1.3-.1h.3c.7 0 1.2.3 1.7.8s.7 1.2.7 2c0 .9-.3 1.6-.8 2.1s-1 .7-1.8.7zm0-4.2c-.4 0-.6.1-.9.4-.2.2-.3.6-.3 1s.1.8.3 1c.2.2.5.4.9.4s.6-.1.9-.4.3-.6.3-1-.1-.7-.3-1c-.3-.3-.6-.4-.9-.4zM21.8 11.5V9.6h1.9v1.9h-1.9zm0 3.5v-1.9h1.9V15h-1.9zM30.3 11l-2 4h-1.8l1.9-3.8c-.1 0-.2.1-.3.1h-.4c-.7 0-1.2-.3-1.7-.8s-.7-1.2-.7-2c0-.9.3-1.6.8-2.1s1.2-.8 2.1-.8 1.5.3 2.1.8c.5.5.8 1.2.8 2.1 0 .3 0 .6-.1 1-.2.4-.4.9-.7 1.5zm-2.1-3.8c-.4 0-.6.1-.9.4s-.3.6-.3 1 .1.7.3 1c.2.2.5.4.9.4s.6-.1.9-.4c.2-.2.3-.6.3-1s-.1-.8-.3-1c-.3-.2-.5-.4-.9-.4z"/></g></svg>