<?xml version="1.0" encoding="utf-8"?>
<!-- Generator: Adobe Illustrator 19.2.0, SVG Export Plug-In . SVG Version: 6.00 Build 0)  -->
<svg version="1.1" id="Ebene_1" xmlns="http://www.w3.org/2000/svg" xmlns:xlink="http://www.w3.org/1999/xlink" x="0px" y="0px"
	 viewBox="0 0 39 22" enable-background="new 0 0 39 22" xml:space="preserve">
<g>
	<path fill="#606060" d="M36,22H3c-1.6,0-3-1.4-3-3V3c0-1.6,1.4-3,3-3l33,0c1.7,0,3,1.4,3,3v16C39,20.7,37.7,22,36,22z"/>
</g>
<g>
	<path fill="#FFFFFF" d="M10.5,15V7.6L8.6,9.3l0-1.8l1.9-1.6l1.7,0V15H10.5z"/>
	<path fill="#FFFFFF" d="M17.1,15.1c-0.8,0-1.5-0.3-2.1-0.8c-0.5-0.5-0.8-1.2-0.8-2.1c0-0.3,0-0.6,0.1-0.9c0.1-0.3,0.3-0.8,0.6-1.5
		l1.9-4h1.8l-1.9,3.8c0.1,0,0.2-0.1,0.3-0.1c0.1,0,0.2,0,0.3,0c0.7,0,1.2,0.3,1.7,0.8c0.5,0.5,0.7,1.2,0.7,2c0,0.9-0.3,1.6-0.8,2.1
		S17.9,15.1,17.1,15.1z M17.1,10.9c-0.4,0-0.6,0.1-0.9,0.4c-0.2,0.2-0.3,0.6-0.3,1c0,0.4,0.1,0.8,0.3,1c0.2,0.2,0.5,0.4,0.9,0.4
		s0.6-0.1,0.9-0.4s0.3-0.6,0.3-1c0-0.4-0.1-0.7-0.3-1C17.7,11,17.4,10.9,17.1,10.9z"/>
	<path fill="#FFFFFF" d="M21.8,11.5V9.6h1.9v1.9H21.8z M21.8,15v-1.9h1.9V15H21.8z"/>
	<path fill="#FFFFFF" d="M30.3,11l-2,4h-1.8l1.9-3.8c-0.1,0-0.2,0.1-0.3,0.1s-0.2,0-0.4,0c-0.7,0-1.2-0.3-1.7-0.8
		c-0.5-0.5-0.7-1.2-0.7-2c0-0.9,0.3-1.6,0.8-2.1c0.5-0.5,1.2-0.8,2.1-0.8s1.5,0.3,2.1,0.8c0.5,0.5,0.8,1.2,0.8,2.1
		c0,0.3,0,0.6-0.1,1C30.8,9.9,30.6,10.4,30.3,11z M28.2,7.2c-0.4,0-0.6,0.1-0.9,0.4S27,8.2,27,8.6c0,0.4,0.1,0.7,0.3,1
		c0.2,0.2,0.5,0.4,0.9,0.4c0.4,0,0.6-0.1,0.9-0.4c0.2-0.2,0.3-0.6,0.3-1c0-0.4-0.1-0.8-0.3-1C28.8,7.4,28.6,7.2,28.2,7.2z"/>
</g>
</svg>
