<?xml version="1.0" encoding="utf-8"?>
<!-- Generator: Adobe Illustrator 19.2.0, SVG Export Plug-In . SVG Version: 6.00 Build 0)  -->
<svg version="1.1" id="Ebene_1" xmlns="http://www.w3.org/2000/svg" xmlns:xlink="http://www.w3.org/1999/xlink" x="0px" y="0px"
	 viewBox="0 0 22 22" enable-background="new 0 0 22 22" xml:space="preserve">
<g id="Ebene_1_1_">
	<g>
		<path fill="#606060" d="M19,22H3c-1.7,0-3-1.4-3-3V3c0-1.6,1.3-3,3-3h16c1.7,0,3,1.4,3,3v16C22,20.6,20.7,22,19,22z"/>
	</g>
</g>
<g id="_x34_:3">
	<g>
		<path fill="#FFFFFF" d="M7.9,13.7V15H6.3v-1.3H2.5v-1.6l3.2-6.3h1.8l-3.2,6.3h1.9v-1.7h1.6v1.7h0.8v1.6H7.9z"/>
		<path fill="#FFFFFF" d="M10.4,11.5V9.6h1.9v1.9H10.4z M10.4,15v-1.9h1.9V15H10.4z"/>
		<path fill="#FFFFFF" d="M16.7,15.1c-0.8,0-1.5-0.2-2.1-0.7s-0.9-1.1-0.9-2h1.7c0,0.4,0.1,0.7,0.4,0.9c0.2,0.2,0.5,0.3,0.9,0.3
			c0.4,0,0.7-0.1,0.9-0.3c0.2-0.2,0.3-0.5,0.3-1c0-0.4-0.1-0.7-0.3-0.9c-0.2-0.2-0.5-0.3-1-0.3h-0.2V9.6h0.2c0.4,0,0.7-0.1,0.9-0.3
			c0.2-0.2,0.3-0.5,0.3-0.8c0-0.4-0.1-0.7-0.3-0.9S17,7.2,16.7,7.2s-0.6,0.1-0.8,0.3c-0.2,0.2-0.3,0.5-0.3,0.8h-1.7
			c0-0.8,0.3-1.4,0.8-1.9s1.2-0.7,2-0.7c0.8,0,1.5,0.2,2,0.7s0.8,1.1,0.8,1.9c0,0.5-0.1,0.9-0.3,1.2c-0.2,0.3-0.5,0.5-0.8,0.7
			c0.4,0.2,0.7,0.5,0.9,0.8c0.2,0.3,0.3,0.8,0.3,1.3c0,0.9-0.3,1.6-0.8,2C18.2,14.9,17.5,15.1,16.7,15.1z"/>
	</g>
</g>
</svg>
