<svg version="1.1" xmlns="http://www.w3.org/2000/svg" x="0" y="0" viewBox="0 0 22 22" xml:space="preserve"><path fill="#606060" d="M19 22H3c-1.7 0-3-1.4-3-3V3c0-1.6 1.3-3 3-3h16c1.7 0 3 1.4 3 3v16c0 1.6-1.3 3-3 3z"/><g fill="#FFF"><path d="M7.9 13.7V15H6.3v-1.3H2.5v-1.6l3.2-6.3h1.8l-3.2 6.3h1.9v-1.7h1.6v1.7h.8v1.6h-.7zM10.4 11.5V9.6h1.9v1.9h-1.9zm0 3.5v-1.9h1.9V15h-1.9zM16.7 15.1c-.8 0-1.5-.2-2.1-.7s-.9-1.1-.9-2h1.7c0 .4.1.7.4.9.2.2.5.3.9.3s.7-.1.9-.3c.2-.2.3-.5.3-1 0-.4-.1-.7-.3-.9-.2-.2-.5-.3-1-.3h-.2V9.6h.2c.4 0 .7-.1.9-.3.2-.2.3-.5.3-.8 0-.4-.1-.7-.3-.9s-.5-.4-.8-.4-.6.1-.8.3c-.2.2-.3.5-.3.8h-1.7c0-.8.3-1.4.8-1.9s1.2-.7 2-.7 1.5.2 2 .7.8 1.1.8 1.9c0 .5-.1.9-.3 1.2-.2.3-.5.5-.8.7.4.2.7.5.9.8.2.3.3.8.3 1.3 0 .9-.3 1.6-.8 2-.6.6-1.3.8-2.1.8z"/></g></svg>