<svg version="1.1" xmlns="http://www.w3.org/2000/svg" x="0" y="0" viewBox="0 0 22 22" xml:space="preserve"><path fill="#606060" d="M19.1 22h-16c-1.6 0-3-1.4-3-3V3c0-1.6 1.4-3 3-3h16c1.6 0 3 1.4 3 3v16c0 1.6-1.3 3-3 3z"/><g fill="#FFF"><path d="M9 15l-.5-1.6H5.2L4.6 15H2.7l3.4-9.3h1.4l3.4 9.3H9zM6.9 8.5l-1.2 3.4H8L6.9 8.5zM17.8 14.2c-.3.3-.6.5-1.1.7-.4.1-.8.1-1.3.1H12V5.8h3.3c.5 0 .9.1 1.4.2s.8.4 1.2.7c.4.4.6.8.7 1.2.1.5.2 1.1.2 1.8V11c0 .8-.1 1.4-.2 1.9-.1.4-.4.9-.8 1.3zM16.6 8c-.2-.2-.3-.3-.6-.4s-.5-.1-.8-.1h-1.4v6h1.4c.6 0 1-.1 1.2-.4s.4-.6.4-.9c0-.3.1-.9.1-1.7 0-.7 0-1.3-.1-1.6s-.1-.7-.2-.9z"/></g></svg>