<?xml version="1.0" encoding="utf-8"?>
<!-- Generator: Adobe Illustrator 19.2.0, SVG Export Plug-In . SVG Version: 6.00 Build 0)  -->
<svg version="1.1" id="Ebene_1" xmlns="http://www.w3.org/2000/svg" xmlns:xlink="http://www.w3.org/1999/xlink" x="0px" y="0px"
	 viewBox="0 0 22 22" enable-background="new 0 0 22 22" xml:space="preserve">
<g id="Ebene_1_1_">
	<g>
		<path fill="#606060" d="M19.1,22h-16c-1.6,0-3-1.4-3-3V3c0-1.6,1.4-3,3-3h16c1.6,0,3,1.4,3,3v16C22.1,20.6,20.8,22,19.1,22z"/>
	</g>
</g>
<g id="ut">
	<g>
		<path fill="#FFFFFF" d="M7.4,15.1c-1,0-1.8-0.3-2.4-0.9s-1-1.4-1-2.4v-6h1.8v6c0,0.5,0.1,0.9,0.4,1.2s0.7,0.5,1.2,0.5
			s0.9-0.2,1.2-0.4C8.9,12.8,9,12.3,9,11.8v-6h1.8v6.1c0,1-0.3,1.8-1,2.4S8.4,15.1,7.4,15.1z"/>
		<path fill="#FFFFFF" d="M16.4,7.4V15h-1.8V7.4h-2.4V5.8h6.6v1.6H16.4z"/>
	</g>
</g>
</svg>
