<?xml version="1.0" encoding="utf-8"?>
<!-- Generator: Adobe Illustrator 19.2.0, SVG Export Plug-In . SVG Version: 6.00 Build 0)  -->
<svg version="1.1" id="Ebene_1" xmlns="http://www.w3.org/2000/svg" xmlns:xlink="http://www.w3.org/1999/xlink" x="0px" y="0px"
	 viewBox="0 0 22 22" enable-background="new 0 0 22 22" xml:space="preserve">
<g id="Ebene_1_1_">
	<g>
		<path fill="#606060" d="M19.1,22h-16c-1.6,0-3-1.4-3-3V3c0-1.6,1.4-3,3-3h16c1.6,0,3,1.4,3,3v16C22.1,20.6,20.8,22,19.1,22z"/>
	</g>
</g>
<g id="dolby_digital">
	<rect x="10.1" fill="#FFFFFF" width="2" height="22"/>
	<path fill="#FFFFFF" d="M19,6c-3,0-5,2.2-5,5s2,5,5,5V6z"/>
	<path fill="#FFFFFF" d="M3,16c3.6,0,5-2.2,5-5S6.6,6,3,6V16z"/>
</g>
</svg>
