<svg version="1.1" xmlns="http://www.w3.org/2000/svg" x="0" y="0" viewBox="0 0 22 22" xml:space="preserve"><path fill="#606060" d="M19.1 22h-16c-1.6 0-3-1.4-3-3V3c0-1.6 1.4-3 3-3h16c1.6 0 3 1.4 3 3v16c0 1.6-1.3 3-3 3z"/><g fill="#FFF"><path d="M7.7 15V7.6L5.8 9.3V7.5l1.9-1.6h1.7V15H7.7zM14.3 15.1c-.9 0-1.6-.2-2.1-.7-.6-.5-.8-1.2-.8-2 0-.5.1-.9.3-1.3.2-.3.5-.6.8-.8-.3-.2-.5-.5-.7-.8s-.3-.7-.3-1.1c0-.8.3-1.4.8-1.9s1.2-.7 2-.7 1.5.2 2 .7.8 1.1.8 1.9c0 .5-.1.8-.3 1.1-.2.3-.4.6-.7.8.3.2.6.5.8.8.2.3.3.8.3 1.3 0 .9-.3 1.5-.8 2s-1.3.7-2.1.7zm0-4.1c-.4 0-.7.1-.9.4-.3.3-.4.6-.4.9 0 .4.1.7.4.9.2.2.5.4.9.4s.7-.1.9-.4c.2-.2.4-.5.4-.9s-.1-.7-.4-.9c-.3-.2-.6-.4-.9-.4zm0-3.8c-.3 0-.6.1-.8.3-.2.2-.3.5-.3.8s.1.6.3.8.5.3.8.3.6-.1.8-.3.3-.5.3-.8-.1-.6-.3-.8c-.2-.2-.5-.3-.8-.3z"/></g></svg>