<?xml version="1.0" encoding="utf-8"?>
<!-- Generator: Adobe Illustrator 19.2.0, SVG Export Plug-In . SVG Version: 6.00 Build 0)  -->
<svg version="1.1" id="Ebene_1" xmlns="http://www.w3.org/2000/svg" xmlns:xlink="http://www.w3.org/1999/xlink" x="0px" y="0px"
	 viewBox="0 0 22 22" enable-background="new 0 0 22 22" xml:space="preserve">
<g id="Ebene_1_1_">
	<g>
		<path fill="#606060" d="M19.1,22h-16c-1.6,0-3-1.4-3-3V3c0-1.6,1.4-3,3-3h16c1.6,0,3,1.4,3,3v16C22.1,20.6,20.8,22,19.1,22z"/>
	</g>
</g>
<g id="_x31_8">
	<g>
		<path fill="#FFFFFF" d="M7.7,15V7.6L5.8,9.3V7.5l1.9-1.6h1.7V15H7.7z"/>
		<path fill="#FFFFFF" d="M14.3,15.1c-0.9,0-1.6-0.2-2.1-0.7c-0.6-0.5-0.8-1.2-0.8-2c0-0.5,0.1-0.9,0.3-1.3c0.2-0.3,0.5-0.6,0.8-0.8
			c-0.3-0.2-0.5-0.5-0.7-0.8s-0.3-0.7-0.3-1.1c0-0.8,0.3-1.4,0.8-1.9s1.2-0.7,2-0.7s1.5,0.2,2,0.7s0.8,1.1,0.8,1.9
			c0,0.5-0.1,0.8-0.3,1.1c-0.2,0.3-0.4,0.6-0.7,0.8c0.3,0.2,0.6,0.5,0.8,0.8c0.2,0.3,0.3,0.8,0.3,1.3c0,0.9-0.3,1.5-0.8,2
			S15.1,15.1,14.3,15.1z M14.3,11c-0.4,0-0.7,0.1-0.9,0.4C13.1,11.7,13,12,13,12.3c0,0.4,0.1,0.7,0.4,0.9c0.2,0.2,0.5,0.4,0.9,0.4
			s0.7-0.1,0.9-0.4c0.2-0.2,0.4-0.5,0.4-0.9s-0.1-0.7-0.4-0.9C14.9,11.2,14.6,11,14.3,11z M14.3,7.2c-0.3,0-0.6,0.1-0.8,0.3
			c-0.2,0.2-0.3,0.5-0.3,0.8s0.1,0.6,0.3,0.8s0.5,0.3,0.8,0.3s0.6-0.1,0.8-0.3s0.3-0.5,0.3-0.8s-0.1-0.6-0.3-0.8
			C14.9,7.3,14.6,7.2,14.3,7.2z"/>
	</g>
</g>
</svg>
