<?xml version="1.0" encoding="utf-8"?>
<!-- Generator: Adobe Illustrator 19.2.0, SVG Export Plug-In . SVG Version: 6.00 Build 0)  -->
<svg version="1.1" id="Ebene_1" xmlns="http://www.w3.org/2000/svg" xmlns:xlink="http://www.w3.org/1999/xlink" x="0px" y="0px"
	 viewBox="0 0 22 22" enable-background="new 0 0 22 22" xml:space="preserve">
<g id="Ebene_1_1_">
	<g>
		<path fill="#606060" d="M19.1,22h-16c-1.6,0-3-1.4-3-3V3c0-1.6,1.4-3,3-3h16c1.6,0,3,1.4,3,3v16C22.1,20.6,20.8,22,19.1,22z"/>
	</g>
</g>
<g id="_x31_2">
	<g>
		<path fill="#FFFFFF" d="M7.7,15V7.6L5.8,9.3V7.5l1.9-1.6h1.7V15H7.7z"/>
		<path fill="#FFFFFF" d="M11.5,15v-1.5l3.5-4c0.2-0.2,0.3-0.4,0.4-0.6c0.1-0.2,0.1-0.4,0.1-0.6c0-0.3-0.1-0.6-0.3-0.8
			c-0.2-0.2-0.5-0.3-0.8-0.3s-0.6,0.1-0.8,0.3c-0.2,0.2-0.3,0.5-0.3,0.9h-1.7c0-0.8,0.3-1.5,0.8-2s1.2-0.7,2-0.7s1.5,0.2,2,0.7
			s0.8,1.1,0.8,2c0,0.4-0.1,0.8-0.2,1.1s-0.4,0.6-0.8,1.1l-2.6,3h3.6V15H11.5z"/>
	</g>
</g>
</svg>
