<?xml version="1.0" encoding="utf-8"?>
<!-- Generator: Adobe Illustrator 19.2.0, SVG Export Plug-In . SVG Version: 6.00 Build 0)  -->
<svg version="1.1" id="Ebene_1" xmlns="http://www.w3.org/2000/svg" xmlns:xlink="http://www.w3.org/1999/xlink" x="0px" y="0px"
	 viewBox="0 0 22 22" enable-background="new 0 0 22 22" xml:space="preserve">
<g id="Ebene_1_1_">
	<g>
		<path fill="#606060" d="M19.1,22h-16c-1.6,0-3-1.4-3-3V3c0-1.6,1.4-3,3-3h16c1.6,0,3,1.4,3,3v16C22.1,20.6,20.8,22,19.1,22z"/>
	</g>
</g>
<g id="_x31_6">
	<g>
		<path fill="#FFFFFF" d="M7.7,15V7.6L5.8,9.3V7.5l1.9-1.6h1.7V15H7.7z"/>
		<path fill="#FFFFFF" d="M14.2,15.1c-0.8,0-1.5-0.3-2.1-0.8c-0.5-0.5-0.8-1.2-0.8-2.1c0-0.3,0-0.6,0.1-0.9c0.1-0.3,0.3-0.8,0.6-1.5
			l1.9-4h1.8L14,9.6c0.1,0,0.2-0.1,0.3-0.1s0.2,0,0.3,0c0.7,0,1.2,0.3,1.7,0.8c0.5,0.5,0.7,1.2,0.7,2c0,0.9-0.3,1.6-0.8,2.1
			S15.1,15.1,14.2,15.1z M14.2,10.9c-0.4,0-0.6,0.1-0.9,0.4s-0.3,0.6-0.3,1s0.1,0.8,0.3,1s0.5,0.4,0.9,0.4s0.6-0.1,0.9-0.4
			s0.3-0.6,0.3-1s-0.1-0.7-0.3-1C14.9,11,14.6,10.9,14.2,10.9z"/>
	</g>
</g>
</svg>
