<svg version="1.1" xmlns="http://www.w3.org/2000/svg" x="0" y="0" viewBox="0 0 22 22" xml:space="preserve"><path fill="#606060" d="M19.1 22h-16c-1.6 0-3-1.4-3-3V3c0-1.6 1.4-3 3-3h16c1.6 0 3 1.4 3 3v16c0 1.6-1.3 3-3 3z"/><g fill="#FFF"><path d="M7.7 15V7.6L5.8 9.3V7.5l1.9-1.6h1.7V15H7.7zM11.5 15v-1.5l3.5-4c.2-.2.3-.4.4-.6.1-.2.1-.4.1-.6 0-.3-.1-.6-.3-.8-.2-.2-.5-.3-.8-.3s-.6.1-.8.3c-.2.2-.3.5-.3.9h-1.7c0-.8.3-1.5.8-2s1.2-.7 2-.7 1.5.2 2 .7.8 1.1.8 2c0 .4-.1.8-.2 1.1s-.4.6-.8 1.1l-2.6 3h3.6V15h-5.7z"/></g></svg>