<?xml version="1.0" encoding="utf-8"?>
<!-- Generator: Adobe Illustrator 19.2.0, SVG Export Plug-In . SVG Version: 6.00 Build 0)  -->
<svg version="1.1" id="Ebene_1" xmlns="http://www.w3.org/2000/svg" xmlns:xlink="http://www.w3.org/1999/xlink" x="0px" y="0px"
	 viewBox="0 0 22 22" enable-background="new 0 0 22 22" xml:space="preserve">
<g id="Ebene_1_1_">
	<g>
		<path fill="#606060" d="M19.1,22h-16c-1.6,0-3-1.4-3-3V3c0-1.6,1.4-3,3-3h16c1.6,0,3,1.4,3,3v16C22.1,20.6,20.8,22,19.1,22z"/>
	</g>
</g>
<g id="_x36_">
	<g>
		<path fill="#FFFFFF" d="M11.1,15.1c-0.8,0-1.5-0.3-2.1-0.8c-0.5-0.5-0.8-1.2-0.8-2.1c0-0.3,0-0.6,0.1-0.9C8.4,11,8.6,10.5,9,9.8
			l2-4h1.8l-1.9,3.8c0.1,0,0.2-0.1,0.3-0.1s0.2,0,0.4,0c0.7,0,1.2,0.3,1.7,0.8s0.7,1.2,0.7,2c0,0.9-0.3,1.6-0.8,2.1
			C12.6,14.9,11.9,15.1,11.1,15.1z M11.1,10.9c-0.4,0-0.6,0.1-0.9,0.4s-0.3,0.6-0.3,1s0.1,0.8,0.3,1s0.5,0.4,0.9,0.4
			s0.6-0.1,0.9-0.4c0.2-0.2,0.3-0.6,0.3-1s-0.1-0.7-0.3-1C11.7,11,11.5,10.9,11.1,10.9z"/>
	</g>
</g>
</svg>
