<svg version="1.1" xmlns="http://www.w3.org/2000/svg" x="0" y="0" viewBox="0 0 22 22" xml:space="preserve"><path fill="#606060" d="M19.1 22h-16c-1.6 0-3-1.4-3-3V3c0-1.6 1.4-3 3-3h16c1.6 0 3 1.4 3 3v16c0 1.6-1.3 3-3 3z"/><path fill="#FFF" d="M11.1 15.1c-.8 0-1.5-.3-2.1-.8-.5-.5-.8-1.2-.8-2.1 0-.3 0-.6.1-.9.1-.3.3-.8.7-1.5l2-4h1.8l-1.9 3.8c.1 0 .2-.1.3-.1h.4c.7 0 1.2.3 1.7.8s.7 1.2.7 2c0 .9-.3 1.6-.8 2.1-.6.5-1.3.7-2.1.7zm0-4.2c-.4 0-.6.1-.9.4s-.3.6-.3 1 .1.8.3 1 .5.4.9.4.6-.1.9-.4c.2-.2.3-.6.3-1s-.1-.7-.3-1c-.3-.3-.5-.4-.9-.4z"/></svg>