<svg version="1.1" xmlns="http://www.w3.org/2000/svg" x="0" y="0" viewBox="0 0 22 22" xml:space="preserve"><path fill="#606060" d="M19.1 22h-16c-1.6 0-3-1.4-3-3V3c0-1.6 1.4-3 3-3h16c1.6 0 3 1.4 3 3v16c0 1.6-1.3 3-3 3z"/><g fill="#FFF"><path d="M8.4 15v-3.9H5.3V15H3.4V5.8h1.8v3.8h3.1V5.8h1.8V15H8.4zM18.1 14.2c-.3.3-.6.5-1.1.7-.4.1-.8.1-1.3.1h-3.3V5.8h3.3c.5 0 .9.1 1.4.2s.8.4 1.2.7c.4.4.6.8.7 1.2.1.5.2 1.1.2 1.8V11c0 .8-.1 1.4-.2 1.9-.2.4-.5.9-.9 1.3zM16.9 8c-.2-.2-.3-.3-.6-.4s-.5-.1-.8-.1h-1.4v6h1.4c.6 0 1-.1 1.2-.4s.4-.6.4-.9c0-.3.1-.9.1-1.7 0-.7 0-1.3-.1-1.6 0-.4-.1-.7-.2-.9z"/></g></svg>