<?xml version="1.0" encoding="utf-8"?>
<!-- Generator: Adobe Illustrator 19.2.0, SVG Export Plug-In . SVG Version: 6.00 Build 0)  -->
<svg version="1.1" id="Ebene_1" xmlns="http://www.w3.org/2000/svg" xmlns:xlink="http://www.w3.org/1999/xlink" x="0px" y="0px"
	 viewBox="0 0 22 22" enable-background="new 0 0 22 22" xml:space="preserve">
<g id="Ebene_1_1_">
	<g>
		<path fill="#606060" d="M19.1,22h-16c-1.6,0-3-1.4-3-3V3c0-1.6,1.4-3,3-3h16c1.6,0,3,1.4,3,3v16C22.1,20.6,20.8,22,19.1,22z"/>
	</g>
</g>
<g id="hd">
	<g>
		<path fill="#FFFFFF" d="M8.4,15v-3.9H5.3V15H3.4V5.8h1.8v3.8h3.1V5.8h1.8V15H8.4z"/>
		<path fill="#FFFFFF" d="M18.1,14.2c-0.3,0.3-0.6,0.5-1.1,0.7C16.6,15,16.2,15,15.7,15h-3.3V5.8h3.3c0.5,0,0.9,0.1,1.4,0.2
			s0.8,0.4,1.2,0.7c0.4,0.4,0.6,0.8,0.7,1.2c0.1,0.5,0.2,1.1,0.2,1.8v0.6V11c0,0.8-0.1,1.4-0.2,1.9C18.8,13.3,18.5,13.8,18.1,14.2z
			 M16.9,8c-0.2-0.2-0.3-0.3-0.6-0.4s-0.5-0.1-0.8-0.1h-1.4v6h1.4c0.6,0,1-0.1,1.2-0.4s0.4-0.6,0.4-0.9c0-0.3,0.1-0.9,0.1-1.7
			c0-0.7,0-1.3-0.1-1.6C17.1,8.5,17,8.2,16.9,8z"/>
	</g>
</g>
</svg>
