<?xml version="1.0" encoding="utf-8"?>
<!-- Generator: Adobe Illustrator 19.2.0, SVG Export Plug-In . SVG Version: 6.00 Build 0)  -->
<svg version="1.1" xmlns="http://www.w3.org/2000/svg" xmlns:xlink="http://www.w3.org/1999/xlink" x="0px" y="0px"
	 viewBox="0 0 22 22" enable-background="new 0 0 22 22" xml:space="preserve">
<g id="Ebene_1">
	<g>
		<path fill="#606060" d="M19,22H3c-1.7,0-3-1.4-3-3V3c0-1.6,1.3-3,3-3l16,0c1.7,0,3,1.4,3,3v16C22,20.6,20.7,22,19,22z"/>
	</g>
</g>
<g id="sw">
	<g>
		<path fill="#FFFFFF" d="M5.9,15.1c-0.6,0-1.2-0.1-1.6-0.2c-0.4-0.1-0.9-0.4-1.3-0.8L4.1,13c0.2,0.2,0.5,0.4,0.8,0.5
			c0.3,0.1,0.6,0.1,1,0.1c0.3,0,0.6-0.1,0.8-0.2s0.4-0.3,0.4-0.5c0-0.2-0.1-0.3-0.2-0.4s-0.3-0.2-0.6-0.2l-1.1-0.1
			c-0.6-0.1-1.1-0.2-1.5-0.5c-0.3-0.3-0.5-0.8-0.5-1.4c0-0.7,0.3-1.2,0.8-1.6S5.3,8.2,6,8.2c0.6,0,1.1,0.1,1.5,0.2
			C7.9,8.5,8.3,8.7,8.6,9l-1,1.1C7.4,9.9,7.1,9.8,6.9,9.7C6.6,9.6,6.3,9.6,6,9.6c-0.3,0-0.6,0.1-0.7,0.2S5,10.1,5,10.2
			c0,0.2,0,0.3,0.1,0.4c0.1,0.1,0.3,0.2,0.6,0.2l1.1,0.1c0.7,0.1,1.2,0.3,1.5,0.6c0.3,0.3,0.5,0.8,0.5,1.4c0,0.7-0.3,1.3-0.8,1.6
			C7.5,14.9,6.8,15.1,5.9,15.1z"/>
		<path fill="#FFFFFF" d="M17,15h-1.4l-1.4-4.3L12.8,15h-1.4L9.3,8.3h1.8l1.1,4.2l1.4-4.2h1.2l1.4,4.2l1.1-4.2h1.8L17,15z"/>
	</g>
</g>
</svg>
