<svg version="1.1" xmlns="http://www.w3.org/2000/svg" x="0" y="0" viewBox="0 0 22 22" xml:space="preserve"><path fill="#606060" d="M19 22H3c-1.7 0-3-1.4-3-3V3c0-1.6 1.3-3 3-3h16c1.7 0 3 1.4 3 3v16c0 1.6-1.3 3-3 3z"/><g fill="#FFF"><path d="M5.9 15.1c-.6 0-1.2-.1-1.6-.2-.4-.1-.9-.4-1.3-.8L4.1 13c.2.2.5.4.8.5.3.1.6.1 1 .1.3 0 .6-.1.8-.2s.4-.3.4-.5-.1-.3-.2-.4-.3-.2-.6-.2l-1.1-.1c-.6-.1-1.1-.2-1.5-.5-.3-.3-.5-.8-.5-1.4 0-.7.3-1.2.8-1.6s1.3-.5 2-.5c.6 0 1.1.1 1.5.2.4.1.8.3 1.1.6l-1 1.1c-.2-.2-.5-.3-.7-.4-.3-.1-.6-.1-.9-.1-.3 0-.6.1-.7.2s-.3.3-.3.4c0 .2 0 .3.1.4.1.1.3.2.6.2l1.1.1c.7.1 1.2.3 1.5.6.3.3.5.8.5 1.4 0 .7-.3 1.3-.8 1.6-.5.4-1.2.6-2.1.6zM17 15h-1.4l-1.4-4.3-1.4 4.3h-1.4L9.3 8.3h1.8l1.1 4.2 1.4-4.2h1.2l1.4 4.2 1.1-4.2h1.8L17 15z"/></g></svg>