<svg xmlns="http://www.w3.org/2000/svg" xmlns:xlink="http://www.w3.org/1999/xlink"><symbol id="brandlogo--desk" viewBox="0 0 162 42.328"><path d="M27.976 42.317c-9.341.162-20.661-1.542-27.978-4.699v-2.845c7.689 3.262 18.148 4.99 27.489 4.83 10.077-.175 20.57-1.87 27.833-4.722v2.76c-8.126 2.889-17.328 4.505-27.344 4.676M4.861-.141 4.86 10.392s3.309-.689 6.216-.66c4.835.048 7.257 2.647 7.428 6.04.043.863.035 1.338.035 2.265v13.714H13.44V17.745c0-1.714.109-3.843-3.743-3.825-2.744.013-4.68.54-4.68.54v17.291H.042V.176l4.819-.317zM35.839 9.767c-.062-.012-4.582.043-7.235.652-3.093.707-5.077 2.576-5.354 5.431-.053.55-.079.899-.079 2.153v13.748h5.094l-.001-14.058c0-1.233.096-2.016.902-2.74.913-.819 2.997-.937 4.188-1.035.818-.067 2.483-.083 2.483-.083V9.767zM65.355 9.81h-2.67l-3.677 12.968L54.74 9.81h-2.197l-4.235 12.968-3.71-12.968h-2.79l5.263 16.595h2.364l4.208-12.559 4.24 12.559h2.364L65.476 9.81h-.121zM69.654 16.85c.065-1.261.14-1.759.489-2.615.629-1.489 2.068-2.415 3.756-2.415 1.688 0 3.127.926 3.756 2.415.348.854.423 1.352.487 2.614h-8.488zm11.073.789c0-4.953-2.617-8.03-6.829-8.03-4.276 0-6.829 3.177-6.829 8.498 0 5.48 2.579 8.497 7.263 8.497 2.933 0 4.446-.94 6.069-2.562l.067-.067-1.768-1.551-.058.058c-1.362 1.36-2.472 1.843-4.243 1.843-3.037 0-4.716-1.955-4.745-5.497h11.074v-1.189zM102.643 24.292c-3.482 0-4.196-2.473-4.196-6.185 0-3.059.499-6.186 4.196-6.186 3.54 0 4.017 3.127 4.017 6.186-.001 3.059-.478 6.185-4.017 6.185m4.567-13.222c-.915-.915-2.435-1.461-4.067-1.461-1.52 0-3.117.255-4.55 1.959V2.467h-2.58v23.937h2.58v-1.823c1.457 1.764 3.112 2.023 4.55 2.023 1.631 0 3.151-.546 4.067-1.461 1.818-1.817 2.028-4.886 2.028-7.036s-.209-5.219-2.028-7.037M126.37 9.81h-2.49v10.2c0 2.722-1.464 4.283-4.017 4.283-2.525 0-3.916-1.521-3.916-4.283V9.81h-2.579v10.566c0 2.033.555 3.56 1.695 4.669 1.021 1.02 2.508 1.56 4.3 1.56 1.793 0 3.393-.692 4.55-1.924v1.724h2.545V9.81h-.088zM134.2 11.499V9.81h-2.58v16.595h2.58v-10.2c0-2.722 1.452-4.283 3.982-4.283 2.51 0 3.95 1.561 3.95 4.283v10.2h2.58V15.804c0-1.989-.566-3.504-1.729-4.634-1.02-1.02-2.496-1.561-4.266-1.561-1.816 0-3.366.663-4.517 1.89M155.436 24.026c-3.539 0-4.017-3.06-4.017-6.053 0-2.992.478-6.051 4.017-6.051 3.569 0 4.061 2.907 4.061 6.049 0 3.634-.69 6.055-4.061 6.055m4.016-14.216v1.787c-1.426-1.729-3.01-1.988-4.517-1.988-1.632 0-3.152.546-4.067 1.461-1.798 1.797-2.028 4.633-2.028 6.903s.23 5.106 2.028 6.904c.935.936 2.443 1.494 4.034 1.494 1.419 0 3.056-.255 4.517-1.992v2.338c0 3.147-1.61 4.951-4.417 4.951-1.925 0-2.75-.609-3.879-1.613l-.062-.055-1.694 1.659.07.063c1.841 1.664 3.262 2.225 5.631 2.225 4.21 0 6.93-2.799 6.93-7.13V9.81h-2.546zM87.568 11.671V9.81h-2.579v16.595h2.579V16.238c0-2.542 1.583-4.317 3.85-4.317.71 0 1.211.1 1.674.333l.096.048.696-2.471-.086-.023a6.649 6.649 0 0 0-1.711-.2c-1.882.001-3.573.795-4.519 2.063"/><path stroke="#E5007E" stroke-width=".515" stroke-linecap="round" stroke-linejoin="round" d="M.14 0h0"/></symbol><symbol id="brandlogo--mobile" viewBox="0 0 162 42.328"><path d="M27.976 42.317c-9.341.162-20.661-1.542-27.978-4.699v-2.845c7.689 3.262 18.148 4.99 27.489 4.83 10.077-.175 20.57-1.87 27.833-4.722v2.76c-8.126 2.889-17.328 4.505-27.344 4.676M4.861-.141 4.86 10.392s3.309-.689 6.216-.66c4.835.048 7.257 2.647 7.428 6.04.043.863.035 1.338.035 2.265v13.714H13.44V17.745c0-1.714.109-3.843-3.743-3.825-2.744.013-4.68.54-4.68.54v17.291H.042V.176l4.819-.317zM35.839 9.767c-.062-.012-4.582.043-7.235.652-3.093.707-5.077 2.576-5.354 5.431-.053.55-.079.899-.079 2.153v13.748h5.094l-.001-14.058c0-1.233.096-2.016.902-2.74.913-.819 2.997-.937 4.188-1.035.818-.067 2.483-.083 2.483-.083V9.767zM65.355 9.81h-2.67l-3.677 12.968L54.74 9.81h-2.197l-4.235 12.968-3.71-12.968h-2.79l5.263 16.595h2.364l4.208-12.559 4.24 12.559h2.364L65.476 9.81h-.121zM69.654 16.85c.065-1.261.14-1.759.489-2.615.629-1.489 2.068-2.415 3.756-2.415 1.688 0 3.127.926 3.756 2.415.348.854.423 1.352.487 2.614h-8.488zm11.073.789c0-4.953-2.617-8.03-6.829-8.03-4.276 0-6.829 3.177-6.829 8.498 0 5.48 2.579 8.497 7.263 8.497 2.933 0 4.446-.94 6.069-2.562l.067-.067-1.768-1.551-.058.058c-1.362 1.36-2.472 1.843-4.243 1.843-3.037 0-4.716-1.955-4.745-5.497h11.074v-1.189zM102.643 24.292c-3.482 0-4.196-2.473-4.196-6.185 0-3.059.499-6.186 4.196-6.186 3.54 0 4.017 3.127 4.017 6.186-.001 3.059-.478 6.185-4.017 6.185m4.567-13.222c-.915-.915-2.435-1.461-4.067-1.461-1.52 0-3.117.255-4.55 1.959V2.467h-2.58v23.937h2.58v-1.823c1.457 1.764 3.112 2.023 4.55 2.023 1.631 0 3.151-.546 4.067-1.461 1.818-1.817 2.028-4.886 2.028-7.036s-.209-5.219-2.028-7.037M126.37 9.81h-2.49v10.2c0 2.722-1.464 4.283-4.017 4.283-2.525 0-3.916-1.521-3.916-4.283V9.81h-2.579v10.566c0 2.033.555 3.56 1.695 4.669 1.021 1.02 2.508 1.56 4.3 1.56 1.793 0 3.393-.692 4.55-1.924v1.724h2.545V9.81h-.088zM134.2 11.499V9.81h-2.58v16.595h2.58v-10.2c0-2.722 1.452-4.283 3.982-4.283 2.51 0 3.95 1.561 3.95 4.283v10.2h2.58V15.804c0-1.989-.566-3.504-1.729-4.634-1.02-1.02-2.496-1.561-4.266-1.561-1.816 0-3.366.663-4.517 1.89M155.436 24.026c-3.539 0-4.017-3.06-4.017-6.053 0-2.992.478-6.051 4.017-6.051 3.569 0 4.061 2.907 4.061 6.049 0 3.634-.69 6.055-4.061 6.055m4.016-14.216v1.787c-1.426-1.729-3.01-1.988-4.517-1.988-1.632 0-3.152.546-4.067 1.461-1.798 1.797-2.028 4.633-2.028 6.903s.23 5.106 2.028 6.904c.935.936 2.443 1.494 4.034 1.494 1.419 0 3.056-.255 4.517-1.992v2.338c0 3.147-1.61 4.951-4.417 4.951-1.925 0-2.75-.609-3.879-1.613l-.062-.055-1.694 1.659.07.063c1.841 1.664 3.262 2.225 5.631 2.225 4.21 0 6.93-2.799 6.93-7.13V9.81h-2.546zM87.568 11.671V9.81h-2.579v16.595h2.579V16.238c0-2.542 1.583-4.317 3.85-4.317.71 0 1.211.1 1.674.333l.096.048.696-2.471-.086-.023a6.649 6.649 0 0 0-1.711-.2c-1.882.001-3.573.795-4.519 2.063"/><path stroke="#E5007E" stroke-width=".515" stroke-linecap="round" stroke-linejoin="round" d="M.14 0h0"/></symbol></svg>