<svg version="1.1" id="hr" xmlns="http://www.w3.org/2000/svg" x="0" y="0" viewBox="0 0 55 42.1" preserveAspectRatio="xMinYMid meet" xml:space="preserve"><g style="fill:#fff"><path d="M27.9 42.1c-9.3.2-20.6-1.5-27.9-4.7v-2.8c7.7 3.2 18 4.9 27.3 4.7 10.1-.2 20.4-1.8 27.7-4.7v2.8c-8.1 3-17.2 4.5-27.1 4.7M4.7 0v10.5s3.4-.6 6.1-.6c4.7 0 7.1 2.6 7.3 5.9 0 .8 0 1.4 0 2.2v13.7h-4.7V17.8c0-1.8 0-4-3.8-4-2.8 0-4.7.6-4.7.6v17.2H0V.2L4.7 0zM35.6 9.7s-4.6.2-7.1.8c-3.2.6-5.1 2.6-5.3 5.3 0 .6 0 1 0 2.2v13.7h5.1v-14c0-1.2 0-2 1-2.8s3-1 4.2-1c.8 0 2.4-.2 2.4-.2v-4s-.3 0-.3 0z"/></g></svg>