<?xml version="1.0" encoding="utf-8"?>
<!-- Generator: Adobe Illustrator 19.2.0, SVG Export Plug-In . SVG Version: 6.00 Build 0)  -->
<svg version="1.1" id="hr" xmlns="http://www.w3.org/2000/svg" xmlns:xlink="http://www.w3.org/1999/xlink" x="0px" y="0px"
	 viewBox="0 0 55 42.1" enable-background="new 0 0 55 42.1" preserveAspectRatio="xMinYMid meet" xml:space="preserve">
<g>
	<path d="M27.9,42.1C18.6,42.3,7.3,40.6,0,37.4v-2.8c7.7,3.2,18,4.9,27.3,4.7c10.1-0.2,20.4-1.8,27.7-4.7v2.8
		C46.9,40.4,37.8,41.9,27.9,42.1"/>
	<path d="M4.7,0v10.5c0,0,3.4-0.6,6.1-0.6c4.7,0,7.1,2.6,7.3,5.9c0,0.8,0,1.4,0,2.2v13.7h-4.7V17.8c0-1.8,0-4-3.8-4
		c-2.8,0-4.7,0.6-4.7,0.6v17.2H0V0.2L4.7,0z"/>
	<path d="M35.6,9.7c0,0-4.6,0.2-7.1,0.8c-3.2,0.6-5.1,2.6-5.3,5.3c0,0.6,0,1,0,2.2v13.7h5.1v-14c0-1.2,0-2,1-2.8s3-1,4.2-1
		c0.8,0,2.4-0.2,2.4-0.2v-4C35.9,9.7,35.6,9.7,35.6,9.7z"/>
</g>
</svg>
