<?xml version="1.0" encoding="UTF-8"?>
<svg id="Ebene_2" data-name="Ebene 2" xmlns="http://www.w3.org/2000/svg" preserveAspectRatio="xMinYMid meet" viewBox="0 0 55 42">
  <defs>
    <style>
      .cls-1 {
        fill: #fff;
      }
    </style>
  </defs>
  <g id="Ebene_1-2" data-name="Ebene 1">
    <g id="g850">
      <path id="path844" class="cls-1" d="m27.9,42.1c-9.3.2-20.6-1.5-27.9-4.7v-2.8c7.7,3.2,18,4.9,27.3,4.7,10.1-.2,20.4-1.8,27.7-4.7v2.8c-8.1,3-17.2,4.5-27.1,4.7"/>
      <path id="path846" class="cls-1" d="m4.7,0v10.5s3.4-.6,6.1-.6c4.7,0,7.1,2.6,7.3,5.9v15.9h-4.7v-13.9c0-1.8,0-4-3.8-4-2.8,0-4.7.6-4.7.6v17.2H0V.2l4.7-.2Z"/>
      <path id="path848" class="cls-1" d="m35.6,9.7s-4.6.2-7.1.8c-3.2.6-5.1,2.6-5.3,5.3v15.9h5.1v-14c0-1.2,0-2,1-2.8s3-1,4.2-1c.8,0,2.4-.2,2.4-.2v-4s-.3,0-.3,0Z"/>
    </g>
  </g>
</svg>