<?xml version="1.0" encoding="UTF-8" standalone="no"?>
<svg version="1.1" id="Ebene_1" xmlns="http://www.w3.org/2000/svg" xmlns:xlink="http://www.w3.org/1999/xlink"  preserveAspectRatio="xMinYMin meet" x="0px" y="0px"
	 viewBox="0 0 208 62" style="enable-background:new 0 0 208 62;" xml:space="preserve">
<g
   id="g850"
   transform="translate(0,9.9420759)">
	<path
   d="M 27.9,42.1 C 18.6,42.3 7.3,40.6 0,37.4 v -2.8 c 7.7,3.2 18,4.9 27.3,4.7 10.1,-0.2 20.4,-1.8 27.7,-4.7 v 2.8 c -8.1,3 -17.2,4.5 -27.1,4.7"
   id="path844" />
	<path
   d="m 4.7,0 v 10.5 c 0,0 3.4,-0.6 6.1,-0.6 4.7,0 7.1,2.6 7.3,5.9 0,0.8 0,1.4 0,2.2 V 31.7 H 13.4 V 17.8 c 0,-1.8 0,-4 -3.8,-4 -2.8,0 -4.7,0.6 -4.7,0.6 V 31.6 H 0 V 0.2 Z"
   id="path846" />
	<path
   d="m 35.6,9.7 c 0,0 -4.6,0.2 -7.1,0.8 -3.2,0.6 -5.1,2.6 -5.3,5.3 0,0.6 0,1 0,2.2 v 13.7 h 5.1 v -14 c 0,-1.2 0,-2 1,-2.8 1,-0.8 3,-1 4.2,-1 0.8,0 2.4,-0.2 2.4,-0.2 v -4 c 0,0 -0.3,0 -0.3,0 z"
   id="path848" />
</g>
</svg>
