<svg xmlns="http://www.w3.org/2000/svg" xmlns:xlink="http://www.w3.org/1999/xlink"><symbol id="brandlogo--desk" viewBox="0 0 208 62" preserveAspectRatio="xMinYMin meet"><path d="M27.9 52.042c-9.3.2-20.6-1.5-27.9-4.7v-2.8c7.7 3.2 18 4.9 27.3 4.7 10.1-.2 20.4-1.8 27.7-4.7v2.8c-8.1 3-17.2 4.5-27.1 4.7M4.7 9.942v10.5s3.4-.6 6.1-.6c4.7 0 7.1 2.6 7.3 5.9V41.642h-4.7v-13.9c0-1.8 0-4-3.8-4-2.8 0-4.7.6-4.7.6v17.2H0v-31.4ZM35.6 19.642s-4.6.2-7.1.8c-3.2.6-5.1 2.6-5.3 5.3V41.642h5.1v-14c0-1.2 0-2 1-2.8 1-.8 3-1 4.2-1 .8 0 2.4-.2 2.4-.2v-4h-.3z"/></symbol><symbol id="brandlogo--mobile" viewBox="0 0 55 42.1" preserveAspectRatio="xMinYMid meet"><path d="M27.9 42.1c-9.3.2-20.6-1.5-27.9-4.7v-2.8c7.7 3.2 18 4.9 27.3 4.7 10.1-.2 20.4-1.8 27.7-4.7v2.8c-8.1 3-17.2 4.5-27.1 4.7M4.7 0v10.5s3.4-.6 6.1-.6c4.7 0 7.1 2.6 7.3 5.9V31.7h-4.7V17.8c0-1.8 0-4-3.8-4-2.8 0-4.7.6-4.7.6v17.2H0V.2L4.7 0zM35.6 9.7s-4.6.2-7.1.8c-3.2.6-5.1 2.6-5.3 5.3V31.7h5.1v-14c0-1.2 0-2 1-2.8s3-1 4.2-1c.8 0 2.4-.2 2.4-.2v-4h-.3z"/></symbol></svg>