<svg xmlns="http://www.w3.org/2000/svg" xmlns:xlink="http://www.w3.org/1999/xlink"><defs><style>.cls-1{fill:#fff}</style></defs><symbol id="brandlogo--desk" viewBox="0 0 55 42" preserveAspectRatio="xMinYMin meet"><g id="Ebene_1-2" data-name="Ebene 1"><g id="g850"><path id="path844" class="cls-1" d="M27.9 42.1c-9.3.2-20.6-1.5-27.9-4.7v-2.8c7.7 3.2 18 4.9 27.3 4.7 10.1-.2 20.4-1.8 27.7-4.7v2.8c-8.1 3-17.2 4.5-27.1 4.7"/><path id="path846" class="cls-1" d="M4.7 0v10.5s3.4-.6 6.1-.6c4.7 0 7.1 2.6 7.3 5.9v15.9h-4.7V17.8c0-1.8 0-4-3.8-4-2.8 0-4.7.6-4.7.6v17.2H0V.2L4.7 0Z"/><path id="path848" class="cls-1" d="M35.6 9.7s-4.6.2-7.1.8c-3.2.6-5.1 2.6-5.3 5.3v15.9h5.1v-14c0-1.2 0-2 1-2.8s3-1 4.2-1c.8 0 2.4-.2 2.4-.2v-4h-.3Z"/></g></g></symbol><symbol id="brandlogo--mobile" viewBox="0 0 55 42.1" preserveAspectRatio="xMinYMid meet"><g><path d="M27.9 42.1c-9.3.2-20.6-1.5-27.9-4.7v-2.8c7.7 3.2 18 4.9 27.3 4.7 10.1-.2 20.4-1.8 27.7-4.7v2.8c-8.1 3-17.2 4.5-27.1 4.7M4.7 0v10.5s3.4-.6 6.1-.6c4.7 0 7.1 2.6 7.3 5.9V31.7h-4.7V17.8c0-1.8 0-4-3.8-4-2.8 0-4.7.6-4.7.6v17.2H0V.2L4.7 0zM35.6 9.7s-4.6.2-7.1.8c-3.2.6-5.1 2.6-5.3 5.3V31.7h5.1v-14c0-1.2 0-2 1-2.8s3-1 4.2-1c.8 0 2.4-.2 2.4-.2v-4h-.3z"/></g></symbol></svg>