<?xml version="1.0" encoding="utf-8"?>
<!-- Generator: Adobe Illustrator 19.2.0, SVG Export Plug-In . SVG Version: 6.00 Build 0)  -->
<svg version="1.1" id="Ebene_1" xmlns="http://www.w3.org/2000/svg" xmlns:xlink="http://www.w3.org/1999/xlink" x="0px" y="0px"
	 width="162px" height="42.328px" viewBox="0 0 162 42.328" enable-background="new 0 0 162 42.328" xml:space="preserve">
<path fill="#FFFFFF" d="M27.976,42.317c-9.341,0.162-20.661-1.542-27.978-4.699v-2.845c7.689,3.262,18.148,4.99,27.489,4.83
	c10.077-0.175,20.57-1.87,27.833-4.722v2.76C47.194,40.53,37.992,42.146,27.976,42.317"/>
<path fill="#FFFFFF" d="M4.861-0.141L4.86,10.392c0,0,3.309-0.689,6.216-0.66c4.835,0.048,7.257,2.647,7.428,6.04
	c0.043,0.863,0.035,1.338,0.035,2.265v13.714h-5.099V17.745c0-1.714,0.109-3.843-3.743-3.825c-2.744,0.013-4.68,0.54-4.68,0.54
	v17.291H0.042V0.176L4.861-0.141z"/>
<path fill="#FFFFFF" d="M35.839,9.767c-0.062-0.012-4.582,0.043-7.235,0.652c-3.093,0.707-5.077,2.576-5.354,5.431
	c-0.053,0.55-0.079,0.899-0.079,2.153v13.748h5.094l-0.001-14.058c0-1.233,0.096-2.016,0.902-2.74
	c0.913-0.819,2.997-0.937,4.188-1.035c0.818-0.067,2.483-0.083,2.483-0.083V9.767z"/>
<path fill="#FFFFFF" d="M65.355,9.81h-2.67c0,0-3.526,12.436-3.677,12.968C58.835,22.253,54.74,9.81,54.74,9.81h-2.197
	c0,0-4.063,12.442-4.235,12.968c-0.152-0.531-3.71-12.968-3.71-12.968h-2.79l5.263,16.595h2.364c0,0,4.047-12.08,4.208-12.559
	c0.161,0.478,4.24,12.559,4.24,12.559h2.364L65.476,9.81H65.355z"/>
<path fill="#FFFFFF" d="M69.654,16.85c0.065-1.261,0.14-1.759,0.489-2.615c0.629-1.489,2.068-2.415,3.756-2.415
	c1.688,0,3.127,0.926,3.756,2.415c0.348,0.854,0.423,1.352,0.487,2.614H69.654z M80.727,17.639c0-4.953-2.617-8.03-6.829-8.03
	c-4.276,0-6.829,3.177-6.829,8.498c0,5.48,2.579,8.497,7.263,8.497c2.933,0,4.446-0.94,6.069-2.562l0.067-0.067l-1.768-1.551
	l-0.058,0.058c-1.362,1.36-2.472,1.843-4.243,1.843c-3.037,0-4.716-1.955-4.745-5.497h11.074V17.639z"/>
<path fill="#FFFFFF" d="M102.643,24.292c-3.482,0-4.196-2.473-4.196-6.185c0-3.059,0.499-6.186,4.196-6.186
	c3.54,0,4.017,3.127,4.017,6.186C106.659,21.166,106.182,24.292,102.643,24.292 M107.21,11.07c-0.915-0.915-2.435-1.461-4.067-1.461
	c-1.52,0-3.117,0.255-4.55,1.959V2.467h-0.089h-2.491v23.937h2.58v-1.823c1.457,1.764,3.112,2.023,4.55,2.023
	c1.631,0,3.151-0.546,4.067-1.461c1.818-1.817,2.028-4.886,2.028-7.036S109.029,12.888,107.21,11.07"/>
<path fill="#FFFFFF" d="M126.37,9.81h-2.49v10.2c0,2.722-1.464,4.283-4.017,4.283c-2.525,0-3.916-1.521-3.916-4.283V9.81h-2.579
	v10.566c0,2.033,0.555,3.56,1.695,4.669c1.021,1.02,2.508,1.56,4.3,1.56c1.793,0,3.393-0.692,4.55-1.924v1.724h2.545V9.81H126.37z"
	/>
<path fill="#FFFFFF" d="M134.2,11.499V9.81h-2.58v16.595h2.58v-10.2c0-2.722,1.452-4.283,3.982-4.283c2.51,0,3.95,1.561,3.95,4.283
	v10.2h2.58V15.804c0-1.989-0.566-3.504-1.729-4.634c-1.02-1.02-2.496-1.561-4.266-1.561C136.901,9.609,135.351,10.272,134.2,11.499"
	/>
<path fill="#FFFFFF" d="M155.436,24.026c-3.539,0-4.017-3.06-4.017-6.053c0-2.992,0.478-6.051,4.017-6.051
	c3.569,0,4.061,2.907,4.061,6.049C159.497,21.605,158.807,24.026,155.436,24.026 M159.452,9.81v1.787
	c-1.426-1.729-3.01-1.988-4.517-1.988c-1.632,0-3.152,0.546-4.067,1.461c-1.798,1.797-2.028,4.633-2.028,6.903
	s0.23,5.106,2.028,6.904c0.935,0.936,2.443,1.494,4.034,1.494c1.419,0,3.056-0.255,4.517-1.992v2.338
	c0,3.147-1.61,4.951-4.417,4.951c-1.925,0-2.75-0.609-3.879-1.613l-0.062-0.055l-1.694,1.659l0.07,0.063
	c1.841,1.664,3.262,2.225,5.631,2.225c4.21,0,6.93-2.799,6.93-7.13V9.81H159.452z"/>
<path fill="#FFFFFF" d="M87.568,11.671V9.81h-2.579v16.595h2.579V16.238c0-2.542,1.583-4.317,3.85-4.317
	c0.71,0,1.211,0.1,1.674,0.333l0.096,0.048l0.696-2.471l-0.086-0.023c-0.507-0.134-1.067-0.2-1.711-0.2
	C90.205,9.609,88.514,10.403,87.568,11.671"/>
<path fill="#FFFFFF" stroke="#E5007E" stroke-width="0.515" stroke-linecap="round" stroke-linejoin="round" d="M0.14,0L0.14,0"/>
</svg>
