<?xml version="1.0" encoding="UTF-8"?>
<svg id="hrwerbung" xmlns="http://www.w3.org/2000/svg" viewBox="0 0 881 220">
  <defs>
    <style>
      .cls-1 {
        fill: #007396;
        stroke-width: 0px;
      }
    </style>
  </defs>
  <path class="cls-1" d="m882.63,176.49h-42.3v10.15h31.06c-2.18,12.69-12.57,22.36-30.09,22.36-20.18,0-33.6-14.5-33.6-32.87s13.54-32.99,33.11-32.99c11.96,0,22.24,6.16,27.07,15.23l9.67-5.68c-7.01-12.08-20.79-20.42-36.62-20.42-25.74,0-44.35,19.58-44.35,43.87s18.49,43.87,44.59,43.87,41.45-16.92,41.45-38.43v-5.08Zm-115.77-42.66v63.08l-43.51-63.08h-9.06v84.59h11.24v-63.2l43.51,63.2h9.06v-84.59h-11.24Zm-106.22,86.17c18.49,0,31.66-11.6,31.66-29.97v-56.19h-11.12v55.71c0,11.72-7.01,19.46-20.54,19.46s-20.54-7.73-20.54-19.46v-55.71h-11.24v56.19c0,18.37,13.29,29.97,31.78,29.97m-72.75-12.08h-25.26v-27.43h25.26c7.49,0,13.41,6.04,13.41,13.66s-5.92,13.78-13.41,13.78m-2.66-63.57c7.01,0,12.57,5.8,12.57,12.93s-5.56,12.93-12.57,12.93h-22.6v-25.86h22.6Zm14.5,30.21c5.56-3.87,9.18-10.03,9.18-17.64,0-13.05-10.51-23.08-23.69-23.08h-33.84v84.59h36.5c13.66,0,24.53-10.39,24.53-23.93,0-9.18-5.08-16.31-12.69-19.94m-115.77-30.21h22.6c8.34,0,15.11,7.01,15.11,15.71s-6.76,15.83-15.11,15.83h-22.6v-31.54Zm38.91,74.08h12.45l-19.94-33.84c10.15-3.63,17.52-13.41,17.52-24.53,0-14.5-11.84-26.22-26.35-26.22h-33.83v84.59h11.24v-32.39h19.94l18.97,32.39Zm-107.8-10.63v-26.83h35.65v-10.51h-35.65v-25.98h38.67v-10.63h-49.91v84.59h50.52v-10.63h-39.28Zm-118.67,10.63h13.05l20.06-67.55,20.06,67.55h13.05l24.29-84.59h-11.84l-19.34,69.61-20.54-69.61h-11.36l-20.54,69.61-19.34-69.61h-11.84l24.29,84.59Zm-158.45-.08h-46.48v-87.22c0-11.11-.05-16.13-3.24-19.3-2.74-2.73-8.03-4.12-17.05-4.12-6.79,0-14.72.86-24.6,2.47v108.17H0V2.95L46.58,0v70.58c10.1-1.69,22.54-3.27,33.11-3.27,21.41,0,35.6,6.25,44.86,15.51,12.34,12.34,13.42,26.94,13.41,44.07v91.46Zm67.36.04h-46.58v-88.82c0-15.78.62-29.94,13.16-42.48,13.84-13.84,35.79-19.17,84.05-19.67v39.51c-35.63.97-43.75,3.43-47.4,7.07-2.56,2.56-3.24,6.07-3.24,13.47v90.91Z"/>
</svg>