<?xml version="1.0" encoding="utf-8"?>
<!-- Generator: Adobe Illustrator 17.0.1, SVG Export Plug-In . SVG Version: 6.00 Build 0)  -->
<!DOCTYPE svg PUBLIC "-//W3C//DTD SVG 1.1//EN" "http://www.w3.org/Graphics/SVG/1.1/DTD/svg11.dtd">
<svg version="1.1" xmlns="http://www.w3.org/2000/svg" xmlns:xlink="http://www.w3.org/1999/xlink" x="0px" y="0px" width="559px"
 height="789px" viewBox="0 0 559 789" enable-background="new 0 0 559 789" xml:space="preserve">
<g>
    <g id="suedhessen">
        <path id="_x3C_suedhessen_x3E_" fill="" stroke="#005293" stroke-width="2" stroke-linejoin="round" stroke-miterlimit="10" d="
        M307.878,661.775c0-1.685-1.072-5.362-2.145-5.821s-5.055-2.145-5.208-2.604s1.226-1.838,2.145-2.604s2.911-2.451,3.064-5.668
        c0.153-3.217-3.83-4.289-4.596-4.289c-0.766,0-3.217,1.838-4.136,1.838c-0.919,0-0.919-2.757-1.379-3.37s-2.145-3.37-2.145-3.983
        s1.992-1.685,2.145-2.145c0.153-0.46,0.153-3.677,0.306-4.749c0.153-1.072,1.072-2.298,0.306-2.604s-2.604-0.766-2.604-0.766
        l-1.991,2.145l-0.306,1.685c0,0-1.685,0-2.145-0.153s-0.153-3.37-0.153-3.37h-1.072l-2.145,0.613v-2.757
        c0,0-0.67-1.342-1.026-2.129l0,0c-0.044-0.097-0.083-0.187-0.117-0.266c-0.037-0.087-0.067-0.16-0.083-0.209
        c-0.153-0.46,0.306-1.685,0.919-1.379c0.613,0.306,1.532-1.532,0.919-2.911s-1.226-3.983-1.226-4.596
        c0-0.613,0.306-3.83,0.306-3.83l-1.685-5.668l0.919-3.83l-1.838-6.587c0,0,1.072-4.136,0.919-5.055s-0.919-2.757-0.919-3.37
        s0.306-4.596,0.766-5.668s1.991-0.613,2.604-0.613c0.042,0,0.09-0.014,0.143-0.037c0.016-0.007,0.035-0.02,0.052-0.029
        c0.038-0.021,0.077-0.044,0.119-0.074c0.021-0.015,0.043-0.033,0.065-0.051c0.043-0.034,0.087-0.072,0.133-0.115
        c0.021-0.019,0.042-0.039,0.063-0.06c0.053-0.052,0.106-0.107,0.161-0.168c0.016-0.017,0.031-0.034,0.047-0.052
        c0.302-0.342,0.625-0.798,0.897-1.279l-4.822-3.215l-3.875-0.517l-5.941-0.517l-5.424-2.325l-0.258,2.066l-1.55,2.325l-3.358,3.616
        c0,0-4.391,3.358-5.683,4.133c-1.292,0.775-3.358,0-7.491,0s-2.066,2.066-5.166,4.649s-4.908,0.775-6.974,0.517
        s-3.875-3.616-3.875-3.616l-4.391,2.066l-3.358,0.258l-3.875-2.325l-3.1,2.583l-4.391,0.517l-7.232-0.258l-6.199-2.841
        l-2.785-2.695c-1.581,0.204-5.598,0.234-5.598,0.9c0,0.698-3.256,0.93-3.721,2.326s0.465,3.256-0.465,3.489
        c-0.93,0.233-4.884,0.233-4.884,1.396s2.558,4.884,1.861,5.815c-0.698,0.93-4.652,1.163-4.652,2.326
        c0,1.163,4.884,10.001,3.489,10.932c-1.036,0.69-7.193,2.662-10.11,4.298l-2.751-0.395l-2.847-0.089c0,0-4.092-0.445-6.138-0.178
        s-1.69,0.534-2.669,0.89s-5.338,0.089-5.338,0.089h-2.402l-3.114-0.534l-2.313-0.89l-4.626-0.534l-2.491,2.135
        c0,0-2.402-1.245-3.558-1.779c-0.694-0.32-1.289-1.088-1.714-1.729c0.253,1.008,0.734,2.117,1.215,2.984
        c0.766,1.379,5.668,4.136,6.128,5.974s-1.226,6.74-1.685,9.038s1.685,4.902,2.604,6.281s3.064,5.974,3.523,8.119
        s1.992,5.515,3.37,7.2c1.379,1.685,7.966,1.226,9.345,1.226s0.766,2.451,0.306,4.289s-2.757,3.064-3.83,4.749
        c-1.072,1.685-3.37,5.055-5.208,6.74c-1.838,1.685-6.74,2.145-10.111,3.217s-5.515,4.443-6.434,6.894s0.919,7.047,0.919,7.047
        l1.226,5.362c0,0,1.072,5.974,1.072,6.434s1.226,3.217,1.226,3.217s3.677,4.902,3.983,5.974s3.217,6.434,3.217,6.434
        s4.902,0.919,5.668,1.379s3.677-1.991,3.677-1.991l2.911,0.919l0.153,3.677l3.83,1.226c0,0,1.072,1.838,1.685,2.604
        c0.613,0.766,2.757,0.306,3.37,0.766c0.613,0.46,2.298,1.838,3.523,5.974c1.226,4.136,9.498,10.877,10.264,11.489
        c0.766,0.613,2.451-0.919,3.983-1.991s2.145-0.46,4.289-2.145c2.145-1.685,1.992-3.677,3.523-6.74
        c1.532-3.064-0.306-6.587-0.919-8.119c-0.613-1.532-1.991-4.749-2.298-6.587c-0.306-1.838,0.306-5.362,0.306-6.434
        s0.613-3.83,1.991-3.983s4.902-0.766,5.974-0.306c1.072,0.46,3.37-0.766,4.749-1.072s5.055-0.306,6.128,0.306
        c1.072,0.613-0.919,1.685-1.532,1.532c-0.613-0.153-1.379,1.991-1.532,2.604s0.613,2.145,1.226,3.217
        c0.613,1.072,1.838,1.072,2.145,2.145s-0.919,1.685-1.685,1.838s0,3.983,0,5.668s2.145,5.055,1.992,5.668
        c-0.153,0.613,2.451,5.515,3.217,6.281c0.766,0.766,4.902,1.991,5.974,2.451c1.072,0.46,3.523,3.37,5.821,4.289
        s5.208,2.757,7.2,2.911c1.992,0.153,1.685-1.532,2.298-1.685s1.226,0.306,1.226,1.226s0.46,2.451,1.226,3.523
        c0.766,1.072,3.37,3.064,5.362,2.911s2.298-1.072,3.83-2.451c1.532-1.379,1.992-1.838,3.37-1.838s2.451,0.766,2.451,2.145
        s-0.613,3.217-0.613,4.596s-0.153,3.064-0.919,3.83s-2.451,1.379-2.451,1.379s0.46-1.838,0.613-3.37s-2.298-1.992-3.523-1.685
        s-2.298,0.919-3.677,1.838s-1.838-0.153-3.064,1.379c0,0-0.306,3.217-0.46,4.596s1.226,4.136,1.991,5.515
        c0.766,1.379,0,3.217-1.226,4.902s-3.983,3.217-4.596,5.362c-0.613,2.145-0.153,4.749,0.306,6.128
        c0.46,1.379,2.298,1.992,3.37,2.145c1.072,0.153,3.523,1.379,4.902,1.072c1.379-0.306,5.362-5.821,7.047-7.353
        c1.685-1.532,2.911-4.289,3.217-6.128s0.153-3.677,0.613-5.055c0.46-1.379,1.532-1.838,2.298-1.226
        c0.766,0.613-0.306,2.145-0.46,3.064c-0.153,0.919,0.613,2.145,1.532,3.217c0.919,1.072,5.208-2.451,7.353-4.749
        c2.145-2.298,0.153-2.911-0.766-4.136s-0.766-3.83-0.766-5.821c0-1.991,2.757-2.911,3.217-3.983
        c0.46-1.072,1.072-5.515,2.145-5.515c1.072,0,2.757-0.919,3.37-1.685s2.757,0.153,3.217,0.46c0.46,0.306,2.298,2.604,3.523,3.523
        c1.226,0.919,7.2,0.153,8.426,0s3.37-6.281,4.289-7.2s6.128-2.298,7.506-1.685s4.289,4.289,4.902,4.749s1.838-1.072,2.451-2.451
        s-0.153-4.289-1.379-5.668s-5.821-3.677-6.587-4.443s0.919-2.757,1.226-3.217c0.306-0.46,0.919-3.983,0.153-6.74
        s-5.055-6.74-6.74-8.272s0.153-4.443,0.613-5.208c0.46-0.766,4.749-6.128,4.902-7.353s1.685-4.443,1.685-5.821
        s-3.064-6.128-3.064-7.353c0-1.226,0.766-2.911,1.685-4.136s5.055-1.838,6.434-1.992s0.766-2.911,0.766-4.289
        s1.685-2.911,2.145-3.83C306.5,667.137,307.878,663.46,307.878,661.775z"/>
    </g>
</g>
<g>
    <g id="osthessen">
        <g id="_x3C_osthessen_x3E_">
            <path fill="" stroke="#005293" stroke-width="2" stroke-miterlimit="10" d="M516.83,357.232
                c-0.306-0.919-1.838-6.128-2.298-7.966c-0.46-1.838-3.983-4.596-4.443-5.208c-0.46-0.613-4.902-0.306-6.281-0.306
                c-1.379,0-4.596-0.766-5.668-0.613c-1.072,0.153-4.902,2.298-5.821,2.911c-0.919,0.613-3.523,2.757-3.83,3.83
                c-0.306,1.072,1.685,1.992,2.145,2.604c0.46,0.613,1.379,2.757,0.919,3.217c-0.46,0.46-2.451,3.217-2.911,3.523
                c-0.46,0.306-2.298,0.153-3.064,0.153s-3.217-2.298-3.217-2.298l-2.911-1.838c0,0-1.685-0.153-2.145,0
                c-0.46,0.153-1.072,1.532-1.072,1.532l-1.685,0.153c0,0-0.766-1.532-0.919-2.145c-0.153-0.613,1.072-1.838,1.072-1.838
                s0.306-1.685,0.306-2.145c0-0.46-0.46-1.685-0.613-2.145c-0.153-0.46-0.46-3.064-0.46-3.064l1.532-1.379
                c0,0,1.532-1.838,2.911-2.911c1.379-1.072,0.919-0.613,0.919-0.613l2.145-1.991l1.379-2.451l-0.613-1.992l-0.766-1.685l2.145-1.379
                l1.226-1.685l1.226-2.145l0.766-3.064l1.072-2.604l-0.153-4.443l-1.991-1.532l-1.226-1.226l-0.153-2.145l1.226-2.145l1.072,0.46
                l1.838,0.613l1.532-1.838l-1.379-4.596c0,0,0.306-3.064,0.919-3.83c0.613-0.766,0.766-3.064,0.46-3.83
                c-0.306-0.766,1.532-3.37,2.145-4.136c0.613-0.766,2.604-0.919,3.37-1.072s4.749,0,5.668,0.46c0.919,0.46,1.991,0.766,1.991,0.766
                l1.532-1.532l1.072-2.451c0,0,1.072-2.145,1.226-2.757c0.153-0.613,0.766-1.838,0.766-1.838l1.379-2.298l-0.919-1.532l-1.072-0.919
                l0.153-1.072l0.766-0.766l1.992-1.226l2.298-2.298l1.532-1.838l0.306-2.757l-0.919-3.217h-1.226l-3.37-1.072l-2.298-2.757
                l-3.523-1.992l-2.757-0.766c0,0-1.838,1.532-2.298,1.838c-0.46,0.306-1.685,1.226-1.685,1.685c0,0.46-1.226-1.226-1.226-1.226
                s-0.613-1.685-0.613-2.604s0.153-3.064,0.153-3.83s-1.532-1.226-1.991-0.919c-0.46,0.306-2.757,0-3.064,0.46
                c-0.306,0.46-0.919,1.226-0.919,1.226l-1.992-2.451l0.613-1.379l0.919-0.766l1.685-0.153l1.379-0.306l1.685-0.613l1.379,0.766
                l1.532,1.226l2.298,0.46c0,0,1.838-1.072,2.451-1.072s1.379,0.46,2.145,0.766c0.766,0.306,3.37-0.306,4.136-0.306
                s1.685-3.064,1.379-3.677c-0.306-0.613-2.298-2.757-2.298-2.757l-1.532-4.902l-1.532-3.523l0.613-3.37c0,0,0.034-0.075,0.081-0.179
                H499.5l-4-3l4-7.5l-4.5-4l-2,0.5l-4.5-4.5l-5-0.5l-5,2l-6-1.5l-1.5-3.5l-3-2.5l-4.5-1.5l-2.5-4l-3.5,0.5l-5.516-0.471l-0.157-0.004
                L449.5,207l-7,0.5l-7-2l-5,4.5l-5.5,2l-2,2.5l-1.5,4.5l-8.5,4h-4l-0.5,4l1,6l0.5,1.5l-3.5,0.5l-2.5,5l0.5,5l3,4.5l-9,1.5l-5,3.5
                l0.5,5.5l-5,5l3.5,6l-1,7l4,8l-1.5,7l-9,5l-4,3l-0.71,1.826l-8.79-0.326l-2.5,6l-5-5.5l-1-4l-7.5,1.5l-3-4l-6,1.5l-5-0.5V292H336
                l-1.5-2.5l-6,2l-6-4l-5-0.5l-0.308-1.108l-0.993,1.214l-1.867,1.68l-4.107-0.56l-2.8,0.747l-1.867,2.053l-0.56,4.293l-5.413,0.373
                l-1.493,2.987l-4.107,1.12l-3.173,0.747l-2.613,1.493l-0.373,3.92l-3.733,4.48l-5.227,0.747l-4.853,4.853l-2.613,4.853l-2.987,1.12
                l-2.8,1.867l-1.307,2.8l3.555,1.777l1.298,0.649l4.48,4.293l4.293,6.907l-0.747,5.6l-1.68,2.987c0,0-3.547-2.24-3.733-0.933
                c-0.187,1.307,1.68,4.107,1.68,4.107l3.173,3.92l4.667,0.747l3.733,2.053l0.373,7.28c0,0,5.227,1.12,7.84,1.12
                c2.613,0,3.92,0.933,4.293,3.173s1.12,7.467,4.293,7.467c3.173,0,8.773,2.613,9.52,2.987c0.747,0.373-1.493,5.227-1.493,5.227
                l-3.92,2.613l-2.427,3.733l-5.227,3.733c0,0-6.72,2.427-6.16,3.547s3.547,0.933,3.547,0.933l5.04,2.053l-5.04,4.293l2.427,6.533
                l4.667,1.12l-0.373,6.72l7.84,0.56l5.413,0.187l4.107-1.493l3.173-0.373l5.6-4.48l6.533-1.867h3.733l0.187,2.427l1.68,4.293
                l1.867,1.493h2.271c0,1.033,0,2.75,0,2.75l-2.75,5.288c0,0-1.904,1.48-2.326,2.115c-0.423,0.635-0.846,2.961-0.846,2.961
                l-0.211,2.75c0,0,0.634,1.692,0.423,2.327s-1.692,1.904-1.692,1.904l1.057,2.327l2.327,1.269c0,0,0.423,2.75-0.211,2.961
                c-0.635,0.211-2.538,1.057-2.538,1.057l-0.211,3.807l1.904,3.384v2.961l-5.076-1.48c0,0-2.961-1.058-4.018,0
                c-1.058,1.057-2.961,3.172-2.961,3.172l0.423,2.538l-0.635,4.019v4.23l-3.173,2.327l-4.018,1.057l-0.678,1.233l1.283,3.185
                l0.707,2.473c0,0-0.118,1.767,0.471,2.002c0.589,0.236,2.002,1.649,2.002,1.649l-0.824,2.591c0,0-2.591,2.12-2.827,2.591
                c-0.236,0.471-0.471,2.591-0.471,2.591l1.296,2.238l3.533,3.651l1.649,2.827l2.12,5.3l2.355,3.651l1.884,1.06l2.12,1.178
                l-0.118,1.767l-1.06,1.649l-1.296,2.827l-0.898,4.021c0.444,0.147,0.851,0.286,1.189,0.398c1.838,0.613,3.677,1.072,6.74,0.46
                c3.064-0.613,4.902,2.604,7.353,2.911c2.451,0.306,5.974-0.306,6.74,0.153c0.766,0.46,6.281,2.757,7.2,3.677
                c0.919,0.919,1.991,5.515,2.911,6.74c0.919,1.226,4.443,5.821,5.515,6.74c1.072,0.919,6.281-0.613,8.119-1.226
                c1.838-0.613,7.2-1.838,9.498-2.298c2.298-0.46,4.749-2.757,5.668-5.362c0.919-2.604-0.613-4.136-0.766-5.821
                c-0.153-1.685-1.532-4.289,0.46-6.434c1.991-2.145,3.523-3.83,3.37-4.749s-1.226-1.685-2.298-2.298
                c-1.072-0.613-3.523-2.145-3.523-2.145s0.153-2.911,0.306-3.677c0.153-0.766,2.145-3.37,2.451-4.749
                c0.306-1.379-1.379-3.83-1.685-4.443c-0.306-0.613-1.685-4.596-1.685-5.362s0.306-3.83,1.379-4.289
                c1.072-0.46,1.685,1.226,2.757,1.685c1.072,0.459,2.757,0.46,2.911,0.919c0.153,0.46,2.604,2.145,3.677,2.145
                c1.072,0,3.217-1.226,4.136-1.532c0.919-0.306,1.992,1.991,1.992,1.991s3.83,0.919,5.055,1.226c1.225,0.307,4.749-0.613,5.515-1.685
                c0.766-1.072,2.911-2.145,4.136-2.145s3.677,0.766,5.208-0.46c1.532-1.226-1.379-3.217-1.379-3.217s-2.604-1.226-3.37-2.298
                c-0.766-1.072,1.072-2.604,1.072-2.604l3.217-3.37c0,0,3.064-1.685,4.902-2.911s3.523-0.919,4.289-2.298
                c0.766-1.379,4.443-2.911,5.821-4.136c1.378-1.225,2.298-3.677,2.911-5.515c0.613-1.838,0.613-7.2,0.46-8.885
                s-1.838-5.208-2.145-6.281c-0.307-1.073,1.838-2.757,1.838-2.757s1.072-4.136,1.532-5.668c0.46-1.532,0.919-3.677,1.532-4.749
                c0.613-1.072,0-4.596-0.306-5.821c-0.306-1.226,0.766-1.992,1.991-2.757c1.226-0.766,3.217-0.306,4.749-0.306
                s2.911-0.306,3.983,0.46c1.072,0.766,0.766,2.604,0.766,2.604s2.604,1.532,3.983,2.145c1.379,0.613,5.055,2.911,7.2,3.217
                c2.145,0.306,2.145-2.145,2.911-1.838c0.766,0.306,1.838,1.226,2.911,1.226c1.072,0,1.532-1.992,2.911-2.298
                c1.379-0.306,2.757-0.306,3.37-0.766c0.613-0.46,3.064-3.677,3.983-4.136c0.919-0.46,3.983-1.379,3.983-1.379
                s2.451-2.298,3.37-3.064s4.596-5.208,5.362-6.281c0.766-1.072,6.434-6.587,7.353-7.813s3.217-8.426,3.523-9.804
                c0.306-1.379,0.153-8.885,0.153-9.804c0-0.919,3.983-7.506,4.443-9.038c0.46-1.532-2.757-4.902-2.451-6.281
                c0.306-1.379-0.919-6.587-1.072-7.353c-0.153-0.766-0.766-2.298-0.46-3.677c0.306-1.379,0-3.064,0.613-4.136
                c0.613-1.072,3.217-2.298,4.136-1.226c0.919,1.072,2.451,1.532,2.911,0.919C517.29,362.134,517.136,358.151,516.83,357.232z"/>
        </g>
    </g>
</g>
<g>
    <g id="mittelhessen">
        <g id="_x3C_mittelhessen_x3E_">
            <path fill="" stroke="#005293" stroke-width="2" stroke-miterlimit="10" d="M337.811,453.581l0.211-3.807c0,0,1.903-0.846,2.538-1.057
            c0.634-0.211,0.211-2.961,0.211-2.961l-2.327-1.269l-1.057-2.327c0,0,1.481-1.269,1.692-1.904s-0.423-2.327-0.423-2.327l0.211-2.75
            c0,0,0.423-2.326,0.846-2.961c0.422-0.635,2.326-2.115,2.326-2.115l2.75-5.288c0,0,0-1.717,0-2.75h-2.271l-1.867-1.493l-1.68-4.293
            l-0.187-2.427h-3.73l-6.533,1.867l-5.6,4.48l-3.173,0.373l-4.107,1.493l-0.003,0l0,0l-5.413-0.187l-7.84-0.56l0.373-6.72
            l-4.667-1.12l-2.427-6.533l5.04-4.293l-5.04-2.053c-0.006,0-0.108,0.007-0.278,0.01c-0.754,0.014-2.814-0.032-3.27-0.943
            c-0.56-1.12,6.16-3.547,6.16-3.547l5.227-3.733l2.427-3.733l3.92-2.613c0,0,2.24-4.854,1.493-5.227
            c-0.747-0.374-6.347-2.987-9.52-2.987c-3.173,0-3.92-5.227-4.293-7.467s-1.68-3.173-4.293-3.173c-2.613,0-7.84-1.12-7.84-1.12
            l-0.373-7.28l-3.733-2.053l-4.667-0.747l-3.173-3.92c0,0-1.867-2.8-1.68-4.107c0.035-0.246,0.189-0.366,0.416-0.399
            c0.007-0.001,0.016,0,0.024-0.001c0.069-0.008,0.142-0.012,0.222-0.006c1.072,0.076,3.059,1.33,3.072,1.338l1.679-2.986l0.747-5.6
            l-4.293-6.907l-4.48-4.293l-1.298-0.649l-3.555-1.777l1.307-2.8l2.8-1.867l2.987-1.12l2.613-4.853l4.853-4.853l5.227-0.747
            l3.733-4.48l0.373-3.92l2.613-1.493l3.173-0.747l4.107-1.12l1.493-2.987l5.413-0.373l0.56-4.293l1.867-2.053l2.8-0.747l0.001,0
            l0.001,0l4.105,0.56l1.867-1.68l0.993-1.214L315,278l-2-2.5l-4.5-6.5l4-2.5L311,261l-5.5-2.5l-4.5,1l-4.5-2.5l-3,1l-1.5,5l-4-2
            l-1-4.5l-2.5-1.5l-4-2H280l-3-4l-4-6.5l-6.5-2.5v4.5L265,247l-7-3l-5.5-1.5l-1.5,2h-10.5l-5-7.5l-7,4.5v-4h-3l-3-4.5l-3-0.5l-6,0.5
            l-2,5l-5.5,4.5l-6.5,3.5l-8.5-2h-8.5l-8.5-5.5l-2.398-1.635c0,0,0,0,0,0.001c-0.298,0.361-0.592,0.722-0.873,1.072
            c-0.003,0.004-0.006,0.007-0.009,0.011c-0.136,0.17-0.269,0.336-0.398,0.499c-0.006,0.007-0.012,0.015-0.018,0.022
            c-0.123,0.155-0.241,0.306-0.355,0.453c-0.011,0.014-0.023,0.03-0.034,0.044c-0.105,0.136-0.205,0.265-0.301,0.391
            c-0.017,0.023-0.036,0.047-0.053,0.07c-0.087,0.114-0.167,0.221-0.245,0.326c-0.022,0.029-0.046,0.061-0.067,0.089
            c-0.07,0.095-0.132,0.181-0.194,0.266c-0.022,0.03-0.047,0.065-0.068,0.094c-0.078,0.109-0.147,0.209-0.206,0.297
            c-0.919,1.379-1.072,6.281-1.532,6.894c-0.46,0.613-0.766,2.145-0.46,3.37c0.306,1.225,0.919,2.451,0.919,3.523
            c0,1.072-1.685,1.532-1.685,1.532s-2.757,1.072-3.677,1.072c-0.919,0-2.298,2.911-3.064,3.983
            c-0.766,1.072-0.613,5.208-1.072,6.128c-0.46,0.919-2.451,2.451-3.064,2.451s-2.604,1.532-3.064,2.145
            c-0.46,0.613-2.298,2.451-3.217,1.379c-0.919-1.072-2.911,0-3.83,0.153s-2.911,0.306-4.443,0.46
            c-1.532,0.153-3.217-0.919-3.37-1.685c-0.153-0.766-3.523-4.902-4.749-5.208c-1.226-0.306-1.379,0.766-1.379,0.766
            s-2.911,1.072-4.443,1.992c-1.532,0.919-2.604,3.983-3.677,5.821c-1.072,1.838-3.37,3.677-4.289,4.289
            c-0.919,0.613-4.136,2.757-5.208,3.983c-1.072,1.226-5.821,5.974-6.74,7.047c-0.919,1.072-4.443,3.523-5.515,4.136
            c-1.072,0.613-2.298,3.523-2.298,5.515c0,1.991,1.226,4.596,1.379,6.281c0.153,1.685,2.604,3.217,3.983,4.902
            c1.379,1.685,1.072,5.055,0.613,6.434c-0.459,1.379-1.072,3.677-1.991,5.974c-0.919,2.298-2.145,2.911-3.523,3.677
            c-1.379,0.766-2.757,1.379-3.37,3.523c-0.613,2.145-1.991,5.055-2.298,6.434c-0.307,1.379,0.919,3.83,1.226,5.668
            c0.306,1.838,1.991,5.515,1.991,6.74s-1.379,4.443-1.379,6.434c0,1.992,3.523,3.677,4.289,4.902c0.766,1.225,0.766,6.587,0.46,7.2
            c-0.306,0.613-0.613,1.685-1.072,2.145c-0.46,0.46-0.306,1.379-0.306,2.757s-0.153,2.298-1.072,3.37
            c-0.919,1.072-1.992,0.46-3.064,0.613c-1.072,0.153-1.685,1.379-1.532,2.298c0.153,0.919-0.919,2.451-1.838,2.298
            c-0.919-0.153-2.298-0.153-3.217-0.613c-0.919-0.46-3.064-2.298-3.983-2.911c-0.919-0.613-2.604-1.226-3.677-1.379
            c-1.073-0.153-2.145-1.532-2.757-1.685c-0.613-0.153-2.757,1.838-3.217,2.298c-0.46,0.46-2.298,2.757-3.217,3.83
            c-0.919,1.072-4.136,2.298-4.443,2.911c-0.306,0.613-2.298,4.136-2.757,5.362c-0.46,1.226-1.992,4.596-2.451,6.587
            c-0.46,1.991,1.379,4.136,1.379,6.128s3.677,4.749,4.289,5.208c0.613,0.46,0.613,2.604-0.153,2.911
            c-0.766,0.306-3.37,1.226-3.983,1.532c-0.613,0.306-1.685,2.757-1.072,3.677c0.613,0.919,1.072,4.289,0.46,5.208
            c-0.613,0.919-2.451,1.379-3.064,1.379c-0.613,0-1.838,3.217-1.685,4.136c0.153,0.919,1.532,3.37,2.604,3.217
            c1.072-0.153,5.668,0.46,7.353,0.46s2.757,2.451,3.217,3.677s3.064,1.226,4.136,1.532c1.072,0.306,2.604,1.072,3.677,1.685
            c1.072,0.613,0.46,4.596,0.46,4.596l1.685,1.991c0,0,0.153,5.974,0.153,6.74s4.443,4.289,5.055,4.902
            c0.613,0.613,0.306,2.451-0.153,3.677c-0.46,1.226,2.145,3.523,3.677,7.966c0.099,0.287,0.177,0.562,0.238,0.826
            c0.011,0.048,0.015,0.091,0.025,0.138c0.046,0.218,0.084,0.431,0.106,0.633c0.003,0.027,0.002,0.052,0.005,0.078
            c0.021,0.219,0.031,0.431,0.027,0.633c0,0.008-0.001,0.015-0.002,0.023c-0.005,0.218-0.024,0.426-0.055,0.625l2.749,0.485
            l6.069-0.169h4.046l3.034-1.517l4.551-1.517l2.529,2.36l1.686,2.529l2.697,2.023l2.023,1.18l1.853-1.349l2.19-2.528h0l0.001-0.001
            c0,0,3.877,0.169,4.72,0.506c0.843,0.337,2.191,1.854,2.191,1.854s2.697,0.674,3.54,0.674c0.105,0,0.205-0.045,0.3-0.125
            c0.661-0.566,1.048-2.888,1.048-3.92c0-0.295,0.137-0.495,0.343-0.63c0.616-0.404,1.849-0.214,1.849-0.214l2.696-1.18l0.843-1.685
            c0,0-0.022-0.016-0.053-0.04h-0.001l-0.001-0.001c-0.001,0-0.001,0-0.002-0.001c0.001,0,0.001,0.001,0.002,0.002
            c-0.035-0.027-0.085-0.066-0.151-0.118c0.065,0.051,0.114,0.09,0.149,0.116c-0.035-0.027-0.084-0.065-0.149-0.117
            c-0.068-0.054-0.154-0.125-0.246-0.203c0.092,0.078,0.178,0.149,0.246,0.203c0.065,0.052,0.114,0.09,0.149,0.117
            c0.001,0.001,0.001,0.001,0.002,0.001l0.002,0.001c0.031,0.024,0.053,0.04,0.053,0.04s-0.022-0.016-0.053-0.04
            c0.031,0.024,0.053,0.04,0.053,0.04l-0.843,1.685l0.001,0l0.843-1.686c0,0-0.022-0.017-0.053-0.04c0,0,0,0-0.001,0
            c-0.001,0-0.001-0.001-0.001-0.001c-0.035-0.026-0.085-0.065-0.151-0.118c-0.069-0.055-0.152-0.123-0.246-0.203
            c-0.017-0.014-0.032-0.027-0.05-0.042c-0.096-0.082-0.198-0.171-0.308-0.272c-0.013-0.012-0.027-0.025-0.04-0.038
            c-0.098-0.091-0.199-0.188-0.302-0.291c-0.025-0.025-0.05-0.049-0.075-0.075c-0.11-0.112-0.219-0.23-0.326-0.353
            c0,0,0,0,0.001,0.001c0.107,0.122,0.216,0.241,0.326,0.353c0.025,0.026,0.05,0.05,0.075,0.075c0.102,0.102,0.204,0.201,0.302,0.291
            c0.013,0.012,0.027,0.026,0.04,0.038c0.11,0.1,0.213,0.191,0.308,0.272c0.017,0.014,0.034,0.029,0.05,0.042
            c0.093,0.078,0.178,0.149,0.246,0.203c-0.068-0.054-0.153-0.125-0.246-0.203c-0.016-0.013-0.033-0.028-0.05-0.042
            c-0.095-0.081-0.198-0.172-0.308-0.272c-0.013-0.012-0.027-0.026-0.04-0.038c-0.098-0.09-0.2-0.189-0.302-0.291
            c-0.025-0.025-0.05-0.049-0.075-0.075c-0.11-0.112-0.219-0.231-0.326-0.353c0,0,0,0-0.001-0.001c0,0,0,0,0,0
            c-0.026-0.03-0.052-0.06-0.078-0.091c-0.11-0.129-0.216-0.262-0.314-0.398c-0.009-0.012-0.016-0.024-0.024-0.036
            c-0.091-0.129-0.172-0.261-0.245-0.393c-0.016-0.029-0.033-0.058-0.049-0.088c-0.072-0.139-0.13-0.278-0.175-0.417
            c-0.009-0.028-0.015-0.056-0.023-0.084c-0.04-0.146-0.068-0.291-0.068-0.432c0-1.517,1.349-0.674,1.854-0.674
            c0.506,0,1.686-0.843,2.697-1.011c1.011-0.169-0.674-2.023-0.674-2.023l-2.528-3.37l-3.54-1.349l-2.36-2.529v0l-0.001-0.001
            l0.843-2.697l2.191-2.023l2.023-2.191l1.517-3.203l0.843-2.023l3.371-2.36l4.72-2.529c0,0-0.169-2.36-0.169-2.866
            c0-0.506,0.169-1.517,0.169-1.517l2.023-0.337l2.529,1.18l1.686-1.517l3.203-1.686l4.046-1.18l3.034-1.517l0.853-0.948l2.804,1.771
            l0,0.001l0.001,0l1.062,2.973l2.123,2.548l3.186-0.212l0.963-0.674l0.305-0.214l0,0l0.002-0.001l-0.002,0.001l0.001,0.001
            l0.002-0.002l1.109,2.139l3.271,2.337l1.168,6.308l4.203-0.701l0.001,0l0.002,0l3.271,1.636l2.568-0.234h0.003h3.035l1.869-0.701
            v0.001l0.003-0.001v2.337l-1.402,2.57l3.038,3.505l3.972,3.505l2.103,3.738l-1.636,1.636l-0.935,3.271l-3.038,2.804l-2.103,1.869
            l-2.103,2.337l3.271,0.701l3.972,1.402l3.036,0.467l1.868-1.402l0.002,0.001l0.001-0.001l2.103,1.168l-0.935,2.103l-0.234,2.57
            l2.804,3.738l2.337,3.038l-0.039,0.163l2.458-0.737l0.002,0l0,0L222,483l3-2.667l2.667-0.333l2,2l2.666-1.333l1-2.334L237,480
            l3.333-0.667h2.333h0.001l0.666,3L242,485l0.516,3.266h2.443l4.019-3.172c0,0,0.423-4.653,0.423-5.288s-1.057-3.173-1.057-3.173
            l4.23-2.115l0.002,0.001l0.001-0.001l4.442,1.904l4.227-0.211l0,0l0.003,0l2.961,2.115l3.383,2.538l2.535-0.423l0,0l0.003,0
            l2.538,3.172l1.904,2.538c0.029-0.005,3.387-0.639,4.439-1.691c0.397-0.397,0.854-0.525,1.269-0.531
            c0.693-0.011,1.272,0.32,1.272,0.32s1.269,2.961,1.481,4.018c0.21,1.054,3.78,2.737,3.805,2.749l3.172-4.229l4.23-0.211l0,0
            l0.003,0l6.344,0.846l10.996-1.057l4.019-2.115l4.653-8.46l4.018-1.057l3.173-2.327v-4.23l0.635-4.019l-0.423-2.538
            c0,0,1.903-2.115,2.961-3.172c0.331-0.331,0.848-0.455,1.402-0.469c1.218-0.032,2.619,0.469,2.619,0.469l5.073,1.479v-2.96
            L337.811,453.581z M140.586,466.288c-0.016-0.014-0.033-0.028-0.05-0.042C140.553,466.26,140.57,466.274,140.586,466.288z
             M140.229,465.974c0.11,0.101,0.213,0.191,0.308,0.272C140.442,466.165,140.339,466.075,140.229,465.974
            c-0.013-0.012-0.027-0.025-0.04-0.038C140.202,465.949,140.216,465.962,140.229,465.974z M139.812,465.571
            c0.025,0.026,0.05,0.05,0.075,0.075c0.103,0.103,0.204,0.201,0.302,0.291c-0.098-0.09-0.199-0.188-0.302-0.291
            C139.862,465.621,139.837,465.597,139.812,465.571c-0.11-0.112-0.219-0.23-0.326-0.353
            C139.593,465.341,139.702,465.459,139.812,465.571z M139.486,465.219c-0.026-0.03-0.052-0.061-0.078-0.091
            C139.434,465.158,139.46,465.189,139.486,465.219z M138.578,463.711c0.008,0.028,0.014,0.056,0.023,0.084
            c0.044,0.138,0.103,0.278,0.175,0.417c0.016,0.03,0.033,0.059,0.049,0.088c0.073,0.132,0.154,0.264,0.245,0.393
            c0.008,0.012,0.015,0.024,0.024,0.036c0.098,0.136,0.205,0.269,0.314,0.398c-0.109-0.129-0.216-0.262-0.314-0.398
            c-0.009-0.012-0.016-0.024-0.024-0.036c-0.091-0.129-0.172-0.261-0.245-0.393c-0.016-0.029-0.033-0.058-0.049-0.088
            c-0.072-0.139-0.131-0.279-0.175-0.417C138.592,463.767,138.586,463.739,138.578,463.711c-0.04-0.146-0.068-0.291-0.068-0.432
            C138.51,463.42,138.538,463.565,138.578,463.711z"/>
        </g>
    </g>
</g>
<g>
    <g id="rhein_main_1_">
        <g id="_x3C_rhein_main_x3E_">
            <path fill="" stroke="#005293" stroke-width="2" stroke-miterlimit="10" d="M136.995,447.604l2.023-2.191l1.517-3.203
        l0.843-2.023l3.371-2.36l4.72-2.529c0,0-0.169-2.36-0.169-2.866c0-0.506,0.169-1.517,0.169-1.517l2.023-0.337l2.529,1.18
        l1.686-1.517l3.203-1.686l4.046-1.18l3.034-1.517l0.853-0.948l2.803,1.77l-0.001-0.002l-2.804-1.771l-0.853,0.948l-3.034,1.517
        l-4.046,1.18l-3.203,1.686l-1.686,1.517l-2.529-1.18l-2.023,0.337c0,0-0.169,1.011-0.169,1.517c0,0.506,0.169,2.866,0.169,2.866
        l-4.72,2.529l-3.371,2.36l-0.843,2.023l-1.517,3.203l-2.023,2.191l-2.191,2.023l-0.843,2.697l0.002,0.002l0.843-2.696
        L136.995,447.604z"/>
    <polygon fill="" stroke="#005293" stroke-width="2" stroke-miterlimit="10" points="198.959,470.16 202.931,471.562
        205.969,472.029 207.838,470.627 209.938,471.793 209.939,471.792 207.836,470.624 205.967,472.026 202.929,471.559
        198.957,470.157 195.69,469.457 195.688,469.459  "/>
    <polygon fill="" stroke="#005293" stroke-width="2" stroke-miterlimit="10" points="172.833,432.203 176.019,431.991
        177.29,431.102 177.288,431.099 176.017,431.988 172.831,432.2 170.709,429.653 170.709,429.654    "/>

        <rect x="180.032" y="432.398" fill="" stroke="#005293" stroke-width="2" stroke-miterlimit="10" width="0.002" height="4.019"/>
    <polygon fill="" stroke="#005293" stroke-width="2" stroke-miterlimit="10" points="199.428,450.299 203.399,453.803
        203.398,453.801 199.426,450.296 196.39,446.794 196.39,446.794   "/>
    <polygon fill="" stroke="#005293" stroke-width="2" stroke-miterlimit="10" points="187.044,441.186 190.315,442.822
        192.885,442.588 195.923,442.588 197.79,441.888 197.79,441.884 195.921,442.585 192.883,442.585 190.313,442.819 187.042,441.183
        182.837,441.884 182.838,441.887     "/>
    <polygon fill="" stroke="#005293" stroke-width="2" stroke-miterlimit="10" points="216.335,482.67 222,483 216.333,482.667
        213.875,483.404 213.874,483.408     "/>
    <path fill="" stroke="#005293" stroke-width="2" stroke-miterlimit="10" d="M138.779,464.214
        c-0.072-0.139-0.13-0.278-0.175-0.417c-0.009-0.028-0.015-0.056-0.023-0.084c-0.04-0.146-0.068-0.291-0.068-0.432
        c0-1.517,1.349-0.674,1.854-0.674c0.506,0,1.686-0.843,2.697-1.011c0.569-0.095,0.284-0.725-0.074-1.256
        c0.357,0.531,0.641,1.158,0.072,1.253c-1.011,0.168-2.191,1.011-2.697,1.011c-0.505,0-1.854-0.843-1.854,0.674
        c0,0.141,0.028,0.286,0.068,0.432c0.008,0.028,0.014,0.056,0.023,0.084c0.045,0.139,0.103,0.278,0.175,0.417
        c0.016,0.03,0.033,0.059,0.049,0.088c0.073,0.132,0.154,0.264,0.245,0.393c0,0,0.001,0.001,0.001,0.001
        c-0.09-0.128-0.171-0.26-0.244-0.391C138.812,464.273,138.795,464.244,138.779,464.214z"/>
    <polygon fill="" stroke="#005293" stroke-width="2" stroke-miterlimit="10" points="211.576,480.206 213.911,483.241
        213.911,483.241 211.574,480.203 208.772,476.468 208.772,476.468     "/>
    <polygon fill="" stroke="#005293" stroke-width="2" stroke-miterlimit="10" points="208.77,476.465 208.772,476.468
        209.006,473.898 209.941,471.795 209.938,471.793 209.004,473.895     "/>
    <polygon fill="" stroke="#005293" stroke-width="2" stroke-miterlimit="10" points="196.388,446.791 196.39,446.794
        197.792,444.224 197.792,441.887 197.79,441.888 197.79,444.221   "/>
    <polygon fill="" stroke="#005293" stroke-width="2" stroke-miterlimit="10" points="203.865,459.175 202.93,462.446
        199.892,465.25 197.789,467.119 195.686,469.456 195.69,469.457 197.791,467.122 199.894,465.253 202.932,462.449 203.867,459.178
        205.503,457.542 203.4,453.804 203.399,453.803 205.501,457.539   "/>
        <rect x="213.811" y="483.321" transform="matrix(-0.2314 0.9728 -0.9728 -0.2314 733.5959 387.0956)" fill="" stroke="#005293" stroke-width="2" stroke-miterlimit="10" width="0.165" height="0.003"/>
    <path fill="" stroke="#005293" stroke-width="2" stroke-miterlimit="10" d="M140.986,466.609c0,0,0,0-0.001,0
        c-0.001,0-0.001-0.001-0.001-0.001s-0.001-0.001-0.002-0.001c-0.023-0.017-0.062-0.048-0.097-0.076
        c-0.019-0.015-0.029-0.022-0.051-0.04c-0.068-0.054-0.154-0.125-0.246-0.203c-0.017-0.014-0.032-0.027-0.05-0.042
        c-0.095-0.081-0.198-0.171-0.308-0.272c-0.013-0.012-0.027-0.025-0.04-0.038c-0.098-0.091-0.199-0.188-0.302-0.291
        c-0.025-0.025-0.05-0.049-0.075-0.075c-0.11-0.112-0.219-0.23-0.326-0.353c-0.026-0.03-0.052-0.06-0.078-0.091
        c-0.11-0.129-0.216-0.262-0.314-0.398c-0.009-0.012-0.015-0.023-0.023-0.035c0,0.001,0.001,0.001,0.001,0.002
        c0.008,0.012,0.015,0.024,0.024,0.036c0.098,0.136,0.204,0.269,0.314,0.398c0.026,0.031,0.052,0.061,0.078,0.091
        c0.107,0.123,0.216,0.241,0.326,0.353c0.025,0.026,0.05,0.05,0.075,0.075c0.103,0.103,0.204,0.2,0.302,0.291
        c0.013,0.013,0.027,0.026,0.04,0.038c0.11,0.101,0.213,0.191,0.308,0.272c0.018,0.015,0.033,0.028,0.05,0.042
        c0.092,0.078,0.178,0.149,0.246,0.203c0.022,0.018,0.032,0.025,0.051,0.04c0.032,0.025,0.065,0.051,0.089,0.069
        c-0.023-0.018-0.058-0.045-0.091-0.071c0.036,0.028,0.076,0.06,0.099,0.077H140.986l-0.001,0.001l-0.001-0.001
        c-0.001,0-0.001-0.001-0.002-0.001c0.001,0.001,0.003,0.002,0.004,0.003c0.001,0,0.002,0.001,0.002,0.001
        c0.029,0.022,0.049,0.037,0.05,0.038l0.001-0.001C141.039,466.649,141.017,466.632,140.986,466.609z M140.833,466.491
        c0.022,0.018,0.032,0.025,0.051,0.04C140.865,466.516,140.855,466.509,140.833,466.491z"/>
    <path fill="" stroke="#005293" stroke-width="2" stroke-miterlimit="10" d="M139.859,456.199l-3.54-1.349l-2.358-2.527l0,0.001
        l2.36,2.529l3.54,1.349l2.529,3.371c0,0,0.322,0.354,0.6,0.767c-0.278-0.414-0.602-0.77-0.602-0.77L139.859,456.199z"/>
    <path fill="" stroke="#005293" stroke-width="2" stroke-miterlimit="10" d="M332.76,512.831l-1.884-1.06l-2.355-3.651
        l-2.12-5.3l-1.649-2.827l-3.533-3.651l-1.296-2.238c0,0,0.235-2.12,0.471-2.591c0.236-0.471,2.827-2.591,2.827-2.591l0.824-2.591
        c0,0-1.413-1.413-2.002-1.649c-0.589-0.235-0.471-2.002-0.471-2.002l-0.707-2.473l-1.283-3.185l-3.975,7.227l-4.019,2.115
        l-10.998,1.057l-6.345-0.846l-4.23,0.211l-3.173,4.23c0,0-3.596-1.692-3.807-2.75c-0.212-1.057-1.481-4.018-1.481-4.018
        s-1.48-0.846-2.538,0.211c-1.058,1.057-4.442,1.692-4.442,1.692l-1.904-2.538l-2.538-3.172l-2.538,0.423l-3.384-2.538l-2.961-2.115
        l-4.23,0.211l-4.442-1.904l-4.23,2.115c0,0,1.057,2.538,1.057,3.173c0,0.635-0.423,5.288-0.423,5.288l-4.019,3.172h-2.446L242,485
        l1.333-2.667l-0.667-3h-2.333L237,480l-3.666-1.666l-1,2.333L229.667,482l-2-2L225,480.333L222,483l-5.665-0.33l-2.461,0.738
        l0.001-0.004l-0.003,0.001l0.039-0.164l-2.335-3.035l-2.804-3.738l0,0l-0.002-0.003l0.234-2.57l0.934-2.101l-2.1-1.167
        l-1.869,1.402l-3.038-0.467l-3.972-1.402l-3.271-0.701l0.002-0.002l-0.004-0.001l2.103-2.337l2.103-1.869l3.038-2.804l0.935-3.271
        l1.636-1.636l-2.102-3.735l-3.971-3.505l-3.038-3.505l0,0l-0.002-0.003l1.402-2.57v-2.333l-1.867,0.7h-3.038l-2.57,0.234
        l-3.271-1.636l-4.206,0.701l-0.001-0.003l-0.001,0l-1.168-6.307l-3.269-2.336l-0.001-0.003l-0.001,0l-1.107-2.136l-1.271,0.889
        l-3.186,0.212l-2.124-2.549l0-0.001l-0.002-0.002l-1.061-2.971l-2.803-1.77l-0.853,0.948l-3.034,1.517l-4.046,1.18l-3.203,1.686
        l-1.686,1.517l-2.529-1.18l-2.023,0.337c0,0-0.169,1.011-0.169,1.517c0,0.506,0.169,2.866,0.169,2.866l-4.72,2.529l-3.371,2.36
        l-0.843,2.023l-1.517,3.203l-2.023,2.191l-2.191,2.023l-0.843,2.696l2.358,2.527l3.54,1.349l2.529,3.371
        c0,0,0.323,0.356,0.602,0.77c0.358,0.532,0.644,1.161,0.074,1.256c-1.011,0.168-2.191,1.011-2.697,1.011
        c-0.505,0-1.854-0.843-1.854,0.674c0,0.141,0.028,0.286,0.068,0.432c0.008,0.028,0.014,0.056,0.023,0.084
        c0.045,0.139,0.103,0.278,0.175,0.417c0.016,0.03,0.033,0.059,0.049,0.088c0.073,0.131,0.153,0.263,0.244,0.391
        c0.008,0.012,0.015,0.023,0.023,0.035c0.098,0.136,0.204,0.269,0.314,0.398c0.026,0.031,0.052,0.061,0.078,0.091
        c0.107,0.123,0.216,0.241,0.326,0.353c0.025,0.026,0.05,0.05,0.075,0.075c0.103,0.103,0.204,0.2,0.302,0.291
        c0.013,0.013,0.027,0.026,0.04,0.038c0.11,0.101,0.213,0.191,0.308,0.272c0.018,0.015,0.033,0.028,0.05,0.042
        c0.092,0.078,0.178,0.149,0.246,0.203c0.022,0.018,0.032,0.025,0.051,0.04c0.035,0.028,0.074,0.059,0.097,0.076
        c0.001,0,0.002,0.001,0.002,0.001s0,0.001,0.001,0.001c0.001,0,0.001,0,0.001,0c0.031,0.023,0.053,0.04,0.053,0.04l-0.001,0.001
        c0,0,0.003,0.002,0.003,0.002l-0.843,1.686l-2.697,1.18c0,0-2.191-0.337-2.191,0.843s-0.506,4.046-1.349,4.046
        c-0.843,0-3.54-0.674-3.54-0.674s-1.348-1.517-2.191-1.854c-0.843-0.337-4.72-0.506-4.72-0.506l-2.191,2.529l-1.854,1.349
        l-2.023-1.18l-2.697-2.023l-1.686-2.529l-2.529-2.36l-4.551,1.517l-3.034,1.517h-4.046l-6.069,0.169l-2.749-0.485
        c-0.358,2.302-2.31,3.371-3.101,3.936c-1.072,0.766-3.37,1.532-3.37,1.532s-1.838,0.153-2.757,0s0.153-1.532,0-2.145
        c-0.153-0.612-1.838-2.604-1.838-2.604s-3.83-0.153-4.902,0s-3.217,1.838-3.217,1.838s-1.532,2.604-1.532,3.983
        c0,1.379,1.072,1.532,1.072,1.532s1.073,1.838,1.226,2.451c0.153,0.613,1.531,0.919,1.991,2.298
        c0.46,1.378-0.919,3.063-1.838,4.289c-0.919,1.226-2.758,2.298-4.289,2.145c-1.531-0.153-2.144-2.145-2.757-3.064
        c-0.613-0.919-1.839-3.983-3.677-3.83s-0.613,2.145-1.532,2.451c-0.919,0.306-1.685,0.153-2.298,0.766
        c-0.612,0.613-0.766,2.451-1.838,2.911c-1.072,0.459-3.83,0.766-5.515,1.685c-1.685,0.919-1.225,2.144-1.838,2.757
        c-0.613,0.613-3.983,0.46-4.596,1.379c-0.613,0.919-2.451,3.829-2.911,4.289c-0.459,0.459-3.983,3.523-4.136,4.289
        c-0.153,0.766,0.92,2.604,1.226,3.217c0.306,0.613,3.983,4.29,5.668,5.362s3.064,3.829,2.451,5.055
        c-0.613,1.226-1.532,2.451-1.685,3.83c-0.153,1.379,1.532,2.757,1.379,4.136s-0.306,3.217-1.072,3.217s-1.685,0-1.379-0.613
        c0.306-0.612-1.379-2.604-2.451-3.523c-1.072-0.919-2.757-0.919-2.757-0.919s-3.217-0.307-3.83-0.46
        c-0.613-0.154-2.145-2.605-3.064-2.911c-0.92-0.306-2.911,0-2.911,0s-1.991,3.064-2.604,3.83c-0.613,0.766-1.992,1.839-2.298,2.911
        c-0.307,1.072-0.154,3.983,0.306,4.749c0.46,0.765,1.226,0.919,1.532,1.991c0.306,1.072-2.298,0.766-3.064,0.919
        c-0.766,0.153-3.676-0.613-4.289-0.46c-0.613,0.153-2.604,3.064-3.37,3.983c-0.766,0.919-3.064,1.685-3.677,3.37
        c-0.613,1.685-1.685,3.371-1.685,4.749s2.298,2.757,3.83,3.37c1.532,0.612,2.91,1.991,4.289,3.523
        c1.378,1.532,2.451,3.217,3.37,3.983s3.676,3.217,5.055,5.055c1.379,1.838,1.685,3.83,2.145,5.821s2.145,4.136,2.451,5.208
        c0.306,1.072,26.655-1.379,27.574-1.379s5.668-4.596,7.506-6.128s7.506-1.992,9.804-2.911c2.298-0.92,5.821-1.839,8.272-2.911
        s7.66-1.072,9.651-1.838c1.991-0.766,6.74-2.758,9.957-3.83c3.217-1.072,8.579,1.379,11.336,3.064
        c2.757,1.685,7.812,9.957,9.191,10.57c1.379,0.613,5.056,4.749,6.128,6.128c1.072,1.379,2.451,5.668,3.217,7.813
        c0.765,2.145,1.225,7.66,1.991,9.345s1.992,7.813,1.379,9.498c-0.613,1.686-1.839,5.668-1.992,6.894c0,0-0.08,1.104,0.203,1.612
        c0.425,0.641,0.98,1.409,1.674,1.729c1.156,0.534,3.558,1.779,3.558,1.779l2.491-2.135l4.626,0.534l2.313,0.89l3.114,0.534h2.402
        c0,0,4.359,0.267,5.338-0.089s0.623-0.623,2.669-0.89c2.046-0.267,6.138,0.178,6.138,0.178l2.847,0.089l2.751,0.395
        c2.917-1.636,9.074-3.608,10.11-4.298c1.395-0.931-3.489-9.769-3.489-10.932c0-1.163,3.954-1.396,4.652-2.326
        c0.697-0.931-1.861-4.652-1.861-5.815s3.954-1.163,4.884-1.396c0.93-0.233,0-2.093,0.465-3.489
        c0.465-1.396,3.721-1.628,3.721-2.326c0-0.666,4.017-0.696,5.598-0.9l2.785,2.695l6.199,2.841l7.232,0.258l4.391-0.517l3.1-2.583
        l3.875,2.325l3.358-0.258l4.391-2.066c0,0,1.809,3.358,3.875,3.616c2.066,0.258,3.874,2.066,6.974-0.517
        c3.1-2.583,1.033-4.649,5.166-4.649s6.199,0.775,7.491,0c1.292-0.775,5.683-4.133,5.683-4.133l3.358-3.616l1.55-2.325l0.258-2.066
        l5.424,2.325l5.941,0.517l3.875,0.517l4.822,3.215c0.368-0.727,0.534-0.977,0.62-1.905c0.076-0.854-1.838-3.737-1.838-3.737
        s2.757-2.757,3.37-3.37c0.613-0.613-0.766-0.613-0.613-1.379s-1.685-5.055-2.451-5.821s-4.136-3.37-4.136-3.37
        s-4.442,0.307-5.515,0.46s-1.379-3.37-1.226-4.749c0.153-1.378,1.532-2.297,3.064-2.757c1.532-0.46-0.306-2.298-0.306-3.217
        s-0.46-4.596,0.153-5.515c0.613-0.919,4.29-4.749,5.362-5.668c1.072-0.919,5.208-0.919,7.2-1.072
        c1.991-0.153,7.047-0.306,7.353-1.072c0.307-0.766,2.145-1.838,2.911-1.838s1.991,0,2.451,0.153
        c0.46,0.153,1.838,1.378,2.451,1.991c0.612,0.613,2.451,1.685,3.523,1.532s1.072,1.073,0.153,1.379s-1.532,1.992-1.379,3.37
        c0.153,1.378,0.613,2.91,1.685,2.604c1.072-0.306,3.829-2.144,4.289-2.757c0.459-0.613,2.451-3.83,2.757-4.596
        c0.307-0.766,3.064-2.604,3.064-2.604s0-1.685,0.153-2.757s3.83-4.289,4.902-5.055c0.875-0.625,3.584,0.177,5.551,0.827l0-0.001
        c-0.001,0-0.001,0-0.002-0.001c0.001,0,0.001,0,0.002,0.001l0.898-4.02l1.296-2.827l1.06-1.649l0.118-1.767L332.76,512.831z"/>
        <rect x="176.64" y="432.17" transform="matrix(0.4603 0.8878 -0.8878 0.4603 479.6539 75.3649)" fill="" stroke="#005293" stroke-width="2" stroke-miterlimit="10" width="2.406" height="0"/>
        <rect x="168.599" y="428.166" transform="matrix(0.3364 0.9417 -0.9417 0.3364 516.1422 123.8721)" fill="" stroke="#005293" stroke-width="2" stroke-miterlimit="10" width="3.156" height="0.001"/>
        <rect x="179.046" y="438.729" transform="matrix(0.182 0.9833 -0.9833 0.182 580.4767 179.6587)" fill="" stroke="#005293" stroke-width="2" stroke-miterlimit="10" width="6.413" height="0.002"/>
        <polygon fill="" stroke="#005293" stroke-width="2" stroke-miterlimit="10" points="140.982,466.608 140.982,466.608
        140.976,466.603"/>
        <path fill="" stroke="#005293" stroke-width="2" stroke-miterlimit="10" d="M140.885,466.532
        c0.033,0.026,0.068,0.053,0.091,0.071c0.002,0.001,0.005,0.004,0.007,0.005c0.001,0,0.001,0.001,0.002,0.001
        C140.961,466.592,140.921,466.56,140.885,466.532z"/>
        <polygon fill="" stroke="#005293" stroke-width="2" stroke-miterlimit="10" points="140.986,466.61 140.984,466.609
        140.985,466.61"/>
        </g>
    </g>
</g>
<g>
    <g id="nordhessen">
        <g>
            <path fill="" stroke="#005293" stroke-width="2" stroke-miterlimit="10" d="M540.727,189.183
            c0.153,0.766,2.298,2.145,2.298,2.145s2.757,2.451,3.37,2.451s0.613-3.523,0.613-3.523l0.153-7.047l0.306-5.974l0.306-3.83
            l2.145-1.838l1.532-1.992l-1.532-1.379c0,0-2.757-0.153-3.523-0.153s-3.064-1.226-3.064-1.226l-2.757-2.757l-1.991-3.37
            l-4.749-0.46c0,0-2.298-2.757-2.757-2.757c-0.46,0-3.523-0.766-3.523-0.766l-4.289-1.532l-4.596-0.766l-3.677-1.072v-3.523
            l-1.532-1.838l-2.298-1.072l-1.838-1.685l1.685-1.226l1.072-1.532v-2.145c0,0-2.145-1.685-2.757-1.991
            c-0.613-0.306-4.749-1.226-4.749-1.226l-3.064-2.298l-3.217-0.766l-2.757-0.613l-2.757-1.992l-1.838-1.685l-3.37-1.991l0.153-1.991
            l0.613-2.298l-0.613-3.064l-0.613-2.757l-1.226-4.749l-0.766-5.208l0.306-2.911l-1.685-3.523l-1.685-4.136
            c0,0-1.838-2.604-2.298-2.911c-0.46-0.306-0.766-0.919-0.766-0.919l-1.226,0.613c0,0-1.072,0.919-1.532,1.072
            c-0.46,0.153-0.919,0.919-0.919,0.919l-2.298,0.153l-0.919-1.379l-1.685-0.919l-0.766,0.919l-0.919,1.991l0.613,2.911l1.532,5.208
            l1.072,2.604l-1.838,1.685l-1.992-2.145l-0.306-2.451l-0.919-3.677l-1.532-3.37l-3.523-1.992c0,0-3.064-0.306-3.83-0.153
            s-0.919,2.145-0.919,2.145l0.766,3.217l-1.685,2.757l-2.145,0.613l-3.83-0.46l-1.685,1.532l-1.532,1.226l-1.838,1.226l-2.145,0.306
            h-1.532l-2.757,0.919l-0.153,2.911l0.613,1.685l1.072,1.226l1.685,1.685c0,0,0.766,1.685,0.919,2.145s0.153,3.217,0.153,3.217
            l1.379,2.451l0.613,1.226l0.46,0.613l1.072,0.306l1.992-2.298l1.072-0.919l1.379-0.306l1.072,0.766l0.153,1.379l-0.153,1.992
            l-1.226,1.685l-2.145,1.992l-2.145,0.919l-1.685,1.838l-1.379,0.306l-1.992-1.226l-2.757-1.379l-3.523-2.298l-3.37-1.991
            l-2.757,0.306l-3.677,0.153l-3.064-0.153l-0.153-3.37l-1.072-1.226h-4.136l-5.515-4.902l-4.443-0.919l-1.991-2.604l-3.217-1.992
            l-1.838-1.379l1.226-0.766l2.451,1.532c0,0,3.677,0.919,5.362,0.613s0.919-3.523,0.153-3.983s-3.217-1.991-3.983-3.064
            c-0.766-1.072,3.217-2.911,4.902-4.749s3.064-0.613,4.749-0.613s4.443-2.911,5.362-4.289s3.217-7.047,3.37-7.66
            c0.153-0.613-0.153-8.885-0.153-9.498s0.919-3.523,0.919-3.523l-3.523-3.83l-4.596-7.2l-2.451-4.136l0.46-1.532
            c0,0,2.451-1.532,3.523-1.838c1.072-0.306,1.991-3.37,2.604-3.83s4.596-1.072,5.668-1.072s1.838-2.604,1.992-3.983
            s-3.523-3.064-4.902-3.83c-1.379-0.766-1.838-2.604-1.685-4.443c0.153-1.838,1.072-1.838,2.145-1.991s3.064,2.145,3.983,2.911
            s3.523,3.064,5.055,3.523c1.532,0.46,2.298-0.766,2.604-3.677s-3.523-5.668-4.289-6.281s-4.443-4.749-5.362-4.749
            s-2.451-2.604-2.451-3.983s-0.306-3.217-0.919-4.596s-2.145-0.766-3.677-0.306c-1.532,0.46-2.505,1.824-2.505,1.824
            c-0.577,0.165-5.684,0.165-6.466,0.165s-2.059-2.471-3.254-3.83c-1.194-1.359-1.524-0.288-1.524-0.288s-3.13,2.759-4.201,3.377
            c-1.071,0.618-2.471,0.329-2.595,0.371c-0.124,0.041-2.718-2.677-2.718-2.677l-0.494-3.871c0,0-0.165-3.871-1.194-4.777
            c-1.03-0.906-2.718-0.618-2.718-0.618l-2.965,1.318l-3.583,2.224l-2.1,3.212L378.5,19.56l-4.283,1.153l-5.931,0.659l-1.771,1.236
            l-3.954,1.524l-2.924,1.977l1.236,2.471l1.689,1.606l2.636,1.483l0.494,1.647l-3.089,2.965l-2.265,3.954l-4.572,5.313l-1.071,1.236
            l0.165,7.537l-0.741,1.277l-1.936,0.824l-3.377,0.206l-1.071,0.906l-2.389,2.183l-2.842,2.389l-3.254,0.577l-0.741,1.771
            l-1.483,1.277l-2.759,0.659l-1.771,1.524l1.112,1.441l0.247,2.883l-0.618,1.977l-2.801-0.577c0,0-3.46-0.247-3.624-0.247
            s-2.265,0.947-2.265,0.947l-1.73,4.324c0,0-2.142,0.906-2.924,0.906s-4.983-0.247-5.107-0.288s-1.153-0.412-1.153-0.412
            l-2.842,0.783l-1.894-0.412l-0.988-1.03l-0.783-1.03l-0.577-1.853l-0.371-1.4l-0.082-1.483l0.206-1.153l0.535-1.524l1.03-1.236
            l0.494-1.318l0.618-1.73l0.124-1.194l-0.082-1.853l-1.565-1.771l-2.553-0.165l-3.542-0.453l-2.265-0.329l-2.595-0.247l-1.689-1.812
            l-1.359-0.824l-1.977,0.741l-1.895,0.865l-2.636,0.947l-3.171,0.206l-2.553,0.947l-1.647,1.236l-2.924,1.565
            c0,0-2.931,0.687-3.391,0.533s-3.064,0.46-4.443,0.766s-2.451,1.685-3.37,3.064s3.217,4.902,4.136,6.281
            c0.919,1.379,1.991,2.298,2.145,4.749c0.154,2.451,0,4.136,2.451,5.208s3.523,1.685,3.523,2.145s-0.46,3.983-0.766,4.902
            s0.46,3.064,0.306,4.749s-2.298,1.838-3.217,1.838s-3.523-1.226-5.208-1.532s-3.677,0.766-5.055,1.226
            c-1.379,0.46-3.983,2.451-5.208,2.604c-1.226,0.153-2.145-0.766-3.217-1.838s-4.289-0.766-5.208-1.072
            c-0.919-0.306-5.668-0.306-7.353,0.153c-1.685,0.46-4.902,2.757-6.281,3.523c-1.379,0.766-3.37,1.072-4.443,0.919
            s-4.902-0.766-6.587-0.613s-3.983-0.153-4.596,0.46c-0.613,0.613-1.379,2.451-1.838,3.83c-0.46,1.379-1.226,1.532-2.298,1.992
            s-0.919,1.838-1.532,2.911c-0.613,1.072-1.991,1.532-2.911,1.379c-0.919-0.153-3.523,1.685-3.523,1.685s-2.451,3.217-3.37,4.749
            s-1.226,3.83-1.838,4.749c-0.613,0.919-2.604,2.911-3.83,3.83s-2.911,3.217-3.523,5.208c-0.613,1.991,0.766,3.37,1.685,3.677
            c0.919,0.306,2.298,3.064,3.37,4.289c1.072,1.225,1.379,3.523,2.757,4.136c1.379,0.613,3.064-0.306,3.83-0.613
            s2.451-2.757,2.911-3.217c0.46-0.46,3.217-0.919,3.983-0.919s4.289-1.072,5.362-1.532c1.072-0.46,3.217-2.451,3.523-2.911
            c0.306-0.46,2.757,0.766,3.37,1.379c0.613,0.613,3.677,2.298,4.443,2.604c0.766,0.306-0.153,2.911-0.46,4.443
            s0.153,6.128,0.46,8.272c0.306,2.145,2.757,4.749,3.677,5.515c0.919,0.766,2.604,2.298,1.685,3.217s-1.532,2.604-1.532,2.604
            s-0.613,4.902-1.072,6.74c-0.46,1.838-4.136,5.055-5.821,6.587c-1.685,1.532-5.208,5.821-5.821,7.2s-0.306,3.37,0.153,5.055
            c0.46,1.685,4.443,1.072,4.596,2.911c0.153,1.838-3.217,0.306-5.055,0.306s-2.298,0-4.749,1.226
            c-2.451,1.226-2.911,3.523-3.523,3.523c-0.613,0-3.217-0.919-3.83-0.919s-5.055-1.838-5.668-1.991s-5.821-0.306-7.506-0.46
            c-1.685-0.153-5.208-0.613-6.587-0.306c-1.379,0.306-4.596,1.838-5.974,3.064s-2.451,5.208-1.991,6.74s1.532,4.443,1.685,5.362
            s-1.685,3.523-1.991,4.902s0.919,1.991,1.532,2.145c0.613,0.153,1.072,0.766,1.379,1.379c0.306,0.613,0.46,2.451,0.766,3.83
            s-1.379,2.757-1.991,3.37c-0.613,0.613-3.37,3.217-4.289,4.289s-3.37,4.289-4.902,5.821c-0.735,0.735-1.893,2.07-3,3.412L174,238.5
            l8.5,5.5h8.5l8.5,2l6.5-3.5l5.5-4.5l2-5l6-0.5l3,0.5l3,4.5h3v4l7-4.5l5,7.5H251l1.5-2l5.5,1.5l7,3l1.5-2.5V240l6.5,2.5l4,6.5l3,4
            h0.5l4,2l2.5,1.5l1,4.5l4,2l1.5-5l3-1l4.5,2.5l4.5-1l5.5,2.5l1.5,5.5l-4,2.5l4.5,6.5l2,2.5l2.192,7.892L317.5,287l5,0.5l6,4l6-2
            l1.5,2.5h5.5v5.5l5,0.5l6-1.5l3,4l7.5-1.5l1,4l5,5.5l2.5-6l8.79,0.326L381,301l4-3l9-5l1.5-7l-4-8l1-7l-3.5-6l5-5l-0.5-5.5l5-3.5
            l9-1.5l-3-4.5l-0.5-5l2.5-5l3.5-0.5l-0.5-1.5l-1-6l0.5-4h4l8.5-4l1.5-4.5l2-2.5l5.5-2l5-4.5l7,2l7-0.5l2.327-2.473L451.5,204.5
            l0.327,0.027l0,0l0,0L457.5,205l3.5-0.5l2.5,4l4.5,1.5l3,2.5l1.5,3.5l6,1.5l5-2l5,0.5l4.5,4.5l2-0.5l4.5,4l-4,7.5l4,3h3.931v-0.001
            c0.2-0.443,0.743-1.651,0.991-2.271c0.306-0.766,2.451-1.072,2.451-1.072s3.677-0.766,4.289-0.766s4.902-0.306,4.902-0.306
            s4.902,2.145,5.515,2.145c0.613,0,4.289,1.072,4.902,1.226c0.613,0.153,1.072-0.766,1.072-0.766l2.145-0.766l1.685,0.613
            l1.685,2.298c0,0,2.298,0.613,3.064,0.46c0.766-0.153,3.677-0.153,3.677-0.153s3.983-3.217,4.596-3.677
            c0.613-0.46,1.685-4.902,1.685-5.362s-0.766-1.379-1.072-1.991c-0.306-0.613,0.46-1.379,0.919-1.532s2.604,0.153,2.604,0.153
            l0.46-2.911l-4.749-2.757l-5.362-1.991c0,0-2.911-2.604-3.677-2.911c-0.766-0.306-0.46-6.128-0.46-6.128s0.919-5.208,0.919-5.821
            c0-0.613,3.064-3.83,3.523-3.83c0.46,0-0.153-3.064-0.153-3.064s-1.379-1.379-1.838-1.532c-0.46-0.153-2.451-1.072-2.451-1.072
            l-2.911-1.991c0,0-2.451-2.604-2.911-3.37s1.072-2.298,1.072-2.298l2.298-1.226c0,0,2.451-0.766,3.217-1.072s3.37,0.766,3.83,0.766
            s1.226,2.911,0.919,3.523C539.961,185.66,540.573,188.417,540.727,189.183z"/>
        </g>
    </g>
</g>
<g>
    <g id="geotag-kassel100_pin">
        <path id="location-icon_5_" fill="" stroke="#005293" stroke-miterlimit="10" d="M394.533,97.333c-4.97,0-9,4.065-9,9.08
            s3.939,10.843,9,19.587c5.061-8.744,9-14.572,9-19.587C403.533,101.399,399.504,97.333,394.533,97.333z M394.533,109.449
            c-1.783,0-3.228-1.458-3.228-3.256s1.445-3.256,3.228-3.256s3.228,1.458,3.228,3.256S396.316,109.449,394.533,109.449z"/>
    </g>
    <g id="geotag-kassel100">
        <path fill="" stroke="#005293" stroke-linejoin="round" stroke-miterlimit="10" d="M512.755,189.159
            c0,1.657-1.343,3-3,3h-171c-1.657,0-3-1.343-3-3v-58c0-1.657,1.343-3,3-3h171c1.657,0,3,1.343,3,3V189.159z"/>
    </g>
</g>
<g>
    <g id="geotag-korbach100_pin">
        <path id="location-icon_8_" fill="" stroke="#005293" stroke-miterlimit="10" d="M260,108c-4.97,0-9,4.065-9,9.08
            s3.939,10.843,9,19.587c5.061-8.744,9-14.572,9-19.587C269,112.065,264.971,108,260,108z M260,120.116
            c-1.783,0-3.228-1.458-3.228-3.256s1.445-3.256,3.228-3.256s3.228,1.458,3.228,3.256S261.783,120.116,260,120.116z"/>
    </g>
    <g id="geotag-korbach100">
        <path fill="" stroke="#005293" stroke-linejoin="round" stroke-miterlimit="10" d="M306.755,199.159
            c0,1.657-1.343,3-3,3h-171c-1.657,0-3-1.343-3-3v-58c0-1.657,1.343-3,3-3h171c1.657,0,3,1.343,3,3V199.159z"/>
    </g>
</g>
<g>
    <g id="geotag-badhersfeld100_pin">
        <path id="location-icon_6_" fill="" stroke="#005293" stroke-miterlimit="10" d="M434.667,249.333c-4.97,0-9,4.065-9,9.08
            c0,5.015,3.939,10.843,9,19.587c5.061-8.744,9-14.572,9-19.587C443.667,253.399,439.637,249.333,434.667,249.333z M434.667,261.449
            c-1.783,0-3.228-1.458-3.228-3.256s1.445-3.256,3.228-3.256s3.228,1.458,3.228,3.256
            C437.894,259.991,436.449,261.449,434.667,261.449z"/>
    </g>
    <g id="geotag-badhersfeld100">
        <path fill="" stroke="#005293" stroke-linejoin="round" stroke-miterlimit="10" d="M523.124,340.475
            c0,1.657-1.343,3-3,3h-171c-1.657,0-3-1.343-3-3v-58c0-1.657,1.343-3,3-3h171c1.657,0,3,1.343,3,3V340.475z"/>
    </g>
</g>
<g>
    <g id="geotag-fulda100_pin">
        <path id="location-icon_7_" fill="" stroke="#005293" stroke-miterlimit="10" d="M429.333,357.333c-4.97,0-9,4.065-9,9.08
            c0,5.015,3.939,10.843,9,19.587c5.061-8.744,9-14.572,9-19.587C438.333,361.399,434.304,357.333,429.333,357.333z M429.333,369.449
            c-1.783,0-3.228-1.458-3.228-3.256s1.445-3.256,3.228-3.256s3.228,1.458,3.228,3.256S431.116,369.449,429.333,369.449z"/>
    </g>
    <g id="geotag-fulda100">
        <path fill="" stroke="#005293" stroke-linejoin="round" stroke-miterlimit="10" d="M517.893,448.476
            c0,1.657-1.343,3-3,3h-171c-1.657,0-3-1.343-3-3v-58c0-1.657,1.343-3,3-3h171c1.657,0,3,1.343,3,3V448.476z"/>
    </g>
</g>
<g>
    <g id="geotag-giessen100_pin">
        <path id="location-icon_10_" fill="" stroke="#005293" stroke-miterlimit="10" d="M210.667,344.667c-4.97,0-9,4.065-9,9.08
            c0,5.015,3.939,10.843,9,19.587c5.061-8.744,9-14.572,9-19.587C219.667,348.732,215.637,344.667,210.667,344.667z M210.667,356.783
            c-1.783,0-3.228-1.458-3.228-3.256s1.445-3.256,3.228-3.256s3.228,1.458,3.228,3.256
            C213.894,355.325,212.449,356.783,210.667,356.783z"/>
     </g>
     <g id="geotag-giessen100">
        <path fill="" stroke="#005293" stroke-linejoin="round" stroke-miterlimit="10" d="M299.194,435.907
            c0,1.657-1.343,3-3,3h-171c-1.657,0-3-1.343-3-3v-58c0-1.657,1.343-3,3-3h171c1.657,0,3,1.343,3,3V435.907z"/>
    </g>
</g>
<g>
    <g id="geotag-marburg100_pin">
        <path id="location-icon_9_" fill="" stroke="#005293" stroke-miterlimit="10" d="M234.667,262.667c-4.97,0-9,4.065-9,9.08
            c0,5.015,3.939,10.843,9,19.587c5.061-8.744,9-14.572,9-19.587C243.667,266.732,239.637,262.667,234.667,262.667z M234.667,274.783
            c-1.783,0-3.228-1.458-3.228-3.256s1.445-3.256,3.228-3.256s3.228,1.458,3.228,3.256
            C237.894,273.325,236.449,274.783,234.667,274.783z"/>
     </g>
     <g id="geotag-marburg100">
        <path fill="" stroke="#005293" stroke-linejoin="round" stroke-miterlimit="10" d="M36.859,262.891
            c0-1.657,1.343-3,3-3h171c1.657,0,3,1.343,3,3v21.58l20.742,7.793l-20.742,8.071v20.556c0,1.657-1.343,3-3,3h-171
            c-1.657,0-3-1.343-3-3V262.891z"/>
    </g>
</g>
<g>
    <g id="geotag-wiesbaden100_pin">
        <path id="location-icon_1_" fill="" stroke="#005293" stroke-miterlimit="10" d="M117.333,511.667c-4.97,0-9,4.065-9,9.08
            s3.939,10.843,9,19.587c5.061-8.744,9-14.572,9-19.587S122.304,511.667,117.333,511.667z M117.333,523.783
            c-1.783,0-3.228-1.458-3.228-3.256s1.445-3.256,3.228-3.256s3.228,1.458,3.228,3.256S119.116,523.783,117.333,523.783z"/>
    </g>
    <g id="geotag-wiesbaden100">
        <path fill="" stroke="#005293" stroke-linejoin="round" stroke-miterlimit="10" d="M184.946,603.092
            c0,1.657-1.343,3-3,3h-171c-1.657,0-3-1.343-3-3v-58c0-1.657,1.343-3,3-3h171c1.657,0,3,1.343,3,3V603.092z"/>
    </g>
</g>
<g>
    <g id="geotag-frankfurt100_pin">
        <path id="geotag-location-icon_2_" stroke="#005293" stroke-miterlimit="10" d="M212,502.667c-4.97,0-9,4.065-9,9.08
            s3.939,10.843,9,19.587c5.061-8.744,9-14.572,9-19.587S216.971,502.667,212,502.667z M212,514.783
            c-1.783,0-3.228-1.458-3.228-3.256s1.445-3.256,3.228-3.256s3.228,1.458,3.228,3.256S213.783,514.783,212,514.783z"/>
    </g>
    <g id="geotag-frankfurt100">
        <path fill="" stroke="#005293" stroke-linejoin="round" stroke-miterlimit="10" d="M410.298,561.926
            c0,1.657-1.343,3-3,3h-171c-1.657,0-3-1.343-3-3v-21.58l-20.742-7.793l20.742-8.071v-20.556c0-1.657,1.343-3,3-3h171
            c1.657,0,3,1.343,3,3V561.926z"/>
    </g>
</g>
<g>
    <g id="geotag-darmstadt100_pin">
        <path id="location-icon_3_" fill="" stroke="#005293" stroke-miterlimit="10" d="M202.667,586.667c-4.97,0-9,4.065-9,9.08
            s3.939,10.843,9,19.587c5.061-8.744,9-14.572,9-19.587S207.637,586.667,202.667,586.667z M202.667,598.783
            c-1.783,0-3.228-1.458-3.228-3.256s1.445-3.256,3.228-3.256s3.228,1.458,3.228,3.256
            C205.894,597.325,204.449,598.783,202.667,598.783z"/>
    </g>
    <g id="geotag-darmstadt100">
        <path fill="" stroke="#005293" stroke-linejoin="round" stroke-miterlimit="10" d="M401.298,645.926
            c0,1.657-1.343,3-3,3h-171c-1.657,0-3-1.343-3-3v-21.58l-20.742-7.793l20.742-8.071v-20.556c0-1.657,1.343-3,3-3h171
            c1.657,0,3,1.343,3,3V645.926z"/>
    </g>
</g>
<g>
    <g id="geotag-michelstadt100">
        <g>
            <path fill="#FFFFFF" stroke="#005293" stroke-linejoin="round" stroke-miterlimit="10" d="M367.946,755.192
                    c0,1.657-1.343,3-3,3h-171c-1.657,0-3-1.343-3-3v-58c0-1.657,1.343-3,3-3h171c1.657,0,3,1.343,3,3V755.192z"/>
        </g>
    </g>
    <g id="geotag-michelstadt100_pin">
        <path id="location-icon_4_" fill="#FFFFFF" stroke="#005293" stroke-miterlimit="10" d="M279.5,663.943c-4.97,0-9,4.065-9,9.08
            s3.939,10.843,9,19.587c5.061-8.744,9-14.572,9-19.587C288.5,668.009,284.471,663.943,279.5,663.943z M279.5,676.059
            c-1.783,0-3.228-1.458-3.228-3.256s1.445-3.256,3.228-3.256s3.228,1.458,3.228,3.256
            C282.728,674.602,281.283,676.059,279.5,676.059z"/>
    </g>
</g>
</svg>