<svg xmlns="http://www.w3.org/2000/svg" width="559" height="789" viewBox="0 0 559 789" xml:space="preserve"><g><g id="suedhessen"><path id="_x3C_suedhessen_x3E_" stroke="#005293" stroke-width="2" stroke-linejoin="round" stroke-miterlimit="10" d="M307.878 661.775c0-1.685-1.072-5.362-2.145-5.821s-5.055-2.145-5.208-2.604 1.226-1.838 2.145-2.604 2.911-2.451 3.064-5.668c.153-3.217-3.83-4.289-4.596-4.289s-3.217 1.838-4.136 1.838-.919-2.757-1.379-3.37-2.145-3.37-2.145-3.983 1.992-1.685 2.145-2.145c.153-.46.153-3.677.306-4.749.153-1.072 1.072-2.298.306-2.604s-2.604-.766-2.604-.766l-1.991 2.145-.306 1.685s-1.685 0-2.145-.153-.153-3.37-.153-3.37h-1.072l-2.145.613v-2.757s-.67-1.342-1.026-2.129a14.724 14.724 0 0 1-.117-.266 3.007 3.007 0 0 1-.083-.209c-.153-.46.306-1.685.919-1.379.613.306 1.532-1.532.919-2.911s-1.226-3.983-1.226-4.596.306-3.83.306-3.83l-1.685-5.668.919-3.83-1.838-6.587s1.072-4.136.919-5.055-.919-2.757-.919-3.37.306-4.596.766-5.668 1.991-.613 2.604-.613c.042 0 .09-.014.143-.037.016-.007.035-.02.052-.029.038-.021.077-.044.119-.074.021-.015.043-.033.065-.051a2.125 2.125 0 0 0 .196-.175c.053-.052.106-.107.161-.168.016-.017.031-.034.047-.052.302-.342.625-.798.897-1.279l-4.822-3.215-3.875-.517-5.941-.517-5.424-2.325-.258 2.066-1.55 2.325-3.358 3.616s-4.391 3.358-5.683 4.133c-1.292.775-3.358 0-7.491 0s-2.066 2.066-5.166 4.649-4.908.775-6.974.517-3.875-3.616-3.875-3.616l-4.391 2.066-3.358.258-3.875-2.325-3.1 2.583-4.391.517-7.232-.258-6.199-2.841-2.785-2.695c-1.581.204-5.598.234-5.598.9 0 .698-3.256.93-3.721 2.326s.465 3.256-.465 3.489c-.93.233-4.884.233-4.884 1.396s2.558 4.884 1.861 5.815c-.698.93-4.652 1.163-4.652 2.326s4.884 10.001 3.489 10.932c-1.036.69-7.193 2.662-10.11 4.298l-2.751-.395-2.847-.089s-4.092-.445-6.138-.178-1.69.534-2.669.89-5.338.089-5.338.089h-2.402l-3.114-.534-2.313-.89-4.626-.534-2.491 2.135s-2.402-1.245-3.558-1.779c-.694-.32-1.289-1.088-1.714-1.729.253 1.008.734 2.117 1.215 2.984.766 1.379 5.668 4.136 6.128 5.974s-1.226 6.74-1.685 9.038 1.685 4.902 2.604 6.281 3.064 5.974 3.523 8.119 1.992 5.515 3.37 7.2c1.379 1.685 7.966 1.226 9.345 1.226s.766 2.451.306 4.289-2.757 3.064-3.83 4.749c-1.072 1.685-3.37 5.055-5.208 6.74-1.838 1.685-6.74 2.145-10.111 3.217s-5.515 4.443-6.434 6.894.919 7.047.919 7.047l1.226 5.362s1.072 5.974 1.072 6.434 1.226 3.217 1.226 3.217 3.677 4.902 3.983 5.974 3.217 6.434 3.217 6.434 4.902.919 5.668 1.379 3.677-1.991 3.677-1.991l2.911.919.153 3.677 3.83 1.226s1.072 1.838 1.685 2.604 2.757.306 3.37.766 2.298 1.838 3.523 5.974c1.226 4.136 9.498 10.877 10.264 11.489.766.613 2.451-.919 3.983-1.991s2.145-.46 4.289-2.145c2.145-1.685 1.992-3.677 3.523-6.74 1.532-3.064-.306-6.587-.919-8.119s-1.991-4.749-2.298-6.587c-.306-1.838.306-5.362.306-6.434s.613-3.83 1.991-3.983 4.902-.766 5.974-.306 3.37-.766 4.749-1.072 5.055-.306 6.128.306c1.072.613-.919 1.685-1.532 1.532-.613-.153-1.379 1.991-1.532 2.604s.613 2.145 1.226 3.217 1.838 1.072 2.145 2.145-.919 1.685-1.685 1.838 0 3.983 0 5.668 2.145 5.055 1.992 5.668c-.153.613 2.451 5.515 3.217 6.281s4.902 1.991 5.974 2.451c1.072.46 3.523 3.37 5.821 4.289s5.208 2.757 7.2 2.911c1.992.153 1.685-1.532 2.298-1.685s1.226.306 1.226 1.226.46 2.451 1.226 3.523 3.37 3.064 5.362 2.911 2.298-1.072 3.83-2.451 1.992-1.838 3.37-1.838 2.451.766 2.451 2.145-.613 3.217-.613 4.596-.153 3.064-.919 3.83-2.451 1.379-2.451 1.379.46-1.838.613-3.37-2.298-1.992-3.523-1.685-2.298.919-3.677 1.838-1.838-.153-3.064 1.379c0 0-.306 3.217-.46 4.596s1.226 4.136 1.991 5.515c.766 1.379 0 3.217-1.226 4.902s-3.983 3.217-4.596 5.362-.153 4.749.306 6.128c.46 1.379 2.298 1.992 3.37 2.145 1.072.153 3.523 1.379 4.902 1.072 1.379-.306 5.362-5.821 7.047-7.353 1.685-1.532 2.911-4.289 3.217-6.128s.153-3.677.613-5.055c.46-1.379 1.532-1.838 2.298-1.226.766.613-.306 2.145-.46 3.064-.153.919.613 2.145 1.532 3.217s5.208-2.451 7.353-4.749c2.145-2.298.153-2.911-.766-4.136s-.766-3.83-.766-5.821c0-1.991 2.757-2.911 3.217-3.983.46-1.072 1.072-5.515 2.145-5.515 1.072 0 2.757-.919 3.37-1.685s2.757.153 3.217.46c.46.306 2.298 2.604 3.523 3.523 1.226.919 7.2.153 8.426 0s3.37-6.281 4.289-7.2 6.128-2.298 7.506-1.685 4.289 4.289 4.902 4.749 1.838-1.072 2.451-2.451-.153-4.289-1.379-5.668-5.821-3.677-6.587-4.443.919-2.757 1.226-3.217c.306-.46.919-3.983.153-6.74s-5.055-6.74-6.74-8.272.153-4.443.613-5.208c.46-.766 4.749-6.128 4.902-7.353s1.685-4.443 1.685-5.821-3.064-6.128-3.064-7.353c0-1.226.766-2.911 1.685-4.136s5.055-1.838 6.434-1.992.766-2.911.766-4.289 1.685-2.911 2.145-3.83c.464-.926 1.842-4.603 1.842-6.288z"/></g></g><g><g id="osthessen"><g id="_x3C_osthessen_x3E_"><path stroke="#005293" stroke-width="2" stroke-miterlimit="10" d="M516.83 357.232c-.306-.919-1.838-6.128-2.298-7.966-.46-1.838-3.983-4.596-4.443-5.208-.46-.613-4.902-.306-6.281-.306-1.379 0-4.596-.766-5.668-.613-1.072.153-4.902 2.298-5.821 2.911-.919.613-3.523 2.757-3.83 3.83-.306 1.072 1.685 1.992 2.145 2.604.46.613 1.379 2.757.919 3.217-.46.46-2.451 3.217-2.911 3.523-.46.306-2.298.153-3.064.153s-3.217-2.298-3.217-2.298l-2.911-1.838s-1.685-.153-2.145 0c-.46.153-1.072 1.532-1.072 1.532l-1.685.153s-.766-1.532-.919-2.145c-.153-.613 1.072-1.838 1.072-1.838s.306-1.685.306-2.145c0-.46-.46-1.685-.613-2.145-.153-.46-.46-3.064-.46-3.064l1.532-1.379s1.532-1.838 2.911-2.911c1.379-1.072.919-.613.919-.613l2.145-1.991 1.379-2.451-.613-1.992-.766-1.685 2.145-1.379 1.226-1.685 1.226-2.145.766-3.064 1.072-2.604-.153-4.443-1.991-1.532-1.226-1.226-.153-2.145 1.226-2.145 1.072.46 1.838.613 1.532-1.838-1.379-4.596s.306-3.064.919-3.83.766-3.064.46-3.83 1.532-3.37 2.145-4.136 2.604-.919 3.37-1.072 4.749 0 5.668.46c.919.46 1.991.766 1.991.766l1.532-1.532 1.072-2.451s1.072-2.145 1.226-2.757c.153-.613.766-1.838.766-1.838l1.379-2.298-.919-1.532-1.072-.919.153-1.072.766-.766 1.992-1.226 2.298-2.298 1.532-1.838.306-2.757-.919-3.217h-1.226l-3.37-1.072-2.298-2.757-3.523-1.992-2.757-.766s-1.838 1.532-2.298 1.838c-.46.306-1.685 1.226-1.685 1.685 0 .46-1.226-1.226-1.226-1.226s-.613-1.685-.613-2.604.153-3.064.153-3.83-1.532-1.226-1.991-.919c-.46.306-2.757 0-3.064.46-.306.46-.919 1.226-.919 1.226l-1.992-2.451.613-1.379.919-.766 1.685-.153 1.379-.306 1.685-.613 1.379.766 1.532 1.226 2.298.46s1.838-1.072 2.451-1.072 1.379.46 2.145.766 3.37-.306 4.136-.306 1.685-3.064 1.379-3.677c-.306-.613-2.298-2.757-2.298-2.757l-1.532-4.902-1.532-3.523.613-3.37s.034-.075.081-.179H499.5l-4-3 4-7.5-4.5-4-2 .5-4.5-4.5-5-.5-5 2-6-1.5-1.5-3.5-3-2.5-4.5-1.5-2.5-4-3.5.5-5.516-.471-.157-.004L449.5 207l-7 .5-7-2-5 4.5-5.5 2-2 2.5-1.5 4.5-8.5 4h-4l-.5 4 1 6 .5 1.5-3.5.5-2.5 5 .5 5 3 4.5-9 1.5-5 3.5.5 5.5-5 5 3.5 6-1 7 4 8-1.5 7-9 5-4 3-.71 1.826-8.79-.326-2.5 6-5-5.5-1-4-7.5 1.5-3-4-6 1.5-5-.5V292H336l-1.5-2.5-6 2-6-4-5-.5-.308-1.108-.993 1.214-1.867 1.68-4.107-.56-2.8.747-1.867 2.053-.56 4.293-5.413.373-1.493 2.987-4.107 1.12-3.173.747-2.613 1.493-.373 3.92-3.733 4.48-5.227.747-4.853 4.853-2.613 4.853-2.987 1.12-2.8 1.867-1.307 2.8 3.555 1.777 1.298.649 4.48 4.293 4.293 6.907-.747 5.6-1.68 2.987s-3.547-2.24-3.733-.933c-.187 1.307 1.68 4.107 1.68 4.107l3.173 3.92 4.667.747 3.733 2.053.373 7.28s5.227 1.12 7.84 1.12c2.613 0 3.92.933 4.293 3.173s1.12 7.467 4.293 7.467 8.773 2.613 9.52 2.987c.747.373-1.493 5.227-1.493 5.227l-3.92 2.613-2.427 3.733-5.227 3.733s-6.72 2.427-6.16 3.547 3.547.933 3.547.933l5.04 2.053-5.04 4.293 2.427 6.533 4.667 1.12-.373 6.72 7.84.56 5.413.187 4.107-1.493 3.173-.373 5.6-4.48 6.533-1.867h3.733l.187 2.427 1.68 4.293 1.867 1.493h2.271c0 1.033 0 2.75 0 2.75l-2.75 5.288s-1.904 1.48-2.326 2.115c-.423.635-.846 2.961-.846 2.961l-.211 2.75s.634 1.692.423 2.327-1.692 1.904-1.692 1.904l1.057 2.327 2.327 1.269s.423 2.75-.211 2.961c-.635.211-2.538 1.057-2.538 1.057l-.211 3.807 1.904 3.384v2.961l-5.076-1.48s-2.961-1.058-4.018 0c-1.058 1.057-2.961 3.172-2.961 3.172l.423 2.538-.635 4.019v4.23l-3.173 2.327-4.018 1.057-.678 1.233 1.283 3.185.707 2.473s-.118 1.767.471 2.002c.589.236 2.002 1.649 2.002 1.649l-.824 2.591s-2.591 2.12-2.827 2.591c-.236.471-.471 2.591-.471 2.591l1.296 2.238 3.533 3.651 1.649 2.827 2.12 5.3 2.355 3.651 1.884 1.06 2.12 1.178-.118 1.767-1.06 1.649-1.296 2.827-.898 4.021c.444.147.851.286 1.189.398 1.838.613 3.677 1.072 6.74.46 3.064-.613 4.902 2.604 7.353 2.911 2.451.306 5.974-.306 6.74.153.766.46 6.281 2.757 7.2 3.677.919.919 1.991 5.515 2.911 6.74.919 1.226 4.443 5.821 5.515 6.74 1.072.919 6.281-.613 8.119-1.226s7.2-1.838 9.498-2.298c2.298-.46 4.749-2.757 5.668-5.362.919-2.604-.613-4.136-.766-5.821-.153-1.685-1.532-4.289.46-6.434 1.991-2.145 3.523-3.83 3.37-4.749s-1.226-1.685-2.298-2.298-3.523-2.145-3.523-2.145.153-2.911.306-3.677 2.145-3.37 2.451-4.749c.306-1.379-1.379-3.83-1.685-4.443-.306-.613-1.685-4.596-1.685-5.362s.306-3.83 1.379-4.289c1.072-.46 1.685 1.226 2.757 1.685 1.072.459 2.757.46 2.911.919.153.46 2.604 2.145 3.677 2.145 1.072 0 3.217-1.226 4.136-1.532.919-.306 1.992 1.991 1.992 1.991s3.83.919 5.055 1.226c1.225.307 4.749-.613 5.515-1.685s2.911-2.145 4.136-2.145 3.677.766 5.208-.46c1.532-1.226-1.379-3.217-1.379-3.217s-2.604-1.226-3.37-2.298 1.072-2.604 1.072-2.604l3.217-3.37s3.064-1.685 4.902-2.911 3.523-.919 4.289-2.298c.766-1.379 4.443-2.911 5.821-4.136 1.378-1.225 2.298-3.677 2.911-5.515.613-1.838.613-7.2.46-8.885s-1.838-5.208-2.145-6.281c-.307-1.073 1.838-2.757 1.838-2.757s1.072-4.136 1.532-5.668c.46-1.532.919-3.677 1.532-4.749.613-1.072 0-4.596-.306-5.821-.306-1.226.766-1.992 1.991-2.757 1.226-.766 3.217-.306 4.749-.306s2.911-.306 3.983.46.766 2.604.766 2.604 2.604 1.532 3.983 2.145 5.055 2.911 7.2 3.217c2.145.306 2.145-2.145 2.911-1.838.766.306 1.838 1.226 2.911 1.226 1.072 0 1.532-1.992 2.911-2.298 1.379-.306 2.757-.306 3.37-.766s3.064-3.677 3.983-4.136c.919-.46 3.983-1.379 3.983-1.379s2.451-2.298 3.37-3.064 4.596-5.208 5.362-6.281c.766-1.072 6.434-6.587 7.353-7.813s3.217-8.426 3.523-9.804c.306-1.379.153-8.885.153-9.804 0-.919 3.983-7.506 4.443-9.038.46-1.532-2.757-4.902-2.451-6.281.306-1.379-.919-6.587-1.072-7.353-.153-.766-.766-2.298-.46-3.677s0-3.064.613-4.136 3.217-2.298 4.136-1.226 2.451 1.532 2.911.919c.46-.613.306-4.596 0-5.515z"/></g></g></g><g><g id="mittelhessen"><g id="_x3C_mittelhessen_x3E_"><path stroke="#005293" stroke-width="2" stroke-miterlimit="10" d="m337.811 453.581.211-3.807s1.903-.846 2.538-1.057c.634-.211.211-2.961.211-2.961l-2.327-1.269-1.057-2.327s1.481-1.269 1.692-1.904-.423-2.327-.423-2.327l.211-2.75s.423-2.326.846-2.961c.422-.635 2.326-2.115 2.326-2.115l2.75-5.288s0-1.717 0-2.75h-2.271l-1.867-1.493-1.68-4.293-.187-2.427h-3.73l-6.533 1.867-5.6 4.48-3.173.373-4.107 1.493h-.003l-5.413-.187-7.84-.56.373-6.72-4.667-1.12-2.427-6.533 5.04-4.293-5.04-2.053c-.006 0-.108.007-.278.01-.754.014-2.814-.032-3.27-.943-.56-1.12 6.16-3.547 6.16-3.547l5.227-3.733 2.427-3.733 3.92-2.613s2.24-4.854 1.493-5.227c-.747-.374-6.347-2.987-9.52-2.987-3.173 0-3.92-5.227-4.293-7.467s-1.68-3.173-4.293-3.173c-2.613 0-7.84-1.12-7.84-1.12l-.373-7.28-3.733-2.053-4.667-.747-3.173-3.92s-1.867-2.8-1.68-4.107c.035-.246.189-.366.416-.399.007-.001.016 0 .024-.001.069-.008.142-.012.222-.006 1.072.076 3.059 1.33 3.072 1.338l1.679-2.986.747-5.6-4.293-6.907-4.48-4.293-1.298-.649-3.555-1.777 1.307-2.8 2.8-1.867 2.987-1.12 2.613-4.853 4.853-4.853 5.227-.747 3.733-4.48.373-3.92 2.613-1.493 3.173-.747 4.107-1.12 1.493-2.987 5.413-.373.56-4.293 1.867-2.053 2.8-.747h.002l4.105.56 1.867-1.68.993-1.214L315 278l-2-2.5-4.5-6.5 4-2.5-1.5-5.5-5.5-2.5-4.5 1-4.5-2.5-3 1-1.5 5-4-2-1-4.5-2.5-1.5-4-2h-.5l-3-4-4-6.5-6.5-2.5v4.5L265 247l-7-3-5.5-1.5-1.5 2h-10.5l-5-7.5-7 4.5v-4h-3l-3-4.5-3-.5-6 .5-2 5-5.5 4.5-6.5 3.5-8.5-2h-8.5l-8.5-5.5-2.398-1.635s0 0 0 .001c-.298.361-.592.722-.873 1.072-.003.004-.006.007-.009.011-.136.17-.269.336-.398.499-.006.007-.012.015-.018.022-.123.155-.241.306-.355.453-.011.014-.023.03-.034.044-.105.136-.205.265-.301.391-.017.023-.036.047-.053.07-.087.114-.167.221-.245.326-.022.029-.046.061-.067.089-.07.095-.132.181-.194.266-.022.03-.047.065-.068.094-.078.109-.147.209-.206.297-.919 1.379-1.072 6.281-1.532 6.894-.46.613-.766 2.145-.46 3.37s.919 2.451.919 3.523-1.685 1.532-1.685 1.532-2.757 1.072-3.677 1.072c-.919 0-2.298 2.911-3.064 3.983s-.613 5.208-1.072 6.128c-.46.919-2.451 2.451-3.064 2.451s-2.604 1.532-3.064 2.145c-.46.613-2.298 2.451-3.217 1.379s-2.911 0-3.83.153-2.911.306-4.443.46c-1.532.153-3.217-.919-3.37-1.685-.153-.766-3.523-4.902-4.749-5.208-1.226-.306-1.379.766-1.379.766s-2.911 1.072-4.443 1.992c-1.532.919-2.604 3.983-3.677 5.821-1.072 1.838-3.37 3.677-4.289 4.289-.919.613-4.136 2.757-5.208 3.983s-5.821 5.974-6.74 7.047c-.919 1.072-4.443 3.523-5.515 4.136s-2.298 3.523-2.298 5.515c0 1.991 1.226 4.596 1.379 6.281.153 1.685 2.604 3.217 3.983 4.902s1.072 5.055.613 6.434c-.459 1.379-1.072 3.677-1.991 5.974-.919 2.298-2.145 2.911-3.523 3.677-1.379.766-2.757 1.379-3.37 3.523-.613 2.145-1.991 5.055-2.298 6.434-.307 1.379.919 3.83 1.226 5.668.306 1.838 1.991 5.515 1.991 6.74s-1.379 4.443-1.379 6.434c0 1.992 3.523 3.677 4.289 4.902.766 1.225.766 6.587.46 7.2-.306.613-.613 1.685-1.072 2.145-.46.46-.306 1.379-.306 2.757s-.153 2.298-1.072 3.37-1.992.46-3.064.613c-1.072.153-1.685 1.379-1.532 2.298.153.919-.919 2.451-1.838 2.298-.919-.153-2.298-.153-3.217-.613-.919-.46-3.064-2.298-3.983-2.911s-2.604-1.226-3.677-1.379c-1.073-.153-2.145-1.532-2.757-1.685-.613-.153-2.757 1.838-3.217 2.298-.46.46-2.298 2.757-3.217 3.83-.919 1.072-4.136 2.298-4.443 2.911-.306.613-2.298 4.136-2.757 5.362-.46 1.226-1.992 4.596-2.451 6.587-.46 1.991 1.379 4.136 1.379 6.128s3.677 4.749 4.289 5.208c.613.46.613 2.604-.153 2.911-.766.306-3.37 1.226-3.983 1.532-.613.306-1.685 2.757-1.072 3.677.613.919 1.072 4.289.46 5.208-.613.919-2.451 1.379-3.064 1.379s-1.838 3.217-1.685 4.136c.153.919 1.532 3.37 2.604 3.217 1.072-.153 5.668.46 7.353.46s2.757 2.451 3.217 3.677 3.064 1.226 4.136 1.532c1.072.306 2.604 1.072 3.677 1.685 1.072.613.46 4.596.46 4.596l1.685 1.991s.153 5.974.153 6.74 4.443 4.289 5.055 4.902c.613.613.306 2.451-.153 3.677-.46 1.226 2.145 3.523 3.677 7.966.099.287.177.562.238.826.011.048.015.091.025.138.046.218.084.431.106.633.003.027.002.052.005.078.021.219.031.431.027.633 0 .008-.001.015-.002.023a4.763 4.763 0 0 1-.055.625l2.749.485 6.069-.169h4.046l3.034-1.517 4.551-1.517 2.529 2.36 1.686 2.529 2.697 2.023 2.023 1.18 1.853-1.349 2.19-2.528.001-.001s3.877.169 4.72.506c.843.337 2.191 1.854 2.191 1.854s2.697.674 3.54.674a.467.467 0 0 0 .3-.125c.661-.566 1.048-2.888 1.048-3.92 0-.295.137-.495.343-.63.616-.404 1.849-.214 1.849-.214l2.696-1.18.843-1.685s-.022-.016-.053-.04h-.001l-.001-.001c-.001 0-.001 0-.002-.001.001 0 .001.001.002.002a19.564 19.564 0 0 1-.151-.118c.065.051.114.09.149.116a10.29 10.29 0 0 1 .002.001l.002.001c.031.024.053.04.053.04s-.022-.016-.053-.04c.031.024.053.04.053.04l-.843 1.685h.001l.843-1.686s-.022-.017-.053-.04c0 0 0 0-.001 0s-.001-.001-.001-.001a9.992 9.992 0 0 1-.397-.321c-.017-.014-.032-.027-.05-.042a11.296 11.296 0 0 1-.65-.601c-.025-.025-.05-.049-.075-.075a7.962 7.962 0 0 1-.326-.353s0 0 .001.001c.107.122.216.241.326.353.025.026.05.05.075.075.102.102.204.201.302.291.013.012.027.026.04.038.11.1.213.191.308.272.017.014.034.029.05.042-.016-.013-.033-.028-.05-.042a13.028 13.028 0 0 1-.308-.272c-.013-.012-.027-.026-.04-.038-.098-.09-.2-.189-.302-.291-.025-.025-.05-.049-.075-.075a8.563 8.563 0 0 1-.326-.353s0 0-.001-.001c-.026-.03-.052-.06-.078-.091a6.23 6.23 0 0 1-.314-.398c-.009-.012-.016-.024-.024-.036a4.242 4.242 0 0 1-.245-.393c-.016-.029-.033-.058-.049-.088a2.742 2.742 0 0 1-.175-.417c-.009-.028-.015-.056-.023-.084a1.652 1.652 0 0 1-.068-.432c0-1.517 1.349-.674 1.854-.674.506 0 1.686-.843 2.697-1.011 1.011-.169-.674-2.023-.674-2.023l-2.528-3.37-3.54-1.349-2.36-2.529-.001-.001.843-2.697 2.191-2.023 2.023-2.191 1.517-3.203.843-2.023 3.371-2.36 4.72-2.529s-.169-2.36-.169-2.866c0-.506.169-1.517.169-1.517l2.023-.337 2.529 1.18 1.686-1.517 3.203-1.686 4.046-1.18 3.034-1.517.853-.948 2.804 1.771v.001h.001l1.062 2.973 2.123 2.548 3.186-.212.963-.674.305-.214.002-.001-.002.001.001.001.002-.002 1.109 2.139 3.271 2.337 1.168 6.308 4.203-.701h.003l3.271 1.636 2.568-.234H195.918l1.869-.701v.001l.003-.001v2.337l-1.402 2.57 3.038 3.505 3.972 3.505 2.103 3.738-1.636 1.636-.935 3.271-3.038 2.804-2.103 1.869-2.103 2.337 3.271.701 3.972 1.402 3.036.467 1.868-1.402.002.001.001-.001 2.103 1.168-.935 2.103-.234 2.57 2.804 3.738 2.337 3.038-.039.163 2.458-.737h.002L222 483l3-2.667 2.667-.333 2 2 2.666-1.333 1-2.334L237 480l3.333-.667h2.334l.666 3L242 485l.516 3.266h2.443l4.019-3.172s.423-4.653.423-5.288-1.057-3.173-1.057-3.173l4.23-2.115.002.001.001-.001 4.442 1.904 4.227-.211h.003l2.961 2.115 3.383 2.538 2.535-.423h.003l2.538 3.172 1.904 2.538c.029-.005 3.387-.639 4.439-1.691a1.776 1.776 0 0 1 1.269-.531c.693-.011 1.272.32 1.272.32s1.269 2.961 1.481 4.018c.21 1.054 3.78 2.737 3.805 2.749l3.172-4.229 4.23-.211h.003l6.344.846 10.996-1.057 4.019-2.115 4.653-8.46 4.018-1.057 3.173-2.327v-4.23l.635-4.019-.423-2.538s1.903-2.115 2.961-3.172c.331-.331.848-.455 1.402-.469 1.218-.032 2.619.469 2.619.469l5.073 1.479v-2.96l-1.903-3.385zm-197.225 12.707c-.016-.014-.033-.028-.05-.042.017.014.034.028.05.042zm-.357-.314zm-.417-.403c.025.026.05.05.075.075-.025-.025-.05-.049-.075-.075zm-.326-.352c-.026-.03-.052-.061-.078-.091.026.03.052.061.078.091zm-.908-1.508c.008.028.014.056.023.084.044.138.103.278.175.417.016.03.033.059.049.088.073.132.154.264.245.393.008.012.015.024.024.036-.009-.012-.016-.024-.024-.036a4.242 4.242 0 0 1-.245-.393c-.016-.029-.033-.058-.049-.088a2.684 2.684 0 0 1-.175-.417c-.009-.028-.015-.056-.023-.084z"/></g></g></g><g><g id="rhein_main_1_"><g id="_x3C_rhein_main_x3E_" stroke="#005293" stroke-width="2" stroke-miterlimit="10"><path d="m136.995 447.604 2.023-2.191 1.517-3.203.843-2.023 3.371-2.36 4.72-2.529s-.169-2.36-.169-2.866c0-.506.169-1.517.169-1.517l2.023-.337 2.529 1.18 1.686-1.517 3.203-1.686 4.046-1.18 3.034-1.517.853-.948 2.803 1.77-.001-.002-2.804-1.771-.853.948-3.034 1.517-4.046 1.18-3.203 1.686-1.686 1.517-2.529-1.18-2.023.337s-.169 1.011-.169 1.517.169 2.866.169 2.866l-4.72 2.529-3.371 2.36-.843 2.023-1.517 3.203-2.023 2.191-2.191 2.023-.843 2.697.002.002.843-2.696 2.191-2.023zM198.959 470.16l3.972 1.402 3.038.467 1.869-1.402 2.1 1.166.001-.001-2.103-1.168-1.869 1.402-3.038-.467-3.972-1.402-3.267-.7-.002.002zM172.833 432.203l3.186-.212 1.271-.889-.002-.003-1.271.889-3.186.212-2.122-2.547v.001zM180.032 432.398h.002v4.019h-.002zM199.428 450.299l3.971 3.504-.001-.002-3.972-3.505-3.036-3.502zM187.044 441.186l3.271 1.636 2.57-.234h3.038l1.867-.7v-.004l-1.869.701h-3.038l-2.57.234-3.271-1.636-4.205.701.001.003zM216.335 482.67 222 483l-5.667-.333-2.458.737-.001.004zM138.779 464.214a2.742 2.742 0 0 1-.175-.417c-.009-.028-.015-.056-.023-.084a1.652 1.652 0 0 1-.068-.432c0-1.517 1.349-.674 1.854-.674.506 0 1.686-.843 2.697-1.011.569-.095.284-.725-.074-1.256.357.531.641 1.158.072 1.253-1.011.168-2.191 1.011-2.697 1.011-.505 0-1.854-.843-1.854.674 0 .141.028.286.068.432.008.028.014.056.023.084.045.139.103.278.175.417.016.03.033.059.049.088.073.132.154.264.245.393 0 0 .001.001.001.001a4.425 4.425 0 0 1-.244-.391c-.016-.029-.033-.058-.049-.088zM211.576 480.206l2.335 3.035-2.337-3.038-2.802-3.735z"/><path d="m208.77 476.465.002.003.234-2.57.935-2.103-.003-.002-.934 2.102zM196.388 446.791l.002.003 1.402-2.57v-2.337l-.002.001v2.333zM203.865 459.175l-.935 3.271-3.038 2.804-2.103 1.869-2.103 2.337.004.001 2.101-2.335 2.103-1.869 3.038-2.804.935-3.271 1.636-1.636-2.103-3.738-.001-.001 2.102 3.736z"/><path d="m213.945 483.25-.038.161h-.003l.038-.161z" stroke-width="1.99988"/><path d="M140.986 466.609s0 0-.001 0-.001-.001-.001-.001-.001-.001-.002-.001a3.985 3.985 0 0 1-.097-.076c-.019-.015-.029-.022-.051-.04a10.414 10.414 0 0 1-.246-.203c-.017-.014-.032-.027-.05-.042a11.098 11.098 0 0 1-.65-.601c-.025-.025-.05-.049-.075-.075a7.962 7.962 0 0 1-.326-.353c-.026-.03-.052-.06-.078-.091a6.23 6.23 0 0 1-.314-.398c-.009-.012-.015-.023-.023-.035 0 .001.001.001.001.002.008.012.015.024.024.036a6.23 6.23 0 0 0 .392.489c.107.123.216.241.326.353.025.026.05.05.075.075a11.332 11.332 0 0 0 .65.601c.018.015.033.028.05.042.092.078.178.149.246.203.022.018.032.025.051.04.032.025.065.051.089.069-.023-.018-.058-.045-.091-.071.036.028.076.06.099.077h.002l-.001.001-.001-.001c-.001 0-.001-.001-.002-.001.001.001.003.002.004.003.001 0 .002.001.002.001.029.022.049.037.05.038l.001-.001s-.022-.017-.053-.04zm-.153-.118c.022.018.032.025.051.04-.019-.015-.029-.022-.051-.04zM139.859 456.199l-3.54-1.349-2.358-2.527v.001l2.36 2.529 3.54 1.349 2.529 3.371a7.61 7.61 0 0 0-.002-.003l-2.529-3.371z"/><path d="m332.76 512.831-1.884-1.06-2.355-3.651-2.12-5.3-1.649-2.827-3.533-3.651-1.296-2.238s.235-2.12.471-2.591c.236-.471 2.827-2.591 2.827-2.591l.824-2.591s-1.413-1.413-2.002-1.649c-.589-.235-.471-2.002-.471-2.002l-.707-2.473-1.283-3.185-3.975 7.227-4.019 2.115-10.998 1.057-6.345-.846-4.23.211-3.173 4.23s-3.596-1.692-3.807-2.75c-.212-1.057-1.481-4.018-1.481-4.018s-1.48-.846-2.538.211c-1.058 1.057-4.442 1.692-4.442 1.692l-1.904-2.538-2.538-3.172-2.538.423-3.384-2.538-2.961-2.115-4.23.211-4.442-1.904-4.23 2.115s1.057 2.538 1.057 3.173c0 .635-.423 5.288-.423 5.288l-4.019 3.172h-2.446L242 485l1.333-2.667-.667-3h-2.333L237 480l-3.666-1.666-1 2.333-2.667 1.333-2-2-2.667.333-3 2.667-5.665-.33-2.461.738.001-.004-.003.001.039-.164-2.335-3.035-2.804-3.738-.002-.003.234-2.57.934-2.101-2.1-1.167-1.869 1.402-3.038-.467-3.972-1.402-3.271-.701.002-.002-.004-.001 2.103-2.337 2.103-1.869 3.038-2.804.935-3.271 1.636-1.636-2.102-3.735-3.971-3.505-3.038-3.505-.002-.003 1.402-2.57v-2.333l-1.867.7h-3.038l-2.57.234-3.271-1.636-4.206.701-.001-.003h-.001l-1.168-6.307-3.269-2.336-.001-.003h-.001l-1.107-2.136-1.271.889-3.186.212-2.124-2.549v-.001l-.002-.002-1.061-2.971-2.803-1.77-.853.948-3.034 1.517-4.046 1.18-3.203 1.686-1.686 1.517-2.529-1.18-2.023.337s-.169 1.011-.169 1.517.169 2.866.169 2.866l-4.72 2.529-3.371 2.36-.843 2.023-1.517 3.203-2.023 2.191-2.191 2.023-.843 2.696 2.358 2.527 3.54 1.349 2.529 3.371s.323.356.602.77c.358.532.644 1.161.074 1.256-1.011.168-2.191 1.011-2.697 1.011-.505 0-1.854-.843-1.854.674 0 .141.028.286.068.432.008.028.014.056.023.084.045.139.103.278.175.417.016.03.033.059.049.088.073.131.153.263.244.391.008.012.015.023.023.035a6.23 6.23 0 0 0 .392.489c.107.123.216.241.326.353.025.026.05.05.075.075a11.332 11.332 0 0 0 .65.601c.018.015.033.028.05.042.092.078.178.149.246.203.022.018.032.025.051.04a3.985 3.985 0 0 0 .1.078c.001 0 .001 0 .001 0 .031.023.053.04.053.04l-.001.001s.003.002.003.002l-.843 1.686-2.697 1.18s-2.191-.337-2.191.843-.506 4.046-1.349 4.046-3.54-.674-3.54-.674-1.348-1.517-2.191-1.854c-.843-.337-4.72-.506-4.72-.506l-2.191 2.529-1.854 1.349-2.023-1.18-2.697-2.023-1.686-2.529-2.529-2.36-4.551 1.517-3.034 1.517h-4.046l-6.069.169-2.749-.485c-.358 2.302-2.31 3.371-3.101 3.936-1.072.766-3.37 1.532-3.37 1.532s-1.838.153-2.757 0 .153-1.532 0-2.145c-.153-.612-1.838-2.604-1.838-2.604s-3.83-.153-4.902 0-3.217 1.838-3.217 1.838-1.532 2.604-1.532 3.983 1.072 1.532 1.072 1.532 1.073 1.838 1.226 2.451c.153.613 1.531.919 1.991 2.298.46 1.378-.919 3.063-1.838 4.289-.919 1.226-2.758 2.298-4.289 2.145-1.531-.153-2.144-2.145-2.757-3.064s-1.839-3.983-3.677-3.83-.613 2.145-1.532 2.451c-.919.306-1.685.153-2.298.766-.612.613-.766 2.451-1.838 2.911-1.072.459-3.83.766-5.515 1.685-1.685.919-1.225 2.144-1.838 2.757s-3.983.46-4.596 1.379-2.451 3.829-2.911 4.289c-.459.459-3.983 3.523-4.136 4.289-.153.766.92 2.604 1.226 3.217.306.613 3.983 4.29 5.668 5.362s3.064 3.829 2.451 5.055c-.613 1.226-1.532 2.451-1.685 3.83-.153 1.379 1.532 2.757 1.379 4.136s-.306 3.217-1.072 3.217-1.685 0-1.379-.613c.306-.612-1.379-2.604-2.451-3.523s-2.757-.919-2.757-.919-3.217-.307-3.83-.46c-.613-.154-2.145-2.605-3.064-2.911-.92-.306-2.911 0-2.911 0s-1.991 3.064-2.604 3.83-1.992 1.839-2.298 2.911c-.307 1.072-.154 3.983.306 4.749.46.765 1.226.919 1.532 1.991.306 1.072-2.298.766-3.064.919-.766.153-3.676-.613-4.289-.46-.613.153-2.604 3.064-3.37 3.983s-3.064 1.685-3.677 3.37-1.685 3.371-1.685 4.749 2.298 2.757 3.83 3.37c1.532.612 2.91 1.991 4.289 3.523 1.378 1.532 2.451 3.217 3.37 3.983s3.676 3.217 5.055 5.055c1.379 1.838 1.685 3.83 2.145 5.821s2.145 4.136 2.451 5.208c.306 1.072 26.655-1.379 27.574-1.379s5.668-4.596 7.506-6.128 7.506-1.992 9.804-2.911c2.298-.92 5.821-1.839 8.272-2.911s7.66-1.072 9.651-1.838c1.991-.766 6.74-2.758 9.957-3.83 3.217-1.072 8.579 1.379 11.336 3.064 2.757 1.685 7.812 9.957 9.191 10.57 1.379.613 5.056 4.749 6.128 6.128 1.072 1.379 2.451 5.668 3.217 7.813.765 2.145 1.225 7.66 1.991 9.345s1.992 7.813 1.379 9.498c-.613 1.686-1.839 5.668-1.992 6.894 0 0-.08 1.104.203 1.612.425.641.98 1.409 1.674 1.729 1.156.534 3.558 1.779 3.558 1.779l2.491-2.135 4.626.534 2.313.89 3.114.534h2.402s4.359.267 5.338-.089.623-.623 2.669-.89c2.046-.267 6.138.178 6.138.178l2.847.089 2.751.395c2.917-1.636 9.074-3.608 10.11-4.298 1.395-.931-3.489-9.769-3.489-10.932 0-1.163 3.954-1.396 4.652-2.326.697-.931-1.861-4.652-1.861-5.815s3.954-1.163 4.884-1.396c.93-.233 0-2.093.465-3.489s3.721-1.628 3.721-2.326c0-.666 4.017-.696 5.598-.9l2.785 2.695 6.199 2.841 7.232.258 4.391-.517 3.1-2.583 3.875 2.325 3.358-.258 4.391-2.066s1.809 3.358 3.875 3.616 3.874 2.066 6.974-.517c3.1-2.583 1.033-4.649 5.166-4.649s6.199.775 7.491 0c1.292-.775 5.683-4.133 5.683-4.133l3.358-3.616 1.55-2.325.258-2.066 5.424 2.325 5.941.517 3.875.517 4.822 3.215c.368-.727.534-.977.62-1.905.076-.854-1.838-3.737-1.838-3.737s2.757-2.757 3.37-3.37-.766-.613-.613-1.379-1.685-5.055-2.451-5.821-4.136-3.37-4.136-3.37-4.442.307-5.515.46-1.379-3.37-1.226-4.749c.153-1.378 1.532-2.297 3.064-2.757 1.532-.46-.306-2.298-.306-3.217s-.46-4.596.153-5.515c.613-.919 4.29-4.749 5.362-5.668 1.072-.919 5.208-.919 7.2-1.072 1.991-.153 7.047-.306 7.353-1.072.307-.766 2.145-1.838 2.911-1.838s1.991 0 2.451.153c.46.153 1.838 1.378 2.451 1.991.612.613 2.451 1.685 3.523 1.532s1.072 1.073.153 1.379-1.532 1.992-1.379 3.37c.153 1.378.613 2.91 1.685 2.604 1.072-.306 3.829-2.144 4.289-2.757.459-.613 2.451-3.83 2.757-4.596.307-.766 3.064-2.604 3.064-2.604s0-1.685.153-2.757 3.83-4.289 4.902-5.055c.875-.625 3.584.177 5.551.827v-.001c-.001 0-.001 0-.002-.001.001 0 .001 0 .002.001l.898-4.02 1.296-2.827 1.06-1.649.118-1.767-2.12-1.178z"/><path d="m169.655 426.677 1.062 2.972h-.001l-1.062-2.972z" stroke-width="1.99996"/><path d="m181.66 435.563 1.168 6.306h-.002l-1.167-6.305zM140.982 466.608l-.006-.005zM140.885 466.532c.033.026.068.053.091.071.002.001.005.004.007.005.001 0 .001.001.002.001-.024-.017-.064-.049-.1-.077zM140.986 466.61l-.002-.001.001.001z"/></g></g></g><g><g id="nordhessen"><g><path stroke="#005293" stroke-width="2" stroke-miterlimit="10" d="M540.727 189.183c.153.766 2.298 2.145 2.298 2.145s2.757 2.451 3.37 2.451.613-3.523.613-3.523l.153-7.047.306-5.974.306-3.83 2.145-1.838 1.532-1.992-1.532-1.379s-2.757-.153-3.523-.153-3.064-1.226-3.064-1.226l-2.757-2.757-1.991-3.37-4.749-.46s-2.298-2.757-2.757-2.757c-.46 0-3.523-.766-3.523-.766l-4.289-1.532-4.596-.766-3.677-1.072v-3.523l-1.532-1.838-2.298-1.072-1.838-1.685 1.685-1.226 1.072-1.532v-2.145s-2.145-1.685-2.757-1.991c-.613-.306-4.749-1.226-4.749-1.226l-3.064-2.298-3.217-.766-2.757-.613-2.757-1.992-1.838-1.685-3.37-1.991.153-1.991.613-2.298-.613-3.064-.613-2.757-1.226-4.749-.766-5.208.306-2.911-1.685-3.523-1.685-4.136s-1.838-2.604-2.298-2.911c-.46-.306-.766-.919-.766-.919l-1.226.613s-1.072.919-1.532 1.072c-.46.153-.919.919-.919.919l-2.298.153-.919-1.379-1.685-.919-.766.919-.919 1.991.613 2.911 1.532 5.208 1.072 2.604-1.838 1.685-1.992-2.145-.306-2.451-.919-3.677-1.532-3.37-3.523-1.992s-3.064-.306-3.83-.153-.919 2.145-.919 2.145l.766 3.217-1.685 2.757-2.145.613-3.83-.46-1.685 1.532-1.532 1.226-1.838 1.226-2.145.306h-1.532l-2.757.919-.153 2.911.613 1.685 1.072 1.226 1.685 1.685s.766 1.685.919 2.145.153 3.217.153 3.217l1.379 2.451.613 1.226.46.613 1.072.306 1.992-2.298 1.072-.919 1.379-.306 1.072.766.153 1.379-.153 1.992-1.226 1.685-2.145 1.992-2.145.919-1.685 1.838-1.379.306-1.992-1.226-2.757-1.379-3.523-2.298-3.37-1.991-2.757.306-3.677.153-3.064-.153-.153-3.37-1.072-1.226h-4.136l-5.515-4.902-4.443-.919-1.991-2.604-3.217-1.992-1.838-1.379 1.226-.766 2.451 1.532s3.677.919 5.362.613.919-3.523.153-3.983-3.217-1.991-3.983-3.064c-.766-1.072 3.217-2.911 4.902-4.749s3.064-.613 4.749-.613 4.443-2.911 5.362-4.289 3.217-7.047 3.37-7.66c.153-.613-.153-8.885-.153-9.498s.919-3.523.919-3.523l-3.523-3.83-4.596-7.2-2.451-4.136.46-1.532s2.451-1.532 3.523-1.838c1.072-.306 1.991-3.37 2.604-3.83s4.596-1.072 5.668-1.072 1.838-2.604 1.992-3.983-3.523-3.064-4.902-3.83-1.838-2.604-1.685-4.443c.153-1.838 1.072-1.838 2.145-1.991s3.064 2.145 3.983 2.911 3.523 3.064 5.055 3.523c1.532.46 2.298-.766 2.604-3.677s-3.523-5.668-4.289-6.281-4.443-4.749-5.362-4.749-2.451-2.604-2.451-3.983-.306-3.217-.919-4.596-2.145-.766-3.677-.306-2.505 1.824-2.505 1.824c-.577.165-5.684.165-6.466.165s-2.059-2.471-3.254-3.83c-1.194-1.359-1.524-.288-1.524-.288s-3.13 2.759-4.201 3.377c-1.071.618-2.471.329-2.595.371-.124.041-2.718-2.677-2.718-2.677l-.494-3.871s-.165-3.871-1.194-4.777c-1.03-.906-2.718-.618-2.718-.618l-2.965 1.318-3.583 2.224-2.1 3.212-3.666 3.377-4.283 1.153-5.931.659-1.771 1.236-3.954 1.524-2.924 1.977 1.236 2.471 1.689 1.606 2.636 1.483.494 1.647-3.089 2.965-2.265 3.954-4.572 5.313-1.071 1.236.165 7.537-.741 1.277-1.936.824-3.377.206-1.071.906-2.389 2.183-2.842 2.389-3.254.577-.741 1.771-1.483 1.277-2.759.659-1.771 1.524 1.112 1.441.247 2.883-.618 1.977-2.801-.577s-3.46-.247-3.624-.247-2.265.947-2.265.947l-1.73 4.324s-2.142.906-2.924.906-4.983-.247-5.107-.288-1.153-.412-1.153-.412l-2.842.783-1.894-.412-.988-1.03-.783-1.03-.577-1.853-.371-1.4-.082-1.483.206-1.153.535-1.524 1.03-1.236.494-1.318.618-1.73.124-1.194-.082-1.853-1.565-1.771-2.553-.165-3.542-.453-2.265-.329-2.595-.247-1.689-1.812-1.359-.824-1.977.741-1.895.865-2.636.947-3.171.206-2.553.947-1.647 1.236-2.924 1.565s-2.931.687-3.391.533-3.064.46-4.443.766-2.451 1.685-3.37 3.064 3.217 4.902 4.136 6.281c.919 1.379 1.991 2.298 2.145 4.749.154 2.451 0 4.136 2.451 5.208s3.523 1.685 3.523 2.145-.46 3.983-.766 4.902.46 3.064.306 4.749-2.298 1.838-3.217 1.838-3.523-1.226-5.208-1.532-3.677.766-5.055 1.226c-1.379.46-3.983 2.451-5.208 2.604-1.226.153-2.145-.766-3.217-1.838s-4.289-.766-5.208-1.072c-.919-.306-5.668-.306-7.353.153-1.685.46-4.902 2.757-6.281 3.523-1.379.766-3.37 1.072-4.443.919s-4.902-.766-6.587-.613-3.983-.153-4.596.46-1.379 2.451-1.838 3.83c-.46 1.379-1.226 1.532-2.298 1.992s-.919 1.838-1.532 2.911c-.613 1.072-1.991 1.532-2.911 1.379-.919-.153-3.523 1.685-3.523 1.685s-2.451 3.217-3.37 4.749-1.226 3.83-1.838 4.749c-.613.919-2.604 2.911-3.83 3.83s-2.911 3.217-3.523 5.208c-.613 1.991.766 3.37 1.685 3.677.919.306 2.298 3.064 3.37 4.289 1.072 1.225 1.379 3.523 2.757 4.136 1.379.613 3.064-.306 3.83-.613s2.451-2.757 2.911-3.217c.46-.46 3.217-.919 3.983-.919s4.289-1.072 5.362-1.532c1.072-.46 3.217-2.451 3.523-2.911.306-.46 2.757.766 3.37 1.379s3.677 2.298 4.443 2.604c.766.306-.153 2.911-.46 4.443s.153 6.128.46 8.272c.306 2.145 2.757 4.749 3.677 5.515.919.766 2.604 2.298 1.685 3.217s-1.532 2.604-1.532 2.604-.613 4.902-1.072 6.74c-.46 1.838-4.136 5.055-5.821 6.587-1.685 1.532-5.208 5.821-5.821 7.2s-.306 3.37.153 5.055c.46 1.685 4.443 1.072 4.596 2.911.153 1.838-3.217.306-5.055.306s-2.298 0-4.749 1.226c-2.451 1.226-2.911 3.523-3.523 3.523-.613 0-3.217-.919-3.83-.919s-5.055-1.838-5.668-1.991-5.821-.306-7.506-.46c-1.685-.153-5.208-.613-6.587-.306-1.379.306-4.596 1.838-5.974 3.064s-2.451 5.208-1.991 6.74 1.532 4.443 1.685 5.362-1.685 3.523-1.991 4.902.919 1.991 1.532 2.145c.613.153 1.072.766 1.379 1.379.306.613.46 2.451.766 3.83s-1.379 2.757-1.991 3.37c-.613.613-3.37 3.217-4.289 4.289s-3.37 4.289-4.902 5.821c-.735.735-1.893 2.07-3 3.412L174 238.5l8.5 5.5h8.5l8.5 2 6.5-3.5 5.5-4.5 2-5 6-.5 3 .5 3 4.5h3v4l7-4.5 5 7.5H251l1.5-2 5.5 1.5 7 3 1.5-2.5V240l6.5 2.5 4 6.5 3 4h.5l4 2 2.5 1.5 1 4.5 4 2 1.5-5 3-1 4.5 2.5 4.5-1 5.5 2.5 1.5 5.5-4 2.5 4.5 6.5 2 2.5 2.192 7.892.308 1.108 5 .5 6 4 6-2 1.5 2.5h5.5v5.5l5 .5 6-1.5 3 4 7.5-1.5 1 4 5 5.5 2.5-6 8.79.326L381 301l4-3 9-5 1.5-7-4-8 1-7-3.5-6 5-5-.5-5.5 5-3.5 9-1.5-3-4.5-.5-5 2.5-5 3.5-.5-.5-1.5-1-6 .5-4h4l8.5-4 1.5-4.5 2-2.5 5.5-2 5-4.5 7 2 7-.5 2.327-2.473-.327-.027.327.027 5.673.473 3.5-.5 2.5 4 4.5 1.5 3 2.5 1.5 3.5 6 1.5 5-2 5 .5 4.5 4.5 2-.5 4.5 4-4 7.5 4 3h3.931v-.001c.2-.443.743-1.651.991-2.271.306-.766 2.451-1.072 2.451-1.072s3.677-.766 4.289-.766 4.902-.306 4.902-.306 4.902 2.145 5.515 2.145c.613 0 4.289 1.072 4.902 1.226.613.153 1.072-.766 1.072-.766l2.145-.766 1.685.613 1.685 2.298s2.298.613 3.064.46c.766-.153 3.677-.153 3.677-.153s3.983-3.217 4.596-3.677c.613-.46 1.685-4.902 1.685-5.362s-.766-1.379-1.072-1.991c-.306-.613.46-1.379.919-1.532s2.604.153 2.604.153l.46-2.911-4.749-2.757-5.362-1.991s-2.911-2.604-3.677-2.911c-.766-.306-.46-6.128-.46-6.128s.919-5.208.919-5.821c0-.613 3.064-3.83 3.523-3.83.46 0-.153-3.064-.153-3.064s-1.379-1.379-1.838-1.532c-.46-.153-2.451-1.072-2.451-1.072l-2.911-1.991s-2.451-2.604-2.911-3.37 1.072-2.298 1.072-2.298l2.298-1.226s2.451-.766 3.217-1.072 3.37.766 3.83.766 1.226 2.911.919 3.523c-.306.613.306 3.37.46 4.136z"/></g></g></g><g><g id="geotag-kassel100_pin"><path id="location-icon_5_" stroke="#005293" stroke-miterlimit="10" d="M394.533 97.333c-4.97 0-9 4.065-9 9.08s3.939 10.843 9 19.587c5.061-8.744 9-14.572 9-19.587 0-5.014-4.029-9.08-9-9.08zm0 12.116c-1.783 0-3.228-1.458-3.228-3.256s1.445-3.256 3.228-3.256 3.228 1.458 3.228 3.256-1.445 3.256-3.228 3.256z"/></g><g id="geotag-kassel100"><path stroke="#005293" stroke-linejoin="round" stroke-miterlimit="10" d="M512.755 189.159a3 3 0 0 1-3 3h-171a3 3 0 0 1-3-3v-58a3 3 0 0 1 3-3h171a3 3 0 0 1 3 3v58z"/></g></g><g><g id="geotag-korbach100_pin"><path id="location-icon_8_" stroke="#005293" stroke-miterlimit="10" d="M260 108c-4.97 0-9 4.065-9 9.08s3.939 10.843 9 19.587c5.061-8.744 9-14.572 9-19.587 0-5.015-4.029-9.08-9-9.08zm0 12.116c-1.783 0-3.228-1.458-3.228-3.256s1.445-3.256 3.228-3.256 3.228 1.458 3.228 3.256-1.445 3.256-3.228 3.256z"/></g><g id="geotag-korbach100"><path stroke="#005293" stroke-linejoin="round" stroke-miterlimit="10" d="M306.755 199.159a3 3 0 0 1-3 3h-171a3 3 0 0 1-3-3v-58a3 3 0 0 1 3-3h171a3 3 0 0 1 3 3v58z"/></g></g><g><g id="geotag-badhersfeld100_pin"><path id="location-icon_6_" stroke="#005293" stroke-miterlimit="10" d="M434.667 249.333c-4.97 0-9 4.065-9 9.08s3.939 10.843 9 19.587c5.061-8.744 9-14.572 9-19.587 0-5.014-4.03-9.08-9-9.08zm0 12.116c-1.783 0-3.228-1.458-3.228-3.256s1.445-3.256 3.228-3.256 3.228 1.458 3.228 3.256c-.001 1.798-1.446 3.256-3.228 3.256z"/></g><g id="geotag-badhersfeld100"><path stroke="#005293" stroke-linejoin="round" stroke-miterlimit="10" d="M523.124 340.475a3 3 0 0 1-3 3h-171a3 3 0 0 1-3-3v-58a3 3 0 0 1 3-3h171a3 3 0 0 1 3 3v58z"/></g></g><g><g id="geotag-fulda100_pin"><path id="location-icon_7_" stroke="#005293" stroke-miterlimit="10" d="M429.333 357.333c-4.97 0-9 4.065-9 9.08s3.939 10.843 9 19.587c5.061-8.744 9-14.572 9-19.587 0-5.014-4.029-9.08-9-9.08zm0 12.116c-1.783 0-3.228-1.458-3.228-3.256s1.445-3.256 3.228-3.256 3.228 1.458 3.228 3.256-1.445 3.256-3.228 3.256z"/></g><g id="geotag-fulda100"><path stroke="#005293" stroke-linejoin="round" stroke-miterlimit="10" d="M517.893 448.476a3 3 0 0 1-3 3h-171a3 3 0 0 1-3-3v-58a3 3 0 0 1 3-3h171a3 3 0 0 1 3 3v58z"/></g></g><g><g id="geotag-giessen100_pin"><path id="location-icon_10_" stroke="#005293" stroke-miterlimit="10" d="M210.667 344.667c-4.97 0-9 4.065-9 9.08s3.939 10.843 9 19.587c5.061-8.744 9-14.572 9-19.587 0-5.015-4.03-9.08-9-9.08zm0 12.116c-1.783 0-3.228-1.458-3.228-3.256s1.445-3.256 3.228-3.256 3.228 1.458 3.228 3.256c-.001 1.798-1.446 3.256-3.228 3.256z"/></g><g id="geotag-giessen100"><path stroke="#005293" stroke-linejoin="round" stroke-miterlimit="10" d="M299.194 435.907a3 3 0 0 1-3 3h-171a3 3 0 0 1-3-3v-58a3 3 0 0 1 3-3h171a3 3 0 0 1 3 3v58z"/></g></g><g><g id="geotag-marburg100_pin"><path id="location-icon_9_" stroke="#005293" stroke-miterlimit="10" d="M234.667 262.667c-4.97 0-9 4.065-9 9.08s3.939 10.843 9 19.587c5.061-8.744 9-14.572 9-19.587 0-5.015-4.03-9.08-9-9.08zm0 12.116c-1.783 0-3.228-1.458-3.228-3.256s1.445-3.256 3.228-3.256 3.228 1.458 3.228 3.256c-.001 1.798-1.446 3.256-3.228 3.256z"/></g><g id="geotag-marburg100"><path stroke="#005293" stroke-linejoin="round" stroke-miterlimit="10" d="M36.859 262.891a3 3 0 0 1 3-3h171a3 3 0 0 1 3 3v21.58l20.742 7.793-20.742 8.071v20.556a3 3 0 0 1-3 3h-171a3 3 0 0 1-3-3v-58z"/></g></g><g><g id="geotag-wiesbaden100_pin"><path id="location-icon_1_" stroke="#005293" stroke-miterlimit="10" d="M117.333 511.667c-4.97 0-9 4.065-9 9.08s3.939 10.843 9 19.587c5.061-8.744 9-14.572 9-19.587s-4.029-9.08-9-9.08zm0 12.116c-1.783 0-3.228-1.458-3.228-3.256s1.445-3.256 3.228-3.256 3.228 1.458 3.228 3.256-1.445 3.256-3.228 3.256z"/></g><g id="geotag-wiesbaden100"><path stroke="#005293" stroke-linejoin="round" stroke-miterlimit="10" d="M184.946 603.092a3 3 0 0 1-3 3h-171a3 3 0 0 1-3-3v-58a3 3 0 0 1 3-3h171a3 3 0 0 1 3 3v58z"/></g></g><g><g id="geotag-frankfurt100_pin"><path id="geotag-location-icon_2_" stroke="#005293" stroke-miterlimit="10" d="M212 502.667c-4.97 0-9 4.065-9 9.08s3.939 10.843 9 19.587c5.061-8.744 9-14.572 9-19.587s-4.029-9.08-9-9.08zm0 12.116c-1.783 0-3.228-1.458-3.228-3.256s1.445-3.256 3.228-3.256 3.228 1.458 3.228 3.256-1.445 3.256-3.228 3.256z"/></g><g id="geotag-frankfurt100"><path stroke="#005293" stroke-linejoin="round" stroke-miterlimit="10" d="M410.298 561.926a3 3 0 0 1-3 3h-171a3 3 0 0 1-3-3v-21.58l-20.742-7.793 20.742-8.071v-20.556a3 3 0 0 1 3-3h171a3 3 0 0 1 3 3v58z"/></g></g><g><g id="geotag-darmstadt100_pin"><path id="location-icon_3_" stroke="#005293" stroke-miterlimit="10" d="M202.667 586.667c-4.97 0-9 4.065-9 9.08s3.939 10.843 9 19.587c5.061-8.744 9-14.572 9-19.587s-4.03-9.08-9-9.08zm0 12.116c-1.783 0-3.228-1.458-3.228-3.256s1.445-3.256 3.228-3.256 3.228 1.458 3.228 3.256c-.001 1.798-1.446 3.256-3.228 3.256z"/></g><g id="geotag-darmstadt100"><path stroke="#005293" stroke-linejoin="round" stroke-miterlimit="10" d="M401.298 645.926a3 3 0 0 1-3 3h-171a3 3 0 0 1-3-3v-21.58l-20.742-7.793 20.742-8.071v-20.556a3 3 0 0 1 3-3h171a3 3 0 0 1 3 3v58z"/></g></g><g><g id="geotag-michelstadt100"><g><path stroke="#005293" stroke-linejoin="round" stroke-miterlimit="10" d="M367.946 755.192a3 3 0 0 1-3 3h-171a3 3 0 0 1-3-3v-58a3 3 0 0 1 3-3h171a3 3 0 0 1 3 3v58z"/></g></g><g id="geotag-michelstadt100_pin"><path id="location-icon_4_" stroke="#005293" stroke-miterlimit="10" d="M279.5 663.943c-4.97 0-9 4.065-9 9.08s3.939 10.843 9 19.587c5.061-8.744 9-14.572 9-19.587 0-5.014-4.029-9.08-9-9.08zm0 12.116c-1.783 0-3.228-1.458-3.228-3.256s1.445-3.256 3.228-3.256 3.228 1.458 3.228 3.256c0 1.799-1.445 3.256-3.228 3.256z"/></g></g></svg>