<svg xmlns="http://www.w3.org/2000/svg" xmlns:xlink="http://www.w3.org/1999/xlink"><symbol id="extern" viewBox="0 0 30.4 28.1" preserveAspectRatio="xMidYMid meet"><path d="M21.6 14.8v4.6c0 .5-.4 1-1 1H7.3c-.5 0-1-.4-1-1l-.1-8.9c0-.5.4-1 1-1h9.6l.1-2H5.8c-.8 0-1.5.7-1.5 1.5v11.9c0 .8.7 1.5 1.5 1.5h16.4c.8 0 1.5-.7 1.5-1.5v-6.1h-2.1z"/><path d="M17.7 6.3c0 .6.4 1 1 1h3.5c.2 0 .3 0 .5.1l-6.1 5.9c-.4.4-.4 1 0 1.4.4.4 1 .4 1.4 0l6-5.8c.1.2.1.4.1.6V13c0 .6.4 1 1 1h.1c.6 0 1-.4 1-1l.1-4.5c0-1.7-1.3-3-3-3l-4.5-.1c-.7-.1-1.1.4-1.1.9z"/></symbol></svg>