<svg xmlns="http://www.w3.org/2000/svg" xmlns:xlink="http://www.w3.org/1999/xlink"><defs><style>.cls-1{fill:#fff}</style><style>.cls-1,.cls-2{fill:#fff;fill-rule:evenodd;stroke:#fff}.cls-1{stroke-miterlimit:10}.cls-2{stroke-width:6px}</style><style>.cls-1{fill:#fff;fill-rule:evenodd}</style><style>.cls-1{fill:#fff}</style><style>.cls-1{fill:#fff}</style><style>.cls-1{fill:#fff}</style><style>.cls-1{fill:#fff}</style><style>.cls-1{fill:#fff}</style></defs><symbol id="Kreis-test-weiss" viewBox="0 0 320 320" preserveAspectRatio="xMidYMid meet"><circle cx="161.1" cy="161.1" r="138.71"/></symbol><symbol id="calendar-ds" viewBox="0 0 320 320" preserveAspectRatio="xMidYMid meet"><rect class="cls-1" x="79" y="163" width="26" height="26" rx="8" ry="8"/><rect class="cls-1" x="79" y="209" width="26" height="26" rx="8" ry="8"/><rect class="cls-1" x="124.5" y="163" width="26" height="26" rx="8" ry="8"/><rect class="cls-1" x="124.5" y="209" width="26" height="26" rx="8" ry="8"/><rect class="cls-1" x="170" y="163" width="26" height="26" rx="8" ry="8"/><rect class="cls-1" x="170" y="209" width="26" height="26" rx="8" ry="8"/><rect class="cls-1" x="216" y="163" width="26" height="26" rx="8" ry="8"/><rect class="cls-1" x="216" y="209" width="26" height="26" rx="8" ry="8"/><path class="cls-1" d="M83 76c6.08 0 11-4.92 11-11V43c0-6.08-4.92-11-11-11s-11 4.92-11 11v22c0 6.08 4.92 11 11 11Zm154 0c6.08 0 11-4.92 11-11V43c0-6.08-4.92-11-11-11s-11 4.92-11 11v22c0 6.08 4.92 11 11 11Z"/><path class="cls-1" d="M270 54h-11v11c0 12.13-9.87 22-22 22s-22-9.87-22-22V54H105v11c0 12.13-9.87 22-22 22s-22-9.87-22-22V54H50c-12.13 0-22 9.87-22 22v198c0 12.13 9.87 22 22 22h220c12.13 0 22-9.87 22-22V76c0-12.13-9.87-22-22-22Zm2 66v150c0 3.31-2.69 6-6 6H54c-3.31 0-6-2.69-6-6V120h224Z"/></symbol><symbol id="copyright" viewBox="0 0 24 24" preserveAspectRatio="xMidYMid meet"><path d="M9.7 10.6c.1-.4.2-.7.4-1 .2-.3.4-.6.7-.7.3-.2.6-.3 1.1-.3.3 0 .5.1.8.2.2.1.5.3.6.4s.3.4.4.6.2.5.2.8H16c0-.6-.1-1.1-.3-1.5-.2-.5-.5-.9-.8-1.2-.5-.4-.9-.7-1.4-.9-.5-.2-1.1-.3-1.7-.3-.8 0-1.5.1-2 .4s-1.1.7-1.5 1.1c-.3.5-.6 1.1-.8 1.7-.2.6-.3 1.3-.3 2v.3c0 .7.1 1.3.3 2 .2.6.5 1.2.9 1.6.4.5.9.8 1.4 1.1.6.3 1.3.4 2 .4.6 0 1.1-.1 1.6-.3.5-.2.9-.4 1.3-.8.4-.3.7-.7.9-1.1.2-.4.3-.9.4-1.4h-2.1c0 .3-.1.5-.2.7s-.3.4-.4.6-.4.3-.6.4c-.2.1-.5.1-.7.1-.4 0-.8-.1-1.1-.3-.3-.2-.5-.4-.7-.7-.2-.3-.3-.7-.4-1.1-.1-.4-.1-.8-.1-1.2v-.3c-.1-.5-.1-.9 0-1.3zM12 0C5.4 0 0 5.4 0 12s5.4 12 12 12 12-5.4 12-12S18.6 0 12 0zm0 21.6c-5.3 0-9.6-4.3-9.6-9.6S6.7 2.4 12 2.4s9.6 4.3 9.6 9.6-4.3 9.6-9.6 9.6z"/></symbol><symbol id="facebook-ds" viewBox="0 0 320 320" preserveAspectRatio="xMidYMid meet"><path d="M295 160.82C295 86.36 234.78 26 160.5 26S26 86.36 26 160.82C26 228.11 75.18 283.89 139.48 294v-94.21h-34.15v-38.97h34.15v-29.7c0-33.79 20.08-52.45 50.8-52.45 14.72 0 30.11 2.63 30.11 2.63v33.18h-16.96c-16.71 0-21.92 10.39-21.92 21.05v25.29h37.3l-5.96 38.97h-31.34V294c64.3-10.11 113.48-65.89 113.48-133.18" fill-rule="evenodd"/></symbol><symbol id="highlights-ds" viewBox="0 0 320 320" preserveAspectRatio="xMidYMid meet"><path d="M149.7 24.2c2-5.7 8.2-8.7 13.9-6.7 3.2 1.1 5.6 3.6 6.7 6.7l31.9 91.7 97 2c5.9.1 10.7 5 10.7 10.9v.3c-.1 3.3-1.7 6.5-4.3 8.5l-77.3 58.6 28.1 92.9c1.7 5.7-1.4 11.7-7 13.5l-.3.1c-3.2 1-6.7.4-9.4-1.5L160 245.8l-79.7 55.4c-4.9 3.4-11.5 2.3-15-2.5l-.2-.2c-1.9-2.7-2.5-6.2-1.5-9.4l28.1-92.9-77.3-58.7c-4.7-3.6-5.7-10.3-2.3-15.1l.2-.2c2-2.7 5.1-4.3 8.5-4.3l97-2 31.9-91.7zM160 55.5l-23.9 68.7c-2.4 6.9-8.8 11.6-16.1 11.7l-72.7 1.5 58 43.9c5.7 4.3 8.2 11.7 6.3 18.6l-.1.4-21.1 69.6 59.7-41.6c5.9-4.1 13.7-4.2 19.6-.2l.3.2 59.7 41.6-21.1-69.6c-2.1-6.9.3-14.3 5.9-18.7l.3-.2 58-43.9-72.7-1.5c-7.2-.1-13.5-4.7-16-11.4l-.1-.3-24-68.8z"/></symbol><symbol id="hr-calendar-ds" viewBox="0 0 320 320" preserveAspectRatio="xMidYMid meet"><g id="Kalenderhr"><g id="kalender"><path id="Rectangle" class="cls-1" d="M83 32c6.08 0 11 4.92 11 11v22c0 6.08-4.92 11-11 11s-11-4.92-11-11V43c0-6.08 4.92-11 11-11Z"/><path id="Rectangle-Copy" class="cls-1" d="M237 32c6.08 0 11 4.92 11 11v22c0 6.08-4.92 11-11 11s-11-4.92-11-11V43c0-6.08 4.92-11 11-11Z"/><path id="Combined-Shape" d="M207 62v3c0 16.57 13.43 30 30 30s30-13.43 30-30v-3h3c7.73 0 14 6.27 14 14v198c0 7.73-6.27 14-14 14H50c-7.73 0-14-6.27-14-14V76c0-7.73 6.27-14 14-14h3v3c0 16.57 13.43 30 30 30s30-13.43 30-30v-3h94ZM40 112h240v158c0 7.73-6.27 14-14 14H54c-7.73 0-14-6.27-14-14V112Z" stroke-width="16" fill-rule="evenodd" stroke="#fff"/></g><g id="hr"><path id="Fill-1-Copy" class="cls-2" d="M118.29 143v36.99s11.53-2.42 21.68-2.32c16.86.17 25.31 9.29 25.91 21.21.15 3.03.12 4.7.12 7.95v48.16h-17.79V205.8c0-6.02.38-13.5-13.06-13.43-9.57.05-16.33 1.9-16.33 1.9v60.72h-17.36V144.1l16.83-1.11Z"/><path id="Fill-3-Copy" class="cls-2" d="M230.53 177.17c-.22-.04-16.07.36-25.43 2.49-10.92 2.47-17.92 8.99-18.89 18.95-.18 1.92-.28 3.14-.28 7.5v47.94h17.98v-49.03c0-4.3.34-7.04 3.18-9.55 3.23-2.85 10.57-3.27 14.78-3.6 2.89-.23 8.66-.5 8.66-.5v-14.19Z"/></g></g></symbol><symbol id="hrcalendar-ds" viewBox="0 0 320 320" preserveAspectRatio="xMidYMid meet"><style type="text/css">.st0{fill:#fff}</style><path class="st0" d="M83 76c6.1 0 11-4.9 11-11V43c0-6.1-4.9-11-11-11s-11 4.9-11 11v22c0 6.1 4.9 11 11 11zm154 0c6.1 0 11-4.9 11-11V43c0-6.1-4.9-11-11-11s-11 4.9-11 11v22c0 6.1 4.9 11 11 11z"/><path class="st0" d="M270 54h-11v11c0 12.1-9.9 22-22 22s-22-9.9-22-22V54H105v11c0 12.1-9.9 22-22 22s-22-9.9-22-22V54H50c-12.1 0-22 9.9-22 22v198c0 12.1 9.9 22 22 22h220c12.1 0 22-9.9 22-22V76c0-12.1-9.9-22-22-22zm2 66v150c0 3.3-2.7 6-6 6H54c-3.3 0-6-2.7-6-6V120h224z"/><path class="st0" d="M140 173.7c-6.9-.1-14.4 1-18.7 1.7v-36.6l-22.8 1.5V257h23.4v-61.3c2.6-.5 7.4-1.3 13.4-1.3h.1c4 0 6.8.7 8.2 2.2 1.7 1.7 1.7 4.8 1.7 7.8V257H169v-52.6c0-2.4 0-4.1-.1-6.7-.8-14.7-11.8-23.9-28.9-24zm93.5 0-2.4-.4c-.9-.2-17.1.4-26.6 2.5-12.6 2.9-20.1 10.5-21.2 21.6-.2 2.1-.3 3.5-.3 7.8V256h24v-52c0-4 .3-5.7 2.2-7.3 2.3-2 8.8-2.5 12.3-2.8l.7-.1c2.8-.2 8.5-.5 8.6-.5l2.9-.1-.2-19.5z"/></symbol><symbol id="instagram-ds" viewBox="0 0 320 320" preserveAspectRatio="xMidYMid meet"><path class="cls-1" d="M287.23 107.23c-.62-13.62-2.79-22.93-5.95-31.07-3.27-8.42-7.65-15.55-14.76-22.67-7.12-7.12-14.25-11.49-22.67-14.76-8.14-3.16-17.45-5.33-31.07-5.95-13.65-.62-18.01-.77-52.77-.77s-39.12.15-52.77.77c-13.62.62-22.93 2.79-31.07 5.95C67.75 42 60.61 46.38 53.5 53.49c-7.12 7.12-11.49 14.25-14.76 22.67-3.16 8.14-5.33 17.45-5.95 31.07-.62 13.65-.77 18.01-.77 52.77s.15 39.12.77 52.77c.62 13.62 2.79 22.93 5.95 31.07 3.27 8.42 7.65 15.56 14.76 22.67 7.12 7.12 14.25 11.49 22.67 14.76 8.14 3.16 17.45 5.33 31.07 5.95 13.65.62 18.01.77 52.77.77s39.12-.15 52.77-.77c13.62-.62 22.93-2.79 31.07-5.95 8.42-3.27 15.56-7.65 22.67-14.76 7.12-7.12 11.49-14.25 14.76-22.67 3.16-8.14 5.33-17.45 5.95-31.07.62-13.65.77-18.01.77-52.77s-.15-39.12-.77-52.77Zm-23.04 104.5c-.57 12.48-2.65 19.26-4.41 23.77-2.32 5.97-5.1 10.24-9.58 14.72s-8.74 7.25-14.72 9.58c-4.51 1.75-11.29 3.84-23.77 4.41-13.5.62-17.54.75-51.72.75s-38.23-.13-51.72-.75c-12.48-.57-19.26-2.65-23.77-4.41-5.97-2.32-10.24-5.1-14.72-9.58s-7.25-8.74-9.58-14.72c-1.75-4.51-3.84-11.29-4.41-23.77-.62-13.5-.75-17.55-.75-51.72s.13-38.23.75-51.72c.57-12.48 2.65-19.26 4.41-23.77 2.32-5.97 5.1-10.24 9.58-14.72s8.74-7.25 14.72-9.58c4.51-1.75 11.29-3.84 23.77-4.41 13.5-.62 17.55-.75 51.72-.75s38.23.13 51.72.75c12.48.57 19.26 2.65 23.77 4.41 5.97 2.32 10.24 5.1 14.72 9.57 4.48 4.48 7.25 8.74 9.58 14.72 1.75 4.51 3.84 11.29 4.41 23.77.62 13.5.75 17.55.75 51.72s-.13 38.23-.75 51.72Z"/><path class="cls-1" d="M160 94.27c-36.3 0-65.73 29.43-65.73 65.73s29.43 65.73 65.73 65.73 65.73-29.43 65.73-65.73S196.3 94.27 160 94.27Zm0 108.4c-23.56 0-42.67-19.1-42.67-42.67s19.1-42.67 42.67-42.67 42.67 19.1 42.67 42.67-19.1 42.67-42.67 42.67Zm68.33-126.36c-8.48 0-15.36 6.88-15.36 15.36s6.88 15.36 15.36 15.36 15.36-6.88 15.36-15.36-6.88-15.36-15.36-15.36Z"/></symbol><symbol id="kontakt-ds" viewBox="0 0 320 320" preserveAspectRatio="xMidYMid meet"><path d="M273.28 57H46.72C33.64 57 23 67.64 23 80.72v158.56C23 252.36 33.64 263 46.72 263h226.56c13.08 0 23.72-10.64 23.72-23.72V80.72C297 67.64 286.36 57 273.28 57ZM43 89.26l74.6 70.76L43 230.77V89.26Zm119.56 80.97a3.723 3.723 0 0 1-5.12 0L62.77 80.44h194.46l-94.67 89.79Zm-30.61 3.74c.06-.06.12-.12.18-.19l11.55 10.95c4.58 4.34 10.45 6.51 16.32 6.51s11.75-2.17 16.32-6.51l11.55-10.96c.06.06.11.13.18.19l72.79 69.03H59.17l72.78-69.03Zm70.45-13.96L277 89.26v141.51l-74.6-70.75Z"/></symbol><symbol id="linkedin-ds" viewBox="0 0 320 320" preserveAspectRatio="xMidYMid meet"><path id="n" class="cls-1" d="M125.38 122.31h44.72v20.5h.64a48.932 48.932 0 0 1 44.1-24.23c47.22 0 55.92 31.07 55.92 71.44v82.24h-46.57v-72.92c0-17.41-.32-39.78-24.26-39.78s-27.94 18.95-27.94 38.51v74.16h-46.57l-.03-149.93Z"/><path id="i" class="cls-1" d="M52.99 122.29h46.57v149.97H52.99V122.29Zm23.28-74.56c14.92 0 27.01 12.1 27.01 27.02s-12.1 27.01-27.02 27.01-27.01-12.1-27.01-27.02 12.1-27.02 27.02-27.02"/></symbol><symbol id="minus" viewBox="0 0 320 320" preserveAspectRatio="xMidYMid meet"><path d="M250 150H70c-5.5 0-10 4.5-10 10s4.5 10 10 10h180c5.5 0 10-4.5 10-10s-4.5-10-10-10z" fill-rule="evenodd" clip-rule="evenodd"/></symbol><symbol id="news-ds" viewBox="0 0 320 320" preserveAspectRatio="xMidYMid meet"><path class="cls-1" d="M274.68 80H78.64C61.75 80 48 93.82 48 110.81v131.55c0 16.99 13.74 30.81 30.64 30.81h196.05c16.89 0 30.64-13.82 30.64-30.81V110.81c0-16.99-13.74-30.81-30.64-30.81Zm10.64 162.37c0 5.96-4.77 10.81-10.64 10.81H78.64c-5.86 0-10.64-4.85-10.64-10.81V110.81c0-5.96 4.77-10.81 10.64-10.81h196.05c5.87 0 10.64 4.85 10.64 10.81v131.55Z"/><rect class="cls-1" x="84" y="124" width="85" height="46" rx="10" ry="10"/><path d="M92 184h169c4.42 0 8 3.58 8 8s-3.58 8-8 8H92c-4.42 0-8-3.58-8-8s3.58-8 8-8Zm100-30h69c4.42 0 8 3.58 8 8s-3.58 8-8 8h-69c-4.42 0-8-3.58-8-8s3.58-8 8-8Zm0-30h69c4.42 0 8 3.58 8 8s-3.58 8-8 8h-69c-4.42 0-8-3.58-8-8s3.58-8 8-8ZM92 214h169c4.42 0 8 3.58 8 8s-3.58 8-8 8H92c-4.42 0-8-3.58-8-8s3.58-8 8-8Z" fill-rule="evenodd"/><path class="cls-1" d="M32.54 106.16c.05-10.31 5.15-19.93 13.62-25.71l-13.62 1.98c-11.2 1.71-18.94 12.21-17.33 23.52l17.33 122.91v-122.7Zm234.08-41.28c.79-.05 1.58-.05 2.37 0l-.62-4.48c-1.85-11.22-12.28-18.86-23.42-17.17L94.1 64.88h172.52Z"/></symbol><symbol id="pause" viewBox="0 0 44 44" preserveAspectRatio="xMidYMid meet"><path d="M30.375 34.083c0 .552-.527 1-1.176 1h-2.647c-.65 0-1.176-.448-1.176-1v-24c0-.552.527-1 1.176-1h2.647c.65 0 1.176.448 1.176 1v24zm-11.767-.05c0 .552-.527 1-1.176 1h-2.647c-.65 0-1.176-.448-1.176-1v-24c0-.552.527-1 1.176-1h2.647c.65 0 1.176.448 1.176 1v24z" fill="currentColor"/></symbol><symbol id="play-wide" viewBox="0 0 48 48" preserveAspectRatio="xMidYMid meet"><path class="currentColor" d="M33.4 22.7 19.6 15c-.5-.3-1.2-.1-1.4.4-.1.2-.1.3-.1.5v15.6c0 .6.5 1.1 1.1 1.1.2 0 .4 0 .5-.1l13.8-8c.5-.3.7-.9.4-1.4-.2-.2-.3-.4-.5-.4"/></symbol><symbol id="playlist-ds" viewBox="0 0 320 320" preserveAspectRatio="xMidYMid meet"><path d="M305.68 57.85c-.88-3.54-4.45-5.7-7.99-4.82L236.7 68.12c-3.93.97-6.69 4.5-6.69 8.54v15.56l-2.07 109.44c-8.39-4.22-18.65-5.65-29.01-3.31-21.69 4.9-35.6 24.43-31.07 43.63 4.53 19.2 25.79 30.79 47.48 25.89 19.59-4.42 32.82-20.78 31.87-38.04l2.13-112.27 49.85-12.34c3.93-.97 6.69-4.5 6.69-8.54V59.43c0-.53-.06-1.07-.19-1.59Z" fill-rule="evenodd"/><path d="M134.5 239h-109c-5.8 0-10.5 4.7-10.5 10.5S19.7 260 25.5 260h109c5.8 0 10.5-4.7 10.5-10.5s-4.7-10.5-10.5-10.5Zm0-60h-109c-5.8 0-10.5 4.7-10.5 10.5S19.7 200 25.5 200h109c5.8 0 10.5-4.7 10.5-10.5s-4.7-10.5-10.5-10.5Zm64-60h-173c-5.8 0-10.5 4.7-10.5 10.5S19.7 140 25.5 140h173c5.8 0 10.5-4.7 10.5-10.5s-4.7-10.5-10.5-10.5Zm0-60h-173C19.7 59 15 63.7 15 69.5S19.7 80 25.5 80h173c5.8 0 10.5-4.7 10.5-10.5S204.3 59 198.5 59Z"/></symbol><symbol id="plus" viewBox="0 0 320 320" preserveAspectRatio="xMidYMid meet"><path d="M250 150h-80V70c0-5.52-4.48-10-10-10s-10 4.48-10 10v80H70c-5.52 0-10 4.48-10 10s4.48 10 10 10h80v80c0 5.52 4.48 10 10 10s10-4.48 10-10v-80h80c5.52 0 10-4.48 10-10s-4.48-10-10-10Z" fill-rule="evenodd"/></symbol><symbol id="podcast-ds" viewBox="0 0 320 320" preserveAspectRatio="xMidYMid meet"><circle class="cls-1" cx="160.88" cy="151.88" r="22.5"/><path class="cls-1" d="M166.98 214.55a7.917 7.917 0 0 0-13.71 0l-37.2 64.28a7.914 7.914 0 0 0 2.89 10.82c1.21.7 2.57 1.07 3.97 1.07h74.39c4.37 0 7.92-3.55 7.92-7.92 0-1.39-.37-2.76-1.06-3.97l-37.19-64.28Z"/><path class="cls-1" d="m188.74 200.43 9.97 17.34a76.971 76.971 0 0 0 17.02-13.29c14.29-14.79 21.96-34.26 21.6-54.83-.36-20.56-8.7-39.75-23.5-54.04-14.79-14.29-34.28-21.97-54.82-21.6-20.56.36-39.75 8.7-54.04 23.5-29.49 30.54-28.64 79.37 1.9 108.86 4.5 4.35 9.51 8.13 14.88 11.25l10.04-17.3a57.128 57.128 0 0 1-11.03-8.34c-22.6-21.83-23.23-57.98-1.41-80.58 10.57-10.95 24.78-17.13 40-17.39 15.21-.25 29.63 5.41 40.58 15.99s17.13 24.78 17.39 40-5.41 29.63-15.99 40.58a57.3 57.3 0 0 1-12.6 9.85Z"/><path class="cls-1" d="M248.01 59.87c-24.34-23.51-56.39-36.11-90.22-35.54-33.84.59-65.42 14.32-88.92 38.66-23.51 24.34-36.13 56.38-35.54 90.22.59 33.83 14.32 65.41 38.66 88.92 7.37 7.12 15.56 13.32 24.35 18.43l10.06-17.29c-7.39-4.3-14.3-9.53-20.51-15.53-20.5-19.8-32.06-46.39-32.56-74.88-.5-28.49 10.13-55.48 29.93-75.98 19.8-20.5 46.39-32.06 74.88-32.56 28.48-.5 55.48 10.13 75.98 29.93 42.32 40.87 43.5 108.54 2.63 150.86a106.943 106.943 0 0 1-23.42 18.33l10 17.32c10.2-5.89 19.55-13.21 27.8-21.75 48.53-50.25 47.12-130.61-3.13-179.14Z"/></symbol><symbol id="push-ds" viewBox="0 0 320 320" preserveAspectRatio="xMidYMid meet"><path d="M268.28 226.68c-1.6-7.58-5.42-14.98-12.01-23.27l-4.77-6.82c-.44-.7-.89-1.43-1.33-2.16l-1.17-2c-4.37-7.6-9.88-19.13-11.34-30.91-1.02-8.28-1.92-16.56-2.96-26.48l-.75-6.94c-.25-2.33-.51-4.67-.77-7.02l-.48-4.25-.15-1.14c-3.65-26.54-22.07-48.17-46.32-57.15-.79-12.84-10.48-26.04-25.76-26.04s-24.96 13.2-25.76 26.04c-24.59 9.08-43.07 31.15-46.39 58.3l-.49 4.26c-.34 3.01-.66 6.03-.99 9.04l-.54 4.94c-1.04 9.86-1.94 18.13-2.96 26.44-1.46 11.8-6.98 23.33-11.33 30.89l-1.18 2c-.53.89-1.06 1.73-1.55 2.5l-1.89 2.86-2.98 4.04c-6.41 8.15-10.13 15.42-11.71 22.88-1.9 9.01-.05 18.05 5.08 24.83 5.04 6.62 13.04 10.42 21.98 10.42l5.68-.02c7.48-.02 14.96-.02 22.4-.03h20.04c3.11 15.05 14.17 28.11 32.59 28.11s29.17-13.16 32.51-28.11h25.73c5.59 0 11.2 0 16.8.02l5.78.02h.36c8.86-.12 16.51-3.82 21.54-10.44 5.11-6.76 6.96-15.8 5.07-24.81ZM160.5 272c-8.22 0-12.08-5.07-13.9-10h27.47c-2.17 5.17-6.38 10-13.57 10Zm86.78-32.61c-1.56 2.04-4.05 2.5-5.81 2.53h-.2l-5.69-.01c-5.62-.01-11.24-.02-16.85-.02h-16.77l-41.23.04-41.72-.04h-11.17c-7.46 0-14.95 0-22.45.03l-5.65.02c-1.88 0-4.45-.44-6.02-2.51-1.23-1.63-2.25-4.74-1.44-8.62.93-4.4 3.35-8.91 7.83-14.61l1.52-1.97 4.48-6.51c.6-.95 1.22-1.94 1.87-3.02l1.34-2.28c5.29-9.19 11.98-23.32 13.86-38.44 1.04-8.47 1.95-16.84 2.99-26.76l.53-4.92c.32-2.98.64-5.97.98-8.93l.47-4.17c3.13-25.65 25.23-45.04 51.38-45.12h1.86c25.79.07 47.85 19.14 51.3 44.28l.58 4.99c.26 2.31.51 4.62.76 6.92l.75 6.91c1.05 10 1.96 18.38 3 26.81 1.87 15.11 8.57 29.24 13.88 38.47l1.34 2.27c.54.9 1.07 1.76 1.61 2.61l2.51 3.81 3.45 4.69c4.67 5.87 7.17 10.49 8.11 14.97.82 3.88-.21 6.99-1.42 8.6Z"/></symbol><symbol id="quotation" viewBox="0 0 80 66" preserveAspectRatio="xMidYMid meet"><path d="M14.85 66 0 56.82c4.19-5.95 7.36-12.03 9.5-18.24s3.21-12.78 3.21-19.73V0h26.35v18.48c0 8.11-2.19 16.58-6.56 25.43C28.14 52.77 22.25 60.13 14.85 66zm40.94 0-14.85-9.18c4.19-5.95 7.36-12.03 9.5-18.24s3.21-12.78 3.21-19.73V0H80v18.48c0 8.11-2.19 16.58-6.56 25.43C69.07 52.77 63.19 60.13 55.79 66z"/></symbol><symbol id="rss-ds" viewBox="0 0 320 320" preserveAspectRatio="xMidYMid meet"><style type="text/css">.st0{fill-rule:evenodd;clip-rule:evenodd;fill:#fff}</style><path class="st0" d="M54.9 132.5v32.4c55.3 0 100.2 44.9 100.2 100.2h32.4c0-73.1-59.5-132.6-132.6-132.6z"/><path class="st0" d="M54.9 54.9v32.4c98 0 177.8 79.8 177.8 177.8h32.4c0-115.9-94.3-210.2-210.2-210.2z"/><circle transform="rotate(-13.279 84.003 236.011)" cx="84" cy="236" r="29.1"/></symbol><symbol id="suche-ds" viewBox="0 0 320 320" preserveAspectRatio="xMidYMid meet"><path d="m270.07 255.93-66.35-66.35C215.78 174.45 223 155.31 223 134.5c0-48.8-39.7-88.5-88.5-88.5S46 85.7 46 134.5 85.7 223 134.5 223c20.8 0 39.95-7.22 55.08-19.28l66.35 66.35c1.95 1.95 4.51 2.93 7.07 2.93s5.12-.98 7.07-2.93c3.91-3.91 3.91-10.24 0-14.14ZM66 134.5C66 96.73 96.73 66 134.5 66S203 96.73 203 134.5 172.27 203 134.5 203 66 172.27 66 134.5Z"/></symbol><symbol id="tickets-ds" viewBox="0 0 320 320" preserveAspectRatio="xMidYMid meet"><ellipse class="cls-1" cx="90.05" cy="146.28" rx="11.75" ry="11.77" transform="rotate(-50 90.055 146.282)"/><path class="cls-1" d="M103.87 111.51c-4.17 4.97-3.52 12.39 1.46 16.57s12.4 3.53 16.57-1.44 3.52-12.39-1.46-16.57-12.4-3.53-16.57 1.44Z"/><ellipse class="cls-1" cx="135.71" cy="91.87" rx="11.75" ry="11.77" transform="rotate(-50.04 135.717 91.863)"/><path class="cls-1" d="M306.49 179.4c-.32-3.64-2.04-6.94-4.84-9.29L124.95 21.83c-2.8-2.35-6.35-3.47-9.99-3.15-3.64.32-6.94 2.04-9.29 4.84L71.75 63.94l7.66 6.43c3.53 2.96 4.26 7.08 4.26 10.02 0 4.23-1.54 8.57-4.11 11.63-2.56 3.06-6.58 5.32-10.74 6.06-2.89.51-7.08.51-10.61-2.45l-7.66-6.43-33.92 40.43c-2.35 2.8-3.47 6.35-3.15 9.99.32 3.64 2.04 6.94 4.84 9.29l176.71 148.27c2.49 2.09 5.57 3.2 8.77 3.2a13.609 13.609 0 0 0 10.51-4.89l33.92-40.42-7.66-6.43c-6.66-5.59-4.58-16.38-.15-21.65s14.69-9.2 21.35-3.61l7.66 6.43 33.92-40.42c2.35-2.8 3.47-6.35 3.15-9.99Zm-40.57 23.47c-14.43-5.68-31.48.12-40.83 11.27-9.35 11.15-12.11 28.94-4.01 42.17l-18.04 21.5L36 137.65l18.05-21.51c5.6 2.2 11.84 2.78 18.27 1.64 8.77-1.56 16.99-6.26 22.56-12.9 5.57-6.64 8.77-15.55 8.79-24.46.01-6.53-1.65-12.57-4.79-17.7l18.05-21.51 167.03 140.16-18.04 21.5Z"/></symbol><symbol id="tvprogram-ds" viewBox="0 0 320 320" preserveAspectRatio="xMidYMid meet"><style type="text/css">.st0{fill:#fff}</style><path class="st0" d="M83 76c6.1 0 11-4.9 11-11V43c0-6.1-4.9-11-11-11s-11 4.9-11 11v22c0 6.1 4.9 11 11 11zm154 0c6.1 0 11-4.9 11-11V43c0-6.1-4.9-11-11-11s-11 4.9-11 11v22c0 6.1 4.9 11 11 11z"/><path class="st0" d="M270 54h-11v11c0 12.1-9.9 22-22 22s-22-9.9-22-22V54H105v11c0 12.1-9.9 22-22 22s-22-9.9-22-22V54H50c-12.1 0-22 9.9-22 22v198c0 12.1 9.9 22 22 22h220c12.1 0 22-9.9 22-22V76c0-12.1-9.9-22-22-22zm2 216c0 3.3-2.7 6-6 6H54c-3.3 0-6-2.7-6-6V120h224v150z"/><path class="st0" d="M105.5 246H124v-74.6h27.4v-15H78.5v15h27zm105.2 0 31.2-89.6h-20.5l-20.3 67.4-20.2-67.4h-20.5l31.1 89.6z"/></symbol><symbol id="tvprogramm-ds" viewBox="0 0 320 320" preserveAspectRatio="xMidYMid meet"><g stroke="none" stroke-width="1" fill-rule="evenodd"><g transform="translate(36 32)"><rect x="36" y="0" width="22" height="44" rx="11"/><rect x="190" y="0" width="22" height="44" rx="11"/><path d="M171 30v3c0 16.569 13.431 30 30 30 16.569 0 30-13.431 30-30v-3h3c7.732 0 14 6.268 14 14v198c0 7.732-6.268 14-14 14H14c-7.732 0-14-6.268-14-14V44c0-7.732 6.268-14 14-14h3v3c0 16.569 13.431 30 30 30 16.569 0 30-13.431 30-30v-3h94ZM4 80h240v158c0 7.732-6.268 14-14 14H18c-7.732 0-14-6.268-14-14V80Z" stroke="#000" stroke-width="16"/></g><path d="M151.428 171.372h-27.44V246h-18.457v-74.628h-27.07v-14.95h72.967zm49.644 52.418 20.303-67.368h20.549L210.73 246h-19.256l-31.07-89.578h20.488z" fill-rule="nonzero"/></g></symbol><symbol id="twitter-ds" viewBox="0 0 320 320" preserveAspectRatio="xMidYMid meet"><path d="M253.84 111.8c.14 2.08.14 4.17.14 6.27 0 64.06-48.7 137.93-137.76 137.93v-.04c-26.31.04-52.07-7.51-74.22-21.73 3.83.46 7.67.69 11.52.7 21.8.02 42.98-7.31 60.13-20.79-20.72-.39-38.89-13.92-45.23-33.67 7.26 1.4 14.74 1.11 21.86-.84-22.59-4.57-38.84-24.44-38.84-47.52v-.61a48.114 48.114 0 0 0 21.97 6.07C52.14 123.33 45.58 95 58.42 72.84a137.352 137.352 0 0 0 99.79 50.65c-3.9-16.84 1.43-34.48 14.01-46.32 19.5-18.35 50.17-17.41 68.5 2.1a96.978 96.978 0 0 0 30.75-11.77 48.657 48.657 0 0 1-21.28 26.81c9.6-1.13 18.97-3.71 27.8-7.63a98.446 98.446 0 0 1-24.16 25.11" fill-rule="evenodd"/></symbol><symbol id="video-ds" viewBox="0 0 320 320" preserveAspectRatio="xMidYMid meet"><path d="M160.5 294C86.89 294 27 234.11 27 160.5S86.89 27 160.5 27 294 86.89 294 160.5 234.11 294 160.5 294Zm0-247C97.92 47 47 97.92 47 160.5S97.92 274 160.5 274 274 223.08 274 160.5 223.08 47 160.5 47Z"/><path d="m210.61 167.34-70.15 39.87a8.007 8.007 0 0 1-11.96-6.95v-79.75c0-4.42 3.58-8 8-8 1.39 0 2.75.36 3.95 1.05l70.15 39.87c3.84 2.18 5.18 7.07 3 10.91a8 8 0 0 1-3 3Z" fill-rule="evenodd"/></symbol><symbol id="voice-ds" viewBox="0 0 320 320" preserveAspectRatio="xMidYMid meet"><path class="cls-1" d="M197.35 161.45c-7.18 0-15.08-1.61-20.97-7.75l-9.62 9.8c8.62 8.63 18.67 10.68 30.59 10.68 17.38 0 30.3-8.05 30.3-23.55 0-13.17-8.04-19.75-21.68-20.92l-11.49-1.02c-7.76-.73-10.05-4.1-10.05-8.49 0-5.56 4.45-9.51 13.21-9.51 6.89 0 13.35 1.46 17.95 5.41l9.19-9.51c-6.75-6-16.08-8.34-27-8.34-15.22 0-27.43 8.19-27.43 22.67 0 13.02 7.9 19.31 21.54 20.48l11.63 1.02c7.04.58 9.76 3.8 9.76 8.77 0 7.02-7.03 10.24-15.94 10.24Zm-87.13-47.82s6.16-1.67 14.87-1.71c12.24-.06 11.89 6.7 11.89 12.15v49.23h16.2V125c0-2.94.03-4.46-.11-7.2-.55-10.78-8.24-19.03-23.6-19.19-9.24-.1-19.76 2.09-19.76 2.09V67.25L94.4 68.26V173.3h15.81v-59.67Zm97.83 74.22c-9.67 0-15.9 4.53-18.48 12.56-.86 2.64-1.34 5.67-1.34 20.59s.48 17.95 1.34 20.59c2.59 8.03 8.81 12.56 18.48 12.56s15.9-4.53 18.58-12.56c.86-2.64 1.34-5.67 1.34-20.59s-.48-17.95-1.34-20.59c-2.68-8.03-8.91-12.56-18.58-12.56Zm8.31 52.02c-1.22 3.45-3.95 5.17-7.89 5.17s-6.58-1.72-7.8-5.17c-.66-2.01-.85-4.21-.85-18.86s.19-16.85.85-18.86c1.22-3.45 3.85-5.17 7.8-5.17s6.67 1.72 7.89 5.17c.66 2.01.85 4.21.85 18.86s-.19 16.85-.85 18.86ZM94.9 208.94l10.89-6.85h.19v41.48c0 .38-.19.56-.57.56H94.9c-.57 0-.96.38-.96.94v7.32c0 .56.38.94.96.94h32.76c.57 0 .96-.38.96-.94v-7.32c0-.56-.38-.94-.96-.94h-10.51c-.38 0-.57-.19-.57-.56v-53.12c0-.56-.38-.94-.96-.94h-8.12c-.76 0-1.24.19-1.72.56l-11.27 7.41c-.48.38-.67.75-.67 1.31v9.57c0 .75.48.94 1.05.56Zm42.51-8.53c-.86 2.64-1.34 5.67-1.34 20.59s.48 17.95 1.34 20.59c2.58 8.03 8.81 12.56 18.48 12.56s15.89-4.53 18.58-12.56c.86-2.64 1.34-5.67 1.34-20.59s-.48-17.95-1.34-20.59c-2.68-8.03-8.91-12.56-18.58-12.56s-15.89 4.53-18.48 12.56Zm11.09 1.73c1.22-3.45 3.85-5.17 7.8-5.17s6.67 1.72 7.89 5.17c.66 2.01.85 4.21.85 18.86s-.19 16.85-.85 18.86c-1.22 3.45-3.95 5.17-7.89 5.17s-6.58-1.72-7.8-5.17c-.66-2.01-.85-4.21-.85-18.86s.19-16.85.85-18.86Z"/><path class="cls-1" d="M93.63 29.95c-1.2.01-29.51.55-48.61 19.63C33.7 60.89 27.96 76.37 27.96 95.57v195.47H227.4c1.2-.02 29.54-.62 48.58-19.62 11.33-11.31 17.08-26.79 17.08-46V29.95H93.63Zm183.78 15.63v180.35c0 14.96-4.39 26.94-13.06 35.59-14.26 14.24-35.1 14.84-37.42 14.86H42.62V96.03c0-14.97 4.4-26.94 13.07-35.6 14.58-14.55 36.56-14.85 37.48-14.85h184.24Z"/></symbol><symbol id="wetter-ds" viewBox="0 0 320 320" preserveAspectRatio="xMidYMid meet"><style type="text/css">.st0{fill-rule:evenodd;clip-rule:evenodd;fill:#fff}</style><g id="sonne" transform="rotate(76 142.86 182.853)"><path class="st0" d="m50.3 40.2 24 23.3c3.7 3.6 3.7 9.5.1 13.2l-.2.2c-3.8 3.7-9.9 3.7-13.8 0l-24-23.3c-3.7-3.6-3.8-9.5-.2-13.2l.2-.2c3.9-3.7 10.1-3.8 13.9 0z" id="Rectangle"/><path class="st0" d="M145.7 9.2v31.9c0 5.5-4.5 10-10 10s-10-4.5-10-10V9.2c0-5.5 4.5-10 10-10 5.6 0 10 4.5 10 10z" id="Rectangle_00000129166584932927235220000005671664920609910660_"/><path class="st0" d="m233.2 53.6-24 23.3c-3.8 3.7-10 3.7-13.8 0-3.7-3.6-3.8-9.5-.2-13.2l.2-.2 24-23.3c3.8-3.7 10-3.7 13.8 0 3.7 3.6 3.8 9.5.2 13.2-.1.1-.2.1-.2.2z" id="Rectangle_00000008844732721682047490000015175444366039526810_"/><path class="st0" d="m39.4 222.6 24-23.3c3.8-3.7 10-3.7 13.8 0 3.7 3.6 3.8 9.5.2 13.2l-.2.2-24 23.3c-3.8 3.7-10 3.7-13.8 0-3.7-3.6-3.8-9.5-.2-13.2.1-.1.2-.1.2-.2z" id="Rectangle_00000093873919033133865910000002269964773622228630_"/><path class="st0" d="M7.5 129.4h33.4c5.5 0 10 4.5 10 10s-4.5 10-10 10H7.5c-5.5 0-10-4.5-10-10 0-5.6 4.5-10 10-10z" id="Rectangle_00000131366677170516549070000008260706269183316624_"/></g><path d="M261.3 163.3c0-40.5-33.8-73.5-75.3-73.5-39.8 0-72.4 30.3-75.1 68.4-6.4 3.2-12.1 7.4-17 12.4-10-6.5-21.8-10-34-10-15.9 0-30.9 5.8-42.2 16.4C6.4 187.7.2 201.7.2 216.7c0 9.6 2.6 19 7.6 27.3s12.2 15.4 21.1 20.5c22.6 13.8 58.2 21.8 97.6 21.8 1.5 0 3 .1 4.6.1 13.8 0 31.1-1.3 52.7-4 18.6-2.3 34.6-8.2 46.2-17.1 11.4-8.7 17.4-19.6 17.4-31.5 0-7.1-2.2-14-6.3-20.3 12.9-13.6 20.2-31.5 20.2-50.2zM186 109.8c30.5 0 55.3 24 55.3 53.5 0 13.4-5.2 26.2-14.4 36-7.5-5.2-16.6-8.9-26.6-11-4.3-11-12.3-20.3-22.9-27-10.6-6.7-23-10.2-36-10.2-3.2 0-6.3.2-9.3.6 5.4-23.9 27.5-41.9 53.9-41.9zm31.9 139.6c-8.7 6.6-21.6 11.3-36.5 13.1-23.2 2.9-41 4.1-54.5 3.8h-.2c-35.5 0-68.1-7.1-87.4-18.9l-.2-.1c-6-3.5-10.7-8-14-13.5-3.1-5.2-4.8-11.1-4.8-17.1 0-9.4 4-18.3 11.2-25 7.6-7.1 17.7-11 28.5-11 8.4 0 16.3 2.3 23.1 6.7 2 1.3 3.9 2.8 5.7 4.5l8.6 8.1 6.6-9.9c1.3-2 2.9-3.9 4.5-5.6 8.1-8.5 20.2-13.4 33-13.4 9.2 0 17.9 2.5 25.3 7.1 7 4.5 12.2 10.5 15 17.5.5 1.3.9 2.6 1.3 4l1.7 6.6 6.8.8c1.6.2 3.2.5 4.8.8 9.8 2 18.4 6.2 24.2 11.8 3.2 3.1 6.9 8 6.9 14-.1 5.6-3.3 10.9-9.6 15.7z"/></symbol><symbol id="whatsapp-ds" viewBox="0 0 320 320" preserveAspectRatio="xMidYMid meet"><path d="M255.81 64.23C230.53 38.92 196.88 25 161.06 25 87.24 25 27.14 85.01 27.12 158.78c0 23.58 6.16 46.61 17.87 66.9L26 295l71.01-18.6a133.828 133.828 0 0 0 64 16.29h.05c73.82 0 133.92-60.03 133.94-133.81.03-35.76-13.91-69.37-39.19-94.65Zm-94.75 205.86h-.05c-19.97 0-39.57-5.36-56.67-15.49l-4.06-2.41-42.14 11.04 11.29-41.04-2.66-4.22c-11.15-17.69-17.02-38.17-17.02-59.18.03-61.31 49.95-111.18 111.37-111.18 29.74 0 57.68 11.59 78.71 32.6 21 21.01 32.58 48.97 32.58 78.68-.05 61.31-49.98 111.2-111.34 111.2Zm61.08-83.3c-3.35-1.67-19.81-9.76-22.86-10.88-3.08-1.11-5.31-1.67-7.54 1.67-2.23 3.34-8.66 10.88-10.6 13.1s-3.9 2.52-7.25.85-14.13-5.2-26.9-16.61c-9.96-8.86-16.68-19.82-18.61-23.16-1.97-3.34-.21-5.15 1.46-6.82 1.51-1.49 3.35-3.9 5.02-5.86s2.23-3.34 3.35-5.57c1.12-2.23.56-4.19-.29-5.86-.85-1.67-7.54-18.12-10.33-24.83-2.71-6.53-5.47-5.62-7.54-5.73-1.94-.11-4.2-.11-6.43-.11s-5.87.85-8.92 4.19c-3.08 3.34-11.71 11.43-11.71 27.88s12 32.36 13.68 34.59c1.67 2.23 23.61 36 57.17 50.48 7.99 3.45 14.21 5.49 19.07 7.03 8.02 2.55 15.32 2.18 21.08 1.33 6.43-.96 19.81-8.09 22.6-15.89 2.79-7.8 2.79-14.51 1.94-15.89-.8-1.41-3.03-2.25-6.37-3.93Z"/></symbol><symbol id="x-ds" viewBox="0 0 320 320" preserveAspectRatio="xMidYMid meet"><path d="M186.06 143.04c27.46-31.32 54.9-62.63 82.39-93.99-.15-.03-.17-.03-.2-.03-12.35 0-24.71 0-37.06.01-.27 0-.61.21-.8.42-10.47 11.92-20.93 23.86-31.39 35.79l-27.92 31.85c-.82.94-1.64 1.87-2.49 2.83-.16-.21-.28-.36-.4-.51-12.45-16.43-24.9-32.86-37.36-49.29-5.18-6.84-10.37-13.67-15.53-20.52-.33-.44-.66-.61-1.22-.61-25.42.01-50.85.01-76.27.01h-.82l.42.57C54.05 71.29 70.7 93 87.33 114.73c11.07 14.46 22.13 28.93 33.2 43.39 3.01 3.93 6.03 7.84 9.06 11.74.34.44.29.69-.06 1.08-12.6 14.35-25.19 28.72-37.78 43.08-16.45 18.77-32.91 37.54-49.36 56.31-.16.18-.31.38-.53.64h.38c12.28 0 24.57 0 36.85-.02.28 0 .63-.18.82-.39 3.16-3.57 6.3-7.16 9.45-10.75 17.47-19.93 34.95-39.86 52.42-59.78 1.94-2.21 3.88-4.42 5.84-6.66 2.29 2.99 4.55 5.93 6.8 8.88 14.1 18.4 28.2 36.8 42.3 55.19 3.33 4.34 6.66 8.68 9.98 13.04.27.36.54.5.99.5 24.88-.01 49.75-.01 74.63-.01.2 0 .39-.02.66-.04-32.35-42.69-64.65-85.3-96.94-127.91Zm50.13 104.94c-6.45 0-12.9 0-19.35.02-.55 0-.9-.19-1.19-.58-2.47-3.2-4.93-6.4-7.39-9.6-4.95-6.45-9.89-12.91-14.85-19.36-4.01-5.22-8.03-10.43-12.05-15.65-10.94-14.21-21.87-28.42-32.81-42.64-11.6-15.07-23.2-30.13-34.8-45.2L80.39 71.62c-.08-.11-.16-.23-.23-.35l-.16-.19c.05-.02.1-.04.15-.05.19 0 .38-.02.57-.02h20.99c.41 0 .68.1.94.44 3.81 5.04 7.65 10.06 11.47 15.09 4.18 5.49 8.36 10.99 12.54 16.48 4.32 5.68 8.65 11.36 12.97 17.04l12.72 16.71c5.65 7.43 11.31 14.85 16.96 22.28 4.18 5.49 8.36 10.99 12.54 16.48 4.32 5.68 8.65 11.36 12.98 17.04 4.25 5.58 8.5 11.17 12.75 16.75 4.3 5.64 8.59 11.29 12.89 16.93 4.22 5.55 8.45 11.1 12.67 16.65 1.25 1.65 2.5 3.29 3.86 5.07h-.81Z" fill-rule="evenodd"/></symbol><symbol id="x" viewBox="0 0 320 320" preserveAspectRatio="xMidYMid meet"><path d="M0 0v320h320V0H0Zm282.34 270.99c-24.88 0-49.75 0-74.63.01-.45 0-.72-.14-.99-.5-3.32-4.35-6.65-8.69-9.98-13.04-14.1-18.4-28.2-36.8-42.3-55.19-2.26-2.95-4.52-5.89-6.8-8.88-1.96 2.24-3.9 4.45-5.84 6.66-17.47 19.93-34.95 39.86-52.42 59.78-3.14 3.59-6.29 7.18-9.45 10.75-.19.21-.54.39-.82.39-12.28.02-24.57.02-36.85.02h-.38c.22-.26.37-.46.53-.64 16.45-18.77 32.91-37.54 49.36-56.31 12.59-14.36 25.18-28.72 37.78-43.08.34-.39.4-.65.06-1.08-3.04-3.9-6.06-7.81-9.06-11.74-11.07-14.46-22.12-28.93-33.2-43.39L37.43 49.59l-.42-.57h.82c25.42 0 50.85 0 76.27-.01.56 0 .89.17 1.22.61 5.17 6.85 10.35 13.68 15.53 20.52 12.45 16.43 24.9 32.86 37.36 49.29.11.15.23.3.4.51.84-.96 1.67-1.89 2.49-2.83l27.92-31.85c10.46-11.93 20.92-23.87 31.39-35.79.19-.22.53-.42.8-.42 12.35-.02 24.71-.01 37.06-.01.02 0 .05 0 .2.03-27.49 31.36-54.94 62.67-82.39 93.99 32.29 42.61 64.58 85.22 96.94 127.91-.26.02-.46.04-.66.04Zm-100.48-95.46c4.32 5.68 8.65 11.36 12.98 17.04 4.25 5.58 8.5 11.17 12.75 16.75 4.3 5.64 8.59 11.29 12.89 16.93 4.22 5.55 8.45 11.1 12.67 16.65 1.25 1.65 2.5 3.29 3.86 5.07h-.81c-6.45 0-12.9 0-19.35.02-.55 0-.9-.19-1.19-.58-2.47-3.2-4.93-6.4-7.39-9.6-4.95-6.45-9.89-12.91-14.85-19.36-4.01-5.22-8.03-10.43-12.05-15.65-10.94-14.21-21.87-28.42-32.81-42.64-11.6-15.07-23.2-30.13-34.8-45.2L80.4 71.61c-.08-.11-.16-.23-.23-.35l-.16-.19c.05-.02.1-.04.15-.05.19 0 .38-.02.57-.02h20.99c.41 0 .68.1.94.44 3.81 5.04 7.65 10.06 11.47 15.09 4.18 5.49 8.36 10.99 12.54 16.48 4.32 5.68 8.65 11.36 12.97 17.04l12.72 16.71c5.65 7.43 11.31 14.85 16.96 22.28 4.18 5.49 8.36 10.99 12.54 16.48Z"/></symbol><symbol id="youtube-ds" viewBox="0 0 320 320" preserveAspectRatio="xMidYMid meet"><path d="M297 160.3v-.3c0-4.9-.3-46.2-5.7-66.6-3.2-12-12.5-21.4-24.3-24.6-20.4-5.5-99-5.8-106.8-5.8h-1.3c-7.8 0-86.4.3-106.8 5.8C40.2 72 30.9 81.5 27.7 93.4 22.3 114.1 22 156 22 160.2v.7c0 4.1.3 46.1 5.7 66.7 3.2 12 12.5 21.4 24.3 24.6 20.6 5.6 100.7 5.8 107 5.8h.8c6.4 0 86.5-.2 107-5.8 11.8-3.2 21.2-12.6 24.3-24.6 5.4-20.4 5.7-61.7 5.7-66.6v-.4l.2-.3c0 .1 0 0 0 0zm-165.6 41.4v-82.3l71.9 41.2-71.9 41.1z" fill-rule="evenodd" clip-rule="evenodd"/></symbol></svg>