<svg xmlns="http://www.w3.org/2000/svg" xmlns:xlink="http://www.w3.org/1999/xlink"><defs><style>.cls-3{fill-rule:evenodd}</style><mask id="mask" x="0" y="0" width="278" height="278" maskUnits="userSpaceOnUse"><g id="mask-2"><path id="path-1" d="M0 0h278v278H0V0z" fill-rule="evenodd"/></g></mask></defs><symbol id="facebook-ds" viewBox="0 0 280 279" preserveAspectRatio="xMidYMid meet"><path d="M280 140.35C280 62.84 217.32 0 140 0S0 62.84 0 140.35C0 210.4 51.2 268.47 118.12 279v-98.08H82.57v-40.57h35.55v-30.92c0-35.18 20.9-54.61 52.88-54.61 15.32 0 31.34 2.74 31.34 2.74V92.1h-17.65c-17.39 0-22.82 10.82-22.82 21.92v26.33h38.83l-6.21 40.57h-32.62V279c66.93-10.53 118.12-68.59 118.12-138.65" data-name="facebook" fill-rule="evenodd"/></symbol><symbol id="instagram-ds" viewBox="0 0 278 278" preserveAspectRatio="xMidYMid meet"><g id="Instagram-2" data-name="Instagram"><g id="Group-3" mask="url(#mask)"><path id="Fill-1" class="cls-3" d="M139 0c-37.75 0-42.48.16-57.31.84-14.8.67-24.9 3.02-33.74 6.46-9.14 3.55-16.89 8.3-24.62 16.03S10.85 38.81 7.3 47.95C3.86 56.79 1.51 66.9.84 81.69.16 96.52 0 101.25 0 139s.16 42.48.84 57.31c.68 14.79 3.02 24.9 6.46 33.74 3.55 9.14 8.3 16.89 16.03 24.62s15.48 12.48 24.62 16.03c8.84 3.44 18.95 5.79 33.74 6.46 14.83.68 19.56.84 57.31.84s42.48-.16 57.31-.84c14.8-.68 24.9-3.03 33.74-6.46 9.14-3.55 16.89-8.31 24.62-16.03 7.73-7.73 12.48-15.48 16.03-24.62 3.44-8.84 5.79-18.95 6.46-33.74.68-14.83.84-19.56.84-57.31s-.16-42.48-.84-57.31c-.67-14.8-3.02-24.9-6.46-33.74-3.55-9.14-8.3-16.89-16.03-24.62S239.19 10.85 230.05 7.3c-8.84-3.44-18.95-5.79-33.74-6.46C181.48.16 176.75 0 139 0m0 25.05c37.11 0 41.51.14 56.17.81 13.55.62 20.91 2.88 25.81 4.79 6.49 2.52 11.12 5.53 15.98 10.4 4.86 4.86 7.88 9.49 10.4 15.98 1.9 4.9 4.17 12.26 4.79 25.81.67 14.66.81 19.05.81 56.17s-.14 41.51-.81 56.17c-.62 13.55-2.88 20.91-4.79 25.81-2.52 6.49-5.53 11.12-10.4 15.98-4.86 4.86-9.49 7.88-15.98 10.4-4.9 1.9-12.26 4.17-25.81 4.79-14.65.67-19.05.81-56.17.81s-41.51-.14-56.17-.81c-13.55-.62-20.91-2.88-25.81-4.79-6.49-2.52-11.12-5.53-15.98-10.4-4.86-4.86-7.88-9.49-10.4-15.98-1.9-4.9-4.17-12.26-4.79-25.81-.67-14.66-.81-19.05-.81-56.17s.14-41.51.81-56.17c.62-13.55 2.88-20.91 4.79-25.81 2.52-6.49 5.53-11.12 10.4-15.98 4.86-4.86 9.49-7.88 15.98-10.4 4.9-1.9 12.26-4.17 25.81-4.79 14.66-.67 19.05-.81 56.17-.81"/></g><path id="Fill-4" class="cls-3" d="M139 185.33c-25.59 0-46.33-20.74-46.33-46.33S113.41 92.67 139 92.67s46.33 20.74 46.33 46.33-20.74 46.33-46.33 46.33m0-117.71c-39.42 0-71.38 31.96-71.38 71.38s31.96 71.38 71.38 71.38 71.38-31.96 71.38-71.38S178.42 67.62 139 67.62"/><path id="Fill-6" class="cls-3" d="M229.88 64.8c0 9.21-7.47 16.68-16.68 16.68s-16.68-7.47-16.68-16.68 7.47-16.68 16.68-16.68 16.68 7.47 16.68 16.68"/></g></symbol><symbol id="playlist-ds" viewBox="0 0 298 228" preserveAspectRatio="xMidYMid meet"><path data-name="playlist" d="M164.49 10.14H14c-7.73 0-14 6.27-14 14v1.81c0 7.73 6.27 14 14 14h150.49c7.73 0 14-6.27 14-14v-1.81c0-7.73-6.27-14-14-14Zm0 58.95H14c-7.73 0-14 6.27-14 14v1.81c0 7.73 6.27 14 14 14h150.49c7.73 0 14-6.27 14-14v-1.81c0-7.73-6.27-14-14-14Zm-74.5 58.95H14c-7.73 0-14 6.27-14 14v1.81c0 7.73 6.27 14 14 14h75.99c7.73 0 14-6.27 14-14v-1.81c0-7.73-6.27-14-14-14Zm0 58.95H14c-7.73 0-14 6.27-14 14v1.81c0 7.73 6.27 14 14 14h75.99c7.73 0 14-6.27 14-14v-1.81c0-7.73-6.27-14-14-14ZM287.74 69.46c-7.69-10.75-25.24-18.13-37.55-29.19-16-14.44-16.31-28.88-18.46-40.25h-11.39v175.76c-5.54-3.99-11.39-4.92-22.16-4.92-12.31 0-27.08 4.61-39.08 11.68-11.69 6.76-20.31 16.29-20.31 25.5 0 5.84 3.39 11.06 9.23 14.44 5.54 3.38 13.54 5.53 22.16 5.53 13.54 0 28.93-3.99 40.93-11.06 12-6.76 20.31-16.29 20.31-26.43V61.15c17.23.92 30.16 10.14 36.31 18.13 10.16 13.83 10.77 22.12 11.08 34.11.31 22.43-4.62 35.34-12 47.63h4.92c10.46-12.91 24-28.58 25.85-52.24.92-11.37 1.23-23.66-9.85-39.33Z"/></symbol><symbol id="podcast-ds" viewBox="0 0 268 280" preserveAspectRatio="xMidYMid meet"><path d="M113 136.01c0 12.15 9.4 21.99 21 21.99s21-9.84 21-21.99S145.61 114 134 114s-21 9.85-21 22.01Z"/><path data-name="Path" d="m163.42 184.86 12.1 21.14c23.01-14.37 38.47-39.93 38.47-69.34 0-45.09-36.03-81.66-80.5-81.66s-80.5 36.57-80.5 81.66c0 29.42 15.46 54.97 38.46 69.34l12.14-19.86c-15.81-9.48-26.52-29.52-26.52-49.48 0-30.07 26.78-57.23 56.42-57.23s56.42 27.16 56.42 57.23c0 19.96-10.74 38.75-26.5 48.2Z"/><path data-name="Path" d="M134.01 0C60 0 0 60.76 0 135.71 0 183.87 24.95 225.93 62.29 250l11.98-19.8c-30.15-19.21-50.23-55.74-50.23-94.49 0-59.95 50.75-111.35 109.95-111.35s109.95 51.39 109.95 111.35c0 38.75-20.23 75.3-50.36 94.49l12.13 19.8C243.05 225.93 268 183.87 268 135.71 268.01 60.76 208.02 0 134.01 0Z"/><path data-name="Path" d="M96.87 280h75.26a7.998 7.998 0 0 0 6.92-12.01l-37.63-65.03c-2.21-3.82-7.11-5.13-10.93-2.92-1.21.7-2.22 1.71-2.92 2.92l-37.63 65.03c-2.21 3.82-.91 8.72 2.92 10.93 1.22.7 2.6 1.08 4.01 1.08Z"/></symbol><symbol id="whatsapp-ds" viewBox="0 0 280 281" preserveAspectRatio="xMidYMid meet"><path data-name="whatsapp" d="M239.2 40.83C212.89 14.49 177.87 0 140.58 0 63.74 0 1.19 62.45 1.16 139.23c0 24.54 6.41 48.51 18.6 69.63L0 281l73.91-19.35a139.27 139.27 0 0 0 66.61 16.95h.06c76.84 0 139.39-62.48 139.42-139.26.03-37.22-14.48-72.2-40.8-98.51Zm-98.62 214.24h-.06c-20.79 0-41.18-5.58-58.99-16.12l-4.23-2.51-43.87 11.49 11.75-42.71-2.76-4.39C30.81 182.42 24.7 161.1 24.7 139.24c.03-63.8 51.99-115.71 115.92-115.71 30.96 0 60.04 12.06 81.93 33.93 21.86 21.87 33.92 50.97 33.92 81.89-.06 63.8-52.02 115.74-115.9 115.74Zm63.57-86.69c-3.48-1.74-20.62-10.16-23.8-11.32-3.21-1.16-5.53-1.74-7.85 1.74-2.32 3.48-9.01 11.32-11.03 13.64-2.02 2.32-4.06 2.62-7.55.88-3.48-1.74-14.7-5.41-28-17.28-10.37-9.22-17.36-20.62-19.38-24.1-2.05-3.48-.22-5.36 1.52-7.1 1.58-1.55 3.48-4.06 5.22-6.1 1.74-2.04 2.32-3.48 3.48-5.8 1.16-2.32.58-4.36-.3-6.1-.88-1.74-7.85-18.86-10.75-25.84-2.82-6.79-5.69-5.85-7.85-5.96-2.02-.11-4.37-.11-6.69-.11s-6.11.88-9.29 4.36c-3.21 3.48-12.19 11.9-12.19 29.02s12.49 33.68 14.23 36 24.57 37.46 59.51 52.54c8.32 3.59 14.79 5.71 19.85 7.32 8.35 2.65 15.95 2.26 21.95 1.38 6.69-.99 20.62-8.42 23.52-16.54 2.9-8.12 2.9-15.1 2.02-16.54-.83-1.46-3.15-2.35-6.63-4.09Z"/></symbol></svg>