<svg xmlns="http://www.w3.org/2000/svg" xmlns:xlink="http://www.w3.org/1999/xlink"><symbol id="nachrichten" viewBox="0 0 50 36" preserveAspectRatio="xMidYMid meet"><path d="M19.947 21.153h13.556v.943H19.947v-.943zm13.554-2.827H19.947v.943h13.556l-.002-.943zm0-5.658h-6.014v.943h6.014v-.943zm0 2.829h-6.014v.943h6.014v-.943zM16.176 7.955V24.17c0 .727-1.543.727-1.543 0V10.001h-1.885v14.905c0 1.051.853 1.904 1.904 1.904h20.715a1.904 1.904 0 0 0 1.906-1.904V7.955H16.176zm19.212 16.819H18.061V9.991h17.327v14.783zm-9.785-12.106h-5.656v3.771h5.656v-3.771z"/></symbol></svg>