<svg xmlns="http://www.w3.org/2000/svg" xmlns:xlink="http://www.w3.org/1999/xlink"><symbol id="minus" viewBox="0 0 320 320" preserveAspectRatio="xMidYMid meet"><path d="M250 150H70c-5.5 0-10 4.5-10 10s4.5 10 10 10h180c5.5 0 10-4.5 10-10s-4.5-10-10-10z" fill-rule="evenodd" clip-rule="evenodd"/></symbol><symbol id="plus" viewBox="0 0 320 320" preserveAspectRatio="xMidYMid meet"><path d="M250 150h-80V70c0-5.52-4.48-10-10-10s-10 4.48-10 10v80H70c-5.52 0-10 4.48-10 10s4.48 10 10 10h80v80c0 5.52 4.48 10 10 10s10-4.48 10-10v-80h80c5.52 0 10-4.48 10-10s-4.48-10-10-10Z" fill-rule="evenodd"/></symbol><symbol id="rss-ds" viewBox="0 0 320 320" preserveAspectRatio="xMidYMid meet"><style type="text/css">.st0{fill-rule:evenodd;clip-rule:evenodd;fill:#fff}</style><path class="st0" d="M54.9 132.5v32.4c55.3 0 100.2 44.9 100.2 100.2h32.4c0-73.1-59.5-132.6-132.6-132.6z"/><path class="st0" d="M54.9 54.9v32.4c98 0 177.8 79.8 177.8 177.8h32.4c0-115.9-94.3-210.2-210.2-210.2z"/><circle transform="rotate(-13.279 84.003 236.011)" cx="84" cy="236" r="29.1"/></symbol><symbol id="x-ds" viewBox="0 0 320 320" preserveAspectRatio="xMidYMid meet"><path d="M186.06 143.04c27.46-31.32 54.9-62.63 82.39-93.99-.15-.03-.17-.03-.2-.03-12.35 0-24.71 0-37.06.01-.27 0-.61.21-.8.42-10.47 11.92-20.93 23.86-31.39 35.79l-27.92 31.85c-.82.94-1.64 1.87-2.49 2.83-.16-.21-.28-.36-.4-.51-12.45-16.43-24.9-32.86-37.36-49.29-5.18-6.84-10.37-13.67-15.53-20.52-.33-.44-.66-.61-1.22-.61-25.42.01-50.85.01-76.27.01h-.82l.42.57C54.05 71.29 70.7 93 87.33 114.73c11.07 14.46 22.13 28.93 33.2 43.39 3.01 3.93 6.03 7.84 9.06 11.74.34.44.29.69-.06 1.08-12.6 14.35-25.19 28.72-37.78 43.08-16.45 18.77-32.91 37.54-49.36 56.31-.16.18-.31.38-.53.64h.38c12.28 0 24.57 0 36.85-.02.28 0 .63-.18.82-.39 3.16-3.57 6.3-7.16 9.45-10.75 17.47-19.93 34.95-39.86 52.42-59.78 1.94-2.21 3.88-4.42 5.84-6.66 2.29 2.99 4.55 5.93 6.8 8.88 14.1 18.4 28.2 36.8 42.3 55.19 3.33 4.34 6.66 8.68 9.98 13.04.27.36.54.5.99.5 24.88-.01 49.75-.01 74.63-.01.2 0 .39-.02.66-.04-32.35-42.69-64.65-85.3-96.94-127.91Zm50.13 104.94c-6.45 0-12.9 0-19.35.02-.55 0-.9-.19-1.19-.58-2.47-3.2-4.93-6.4-7.39-9.6-4.95-6.45-9.89-12.91-14.85-19.36-4.01-5.22-8.03-10.43-12.05-15.65-10.94-14.21-21.87-28.42-32.81-42.64-11.6-15.07-23.2-30.13-34.8-45.2L80.39 71.62c-.08-.11-.16-.23-.23-.35l-.16-.19c.05-.02.1-.04.15-.05.19 0 .38-.02.57-.02h20.99c.41 0 .68.1.94.44 3.81 5.04 7.65 10.06 11.47 15.09 4.18 5.49 8.36 10.99 12.54 16.48 4.32 5.68 8.65 11.36 12.97 17.04l12.72 16.71c5.65 7.43 11.31 14.85 16.96 22.28 4.18 5.49 8.36 10.99 12.54 16.48 4.32 5.68 8.65 11.36 12.98 17.04 4.25 5.58 8.5 11.17 12.75 16.75 4.3 5.64 8.59 11.29 12.89 16.93 4.22 5.55 8.45 11.1 12.67 16.65 1.25 1.65 2.5 3.29 3.86 5.07h-.81Z" fill-rule="evenodd"/></symbol></svg>