<svg xmlns="http://www.w3.org/2000/svg" xmlns:xlink="http://www.w3.org/1999/xlink"><defs><style>.cls-1{fill:#fff}</style><clipPath id="clippath"><path d="M0 0h48v48H0z"/></clipPath><style>.cls-3{fill:#005293}.cls-4{fill:#fff}</style><clipPath id="clippath"><path d="M0 0h48v48H0z"/></clipPath><style>.cls-4{fill:#fff}</style></defs><symbol id="arrow-down" viewBox="0 0 110 86" preserveAspectRatio="xMidYMid meet"><path d="M54.996 81c5.756-6.952 41.959-51.544 52.03-62.564C115.635 8.247 103.465.919 96.97 7.551c-4.588 5.176-37.107 45.419-41.964 51.432v-.002C50.175 53 17.623 12.717 13.033 7.538 6.536.906-5.634 8.234 2.975 18.423c10.066 11.015 46.24 55.57 52.02 62.553V81z"/></symbol><symbol id="arrow-left" viewBox="0 0 110 86" preserveAspectRatio="xMidYMid meet"><path d="M25 42.996c5.489 4.5 40.693 32.804 49.393 40.678 8.044 6.731 13.829-2.784 8.593-7.862-4.087-3.587-35.857-29.011-40.604-32.808h.001c4.722-3.777 36.524-29.227 40.613-32.816 5.236-5.078-.549-14.593-8.593-7.862-8.696 7.87-43.871 36.151-49.384 40.671H25z"/></symbol><symbol id="arrow-right" viewBox="0 0 110 86" preserveAspectRatio="xMidYMid meet"><path d="M85 43.004c-5.489-4.5-40.693-32.804-49.393-40.678-8.044-6.731-13.829 2.784-8.593 7.862 4.087 3.587 35.857 29.011 40.604 32.809h-.001c-4.722 3.777-36.524 29.227-40.613 32.816-5.236 5.078.549 14.593 8.593 7.862 8.696-7.87 43.871-36.151 49.384-40.671H85z"/></symbol><symbol id="arrow-up" viewBox="0 0 110 86" preserveAspectRatio="xMidYMid meet"><path d="M55.026 5.005c-5.756 7.044-41.959 52.223-52.03 63.387C-5.613 78.715 6.557 86.14 13.052 79.42c4.588-5.244 37.107-46.016 41.964-52.109v.002c4.831 6.059 37.383 46.873 41.973 52.12 6.496 6.72 18.665-.705 10.056-11.028-10.066-11.16-46.24-56.302-52.02-63.376v-.024z"/></symbol><symbol id="audio" viewBox="0 0 23 20" preserveAspectRatio="xMidYMid meet"><path d="M4.7 5.8H7c-1 2.1-1 6.3 0 8.4H4.7c-1.2 0-1.7-.7-2-1.9-.3-1.4-.4-3.1 0-4.6.3-1.1.8-1.9 2-1.9zM20.5 10c0 5.9-2.3 9.4-4.5 8.7-.6-.2-7-4.1-7-4.1C7.5 13 7.5 7.1 9 5.5c0 0 6.7-4 7-4.1 2-.9 4.5 2.7 4.5 8.6zm-2.7-5.3C17 3 15.9 3 15.1 4.7c-.4.9-.7 2-.9 3.2h.4c1.2 0 2.1.9 2.1 2.1s-.9 2.1-2.1 2.1h-.4c.2 1.2.5 2.3.9 3.3.7 1.7 2 1.6 2.7 0 1.4-3.3 1.3-8 0-10.7z"/></symbol><symbol id="audio_button" viewBox="0 0 40 40" preserveAspectRatio="xMidYMid meet"><path fill="currentColor" d="M20.1 1.5C10 1.5 1.7 9.8 1.7 19.9S10 38.3 20.1 38.3 38.5 30 38.5 19.9 30.2 1.5 20.1 1.5z"/><path d="M20 0C9 0 0 9 0 20s9 20 20 20 20-9 20-20S31 0 20 0zm0 38c-9.9 0-18-8.1-18-18S10.1 2 20 2s18 8.1 18 18-8.1 18-18 18z"/><path d="m13 24.1 6.2 3.8c.6.4 1.5-.1 1.5-.8v-13c0-.8-.8-1.2-1.5-.8L13 17.1c-.3.2-.5.5-.5.8v5.4c0 .3.2.7.5.8zm-2.5-.5H8.2c-.4 0-.8-.3-.8-.8v-4.5c0-.4.3-.8.8-.8h2.3c.4 0 .8.3.8.8v4.5c0 .5-.3.8-.8.8zm12.5.8c.3.3.7.2 1 0v-.1c2.1-2.1 2.1-5.4 0-7.5-.4-.3-.7-.3-.9 0-.3.3-.2.7 0 .9 1.6 1.6 1.6 4.1 0 5.7-.1.1-.2.3-.3.5 0 .2 0 .3.2.5z"/><path d="M25.4 15.6c2.7 2.7 2.7 7.1 0 9.8l-.2.2c-.1.1-.2.3-.2.5s.1.3.2.5c.2.2.7.2.9 0l.2-.2c3.2-3.2 3.2-8.4 0-11.6-.2-.2-.6-.3-.9 0-.3.2-.2.5 0 .8z"/><path d="M32 20.3c0-2.9-1.1-5.7-3.3-7.9-.2-.2-.6-.3-.9 0s-.3.6 0 .9c3.9 3.9 3.9 10.3 0 14.3l-.3.3c-.1.1-.2.3-.2.5s0 .3.2.5c.1.1.2.2.4.2s.3-.1.4-.2l.3-.3c2.2-2.2 3.4-5.1 3.4-7.9v-.4z"/></symbol><symbol id="burger--weiss" viewBox="0 0 110 86" preserveAspectRatio="xMidYMid meet"><path d="M7.857 15.181h94.286c4.337 0 7.857-2.68 7.857-5.983s-3.52-5.983-7.857-5.983H7.857C3.52 3.216 0 5.896 0 9.198s3.52 5.983 7.857 5.983zm94.286 21.863H7.857C3.52 37.044 0 39.724 0 43.026s3.52 5.983 7.857 5.983h94.286c4.337 0 7.857-2.68 7.857-5.983s-3.52-5.982-7.857-5.982zm0 33.775H7.857C3.52 70.819 0 73.499 0 76.802c0 3.302 3.52 5.983 7.857 5.983h94.286c4.337 0 7.857-2.68 7.857-5.983 0-3.303-3.52-5.983-7.857-5.983z"/></symbol><symbol id="calendar-appendix" viewBox="0 0 14 14" preserveAspectRatio="xMidYMid meet"><path d="M14 1.167V14H0V1.167h1.75v.583a1.167 1.167 0 0 0 2.333 0v-.583h5.833v.583c0 .643.523 1.167 1.167 1.167.643 0 1.167-.523 1.167-1.167v-.583H14zm-1.967 3.5H1.997v7.267h10.037V4.667zM11.667.583a.583.583 0 0 0-1.167 0V1.75a.583.583 0 1 0 1.166 0V.583zM3.5 1.75a.583.583 0 1 1-1.167 0V.583a.583.583 0 0 1 1.167 0V1.75z"/></symbol><symbol id="calendar" viewBox="0 0 50 36" preserveAspectRatio="xMidYMid meet"><path d="M37.209 8.822v22.401H12.771V8.822h3.055V9.84c0 1.123.913 2.036 2.036 2.036a2.038 2.038 0 0 0 2.036-2.036V8.822H30.08V9.84c0 1.123.913 2.036 2.036 2.036s2.036-.913 2.036-2.036V8.822h3.057zm-2.037 6.11H14.808v14.255h20.365V14.932zm-2.036-7.128a1.018 1.018 0 1 0-2.036 0V9.84a1.018 1.018 0 1 0 2.036 0V7.804zM18.881 9.841a1.018 1.018 0 1 1-2.036 0V7.804a1.018 1.018 0 1 1 2.036 0v2.037zm6.809 13.728c0-.817-.426-1.455-1.129-1.726.538-.269.851-.822.851-1.53 0-1.371-1.336-2.188-2.628-2.188-1.504 0-2.638.942-2.707 2.813h1.675c-.014-.775.276-1.339 1.044-1.339.457 0 .95.277.95.885 0 .768-.831.878-1.596.812v1.303c1.086 0 1.735.068 1.735 1.003 0 .737-.558 1.067-1.111 1.067-.837 0-1.18-.625-1.21-1.478H19.9c-.033 1.927 1.134 2.943 2.894 2.943 1.571-.002 2.896-.962 2.896-2.565zm4.391 2.563v-7.859h-1.417c-.176 1.175-1.013 1.518-2.211 1.486v1.371h1.886v5.003h1.742z"/></symbol><symbol id="check" viewBox="0 0 110 86" preserveAspectRatio="xMidYMid meet"><path d="M91.614 8.793 40.446 59.962 16.537 36.053l-9.386 9.386 23.908 23.909-.014.015 9.386 9.386L101 18.179z"/></symbol><symbol id="clock" viewBox="0 0 24 24" preserveAspectRatio="xMidYMid meet"><path d="M12 2.4c5.514 0 9.6 4.086 9.6 9.6s-4.086 9.6-9.6 9.6c-5.514 0-9.6-4.086-9.6-9.6S6.486 2.4 12 2.4zM12 0C5.373 0 0 5.373 0 12s5.373 12 12 12 12-5.373 12-12S18.627 0 12 0zm5.848 12.46c.202.038.202.333.001.372-1.907.361-6.045 1.111-6.547 1.111a1.3 1.3 0 0 1-1.301-1.301c0-.512.77-5.447 1.125-7.445.034-.192.313-.181.343.014l.985 6.238 5.394 1.011z"/></symbol><symbol id="close" viewBox="0 0 110 86" preserveAspectRatio="xMidYMid meet"><path d="M95.751 73.123v-.002c-2.189-2.759-15.595-15.944-30.186-30.233C79.502 28.66 92.338 15.619 95.402 13.1c6.788-6.53-.712-18.764-11.139-10.109-4.802 4.036-16.811 16.215-29.517 29.305C40.573 18.412 27.611 5.651 25.1 2.598 18.57-4.19 6.336 3.31 14.991 13.737c4.028 4.792 16.165 16.762 29.224 29.439-13.741 14.227-26.179 27.167-28.865 29.43-8.352 7.038.458 18.197 9.526 11.145h.002c2.754-2.185 15.895-15.546 30.154-30.105C69.316 67.442 82.335 79.955 84.606 82.65c7.038 8.351 18.197-.459 11.145-9.527z"/></symbol><symbol id="copy" viewBox="0 0 30 30" preserveAspectRatio="xMidYMid meet"><g><path d="M19.675 10.557h-4.848c-.805 0-1.458.653-1.458 1.458v9.226c0 .805.653 1.458 1.458 1.458h4.848c.805 0 1.458-.653 1.458-1.458v-9.226c0-.806-.652-1.458-1.458-1.458z"/><path d="M27 0H3a3 3 0 0 0-3 3v24a3 3 0 0 0 3 3h24a3 3 0 0 0 3-3V3a3 3 0 0 0-3-3zm-3.413 23.184c0 1.074-.87 1.944-1.944 1.944h-8.76a1.944 1.944 0 0 1-1.944-1.944v-1.311H9.357a1.944 1.944 0 0 1-1.944-1.944V6.816c0-1.074.87-1.944 1.944-1.944h8.76c1.073 0 1.944.87 1.944 1.944v1.311h1.582c1.074 0 1.944.87 1.944 1.944v13.113z"/><path d="M16.149 7.302h-4.848c-.805 0-1.458.653-1.458 1.458v9.226c0 .68.467 1.246 1.096 1.407v-9.322c0-1.074.87-1.944 1.944-1.944h4.574a1.452 1.452 0 0 0-1.308-.825z"/></g></symbol><symbol id="dot-burger" viewBox="0 0 24 16" preserveAspectRatio="xMidYMid meet"><path class="cls-1" d="M22.74.48H6.93a1.26 1.26 0 1 0 0 2.52h15.81a1.26 1.26 0 1 0 0-2.52Zm0 6.31H6.93a1.27 1.27 0 0 0 0 2.53h15.81a1.27 1.27 0 0 0 0-2.53Zm0 6.32H6.93a1.26 1.26 0 1 0 0 2.52h15.81a1.26 1.26 0 1 0 0-2.52Z"/><circle class="cls-1" cx="1.58" cy="1.74" r="1.58"/><circle class="cls-1" cx="1.58" cy="8.06" r="1.58"/><circle class="cls-1" cx="1.58" cy="14.42" r="1.58"/></symbol><symbol id="doublearrowsup" viewBox="0 0 20 23" preserveAspectRatio="xMidYMid meet"><path d="M10.327 5.735c-.487.585-3.533 4.335-4.375 5.26-.724.853.3 1.473.845.915.386-.435 3.12-3.819 3.533-4.325.407.504 3.144 3.891 3.529 4.327.547.558 1.57-.058.847-.915-.847-.927-3.892-4.673-4.38-5.26v-.002z"/><path d="M10.327 10.609c-.487.585-3.533 4.335-4.375 5.26-.724.853.3 1.473.845.915.386-.435 3.12-3.819 3.533-4.325.407.504 3.144 3.891 3.529 4.327.547.558 1.57-.058.847-.915-.847-.927-3.892-4.673-4.38-5.26v-.002z"/></symbol><symbol id="download-button" viewBox="0 0 190 140" preserveAspectRatio="xMidYMid meet"><path d="m95.082 111.443 55.036-55.091-.163-.352h-37.228V0H75.795v56H39.882zM30 117.895h130V140H30z"/></symbol><symbol id="download-neu" viewBox="0 0 24 24" preserveAspectRatio="xMidYMid meet"><path d="M17.2 0H6.8C3 0 0 3 0 6.8v10.5C0 21 3 24 6.8 24h10.5c3.7 0 6.8-3 6.8-6.8V6.8C24 3 21 0 17.2 0zm-10 11.2c.4-.4.9-.4 1.3-.1l2.2 2.1c.1.1.3.2.4.3l-.2-7.3c0-.5.4-.9.8-.9.5 0 .9.4.9.8l.2 7.3.3-.3 2.1-2.2c.3-.3.9-.4 1.2 0 .4.3.4.9 0 1.2L13.8 15c-1 1-2.6 1.1-3.7.1l-2.9-2.7c-.3-.3-.3-.9 0-1.2zm9.3 7.5H7.7c-.3 0-.5-.4-.5-.9s.2-.9.5-.9h8.8c.3 0 .5.4.5.9s-.2.9-.5.9z"/></symbol><symbol id="download" viewBox="0 0 190 190" preserveAspectRatio="xMidYMid meet"><path d="m95.082 111.444 55.036-55.092-.163-.352h-37.228V0H75.795v56H39.882zM30 117.895h130V140H30z"/></symbol><symbol id="dsgvo" viewBox="0 0 480 362" preserveAspectRatio="xMidYMid meet"><path d="M432 0H48C22.51 0 0 22.51 0 48v216c0 25.49 22.51 48 48 48h384c25.49 0 48-16.22 48-41.71V48c0-25.49-22.51-48-48-48zm24 288-432-1.89V24h432v264zm-336 50h240v24H120z"/><path d="M72 168v96h144v-96H72zm105.38 22.12c5.19 0 9.41 4.21 9.41 9.43 0 5.19-4.22 9.4-9.41 9.4s-9.38-4.21-9.38-9.4c0-5.22 4.19-9.43 9.38-9.43zM112.4 240.5l26.73-40.67 15.59 22.19 8.44-8.74 23.89 27.22H112.4zM360 48h-48c-13.2 0-25.2 5.4-33.9 14.1S264 82.8 264 96c0 26.4 21.6 48 48 48h48c13.2 0 25.2-5.4 33.9-14.1S408 109.2 408 96c0-26.4-21.6-48-48-48zm-41 73.67V70.33L363 96l-44 25.67z"/><g><path d="M342.94 204.15c0 3.46-2.77 6.23-6.17 6.23-3.43 0-6.2-2.77-6.2-6.23 0-3.43 2.77-6.23 6.2-6.23 3.4 0 6.17 2.8 6.17 6.23z"/><path d="m360 168-48 5.49-48-5.49v90.51l48 5.49 48-5.49 48 5.49v-90.51L360 168zm-23.23 74.06c-9.71-16.73-17.23-27.9-17.23-37.5 0-9.57 7.71-17.36 17.23-17.36 9.49 0 17.19 7.79 17.19 17.36 0 9.6-7.51 20.77-17.19 37.5z"/></g><path d="M200.24 48H87.76C79.09 48 72 55.09 72 63.76v64.48c0 8.67 7.09 15.76 15.76 15.76h112.48c8.67 0 15.76-7.09 15.76-15.76V63.76c0-8.67-7.09-15.76-15.76-15.76zM184 124h-80V68h8v42.23l24.21-25.2 12.7 10.67 27.41-24.67 5.36 5.94-32.59 29.33-12.3-10.33L117.55 116H184v8z"/></symbol><symbol id="edit" viewBox="0 0 20 20" preserveAspectRatio="xMidYMid meet"><path d="m16.77 8 1.94-2a1 1 0 0 0 0-1.41l-3.34-3.3a1 1 0 0 0-1.41 0L12 3.23zm-5.81-3.71L1 14.25V19h4.75l9.96-9.96-4.75-4.75z"/></symbol><symbol id="error" viewBox="0 0 20 20" preserveAspectRatio="xMidYMid meet"><path d="m13.432 1.711 4.855 4.855v6.866l-4.855 4.855H6.566l-4.855-4.855V6.566l4.855-4.855h6.866zm.686-1.658h-8.24L.053 5.879v8.24l5.826 5.826h8.24l5.826-5.826v-8.24L14.118.053z"/><path d="M10.687 12.077H9.114L8.617 4.23h2.568l-.498 7.847zm-1.894 3.579v-2.134h2.215v2.134H8.793z"/></symbol><symbol id="extern" viewBox="0 0 190 190" preserveAspectRatio="xMidYMid meet"><g><path d="M168 128.842H22V33.158h69V11H0v140h190v-40.288h-22z"/><path d="m189.861 11.051-77.071.069-.068.298 25.779 25.963-39.272 39.555 25.837 26.022 39.271-39.554 25.39 25.572z"/></g></symbol><symbol id="facebook-freigestellt" viewBox="0 0 1024 1024" preserveAspectRatio="xMidYMid meet"><path d="M1024 512C1024 229.2 794.8 0 512 0S0 229.2 0 512c0 255.6 187.2 467.4 432 505.8V660H302V512h130V399.2C432 270.9 508.4 200 625.4 200c56 0 114.6 10 114.6 10v126h-64.6c-63.6 0-83.4 39.5-83.4 80v96h142l-22.7 148H592v357.8c244.8-38.4 432-250.2 432-505.8z"/></symbol><symbol id="facebook" viewBox="0 0 88 88" preserveAspectRatio="xMidYMid meet"><path d="M0 0v88h45.8V54.6H33.4V42.2h12.4V32.1c0-11.4 8.6-18.1 18.7-18.1 4.9 0 8.2.5 9.4.7v11.7h-9.3c-5.5 0-6.5 2.7-6.5 6.6v9.3H74l-2 12.4H58.1V88H88V0H0z" display="inline"/></symbol><symbol id="first-image" viewBox="0 0 44 44" preserveAspectRatio="xMidYMid meet"><path d="M23.362 21.745c.478-.407 6.006-4.903 7.55-6.084 1.292-.988 1.212-.393 1.226.061.018.291.014 12.112 0 12.949s-.638.307-.955.067c-1.458-1.151-7.817-6.299-7.817-6.299s-.482-.286-.004-.694z"/><path d="M14.362 21.745c.478-.407 6.006-4.903 7.55-6.084 1.292-.988 1.212-.393 1.226.061.018.291.014 12.112 0 12.949s-.638.307-.955.067c-1.458-1.151-7.817-6.299-7.817-6.299s-.482-.286-.004-.694zm-2.411-6.781c0-.491.298-.889.667-.889h.667c.368 0 .667.398.667.889v14.222c0 .491-.298.889-.667.889h-.667c-.368 0-.667-.398-.667-.889V14.964z"/></symbol><symbol id="gallery" viewBox="0 0 23 20" preserveAspectRatio="xMidYMid meet"><g><path d="M20.5 5.1H7.2V3.9H3.4V5h-.9c-.6 0-1 .4-1 .9v9.2c0 .5.5.9 1 .9h18c.6 0 1-.4 1-.9V6c0-.5-.5-.9-1-.9zM7.3 9.2H3.4V7.4h3.9v1.8zm8.7 5c-1.9 0-3.5-1.6-3.5-3.5s1.6-3.5 3.5-3.5 3.5 1.6 3.5 3.5-1.6 3.5-3.5 3.5z"/><circle cx="16" cy="10.7" r="2"/></g></symbol><symbol id="highlights" viewBox="0 0 50 36" preserveAspectRatio="xMidYMid meet"><path d="m25 11.273 2.524 5.207 5.735.791-4.174 4.01 1.018 5.697L25 24.25l-5.103 2.729 1.018-5.697-4.174-4.01 5.735-.792L25 11.273zm0-4.957-3.965 8.181-9.007 1.244 6.555 6.3-1.6 8.949L25 26.702l8.017 4.287-1.6-8.949 6.555-6.299-9.007-1.243L25 6.316z"/></symbol><symbol id="hr-calendar" viewBox="0 0 50 36" preserveAspectRatio="xMidYMid meet"><path d="m20.56 16.139-.001 3.618s1.136-.237 2.135-.227c1.66.017 2.492.909 2.551 2.075.015.296.012.46.012.778v4.711h-1.751v-4.811c0-.589.037-1.32-1.286-1.314a6.894 6.894 0 0 0-1.608.186v5.939h-1.709V16.248l1.657-.109zm10.631 3.383c-.021-.004-1.564.035-2.475.245-1.063.243-1.744.885-1.839 1.866a6.407 6.407 0 0 0-.027.739v4.722h1.75v-4.829c0-.424.033-.693.31-.941.314-.281 1.029-.322 1.439-.355.281-.023.843-.049.843-.049l-.001-1.398z"/><path d="M37.209 8.822v22.401H12.771V8.822h3.055V9.84c0 1.123.913 2.036 2.036 2.036s2.036-.913 2.036-2.036V8.822H30.08V9.84c0 1.123.913 2.036 2.036 2.036s2.036-.913 2.036-2.036V8.822h3.057zm-2.037 6.11H14.808v14.255h20.365l-.001-14.255zm-2.036-7.128a1.018 1.018 0 1 0-2.036 0V9.84a1.018 1.018 0 1 0 2.036 0V7.804zM18.881 9.841a1.018 1.018 0 1 1-2.036 0V7.804a1.018 1.018 0 1 1 2.036 0v2.037z"/></symbol><symbol id="info" viewBox="0 0 190 190" preserveAspectRatio="xMidYMid meet"><path d="M80.125 74.363h29.75v73.5h-29.75v-73.5zM80 52.238c0-7.734 6.713-14 15-14 8.287 0 15 6.266 15 14 0 7.735-6.713 14-15 14-8.287 0-15-6.265-15-14z"/></symbol><symbol id="info2" viewBox="0 0 27 27" preserveAspectRatio="xMidYMid meet"><path d="M13.5 1C6.596 1 1 6.596 1 13.5S6.596 26 13.5 26 26 20.404 26 13.5 20.404 1 13.5 1zm1.585 20.88h-3.148V9.886h3.148V21.88zm-.338-13.9c-.307.317-.722.476-1.247.476-.525 0-.941-.159-1.247-.477-.307-.318-.46-.717-.46-1.197 0-.488.155-.887.466-1.197.31-.31.724-.466 1.242-.466.517 0 .931.155 1.242.466.31.31.466.709.466 1.197-.002.481-.155.88-.462 1.198z"/></symbol><symbol id="instagram-freigestellt" viewBox="0 0 1024 1024" preserveAspectRatio="xMidYMid meet"><style type="text/css">.st0{fill:#12100b}</style><path class="st0" d="M512 4c-138 0-155.3.6-209.4 3.1-54.1 2.5-91 11.1-123.3 23.6-33.4 13-61.7 30.4-90 58.6-28.2 28.2-45.6 56.6-58.6 90-12.6 32.3-21.2 69.2-23.6 123.3C4.6 356.7 4 374 4 512s.6 155.3 3.1 209.4c2.5 54.1 11.1 91 23.6 123.3 13 33.4 30.4 61.7 58.6 90 28.2 28.2 56.6 45.6 90 58.6 32.3 12.6 69.2 21.1 123.3 23.6 54.2 2.5 71.5 3.1 209.4 3.1 138 0 155.3-.6 209.4-3.1 54.1-2.5 91-11.1 123.3-23.6 33.4-13 61.7-30.4 90-58.6 28.2-28.2 45.6-56.6 58.6-90 12.6-32.3 21.1-69.2 23.6-123.3 2.5-54.2 3.1-71.5 3.1-209.4 0-138-.6-155.3-3.1-209.4-2.5-54.1-11.1-91-23.6-123.3-13-33.4-30.4-61.7-58.6-90-28.2-28.2-56.6-45.6-90-58.6-32.3-12.6-69.2-21.2-123.3-23.6C667.3 4.6 650 4 512 4zm0 91.5c135.6 0 151.7.5 205.3 3 49.5 2.3 76.4 10.5 94.3 17.5 23.7 9.2 40.6 20.2 58.4 38 17.8 17.8 28.8 34.7 38 58.4 7 17.9 15.2 44.8 17.5 94.3 2.4 53.6 3 69.6 3 205.3 0 135.6-.5 151.7-3 205.3-2.3 49.5-10.5 76.4-17.5 94.3-9.2 23.7-20.2 40.6-38 58.4-17.8 17.8-34.7 28.8-58.4 38-17.9 7-44.8 15.2-94.3 17.5-53.6 2.4-69.6 3-205.3 3-135.7 0-151.7-.5-205.3-3-49.5-2.3-76.4-10.5-94.3-17.5-23.7-9.2-40.6-20.2-58.4-38-17.8-17.8-28.8-34.7-38-58.4-7-17.9-15.2-44.8-17.5-94.3-2.4-53.6-3-69.6-3-205.3 0-135.6.5-151.7 3-205.3 2.3-49.5 10.5-76.4 17.5-94.3 9.2-23.7 20.2-40.6 38-58.4 17.8-17.8 34.7-28.8 58.4-38 17.9-7 44.8-15.2 94.3-17.5 53.6-2.5 69.7-3 205.3-3"/><path class="st0" d="M512 681.3c-93.5 0-169.3-75.8-169.3-169.3 0-93.5 75.8-169.3 169.3-169.3 93.5 0 169.3 75.8 169.3 169.3 0 93.5-75.8 169.3-169.3 169.3zm0-430.2c-144.1 0-260.9 116.8-260.9 260.9 0 144.1 116.8 260.9 260.9 260.9 144.1 0 260.9-116.8 260.9-260.9 0-144.1-116.8-260.9-260.9-260.9zm332.1-10.3c0 33.7-27.3 61-61 61s-61-27.3-61-61 27.3-61 61-61c33.7.1 61 27.4 61 61z"/></symbol><symbol id="instagram" viewBox="0 0 88 88" preserveAspectRatio="xMidYMid meet"><path d="M44.2 32.8c-6.1 0-11.1 5-11.1 11.1S38.1 55 44.2 55s11.1-5 11.1-11.1-5-11.1-11.1-11.1z"/><path d="M57.8 17H30.2C22.9 17 17 22.9 17 30.2v27.7C17 65.1 22.9 71 30.2 71h27.7C65.1 71 71 65.1 71 57.8V30.2C71 22.9 65.1 17 57.8 17zM44.2 60.8c-9.3 0-16.8-7.5-16.8-16.8s7.5-16.8 16.8-16.8S61 34.7 61 44s-7.5 16.8-16.8 16.8zm17.5-30.4c-2.2 0-4-1.8-4-3.9 0-2.2 1.8-4 4-4s4 1.8 4 4c-.1 2.1-1.9 3.9-4 3.9z"/><path d="M0 0v88h88V0H0zm77 58.1C77 68.6 68.6 77 58.1 77H29.9C19.4 77 11 68.6 11 58.1V29.9C11 19.4 19.4 11 29.9 11h28.3C68.6 11 77 19.4 77 29.9v28.2z"/></symbol><symbol id="itunes-podcast" viewBox="0 0 15.75 17.319" preserveAspectRatio="xMidYMid meet"><path d="M9.494 10.39c-.336-.354-.926-.582-1.622-.582-.697 0-1.287.227-1.623.582a1.032 1.032 0 0 0-.298.645c-.057.523-.024.975.037 1.694.058.686.168 1.601.313 2.534.103.663.187 1.021.263 1.277.123.415.586.779 1.308.779s1.183-.363 1.307-.779c.076-.256.16-.613.263-1.277a37.95 37.95 0 0 0 .314-2.534c.061-.72.093-1.171.037-1.694a1.02 1.02 0 0 0-.299-.645zM6.042 7.232a1.832 1.832 0 1 0 3.664.002 1.832 1.832 0 0 0-3.664-.002zM7.852 0C3.566.013.054 3.489.001 7.775c-.043 3.472 2.173 6.442 5.269 7.53a.106.106 0 0 0 .139-.115c-.041-.27-.078-.54-.113-.807a.27.27 0 0 0-.159-.214A6.877 6.877 0 0 1 1.01 7.807c.036-3.729 3.081-6.77 6.81-6.801 3.813-.03 6.924 3.063 6.924 6.867 0 2.813-1.7 5.236-4.127 6.296a.267.267 0 0 0-.159.214 41.05 41.05 0 0 1-.114.806.106.106 0 0 0 .141.115c3.064-1.078 5.268-4.002 5.268-7.432C15.749 3.525 12.203-.013 7.852 0zm-.143 3.613a4.272 4.272 0 0 1 4.436 4.264 4.257 4.257 0 0 1-1.349 3.111.333.333 0 0 0-.103.256c.016.293.01.578-.01.899a.104.104 0 0 0 .162.092 5.274 5.274 0 0 0 2.307-4.358 5.28 5.28 0 0 0-5.484-5.271c-2.791.108-5.031 2.41-5.066 5.204a5.273 5.273 0 0 0 2.307 4.427.103.103 0 0 0 .16-.092 7.352 7.352 0 0 1-.008-.9.332.332 0 0 0-.104-.256 4.26 4.26 0 0 1-1.348-3.225 4.284 4.284 0 0 1 4.1-4.151z"/></symbol><symbol id="kommentar" viewBox="-1180 1676.4 23 20" preserveAspectRatio="xMidYMid meet"><path d="M-1159.5 1679.2h-18c-.6 0-1 .4-1 .9v11c0 .5.5.9 1 .9h8.9l6.2 3.7v-3.7h2.8c.6 0 1-.4 1-.9v-11c.1-.5-.4-.9-.9-.9zm-13.2 7.8c-.7 0-1.3-.6-1.3-1.4 0-.8.6-1.4 1.4-1.4.8 0 1.4.6 1.4 1.4-.1.8-.7 1.4-1.5 1.4zm4.1 0c-.8 0-1.4-.6-1.4-1.4 0-.8.6-1.4 1.4-1.4.8 0 1.4.6 1.4 1.4 0 .8-.6 1.4-1.4 1.4zm4.4 0c-.8 0-1.4-.6-1.4-1.4 0-.8.6-1.4 1.4-1.4.8 0 1.4.6 1.4 1.4 0 .8-.6 1.4-1.4 1.4z"/></symbol><symbol id="kontakt" viewBox="0 0 148.5 140.5" preserveAspectRatio="xMidYMid meet"><path d="M52.582 67.596 20.73 42.173v57.128l31.852-31.705zm70.461-32.278H25.507l48.726 39.053 48.81-39.053zM89.126 72.221 74.228 84.879 59.306 72.184 25.924 104.86h95.675L89.126 72.221zm6.183-4.583 32.421 31.729V42.236L95.309 67.638z"/></symbol><symbol id="last-image" viewBox="0 0 44 44" preserveAspectRatio="xMidYMid meet"><g><path d="M20.789 22.38c-.478.407-6.006 4.903-7.55 6.084-1.292.988-1.212.393-1.226-.061-.018-.291-.014-12.112 0-12.949.014-.837.638-.307.955-.067 1.458 1.151 7.817 6.299 7.817 6.299s.482.286.004.694z"/><path d="M29.789 22.38c-.478.407-6.006 4.903-7.55 6.084-1.292.988-1.212.393-1.226-.061-.018-.291-.014-12.112 0-12.949.014-.837.638-.307.955-.067 1.458 1.151 7.817 6.299 7.817 6.299s.482.286.004.694zm2.411 6.481c0 .491-.298.889-.667.889h-.667c-.368 0-.667-.398-.667-.889V14.639c0-.491.298-.889.667-.889h.667c.368 0 .667.398.667.889v14.222z"/></g></symbol><symbol id="linkedin" viewBox="0 0 88 88" preserveAspectRatio="xMidYMid meet"><path d="M0 0v88h88V0H0zm31 69H19V34h12v35zm-6.121-39.8V29h-.074c-3.84 0-6.324-2.444-6.324-5.748 0-3.378 2.56-5.849 6.474-5.849 3.915 0 6.325 2.52 6.399 5.899-.001 3.304-2.485 5.898-6.475 5.898zM72 69H60V50.112c0-4.629-1.445-7.786-5.586-7.786-3.161 0-5.127 2.129-5.954 4.185-.303.736-.46 1.764-.46 2.793V69H36.933s.15-32 0-35H48v4.978c2-2.346 4.495-5.685 10.569-5.685C66.098 33.293 72 38.214 72 48.79V69z"/></symbol><symbol id="livestream-no-whitespace" viewBox="0 0 101.1 84.7" preserveAspectRatio="xMidYMid meet"><style type="text/css">.st0{fill:#fff}</style><path id="tv-3-icon_2_" class="st0" d="M26.3 75c5 5.8 13.9 9.7 24 9.7s19-3.9 24-9.7h-48z"/><path class="st0" d="M101.1 5.3c0-2.9-2.4-5.3-5.3-5.3H5.3C2.4 0 0 2.4 0 5.3v57.1c0 2.9 2.4 5.3 5.3 5.3h90.5c2.9 0 5.3-2.4 5.3-5.3V5.3zm-7.4 55.2H7.3V7.3h86.4v53.2z"/><path id="arrow-37-icon_4_" class="st0" d="M65.817 34.844c-1.388.917-17.451 11.042-21.939 13.702-3.755 2.226-3.523.884-3.564-.136-.052-.656-.041-27.278 0-29.162.041-1.884 1.853-.692 2.775-.15 4.236 2.593 22.714 14.187 22.714 14.187s1.402.642.014 1.559z"/></symbol><symbol id="livestream" viewBox="0 0 148.5 140.5" preserveAspectRatio="xMidYMid meet"><path d="M50 111.3c5 5.8 13.9 9.7 24 9.7s19-3.9 24-9.7H50zm74.8-69.7c0-2.9-2.4-5.3-5.3-5.3H29c-2.9 0-5.3 2.4-5.3 5.3v57.1c0 2.9 2.4 5.3 5.3 5.3h90.5c2.9 0 5.3-2.4 5.3-5.3V41.6zm-7.4 55.2H31V43.6h86.4v53.2z"/><path d="M89.517 71.144c-1.388.917-17.451 11.042-21.939 13.702-3.755 2.226-3.523.884-3.564-.136-.052-.656-.041-27.278 0-29.162.041-1.884 1.853-.692 2.775-.15 4.236 2.593 22.714 14.187 22.714 14.187s1.402.642.014 1.559z"/></symbol><symbol id="loading" viewBox="-1180 1674.9 23 23" preserveAspectRatio="xMidYMid meet"><path opacity=".15" d="M-1173.1 1682.8c1-1.2 2.3-2 3.8-2.2v-3c-2.5.2-4.9 1.5-6.4 3.7l2.6 1.5z"/><path opacity=".3" d="m-1173.9 1684.2-2.6-1.5c-1.1 2.4-1.1 5.1 0 7.4l2.6-1.5c-.5-1.4-.5-3 0-4.4z"/><path opacity=".7" d="M-1163.9 1689.9c-1 1.2-2.3 2-3.8 2.2v3c2.5-.2 4.9-1.5 6.4-3.7l-2.6-1.5z"/><path opacity="1" d="M-1167.7 1680.6c.7.1 1.5.3 2.1.7.7.4 1.2.9 1.7 1.5l2.6-1.5c-.7-1-1.6-1.9-2.8-2.6-1.1-.7-2.4-1-3.6-1.1v3z"/><path opacity=".85" d="m-1160.5 1682.7-2.6 1.5c.6 1.4.6 3 0 4.4l2.6 1.5c1.1-2.4 1-5.2 0-7.4z"/><path opacity=".5" d="M-1169.3 1692.1c-.7-.1-1.5-.3-2.1-.7-.7-.4-1.2-.9-1.7-1.5l-2.6 1.5c.7 1 1.6 1.9 2.8 2.6 1.1.7 2.4 1 3.6 1.1v-3z"/></symbol><symbol id="logo-hessenschau" viewBox="0 0 680.315 71.802" preserveAspectRatio="xMidYMid meet"><path d="M470.264 56.422c0 4.509 2.843 7.059 9.116 7.059 3.821 0 6.664-.296 9.311-2.843 1.47-1.47 2.157-3.822 2.157-7.352v-4.018h-11.664c-5.882 0-8.92 2.645-8.92 7.154zM223.665 29.273c-4.704 0-8.33 2.549-9.899 6.272-.98 2.255-1.176 3.726-1.274 6.764h22.347c-.099-3.038-.391-4.509-1.373-6.764-1.568-3.723-5.097-6.272-9.801-6.272zM74 29.273c-4.706 0-8.331 2.549-9.899 6.272-.979 2.255-1.177 3.726-1.275 6.764h22.347c-.098-3.038-.392-4.509-1.371-6.764-1.569-3.723-5.097-6.272-9.802-6.272zm104.678 12.741-7.841-.684c-5.293-.491-6.863-2.745-6.863-5.685 0-3.725 3.038-6.371 9.018-6.371 4.705 0 9.116.98 12.253 3.627l6.272-6.37c-4.607-4.019-10.977-5.588-18.426-5.588-10.391 0-18.721 5.488-18.721 15.193 0 8.723 5.39 12.939 14.701 13.722l7.939.686c4.803.39 6.664 2.548 6.664 5.879 0 4.705-4.801 6.861-10.88 6.861-4.9 0-10.29-1.077-14.309-5.192l-6.565 6.565c5.879 5.783 12.74 7.153 20.874 7.153 11.861 0 20.681-5.39 20.681-15.778.002-8.822-5.487-13.234-14.797-14.018zm-48.909 0-7.841-.684c-5.293-.491-6.861-2.745-6.861-5.685 0-3.725 3.038-6.371 9.017-6.371 4.705 0 9.114.98 12.25 3.627l6.274-6.37c-4.606-4.019-10.976-5.588-18.428-5.588-10.387 0-18.721 5.488-18.721 15.193 0 8.723 5.393 12.939 14.705 13.722l7.937.686c4.803.39 6.664 2.548 6.664 5.879 0 4.705-4.802 6.861-10.878 6.861-4.901 0-10.292-1.077-14.311-5.192l-6.567 6.565c5.882 5.783 12.741 7.153 20.878 7.153 11.859 0 20.68-5.39 20.68-15.778.001-8.822-5.486-13.234-14.798-14.018z"/><path d="M74 20.942c-12.741 0-21.074 9.311-21.074 25.386 0 18.918 9.899 25.482 22.349 25.482 8.722 0 13.525-2.644 18.622-7.739l-6.371-5.979c-3.529 3.527-6.469 5.094-12.055 5.094-8.137 0-12.645-5.39-12.645-13.917h32.247v-4.411c0-14.116-7.742-23.916-21.073-23.916zM62.826 42.309c.099-3.038.296-4.509 1.275-6.764 1.568-3.723 5.193-6.272 9.899-6.272 4.705 0 8.233 2.549 9.802 6.272.979 2.255 1.273 3.726 1.371 6.764H62.826zm318.345-12.447c3.921 0 6.371 1.273 9.508 4.705l6.861-6.667c-4.704-4.999-9.509-6.959-16.369-6.959-11.172 0-22.15 6.763-22.15 25.386 0 18.622 10.978 25.482 22.15 25.482 6.86 0 11.665-2.056 16.369-7.056l-6.861-6.565c-3.137 3.429-5.587 4.705-9.508 4.705-3.821 0-7.057-1.569-9.214-4.412-2.157-2.746-2.94-6.373-2.94-12.154s.784-9.312 2.94-12.055c2.157-2.842 5.392-4.41 9.214-4.41zm-157.506-8.92c-12.742 0-21.072 9.311-21.072 25.386 0 18.918 9.899 25.482 22.346 25.482 8.723 0 13.525-2.644 18.623-7.739l-6.37-5.979c-3.529 3.527-6.468 5.094-12.057 5.094-8.133 0-12.642-5.39-12.642-13.917h32.247v-4.411c-.002-14.116-7.745-23.916-21.075-23.916zm-11.173 21.367c.098-3.038.293-4.509 1.274-6.764 1.569-3.723 5.196-6.272 9.899-6.272 4.704 0 8.233 2.549 9.801 6.272.981 2.255 1.274 3.726 1.373 6.764h-22.347zM480.36 20.942c-8.234 0-13.134 1.667-17.84 7.155l6.568 6.175c2.745-3.529 5.391-4.802 10.879-4.802 7.742 0 10.88 3.039 10.88 9.31v3.529h-13.135c-11.369 0-17.152 5.98-17.152 14.308 0 4.216 1.374 8.038 3.921 10.683 3.039 3.039 7.156 4.509 13.33 4.509 6.175 0 9.607-1.47 13.233-5.094v4.509h9.802V37.996c-.001-11.272-6.862-17.054-20.486-17.054zm10.488 32.344c0 3.529-.686 5.882-2.157 7.352-2.646 2.547-5.489 2.843-9.311 2.843-6.273 0-9.116-2.55-9.116-7.059s3.038-7.154 8.919-7.154h11.664v4.018zM334.614 42.014l-7.84-.684c-5.294-.491-6.862-2.745-6.862-5.685 0-3.725 3.039-6.371 9.017-6.371 4.705 0 9.116.98 12.252 3.627l6.273-6.37c-4.606-4.019-10.977-5.588-18.425-5.588-10.391 0-18.723 5.488-18.723 15.193 0 8.723 5.392 12.939 14.703 13.722l7.938.686c4.802.39 6.665 2.548 6.665 5.879 0 4.705-4.802 6.861-10.88 6.861-4.901 0-10.29-1.077-14.309-5.192l-6.566 6.565c5.88 5.783 12.741 7.153 20.875 7.153 11.86 0 20.682-5.39 20.682-15.778.002-8.822-5.489-13.234-14.8-14.018zM10.453.175l-.001 22.416s7.175-1.467 13.485-1.404c10.483.103 15.733 5.636 16.105 12.856.093 1.835.075 2.848.075 4.821v32.36H29.059V38.243c0-3.651.235-8.181-8.117-8.142-5.949.028-10.152 1.147-10.152 1.147v39.976H0V.849L10.453.175zm408.809 0-.003 22.416s7.179-1.467 13.488-1.404c10.482.103 15.733 5.636 16.107 12.856.093 1.835.072 2.848.072 4.821v32.36h-11.058V38.243c0-3.651.235-8.181-8.117-8.142-5.95.028-10.152 1.147-10.152 1.147v39.976h-10.79V.849l10.453-.674zm251.152 42.132h-22.346c.096-3.036.294-4.509 1.274-6.762 1.567-3.726 5.193-6.273 9.899-6.273 4.704 0 8.233 2.547 9.801 6.273.981 2.253 1.276 3.727 1.372 6.762m9.901 6.959v-4.409c0-14.115-7.744-23.916-21.073-23.916-12.742 0-21.073 9.312-21.073 25.387 0 18.915 9.9 25.482 22.348 25.482 8.724 0 13.526-2.647 18.622-7.742l-6.371-5.979c-3.527 3.529-6.467 5.097-12.056 5.097-8.136 0-12.643-5.39-12.643-13.919h32.246zM571.411 71.809c3.348 0 5.809-2.362 5.809-6.006 0-3.445-2.462-5.906-5.809-5.906-3.348 0-5.811 2.461-5.811 5.906 0 3.644 2.463 6.006 5.811 6.006m56.546-26.123L627.954 0h-10.187v25.569c-3.696-4.393-7.892-5.692-13.284-5.692-5.095 0-9.488 1.697-12.285 4.494-5.095 5.095-5.695 13.685-5.695 21.376 0 7.69.6 16.378 5.695 21.472 2.701 2.702 6.987 4.372 11.864 4.485 1.02.069 2.099.105 3.245.105 1.234 0 2.388-.044 3.477-.124a20.76 20.76 0 0 0 3.998-.523 9.915 9.915 0 0 0 1.067-.282c2.575-.763 4.782-2.025 6.429-3.674 4.697-4.694 5.566-12.453 5.672-19.664-.001 0 .008-1.845.007-1.856zM607.28 28.967c9.189 0 10.487 7.788 10.487 16.78 0 6.458-.67 12.348-4.456 15.152-1.481 1.092-3.437 1.713-6.014 1.713-.036 0-.063-.005-.098-.005v.014c-9.116-.048-10.507-7.915-10.507-16.875 0-8.99 1.397-16.779 10.588-16.779zM555.357 21.5v31.712c0 5.577 1.483 18.594-20.142 18.594-21.628 0-20.142-13.017-20.142-18.594V21.5h10v30.239c0 7.569 3.274 10.957 10.142 11.058 7.438-.206 10.146-3.489 10.146-11.058V21.5h9.996zM257.01 71.224V39.498c0-5.58-1.483-18.602 20.151-18.602 21.638 0 20.15 13.022 20.15 18.602v31.726h-10.004V40.972c0-7.572-3.277-10.962-10.146-11.062-7.442.206-10.15 3.49-10.15 11.062v30.253H257.01z"/></symbol><symbol id="mail" viewBox="0 0 88 88" preserveAspectRatio="xMidYMid meet"><path d="M0 0v88h88V0H0zm69.8 25L45.9 49.6c-.8.8-2.3.7-3.1-.1L18.9 25h50.9zM16 27.1l16.2 16.6L16 60.2V27.1zM18.4 62l16-16.2 6.1 6.4c1 1.1 2.4 1.7 3.9 1.7s2.9-.6 3.9-1.7l6.1-6.4 16 16.2h-52zM73 60.2 56.8 43.6 73 27.1v33.1z"/></symbol><symbol id="my-you" viewBox="0 0 50 36" preserveAspectRatio="xMidYMid meet"><path d="m31.601 9.004 4.849 4.074v5.968L25 28.42l-11.45-9.375v-5.967l4.849-4.074 6.6 4.4c.002 0 6.602-4.4 6.602-4.4zm.15-2.604-6.75 4.5-6.75-4.5-6.75 5.625V19.9l13.5 11.25 13.5-11.25v-7.875L31.751 6.4z"/></symbol><symbol id="nachrichten" viewBox="0 0 50 36" preserveAspectRatio="xMidYMid meet"><path d="M19.947 21.153h13.556v.943H19.947v-.943zm13.554-2.827H19.947v.943h13.556l-.002-.943zm0-5.658h-6.014v.943h6.014v-.943zm0 2.829h-6.014v.943h6.014v-.943zM16.176 7.955V24.17c0 .727-1.543.727-1.543 0V10.001h-1.885v14.905c0 1.051.853 1.904 1.904 1.904h20.715a1.904 1.904 0 0 0 1.906-1.904V7.955H16.176zm19.212 16.819H18.061V9.991h17.327v14.783zm-9.785-12.106h-5.656v3.771h5.656v-3.771z"/></symbol><symbol id="new-tab" viewBox="0 0 190 190" preserveAspectRatio="xMidYMid meet"><path d="M190 41.216h-30V11h-22v30.216h-30v22.158h30V93.59h22V63.374h30z"/><path d="M168 128.842H22V33.158h69V11H0v140h190v-40.288h-22z"/></symbol><symbol id="ortsmarke" viewBox="0 0 23 20" preserveAspectRatio="xMidYMid meet"><path d="M11.5.4c-3.3 0-6 2.7-6 6.1s2.6 7.3 6 13.2c3.4-5.9 6-9.8 6-13.2S14.8.4 11.5.4zm0 8.1c-1.2 0-2.2-1-2.2-2.2s1-2.2 2.2-2.2 2.2 1 2.2 2.2-1 2.2-2.2 2.2z"/></symbol><symbol id="pause-button-podcast" viewBox="0 0 48 48" preserveAspectRatio="xMidYMid meet"><path id="Pfad_578" class="cls-4" d="M23.72 1.21c12.44 0 22.52 10.08 22.52 22.52S36.16 46.25 23.72 46.25c-3.46-.01-6.87-.81-9.97-2.32C2.6 38.41-1.97 24.9 3.54 13.75A22.508 22.508 0 0 1 23.72 1.21Z"/><g clip-path="url(#clippath)"><g id="Gruppe_2640"><path id="Pfad_672" class="cls-4" d="M24 0C10.75 0 0 10.75 0 24s10.75 24 24 24 24-10.75 24-24S37.25 0 24 0m0 45.6C12.07 45.6 2.4 35.93 2.4 24S12.07 2.4 24 2.4 45.6 12.07 45.6 24c0 11.93-9.67 21.6-21.6 21.6"/></g></g><path id="Pfad_786" class="cls-3" d="M24 0C10.75 0 0 10.75 0 24s10.75 24 24 24 24-10.75 24-24S37.25 0 24 0m0 45.6C12.07 45.6 2.4 35.93 2.4 24S12.07 2.4 24 2.4 45.6 12.07 45.6 24c0 11.93-9.67 21.6-21.6 21.6"/><g id="Gruppe_3432"><path id="Pfad_787" class="cls-3" d="M28.37 16.71v15.21c0 .47-.63.86-1.41.86s-1.41-.39-1.41-.86V16.71c0-.47.63-.86 1.41-.86s1.41.39 1.41.86Z"/><path id="Pfad_788" class="cls-3" d="M21.88 16.71v15.21c0 .47-.63.86-1.41.86s-1.41-.39-1.41-.86V16.71c0-.47.63-.86 1.41-.86s1.41.39 1.41.86Z"/></g></symbol><symbol id="pause" viewBox="0 0 44 44" preserveAspectRatio="xMidYMid meet"><path d="M30.375 34.083c0 .552-.527 1-1.176 1h-2.647c-.65 0-1.176-.448-1.176-1v-24c0-.552.527-1 1.176-1h2.647c.65 0 1.176.448 1.176 1v24zm-11.767-.05c0 .552-.527 1-1.176 1h-2.647c-.65 0-1.176-.448-1.176-1v-24c0-.552.527-1 1.176-1h2.647c.65 0 1.176.448 1.176 1v24z"/></symbol><symbol id="pin-icon" viewBox="0 0 14 24" preserveAspectRatio="xMidYMid meet"><path d="M8.18 16.19v5.46L5.82 24v-7.81Zm-7.6-1.45h12.84c0-5.34-3.36-5.6-3.36-9.36 0-2.88 1.79-3.49 1.87-5.38H2.07c.08 1.91 1.87 2.48 1.87 5.38 0 3.77-3.36 4-3.36 9.36ZM5.4 2.92h1.42v5.32H5.4Z"/></symbol><symbol id="play-button-podcast" viewBox="0 0 48 48" preserveAspectRatio="xMidYMid meet"><g id="Play_und_Pause_Icon-2"><path id="Pfad_578-2" d="M23.72 1.21c12.44 0 22.52 10.08 22.52 22.52S36.16 46.25 23.72 46.25c-3.46-.01-6.87-.81-9.97-2.32C2.6 38.41-1.97 24.9 3.54 13.75A22.508 22.508 0 0 1 23.72 1.21Z"/><g clip-path="url(#clippath)"><g id="Gruppe_2640-2"><path id="Pfad_672-2" class="cls-4" d="M24 0C10.75 0 0 10.75 0 24s10.75 24 24 24 24-10.75 24-24S37.25 0 24 0m0 45.6C12.07 45.6 2.4 35.93 2.4 24S12.07 2.4 24 2.4 45.6 12.07 45.6 24c0 11.93-9.67 21.6-21.6 21.6"/></g></g><path id="Pfad_783-2" class="cls-4" d="m33.39 22.66-13.75-7.67a1.05 1.05 0 0 0-1.56.92l-.04 15.63c0 .58.47 1.05 1.05 1.06.19 0 .37-.05.53-.14l13.79-7.96c.5-.29.68-.93.39-1.44a1 1 0 0 0-.4-.39"/></g></symbol><symbol id="play" viewBox="0 0 44 44" preserveAspectRatio="xMidYMid meet"><path fill="currentColor" d="M30.06 22.705c-.898.756-11.287 9.106-14.19 11.3-2.429 1.835-2.279.729-2.305-.113-.034-.541-.026-22.495 0-24.048s1.199-.571 1.795-.124c2.74 2.138 14.692 11.699 14.692 11.699s.906.53.008 1.286z"/></symbol><symbol id="playlist" viewBox="0 0 100 76.3" preserveAspectRatio="xMidYMid meet"><path d="M1.5 72h29v-9.7h-29V72zm0-19.4h29v-9.7h-29v9.7zm58-29h-58v9.7h58v-9.7zm0-19.3h-58V14h58V4.3zM95 23.6c-2.5-3.5-8.2-5.9-12.2-9.5-5.2-4.7-5.3-9.4-6-13.1h-3.7v57.2c-1.8-1.3-3.7-1.6-7.2-1.6-4 0-8.8 1.5-12.7 3.8-3.8 2.2-6.6 5.3-6.6 8.3 0 1.9 1.1 3.6 3 4.7 1.8 1.1 4.4 1.8 7.2 1.8 4.4 0 9.4-1.3 13.3-3.6 3.9-2.2 6.6-5.3 6.6-8.6V20.9c5.6.3 9.8 3.3 11.8 5.9 3.3 4.5 3.5 7.2 3.6 11.1.1 7.3-1.5 11.5-3.9 15.5h1.6c3.4-4.2 7.8-9.3 8.4-17 .3-3.7.4-7.7-3.2-12.8z" fill-rule="evenodd" clip-rule="evenodd"/></symbol><symbol id="play_button" viewBox="0 0 40 40" preserveAspectRatio="xMidYMid meet"><path fill="currentColor" d="M20 1.6C9.9 1.6 1.6 9.9 1.6 20S9.9 38.4 20 38.4 38.4 30.1 38.4 20 30.1 1.6 20 1.6z"/><path d="M20 0C9 0 0 9 0 20s9 20 20 20 20-9 20-20S31 0 20 0zm0 38c-9.9 0-18-8.1-18-18S10.1 2 20 2s18 8.1 18 18-8.1 18-18 18z"/><path d="m27.9 19-11.4-6.3c-.4-.2-1-.1-1.2.3-.1.1-.1.3-.1.4v12.9c0 .5.4.9.9.9.2 0 .3 0 .4-.1L28 20.6c.4-.2.6-.8.3-1.2-.1-.2-.2-.3-.4-.4z"/></symbol><symbol id="podcast-button" viewBox="0 0 40 40" preserveAspectRatio="xMidYMid meet"><style type="text/css">.st1{fill:#fff}</style><path fill="currentColor" d="M20 2C10.1 2 2 10.1 2 20s8.1 18 18 18 18-8.1 18-18S29.9 2 20 2zm-8.3 15.8c0-4.7 3.8-8.4 8.4-8.4 4.7 0 8.4 3.8 8.4 8.4 0 2.7-1.3 5.1-3.3 6.7l-.9-1.6c1.4-1.2 2.3-3 2.3-5 0-3.6-3-6.6-6.6-6.6-3.6 0-6.6 3-6.6 6.6 0 2.1 1 4 2.5 5.2l-.9 1.7c-2-1.7-3.3-4.2-3.3-7zm8.4-2.9c-1.6 0-3 1.3-3 3 0 .7.2 1.3.6 1.8l-.8 1.6c-1-.9-1.6-2.1-1.6-3.6 0-2.7 2.2-4.8 4.8-4.8 2.7 0 4.8 2.2 4.8 4.8 0 1.3-.6 2.6-1.5 3.4l-.9-1.6c.3-.5.5-1.1.5-1.7.1-1.6-1.2-2.9-2.9-2.9zm4.8 15.2h-9.2c-.7 0-1.1-.7-.8-1.3l4.5-9.7c-.5-.3-.8-.8-.8-1.3 0-.9.7-1.6 1.6-1.6.9 0 1.6.7 1.6 1.6 0 .6-.3 1.1-.8 1.3l4.7 9.7c.3.6-.2 1.3-.8 1.3z"/><path class="st1" d="M20 0C9 0 0 9 0 20s9 20 20 20 20-9 20-20S31 0 20 0zm0 38c-9.9 0-18-8.1-18-18S10.1 2 20 2s18 8.1 18 18-8.1 18-18 18z"/><path class="st1" d="M16 23c-1.5-1.2-2.5-3.1-2.5-5.2 0-3.6 3-6.6 6.6-6.6 3.6 0 6.6 3 6.6 6.6 0 2-.9 3.8-2.3 5l.9 1.6c2-1.5 3.3-3.9 3.3-6.7 0-4.7-3.8-8.4-8.4-8.4-4.7 0-8.4 3.8-8.4 8.4 0 2.8 1.4 5.3 3.5 6.8L16 23z"/><path class="st1" d="m22.6 19.6.9 1.6c.9-.9 1.5-2.1 1.5-3.4 0-2.7-2.2-4.8-4.8-4.8-2.7 0-4.8 2.2-4.8 4.8 0 1.4.6 2.7 1.6 3.6l.8-1.6c-.4-.5-.6-1.1-.6-1.8 0-1.7 1.3-3 3-3s3 1.3 3 3c-.1.5-.3 1.1-.6 1.6z"/><path class="st1" d="m25.6 28.8-4.7-9.7c.5-.3.8-.8.8-1.3 0-.9-.7-1.6-1.6-1.6-.9 0-1.6.7-1.6 1.6 0 .6.3 1.1.8 1.3l-4.5 9.7c-.3.6.1 1.3.8 1.3h9.2c.7 0 1.2-.7.8-1.3z"/></symbol><symbol id="podcast" viewBox="0 0 148.5 140.5" preserveAspectRatio="xMidYMid meet"><g fill="currentColor"><path d="M66.943 72.651c0 4.079 3.272 7.381 7.309 7.381 4.037 0 7.309-3.302 7.309-7.381s-3.268-7.385-7.309-7.385c-4.037 0-7.309 3.306-7.309 7.385z"/><path d="m84.442 89.007 4.122 7.169c7.836-4.874 13.101-13.543 13.101-23.521 0-15.294-12.268-27.698-27.413-27.698-15.136 0-27.413 12.404-27.413 27.698 0 9.978 5.265 18.646 13.097 23.521l4.135-6.735c-5.384-3.217-9.03-10.012-9.03-16.785 0-10.199 9.119-19.411 19.212-19.411 10.097 0 19.212 9.213 19.212 19.411-.001 6.769-3.656 13.143-9.023 16.351z"/><path d="M74.252 26.485c-25.233 0-45.69 20.669-45.69 46.166 0 16.382 8.507 30.689 21.239 38.878l4.084-6.735C43.606 98.258 36.76 85.833 36.76 72.651c0-20.393 17.304-37.879 37.488-37.879s37.488 17.482 37.488 37.879c0 13.182-6.897 25.616-17.172 32.143l4.135 6.735c12.731-8.189 21.239-22.496 21.239-38.878.004-25.496-20.449-46.166-45.686-46.166z"/><path d="M56.718 121.733h35.067L74.252 91.119l-17.534 30.614z"/></g></symbol><symbol id="print" viewBox="0 0 88 88" preserveAspectRatio="xMidYMid meet"><path d="M0 0v88h88V0H0zm27.644 23.183c0-1.487 1.189-2.378 2.379-2.378h27.954c1.488 0 2.379 1.189 2.379 2.378v1.785c0 1.487-1.19 2.378-2.379 2.378H30.022c-1.189 0-2.379-1.189-2.379-2.378v-1.785zm26.17 44.012H34.483c-1.487 0-2.379-1.188-2.379-2.379V50.244c0-1.486 1.189-2.379 2.379-2.379h19.033c1.488 0 2.379 1.191 2.379 2.379l.296 14.572c0 1.489-1.186 2.379-2.377 2.379zm17.545-8.623h-8.92c-1.488 0-2.379-1.189-2.379-2.381V43.404H28.536v12.49c0 1.488-1.189 2.379-2.38 2.379H16.64c-1.486 0-2.378-1.188-2.378-2.379V34.483c0-1.487 1.189-2.379 2.378-2.379h54.42c1.488 0 2.384 1.19 2.384 2.379l.295 21.708c-.001 1.487-1.191 2.381-2.38 2.381z"/></symbol><symbol id="push" viewBox="0 0 49 49" preserveAspectRatio="xMidYMid meet"><path d="M0 0v49h49.2V0H0zm28.8 41.9c0 2.3-1.9 4.1-4.1 4.1-2.3 0-4.1-1.8-4.1-4.1 0-.4.1-.8.2-1.1h8v1.1zm15.4-3.7h-39c-.9 0-.9-1.5 0-1.5 3.4-.2 6.1-.8 7.6-18.8.4-3.6 2.9-10.2 9.8-10.4.1-6 4.2-6.2 4.2 0 7 .2 9.5 6.7 9.8 10.1 1.4 18 4.2 18.9 7.6 19.1.9 0 .9 1.5 0 1.5z"/></symbol><symbol id="ranking-already-voted" viewBox="0 0 28 28" preserveAspectRatio="xMidYMid meet"><circle fill="currentColor" cx="14" cy="14.03" r="14"/><path d="M14 3.03c-6.075 0-11 4.925-11 11s4.925 11 11 11 11-4.925 11-11-4.925-11-11-11zm-1.945 17.648-5.836-5.66 2.409-2.41 3.428 3.25 6.818-6.601 2.409 2.409-9.228 9.012z"/></symbol><symbol id="ranking-down-text" viewBox="0 0 72 22" preserveAspectRatio="xMidYMid meet"><path d="M61.02-.1c-6.075 0-11 4.925-11 11s4.925 11 11 11 11-4.925 11-11-4.925-11-11-11zm0 19.073-7.765-9.297h5.655V2.827h4.221v6.849h5.655l-7.766 9.297zM8.107 5.742v10.101H5.636l.014-.567c-.352.297-.905.77-2.012.77-.217 0-.811-.013-1.364-.283-.688-.338-1.729-1.31-1.729-3.214 0-.973.283-1.931.985-2.62.298-.285.69-.528 1.081-.649.364-.122.716-.15 1.108-.15 1.053 0 1.525.311 1.931.595V5.742h2.457zm-3.065 8.075c.513-.216.783-.716.783-1.256 0-.811-.554-1.364-1.364-1.364-.837 0-1.351.554-1.351 1.364 0 .837.514 1.377 1.351 1.377.283-.014.472-.067.581-.121zm4.44-6.455c0-.729.594-1.31 1.323-1.31s1.323.594 1.323 1.323-.607 1.323-1.323 1.323a1.43 1.43 0 0 1-.945-.392 1.34 1.34 0 0 1-.378-.944zm2.579 8.48H9.59V9.32h2.472v6.522zm5.791-4.416c-.148-.067-.823-.405-1.485-.405-.04 0-.176 0-.311.055-.188.067-.243.202-.243.297 0 .257.352.351.783.445.5.122 1.162.257 1.566.607.243.203.365.486.392.595.041.095.108.351.108.648 0 .58-.257 1.215-.688 1.62-.271.257-.662.526-1.473.675a5.328 5.328 0 0 1-.918.081c-.27 0-1.121-.04-1.944-.323-.202-.068-.271-.095-.621-.271l.554-1.985c.107.067.216.136.324.189.188.095.932.473 1.688.473.054 0 .229.014.405-.067a.405.405 0 0 0 .257-.352.298.298 0 0 0-.148-.27c-.257-.149-.689-.081-1.311-.298-.392-.135-1.363-.526-1.363-1.769 0-.324.081-1.107.77-1.675.716-.58 1.58-.567 1.863-.567.878 0 1.485.176 2.31.446l-.515 1.851zm4.321-5.672v10.088h-2.472V5.754h2.472zm1.376 1.608c0-.729.594-1.31 1.323-1.31s1.323.594 1.323 1.323-.607 1.323-1.323 1.323a1.43 1.43 0 0 1-.945-.392 1.34 1.34 0 0 1-.378-.944zm2.579 8.48h-2.472V9.32h2.472v6.522zm5.98-6.522h2.998l-2.917 3.228 3.174 3.295h-3.065l-2.255-2.458v2.458h-2.458V5.742h2.458v6.171l2.065-2.593zm5.724 3.849c.055.311.271 1.229 1.337 1.229.648 0 .905-.351 1.026-.58h2.606c-.095.27-.162.392-.229.513-.405.743-1.377 1.729-3.403 1.729-.229 0-.958 0-1.661-.243-.796-.283-2.065-1.094-2.052-3.2 0-.864.188-1.634.756-2.296.445-.499 1.351-1.215 2.984-1.215.445 0 1.647.014 2.62.932.54.513.77 1.094.851 1.337.135.419.216.878.216 1.782l-5.051.012zm2.58-1.432c-.055-.148-.081-.229-.162-.364-.243-.378-.662-.554-1.095-.554-.216 0-.77.054-1.106.607-.055.095-.081.148-.162.311h2.525z"/></symbol><symbol id="ranking-down" viewBox="0 0 28 28" preserveAspectRatio="xMidYMid meet"><circle fill="currentColor" cx="14" cy="14" r="14"/><path d="M14 3C7.925 3 3 7.925 3 14s4.925 11 11 11 11-4.925 11-11S20.075 3 14 3zm0 18.073-6.765-7.297h4.655V6.927h4.221v6.849h4.655L14 21.073z" fill="#C62C46"/></symbol><symbol id="ranking-up-text" viewBox="0 0 72 22" preserveAspectRatio="xMidYMid meet"><path d="M61.07.1c-6.075 0-11 4.925-11 11s4.925 11 11 11 11-4.925 11-11-4.925-11-11-11zm2.11 11.546v6.849h-4.22v-6.849h-5.655l7.765-9.297 7.765 9.297H63.18zM22.36 5.954v10.088h-2.472V5.954h2.472zm1.376 1.608c0-.729.594-1.31 1.323-1.31s1.323.594 1.323 1.323-.607 1.323-1.323 1.323a1.43 1.43 0 0 1-.945-.392 1.34 1.34 0 0 1-.378-.944zm2.579 8.48h-2.472V9.52h2.472v6.522zm5.981-6.522h2.998l-2.917 3.228 3.174 3.295h-3.065l-2.255-2.458v2.458h-2.458V5.942h2.458v6.171l2.065-2.593zm5.723 3.849c.055.311.271 1.229 1.337 1.229.648 0 .905-.351 1.026-.58h2.606c-.095.27-.162.392-.229.513-.405.743-1.377 1.729-3.403 1.729-.229 0-.958 0-1.661-.243-.796-.283-2.065-1.094-2.052-3.2 0-.864.188-1.634.756-2.296.445-.499 1.351-1.215 2.984-1.215.445 0 1.647.014 2.62.932.54.513.77 1.094.851 1.337.135.419.216.878.216 1.782l-5.051.012zm2.579-1.432c-.054-.148-.08-.229-.161-.364-.243-.378-.662-.554-1.095-.554-.216 0-.77.054-1.106.607-.055.095-.081.148-.162.311h2.524z"/></symbol><symbol id="ranking-up" viewBox="0 0 28 28" preserveAspectRatio="xMidYMid meet"><circle fill="currentColor" cx="14" cy="14" r="14"/><path d="M14 3C7.925 3 3 7.925 3 14s4.925 11 11 11 11-4.925 11-11S20.075 3 14 3zm2.11 10.546v6.849h-4.22v-6.849H7.235L14 6.249l6.765 7.297H16.11z" fill="#70B224"/></symbol><symbol id="reload" viewBox="0 0 110 86" preserveAspectRatio="xMidYMid meet"><path d="M54.746 0c24.247 0 43.903 19.597 43.903 43.764 0 .002 0-.002 0 0H110L91.506 62.209 72.992 43.764h11.591c0-.004 0 .004 0 0 0-16.424-13.358-29.744-29.837-29.744a29.793 29.793 0 0 0-21.098 8.71l-9.946-9.913C31.647 4.898 42.623 0 54.746 0zM0 42.236h11.351c0 .002 0-.002 0 0C11.351 66.403 31.007 86 55.254 86c12.123 0 23.099-4.898 31.044-12.816l-9.946-9.913a29.797 29.797 0 0 1-21.098 8.71c-16.478 0-29.837-13.32-29.837-29.744 0-.005 0 .004 0 0h11.591L18.494 23.791 0 42.236z"/></symbol><symbol id="reset" viewBox="0 0 110 86" preserveAspectRatio="xMidYMid meet"><path d="M54.3 24.6h-28C33.7 18.8 46.4 8.7 48.4 7c3.5-3.4-.3-9.8-5.7-5.5-5.8 5.1-29.2 24.2-32.9 26.4 3.6 3.4 27.1 21.9 32.8 27 5.3 4.5 9.2-1.7 5.7-5-2-1.8-14.7-11.7-22.1-17.6h28.1c28-.1 41.5.1 41.6 22.1 0 4.5-1.6 9.1-5 12.4-7.1 7.3-21.6 11.4-39.8 11.4H21.5V86h29.6c20.5 0 36.6-4.8 45.4-13.5 4.8-4.8 7.2-11.4 7.2-18-.1-30.8-24-29.9-49.4-29.9z"/></symbol><symbol id="rss-new" viewBox="0 0 110 86" preserveAspectRatio="xMidYMid meet"><g fill="currentColor"><path d="M23.518 62.957C17.166 62.957 12 68.153 12 74.494 12 80.856 17.166 86 23.518 86c6.373 0 11.534-5.144 11.534-11.506-.001-6.341-5.161-11.537-11.534-11.537zM12.751 29.531v15.107c10.751.199 20.841 4.493 28.469 12.147 7.628 7.637 11.912 17.757 12.111 28.57h15.161c-.415-30.597-25.188-55.415-55.741-55.824z"/><path d="M12.777 0v15.107c38.459.415 69.674 31.704 70.088 70.248H98C97.58 38.475 59.583.42 12.777 0z"/></g></symbol><symbol id="rss" viewBox="0 0 88 88" preserveAspectRatio="xMidYMid meet"><path d="M0 0v88h88V0H0zm24 71.3c-4 0-7.3-3.3-7.3-7.3s3.3-7.3 7.3-7.3 7.3 3.3 7.3 7.3-3.2 7.3-7.3 7.3zm18.9-.3c-.1-7-2.9-13.3-7.8-18.2C30.3 47.9 24 45.2 17 45v-9.6C37 35.7 52.3 51 52.6 71h-9.7zm18.8 0C61.4 46 42 26.5 17 26.3v-9.6C47 17 71 41 71.3 71h-9.6z" display="inline"/></symbol><symbol id="sandclock" viewBox="0 0 512 512" preserveAspectRatio="xMidYMid meet"><path fill="currentColor" d="M365 167.1c15.5-18.5 24-41.7 24-65.2V52H130.3v49.8c0 23.6 8.5 46.8 24 65.2l49.9 59.5c9.2 10.9 9.2 26.3.1 37.3l-50.6 61.3c-15.1 18.4-23.5 41.3-23.5 64.6V440H389v-50.2c0-23.3-8.4-46.2-23.5-64.6l-50.6-61.3c-9.1-11-9-26.3.1-37.3.1 0 50-59.5 50-59.5zm-75 117.3 50.6 61.3c10.5 12.8 16.1 27.9 16.1 45.8h-194c0-17.8 5.5-33 16.1-45.7l50.6-61.3c18.9-22.9 18.7-55.9-.3-78.6l-49.9-59.5c-10.7-12.7-16.5-28.1-16.5-45.8h194c0 17.8-5.9 33.1-16.5 45.8l-49.9 59.5c-19.1 22.6-19.2 55.7-.3 78.5z"/></symbol><symbol id="send" viewBox="0 0 23 20" preserveAspectRatio="xMidYMid meet"><path d="m18.932 2.561-4.091 14.684-5.215-4.95 5.138-5.43-6.888 4.767-4.752-1.156 15.808-7.915zM8.995 13.224v4.784l2.253-2.61-2.253-2.174z"/></symbol><symbol id="sendetermine" viewBox="0 0 23 23" preserveAspectRatio="xMidYMid meet"><path d="M11.5 0C5.1 0 0 5.1 0 11.5S5.1 23 11.5 23 23 17.9 23 11.5 17.9 0 11.5 0zm7.3 12.4c-2 .4-7.1 1-7.6 1-.8 0-1.4-.6-1.4-1.4 0-.5.7-6.4 1-8.5 0-.2.7-.2.7 0l.8 7.2 6.4.8c.3.1.3.8.1.9z"/></symbol><symbol id="settings" viewBox="0 0 110 86" preserveAspectRatio="xMidYMid meet"><path d="m98 37.209-6.258-2.226a8.97 8.97 0 0 1-5.276-5.01l-.001-.003a8.967 8.967 0 0 1 .186-7.286l2.85-5.996-8.19-8.19-5.995 2.85a8.978 8.978 0 0 1-7.287.186l-.003-.001a8.962 8.962 0 0 1-5.01-5.275L60.791 0H49.209l-2.226 6.258a8.97 8.97 0 0 1-5.01 5.276l-.003.001a8.967 8.967 0 0 1-7.286-.186l-5.996-2.85-8.19 8.19 2.85 5.995a8.982 8.982 0 0 1 .186 7.287l-.001.003a8.958 8.958 0 0 1-5.275 5.009L12 37.209v11.582l6.258 2.225a8.97 8.97 0 0 1 5.276 5.01l.001.003a8.967 8.967 0 0 1-.185 7.286l-2.85 5.996 8.19 8.19 5.995-2.85a8.978 8.978 0 0 1 7.287-.186l.003.001a8.955 8.955 0 0 1 5.009 5.275L49.209 86h11.582l2.212-6.218a9.058 9.058 0 0 1 5.055-5.328l.003-.001a8.874 8.874 0 0 1 7.218.18l6.033 2.868 8.19-8.19-2.851-5.998a8.969 8.969 0 0 1-.185-7.28l.001-.003a8.969 8.969 0 0 1 5.28-5.014L98 48.791V37.209zM55 62.944c-11.015 0-19.945-8.929-19.945-19.944S43.985 23.056 55 23.056 74.944 31.985 74.944 43 66.015 62.944 55 62.944z"/></symbol><symbol id="single-image-back" viewBox="0 0 44 44" preserveAspectRatio="xMidYMid meet"><path d="M28.7 35.6c-.3 0-.7-.1-1-.3L13.7 23c-.3-.3-.4-.7-.4-1.1s.1-.8.5-1.1L28 9.6c.5-.4 1.5-.4 1.9.3.4.5.4 1.5-.3 1.9L16.9 21.9 29.6 33c.5.5.7 1.4.1 1.9-.2.6-.6.7-1 .7z"/></symbol><symbol id="single-image-next" viewBox="0 0 44 44" preserveAspectRatio="xMidYMid meet"><path d="M15.8 9.3c.3 0 .7.1 1 .3l14 12.3c.3.3.4.7.4 1.1s-.1.8-.5 1.1L16.5 35.4c-.5.4-1.5.4-1.9-.3-.4-.5-.4-1.5.3-1.9L27.6 23 14.9 11.9c-.5-.5-.7-1.4-.1-1.9.2-.5.6-.7 1-.7z"/></symbol><symbol id="speaker-mute" viewBox="0 0 24 23" preserveAspectRatio="xMidYMid meet"><path d="M23.6 13.5c-.1-.2-1-1-1.9-1.9l1.9-1.9c.4-.4-.6-1.7-1.2-1.1-.3.3-1.1 1-1.9 1.9l-1.9-1.9c-.4-.4-1.7.7-1.2 1.3.3.3 1 1.1 1.9 1.9-.9.9-1.7 1.7-1.8 1.9-.5.5.5 1.7 1.1 1.2.2-.1 1-1 1.9-1.9l1.9 1.9c.4.4 1.7-.8 1.2-1.4zM3 6.1C1.3 6.1.7 7.2.3 8.7c-.4 1.9-.4 4.1 0 6 .4 1.5 1.1 2.5 2.6 2.5H6C4.7 14.4 4.7 8.8 6 6.1H3z"/><path d="M17.8 19.5c-.8-.5-1.1-1.2-1.5-2-.6-1.2-.7-2-.8-3.1v-.2c-.2-1.2-.1-4.4 0-5.5s.4-2.1.9-3.3c.4-.8.7-1.4 1.5-1.9 2.5-1.7 1.2-4.1 0-3.4-1.2.8-9.2 5.5-9.2 5.5-1.9 2.1-1.9 10 0 12 0 0 8 4.8 9.2 5.4 1.2.7 2.4-1.9-.1-3.5z"/></symbol><symbol id="speaker-on" viewBox="0 0 24 23" preserveAspectRatio="xMidYMid meet"><path d="M2.9 6H6c-1.3 2.8-1.3 8.3 0 11H2.9c-1.6 0-2.3-1-2.6-2.5-.4-1.8-.5-4.1 0-6C.6 7.1 1.2 6 2.9 6zm20.7 5.5c0 7.7-3 12.3-5.9 11.4-.7-.2-9.2-5.3-9.2-5.3-1.9-2.1-1.9-9.9 0-12 0 0 8.8-5.2 9.1-5.4 2.7-1.1 6 3.6 6 11.3zm-3.5-7c-1-2.2-2.5-2.1-3.5 0-.6 1.2-1 2.7-1.2 4.2h.5c1.5 0 2.8 1.2 2.8 2.8 0 1.5-1.2 2.8-2.8 2.8h-.5c.2 1.5.6 3 1.2 4.3.9 2.2 2.6 2.1 3.5 0 1.8-4.3 1.7-10.5 0-14.1z"/></symbol><symbol id="status-done" viewBox="0 0 489 489" preserveAspectRatio="xMidYMid meet"><path fill="currentColor" d="M417.4 71.6C371.2 25.4 309.8 0 244.5 0S117.8 25.4 71.6 71.6 0 179.2 0 244.5s25.4 126.7 71.6 172.9S179.2 489 244.5 489s126.7-25.4 172.9-71.6S489 309.8 489 244.5s-25.4-126.7-71.6-172.9z"/><path d="m122.4 271.2 63.7 63.7c4.2 4.2 9.8 6.4 15.2 6.4s11.1-2.1 15.2-6.4L367 184.6l-30.7-30.8-135 135.2-45.5-46.5" fill="#fff"/></symbol><symbol id="status-error" viewBox="0 0 489 489" preserveAspectRatio="xMidYMid meet"><path fill="currentColor" d="M417.4 71.6C371.2 25.4 309.8 0 244.5 0S117.8 25.4 71.6 71.6 0 179.2 0 244.5s25.4 126.7 71.6 172.9S179.2 489 244.5 489s126.7-25.4 172.9-71.6S489 309.8 489 244.5s-25.4-126.7-71.6-172.9z"/><path d="m271.5 239.6 90.1-90.1-28.2-28.2-90.2 90.1-90.1-90.1-28.2 28.2 90.1 90.1-93.1 93.2 28.2 28.2 93.2-93.1 93.1 93.1 28.2-28.2z" fill="#fff"/></symbol><symbol id="status-warning" viewBox="0 0 489 489" preserveAspectRatio="xMidYMid meet"><path fill="currentColor" d="M0 429 240 57l249 372z"/><path d="M250.3 337h-22.9L219 208.2h39z" fill="#000"/><circle cx="238.2" cy="371" r="18" fill="#000"/></symbol><symbol id="suche" viewBox="-360 314.5 148.5 140.5" preserveAspectRatio="xMidYMid meet"><path d="M-246.7 429.1c-1.3 0-2.4-.5-3.3-1.4l-22.9-23.2c-5.4 4.6-12.2 7.1-19.4 7.1-16.7 0-30.3-13.7-30.3-30.6 0-16.9 13.6-30.6 30.3-30.6S-262 364.2-262 381c0 5.9-1.6 11.5-4.7 16.4l23.3 23.6c.9.9 1.4 2.1 1.4 3.3 0 1.3-.5 2.5-1.4 3.3-.9 1-2 1.5-3.3 1.5zm-45.5-69.2c-11.5 0-20.9 9.5-20.9 21.1 0 11.7 9.4 21.1 20.9 21.1 11.5 0 20.9-9.5 20.9-21.1-.1-11.6-9.4-21.1-20.9-21.1z"/><path d="M-246.7 429.1c-1.3 0-2.4-.5-3.3-1.4l-22.9-23.2c-5.4 4.6-12.2 7.1-19.4 7.1-16.7 0-30.3-13.7-30.3-30.6 0-16.9 13.6-30.6 30.3-30.6S-262 364.2-262 381c0 5.9-1.6 11.5-4.7 16.4l23.3 23.6c.9.9 1.4 2.1 1.4 3.3 0 1.3-.5 2.5-1.4 3.3-.9 1-2 1.5-3.3 1.5zm-45.5-69.2c-11.5 0-20.9 9.5-20.9 21.1 0 11.7 9.4 21.1 20.9 21.1 11.5 0 20.9-9.5 20.9-21.1-.1-11.6-9.4-21.1-20.9-21.1z"/></symbol><symbol id="taglabel" viewBox="0 0 23 20" preserveAspectRatio="xMidYMid meet"><path d="M10.6 1.3H3v7.8l9.4 9.7 7.7-7.8-9.5-9.7zM9.3 7.5c-.8.8-2.2.8-3 0s-.8-2.2 0-3 2.2-.8 3 0c.9.8.9 2.2 0 3z"/></symbol><symbol id="teilen-button" viewBox="0 0 30 30" preserveAspectRatio="xMidYMid meet"><path d="M0 0v30h30V0H0zm15.3 17.3 3.7 2.4c.3.2.7.3 1.1.1.3-.1.5-.2.8-.2 1.6-.1 3 1 3.2 2.7.1 1.6-1 3-2.7 3.2-1.6.1-3-1-3.2-2.7 0-.4-.2-.8-.6-1L13.4 19c-.4-.3-.9-.3-1.3 0-.6.4-1.3.5-2 .5-2.3 0-4.1-1.9-4.1-4.2 0-2.3 1.8-4.2 4.1-4.2.7 0 1.4.2 2 .5.4.2.9.2 1.3 0l4.2-2.8c.3-.2.5-.6.6-1 .1-1.6 1.4-2.9 3-2.8 1.6 0 2.9 1.4 2.8 3 0 .4-.1.8-.2 1.1-.6 1.5-2.3 2.3-3.8 1.7-.4-.1-.8-.1-1.1.1l-3.7 2.4c-.6.4-1 1.2-1 1.9 0 .9.4 1.7 1.1 2.1z"/></symbol><symbol id="ticket" viewBox="11.835 6.079 25.895 25.896" preserveAspectRatio="xMidYMid meet"><g><path d="M21.605 8.079 35.73 22.204l-1.783 1.782s-.413-.162-1.014-.162c-.656 0-1.535.193-2.346 1.005-1.552 1.552-.857 3.364-.847 3.364l-1.782 1.781L13.834 15.85l1.782-2.057s.558.294 1.318.294c.61 0 1.351-.19 2.039-.873 1.544-1.534.849-3.26.849-3.26l1.783-1.875m0-2h-.025a2.002 2.002 0 0 0-1.424.621l-1.783 1.875c-.57.599-.771 1.355-.419 2.098.053.2.091.645-.39 1.122-.259.257-.463.291-.629.291-.187 0-.384-.063-.385-.063a1.999 1.999 0 0 0-2.444.459l-1.782 2.057a2 2 0 0 0 .097 2.724l14.125 14.125a2 2 0 0 0 2.828 0l1.782-1.783a1.996 1.996 0 0 0 .451-2.133c-.049-.186-.125-.711.396-1.229.286-.286.582-.421.931-.421.145 0 .258.025.307.037.246.111.494.164.738.164.504 0 .985-.226 1.383-.623l1.783-1.783a2 2 0 0 0 0-2.828L23.019 6.665a2 2 0 0 0-1.414-.586z"/><path d="M20.089 15.556a1.122 1.122 0 1 0 2.243 0 1.122 1.122 0 0 0-2.243 0zm-2.244 2.249a1.122 1.122 0 1 0 2.245.001 1.122 1.122 0 0 0-2.245-.001zm4.487-4.493a1.122 1.122 0 1 0 2.243 0 1.122 1.122 0 0 0-2.243 0z"/></g></symbol><symbol id="tickets" viewBox="0 0 50 36" preserveAspectRatio="xMidYMid meet"><g><path d="M21.605 8.079 35.73 22.204l-1.783 1.783s-.413-.163-1.014-.163c-.655 0-1.534.194-2.345 1.005-1.552 1.552-.858 3.364-.847 3.364l-1.782 1.782L13.834 15.85l1.782-2.057s.558.294 1.318.294c.61 0 1.351-.19 2.039-.873 1.544-1.534.849-3.26.849-3.26l1.783-1.875m0-2h-.025a2.002 2.002 0 0 0-1.424.621l-1.783 1.875c-.57.599-.771 1.355-.419 2.098.053.2.091.645-.39 1.122-.259.257-.463.291-.629.291-.187 0-.384-.063-.385-.063a1.999 1.999 0 0 0-2.444.459l-1.782 2.057a2 2 0 0 0 .097 2.724l14.125 14.125a2 2 0 0 0 2.828 0l1.782-1.782a2 2 0 0 0 .452-2.134c-.049-.185-.125-.71.395-1.229.286-.286.582-.42.931-.42.144 0 .257.024.306.036.246.111.495.164.738.164.504 0 .986-.225 1.384-.623l1.783-1.783a2 2 0 0 0 0-2.828L23.019 6.665a2 2 0 0 0-1.414-.586z"/><path d="M20.089 15.556a1.122 1.122 0 1 0 2.243 0 1.122 1.122 0 0 0-2.243 0zm-2.244 2.249a1.122 1.122 0 1 0 2.243 0 1.122 1.122 0 0 0-2.243 0zm4.487-4.493a1.122 1.122 0 1 0 2.243 0 1.122 1.122 0 0 0-2.243 0zm0 0"/></g></symbol><symbol id="time-slider" viewBox="0 0 44 44" preserveAspectRatio="xMidYMid meet"><path d="M38.024 8.881H6.059c-.562 0-1.017.448-1.017 1v16c0 .552.456 1 1.017 1h10.745l5.237 8.237 5.237-8.237h10.745c.562 0 1.017-.448 1.017-1v-16c.002-.552-.454-1-1.016-1z"/></symbol><symbol id="top-news" viewBox="0 0 24 24" preserveAspectRatio="xMidYMid meet"><path d="M3 10v3a2 2 0 0 0 2 2v4.5a1.5 1.5 0 0 0 3 0V8H5a2 2 0 0 0-2 2Zm11.92-5.93A1.48 1.48 0 0 0 14.5 4a1.5 1.5 0 0 0-1.39.94s-.23.45-.34.63A5 5 0 0 1 9 8v7.1a5 5 0 0 1 4 2.84l.06.13a2.76 2.76 0 0 0 .14.25 1.44 1.44 0 0 0 1.7.66A1.49 1.49 0 0 0 16 17.5v-12a1.49 1.49 0 0 0-1.08-1.43Zm6.51 6.39h-2.34a.59.59 0 0 0-.59.58.6.6 0 0 0 .59.59h2.34A.59.59 0 0 0 22 11a.58.58 0 0 0-.57-.54ZM19 8.43l1.65-1.66a.58.58 0 1 0-.8-.77l-1.66 1.6a.59.59 0 1 0 .83.83Zm0 5.22a.59.59 0 0 0-.83.83l1.66 1.65a.58.58 0 0 0 .82-.82Z"/></symbol><symbol id="traffic-arrow-double" viewBox="0 1.036 30 16" preserveAspectRatio="xMidYMid meet"><path d="M7.166 6.748H29.11l-4.496-4.522M7.144 6.755h21.943l-4.496 4.521m-1.757-.09H.89l4.496 4.522m17.47-4.529H.913l4.496-4.521" stroke="#000" stroke-width="1.5" stroke-linejoin="round" stroke-miterlimit="10"/></symbol><symbol id="traffic-arrow-single" viewBox="0 0 23 11" preserveAspectRatio="xMidYMid meet"><path d="M.032 5.497h21.944L17.48.975M.01 5.503h21.943l-4.496 4.522" stroke="#000" stroke-width="1.5" stroke-linejoin="round" stroke-miterlimit="10"/></symbol><symbol id="tv-sendung" viewBox="-360 314.5 148.5 140.5" preserveAspectRatio="xMidYMid meet"><path d="M-310.8 426.8c5 5.8 13.9 9.7 24 9.7s19-3.9 24-9.7h-48zm74.8-69.7c0-2.9-2.4-5.3-5.3-5.3h-90.5c-2.9 0-5.3 2.4-5.3 5.3v57.1c0 2.9 2.4 5.3 5.3 5.3h90.5c2.9 0 5.3-2.4 5.3-5.3v-57.1zm-7.4 55.2h-86.4v-53.2h86.4v53.2z"/><path d="M-297.6 376.5v21.6h-5.1v-21.6h-6.8v-4.6h18.8v4.6h-6.9zm25 21.6h-3.8l-8.6-26.2h5.3l5.3 17.1 5.3-17.1h5.3l-8.8 26.2z" stroke="#989899" stroke-width=".5" stroke-miterlimit="10"/></symbol><symbol id="tvprogramm" viewBox="0 0 50 36" preserveAspectRatio="xMidYMid meet"><path d="M37.209 8.822v22.401H12.771V8.822h3.055V9.84c0 1.123.913 2.036 2.036 2.036s2.036-.913 2.036-2.036V8.822H30.08V9.84c0 1.123.913 2.036 2.036 2.036a2.038 2.038 0 0 0 2.036-2.036V8.822h3.057zm-2.037 6.11H14.808v14.255h20.365l-.001-14.255zm-2.036-7.128a1.018 1.018 0 1 0-2.036 0V9.84a1.018 1.018 0 1 0 2.036 0V7.804zM18.881 9.841a1.018 1.018 0 1 1-2.036 0V7.804a1.018 1.018 0 1 1 2.036 0v2.037z"/><path d="M21.971 19.884v6.029h-1.426v-6.029h-1.907v-1.271h5.24v1.271h-1.907zm6.952 6.029h-1.066l-2.409-7.301h1.477l1.466 4.758 1.467-4.758h1.486l-2.421 7.301z"/></symbol><symbol id="twitter-doppelpfeil" viewBox="0 0 18.8 10" preserveAspectRatio="xMidYMid meet"><path d="M5.3 5.3h3.5L4.6 0 .1 5.3h3.6V10h6.7V8.4H5.3zm10-.6V0H8.5v1.7h5.1v3h-3.5l4.2 5.3 4.5-5.3z"/></symbol><symbol id="twitter-herz" viewBox="0 0 18.8 10" preserveAspectRatio="xMidYMid meet"><path d="M9.5 1.6c-.8-2.4-5-2.1-5 1.6 0 1.8 1.3 4.3 5 6.8 3.8-2.5 5-5 5-6.8.1-3.6-4.1-4-5-1.6z"/></symbol><symbol id="twitter-links" viewBox="0 0 18.8 10" preserveAspectRatio="xMidYMid meet"><path d="M12.8 3.9H8.7V0L2.6 4.9 8.7 10V5.8h4.1c.1 0 1.8.4 1.8 4.2h1.9c-.1-5.8-3.6-6.1-3.7-6.1z"/></symbol><symbol id="twitter-stern" viewBox="0 0 13.9 13.6" preserveAspectRatio="xMidYMid meet"><path d="m4.8 5.3 2-5.3L9 5.3h4.9l-3.8 3.4 1.5 4.9-4.7-3-4.4 3L4 8.7.1 5.3z"/></symbol><symbol id="twitter" viewBox="0 0 88 88" preserveAspectRatio="xMidYMid meet"><path d="M0 0v88h88V0H0zm66.9 32.1v1.5c0 15.4-11.5 33.1-32.5 33.1-6.4 0-12.5-1.9-17.5-5.2.9.1 1.8.2 2.7.2 5.3 0 10.3-1.9 14.2-5-5-.1-9.2-3.5-10.7-8.1.7.1 1.4.2 2.1.2 1 0 2-.1 2.9-.4C23 47.3 19 42.6 19 37v-.1c2 .9 3.4 1.4 5.3 1.5-3.1-2.1-5-5.6-5-9.7 0-2.1.6-4.1 1.6-5.8 5.6 7 14.1 11.7 23.5 12.1-.2-.8-.3-1.7-.3-2.6 0-6.4 5.1-11.6 11.4-11.6 3.3 0 6.3 1.4 8.3 3.7 2.6-.5 5-1.5 7.3-2.8-.9 2.7-2.7 5-5 6.4 2.3-.3 4.5-.9 6.6-1.8-1.6 2.1-3.6 4.2-5.8 5.8z" display="inline"/></symbol><symbol id="unwetterwarnungen" viewBox="-360 314.5 148.5 140.5" preserveAspectRatio="xMidYMid meet"><path d="m-212.4 393.1-42.8-74.9c-1.3-2.2-3.7-3.6-6.2-3.6-2.6 0-4.9 1.4-6.2 3.6l-28.5 49.6c-.3 0-.6 0-.9.1-1.2-3.6-3.1-6.8-5.7-9.6-3.6-3.7-10.1-8.3-21.3-8.5h-.9c-10.8 0-20.4 4.9-26.8 13.7-5.1 7-8.1 16.2-8.1 25.1 0 8.6 4.5 20.2 14.2 27.6-.2 1.8-.2 2.5-.2 2.8 0 2.9 2.1 7.3 7.8 7.4-1.4 5.6-3.5 12.9-5.3 19.5-1 3.4.7 7 3.9 8.5 1 .4 2 .6 3 .6 2.4 0 4.7-1.2 6-3.3.1-.2 10.5-16.4 17.8-28.3 3.2.1 6.6.2 9.7.2 8.2 0 17.6-.5 25-4 6.7-3.2 11.1-8.4 13.1-15.5l46.2-.3c2.6 0 4.9-1.4 6.2-3.6 1.2-2.2 1.2-4.9 0-7.1z" fill="#FFFFFF"/><path fill="currentColor" d="M-312.2 407.3c-.2 0-.4-.1-.7-.1-2.8 0-10 1.8-11.1 1.8h-.1c.7-2.2 7.1-16.6 5.9-16.7-1.6-.2-5.3-.3-8.7-.3-2.5 0-4.9.1-6.3.3-1.5.2-5.7 23.8-5.7 26.9 0 .1.3.2.8.2 2.5 0 8.1-1.3 8.9-1.5 1.1 0-7.5 30.1-7.5 30.1s25.7-40.4 24.5-40.7z"/><path fill="currentColor" d="M-294.6 374.7c-3.5 0-6.7.6-8.8 1.6.2-8.3-5.2-19.2-21.3-19.6h-.7c-19.1 0-27.7 18.2-27.7 31.7 0 6.4 3.3 14.6 9.7 20.5.4-2.2.8-4.3 1-5.5.1-.7.3-1.6.5-2.5-3.2-4.2-4.7-9.1-4.7-12.5 0-9.7 5.8-25.2 21.2-25.2h.6c5.2.1 9.1 1.6 11.7 4.3 3 3.2 3.2 7.1 3.2 8.6-.1 2.3 1.1 4.4 3 5.7 1.1.7 2.3 1.1 3.6 1.1.9 0 1.9-.2 2.8-.6 1-.5 3.1-1 6.1-1 1.7 0 16.6.3 16.8 12.3.1 5.2-.9 8.9-3.2 11.2-4.2 4.3-13.7 4.9-22.4 4.9h-3.4c-.6 1.6-1.7 3.6-3.4 6.5 2.3.1 4.6.1 6.8.1 18.1 0 32.6-2.7 32.2-22.8-.4-13.9-13.4-18.8-23.6-18.8z"/><path d="M-220.9 392.6c-.6-1.1-6.9-12.1-14.3-24.9-10.6-18.4-23.8-41.4-24.6-42.8-.5-.9-1.2-1.4-1.8-1.4-.7 0-1.4.5-1.9 1.4-.8 1.2-14.4 25.2-25.3 44.5 2.4.4 4.8 1 7 1.8l20.2-35.6 30.8 54.2h-34.8c.2 1.1.3 2.3.3 3.6 0 1.1 0 2.2-.1 3.3 20-.1 41.1-.1 42.8-.2.7 0 1.6-.2 2-.9.4-.9.3-1.9-.3-3z" fill="#CB1C17"/><path d="M-261.7 386.4c-2.3 0-4.2-1.9-4.2-4.1 0-2.3 1.8-4.1 4.2-4.1 2.3 0 4.1 1.9 4.1 4.1 0 2.2-1.9 4.1-4.1 4.1zm2.4-14.5c-.1.9-.3 1-1 1h-2.8c-.7 0-.9 0-1-1l-1.1-19.1v-1c0-.6.5-.6.9-.6h5.2c.4 0 1 0 1 .6v1l-1.2 19.1z" fill="#060606"/><path d="M-294.6 374.7c-3.5 0-6.7.6-8.8 1.6.2-8.3-5.2-19.2-21.3-19.6h-.7c-19.1 0-27.7 18.2-27.7 31.7 0 6.4 3.3 14.6 9.7 20.5.4-2.2.8-4.3 1-5.5.5-2.5 1.2-6 2-8.9.9-3.4 2-7.6 6.4-8.1 1.6-.2 4-.3 7.1-.3 3.6 0 7.5.1 9.4.4 1.9.2 3.5 1.3 4.5 2.9 1.5 2.6 1.2 4.8-1.8 12.2.7-.1 1.4-.1 2-.1.8 0 1.5.1 2.1.2 1.8.4 3.4 1.8 4.1 3.5 1.2 2.9.1 5-3.4 11 2.3.1 4.6.1 6.8.1 18.1 0 32.6-2.7 32.2-22.8-.4-13.9-13.4-18.8-23.6-18.8z"/></symbol><symbol id="upload" viewBox="0 0 23 20" preserveAspectRatio="xMidYMid meet"><path d="M11.492 3.083 6.054 8.527l.016.035h3.678v5.533h3.649V8.562h3.548zm-6.415 11.65h12.846v2.184H5.077z"/></symbol><symbol id="verkehr-ds" viewBox="0 0 30.4 28.1" preserveAspectRatio="xMidYMid meet"><style type="text/css">.st0{fill:#020203}</style><path class="st0" d="M28.2 12.3c-.2-.6-.8-1.1-1.5-1.1H15.2c-.7 0-1.3.4-1.5 1.1l-2.1 6.2v3.3l1 4v.6c0 .9.7 1.6 1.6 1.6.9 0 1.6-.7 1.6-1.6 0-.3.2-.5.5-.5h9.4c.3 0 .5.2.5.5 0 .9.7 1.6 1.6 1.6.9 0 1.6-.7 1.6-1.6v-.6l1-4v-3.3l-2.2-6.2zm-14.6 6.2 1.9-4.9c.1-.2.3-.3.5-.3h10c.2 0 .4.1.5.3l1.9 4.9v3.3l-.5 1.7c-.1.2-.3.4-.5.4H14.7c-.2 0-.4-.2-.5-.4l-.5-1.7v-3.1c-.1-.1-.1-.2-.1-.2z"/><path class="st0" d="M18.4 21.7H16c-.2 0-.3-.1-.3-.3V20c0-.2.1-.3.3-.3h2.4c.2 0 .3.1.3.3v1.4c0 .2-.2.3-.3.3zm7.6 0h-2.4c-.2 0-.3-.1-.3-.3V20c0-.2.1-.3.3-.3H26c.2 0 .3.1.3.3v1.4c0 .2-.1.3-.3.3zm-19 0H4.6c-.2 0-.3-.1-.3-.3V20c0-.2.1-.3.3-.3H7c.2 0 .3.1.3.3v1.4c0 .2-.1.3-.3.3zM8.7 5.5v4.2H3.8c0 .1.8-3.8 4.9-4.2zm6.4 4.3h-4.9V5.6c4.1.5 4.9 4.2 4.9 4.2z"/><path class="st0" d="M18.6 9.1s-1.5-7.2-9.3-7.2C1.8 1.9 0 8.1 0 9.1v13.1c0 2 1.4 3.6 3.4 3.6H5v1.4c0 .5.3.8.7.8.4 0 .8-.3.8-.8v-1.3h4.1l-.4-2H4.4c-.7 0-1.4-.5-1.6-.8-.4-.5-.5-.8-.5-1.4V9.1s1.1-5.2 7-5.2c5.5 0 7.1 4 7.3 4.8 0 0 .1.3.1.4 0 .2 0 .4.1.7h2c-.1-.4-.2-.7-.2-.7z"/></symbol><symbol id="verkehr" viewBox="0 0 148.5 140.5" preserveAspectRatio="xMidYMid meet"><style type="text/css">.st0{fill:#010101}</style><path class="st0" d="M85.7 95.1h-5.5c-2.2 0-3.9-1.8-3.9-3.9s1.8-3.9 3.9-3.9h5.5c2.2 0 3.9 1.8 3.9 3.9s-1.7 3.9-3.9 3.9zm28.8 0H109c-2.2 0-3.9-1.8-3.9-3.9s1.8-3.9 3.9-3.9h5.5c2.2 0 3.9 1.8 3.9 3.9s-1.7 3.9-3.9 3.9zm-72 0H37c-2.2 0-3.9-1.8-3.9-3.9s1.8-3.9 3.9-3.9h5.5c2.2 0 3.9 1.8 3.9 3.9s-1.8 3.9-3.9 3.9z"/><path class="st0" d="m134.7 79.6-7.9-20.7c-1.1-3-4.1-5-7.3-5H76.7c-3.2 0-6.1 1.9-7.3 5l-8.5 21.8c-.4.9-.5 1.9-.5 2.9V94c0 .6.1 1.2.2 1.8l2.5 10.4c.7 3.1 3.2 5.3 6.2 5.9v8.1c0 1.5 1.2 2.7 2.7 2.7h6.7c1.5 0 2.7-1.2 2.7-2.7v-8H113v8.2c0 1.5 1.2 2.7 2.7 2.7h6.7c1.5 0 2.7-1.2 2.7-2.7V112c3.1-.3 5.7-2.4 6.6-5.4l3.1-10.3c.2-.7.3-1.5.3-2.2V82.4c.1-1 0-1.9-.4-2.8zm-10.1 25.8-53.7.1L67.4 94V83.5l8.2-22.8H120l8.2 21.7v11.9l-3.6 11.1z"/><path class="st0" d="M60.4 17.3H46.1c-15.6 0-28.2 12.5-28.2 27.9v49.7c0 8.2 6.1 15 14.1 16.3v9.1c0 1.5 1.2 2.7 2.7 2.7h3.4c1.5 0 2.7-1.2 2.7-2.7v-8.9h13.5v-6.9H34.6c-4.9 0-10.4-4.5-10.4-9.3l.1-49.9c0-11 10.8-21.7 22.1-21.7h14.2c12.4 0 23.7 11.5 23.7 23.7h6.5c0-16.6-13.7-30-30.4-30z"/><path class="st0" d="M58 46.7h16.8s-1.4-14.6-13.6-14.6H58v14.6zm-8.5-14.6h-3.3c-12.9 0-13.6 14.6-13.6 14.6h16.8V32.1z"/></symbol><symbol id="video" viewBox="0 0 23 20" preserveAspectRatio="xMidYMid meet"><path d="m22.8 4.3-6.3 3.9v3.4l6.3 3.8zm-8.6.4h-13c-.6 0-1 .4-1 .9v9.2c0 .5.4.9 1 .9h13c.6 0 1-.4 1-.9V5.6c0-.5-.5-.9-1-.9zm-1.1 4.1H2V7h11.1v1.8z"/></symbol><symbol id="videopodcast-ds" viewBox="0 0 32 32" preserveAspectRatio="xMidYMid meet"><style type="text/css">.st0{fill:#020203}</style><path class="st0" d="m21.3 15.7-7.9-4.4c-.4-.3-.9.1-.9.5v8.9c0 .4.5.8.9.5l7.9-4.6c.5 0 .5-.6 0-.9z"/><path class="st0" d="M16 3C8.8 3 3 8.8 3 16s5.8 13 13 13 13-5.8 13-13S23.2 3 16 3zm-.1 23.9C9.9 26.9 5.1 22 5.1 16S9.9 5.1 15.9 5.1 26.8 10 26.8 16s-4.9 10.9-10.9 10.9z"/></symbol><symbol id="videopodcast" viewBox="0 0 24.24 24.23" preserveAspectRatio="xMidYMid meet"><path d="M12.13 0a12.12 12.12 0 1 0 12.11 12.11A12.12 12.12 0 0 0 12.13 0Zm0 22.72a10.61 10.61 0 1 1 10.6-10.61 10.61 10.61 0 0 1-10.6 10.61Z"/><path d="m16.5 11.83-6.09-3.65c-.34-.2-.62 0-.62.36v7.14c0 .4.28.56.63.37l6.08-3.49a.39.39 0 0 0 0-.73Z"/></symbol><symbol id="videos" viewBox="0 0 50 36" preserveAspectRatio="xMidYMid meet"><path d="M38.372 15.617v6.706l-3.789-2.334v-2.038l3.789-2.334m2-3.581-7.789 4.798v4.272l7.789 4.798V12.036zM28.193 26.871h-16.31c-1.243 0-2.255-.965-2.255-2.15V13.219c0-1.186 1.012-2.15 2.255-2.15h16.31c1.243 0 2.254.965 2.254 2.15V24.72c0 1.186-1.011 2.151-2.254 2.151zm-16.31-13.802c-.153 0-.255.091-.255.15V24.72c0 .06.102.15.255.15h16.31c.153 0 .254-.091.254-.15V13.219c0-.06-.102-.15-.254-.15h-16.31z"/><path d="M24.739 17.436h-9.402a1 1 0 1 1 0-2h9.402a1 1 0 1 1 0 2z"/></symbol><symbol id="voice" viewBox="0 0 49 49" preserveAspectRatio="xMidYMid meet"><style>.st0{fill:#020203}</style><path d="M6.1 13.9v29.3H36c.3 0 7.6-.1 7.6-7.6V6.3H13.7c-.3 0-7.6 0-7.6 7.6zm29.4 22.5c0 1.1-.4 2-1.1 2.6-.7.6-1.6 1-2.6 1s-1.9-.3-2.6-1c-.7-.6-1.1-1.5-1.1-2.6v-5.1c0-1.1.4-2 1.1-2.6.7-.6 1.6-1 2.6-1s1.9.3 2.6 1c.7.6 1.1 1.5 1.1 2.6v5.1zM33 20.7c-.3-.2-.6-.4-1.2-.4l-.9-.1-.9-.1c-1.1-.1-2-.4-2.6-.9-.6-.5-.9-1.3-.9-2.3 0-1.1.4-2 1.3-2.6.8-.6 1.9-1 3.1-1 .9 0 1.7.1 2.4.3.7.2 1.4.5 1.9 1l-1.5 1.5c-.4-.3-.8-.5-1.3-.6-.5-.1-1-.2-1.6-.2-.7 0-1.2.1-1.6.4-.4.3-.6.6-.6 1.1 0 .4.1.7.4.9s.7.4 1.2.4l.9.1.9.1c1.1.1 2 .4 2.6 1 .6.5.9 1.3.9 2.3 0 1.2-.4 2.1-1.3 2.7-.9.6-2.1 1-3.5 1-1 0-2-.1-2.7-.4-.8-.2-1.5-.7-2.2-1.3l1.5-1.5c.4.4.9.8 1.5.9s1.2.3 1.8.3c.8 0 1.4-.1 1.8-.4.5-.3.7-.7.7-1.2.2-.5.1-.8-.1-1zm-6.7 10.6v5.1c0 1.1-.4 2-1.1 2.6-.7.6-1.6 1-2.6 1s-1.9-.3-2.6-1c-.7-.6-1.1-1.5-1.1-2.6v-5.1c0-1.1.4-2 1.1-2.6.7-.6 1.6-1 2.6-1s1.9.3 2.6 1c.7.6 1.1 1.5 1.1 2.6zM14 8.7h2.3v5.9c.8-.9 1.8-1.3 3-1.3 1.3 0 2.3.4 3 1.2.7.8 1.1 1.8 1.1 3.1v7.5H21V18c0-.8-.2-1.5-.7-1.9-.4-.4-1-.6-1.7-.6s-1.3.2-1.7.6c-.4.4-.7 1.1-.7 1.9v7.2H14V8.7zm2.2 19.1v12.1H14v-9.7l-2.5 2.1V30l2.5-2.1h2.2z" class="st0"/><path d="M31.9 29.7c-.4 0-.8.2-1.1.5-.3.3-.4.7-.4 1.2v5c0 .5.1.9.4 1.2.3.3.6.4 1.1.4s.8-.1 1.1-.4.4-.7.4-1.2v-5c0-.5-.1-.9-.4-1.2-.3-.3-.7-.5-1.1-.5zm-10.3.5c-.3.3-.4.7-.4 1.2v5c0 .5.1.9.4 1.2.3.3.6.4 1.1.4s.8-.1 1.1-.4.4-.7.4-1.2v-5c0-.5-.1-.9-.4-1.2-.3-.3-.6-.5-1.1-.5s-.9.2-1.1.5z" class="st0"/><path d="M0 0v49h49V0H0zm45.6 35.5c0 7.6-6.3 9.6-9.6 9.6H4.1V13.9c0-7.6 6.3-9.6 9.6-9.6h31.9v31.2z" class="st0"/></symbol><symbol id="vote-heart" viewBox="0 0 36 34" preserveAspectRatio="xMidYMid meet"><path d="M9.422 0C4.647 0 0 3.38 0 9.57 0 16.773 8.357 24.139 18 34c9.645-9.861 18-17.227 18-24.43C36 3.371 31.355.016 26.591.016c-3.305 0-6.67 1.612-8.59 5.004C16.073 1.61 12.715 0 9.422 0z" fill="#FFFFFF"/><path d="m17.999 31.079-2.21-2.229C8.391 21.402 2 14.969 2 9.569c0-2.304.754-4.167 2.241-5.537C5.585 2.798 7.473 2.09 9.421 2.09c1.382 0 4.818.389 6.857 3.993L18 9.127l1.723-3.044c1.405-2.49 3.973-3.977 6.867-3.977 3.682 0 7.41 2.564 7.41 7.463 0 5.399-6.391 11.833-13.79 19.285l-2.211 2.225z" fill="#c20016"/><path d="m18 28.241-.791-.798C10.121 20.309 4 14.145 4 9.569c0-1.723.537-3.09 1.595-4.065.979-.898 2.373-1.414 3.827-1.414 1.032 0 3.596.29 5.116 2.978L18 13.189l3.465-6.121c1.047-1.854 2.963-2.961 5.126-2.961C29.283 4.106 32 5.795 32 9.569c0 4.575-6.121 10.738-13.216 17.882l-.784.79z"/></symbol><symbol id="wetter-ds" viewBox="0 0 32 32" preserveAspectRatio="xMidYMid meet"><path d="M19.4 8.1c-3.7 0-6.7 2.7-7.3 6.2-.6.3-1.2.8-1.8 1.3-1-.6-2.2-.9-3.4-.9-3.8 0-6.8 3.1-6.8 6.8 0 3.6 3.7 6.2 6.5 6.8 3.3.7 11 1 14.5.1 1.8-.5 5.1-2.4 5.1-5.3 0-1.1-.3-2.1-.9-2.9 1-1.3 1.6-2.8 1.6-4.6 0-4.2-3.4-7.5-7.5-7.5zm-.5 18.7c-2.7.5-8.1.3-10.7-.3-.7-.2-5.9-1.3-5.9-5.1s3.2-5.2 5.1-4.9c1.5.3 2.5.9 3.2 1.3.4-.4.8-.8 1.4-1.2.6-.4 1.2-.7 1.9-.9.3-.1.5-.1.8-.1 3.4-.1 4.7 2.2 5.4 3.9.8.1 1.7.3 2.4.6.6.3 1.1.7 1.4 1.3.2.3.2.7.3 1.1 0 2.2-2.1 3.8-5.3 4.3zm5-8.1c-.7-.5-1.6-.9-2.6-1-1-2.5-3.4-4.2-6.2-4.2-.3 0-.6 0-.9.1.8-2.1 2.8-3.6 5.2-3.6 3.1 0 5.5 2.5 5.5 5.5.1 1.2-.3 2.3-1 3.2zm4.1-.5c-.3-.1-.7.2-1 .6-.2.5-.2 1 .1 1.1l2.8 1.4c.3.1.7-.2 1-.6.2-.5.2-1-.1-1.1L28 18.2zm3.9-6.1c-.1-.5-.5-.9-.8-.9l-3 .7c-.3.1-.5.6-.3 1.1s.5.9.8.9l3-.7c.2-.1.4-.6.3-1.1zM16.7 7.5c.5-.2.9-.5.8-.8l-1-3c-.1-.3-.6-.4-1.1-.2s-.9.5-.8.8l1 3c.1.3.6.4 1.1.2z"/><path d="M11.3 11.7c.3.2.7-.1 1-.6s.3-1 0-1.2L9.6 8.3c-.3-.2-.7.1-1 .6s-.3 1 0 1.2l2.7 1.6zm14.4-7.3c-.5-.3-1-.3-1.2 0l-1.6 2.7c-.2.3.1.7.6 1s1 .3 1.2 0l1.6-2.7c.1-.3-.2-.7-.6-1z"/></symbol><symbol id="wetter" viewBox="-360 314.5 148.5 140.5" preserveAspectRatio="xMidYMid meet"><path fill="currentColor" d="M-260.6 353.4c0 1.5-1.9 2.8-3.5 2.8s-3.5-1.3-3.5-2.8v-18.8c0-1.5 1.9-2.8 3.5-2.8s3.5 1.3 3.5 2.8v18.8zm-21 4.7c1.1 1.1.5 3.5-.7 4.6-1.2 1.2-3.5 1.8-4.6.7l-13.3-13.3c-1.1-1.1-.5-3.5.7-4.6 1.2-1.2 3.5-1.8 4.6-.7l13.3 13.3zm20 52c0-1.5 1.9-2.8 3.5-2.8s3.5 1.3 3.5 2.8v18.8c0 1.5-1.9 2.8-3.5 2.8s-3.5-1.3-3.5-2.8v-18.8zm19.6-8.6c-1.1-1.1-.5-3.5.7-4.6 1.2-1.2 3.5-1.8 4.6-.7l13.3 13.3c1.1 1.1.5 3.5-.7 4.6-1.2 1.2-3.5 1.8-4.6.7l-13.3-13.3zm8.6-19c-1.5 0-2.8-1.9-2.8-3.5s1.3-3.5 2.8-3.5h18.8c1.5 0 2.8 1.9 2.8 3.5s-1.3 3.5-2.8 3.5h-18.8zm-5.4-20.1c-1.1 1.1-3.5.5-4.6-.7-1.2-1.2-1.8-3.5-.7-4.6l13.3-13.3c1.1-1.1 3.5-.5 4.6.7 1.2 1.2 1.8 3.5.7 4.6l-13.3 13.3z"/><path d="M-328.4 361h.7c5.8.1 10.1 1.7 13 4.7 3.4 3.5 3.6 7.9 3.6 9.6-.1 2.5 1.2 4.9 3.3 6.3 1.2.8 2.6 1.2 4 1.2 1 0 2.1-.2 3.1-.7 1.1-.5 3.5-1.1 6.7-1.1 1.9 0 18.5.4 18.8 13.7.1 5.8-1 9.9-3.6 12.4-4.7 4.8-15.3 5.5-24.9 5.5-3.5 0-7-.1-10.8-.2-3.8-.1-7.8-.2-11.8-.2h-1.4c-6.6 0-12.2-2.3-16.7-6.8-5.2-5.2-7.5-12-7.4-16.4-.2-10.8 6.2-28 23.4-28m0-7.3c-21.3 0-30.9 20.3-30.9 35.3 0 12.1 10.7 30.6 31.5 30.6h1.4c7.6 0 15.4.4 22.6.4 20.1 0 36.2-3 35.8-25.3-.3-15.4-14.8-20.9-26-20.9-3.9 0-7.4.7-9.8 1.8.2-9.3-5.8-21.4-23.7-21.8-.3-.1-.6-.1-.9-.1z"/><path fill="currentColor" d="M-263.6 362.1c-5.7 0-10.8 2.2-14.6 5.7 3.9 1.3 12.7 5 15.9 13.4 3.5 9.4 2.1 16.9.4 21.2 10.8-.8 19.4-9.5 19.4-20.1-.1-11.2-9.5-20.2-21.1-20.2z"/></symbol><symbol id="whatsapp-freigestellt" viewBox="0 0 1024 1024" preserveAspectRatio="xMidYMid meet"><path d="M870.9 151C775.7 55.6 649 3.1 514.1 3.1 236.1 3.1 9.8 229.3 9.7 507.4c0 88.9 23.2 175.7 67.3 252.2L5.5 1020.9l267.4-70.1c73.7 40.2 156.6 61.4 241 61.4h.2c278 0 504.3-226.3 504.4-504.4.1-134.8-52.4-261.5-147.6-356.8zM514.1 927h-.2c-75.2 0-149-20.2-213.4-58.4l-15.3-9.1-158.7 41.6L169 746.4l-10-15.9c-42-66.7-64.1-143.9-64.1-223.1C95 276.3 283 88.3 514.3 88.3c112 0 217.2 43.7 296.4 122.9 79.1 79.2 122.7 184.6 122.7 296.6C933.2 738.9 745.2 927 514.1 927zm230-314c-12.6-6.3-74.6-36.8-86.1-41-11.6-4.2-20-6.3-28.4 6.3-8.4 12.6-32.6 41-39.9 49.4-7.3 8.4-14.7 9.5-27.3 3.2-12.6-6.3-53.2-19.6-101.3-62.6-37.5-33.4-62.8-74.7-70.1-87.3-7.4-12.6-.8-19.4 5.5-25.7 5.7-5.6 12.6-14.7 18.9-22.1 6.3-7.4 8.4-12.6 12.6-21 4.2-8.4 2.1-15.8-1.1-22.1-3.2-6.3-28.4-68.3-38.9-93.6-10.2-24.6-20.6-21.2-28.4-21.6-7.3-.4-15.8-.4-24.2-.4-8.4 0-22.1 3.2-33.6 15.8-11.6 12.6-44.1 43.1-44.1 105.1 0 62 45.2 122 51.5 130.4 6.3 8.4 88.9 135.7 215.3 190.3 30.1 13 53.5 20.7 71.8 26.5 30.2 9.6 57.7 8.2 79.4 5 24.2-3.6 74.6-30.5 85.1-59.9s10.5-54.7 7.3-59.9c-3-5.3-11.4-8.5-24-14.8z" fill-rule="evenodd" clip-rule="evenodd"/></symbol><symbol id="whatsapp" viewBox="0 0 88 88" preserveAspectRatio="xMidYMid meet"><g display="inline"><path d="M61.5 26.8c-1.1-1.1-2.3-2.1-3.5-2.9-1.3-.9-2.6-1.6-4.1-2.2-1.4-.6-2.9-1.1-4.5-1.4-1.6-.3-3.2-.5-4.8-.5-1.6 0-3.2.2-4.8.5-1.5.3-3 .8-4.5 1.4-1.4.6-2.8 1.3-4.1 2.2-1.3.9-2.5 1.8-3.5 2.9-1.1 1.1-2.1 2.3-2.9 3.5-.9 1.3-1.6 2.6-2.2 4.1-.6 1.4-1.1 2.9-1.4 4.5-.3 1.6-.5 3.2-.5 4.8 0 2.3.3 4.5.9 6.7.6 2.1 1.5 4.1 2.6 5.9l1.3 2.2-.8 2.4-1.9 5.2 5.9-1.9 2.2-.7 2 1.1c1.7 1 3.6 1.7 5.5 2.2 2 .5 4 .8 6.1.8 1.6 0 3.2-.2 4.8-.5 1.5-.3 3-.8 4.5-1.4 1.4-.6 2.8-1.3 4.1-2.2 1.3-.9 2.5-1.8 3.5-2.9s2.1-2.3 2.9-3.5c.9-1.3 1.6-2.6 2.2-4.1.6-1.4 1.1-2.9 1.4-4.5.3-1.6.5-3.2.5-4.8 0-1.6-.2-3.2-.5-4.8-.3-1.5-.8-3-1.4-4.5-.6-1.4-1.3-2.8-2.2-4.1-.7-1.2-1.7-2.4-2.8-3.5zm-1.8 25.3c-.1.7-.3 2.4-.8 3-.6.7-1.5 1.6-2.5 2.1s-2.3 1.1-3.3 1.1-2.7.3-8-2.4c-4.5-2.3-6.4-4.1-8.1-5.9s-7.4-9-7-13.8 3.3-6.4 4-6.6c.7-.2 2.9 0 2.9 0 .5.2.6.2.8.7s2.1 5.6 2.3 6.1.5 1 0 1.6c-.7.8-1.4 1.8-1.8 2.1-.4.3-.7.7-.7 1s.9 2.9 4.1 6.1c3.2 3.3 6.3 4.2 6.8 4.1s2.9-2.8 3.2-3.2c.3-.4.8-.7 1.4-.4s5.6 2.8 6.2 3.2c.6.3.6.5.5 1.2z"/><path d="M0 0v88h88V0H0zm44.6 73.4c-5.2 0-10.2-1.4-14.5-3.7L13.8 75l5.5-15.6c-2.8-4.6-4.5-9.9-4.5-15.7 0-16.4 13.3-29.8 29.8-29.8s29.8 13.3 29.8 29.8c0 16.4-13.3 29.7-29.8 29.7z"/></g></symbol><symbol id="xing" viewBox="0 0 88 88" preserveAspectRatio="xMidYMid meet"><path d="M0 0v88h88V0H0zm27.238 59H16.714c-.634 0-1.107-.13-1.375-.563-.277-.45-.292-.956 0-1.537L26.52 37.207c.012-.022.012-.017 0-.04l-7.116-12.308c-.294-.586-.337-.958-.06-1.407.269-.437.802-.452 1.436-.452h10.524c1.614 0 2.406.838 2.93 1.771 0 0 7.192 12.446 7.235 12.516-.426.751-11.361 19.886-11.361 19.886-.538.97-1.297 1.827-2.87 1.827zM77 10.481 53.7 51.68a.062.062 0 0 0 0 .069l14.836 27.106c.294.584.301 1.1.021 1.55-.268.433-.763.595-1.396.595H56.649c-1.612 0-2.418-.995-2.94-1.928L38.756 51.677c.746-1.32 23.418-41.599 23.418-41.599C62.738 9.064 63.42 8 64.991 8h10.631c.634 0 1.131.332 1.399.765.278.449.271 1.135-.021 1.716z"/></symbol><symbol id="youtube" viewBox="0 0 88 88" preserveAspectRatio="xMidYMid meet"><path d="M88 0H0v88h88V0zM76 46.39c0 5.095-.674 10.191-.674 10.191s-.638 4.339-2.526 6.25c-2.394 2.508-5.089 2.52-6.32 2.667-8.811.637-22.047.657-22.047.657s-16.373-.149-21.411-.633c-1.401-.263-4.549-.184-6.944-2.691-1.888-1.911-2.475-6.25-2.475-6.25S13 51.486 13 46.39v-4.777c0-5.095.602-10.191.602-10.191s.6-4.339 2.488-6.25c2.395-2.508 5.071-2.455 6.302-2.602 8.811-.635 22.021-.57 22.021-.57h.027s13.217-.065 22.028.572c1.231.147 3.915.126 6.309 2.634 1.888 1.911 2.549 6.233 2.549 6.233S76 36.518 76 41.613v4.777z"/><path d="M37.72 35.166v17.692l17.013-8.815z"/></symbol></svg>