<svg xmlns="http://www.w3.org/2000/svg" xmlns:xlink="http://www.w3.org/1999/xlink"><symbol id="print" viewBox="0 0 88 88" preserveAspectRatio="xMidYMid meet"><path d="M0 0v88h88V0H0zm27.644 23.183c0-1.487 1.189-2.378 2.379-2.378h27.954c1.488 0 2.379 1.189 2.379 2.378v1.785c0 1.487-1.19 2.378-2.379 2.378H30.022c-1.189 0-2.379-1.189-2.379-2.378v-1.785zm26.17 44.012H34.483c-1.487 0-2.379-1.188-2.379-2.379V50.244c0-1.486 1.189-2.379 2.379-2.379h19.033c1.488 0 2.379 1.191 2.379 2.379l.296 14.572c0 1.489-1.186 2.379-2.377 2.379zm17.545-8.623h-8.92c-1.488 0-2.379-1.189-2.379-2.381V43.404H28.536v12.49c0 1.488-1.189 2.379-2.38 2.379H16.64c-1.486 0-2.378-1.188-2.378-2.379V34.483c0-1.487 1.189-2.379 2.378-2.379h54.42c1.488 0 2.384 1.19 2.384 2.379l.295 21.708c-.001 1.487-1.191 2.381-2.38 2.381z"/></symbol></svg>