<svg xmlns="http://www.w3.org/2000/svg" xmlns:xlink="http://www.w3.org/1999/xlink"><symbol id="tiktok-ds" viewBox="0 0 320 320" preserveAspectRatio="xMidYMid meet"><path d="M227.9 93.5c-12-7.8-20.6-20.3-23.3-34.8-.6-3.1-.9-6.4-.9-9.7h-38.2v153c-.7 17.1-14.8 30.9-32.1 30.9s-10.4-1.3-14.9-3.7c-10.2-5.4-17.2-16.1-17.2-28.4 0-17.7 14.4-32.1 32.1-32.1s6.5.5 9.5 1.5v-39c-3.1-.4-6.3-.7-9.5-.7-38.7 0-70.2 31.5-70.2 70.3s11.9 44.8 30 57.5c11.4 8 25.3 12.7 40.3 12.7 38.7 0 70.2-31.5 70.2-70.2v-77.6c15 10.7 33.3 17.1 53.1 17.1v-38.2c-10.7 0-20.6-3.2-28.9-8.6Z"/></symbol></svg>