<svg xmlns="http://www.w3.org/2000/svg" xmlns:xlink="http://www.w3.org/1999/xlink"><symbol id="copyright" viewBox="0 0 24 24" preserveAspectRatio="xMidYMid meet"><path d="M9.7 10.6c.1-.4.2-.7.4-1 .2-.3.4-.6.7-.7.3-.2.6-.3 1.1-.3.3 0 .5.1.8.2.2.1.5.3.6.4s.3.4.4.6.2.5.2.8H16c0-.6-.1-1.1-.3-1.5-.2-.5-.5-.9-.8-1.2-.5-.4-.9-.7-1.4-.9-.5-.2-1.1-.3-1.7-.3-.8 0-1.5.1-2 .4s-1.1.7-1.5 1.1c-.3.5-.6 1.1-.8 1.7-.2.6-.3 1.3-.3 2v.3c0 .7.1 1.3.3 2 .2.6.5 1.2.9 1.6.4.5.9.8 1.4 1.1.6.3 1.3.4 2 .4.6 0 1.1-.1 1.6-.3.5-.2.9-.4 1.3-.8.4-.3.7-.7.9-1.1.2-.4.3-.9.4-1.4h-2.1c0 .3-.1.5-.2.7s-.3.4-.4.6-.4.3-.6.4c-.2.1-.5.1-.7.1-.4 0-.8-.1-1.1-.3-.3-.2-.5-.4-.7-.7-.2-.3-.3-.7-.4-1.1-.1-.4-.1-.8-.1-1.2v-.3c-.1-.5-.1-.9 0-1.3zM12 0C5.4 0 0 5.4 0 12s5.4 12 12 12 12-5.4 12-12S18.6 0 12 0zm0 21.6c-5.3 0-9.6-4.3-9.6-9.6S6.7 2.4 12 2.4s9.6 4.3 9.6 9.6-4.3 9.6-9.6 9.6z"/></symbol></svg>