<svg xmlns="http://www.w3.org/2000/svg" xmlns:xlink="http://www.w3.org/1999/xlink"><symbol id="nachrichten-ds" viewBox="0 0 32 32" preserveAspectRatio="xMidYMid meet"><path d="M11 19.7h13.2v.9H11v-.9zm13.2-2.8H11v.9h13.2v-.9zm0-5.5h-5.9v.9h5.9v-.9zm0 2.8h-5.9v.9h5.9v-.9zM7.3 6.8v15.8c0 .7-1.5.7-1.5 0V8.8H4v14.5c0 1.1.8 1.9 1.9 1.9h20.2c1.1 0 1.9-.8 1.9-1.9V6.8H7.3zm18.8 16.4H9.2V8.8h16.9v14.4zm-9.6-11.8H11v3.7h5.5v-3.7z"/></symbol><symbol id="nachrichten" viewBox="0 0 50 36" preserveAspectRatio="xMidYMid meet"><path d="M19.947 21.153h13.556v.943H19.947v-.943zm13.554-2.827H19.947v.943h13.556l-.002-.943zm0-5.658h-6.014v.943h6.014v-.943zm0 2.829h-6.014v.943h6.014v-.943zM16.176 7.955V24.17c0 .727-1.543.727-1.543 0V10.001h-1.885v14.905c0 1.051.853 1.904 1.904 1.904h20.715a1.904 1.904 0 0 0 1.906-1.904V7.955H16.176zm19.212 16.819H18.061V9.991h17.327v14.783zm-9.785-12.106h-5.656v3.771h5.656v-3.771z"/></symbol></svg>