<?xml version="1.0" encoding="utf-8"?>
<!-- Generator: Adobe Illustrator 17.0.1, SVG Export Plug-In . SVG Version: 6.00 Build 0)  -->
<!DOCTYPE svg PUBLIC "-//W3C//DTD SVG 1.1//EN" "http://www.w3.org/Graphics/SVG/1.1/DTD/svg11.dtd">
<svg version="1.1" id="Ebene_1" xmlns="http://www.w3.org/2000/svg" xmlns:xlink="http://www.w3.org/1999/xlink" x="0px" y="0px"
	 width="101.5px" height="33px" viewBox="0 0 101.5 33" enable-background="new 0 0 101.5 33" xml:space="preserve">
<g>
	<polygon fill="#00385D" points="63.8,5.5 63.8,24.6 60.4,24.6 51,11.9 51,24.6 47.3,24.6 47.3,5.5 50.7,5.5 60,18.2 60,5.5 
		63.8,5.5 	"/>
	<polygon fill="#00385D" points="82.6,5.5 82.6,8.5 72.2,8.5 72.2,13.7 81.1,13.7 81.1,16.7 72.2,16.7 72.2,24.6 68.2,24.6 
		68.2,5.5 82.6,5.5 	"/>
	<rect x="95.8" y="9.2" fill="#00385D" width="0" height="0"/>
	<path fill="#00385D" d="M98.9,7.1C97.2,5.6,95.2,5,92.7,5c-2.5,0-4.5,0.6-6.1,2.1c-2.2,2-2.2,4.8-2.2,7.7v0.6
		c0,3.1,0.1,5.8,2.3,7.8c1.6,1.5,3.6,2,6.1,2c2.5,0,4.4-0.5,6.1-2.1c2.2-2,2.2-4.5,2.2-7.9v-0.3C101,11.5,101.1,9,98.9,7.1L98.9,7.1
		z M95.8,21c-0.7,0.7-1.8,1.1-3,1.1c-1.2,0-2.4-0.4-3.1-1.1c-1-0.9-1.2-2-1.2-5.9c0-3.9,0.2-4.9,1.2-5.9c0.7-0.7,1.8-1.1,3.1-1.1
		c1.2,0,2.3,0.4,3,1.1l0,0c0,0,0,0,0,0c0.9,0.9,1.2,1.8,1.2,5.9C97,19.1,96.7,20.1,95.8,21L95.8,21z"/>
	<polygon fill="#00385D" points="42.8,5.5 42.8,7.7 38.8,7.7 38.8,5.5 42.8,5.5 	"/>
	<path fill="#00385D" d="M42.8,10.8c0,0.4,0,13.8,0,13.8h-4c0,0,0-13.4,0-13.8C39.1,10.8,42.5,10.8,42.8,10.8L42.8,10.8z"/>
	<path fill="#00385D" d="M21.8,32.7C14.7,32.9,6,31.5,0.4,29.1l0-2.2c5.9,2.5,13.9,3.8,21.1,3.7c7.7-0.1,15.8-1.4,21.4-3.6l0,2.1
		C36.6,31.4,29.5,32.6,21.8,32.7L21.8,32.7z"/>
	<path fill="#00385D" d="M4.1,0.2l0,8.1c0,0,2.5-0.5,4.8-0.5c3.7,0,5.6,2,5.7,4.6c0,0.7,0,1,0,1.7v10.5h-3.9V13.9
		c0-1.3,0.1-2.9-2.9-2.9c-2.1,0-3.6,0.4-3.6,0.4v13.3H0.4V0.4L4.1,0.2L4.1,0.2z"/>
	<path fill="#00385D" d="M28,7.7c0,0-3.5,0.1-5.5,0.5c-2.4,0.5-3.9,2-4.1,4.2c0,0.4-0.1,0.7-0.1,1.7v10.5h3.9l0-10.8
		c0-0.9,0.1-1.5,0.7-2.1c0.7-0.6,2.3-0.7,3.2-0.8c0.6-0.1,1.9-0.1,1.9-0.1L28,7.7L28,7.7z"/>
</g>
</svg>
