<?xml version="1.0" encoding="utf-8"?>
<!-- Generator: Adobe Illustrator 24.2.1, SVG Export Plug-In . SVG Version: 6.00 Build 0)  -->
<svg version="1.1" id="Ebene_1" xmlns="http://www.w3.org/2000/svg" xmlns:xlink="http://www.w3.org/1999/xlink" x="0px" y="0px"
	 viewBox="0 0 234 50" enable-background="new 0 0 234 50" xml:space="preserve">
<path fill="#FFFFFF" d="M75.284,27.222c3.922,0.329,6.235,2.189,6.235,5.906c0,4.377-3.717,6.648-8.715,6.648
	c-3.427,0-6.318-0.578-8.794-3.014l2.765-2.765c1.694,1.733,3.965,2.188,6.029,2.188c2.562,0,4.584-0.91,4.584-2.893
	c0-1.403-0.784-2.312-2.808-2.476l-3.344-0.289c-3.924-0.329-6.195-2.106-6.195-5.781c0-4.089,3.511-6.4,7.888-6.4
	c3.138,0,5.822,0.659,7.763,2.354l-2.642,2.684c-1.322-1.116-3.18-1.529-5.162-1.529c-2.519,0-3.799,1.116-3.799,2.684
	c0,1.24,0.662,2.189,2.891,2.396L75.284,27.222 M54.677,27.222l-3.304-0.289c-2.229-0.207-2.891-1.155-2.891-2.396
	c0-1.568,1.28-2.684,3.8-2.684c1.982,0,3.84,0.413,5.161,1.529l2.644-2.684c-1.94-1.694-4.624-2.354-7.764-2.354
	c-4.376,0-7.887,2.312-7.887,6.4c0,3.674,2.271,5.452,6.195,5.781l3.345,0.289c2.024,0.165,2.807,1.073,2.807,2.476
	c0,1.983-2.022,2.893-4.582,2.893c-2.065,0-4.337-0.455-6.031-2.188l-2.767,2.765c2.479,2.437,5.369,3.014,8.797,3.014
	c4.996,0,8.713-2.271,8.713-6.648C60.912,29.411,58.599,27.551,54.677,27.222 M35.886,27.345c-0.041-1.28-0.165-1.9-0.577-2.85
	c-0.662-1.568-2.148-2.642-4.13-2.642c-1.982,0-3.509,1.073-4.171,2.642c-0.412,0.95-0.495,1.57-0.537,2.85H35.886z M31.179,18.343
	c5.617,0,8.878,4.13,8.878,10.076v1.859H26.471c0,3.592,1.9,5.864,5.328,5.864c2.354,0,3.593-0.66,5.08-2.146l2.684,2.519
	c-2.148,2.146-4.171,3.26-7.846,3.26c-5.246,0-9.417-2.765-9.417-10.737C22.3,22.266,25.81,18.343,31.179,18.343 M160.601,22.101
	c1.651,0,2.684,0.537,4.006,1.983l2.892-2.809c-1.984-2.106-4.007-2.932-6.898-2.932c-4.707,0-9.333,2.85-9.333,10.696
	c0,7.846,4.626,10.737,9.333,10.737c2.89,0,4.914-0.867,6.898-2.973l-2.892-2.765c-1.322,1.445-2.355,1.981-4.006,1.981
	c-1.609,0-2.973-0.659-3.882-1.859c-0.909-1.156-1.238-2.684-1.238-5.12c0-2.435,0.329-3.923,1.238-5.08
	C157.627,22.762,158.991,22.101,160.601,22.101 M98.946,27.345c-0.041-1.28-0.165-1.9-0.579-2.85
	c-0.66-1.568-2.147-2.642-4.129-2.642c-1.983,0-3.509,1.073-4.171,2.642c-0.413,0.95-0.496,1.57-0.536,2.85H98.946z M94.238,18.343
	c5.616,0,8.879,4.13,8.879,10.076v1.859H89.531c0,3.592,1.9,5.864,5.326,5.864c2.355,0,3.593-0.66,5.081-2.146l2.683,2.519
	c-2.147,2.146-4.171,3.26-7.845,3.26c-5.245,0-9.416-2.765-9.416-10.737C85.36,22.266,88.869,18.343,94.238,18.343 M206.811,30.278
	h-4.915c-2.477,0-3.757,1.114-3.757,3.014c0,1.9,1.197,2.973,3.84,2.973c1.61,0,2.808-0.124,3.923-1.196
	c0.618-0.621,0.909-1.613,0.909-3.099V30.278z M202.392,18.343c5.74,0,8.63,2.437,8.63,7.186v14.001h-4.13v-1.9
	c-1.527,1.525-2.973,2.146-5.574,2.146c-2.602,0-4.337-0.621-5.618-1.9c-1.074-1.114-1.651-2.726-1.651-4.501
	c0-3.51,2.437-6.029,7.227-6.029h5.535v-1.487c0-2.643-1.323-3.923-4.585-3.923c-2.313,0-3.427,0.537-4.584,2.023l-2.768-2.601
	C196.859,19.045,198.923,18.343,202.392,18.343 M140.985,27.222l-3.303-0.289c-2.23-0.207-2.89-1.155-2.89-2.396
	c0-1.568,1.28-2.684,3.798-2.684c1.981,0,3.841,0.413,5.162,1.529l2.643-2.684c-1.941-1.694-4.624-2.354-7.763-2.354
	c-4.377,0-7.888,2.312-7.888,6.4c0,3.674,2.272,5.452,6.195,5.781l3.344,0.289c2.025,0.165,2.809,1.073,2.809,2.476
	c0,1.983-2.023,2.893-4.584,2.893c-2.065,0-4.336-0.455-6.031-2.188l-2.767,2.765c2.479,2.437,5.37,3.014,8.797,3.014
	c4.997,0,8.713-2.271,8.713-6.648C147.221,29.411,144.908,27.551,140.985,27.222 M0,9.877v29.651h4.546V22.685
	c0,0,1.772-0.472,4.278-0.483c3.519-0.016,3.419,1.892,3.419,3.431v13.895h4.659V25.894c0-0.831,0.007-1.258-0.032-2.032
	c-0.156-3.041-2.369-5.372-6.785-5.415c-2.659-0.028-5.681,0.59-5.681,0.59V9.594L0,9.877z M172.244,9.877v29.651h4.549V22.685
	c0,0,1.769-0.472,4.276-0.483c3.52-0.016,3.419,1.892,3.419,3.431v13.895h4.659V25.894c0-0.831,0.01-1.258-0.03-2.032
	c-0.157-3.041-2.369-5.372-6.786-5.415c-2.659-0.028-5.682,0.59-5.682,0.59V9.594L172.244,9.877z M229.778,18.578v12.741
	c0,3.188-1.141,4.572-4.274,4.659c-2.895-0.043-4.274-1.471-4.274-4.659V18.578h-4.213V31.94c0,2.349-0.627,7.834,8.486,7.834
	c9.111,0,8.486-5.485,8.486-7.834V18.578H229.778z M112.501,39.528V26.782c0-3.191,1.141-4.575,4.277-4.66
	c2.893,0.042,4.274,1.47,4.274,4.66v12.746h4.215V26.16c0-2.349,0.627-7.835-8.489-7.835c-9.116,0-8.491,5.487-8.491,7.835v13.368
	H112.501z"/>
</svg>
