<?xml version="1.0" encoding="utf-8"?>
<!-- Generator: Adobe Illustrator 24.3.0, SVG Export Plug-In . SVG Version: 6.00 Build 0)  -->
<svg version="1.1" id="Ebene_1" xmlns="http://www.w3.org/2000/svg" xmlns:xlink="http://www.w3.org/1999/xlink" x="0px" y="0px"
	 viewBox="0 0 234 30" preserveAspectRatio="xMinYMin meet" width="184" height="40" style="enable-background:new 0 0 184 40" xml:space="preserve">
<style type="text/css">
	.st0{fill:#FFFFFF;}
</style>
<path class="st0" d="M75.3,17.6c3.9,0.3,6.2,2.2,6.2,5.9c0,4.4-3.7,6.6-8.7,6.6c-3.4,0-6.3-0.6-8.8-3l2.8-2.8c1.7,1.7,4,2.2,6,2.2
	c2.6,0,4.6-0.9,4.6-2.9c0-1.4-0.8-2.3-2.8-2.5l-3.3-0.3c-3.9-0.3-6.2-2.1-6.2-5.8c0-4.1,3.5-6.4,7.9-6.4c3.1,0,5.8,0.7,7.8,2.4
	l-2.6,2.7c-1.3-1.1-3.2-1.5-5.2-1.5c-2.5,0-3.8,1.1-3.8,2.7c0,1.2,0.7,2.2,2.9,2.4L75.3,17.6 M54.7,17.6l-3.3-0.3
	c-2.2-0.2-2.9-1.2-2.9-2.4c0-1.6,1.3-2.7,3.8-2.7c2,0,3.8,0.4,5.2,1.5l2.6-2.7c-1.9-1.7-4.6-2.4-7.8-2.4c-4.4,0-7.9,2.3-7.9,6.4
	c0,3.7,2.3,5.5,6.2,5.8l3.3,0.3c2,0.2,2.8,1.1,2.8,2.5c0,2-2,2.9-4.6,2.9c-2.1,0-4.3-0.5-6-2.2l-2.8,2.8c2.5,2.4,5.4,3,8.8,3
	c5,0,8.7-2.3,8.7-6.6C60.9,19.8,58.6,18,54.7,17.6 M35.9,17.8c0-1.3-0.2-1.9-0.6-2.9c-0.7-1.6-2.1-2.6-4.1-2.6s-3.5,1.1-4.2,2.6
	c-0.4,1-0.5,1.6-0.5,2.9H35.9z M31.2,8.7c5.6,0,8.9,4.1,8.9,10.1v1.9H26.5c0,3.6,1.9,5.9,5.3,5.9c2.4,0,3.6-0.7,5.1-2.1l2.7,2.5
	c-2.1,2.1-4.2,3.3-7.8,3.3c-5.2,0-9.4-2.8-9.4-10.7C22.3,12.7,25.8,8.7,31.2,8.7 M160.6,12.5c1.7,0,2.7,0.5,4,2l2.9-2.8
	c-2-2.1-4-2.9-6.9-2.9c-4.7,0-9.3,2.9-9.3,10.7s4.6,10.7,9.3,10.7c2.9,0,4.9-0.9,6.9-3l-2.9-2.8c-1.3,1.4-2.4,2-4,2
	c-1.6,0-3-0.7-3.9-1.9c-0.9-1.2-1.2-2.7-1.2-5.1c0-2.4,0.3-3.9,1.2-5.1C157.6,13.2,159,12.5,160.6,12.5 M98.9,17.8
	c0-1.3-0.2-1.9-0.6-2.9c-0.7-1.6-2.1-2.6-4.1-2.6c-2,0-3.5,1.1-4.2,2.6c-0.4,1-0.5,1.6-0.5,2.9H98.9z M94.2,8.7
	c5.6,0,8.9,4.1,8.9,10.1v1.9H89.5c0,3.6,1.9,5.9,5.3,5.9c2.4,0,3.6-0.7,5.1-2.1l2.7,2.5c-2.1,2.1-4.2,3.3-7.8,3.3
	c-5.2,0-9.4-2.8-9.4-10.7C85.4,12.7,88.9,8.7,94.2,8.7 M206.8,20.7h-4.9c-2.5,0-3.8,1.1-3.8,3c0,1.9,1.2,3,3.8,3
	c1.6,0,2.8-0.1,3.9-1.2c0.6-0.6,0.9-1.6,0.9-3.1V20.7z M202.4,8.7c5.7,0,8.6,2.4,8.6,7.2v14h-4.1V28c-1.5,1.5-3,2.1-5.6,2.1
	c-2.6,0-4.3-0.6-5.6-1.9c-1.1-1.1-1.7-2.7-1.7-4.5c0-3.5,2.4-6,7.2-6h5.5v-1.5c0-2.6-1.3-3.9-4.6-3.9c-2.3,0-3.4,0.5-4.6,2l-2.8-2.6
	C196.9,9.5,198.9,8.7,202.4,8.7 M141,17.6l-3.3-0.3c-2.2-0.2-2.9-1.2-2.9-2.4c0-1.6,1.3-2.7,3.8-2.7c2,0,3.8,0.4,5.2,1.5l2.6-2.7
	c-1.9-1.7-4.6-2.4-7.8-2.4c-4.4,0-7.9,2.3-7.9,6.4c0,3.7,2.3,5.5,6.2,5.8l3.3,0.3c2,0.2,2.8,1.1,2.8,2.5c0,2-2,2.9-4.6,2.9
	c-2.1,0-4.3-0.5-6-2.2l-2.8,2.8c2.5,2.4,5.4,3,8.8,3c5,0,8.7-2.3,8.7-6.6C147.2,19.8,144.9,18,141,17.6 M0,0.3v29.7h4.5V13.1
	c0,0,1.8-0.5,4.3-0.5c3.5,0,3.4,1.9,3.4,3.4v13.9h4.7V16.3c0-0.8,0-1.3,0-2c-0.2-3-2.4-5.4-6.8-5.4c-2.7,0-5.7,0.6-5.7,0.6V0L0,0.3z
	 M172.2,0.3v29.7h4.5V13.1c0,0,1.8-0.5,4.3-0.5c3.5,0,3.4,1.9,3.4,3.4v13.9h4.7V16.3c0-0.8,0-1.3,0-2c-0.2-3-2.4-5.4-6.8-5.4
	c-2.7,0-5.7,0.6-5.7,0.6V0L172.2,0.3z M229.8,9v12.7c0,3.2-1.1,4.6-4.3,4.7c-2.9,0-4.3-1.5-4.3-4.7V9H217v13.4
	c0,2.3-0.6,7.8,8.5,7.8c9.1,0,8.5-5.5,8.5-7.8V9H229.8z M112.5,29.9V17.2c0-3.2,1.1-4.6,4.3-4.7c2.9,0,4.3,1.5,4.3,4.7v12.7h4.2
	V16.6c0-2.3,0.6-7.8-8.5-7.8s-8.5,5.5-8.5,7.8v13.4H112.5z"/>
</svg>
