<?xml version="1.0" encoding="utf-8"?>

<svg version="1.1" id="Ebene_1" xmlns="http://www.w3.org/2000/svg" xmlns:xlink="http://www.w3.org/1999/xlink" x="0px" y="0px"
	 viewBox="0 0 208 62" preserveAspectRatio="xMinYMin meet" xml:space="preserve"> 
<style type="text/css">
	.st0{fill:#FFFFFF;}
</style>
<path class="st0" d="M66.9,33.2c3.5,0.3,5.5,2,5.5,5.2c0,3.9-3.3,5.9-7.7,5.9c-3,0-5.6-0.5-7.8-2.7l2.5-2.5c1.5,1.5,3.6,2,5.3,2
	c2.3,0,4.1-0.8,4.1-2.6c0-1.2-0.7-2-2.5-2.2L63.4,36c-3.5-0.3-5.5-1.9-5.5-5.2c0-3.6,3.1-5.7,7-5.7c2.8,0,5.2,0.6,6.9,2.1l-2.3,2.4
	c-1.2-1-2.8-1.3-4.6-1.3c-2.2,0-3.4,1-3.4,2.4c0,1.1,0.6,2,2.6,2.1L66.9,33.2 M48.6,33.2l-2.9-0.3c-2-0.2-2.6-1.1-2.6-2.1
	c0-1.4,1.2-2.4,3.4-2.4c1.8,0,3.4,0.4,4.6,1.3l2.3-2.4c-1.7-1.5-4.1-2.1-6.9-2.1c-3.9,0-7,2-7,5.7c0,3.3,2,4.9,5.5,5.2l2.9,0.3
	c1.8,0.2,2.5,1,2.5,2.2c0,1.8-1.8,2.6-4.1,2.6c-1.9,0-3.8-0.4-5.3-2l-2.5,2.5c2.2,2.1,4.8,2.7,7.8,2.7c4.4,0,7.7-2,7.7-5.9
	C54.1,35.1,52.1,33.5,48.6,33.2 M31.9,33.4c0-1.2-0.2-1.7-0.5-2.6c-0.6-1.4-1.9-2.3-3.6-2.3s-3.1,1-3.7,2.3
	c-0.4,0.9-0.4,1.4-0.4,2.6H31.9z M27.7,25.3c5,0,7.9,3.6,7.9,9v1.7H23.6c0,3.2,1.7,5.2,4.7,5.2c2.1,0,3.2-0.6,4.5-1.9l2.4,2.2
	c-1.9,1.9-3.7,2.9-6.9,2.9c-4.6,0-8.4-2.5-8.4-9.5C19.8,28.8,22.9,25.3,27.7,25.3 M142.8,28.6c1.5,0,2.4,0.4,3.6,1.8l2.6-2.5
	c-1.8-1.9-3.6-2.6-6.1-2.6c-4.2,0-8.3,2.6-8.3,9.5s4.1,9.5,8.3,9.5c2.6,0,4.4-0.8,6.1-2.7l-2.6-2.5c-1.2,1.2-2.1,1.8-3.6,1.8
	s-2.7-0.6-3.5-1.7c-0.8-1.1-1.1-2.4-1.1-4.5s0.3-3.5,1.1-4.5C140.1,29.3,141.3,28.6,142.8,28.6 M87.9,33.4c0-1.2-0.2-1.7-0.5-2.6
	c-0.6-1.4-1.9-2.3-3.6-2.3s-3.1,1-3.7,2.3c-0.4,0.9-0.4,1.4-0.4,2.6H87.9z M83.7,25.3c5,0,7.9,3.6,7.9,9v1.7H79.6
	c0,3.2,1.7,5.2,4.7,5.2c2.1,0,3.2-0.6,4.5-1.9l2.4,2.2c-1.9,1.9-3.7,2.9-6.9,2.9c-4.6,0-8.4-2.5-8.4-9.5
	C75.9,28.8,79,25.3,83.7,25.3 M183.8,35.9h-4.4c-2.2,0-3.4,1-3.4,2.7c0,1.7,1.1,2.7,3.4,2.7c1.4,0,2.5-0.1,3.5-1.1
	c0.5-0.5,0.8-1.4,0.8-2.8L183.8,35.9L183.8,35.9z M179.9,25.3c5.1,0,7.6,2.1,7.6,6.4v12.4h-3.6v-1.7c-1.3,1.3-2.7,1.9-5,1.9
	s-3.8-0.5-5-1.7c-1-1-1.5-2.4-1.5-4c0-3.1,2.1-5.3,6.4-5.3h4.9v-1.3c0-2.3-1.2-3.5-4.1-3.5c-2,0-3,0.4-4.1,1.8l-2.5-2.3
	C175,26,176.8,25.3,179.9,25.3 M125.3,33.2l-2.9-0.3c-2-0.2-2.6-1.1-2.6-2.1c0-1.4,1.2-2.4,3.4-2.4c1.8,0,3.4,0.4,4.6,1.3l2.3-2.4
	c-1.7-1.5-4.1-2.1-6.9-2.1c-3.9,0-7,2-7,5.7c0,3.3,2,4.9,5.5,5.2l2.9,0.3c1.8,0.2,2.5,1,2.5,2.2c0,1.8-1.8,2.6-4.1,2.6
	c-1.9,0-3.8-0.4-5.3-2l-2.5,2.5c2.2,2.1,4.8,2.7,7.8,2.7c4.4,0,7.7-2,7.7-5.9C130.8,35.1,128.8,33.5,125.3,33.2 M0,17.8v26.4h4v-15
	c0,0,1.6-0.4,3.8-0.4c3.1,0,3,1.7,3,3v12.4H15V32c0-0.7,0-1.2,0-1.8c-0.2-2.7-2.1-4.8-6-4.8c-2.4,0-5.1,0.5-5.1,0.5v-8.4L0,17.8z
	 M153.1,17.8v26.4h4v-15c0,0,1.6-0.4,3.8-0.4c3.1,0,3,1.7,3,3v12.4h4.2V32c0-0.7,0-1.2,0-1.8c-0.2-2.7-2.1-4.8-6-4.8
	c-2.4,0-5.1,0.5-5.1,0.5v-8.4L153.1,17.8z M204.3,25.5v11.3c0,2.8-1,4.1-3.8,4.2c-2.6,0-3.8-1.3-3.8-4.2V25.5h-3.7v11.9
	c0,2-0.5,6.9,7.6,6.9s7.6-4.9,7.6-6.9V25.5H204.3z M100,44.1V32.8c0-2.8,1-4.1,3.8-4.2c2.6,0,3.8,1.3,3.8,4.2v11.3h3.7V32.3
	c0-2,0.5-6.9-7.6-6.9s-7.6,4.9-7.6,6.9v11.9L100,44.1L100,44.1z"/>
</svg>
