<?xml version="1.0" encoding="utf-8"?>
<!-- Generator: Adobe Illustrator 24.2.1, SVG Export Plug-In . SVG Version: 6.00 Build 0)  -->
<svg version="1.1" id="Ebene_1" xmlns="http://www.w3.org/2000/svg" xmlns:xlink="http://www.w3.org/1999/xlink" x="0px" y="0px"
	 viewBox="0 0 160 19" enable-background="new 0 0 160 19" xml:space="preserve">
<path fill="#FFFFFF" d="M46.182,11.02c2.349,0.197,3.735,1.311,3.735,3.537c0,2.622-2.226,3.982-5.22,3.982
	c-2.053,0-3.784-0.346-5.267-1.805l1.656-1.656c1.015,1.038,2.375,1.31,3.611,1.31c1.534,0,2.746-0.545,2.746-1.733
	c0-0.84-0.469-1.385-1.682-1.483l-2.003-0.173c-2.35-0.197-3.71-1.262-3.71-3.462c0-2.449,2.103-3.834,4.725-3.834
	c1.879,0,3.487,0.395,4.65,1.41L47.839,8.72c-0.792-0.668-1.905-0.916-3.092-0.916c-1.509,0-2.276,0.668-2.276,1.607
	c0,0.743,0.396,1.311,1.732,1.435L46.182,11.02 M33.84,11.02l-1.979-0.173c-1.335-0.124-1.732-0.692-1.732-1.435
	c0-0.939,0.767-1.607,2.276-1.607c1.187,0,2.3,0.247,3.091,0.916l1.583-1.607c-1.162-1.015-2.77-1.41-4.65-1.41
	c-2.621,0-4.724,1.385-4.724,3.834c0,2.201,1.36,3.265,3.71,3.462l2.003,0.173c1.212,0.099,1.681,0.643,1.681,1.483
	c0,1.187-1.211,1.733-2.745,1.733c-1.237,0-2.598-0.273-3.612-1.31l-1.657,1.656c1.485,1.459,3.216,1.805,5.269,1.805
	c2.992,0,5.219-1.36,5.219-3.982C37.574,12.331,36.189,11.217,33.84,11.02 M22.585,11.094c-0.024-0.767-0.099-1.138-0.346-1.707
	c-0.396-0.939-1.287-1.582-2.474-1.582c-1.187,0-2.102,0.643-2.498,1.582c-0.247,0.569-0.297,0.94-0.322,1.707H22.585z
	 M19.766,5.702c3.364,0,5.318,2.473,5.318,6.035v1.113h-8.138c0,2.151,1.138,3.512,3.191,3.512c1.41,0,2.152-0.396,3.043-1.285
	l1.607,1.509c-1.287,1.285-2.498,1.953-4.699,1.953c-3.142,0-5.64-1.656-5.64-6.431C14.447,8.051,16.55,5.702,19.766,5.702
	 M97.282,7.953c0.989,0,1.607,0.321,2.399,1.187l1.732-1.682c-1.188-1.262-2.4-1.756-4.131-1.756c-2.819,0-5.59,1.707-5.59,6.406
	c0,4.699,2.77,6.431,5.59,6.431c1.731,0,2.943-0.519,4.131-1.781l-1.732-1.656c-0.792,0.865-1.41,1.187-2.399,1.187
	c-0.964,0-1.781-0.395-2.325-1.113c-0.544-0.693-0.742-1.607-0.742-3.067c0-1.459,0.197-2.35,0.742-3.042
	C95.501,8.349,96.318,7.953,97.282,7.953 M60.354,11.094c-0.025-0.767-0.099-1.138-0.347-1.707
	c-0.396-0.939-1.286-1.582-2.473-1.582c-1.187,0-2.102,0.643-2.498,1.582c-0.247,0.569-0.297,0.94-0.321,1.707H60.354z
	 M57.535,5.702c3.364,0,5.318,2.473,5.318,6.035v1.113h-8.137c0,2.151,1.138,3.512,3.19,3.512c1.41,0,2.152-0.396,3.043-1.285
	l1.607,1.509c-1.286,1.285-2.498,1.953-4.699,1.953c-3.141,0-5.64-1.656-5.64-6.431C52.217,8.051,54.319,5.702,57.535,5.702
	 M124.96,12.85h-2.944c-1.484,0-2.251,0.667-2.251,1.805c0,1.138,0.717,1.781,2.3,1.781c0.964,0,1.682-0.074,2.35-0.716
	c0.37-0.372,0.544-0.966,0.544-1.856V12.85z M122.313,5.702c3.438,0,5.169,1.459,5.169,4.304v8.386h-2.473v-1.138
	c-0.915,0.913-1.781,1.285-3.339,1.285c-1.559,0-2.598-0.372-3.365-1.138c-0.643-0.667-0.989-1.633-0.989-2.696
	c0-2.102,1.459-3.611,4.328-3.611h3.315v-0.89c0-1.583-0.793-2.35-2.746-2.35c-1.385,0-2.053,0.321-2.745,1.212l-1.658-1.558
	C118.999,6.122,120.235,5.702,122.313,5.702 M85.534,11.02l-1.979-0.173c-1.336-0.124-1.731-0.692-1.731-1.435
	c0-0.939,0.767-1.607,2.275-1.607c1.187,0,2.301,0.247,3.092,0.916l1.583-1.607c-1.162-1.015-2.77-1.41-4.65-1.41
	c-2.622,0-4.725,1.385-4.725,3.834c0,2.201,1.361,3.265,3.711,3.462l2.003,0.173c1.213,0.099,1.682,0.643,1.682,1.483
	c0,1.187-1.212,1.733-2.745,1.733c-1.237,0-2.597-0.273-3.612-1.31l-1.657,1.656c1.484,1.459,3.216,1.805,5.269,1.805
	c2.993,0,5.219-1.36,5.219-3.982C89.269,12.331,87.883,11.217,85.534,11.02 M1.091,0.631V18.39h2.723V8.302
	c0,0,1.061-0.283,2.562-0.289c2.108-0.009,2.048,1.133,2.048,2.055v8.322h2.791v-8.166c0-0.498,0.004-0.754-0.019-1.217
	c-0.093-1.821-1.419-3.218-4.064-3.243C5.54,5.748,3.729,6.117,3.729,6.117V0.461L1.091,0.631z M104.256,0.631V18.39h2.724V8.302
	c0,0,1.059-0.283,2.561-0.289c2.108-0.009,2.048,1.133,2.048,2.055v8.322h2.791v-8.166c0-0.498,0.006-0.754-0.018-1.217
	c-0.094-1.821-1.419-3.218-4.064-3.243c-1.592-0.017-3.403,0.353-3.403,0.353V0.461L104.256,0.631z M138.716,5.843v7.631
	c0,1.91-0.683,2.738-2.56,2.791c-1.734-0.026-2.56-0.881-2.56-2.791V5.843h-2.523v8.003c0,1.407-0.375,4.692,5.083,4.692
	c5.457,0,5.083-3.285,5.083-4.692V5.843H138.716z M68.473,18.39v-7.634c0-1.911,0.684-2.74,2.562-2.791
	c1.733,0.025,2.56,0.88,2.56,2.791v7.634h2.524v-8.007c0-1.407,0.375-4.693-5.085-4.693c-5.46,0-5.085,3.286-5.085,4.693v8.007
	H68.473z"/>
</svg>
