<?xml version="1.0" encoding="utf-8"?>
<!-- Generator: Adobe Illustrator 27.5.0, SVG Export Plug-In . SVG Version: 6.00 Build 0)  -->
<svg version="1.1" id="Ebene_2_00000091734314331546650130000004161974874890853274_"
	 xmlns="http://www.w3.org/2000/svg" xmlns:xlink="http://www.w3.org/1999/xlink" x="0px" y="0px" viewBox="0 0 248 32"
	 style="enable-background:new 0 0 248 32;" xml:space="preserve">
<style type="text/css">
	.st0{fill:#FFFFFF;}
</style>
<g id="Ebene_1-2">
	<path class="st0" d="M79.8,18.7C84,19,86.4,21,86.4,25c0,4.6-3.9,7-9.2,7c-3.6,0-6.7-0.6-9.3-3.2l2.9-2.9c1.8,1.8,4.2,2.3,6.4,2.3
		c2.7,0,4.9-1,4.9-3.1c0-1.5-0.8-2.4-3-2.6l-3.5-0.3c-4.2-0.3-6.6-2.2-6.6-6.1c0-4.3,3.7-6.8,8.4-6.8c3.3,0,6.2,0.7,8.2,2.5
		l-2.8,2.8c-1.4-1.2-3.4-1.6-5.5-1.6c-2.7,0-4,1.2-4,2.9c0,1.3,0.7,2.3,3.1,2.5L79.8,18.7 M58,18.7l-3.5-0.3
		c-2.4-0.2-3.1-1.2-3.1-2.5c0-1.7,1.4-2.9,4-2.9c2.1,0,4.1,0.4,5.5,1.6l2.8-2.8c-2.1-1.8-4.9-2.5-8.2-2.5c-4.6,0-8.4,2.5-8.4,6.8
		c0,3.9,2.4,5.8,6.6,6.1l3.6,0.3c2.1,0.2,3,1.1,3,2.6c0,2.1-2.1,3.1-4.9,3.1c-2.2,0-4.6-0.5-6.4-2.3L46,28.8
		c2.6,2.6,5.7,3.2,9.3,3.2c5.3,0,9.2-2.4,9.2-7C64.6,21,62.1,19,58,18.7 M38,18.8c0-1.4-0.2-2-0.6-3C36.7,14.1,35.1,13,33,13
		c-2.1,0-3.7,1.1-4.4,2.8c-0.4,1-0.5,1.7-0.6,3C28.1,18.8,38,18.8,38,18.8z M33,9.3c6,0,9.4,4.4,9.4,10.7v2H28.1
		c0,3.8,2,6.2,5.6,6.2c2.5,0,3.8-0.7,5.4-2.3l2.8,2.7c-2.3,2.3-4.4,3.5-8.3,3.5c-5.6,0-10-2.9-10-11.4C23.6,13.4,27.4,9.3,33,9.3
		 M170.2,13.3c1.7,0,2.8,0.6,4.3,2.1l3.1-3c-2.1-2.2-4.3-3.1-7.3-3.1c-5,0-9.9,3-9.9,11.3s4.9,11.4,9.9,11.4c3.1,0,5.2-0.9,7.3-3.2
		l-3.1-2.9c-1.4,1.5-2.5,2.1-4.3,2.1s-3.1-0.7-4.1-2c-1-1.2-1.3-2.8-1.3-5.4s0.3-4.2,1.3-5.4C167.1,14,168.5,13.3,170.2,13.3
		 M104.9,18.8c0-1.4-0.2-2-0.6-3c-0.7-1.7-2.3-2.8-4.4-2.8c-2.1,0-3.7,1.1-4.4,2.8c-0.4,1-0.5,1.7-0.6,3H104.9z M99.9,9.3
		c5.9,0,9.4,4.4,9.4,10.7v2H94.9c0,3.8,2,6.2,5.6,6.2c2.5,0,3.8-0.7,5.4-2.3l2.8,2.7c-2.3,2.3-4.4,3.5-8.3,3.5
		c-5.6,0-10-2.9-10-11.4C90.5,13.4,94.2,9.3,99.9,9.3 M219.2,21.9H214c-2.6,0-4,1.2-4,3.2s1.3,3.2,4.1,3.2c1.7,0,3-0.1,4.2-1.3
		c0.7-0.7,1-1.7,1-3.3C219.2,23.7,219.2,21.9,219.2,21.9z M214.5,9.3c6.1,0,9.1,2.6,9.1,7.6v14.8h-4.4v-2c-1.6,1.6-3.1,2.3-5.9,2.3
		c-2.8,0-4.6-0.7-6-2c-1.1-1.2-1.7-2.9-1.7-4.8c0-3.7,2.6-6.4,7.7-6.4h5.9v-1.6c0-2.8-1.4-4.2-4.9-4.2c-2.5,0-3.6,0.6-4.9,2.1
		l-2.9-2.8C208.7,10,210.8,9.3,214.5,9.3 M149.4,18.7l-3.5-0.3c-2.4-0.2-3.1-1.2-3.1-2.5c0-1.7,1.4-2.9,4-2.9c2.1,0,4.1,0.4,5.5,1.6
		l2.8-2.8c-2.1-1.8-4.9-2.5-8.2-2.5c-4.6,0-8.4,2.5-8.4,6.8c0,3.9,2.4,5.8,6.6,6.1l3.5,0.3c2.2,0.2,3,1.1,3,2.6
		c0,2.1-2.1,3.1-4.9,3.1c-2.2,0-4.6-0.5-6.4-2.3l-2.9,2.9c2.6,2.6,5.7,3.2,9.3,3.2c5.3,0,9.2-2.4,9.2-7C156,21,153.6,19,149.4,18.7
		 M0,0.3v31.4h4.8V13.9c0,0,1.9-0.5,4.5-0.5c3.7,0,3.6,2,3.6,3.6v14.7h4.9V17.3c0-0.9,0-1.3,0-2.2c-0.2-3.2-2.5-5.7-7.2-5.7
		c-2.8,0-6,0.6-6,0.6V0L0,0.3z M182.6,0.3v31.4h4.8V13.9c0,0,1.9-0.5,4.5-0.5c3.7,0,3.6,2,3.6,3.6v14.7h4.9V17.3c0-0.9,0-1.3,0-2.2
		c-0.2-3.2-2.5-5.7-7.2-5.7c-2.8,0-6,0.6-6,0.6V0L182.6,0.3L182.6,0.3L182.6,0.3z M243.6,9.5V23c0,3.4-1.2,4.8-4.5,4.9
		c-3.1,0-4.5-1.6-4.5-4.9V9.5H230v14.2c0,2.5-0.7,8.3,9,8.3c9.7,0,9-5.8,9-8.3V9.5L243.6,9.5L243.6,9.5L243.6,9.5z M119.2,31.7V18.2
		c0-3.4,1.2-4.8,4.5-4.9c3.1,0,4.5,1.6,4.5,4.9v13.5h4.5V17.6c0-2.5,0.7-8.3-9-8.3s-9,5.8-9,8.3v14.2
		C114.8,31.7,119.2,31.7,119.2,31.7z"/>
</g>
</svg>
