<?xml version="1.0" encoding="UTF-8"?>
<svg xmlns="http://www.w3.org/2000/svg"  x="0px" y="0px" viewBox="0 -10 208 46">
  <defs>
    <style>
      .cls-1 {
        fill: #fff;
      }
    </style>
  </defs>
  <g>
    <path class="cls-1" d="m66.9,15.7c3.5.3,5.5,2,5.5,5.2,0,3.9-3.3,5.9-7.7,5.9-3,0-5.6-.5-7.8-2.7l2.5-2.5c1.5,1.5,3.6,2,5.3,2,2.3,0,4.1-.8,4.1-2.6,0-1.2-.7-2-2.5-2.2l-2.9-.3c-3.5-.3-5.5-1.9-5.5-5.2,0-3.6,3.1-5.7,7-5.7,2.8,0,5.2.6,6.9,2.1l-2.3,2.4c-1.2-1-2.8-1.3-4.6-1.3-2.2,0-3.4,1-3.4,2.4,0,1.1.6,2,2.6,2.1l2.8.4m-18.3,0l-2.9-.3c-2-.2-2.6-1.1-2.6-2.1,0-1.4,1.2-2.4,3.4-2.4,1.8,0,3.4.4,4.6,1.3l2.3-2.4c-1.7-1.5-4.1-2.1-6.9-2.1-3.9,0-7,2-7,5.7,0,3.3,2,4.9,5.5,5.2l2.9.3c1.8.2,2.5,1,2.5,2.2,0,1.8-1.8,2.6-4.1,2.6-1.9,0-3.8-.4-5.3-2l-2.5,2.5c2.2,2.1,4.8,2.7,7.8,2.7,4.4,0,7.7-2,7.7-5.9.1-3.4-1.9-5-5.4-5.3m-16.7.2c0-1.2-.2-1.7-.5-2.6-.6-1.4-1.9-2.3-3.6-2.3s-3.1,1-3.7,2.3c-.4.9-.4,1.4-.4,2.6h8.2Zm-4.2-8.1c5,0,7.9,3.6,7.9,9v1.7h-12c0,3.2,1.7,5.2,4.7,5.2,2.1,0,3.2-.6,4.5-1.9l2.4,2.2c-1.9,1.9-3.7,2.9-6.9,2.9-4.6,0-8.4-2.5-8.4-9.5-.1-6.1,3-9.6,7.8-9.6m115.1,3.3c1.5,0,2.4.4,3.6,1.8l2.6-2.5c-1.8-1.9-3.6-2.6-6.1-2.6-4.2,0-8.3,2.6-8.3,9.5s4.1,9.5,8.3,9.5c2.6,0,4.4-.8,6.1-2.7l-2.6-2.5c-1.2,1.2-2.1,1.8-3.6,1.8s-2.7-.6-3.5-1.7c-.8-1.1-1.1-2.4-1.1-4.5s.3-3.5,1.1-4.5c.8-.9,2-1.6,3.5-1.6m-54.9,4.8c0-1.2-.2-1.7-.5-2.6-.6-1.4-1.9-2.3-3.6-2.3s-3.1,1-3.7,2.3c-.4.9-.4,1.4-.4,2.6h8.2Zm-4.2-8.1c5,0,7.9,3.6,7.9,9v1.7h-12c0,3.2,1.7,5.2,4.7,5.2,2.1,0,3.2-.6,4.5-1.9l2.4,2.2c-1.9,1.9-3.7,2.9-6.9,2.9-4.6,0-8.4-2.5-8.4-9.5,0-6.1,3.1-9.6,7.8-9.6m100.1,10.6h-4.4c-2.2,0-3.4,1-3.4,2.7s1.1,2.7,3.4,2.7c1.4,0,2.5-.1,3.5-1.1.5-.5.8-1.4.8-2.8l.1-1.5h0Zm-3.9-10.6c5.1,0,7.6,2.1,7.6,6.4v12.4h-3.6v-1.7c-1.3,1.3-2.7,1.9-5,1.9s-3.8-.5-5-1.7c-1-1-1.5-2.4-1.5-4,0-3.1,2.1-5.3,6.4-5.3h4.9v-1.3c0-2.3-1.2-3.5-4.1-3.5-2,0-3,.4-4.1,1.8l-2.5-2.3c2-2,3.8-2.7,6.9-2.7m-54.6,7.9l-2.9-.3c-2-.2-2.6-1.1-2.6-2.1,0-1.4,1.2-2.4,3.4-2.4,1.8,0,3.4.4,4.6,1.3l2.3-2.4c-1.7-1.5-4.1-2.1-6.9-2.1-3.9,0-7,2-7,5.7,0,3.3,2,4.9,5.5,5.2l2.9.3c1.8.2,2.5,1,2.5,2.2,0,1.8-1.8,2.6-4.1,2.6-1.9,0-3.8-.4-5.3-2l-2.5,2.5c2.2,2.1,4.8,2.7,7.8,2.7,4.4,0,7.7-2,7.7-5.9.1-3.4-1.9-5-5.4-5.3M0,.3v26.4h4v-15s1.6-.4,3.8-.4c3.1,0,3,1.7,3,3v12.4h4.2v-14c-.2-2.7-2.1-4.8-6-4.8-2.4,0-5.1.5-5.1.5V0L0,.3ZM153.1.3v26.4h4v-15s1.6-.4,3.8-.4c3.1,0,3,1.7,3,3v12.4h4.2v-14c-.2-2.7-2.1-4.8-6-4.8-2.4,0-5.1.5-5.1.5V0l-3.9.3Zm51.2,7.7v11.3c0,2.8-1,4.1-3.8,4.2-2.6,0-3.8-1.3-3.8-4.2V8h-3.7v11.9c0,2-.5,6.9,7.6,6.9s7.6-4.9,7.6-6.9V8h-3.9Zm-104.3,18.6v-11.3c0-2.8,1-4.1,3.8-4.2,2.6,0,3.8,1.3,3.8,4.2v11.3h3.7v-11.8c0-2,.5-6.9-7.6-6.9s-7.6,4.9-7.6,6.9v11.9l3.9-.1h0Z"/>
  </g>
</svg>