<svg xmlns="http://www.w3.org/2000/svg" width="360" height="45" viewBox="0 0 360 45"><path d="M343.64.527c8.51 0 15.406 6.895 15.406 15.406 0 8.508-6.896 15.407-15.406 15.407-8.505 0-15.406-6.9-15.406-15.407 0-8.51 6.9-15.406 15.406-15.406m0 2.256c-7.26 0-13.14 5.89-13.14 13.15 0 7.266 5.88 13.146 13.14 13.146 7.263 0 13.15-5.882 13.15-13.147 0-7.26-5.888-13.15-13.15-13.15"/><path d="M349.83 6.748l-15.504 5.57v3.832l5.13-1.863v11.596l10.374-3.71M24.423 16.11c-1.603-.552-3.54-.995-5.254-.995-3.658 0-4.875 1.273-4.875 3.045 0 3.984 9.797 4.15 9.797 13.228 0 7.692-6.863 14.058-16.657 14.058-2.88 0-5.538-.277-7.583-.664l1.77-9.574c2.045.773 4.207 1.218 6.362 1.218 3.376 0 4.982-.997 4.982-3.155 0-3.983-9.794-3.874-9.794-12.73 0-7.636 5.146-14 16.104-14 2.49 0 4.815.22 6.916.554l-1.77 9.017zM44.348 15.394c-.664 0-1.048 0-1.495.054L41.14 24.58c.332.057.555.057.663.057 3.65 0 6.032-2.99 6.032-6.09 0-1.716-.996-3.153-3.487-3.153m-3.265 17.82c-.33 0-.94 0-1.66-.056l-2.16 11.512H27.19l7.086-37.358c3.43-.165 7.137-.276 11.57-.276 7.246 0 12.56 3.21 12.56 10.294 0 8.47-7.085 15.884-17.323 15.884M80.214 15.945c-6.587 0-10.02 7.36-10.02 13.893 0 4.096 1.774 6.143 5.203 6.143 6.198 0 10.07-7.083 10.07-14.333 0-3.21-1.605-5.702-5.253-5.702m-6.368 29.5c-10.016 0-14.442-5.367-14.442-13.78 0-13.34 9.738-25.128 22.47-25.128 9.518 0 14.28 5.037 14.28 13.894 0 14.554-10.186 25.015-22.308 25.015M114.583 15.504c-.83 0-1.772.055-2.106.11l-1.492 8.024c.386.057 1.05.11 1.603.11 3.542 0 5.646-2.767 5.646-5.534 0-1.66-1.106-2.71-3.65-2.71m5.31 13.946c.555 1.273 1.216 2.822 1.772 4.263l4.207 10.957h-11.678l-4.262-13.615h-.386l-2.604 13.615H96.87l7.084-37.36c3.487-.22 7.97-.274 12.345-.274 8.798 0 12.782 3.21 12.782 9.077 0 5.977-2.935 10.68-9.19 13.337M151.11 16.168l-5.425 28.502H135.61l5.427-28.502h-7.916l1.66-8.856h25.903l-1.66 8.856"/><g><path d="M182.71 12.625c-1.828-.607-3.762-.886-5.2-.886-5.26 0-7.475 2.823-7.475 5.59 0 6.254 11.125 6.42 11.125 15.33 0 7.084-6.25 12.564-15.11 12.564-2.158 0-4.592-.166-6.42-.72l1.108-5.7c1.606.664 3.818 1.16 5.757 1.16 5.312 0 8.244-2.488 8.244-6.31 0-5.976-11.015-6.032-11.015-14.942 0-6.475 4.87-11.954 14.17-11.954 1.995 0 3.762.11 5.868.498l-1.052 5.37zM214.368 13.566c-2.382-.83-4.87-1.273-7.252-1.273-10.458 0-14.39 10.295-14.39 18.817 0 5.148 2.106 8.58 8.802 8.58 2.987 0 5.868-.61 8.303-1.66l-.39 5.48c-2.875.995-6.306 1.603-9.682 1.603-11.017 0-13.673-6.53-13.673-12.895 0-12.952 7.416-25.238 21.694-25.238 3.1 0 5.756.443 8.08 1.106l-1.492 5.48z"/></g><path d="M239.05 44.67l3.155-16.77h-17.268l-3.154 16.77h-5.92l7.084-37.358h5.92l-2.932 15.44h17.267l2.934-15.44h5.92l-7.14 37.358"/><g><path d="M272.534 19.877c-.33-1.883-.553-3.82-.66-5.758h-.057c-.775 1.882-1.717 3.874-2.826 5.92l-6.253 11.57h11.736l-1.94-11.733zm3.82 24.793l-1.217-8.245h-14.834l-4.37 8.245h-6.258l20.258-37.357h6.585l6.2 37.357h-6.364zM317.197 31c-1.878 9.742-7.857 14.225-17.268 14.225-11.07 0-13.06-6.143-11.623-13.836L292.9 7.31h5.924L294.12 31.72c-1.054 5.59.607 8.524 6.64 8.524 6.035 0 9.355-2.658 10.684-9.854l4.426-23.08h5.812L317.197 31z"/></g></svg>