<svg version="1.1" id="Ebene_1" xmlns="http://www.w3.org/2000/svg" x="0" y="0" width="559" height="789" viewBox="0 0 559 789" xml:space="preserve"><g id="hessen"><g><path stroke-linejoin="round" stroke-miterlimit="10" d="m276.648 63.337 2.924-1.565 1.647-1.235 2.553-.947 3.171-.206 2.636-.947 1.896-.865 1.977-.74 1.359.823 1.688 1.813 2.596.247 2.265.329 3.542.453 2.553.165 1.565 1.771.082 1.854-.124 1.193-.618 1.73-.494 1.317-1.03 1.236-.534 1.524-.206 1.152.082 1.483.37 1.399.577 1.854.783 1.03.988 1.029 1.895.412 2.842-.783s1.03.371 1.153.412c.124.041 4.324.288 5.107.288s2.924-.905 2.924-.905l1.729-4.324s2.101-.947 2.266-.947 3.624.247 3.624.247l2.801.577.618-1.978-.247-2.883-1.112-1.44 1.771-1.524 2.759-.659 1.483-1.276.74-1.771 3.254-.577 2.843-2.389 2.389-2.184 1.071-.905 3.377-.206 1.936-.824.741-1.277-.165-7.537 1.071-1.235 4.571-5.313 2.266-3.954 3.089-2.965-.494-1.646-2.636-1.483-1.689-1.605-1.235-2.472 2.924-1.977 3.954-1.524 1.771-1.235 5.932-.659 4.282-1.153 3.665-3.377 2.101-3.212 3.583-2.224 2.965-1.318s1.688-.288 2.718.618 1.194 4.776 1.194 4.776l.494 3.871s2.595 2.719 2.718 2.678c.124-.041 1.523.247 2.595-.371s4.201-3.377 4.201-3.377.329-1.071 1.524.288c1.193 1.358 2.471 3.829 3.254 3.829.782 0 5.889 0 6.466-.165 0 0 .973-1.363 2.505-1.823s3.064-1.072 3.677.306c.613 1.379.92 3.217.92 4.596s1.531 3.983 2.45 3.983 4.597 4.136 5.362 4.749 4.596 3.37 4.289 6.281c-.306 2.911-1.072 4.136-2.604 3.677-1.531-.46-4.136-2.757-5.055-3.523-.919-.766-2.911-3.063-3.983-2.91-1.071.152-1.99.152-2.145 1.99-.153 1.838.306 3.678 1.686 4.443 1.379.766 5.055 2.451 4.901 3.83s-.919 3.982-1.991 3.982c-1.071 0-5.055.613-5.668 1.072-.613.46-1.532 3.523-2.604 3.83-1.072.306-3.523 1.838-3.523 1.838l-.46 1.532 2.451 4.136 4.596 7.2 3.523 3.83s-.919 2.911-.919 3.523.306 8.885.152 9.497c-.152.613-2.45 6.281-3.37 7.66-.919 1.379-3.677 4.289-5.361 4.289-1.686 0-3.064-1.226-4.749.613-1.686 1.838-5.668 3.677-4.902 4.749.767 1.072 3.217 2.604 3.983 3.063.766.461 1.532 3.678-.153 3.983-1.685.306-5.362-.613-5.362-.613l-2.45-1.531-1.227.766 1.838 1.379 3.217 1.991 1.991 2.604 4.443.919 5.515 4.902h4.137l1.071 1.226.153 3.37 3.064.153 3.677-.153 2.757-.306 3.37 1.991 3.522 2.298 2.758 1.379 1.99 1.226 1.379-.306 1.686-1.838 2.145-.919 2.146-1.991 1.226-1.685.153-1.991-.153-1.379-1.071-.767-1.38.307-1.071.919-1.991 2.298-1.072-.306-.46-.613-.612-1.226-1.38-2.451s0-2.757-.152-3.217c-.153-.461-.919-2.146-.919-2.146l-1.686-1.685-1.072-1.227-.612-1.685.153-2.911 2.757-.919h1.531l2.146-.307 1.838-1.226 1.532-1.226 1.685-1.532 3.83.46 2.146-.613 1.685-2.757-.766-3.217s.152-1.991.919-2.146c.766-.153 3.83.153 3.83.153l3.522 1.991 1.532 3.37.919 3.677.306 2.451 1.991 2.145 1.838-1.685-1.071-2.604-1.532-5.208-.613-2.911.919-1.99.767-.919 1.685.919.919 1.379 2.298-.153s.46-.766.919-.919c.46-.153 1.532-1.072 1.532-1.072l1.226-.612s.307.612.767.919c.46.306 2.298 2.911 2.298 2.911l1.685 4.136 1.686 3.522-.306 2.911.766 5.208 1.226 4.749.613 2.757.613 3.064-.613 2.298-.153 1.991 3.37 1.991 1.838 1.685 2.757 1.991 2.758.613 3.217.766 3.064 2.298s4.136.919 4.748 1.226c.613.308 2.758 1.991 2.758 1.991v2.146l-1.072 1.532-1.686 1.226 1.838 1.685 2.299 1.072 1.531 1.838v3.523l3.678 1.071 4.596.767 4.289 1.532s3.064.766 3.523.766 2.757 2.757 2.757 2.757l4.749.46 1.99 3.37 2.758 2.757s2.298 1.227 3.063 1.227c.767 0 3.523.152 3.523.152l1.532 1.379-1.532 1.991-2.146 1.838-.306 3.83-.306 5.975-.153 7.047s0 3.522-.613 3.522c-.612 0-3.37-2.45-3.37-2.45s-2.145-1.38-2.298-2.146-.766-3.523-.46-4.136c.307-.613-.46-3.523-.919-3.523s-3.063-1.072-3.83-.766c-.766.306-3.217 1.072-3.217 1.072l-2.298 1.226s-1.532 1.532-1.072 2.298c.46.767 2.911 3.37 2.911 3.37l2.911 1.991s1.991.919 2.451 1.072c.46.152 1.838 1.531 1.838 1.531s.613 3.064.152 3.064c-.46 0-3.522 3.217-3.522 3.83 0 .612-.919 5.82-.919 5.82s-.307 5.821.46 6.129c.766.306 3.677 2.91 3.677 2.91l5.362 1.991 4.749 2.757-.46 2.911s-2.146-.306-2.604-.152c-.46.152-1.226.919-.919 1.531.306.613 1.072 1.532 1.072 1.991 0 .46-1.072 4.902-1.685 5.362-.613.46-4.597 3.677-4.597 3.677s-2.911 0-3.677.153c-.766.152-3.064-.46-3.064-.46l-1.685-2.299-1.685-.612-2.146.766s-.46.919-1.072.767c-.612-.153-4.289-1.227-4.901-1.227-.613 0-5.516-2.145-5.516-2.145s-4.289.306-4.901.306c-.613 0-4.289.766-4.289.766s-2.146.307-2.451 1.072c-.306.767-1.072 2.451-1.072 2.451l-.613 3.37 1.532 3.522 1.532 4.902s1.991 2.145 2.298 2.757c.307.613-.613 3.677-1.379 3.677s-3.37.613-4.136.307c-.767-.307-1.532-.767-2.146-.767-.612 0-2.451 1.072-2.451 1.072l-2.298-.46-1.532-1.226-1.379-.767-1.685.613-1.379.306-1.685.153-.92.766-.612 1.379 1.991 2.451s.612-.766.918-1.226c.307-.46 2.604-.153 3.064-.46.46-.308 1.991.153 1.991.919s-.153 2.911-.153 3.83.613 2.604.613 2.604 1.226 1.686 1.226 1.227c0-.46 1.227-1.379 1.686-1.686.46-.306 2.298-1.838 2.298-1.838l2.757.767 3.523 1.99 2.298 2.757 3.37 1.072h1.226l.919 3.217-.306 2.758-1.532 1.838-2.298 2.298-1.991 1.226-.766.767-.153 1.071 1.072.919.919 1.532-1.379 2.298s-.613 1.227-.767 1.839c-.152.612-1.226 2.757-1.226 2.757l-1.072 2.45-1.532 1.532s-1.071-.306-1.99-.766-4.902-.613-5.668-.46c-.767.153-2.758.306-3.37 1.072-.613.766-2.451 3.369-2.146 4.136.307.766.153 3.063-.46 3.829-.612.767-.919 3.83-.919 3.83l1.379 4.597-1.531 1.838-1.839-.613-1.071-.46-1.227 2.146.153 2.145 1.226 1.226 1.991 1.532.153 4.443-1.072 2.604-.766 3.064-1.227 2.145-1.226 1.686-2.146 1.379.767 1.685.612 1.991-1.379 2.451-2.145 1.991s.46-.46-.919.612-2.911 2.911-2.911 2.911l-1.532 1.379s.306 2.604.46 3.064c.153.46.613 1.685.613 2.145s-.306 2.146-.306 2.146-1.227 1.226-1.072 1.838c.153.613.919 2.146.919 2.146l1.685-.153s.613-1.379 1.072-1.532c.46-.153 2.146 0 2.146 0l2.91 1.838s2.451 2.298 3.218 2.298c.766 0 2.604.153 3.063-.152.46-.307 2.451-3.064 2.911-3.523.46-.46-.46-2.604-.919-3.217s-2.451-1.532-2.145-2.604c.306-1.071 2.91-3.217 3.83-3.83.918-.612 4.748-2.757 5.82-2.91s4.289.612 5.668.612 5.821-.306 6.281.307 3.982 3.37 4.443 5.208c.46 1.838 1.991 7.047 2.298 7.966.306.919.46 4.901 0 5.515s-1.992.153-2.911-.919-3.523.153-4.137 1.227c-.612 1.071-.306 2.757-.612 4.136s.306 2.911.46 3.677c.152.766 1.379 5.974 1.072 7.354-.307 1.379 2.91 4.749 2.451 6.28-.461 1.532-4.443 8.119-4.443 9.038s.152 8.426-.153 9.804c-.306 1.38-2.604 8.579-3.522 9.805-.92 1.226-6.588 6.74-7.354 7.813s-4.443 5.516-5.362 6.281-3.37 3.064-3.37 3.064-3.063.919-3.982 1.379-3.37 3.677-3.983 4.136c-.612.46-1.99.46-3.37.766-1.379.307-1.838 2.298-2.91 2.298s-2.146-.919-2.911-1.226c-.767-.306-.767 2.145-2.911 1.838-2.146-.306-5.821-2.604-7.2-3.217s-3.983-2.146-3.983-2.146.307-1.838-.766-2.604-2.451-.46-3.982-.46c-1.532 0-3.523-.46-4.75.306-1.226.767-2.298 1.532-1.99 2.757.306 1.227.919 4.749.306 5.821s-1.072 3.217-1.532 4.749-1.531 5.668-1.531 5.668-2.146 1.686-1.839 2.757c.307 1.072 1.991 4.597 2.146 6.281s.152 7.047-.46 8.885c-.613 1.838-1.532 4.289-2.911 5.516-1.379 1.226-5.055 2.757-5.821 4.136s-2.451 1.072-4.289 2.298-4.901 2.911-4.901 2.911l-3.218 3.37s-1.838 1.532-1.071 2.604c.766 1.072 3.37 2.298 3.37 2.298s2.91 1.991 1.379 3.218c-1.532 1.226-3.983.46-5.209.46-1.225 0-3.369 1.071-4.136 2.145-.766 1.072-4.289 1.991-5.515 1.686-1.227-.307-5.055-1.227-5.055-1.227s-1.072-2.298-1.991-1.991-3.064 1.532-4.137 1.532c-1.071 0-3.522-1.685-3.677-2.145-.152-.46-1.838-.46-2.911-.919-1.071-.46-1.685-2.146-2.757-1.686s-1.379 3.523-1.379 4.289 1.379 4.749 1.686 5.362c.306.613 1.99 3.063 1.685 4.442-.306 1.38-2.298 3.983-2.451 4.749-.153.767-.306 3.678-.306 3.678s2.451 1.531 3.522 2.145c1.072.613 2.146 1.379 2.299 2.298.152.919-1.38 2.604-3.37 4.749-1.991 2.146-.613 4.749-.46 6.435.152 1.685 1.685 3.217.766 5.82-.919 2.604-3.37 4.902-5.668 5.362s-7.66 1.685-9.498 2.298-7.047 2.146-8.119 1.227-4.596-5.516-5.515-6.74c-.919-1.227-1.991-5.821-2.911-6.74-.919-.919-6.434-3.217-7.2-3.677-.766-.46-4.289.153-6.74-.153-2.45-.306-4.289-3.522-7.353-2.911-3.064.613-4.902.153-6.74-.46-1.838-.612-5.668-1.991-6.74-1.226-1.071.766-4.749 3.982-4.901 5.055-.153 1.072-.153 2.757-.153 2.757s-2.757 1.838-3.063 2.604c-.307.766-2.299 3.982-2.758 4.596-.46.613-3.217 2.451-4.289 2.757-1.071.307-1.531-1.226-1.685-2.604-.153-1.379.46-3.064 1.379-3.37s.919-1.532-.153-1.379c-1.071.153-2.91-.919-3.522-1.532-.613-.613-1.991-1.838-2.451-1.991-.46-.152-1.685-.152-2.451-.152s-2.604 1.071-2.911 1.838c-.306.766-5.361.919-7.353 1.071-1.991.153-6.128.153-7.2 1.072s-4.749 4.749-5.362 5.668c-.612.919-.152 4.597-.152 5.516s1.838 2.757.306 3.217-2.911 1.379-3.063 2.757c-.153 1.379.152 4.902 1.226 4.749 1.072-.153 5.515-.46 5.515-.46s3.37 2.604 4.137 3.37c.766.766 2.604 5.055 2.45 5.82-.152.767 1.227.767.613 1.38-.613.612-3.37 3.37-3.37 3.37s1.686 2.45 1.838 3.677c.153 1.226-1.685 3.83-2.298 3.83s-2.145-.46-2.604.612c-.459 1.073-.767 5.056-.767 5.668 0 .613.767 2.451.919 3.37.153.919-.919 5.056-.919 5.056l1.838 6.587-.919 3.83 1.686 5.668s-.307 3.217-.307 3.83c0 .612.613 3.217 1.227 4.596s-.306 3.217-.919 2.911c-.613-.307-1.072.919-.919 1.379.152.46 1.226 2.604 1.226 2.604v2.758l2.146-.613h1.071s-.306 3.217.153 3.37c.46.153 2.146.153 2.146.153l.306-1.686 1.991-2.145s1.838.46 2.604.766c.767.306-.152 1.532-.306 2.604-.153 1.072-.153 4.289-.306 4.749-.153.46-2.146 1.532-2.146 2.146s1.685 3.37 2.146 3.982c.46.613.46 3.37 1.379 3.37s3.369-1.838 4.136-1.838c.766 0 4.749 1.072 4.596 4.289s-2.145 4.902-3.063 5.668c-.919.767-2.299 2.146-2.146 2.604s4.136 2.145 5.208 2.604c1.072.46 2.146 4.137 2.146 5.821s-1.379 5.362-1.838 6.281c-.461.919-2.146 2.45-2.146 3.83 0 1.379.613 4.136-.766 4.289-1.379.152-5.516.766-6.435 1.991-.919 1.227-1.685 2.911-1.685 4.137s3.063 5.974 3.063 7.353-1.531 4.596-1.685 5.821c-.153 1.225-4.443 6.587-4.902 7.353-.46.767-2.298 3.678-.612 5.208 1.685 1.532 5.974 5.516 6.739 8.272.767 2.757.153 6.281-.152 6.74-.307.46-1.991 2.45-1.227 3.217.767.766 5.362 3.063 6.587 4.442 1.226 1.379 1.991 4.289 1.379 5.668-.612 1.38-1.838 2.911-2.45 2.451-.613-.46-3.523-4.136-4.902-4.749-1.379-.612-6.587.767-7.506 1.686s-3.064 7.047-4.289 7.2c-1.226.152-7.2.919-8.426 0-1.227-.92-3.064-3.218-3.523-3.523-.46-.306-2.604-1.227-3.217-.46-.613.766-2.298 1.685-3.37 1.685s-1.686 4.443-2.146 5.516c-.46 1.071-3.217 1.99-3.217 3.982 0 1.991-.152 4.597.767 5.821.919 1.226 2.91 1.838.766 4.136s-6.434 5.821-7.353 4.749c-.92-1.072-1.686-2.298-1.532-3.217.152-.919 1.226-2.451.46-3.064-.767-.612-1.838-.152-2.298 1.227s-.307 3.217-.613 5.055c-.306 1.838-1.532 4.597-3.217 6.128-1.686 1.532-5.668 7.047-7.047 7.354-1.38.306-3.83-.919-4.902-1.072s-2.911-.766-3.37-2.145c-.46-1.38-.919-3.983-.306-6.129.612-2.145 3.37-3.677 4.596-5.361 1.226-1.686 1.991-3.523 1.226-4.902-.765-1.379-2.145-4.136-1.99-5.515.152-1.379.46-4.597.46-4.597 1.226-1.531 1.685-.46 3.063-1.379s2.451-1.531 3.677-1.838c1.227-.306 3.678.153 3.523 1.686-.153 1.531-.613 3.369-.613 3.369s1.686-.612 2.451-1.379c.767-.766.919-2.45.919-3.83 0-1.379.613-3.217.613-4.596s-1.072-2.145-2.451-2.145-1.838.46-3.37 1.838c-1.532 1.379-1.838 2.298-3.83 2.451-1.99.152-4.596-1.839-5.361-2.911-.767-1.072-1.227-2.604-1.227-3.523s-.613-1.379-1.226-1.226c-.613.152-.307 1.838-2.298 1.685-1.992-.153-4.902-1.991-7.2-2.911-2.298-.919-4.749-3.83-5.821-4.289-1.072-.46-5.208-1.685-5.974-2.451-.767-.766-3.37-5.668-3.217-6.28.152-.613-1.991-3.983-1.991-5.668 0-1.686-.767-5.516 0-5.668.766-.153 1.991-.767 1.685-1.839-.306-1.071-1.532-1.071-2.145-2.145-.613-1.072-1.379-2.604-1.227-3.217.153-.613.919-2.757 1.532-2.604.613.153 2.604-.919 1.532-1.531-1.072-.613-4.749-.613-6.128-.307s-3.678 1.532-4.749 1.072c-1.072-.46-4.597.153-5.975.306-1.379.153-1.99 2.911-1.99 3.983s-.613 4.596-.307 6.434 1.686 5.056 2.298 6.587c.613 1.532 2.451 5.056.919 8.119-1.531 3.064-1.379 5.056-3.522 6.74-2.146 1.685-2.757 1.072-4.289 2.145-1.532 1.073-3.217 2.604-3.983 1.991-.766-.612-9.037-7.353-10.264-11.488-1.226-4.137-2.911-5.516-3.522-5.975-.612-.459-2.758 0-3.37-.766-.613-.767-1.686-2.604-1.686-2.604l-3.83-1.226-.152-3.677-2.911-.919s-2.911 2.45-3.677 1.99c-.767-.46-5.669-1.379-5.669-1.379s-2.91-5.361-3.217-6.434c-.306-1.072-3.982-5.975-3.982-5.975s-1.227-2.757-1.227-3.217-1.071-6.434-1.071-6.434l-1.227-5.362s-1.838-4.596-.919-7.047 3.064-5.821 6.434-6.894c3.37-1.072 8.272-1.532 10.111-3.218 1.838-1.685 4.136-5.055 5.208-6.739 1.072-1.686 3.37-2.911 3.83-4.749s1.072-4.289-.306-4.289-7.966.46-9.346-1.227c-1.379-1.685-2.91-5.055-3.369-7.2-.46-2.145-2.604-6.739-3.523-8.118-.919-1.38-3.064-3.983-2.604-6.281.46-2.298 2.145-7.2 1.685-9.038s-5.362-4.596-6.128-5.974c-.767-1.38-1.532-3.37-1.379-4.597.152-1.226 1.379-5.208 1.991-6.894s-.613-7.813-1.38-9.498c-.766-1.686-1.226-7.2-1.99-9.345-.767-2.146-2.146-6.435-3.218-7.813-1.071-1.379-4.749-5.515-6.128-6.128s-6.434-8.885-9.19-10.57c-2.757-1.685-8.119-4.136-11.336-3.063-3.217 1.071-7.966 3.063-9.957 3.83-1.991.766-7.2.766-9.651 1.838s-5.974 1.991-8.271 2.911c-2.299.919-7.967 1.379-9.805 2.911-1.838 1.531-6.587 6.128-7.506 6.128s-27.268 2.45-27.574 1.379c-.306-1.072-1.99-3.217-2.45-5.208s-.767-3.983-2.146-5.821-4.136-4.289-5.055-5.055c-.919-.767-1.991-2.451-3.37-3.983s-2.757-2.911-4.289-3.522c-1.532-.613-3.83-1.992-3.83-3.37s1.072-3.064 1.685-4.749c.613-1.686 2.911-2.451 3.678-3.37.766-.919 2.757-3.83 3.37-3.983.612-.152 3.522.613 4.289.46.766-.152 3.369.153 3.063-.919-.306-1.071-1.072-1.226-1.532-1.991s-.612-3.677-.306-4.748c.306-1.072 1.685-2.146 2.298-2.911.613-.767 2.604-3.83 2.604-3.83s1.99-.307 2.91 0c.92.306 2.451 2.757 3.064 2.911.613.152 3.83.46 3.83.46s1.685 0 2.757.919 2.757 2.911 2.451 3.522c-.306.613.613.613 1.379.613s.919-1.838 1.072-3.217c.152-1.379-1.532-2.757-1.379-4.136.152-1.38 1.071-2.604 1.685-3.83.613-1.227-.766-3.983-2.451-5.056-1.685-1.071-5.361-4.749-5.668-5.361-.306-.613-1.379-2.451-1.226-3.218.152-.766 3.677-3.83 4.136-4.289s2.298-3.369 2.911-4.289c.613-.919 3.983-.766 4.596-1.379.613-.612.153-1.838 1.838-2.757 1.686-.919 4.443-1.226 5.516-1.685 1.071-.46 1.226-2.298 1.838-2.911.613-.613 1.379-.46 2.298-.766.919-.307-.306-2.299 1.532-2.451 1.838-.153 3.063 2.911 3.677 3.83s1.226 2.911 2.757 3.063c1.532.153 3.37-.919 4.289-2.145.919-1.227 2.298-2.911 1.838-4.289s-1.838-1.686-1.991-2.298c-.152-.613-1.226-2.451-1.226-2.451s-1.072-.153-1.072-1.532 1.532-3.983 1.532-3.983 2.146-1.685 3.217-1.838c1.072-.152 4.902 0 4.902 0s1.685 1.991 1.838 2.604-.919 1.991 0 2.145 2.757 0 2.757 0 2.298-.766 3.37-1.532 4.289-2.45 2.757-6.894-4.136-6.74-3.677-7.966c.459-1.227.766-3.064.153-3.677s-5.056-4.137-5.056-4.902-.152-6.74-.152-6.74l-1.686-1.991s.613-3.982-.46-4.596c-1.072-.613-2.604-1.379-3.677-1.685-1.072-.307-3.677-.307-4.136-1.532-.459-1.227-1.532-3.677-3.218-3.677-1.685 0-6.28-.613-7.353-.46-1.072.152-2.451-2.299-2.604-3.218-.152-.919 1.072-4.136 1.686-4.136s2.451-.46 3.063-1.379c.613-.919.153-4.289-.46-5.208-.612-.919.46-3.37 1.072-3.677.613-.307 3.217-1.227 3.983-1.532.766-.306.766-2.451.152-2.911-.612-.46-4.289-3.217-4.289-5.208s-1.838-4.136-1.379-6.128 1.991-5.362 2.451-6.587 2.451-4.749 2.757-5.362c.307-.612 3.523-1.838 4.443-2.911.919-1.071 2.757-3.369 3.217-3.83.46-.46 2.604-2.45 3.217-2.298.613.153 1.686 1.532 2.758 1.686 1.071.152 2.757.766 3.677 1.379.919.613 3.063 2.451 3.982 2.911s2.299.46 3.218.612c.919.153 1.99-1.379 1.838-2.298-.153-.919.46-2.145 1.532-2.298 1.071-.153 2.145.46 3.063-.613.919-1.071 1.072-1.99 1.072-3.369 0-1.38-.153-2.299.306-2.758s.767-1.531 1.072-2.145.306-5.974-.46-7.2c-.767-1.226-4.289-2.911-4.289-4.902 0-1.99 1.379-5.208 1.379-6.434s-1.685-4.902-1.991-6.74c-.306-1.838-1.532-4.289-1.226-5.668.306-1.379 1.685-4.289 2.298-6.434.613-2.146 1.991-2.757 3.37-3.523s2.604-1.379 3.522-3.677 1.532-4.596 1.991-5.974c.46-1.379.767-4.749-.613-6.435-1.379-1.685-3.829-3.217-3.982-4.901-.153-1.686-1.379-4.289-1.379-6.281 0-1.991 1.226-4.902 2.298-5.515 1.072-.613 4.596-3.064 5.515-4.137.919-1.071 5.668-5.82 6.74-7.047 1.072-1.226 4.289-3.37 5.208-3.982.919-.613 3.217-2.451 4.289-4.289s2.145-4.902 3.677-5.821 4.443-1.991 4.443-1.991.152-1.071 1.379-.766c1.226.306 4.596 4.443 4.749 5.208.153.766 1.838 1.838 3.37 1.685 1.532-.152 3.522-.306 4.442-.46.919-.152 2.911-1.226 3.83-.152.919 1.071 2.757-.767 3.218-1.379.46-.613 2.45-2.146 3.063-2.146s2.604-1.532 3.064-2.451.306-5.055 1.071-6.128c.767-1.072 2.146-3.982 3.064-3.982s3.677-1.072 3.677-1.072 1.686-.46 1.686-1.532-.613-2.298-.92-3.522c-.306-1.226 0-2.758.461-3.37.46-.613.612-5.516 1.531-6.895s4.289-5.515 5.821-7.047 3.983-4.749 4.902-5.821c.919-1.071 3.677-3.677 4.289-4.289.611-.611 2.298-1.99 1.99-3.369-.307-1.38-.46-3.218-.766-3.83-.306-.613-.766-1.227-1.379-1.379-.613-.153-1.838-.767-1.532-2.146s2.146-3.983 1.991-4.902c-.153-.919-1.227-3.829-1.686-5.361-.46-1.532.613-5.516 1.991-6.74 1.379-1.226 4.597-2.757 5.975-3.064 1.379-.306 4.901.153 6.587.307 1.685.152 6.894.306 7.506.46.613.153 5.055 1.991 5.668 1.991s3.217.919 3.83.919c.612 0 1.072-2.298 3.522-3.523 2.451-1.225 2.911-1.226 4.749-1.226s5.208 1.531 5.056-.307c-.153-1.838-4.137-1.226-4.597-2.91-.46-1.686-.766-3.678-.152-5.056.612-1.379 4.136-5.668 5.82-7.2 1.686-1.531 5.362-4.749 5.821-6.587s1.072-6.739 1.072-6.739.612-1.686 1.532-2.604c.919-.919-.767-2.451-1.686-3.217-.919-.767-3.37-3.37-3.677-5.516-.306-2.145-.767-6.739-.46-8.271.306-1.532 1.226-4.136.46-4.443-.767-.306-3.83-1.99-4.443-2.604-.612-.613-3.063-1.838-3.37-1.379-.306.46-2.45 2.451-3.522 2.911s-4.596 1.531-5.362 1.531-3.522.46-3.982.919c-.461.46-2.146 2.911-2.911 3.218-.767.306-2.451 1.226-3.83.612-1.379-.612-1.686-2.911-2.757-4.136-1.072-1.226-2.451-3.983-3.37-4.289s-2.298-1.685-1.686-3.677c.613-1.991 2.298-4.289 3.523-5.208s3.217-2.911 3.83-3.83c.612-.919.919-3.217 1.838-4.749s3.37-4.749 3.37-4.749 2.604-1.838 3.522-1.685c.919.152 2.298-.307 2.911-1.38.613-1.071.46-2.45 1.532-2.91s1.838-.613 2.298-1.991c.46-1.379 1.226-3.217 1.838-3.83.613-.613 2.911-.306 4.596-.46 1.686-.154 5.516.46 6.588.613 1.071.152 3.063-.153 4.442-.919 1.379-.767 4.596-3.064 6.281-3.523 1.685-.46 6.434-.46 7.353-.153s4.137 0 5.208 1.072c1.072 1.072 1.991 1.991 3.218 1.838 1.226-.153 3.83-2.145 5.208-2.604 1.379-.46 3.369-1.532 5.055-1.227 1.685.307 4.289 1.532 5.208 1.532s3.063-.153 3.217-1.838c.153-1.686-.613-3.83-.306-4.749.306-.919.766-4.443.766-4.902s-1.072-1.071-3.522-2.145c-2.451-1.072-2.299-2.757-2.451-5.208-.153-2.451-1.227-3.37-2.146-4.749s-5.055-4.902-4.136-6.281 1.991-2.757 3.37-3.063 3.983-.92 4.443-.767c.462.165 3.392-.522 3.392-.522z"/></g></g><g id="_x31__x5F_waldeck_x5F_frankenberg"><g><path stroke-linejoin="round" stroke-miterlimit="10" d="M182.5 244h8.5l8.5 2 6.5-3.5 5.5-4.5 2-5 6-.5 3 .5 3 4.5h3v4l7-4.5 5 7.5H251l1.5-2 5.5 1.5 7 3 1.5-2.5V240l6.5 2.5 4 6.5 3 4 3-2h8l1.5-4.5-4.5-8 11-8.5 7.5-6.5 1.5-5 1-4 8-2.5 3-6 2-3-1-3 4.5-1.5 3.5-3 3-5 .5-3-5-6.5.388-7.354-.189.073-2.457-2.703-3.686-8.354-6.145-6.636.246-6.635-3.44-1.229-2.948-3.44-.492-4.178 5.161-2.457-1.229-2.703-1.72-3.932.246-4.669.246-4.915-1.229-3.44 5.406-2.457-1.229-1.966-3.195-2.703-.246-2.949 2.949-1.229 3.194-1.721 1.967 3.44 3.439.737.737-3.687 1.72-2.457-1.72-3.439-.246-4.423-3.195-1.229-.736-2.949 2.948-.246.492-3.932-1.229-5.161-.981-2.552h.001a2.354 2.354 0 0 1-.436.059c-.783 0-4.983-.247-5.107-.288s-1.153-.412-1.153-.412l-2.842.783-1.894-.412-.988-1.029-.783-1.03-.577-1.854-.37-1.399-.082-1.483.205-1.152.535-1.524 1.03-1.236.494-1.317.618-1.73.124-1.193-.082-1.854-1.565-1.771-2.553-.165-3.542-.453-2.265-.329-2.596-.247-1.688-1.813-1.359-.823-1.977.74-1.896.865-2.636.947-3.171.206-2.553.947-1.647 1.235-2.924 1.565s-2.932.687-3.392.533c-.46-.154-3.063.46-4.442.766s-2.451 1.685-3.37 3.064 3.217 4.901 4.136 6.28 1.991 2.298 2.146 4.749c.153 2.451 0 4.137 2.45 5.208 2.451 1.072 3.523 1.686 3.523 2.146s-.46 3.982-.766 4.901c-.307.919.46 3.064.306 4.749-.154 1.686-2.298 1.838-3.217 1.838s-3.523-1.226-5.208-1.531c-1.686-.307-3.677.766-5.056 1.226s-3.982 2.451-5.208 2.604c-1.226.152-2.145-.767-3.217-1.839-1.071-1.071-4.289-.766-5.208-1.071-.919-.307-5.668-.307-7.353.152-1.686.46-4.902 2.758-6.281 3.523s-3.37 1.072-4.443.919c-1.072-.153-4.901-.766-6.587-.613-1.685.153-3.982-.152-4.596.46-.613.613-1.379 2.451-1.838 3.83-.46 1.379-1.226 1.532-2.298 1.992s-.919 1.838-1.532 2.911c-.613 1.072-1.991 1.532-2.911 1.379-.919-.153-3.522 1.685-3.522 1.685s-2.451 3.218-3.37 4.749c-.919 1.532-1.227 3.83-1.838 4.749-.613.919-2.604 2.911-3.83 3.83-1.227.919-2.911 3.218-3.523 5.208-.613 1.991.767 3.37 1.686 3.678.919.306 2.298 3.063 3.369 4.289 1.072 1.225 1.38 3.522 2.758 4.136 1.379.613 3.063-.307 3.83-.613.766-.307 2.45-2.757 2.91-3.217s3.218-.919 3.983-.919 4.289-1.072 5.362-1.532c1.071-.46 3.217-2.451 3.522-2.911.307-.46 2.757.767 3.37 1.379.613.613 3.677 2.298 4.443 2.604.766.306-.153 2.911-.46 4.442-.308 1.532.152 6.128.46 8.272.306 2.145 2.757 4.749 3.677 5.515.919.767 2.604 2.298 1.685 3.218-.919.919-1.531 2.604-1.531 2.604s-.613 4.902-1.072 6.74c-.46 1.838-4.136 5.055-5.821 6.587-1.685 1.532-5.208 5.821-5.82 7.2-.613 1.379-.307 3.37.152 5.055.46 1.685 4.443 1.072 4.597 2.911.152 1.838-3.218.306-5.056.306s-2.298 0-4.749 1.227c-2.451 1.226-2.911 3.522-3.522 3.522-.613 0-3.218-.919-3.83-.919-.613 0-5.056-1.838-5.668-1.991-.613-.152-5.821-.306-7.506-.46-1.686-.152-5.208-.612-6.588-.306-1.379.306-4.596 1.838-5.974 3.063-1.378 1.227-2.451 5.208-1.991 6.74s1.532 4.443 1.686 5.362c.152.919-1.686 3.522-1.991 4.902-.306 1.379.919 1.99 1.532 2.145.612.153 1.071.766 1.379 1.379.306.613.46 2.451.766 3.83.307 1.379-1.379 2.757-1.991 3.37s-3.369 3.217-4.288 4.289c-.92 1.072-3.37 4.289-4.902 5.821-.735.734-1.894 2.069-3 3.411L174 238.5l8.5 5.5z"/></g></g><g id="_x32__x5F_kassel"><g><path stroke-miterlimit="10" d="m434.842 143.984-1.721-2.457-4.178-1.72-4.423-2.457-.246-4.423 1.474-2.703 3.44-.983 6.414-.293-.423-.275-3.37-1.991-2.757.306-3.678.153-3.063-.153-.153-3.369-1.071-1.227h-4.137l-5.515-4.902-4.443-.919-1.991-2.604-3.217-1.992-1.838-1.379 1.226-.766 2.451 1.531s3.677.919 5.362.613c1.685-.306.919-3.522.153-3.983-.767-.46-3.218-1.99-3.983-3.063-.766-1.072 3.217-2.911 4.902-4.749 1.685-1.838 3.063-.613 4.749-.613 1.685 0 4.442-2.911 5.361-4.289.92-1.378 3.218-7.047 3.37-7.66.153-.612-.152-8.885-.152-9.497 0-.613.919-3.523.919-3.523l-3.523-3.83-4.596-7.2-2.451-4.136.46-1.532s2.451-1.532 3.522-1.838c1.072-.306 1.991-3.37 2.604-3.83s4.597-1.072 5.668-1.072c1.072 0 1.838-2.604 1.992-3.982s-3.522-3.064-4.902-3.83c-1.379-.766-1.838-2.604-1.685-4.443.153-1.838 1.072-1.838 2.145-1.99 1.073-.153 3.064 2.145 3.983 2.91.919.767 3.523 3.064 5.055 3.523 1.532.46 2.298-.766 2.604-3.677.306-2.911-3.523-5.668-4.289-6.281s-4.443-4.749-5.362-4.749-2.451-2.604-2.451-3.983-.306-3.217-.919-4.596c-.612-1.379-2.145-.766-3.677-.306s-2.505 1.824-2.505 1.824c-.577.164-5.685.164-6.466.164-.782 0-2.06-2.471-3.255-3.829-1.193-1.359-1.523-.288-1.523-.288s-3.13 2.759-4.201 3.377-2.471.329-2.595.371c-.124.041-2.718-2.678-2.718-2.678l-.494-3.871s-.165-3.87-1.194-4.776c-1.03-.906-2.718-.618-2.718-.618l-2.965 1.318-3.583 2.224-2.101 3.212-3.666 3.377-4.282 1.153-5.932.659-1.771 1.235-3.954 1.524-2.924 1.977 1.235 2.472 1.689 1.605 2.636 1.483.494 1.646-3.089 2.965-2.266 3.954-4.571 5.313-1.071 1.235.165 7.537-.741 1.277-1.936.824-3.377.206-1.071.905-2.389 2.184-2.843 2.389-3.254.577-.741 1.771-1.482 1.276-2.759.659-1.771 1.524 1.112 1.44.247 2.883-.618 1.978-2.801-.577s-3.46-.247-3.624-.247-2.266.947-2.266.947l-1.729 4.324s-1.545.651-2.49.847l.981 2.552 1.229 5.161-.492 3.932-2.948.246.736 2.949 3.195 1.229.246 4.423 1.72 3.439-1.72 2.457-.737 3.687-3.439-.737-1.967-3.44-3.194 1.721-2.949 1.229.246 2.949 3.194 2.703 1.229 1.966-5.406 2.457 1.229 3.44-.246 4.915-.246 4.669 1.72 3.932 1.229 2.703-5.161 2.457.492 4.178 2.948 3.44 3.44 1.229-.246 6.635 6.145 6.636 3.686 8.354 2.457 2.703 6.389-2.457.983-2.949 1.474-3.686 6.39.492 3.194-5.406.492-4.423-.246-4.915 1.966-5.161 2.949 2.703 5.898-2.212h5.161l1.966 6.144 6.881 1.474 2.457 4.179 4.915-1.721 2.703-.736 6.635 1.966 3.44 3.195 3.686-1.229 1.72-2.212 2.703 1.966.983 1.966 1.966-1.72 3.195 1.229 1.474 1.474-.737 2.949 3.687 5.651 4.915 3.195 2.703-1.966 3.932-1.72-.491-5.898 3.194-3.439 4.669-2.457 1.966-4.424 3.44-3.932 4.915.983 4.915.246 3.195-2.457.491-4.179-3.932-.736-9.089.486z"/></g></g><g id="_x33__x5F_werra_x5F_meisner"><g><path stroke-linejoin="bevel" stroke-miterlimit="10" d="M540.729 189.181c.153.766 2.298 2.146 2.298 2.146s2.757 2.45 3.37 2.45.613-3.522.613-3.522l.152-7.047.307-5.975.306-3.83 2.146-1.838 1.531-1.992-1.531-1.379s-2.757-.152-3.523-.152-3.063-1.227-3.063-1.227l-2.758-2.757-1.99-3.37-4.75-.46s-2.298-2.757-2.757-2.757c-.46 0-3.522-.766-3.522-.766l-4.289-1.532-4.596-.767-3.678-1.071v-3.523l-1.531-1.838-2.299-1.072-1.838-1.685 1.686-1.227 1.071-1.531v-2.146s-2.145-1.685-2.757-1.991c-.613-.306-4.749-1.226-4.749-1.226l-3.063-2.298-3.217-.767-2.758-.612-2.757-1.992-1.838-1.685-3.37-1.991.153-1.991.613-2.298-.613-3.064-.613-2.757-1.226-4.749-.767-5.208.307-2.911-1.686-3.522-1.685-4.137s-1.838-2.604-2.298-2.91-.767-.919-.767-.919l-1.226.612s-1.072.919-1.532 1.072-.919.919-.919.919l-2.298.153-.919-1.379-1.686-.919-.766.919-.919 1.99.613 2.911 1.531 5.208 1.072 2.604-1.838 1.685-1.992-2.145-.306-2.451-.919-3.677-1.532-3.37-3.523-1.992s-3.063-.306-3.829-.153c-.767.153-.92 2.146-.92 2.146l.767 3.217-1.686 2.757-2.145.613-3.83-.46-1.685 1.532-1.532 1.226-1.838 1.226-2.146.307h-1.532l-2.757.919-.152 2.911.612 1.685 1.072 1.227 1.685 1.685s.767 1.685.92 2.145c.152.46.152 3.218.152 3.218l1.379 2.45.613 1.227.46.613 1.072.306 1.992-2.298 1.071-.919 1.379-.307 1.072.767.153 1.379-.153 1.992-1.226 1.685-2.146 1.992-2.145.919-1.686 1.838-1.379.306-1.992-1.226-2.757-1.379-3.1-2.022-6.414.293-3.44.983-1.474 2.703.246 4.423 4.423 2.457 4.178 1.72 1.721 2.457 9.092-.492 3.932.737-.492 4.178-3.194 2.457-4.915-.246-4.915-.982-3.44 3.932-1.966 4.423-4.669 2.457-3.195 3.44.448 5.374L424 170.5l5-.5 5.5 2 1 5 7 6 3.5.5 4-1.5 2 4-.5 8.5v10l6 .5 3.5-.5 2.5 4 4.5 1.5 3 2.5 1.5 3.5 6 1.5 5-2 5 .5 4.5 4.5 2-.5 4.5 4-4 7.5 4 3h3.932c.2-.443.743-1.652.991-2.272.306-.766 2.45-1.072 2.45-1.072s3.678-.766 4.289-.766c.612 0 4.902-.306 4.902-.306s4.902 2.145 5.515 2.145c.613 0 4.289 1.072 4.902 1.227.613.152 1.072-.767 1.072-.767l2.145-.766 1.686.613 1.685 2.298s2.298.612 3.064.46c.766-.153 3.677-.153 3.677-.153s3.983-3.217 4.596-3.677c.613-.46 1.686-4.902 1.686-5.362s-.767-1.379-1.072-1.991.46-1.379.919-1.531c.459-.153 2.604.152 2.604.152l.461-2.911-4.75-2.757-5.361-1.991s-2.911-2.604-3.677-2.91c-.767-.307-.46-6.128-.46-6.128s.919-5.208.919-5.821 3.063-3.83 3.522-3.83c.46 0-.152-3.064-.152-3.064s-1.38-1.379-1.839-1.531c-.46-.153-2.45-1.072-2.45-1.072l-2.911-1.991s-2.451-2.604-2.911-3.37c-.46-.766 1.072-2.298 1.072-2.298l2.298-1.226s2.45-.767 3.217-1.072c.766-.306 3.37.766 3.83.766s1.226 2.911.919 3.523c-.306.609.306 3.366.459 4.132z"/></g></g><g id="_x34__x5F__hersfeld_x5F_rothenburg"><g><path stroke-miterlimit="10" d="M513.308 266.696h-1.227l-3.369-1.071-2.299-2.757-3.522-1.992-2.757-.767s-1.838 1.532-2.299 1.838c-.459.307-1.685 1.227-1.685 1.686 0 .46-1.226-1.227-1.226-1.227s-.613-1.685-.613-2.604.153-3.064.153-3.83-1.532-1.226-1.991-.919c-.46.306-2.757 0-3.064.46-.306.46-.919 1.226-.919 1.226l-1.991-2.45.612-1.379.919-.767 1.686-.152 1.379-.307 1.685-.613 1.379.767 1.532 1.226 2.298.46s1.838-1.071 2.451-1.071 1.379.46 2.146.766c.766.306 3.369-.306 4.136-.306.766 0 1.685-3.064 1.379-3.678-.306-.612-2.298-2.757-2.298-2.757l-1.532-4.901-1.532-3.523.613-3.37s.034-.075.081-.179H499.5l-4-3 4-7.5-4.5-4-2 .5-4.5-4.5-5-.5-5 2-6-1.5-1.5-3.5-3-2.5-4.5-1.5-2.5-4-3.5.5-5.673-.474L449.5 207l-7 .5-7-2-5 4.5-5.5 2-2 2.5-1.5 4.5-8.5 4h-4l-.5 4 1 6 .5 1.5-3.5.5-2.5 5 .5 5 3 4.5-9 1.5-5 3.5.5 5.5-5 5 3.5 6-1 7 4 8-1.5 7-9 5-4 3-3.5 9 4-1 3.5 2.5 5 4 4 6 8-5 6.5-5 6 3 1 6 2-1 4 3.5 3.5 1.5 2.5 2 5-5 6-2.5 2-5-2-3.5 2-3.5 6.5-7 8-3.5 7 .5 6.5 2.5 6.5 5 3.5 4 6.112 3.396.968-1.694 1.072.46 1.838.613 1.532-1.838-1.379-4.596s.306-3.064.919-3.83c.613-.767.766-3.064.46-3.83s1.532-3.37 2.146-4.136c.612-.767 2.604-.919 3.369-1.072.767-.153 4.749 0 5.668.46.92.46 1.991.766 1.991.766l1.532-1.531 1.072-2.451s1.071-2.146 1.226-2.757c.153-.613.767-1.838.767-1.838l1.379-2.299-.92-1.531-1.071-.919.153-1.072.766-.766 1.992-1.227 2.298-2.298 1.532-1.838.306-2.757-.92-3.219z"/></g></g><g id="_x35__x5F_schwalm_x5F_eder"><g><path stroke-miterlimit="10" d="M451.5 204.5v-10l.5-8.5-2-4-4 1.5-3.5-.5-7-6-1-5-5.5-2-5 .5-2.472-1.236.043.523-3.932 1.721-2.703 1.966-4.915-3.195-3.686-5.652.738-2.949-1.475-1.475-3.195-1.228-1.965 1.72-.983-1.966-2.704-1.966-1.72 2.212-3.686 1.228-3.44-3.194-6.635-1.966-2.704.737-4.914 1.72-2.458-4.177-6.881-1.475-1.966-6.143h-5.16l-5.898 2.211-2.949-2.703-1.966 5.161.246 4.915-.492 4.423-3.194 5.406-6.39-.491-1.474 3.686-.983 2.949-6.389 2.457.189-.073L327.5 181l5 6.5-.5 3-3 5-3.5 3-4.5 1.5 1 3-2 3-3 6-8 2.5-1 4-1.5 5-7.5 6.5-11 8.5 4.5 8-1.5 4.5h-8l-2.541 1.694.041.306 4 2 2.5 1.5 1 4.5 4 2 1.5-5 3-1 4.5 2.5 4.5-1 5.5 2.5 1.5 5.5-4 2.5 4.5 6.5 2 2.5 2.5 9 5 .5 6 4 6-2 1.5 2.5h5.5v5.5l5 .5 6-1.5 3 4 7.5-1.5 1 4 5 5.5 2.5-6 8.79.325L381 301l4-3 9-5 1.5-7-4-8 1-7-3.5-6 5-5-.5-5.5 5-3.5 9-1.5-3-4.5-.5-5 2.5-5 3.5-.5-.5-1.5-1-6 .5-4h4l8.5-4 1.5-4.5 2-2.5 5.5-2 5-4.5 7 2 7-.5 2.327-2.473"/></g></g><g id="_x36__x5F_fulda_Kopie"><g><path stroke-miterlimit="10" d="m475 304.5-6.5-5-6.5-2.5-7-.5-8 3.5-6.5 7-2 3.5 2 3.5-2 5-6 2.5-5 5-2.5-2-3.5-1.5-4-3.5-2 1-.003-.017v6.331l1.376 4.954 1.651 4.679 1.927 3.304h3.304l-.275 2.477-3.303 4.129-1.928 3.854v2.477l2.753 3.303s2.752 2.752 1.927 3.028-4.954 2.752-4.954 2.752l-2.752 3.028-5.505 1.101-3.304-3.303-3.027-2.478-.551-3.027-1.927-3.854-8.257 1.102-3.028-4.129-1.376-3.304s-1.927-3.853-3.303-1.65 1.651 3.027 1.927 4.403-1.101 8.809-1.101 8.809 6.055 3.027 5.779 4.954c-.274 1.927-3.303 7.155-3.853 9.357s.55 3.578 1.651 4.954 2.752 3.578 1.65 4.404c-1.101.826-6.881 1.376-7.155 2.752-.275 1.376-1.928 6.605-1.928 6.605l-1.65 3.578-.551 4.68s-3.303 5.229-3.303 6.055-1.376 2.752.55 3.578c1.928.826 5.229-1.102 5.229 1.101s-2.478 5.78.274 7.156c2.753 1.376 5.23 3.853 5.23 5.78s.826 7.432.826 7.432 6.881 5.505 8.257 7.156c1.376 1.65 5.505 3.853 8.257 3.028 2.752-.825 3.028.55 6.331-.551 3.303-1.1 3.854-3.578 5.23-1.927s2.477 2.752 4.954 4.404c2.477 1.65 7.155 1.101 8.808 2.752 1.652 1.65 3.854 4.404 5.78 4.129.904-.129 4.168.044 7.38.265.239-.919 1.073-4.104 1.464-5.408.46-1.532.919-3.678 1.532-4.749.613-1.072 0-4.597-.306-5.821-.307-1.227.766-1.992 1.99-2.757 1.227-.767 3.217-.307 4.749-.307s2.911-.306 3.983.46c1.072.767.766 2.604.766 2.604s2.604 1.532 3.983 2.145 5.055 2.911 7.2 3.218c2.145.306 2.145-2.146 2.91-1.839.767.307 1.839 1.227 2.911 1.227s1.532-1.992 2.911-2.298c1.379-.307 2.757-.307 3.37-.767s3.064-3.677 3.983-4.136c.919-.46 3.982-1.379 3.982-1.379s2.451-2.298 3.37-3.064 4.597-5.208 5.362-6.28 6.434-6.587 7.353-7.813c.919-1.226 3.218-8.426 3.523-9.804.306-1.379.153-8.885.153-9.804s3.982-7.507 4.442-9.038c.46-1.532-2.757-4.902-2.45-6.281.306-1.379-.92-6.587-1.072-7.353-.153-.767-.767-2.299-.46-3.678.306-1.379 0-3.063.612-4.136.613-1.072 3.218-2.298 4.137-1.226.919 1.071 2.451 1.531 2.91.919.461-.613.307-4.597 0-5.516-.306-.919-1.838-6.128-2.297-7.966-.461-1.838-3.983-4.596-4.443-5.208-.46-.613-4.902-.306-6.281-.306s-4.596-.767-5.668-.613-4.902 2.298-5.821 2.911-3.522 2.757-3.83 3.83c-.306 1.071 1.686 1.992 2.146 2.604.46.613 1.379 2.757.919 3.218-.46.46-2.451 3.217-2.911 3.522s-2.298.153-3.064.153-3.217-2.298-3.217-2.298l-2.911-1.839s-1.685-.152-2.145 0c-.46.153-1.072 1.532-1.072 1.532l-1.685.153s-.767-1.532-.919-2.146c-.153-.612 1.071-1.838 1.071-1.838s.307-1.685.307-2.145-.46-1.686-.613-2.146-.46-3.063-.46-3.063l1.532-1.379s1.532-1.838 2.911-2.911c1.379-1.072.919-.613.919-.613l2.145-1.991 1.379-2.45-.612-1.992-.767-1.686 2.146-1.379 1.226-1.685 1.227-2.146.766-3.063 1.072-2.604-.153-4.442-1.991-1.532-1.226-1.227-.153-2.145.258-.451-6.11-3.389-3.5-4z"/></g></g><g id="_x37__x5F_main_x5F_kinzig_1_"><g><path stroke-linejoin="round" stroke-miterlimit="10" d="M436.14 449.847c-1.927.274-4.129-2.478-5.78-4.129-1.651-1.652-6.331-1.102-8.808-2.752-2.478-1.651-3.578-2.752-4.954-4.404s-1.928.826-5.23 1.927c-3.303 1.102-3.578-.274-6.331.55-2.753.825-6.881-1.376-8.257-3.027s-8.257-7.156-8.257-7.156-.826-5.505-.826-7.432c0-.889-.53-1.893-1.367-2.854l-1.566 1.072-3.385 3.384s0 1.48-.635 1.48c-.634 0-2.326-1.058-2.326-1.058l-.846 2.115-.635 4.653-3.597 1.691-2.537 1.692-1.058 2.75h-2.961l-2.961-1.27-1.904.847-1.48 1.903-2.115-2.114-.635-1.27s-.211-2.327-.211-2.961 1.48-2.538 1.48-3.807c0-1.27 0-4.653 0-4.653l-2.327-6.134-1.691-1.058s-.846-.423-2.538-1.058c-1.692-.634-4.442-3.172-4.442-3.172h-2.114l-.847 3.384s-.211 3.807-.211 4.442c0 .133 0 .36 0 .635 0 1.033 0 2.75 0 2.75l-2.75 5.288s-1.903 1.479-2.326 2.115c-.423.635-.846 2.961-.846 2.961l-.211 2.75s.634 1.691.423 2.327c-.211.635-1.691 1.903-1.691 1.903l1.057 2.327 2.327 1.27s.423 2.75-.211 2.961c-.635.211-2.538 1.057-2.538 1.057l-.211 3.807 1.904 3.385v2.961l-5.076-1.48s-2.961-1.058-4.019 0c-1.058 1.057-2.961 3.172-2.961 3.172l.423 2.538-.635 4.02v4.229l-3.173 2.327-4.018 1.057-4.653 8.46-4.02 2.115-10.998 1.057-6.345-.846-4.229.211-3.174 4.23s-3.596-1.692-3.807-2.75c-.212-1.058-1.48-4.019-1.48-4.019s-1.481-.846-2.538.211c-1.058 1.058-4.442 1.692-4.442 1.692l-1.904-2.538-2.538-3.172-2.537.423-3.385-2.538-2.961-2.115-4.229.212-4.442-1.904-4.229 2.115s1.057 2.537 1.057 3.173c0 .635-.423 5.288-.423 5.288l-4.02 3.172h-4.229l-1.481 2.327 3.173 8.46-.846 2.75-4.229-.424-1.058 2.75s-.668 1.838-.954 3.203c-.169.808-.206 1.45.108 1.45.846 0 3.172 1.27 2.75 1.904-.423.635-4.019 4.865-4.019 4.865l-.627 6.266-.009.079 8.037 2.115 9.519 2.326s4.441-.212 4.652.847c.211 1.057-.212 3.384-.423 5.076-.211 1.691-1.691 4.019-1.691 4.019l1.903 3.172 1.481 3.808 3.596.634 2.327-2.326 2.75-1.481 2.961-.423 1.904 2.75 5.711.211 2.515.126c-.047-1.198-.02-2.432.3-2.913.613-.919 4.289-4.749 5.362-5.668 1.072-.919 5.208-.919 7.2-1.071 1.991-.153 7.047-.307 7.353-1.072.307-.767 2.146-1.838 2.911-1.838.767 0 1.991 0 2.451.152.46.153 1.838 1.38 2.451 1.991.613.613 2.451 1.686 3.522 1.532 1.072-.153 1.072 1.072.153 1.379s-1.532 1.991-1.379 3.37.613 2.911 1.685 2.604c1.072-.306 3.83-2.145 4.289-2.757.46-.612 2.451-3.83 2.757-4.596.307-.766 3.064-2.604 3.064-2.604s0-1.685.153-2.757c.152-1.071 3.83-4.289 4.901-5.055 1.072-.766 4.902.613 6.74 1.226s3.677 1.072 6.74.46 4.902 2.604 7.353 2.911c2.451.307 5.975-.306 6.74.153.766.46 6.281 2.757 7.2 3.677.919.919 1.991 5.516 2.911 6.74.919 1.226 4.442 5.821 5.515 6.74s6.281-.613 8.119-1.227c1.838-.612 7.2-1.838 9.498-2.298s4.749-2.757 5.668-5.362c.919-2.604-.613-4.136-.766-5.82-.153-1.686-1.532-4.289.46-6.435 1.99-2.145 3.522-3.83 3.369-4.749-.152-.919-1.226-1.685-2.298-2.298-1.071-.612-3.522-2.145-3.522-2.145s.152-2.911.306-3.677c.153-.767 2.146-3.37 2.451-4.749.306-1.38-1.379-3.83-1.686-4.443-.306-.613-1.685-4.596-1.685-5.362s.306-3.83 1.379-4.289c1.072-.46 1.686 1.227 2.757 1.686 1.072.459 2.757.46 2.911.919.153.46 2.604 2.145 3.677 2.145s3.218-1.226 4.137-1.532c.919-.306 1.991 1.991 1.991 1.991s3.83.919 5.056 1.227c1.225.307 4.749-.613 5.515-1.686.767-1.071 2.911-2.145 4.136-2.145 1.226 0 3.678.766 5.209-.46 1.531-1.227-1.38-3.217-1.38-3.217s-2.604-1.227-3.369-2.299c-.767-1.071 1.071-2.604 1.071-2.604l3.218-3.37s3.063-1.685 4.901-2.911c1.838-1.226 3.523-.919 4.289-2.298.767-1.379 4.443-2.911 5.821-4.136 1.378-1.226 2.298-3.678 2.911-5.516.612-1.838.612-7.199.46-8.885-.153-1.685-1.838-5.208-2.146-6.281-.307-1.072 1.839-2.757 1.839-2.757s.025-.099.067-.259c-3.208-.22-6.471-.393-7.376-.264z"/></g></g><g id="_x38__x5F_vogelsbergkreis"><g stroke-miterlimit="10"><path d="m345.002 416.99.847-3.384h2.114s2.75 2.538 4.442 3.172c1.692.635 2.538 1.059 2.538 1.059l1.692 1.057 2.326 6.134s0 3.384 0 4.653c0 1.269-1.48 3.173-1.48 3.807 0 .635.211 2.961.211 2.961l.635 1.27 2.115 2.114 1.48-1.903 1.904-.847 2.961 1.27h2.961l1.058-2.75 2.538-1.692 3.596-1.691.635-4.653.846-2.115s1.692 1.058 2.326 1.058c.635 0 .635-1.48.635-1.48l3.385-3.384 1.566-1.072c-.979-1.123-2.379-2.186-3.861-2.927-2.752-1.376-.275-4.954-.275-7.156s-3.303-.274-5.229-1.101-.55-2.752-.55-3.578 3.304-6.055 3.304-6.055l.55-4.68 1.65-3.578s1.651-5.229 1.928-6.605c.274-1.376 6.055-1.927 7.155-2.752 1.102-.825-.55-3.028-1.65-4.404-1.102-1.376-2.202-2.752-1.651-4.954s3.578-7.431 3.854-9.357c.274-1.928-5.78-4.954-5.78-4.954s1.376-7.432 1.101-8.809c-.274-1.376-3.303-2.202-1.927-4.403 1.376-2.202 3.303 1.65 3.303 1.65l1.376 3.304 3.028 4.129 8.257-1.102 1.927 3.854.551 3.027 3.027 2.478 3.304 3.303 5.505-1.101 2.752-3.028s4.129-2.477 4.954-2.752-1.927-3.028-1.927-3.028l-2.753-3.303v-2.478l1.928-3.853 3.303-4.129.275-2.478h-3.304l-1.927-3.303-1.651-4.679-1.376-4.954v-6.331L414.5 314.5l-6-3-6.5 5-8 5-4-6-5-4-3.5-2.5-4 1 2.79-7.175-8.79-.325-2.5 6-5-5.5-1-4-7.5 1.5-3-4-6 1.5-5-.5V292H336l-1.5-2.5-6 2-6-4-5.308-1.608-.993 1.214-1.867 1.681-4.106-.561-2.801.747-1.866 2.053-.561 4.293-5.413.373-1.493 2.987-4.106 1.12-3.173.747-2.613 1.492-.373 3.921-3.732 4.479-5.228.747-4.853 4.854-2.613 4.853-2.987 1.12-2.8 1.867-1.307 2.8 4.853 2.427 4.48 4.293 4.293 6.907-.747 5.6-1.681 2.987s-3.547-2.24-3.732-.933c-.188 1.307 1.68 4.106 1.68 4.106l3.173 3.92 4.667.747 3.733 2.053.373 7.28s5.227 1.12 7.84 1.12 3.92.933 4.293 3.173 1.12 7.467 4.293 7.467 8.773 2.613 9.521 2.987c.746.373-1.493 5.228-1.493 5.228l-3.92 2.612-2.428 3.733-5.227 3.732s-6.72 2.428-6.16 3.548c.56 1.119 3.547.933 3.547.933l5.04 2.053-5.04 4.293 2.427 6.533 4.667 1.12-.373 6.72 7.841.561 5.413.187 4.106-1.493 3.173-.373 5.601-4.479 6.532-1.867h3.733l.188 2.427 1.68 4.293 1.867 1.493h2.271c0-.272 0-.502 0-.635-.001-.635.211-4.442.211-4.442zM386.331 420.571z"/></g></g><g id="_x39__x5F_marburg_x5F_biedenkopf_Kopie_Kopie"><g><path stroke-linejoin="round" stroke-miterlimit="10" d="m148.417 276.563 3.243.865 3.892 2.162.864 1.946-1.297 4.972-.865 4.324.865 4.54 1.946 2.162 4.324.216 1.513-.649h3.243l1.945 2.594-2.161 5.837-2.162 2.378.864 4.108 1.081 3.891v3.027l1.946 2.81 5.405-.648 2.594-3.243 3.243-.649 4.324 2.162 3.675-1.945.216 3.459.649 3.675 1.297 1.729 2.378 1.514 1.081 3.026 3.243 4.108 1.945 3.675 4.54.432 2.811-3.891 3.459-4.756 3.675-.432 3.027 3.891 3.459 3.027 1.297 1.081 2.594-2.162 5.405 1.513 3.459-4.108 2.594-1.297 2.81 2.594 5.405-.216.432-3.459 7.135-1.081 4.323.865 4.54 3.675 3.027.649 3.459-.433 2.378-3.242.323-2.804-3.555-1.776 1.307-2.8 2.8-1.867 2.987-1.12 2.613-4.854 4.853-4.853 5.228-.747 3.732-4.48.373-3.92 2.613-1.493 3.173-.746 4.106-1.12 1.493-2.987 5.413-.373.561-4.293 1.866-2.053 2.801-.747 4.106.56 1.867-1.68.993-1.214L315 278l-2-2.5-4.5-6.5 4-2.5-1.5-5.5-5.5-2.5-4.5 1-4.5-2.5-3 1-1.5 5-4-2-1-4.5-2.5-1.5-4-2-.041-.307L280 253l-3-4-4-6.5-6.5-2.5v4.5L265 247l-7-3-5.5-1.5-1.5 2h-10.5l-5-7.5-7 4.5v-4h-3l-3-4.5-3-.5-6 .5-2 5-5.5 4.5-6.5 3.5-8.5-2h-8.5l-8.5-5.5-2.397-1.636c-1.201 1.455-2.343 2.919-2.821 3.636-.919 1.379-1.072 6.28-1.532 6.894s-.766 2.146-.46 3.37c.307 1.225.919 2.451.919 3.523 0 1.071-1.685 1.531-1.685 1.531s-2.757 1.072-3.677 1.072c-.919 0-2.299 2.911-3.064 3.983-.766 1.071-.613 5.208-1.072 6.128-.46.919-2.45 2.451-3.063 2.451s-2.604 1.531-3.064 2.145-2.298 2.451-3.217 1.379c-.484-.564-1.266-.531-2.032-.353l.285.697 1.297 3.243z"/></g></g><g id="_x31_0_x5F_lahn_x5F_dill"><g><path stroke-miterlimit="10" d="m106.142 371.034 3.397 2.336h2.549l2.55-4.034 2.549-1.063 4.248 1.487 2.761 2.336.425 3.823 2.124 4.034 1.487 4.673 2.336 1.698 2.761 2.974 3.611 3.609 5.097.638 2.974.849-.213 4.035 1.699 6.584 2.974 3.609 4.248 2.336 2.973-1.91s2.973-4.248 4.46-2.124-.85 3.822-.85 3.822l-1.911 2.55v3.186l2.549 4.885 4.672 2.762 4.035 2.549 1.062 2.973 2.124 2.549 3.187-.212 4.248-2.973 3.397-2.336 1.699-2.124-2.549-6.159v-3.823l-.849-5.733 2.973-.851 5.521-6.584 4.035-2.761 1.063-4.248-.851-4.672-.637-2.973 1.699-3.398 3.609-3.823 1.274-2.549-2.549-2.336.425-5.947-5.097-6.584-2.974-2.973s-1.698-3.823-2.761-3.823c-1.062 0-2.761 1.699-2.761 1.699l-2.974-1.063-.85-6.37 1.487-2.55 4.035-4.035 1.273-5.946 3.187-4.035 1.372-2.34-1.028-2.878-2.378-1.514-1.297-1.729-.649-3.675-.216-3.459-3.675 1.945-4.324-2.162-3.243.649-2.594 3.243-5.405.648-1.946-2.81v-3.027l-1.08-3.891-.865-4.108 2.162-2.378 2.162-5.837-1.946-2.594H162.9l-1.513.649-4.324-.216-1.946-2.162-.865-4.54.865-4.324 1.297-4.972-.864-1.946-3.892-2.162-3.243-.865-1.297-3.243-.285-.697c.164-.038.328-.065.491-.085-.844.104-1.75.502-2.289.592-.919.153-2.911.306-4.442.46-1.532.153-3.218-.919-3.37-1.686-.153-.766-3.523-4.901-4.749-5.208-1.227-.306-1.379.767-1.379.767s-2.911 1.072-4.443 1.992c-1.532.919-2.604 3.982-3.677 5.82-1.072 1.839-3.37 3.678-4.289 4.289-.919.613-4.136 2.757-5.208 3.983s-5.821 5.974-6.74 7.047c-.919 1.072-4.443 3.523-5.515 4.136s-2.298 3.523-2.298 5.516c0 1.99 1.226 4.596 1.379 6.28.152 1.686 2.604 3.217 3.982 4.902 1.379 1.685 1.072 5.055.613 6.434s-1.072 3.677-1.991 5.975-2.145 2.911-3.522 3.677c-1.379.766-2.758 1.379-3.37 3.522-.613 2.146-1.991 5.056-2.298 6.435-.308 1.379.919 3.83 1.226 5.668.306 1.838 1.991 5.515 1.991 6.74 0 1.225-1.379 4.442-1.379 6.434s3.522 3.677 4.289 4.902c.384.613.574 2.268.632 3.843 1.384 1.633 2.266 3.854 2.266 3.854l3.399 2.122z"/></g></g><g id="_x31_1_x5F_giessen"><g><path stroke-miterlimit="10" d="M292.119 399.665c-.56-1.119 6.16-3.547 6.16-3.547l5.227-3.732 2.428-3.733 3.92-2.613s2.24-4.853 1.493-5.227c-.747-.373-6.348-2.987-9.521-2.987s-3.92-5.227-4.293-7.467-1.68-3.173-4.293-3.173-7.84-1.12-7.84-1.12l-.373-7.28-3.733-2.053-4.667-.747-3.173-3.92s-1.867-2.8-1.68-4.107c.187-1.307 3.733.934 3.733.934l1.68-2.987.747-5.6-4.293-6.907-4.48-4.293-1.298-.649-.323 2.804-2.378 3.243-3.459.432-3.026-.649-4.54-3.675-4.324-.865-7.134 1.081-.433 3.459-5.405.217-2.81-2.595-2.594 1.297-3.459 4.108-5.405-1.513-2.594 2.162-1.297-1.081-3.459-3.027-3.027-3.891-3.675.432-3.459 4.756-2.811 3.892-4.54-.433-1.945-3.675-3.296-4.256-1.372 2.34-3.187 4.035-1.273 5.945-4.035 4.034-1.487 2.55.851 6.37 2.973 1.063s1.699-1.699 2.761-1.699c1.063 0 2.761 3.823 2.761 3.823l2.974 2.973 5.097 6.584-.425 5.947 2.549 2.336-1.274 2.549-3.609 3.823-1.699 3.398.637 2.973.851 4.672-1.063 4.248-4.035 2.761-5.521 6.584-2.973.851.849 5.733v3.823l2.549 6.159-.472.59 1.719.521 2.413-2.587s1.034 2.931 2.069 3.104c1.033.172 2.24.862 3.447-.345s1.552-4.311 1.552-4.311l-4.654-4.481 2.413-2.586 4.827-3.275 2.586-.517 2.758-4.482 6.895-1.551 4.999-.172 4.482 2.93 5.861-.862 5.171 3.965 4.31-3.965 3.104 1.725 1.896 2.93-.862 2.93-.861 2.413 2.758 4.654 5.861.689 3.965-1.033s-.172-3.448 1.724-3.275c1.896.172 2.586 4.999 3.965 5.516 1.379.518 3.62.862 4.137.69.518-.172 0-2.586 1.896-2.758 1.896-.172 4.999 1.034 5.861 1.379.861.345 4.137 0 4.653-.69.518-.689.518-3.62.518-4.137s5.86-.862 5.86-1.551 1.034-3.62.346-3.965c-.69-.346-2.586-1.207-2.586-1.725 0-.517 1.724-1.896 1.896-2.758s-1.551-3.792-.862-4.481c.689-.69 1.38-1.896 3.275-1.38 1.896.518 3.103 2.069 3.965 1.552s2.93-2.413 2.93-2.413 3.002-1.041 2.935-1.178z"/></g></g><g id="_x31_2_x5F_limburg_x5F_weilburg"><g><path stroke-linejoin="round" stroke-miterlimit="10" d="M98.896 470.19h4.046l3.034-1.517 4.551-1.518 2.529 2.36 1.686 2.529 2.697 2.022 2.022 1.18 1.854-1.349 2.19-2.529s3.877.169 4.721.507c.843.337 2.19 1.854 2.19 1.854s2.697.674 3.54.674 1.35-2.866 1.35-4.046 2.19-.843 2.19-.843l2.697-1.18.843-1.687s-2.529-1.854-2.529-3.371 1.35-.674 1.854-.674c.506 0 1.686-.843 2.697-1.011 1.011-.169-.674-2.023-.674-2.023l-2.529-3.371-3.54-1.349-2.36-2.529.843-2.696 2.191-2.023 2.023-2.191 1.517-3.202.843-2.023 3.371-2.36 4.72-2.528s-.169-2.36-.169-2.866.169-1.518.169-1.518l2.023-.337 2.529 1.181 1.686-1.518 3.203-1.686 4.046-1.181 3.034-1.517.853-.948-1.231-.777-4.672-2.762-2.549-4.885v-3.186l1.91-2.55s2.336-1.698.851-3.822c-1.487-2.124-4.46 2.124-4.46 2.124l-2.974 1.911-4.248-2.337-2.973-3.609-1.699-6.584.212-4.035-2.973-.849-5.097-.638-3.611-3.609-2.761-2.974-2.336-1.698-1.487-4.673-2.124-4.034-.425-3.823-2.761-2.336-4.248-1.487-2.55 1.063-2.549 4.034h-2.549l-3.397-2.336-3.398-2.124s-.882-2.222-2.266-3.854v-.001c.057 1.565-.021 3.053-.174 3.359-.306.612-.612 1.685-1.071 2.145-.46.46-.307 1.379-.307 2.757s-.152 2.298-1.071 3.37-1.992.46-3.064.613c-1.072.152-1.685 1.379-1.532 2.298.153.919-.919 2.451-1.838 2.298s-2.298-.153-3.217-.613-3.063-2.298-3.983-2.911c-.919-.612-2.604-1.226-3.677-1.379-1.073-.152-2.145-1.531-2.757-1.685-.613-.153-2.757 1.838-3.217 2.298s-2.298 2.757-3.217 3.83c-.919 1.072-4.137 2.298-4.443 2.911-.306.613-2.298 4.136-2.757 5.362-.46 1.226-1.992 4.596-2.451 6.587-.46 1.99 1.379 4.136 1.379 6.128 0 1.991 3.677 4.749 4.289 5.208.613.46.613 2.604-.153 2.911-.766.306-3.37 1.226-3.982 1.531-.613.307-1.686 2.757-1.072 3.678.613.919 1.072 4.289.46 5.208-.613.919-2.451 1.379-3.063 1.379-.613 0-1.839 3.217-1.686 4.136s1.532 3.37 2.604 3.217c1.071-.153 5.668.46 7.353.46 1.686 0 2.757 2.451 3.217 3.677.46 1.227 3.064 1.227 4.137 1.532 1.071.307 2.604 1.072 3.677 1.686 1.072.612.46 4.596.46 4.596l1.685 1.991s.153 5.974.153 6.739c0 .767 4.443 4.289 5.055 4.902.613.613.307 2.451-.152 3.677-.46 1.227 2.145 3.523 3.677 7.967.401 1.166.472 2.138.344 2.958l2.749.484 6.069-.17z"/></g></g><g id="_x31_3_x5F_rheingau_x5F_taunus_kreis"><g><path stroke-miterlimit="10" d="m91.419 542.418-4.577-1.78 1.018-2.797 3.56-1.018 1.271-2.797-4.577-.254.509-3.306 4.577-3.561 4.831-3.56 5.849.254 3.561-1.526 4.068-2.797 3.561-2.289 3.813-1.017 7.63.509 6.61-.509 4.831-2.797 4.577-.255-2.543-4.068v-2.797l1.78-3.307.254-3.306-.764-3.051-.254-1.78 3.052-1.78h5.34l2.034-2.543-1.78-3.051-2.543-4.323 2.289-.254 3.306-2.289.509-3.306-4.831-5.594-4.322-4.831-3.019.01-.843 1.687-2.697 1.18s-2.19-.337-2.19.843-.507 4.046-1.35 4.046-3.54-.674-3.54-.674-1.349-1.517-2.19-1.854c-.844-.337-4.721-.506-4.721-.506l-2.19 2.529-1.854 1.349-2.022-1.18-2.697-2.022-1.686-2.529-2.529-2.36-4.551 1.518-3.034 1.517h-4.046l-6.069.169-2.749-.485c-.358 2.303-2.311 3.371-3.101 3.937-1.072.766-3.37 1.532-3.37 1.532s-1.838.152-2.757 0c-.919-.153.152-1.532 0-2.146-.153-.612-1.838-2.604-1.838-2.604s-3.83-.153-4.902 0c-1.072.152-3.217 1.838-3.217 1.838s-1.532 2.604-1.532 3.982c0 1.38 1.072 1.532 1.072 1.532s1.071 1.838 1.226 2.451c.153.613 1.532.919 1.991 2.298.46 1.379-.919 3.064-1.838 4.289-.919 1.227-2.757 2.298-4.289 2.146-1.532-.153-2.146-2.146-2.757-3.064-.613-.919-1.838-3.983-3.678-3.83-1.838.153-.612 2.146-1.531 2.451s-1.686.153-2.299.766c-.612.613-.766 2.451-1.838 2.911-1.071.46-3.83.767-5.515 1.686s-1.226 2.145-1.838 2.757c-.613.613-3.983.46-4.596 1.379s-2.451 3.83-2.911 4.289c-.46.46-3.983 3.522-4.137 4.289-.152.766.92 2.604 1.227 3.217.306.613 3.982 4.289 5.668 5.362 1.685 1.071 3.063 3.83 2.451 5.055-.613 1.226-1.532 2.451-1.686 3.83-.152 1.379 1.532 2.757 1.379 4.136-.152 1.379-.306 3.217-1.071 3.217-.767 0-1.686 0-1.379-.612.306-.613-1.38-2.604-2.451-3.523-1.072-.919-2.757-.919-2.757-.919s-3.218-.306-3.83-.46c-.613-.153-2.146-2.604-3.064-2.911-.919-.306-2.911 0-2.911 0s-1.992 3.064-2.604 3.83c-.613.766-1.992 1.838-2.298 2.911-.307 1.072-.153 3.983.306 4.749.46.766 1.226.919 1.532 1.991.306 1.071-2.298.766-3.064.919-.766.152-3.677-.613-4.289-.46-.612.152-2.604 3.063-3.37 3.982s-3.063 1.686-3.677 3.37c-.613 1.686-1.685 3.37-1.685 4.749s2.298 2.757 3.83 3.37c1.531.613 2.91 1.991 4.289 3.523 1.379 1.531 2.45 3.217 3.369 3.982.919.767 3.678 3.217 5.056 5.055 1.379 1.839 1.685 3.83 2.145 5.821.46 1.992 2.146 4.136 2.451 5.208s26.655-1.379 27.574-1.379 5.668-4.596 7.506-6.128 7.506-1.991 9.804-2.911c2.298-.919 5.821-1.838 8.272-2.911 2.451-1.071 7.66-1.071 9.65-1.838 1.382-.531 4.089-1.651 6.69-2.646l-2.984-6.59-5.086-5.336z"/></g></g><g id="_x31_4_x5F_wetteraukreis_Kopie"><g><path stroke-linejoin="round" stroke-miterlimit="10" d="m342.519 422.066-1.867-1.493-1.68-4.293-.188-2.427h-3.732l-6.533 1.867-5.601 4.479-3.173.373-4.106 1.493-5.413-.187-7.84-.561.373-6.72-4.667-1.12-2.428-6.533 5.04-4.293-5.04-2.053s-2.986.187-3.547-.934c.068.136-2.945 1.178-2.945 1.178s-2.068 1.896-2.93 2.413c-.862.517-2.069-1.034-3.965-1.552-1.896-.517-2.586.69-3.275 1.38-.688.688 1.034 3.619.862 4.481s-1.896 2.241-1.896 2.758c0 .518 1.896 1.379 2.586 1.725.689.345-.346 3.274-.346 3.965 0 .689-5.86 1.034-5.86 1.551s0 3.448-.518 4.137c-.517.69-3.792 1.034-4.653.69-.862-.345-3.966-1.551-5.861-1.379-1.896.172-1.379 2.586-1.896 2.758-.517.172-2.758-.172-4.137-.69-1.379-.517-2.068-5.344-3.965-5.516-1.896-.172-1.724 3.275-1.724 3.275l-3.966 1.033-5.86-.689-2.758-4.654.861-2.413.862-2.93-1.896-2.93-3.104-1.725-4.31 3.965-5.172-3.965-5.86.862-4.482-2.93-4.999.172-6.895 1.551-2.758 4.482-2.586.517-4.827 3.275-2.413 2.586 4.654 4.481s-.346 3.104-1.552 4.311-2.413.517-3.447.345-2.069-3.104-2.069-3.104l-2.413 2.587-1.719-.521-1.228 1.534-3.397 2.336-2.978 2.084 1.109 2.139 3.271 2.337 1.168 6.31 4.206-.701 3.271 1.636 2.57-.233h3.037l1.869-.701v2.337l-1.401 2.57 3.038 3.505 3.972 3.505 2.103 3.738-1.636 1.636-.935 3.271-3.038 2.805-2.104 1.868-2.103 2.337 3.271.701 3.973 1.402 3.038.467 1.868-1.402 2.104 1.169-.936 2.103-.233 2.57 2.804 3.737 2.337 3.038-.935 3.973 5.14 4.438.745.406 1.825.996 3.037 3.271-3.037 4.907-3.038 3.738 1.402 5.374s1.868 3.505 3.972 3.505c2.103 0 5.607-3.972 6.309-4.439.701-.467 3.738-1.868 3.738-1.868l2.265-.211c.287-1.365.954-3.202.954-3.202l1.058-2.75 4.229.423.846-2.75-3.173-8.46 1.481-2.327h4.229l4.02-3.172s.423-4.653.423-5.288-1.057-3.173-1.057-3.173l4.229-2.115 4.442 1.904 4.229-.211 2.961 2.114 3.385 2.538 2.537-.423 2.538 3.172 1.904 2.538s3.384-.635 4.442-1.691c1.058-1.058 2.538-.212 2.538-.212s1.269 2.962 1.48 4.019c.211 1.058 3.807 2.75 3.807 2.75l3.174-4.23 4.229-.211 6.345.847 10.998-1.058 4.02-2.115 4.652-8.46 4.019-1.057 3.173-2.327v-4.229l.635-4.02-.423-2.538s1.904-2.114 2.961-3.172c1.058-1.058 4.019 0 4.019 0l5.075 1.48v-2.961l-1.903-3.385.211-3.807s1.904-.846 2.538-1.057c.635-.212.211-2.961.211-2.961l-2.327-1.27-1.057-2.327s1.48-1.269 1.691-1.903c.211-.636-.423-2.327-.423-2.327l.211-2.75s.423-2.326.846-2.961c.424-.636 2.326-2.115 2.326-2.115l2.75-5.288s0-1.716 0-2.75l-2.262.002z"/></g></g><g id="_x31_5_x5F_hochtaunuskreis"><g><path stroke-miterlimit="10" d="m212.977 487.213.935-3.973-2.337-3.038-2.804-3.737.233-2.57.936-2.103-2.104-1.169-1.868 1.402-3.038-.467-3.973-1.402-3.271-.701 2.103-2.337 2.104-1.868 3.038-2.805.935-3.271 1.636-1.636-2.103-3.738-3.972-3.505-3.038-3.505 1.401-2.57v-2.337l-1.869.701h-3.038l-2.569.233-3.271-1.636-4.206.701-1.168-6.31-3.271-2.337-1.109-2.139-1.271.889-3.187.212-2.124-2.549-1.062-2.973-2.804-1.771-.854.948-3.034 1.517-4.046 1.181-3.203 1.686-1.686 1.518-2.529-1.181-2.022.337s-.17 1.012-.17 1.518.17 2.866.17 2.866l-4.721 2.528-3.371 2.36-.843 2.023-1.517 3.202-2.023 2.191-2.19 2.023-.844 2.696 2.36 2.529 3.54 1.349 2.529 3.371s1.686 1.854.674 2.023c-1.011.169-2.191 1.011-2.697 1.011s-1.854-.843-1.854.674c0 1.253 1.723 2.734 2.322 3.212l3.225.15 4.322 4.831 4.831 5.594-.509 3.306-3.306 2.289-2.289.254 2.543 4.323 1.78 3.051-2.034 2.543h-5.34l-3.052 1.78.255 1.78.763 3.051-.195 2.532 2.438.706 4.177 1.432 2.984 2.387 2.983-2.863 2.984.955 3.7 5.848 3.461-.597 3.342-.239 4.177 2.984 2.269.477 1.908-1.909 2.984.119 3.342-1.79 2.269 1.432 1.073 2.029s1.433.835 2.268.835 3.342 0 3.342 0-.239-2.387.716-3.58c.955-1.192 6.922-6.922 6.922-6.922l4.654-4.535 5.012-3.461 2.626.358 2.268.239 2.983-1.313 2.156-2.507-.745-.406-5.142-4.436z"/></g></g><g id="_x31_6_x5F__wiesbaden"><g><path stroke-miterlimit="10" d="m132.825 565.331 2.063-2.423 2.251-1.576 1.125-2.926 1.125-3.15 2.251-.676 1.125-2.7-1.125-3.826-1.576-4.276 2.025-.45h3.376l.9-5.852-1.35-4.728s-3.826-.899-4.502-.899c-.677 0-1.802-4.502-1.802-4.502l.226-3.826-3.151-.675-2.701-2.477 1.125-2.926-.422-1.857-.668.387-6.61.509-7.63-.509-3.813 1.017-3.561 2.289-4.068 2.797-3.561 1.526-5.849-.254-4.831 3.56-4.577 3.561-.509 3.306 4.577.254-1.271 2.797-3.56 1.018-1.018 2.797 4.577 1.78 5.086 5.34 2.984 6.589c1.15-.44 2.281-.855 3.267-1.184 3.218-1.072 8.579 1.379 11.336 3.063 2.758 1.686 7.813 9.957 9.191 10.57.625.278 1.721 1.28 2.833 2.42l3.594-2.933 3.118-.955z"/></g></g><g id="_x31_7_x5F_main_x5F_taunus"><g><path stroke-miterlimit="10" d="M191.524 513.78s-2.506 0-3.342 0-2.268-.835-2.268-.835l-1.074-2.028-2.268-1.433-3.342 1.79-2.984-.119-1.909 1.909-2.268-.477-4.177-2.984-3.342.239-3.462.597-3.699-5.848-2.984-.955-2.984 2.864-2.983-2.388-4.177-1.432-2.438-.706-1.839 4.08v2.797l2.543 4.069-4.577.254-4.164 2.411.422 1.857-1.125 2.926 2.701 2.477 3.151.675-.226 3.826s1.125 4.502 1.802 4.502c.676 0 4.502.9 4.502.9l1.35 4.727-.9 5.852h-3.376l-2.025.45 1.576 4.276 1.125 3.826-1.125 2.7-2.251.676-1.125 3.15-1.125 2.927-2.251 1.575-1.576 2.251-1.424.445 1.466.5 2.932.926 6.02.463 5.864.617 4.477-.926 3.396-2.469 4.477-3.55 3.087-2.778 2.161-3.859 4.013-3.395 3.395-4.014.617-2.16-2.469-4.477-1.852-2.778-3.088-4.167.154-2.469h1.698l2.161.31 2.777-2.161 1.39-2.624 2.314 1.08h2.778l2.624-.927 2.778-2.006 1.852-2.006 3.704-1.389 3.087-4.477-2.175-3.087z"/></g></g><g id="_x31_8_x5F_gross_x5F_gerau"><g><path stroke-linejoin="round" stroke-miterlimit="10" d="M162.378 658.666c.698 0 2.094 2.559 3.024 2.791.93.233 5.117-.232 7.21.233s3.721 1.861 5.349 2.791 3.257-3.954 3.257-3.954-.698-4.884-.698-6.047 1.163-6.512.465-7.675-3.489-3.721-4.188-6.512c-.697-2.791 1.629-5.582 1.629-5.582s2.325-5.35 2.093-6.979c-.233-1.628-7.443-13.49-7.908-15.118s10.234-4.884 11.629-5.814c1.396-.932-3.489-9.77-3.489-10.933s3.954-1.396 4.652-2.325c.698-.931-1.861-4.652-1.861-5.815s3.954-1.163 4.885-1.396c.93-.233 0-2.094.465-3.489.465-1.396 3.721-1.628 3.721-2.326s4.419-.698 5.815-.93c1.396-.232-2.094-7.21-3.257-8.142-1.163-.93-1.163-6.279-2.791-8.373-1.628-2.093-3.023-.232-4.884-.465s-5.117-3.721-6.745-3.256-3.721 1.628-5.814.93c-2.095-.697.465-4.884.697-5.814.233-.932 3.024-5.35 3.024-5.35l5.349-1.86-1.628-3.489-3.954-3.256-2.325-.233-.466 3.489-2.125.68.281.511-.617 2.16-3.395 4.014-4.013 3.395-2.161 3.859-3.087 2.778-4.477 3.55-3.396 2.469-4.477.926-5.864-.617-6.02-.463-2.862-1.165-1.536-.26-2.179.68-3.594 2.933c1.343 1.376 2.708 2.954 3.295 3.708 1.072 1.379 2.451 5.668 3.217 7.813.767 2.146 1.227 7.66 1.991 9.346.766 1.685 1.991 7.813 1.379 9.498-.613 1.685-1.838 5.668-1.992 6.894-.152 1.226.613 3.217 1.379 4.596.767 1.379 5.668 4.136 6.129 5.975.46 1.838-1.227 6.739-1.686 9.038-.459 2.298 1.686 4.901 2.604 6.28s3.063 5.975 3.522 8.119c.459 2.146 1.992 5.516 3.37 7.2 1.379 1.685 7.966 1.226 9.345 1.226s.767 2.451.307 4.289c-.46 1.839-2.758 3.064-3.83 4.749-.144.225-.311.482-.492.759 1.037.39 1.845.717 2.141.895 1.168.693 4.889-.936 5.587-.936z"/></g></g><g id="_x31_9_x5F_bergstrasse"><g stroke-linejoin="round" stroke-miterlimit="10"><path d="M257.49 732.691c.429-2.144-1.715-2.287-2.287-3.001s-2.857-8.432-2.857-11.291c0-2.857-.572-3.859-.43-6.288.144-2.43-1-6.574-.571-8.718.429-2.145 1.143-6.717 1-7.575-.144-.858-2.431-3.001-3.287-4.716-.857-1.715 1.571-2.001 2.572-2.43 1-.43 2.431-1.572 2.431-2.287s-2.287-.715-3.716-.286c-1.43.429-4.288-1-5.574-1s-3.716-2.573-4.146-3.145c-.429-.571-2.287-2.857-3.573-3.43-1.285-.572-4.43-3.859-5.717-4.573-1.286-.715 1.858-1.143 3.001-1.143 1.144 0 1-2.715.858-4.146-.144-1.429-2.858-4.145-4.716-5.717s-3.431-1.429-4.859-1-5.288.144-6.574-1c-1.286-1.143-2.715-3.858-3.716-4.573-1.001-.714-3.287-3.144-4.573-3.43-1.285-.286-2.715 2.43-2.857 4.146-.144 1.715.286 4.145-.858 4.858-1.143.715-4.573-.572-6.859-.856-2.287-.285-7.433-2.145-9.29-2.001-1.858.143-4.002 2.287-6.432 3.001-.872.256-2.167-.228-3.469-.948-.5 1.278-1.763 4.064-3.029 3.34-1.628-.93-3.256-2.326-5.349-2.791s-6.28 0-7.21-.232c-.93-.233-2.326-2.791-3.024-2.791-.697 0-4.419 1.628-5.582.93-.295-.177-1.103-.505-2.141-.896l.001-.001c-1.187 1.799-3.123 4.523-4.717 5.984-1.838 1.685-6.74 2.145-10.111 3.217s-5.515 4.443-6.434 6.895c-.919 2.45.919 7.047.919 7.047l1.226 5.361s1.072 5.975 1.072 6.435 1.226 3.217 1.226 3.217 3.678 4.902 3.983 5.974c.306 1.072 3.217 6.435 3.217 6.435s4.902.919 5.668 1.379c.767.46 3.677-1.991 3.677-1.991l2.911.919.153 3.677 3.83 1.227s1.072 1.838 1.685 2.604c.613.767 2.757.307 3.37.767s2.298 1.838 3.523 5.974 9.498 10.877 10.264 11.489c.766.613 2.451-.919 3.983-1.991 1.531-1.072 2.145-.46 4.289-2.145 2.145-1.686 1.991-3.678 3.522-6.74 1.532-3.064-.306-6.587-.919-8.119s-1.991-4.749-2.298-6.587c-.306-1.838.306-5.362.306-6.435 0-1.071.613-3.829 1.991-3.982s4.902-.766 5.974-.306 3.37-.767 4.749-1.072c1.379-.307 5.056-.307 6.128.306s-.919 1.686-1.531 1.532c-.613-.153-1.379 1.991-1.532 2.604-.153.613.613 2.146 1.226 3.218.613 1.071 1.838 1.071 2.146 2.145.307 1.073-.919 1.686-1.686 1.838-.766.153 0 3.983 0 5.668 0 1.686 2.146 5.056 1.992 5.668-.152.613 2.451 5.516 3.217 6.281.767.766 4.902 1.991 5.975 2.451s3.522 3.37 5.821 4.289c2.298.919 5.208 2.757 7.199 2.911 1.992.152 1.686-1.532 2.298-1.686.613-.152 1.227.307 1.227 1.227s.46 2.451 1.226 3.522c.767 1.072 3.37 3.064 5.362 2.911s2.298-1.072 3.83-2.451 1.992-1.838 3.37-1.838c.931 0 1.713.357 2.129 1.008 2.865-2.118 7.095-5.437 7.377-6.847zM249.955 743.916a8.538 8.538 0 0 0-.136 1.348c0 1.379-.153 3.063-.919 3.83-.767.766-2.451 1.379-2.451 1.379s.46-1.838.613-3.37c.152-1.532-2.298-1.992-3.523-1.685-1.225.307-2.298.919-3.677 1.838s-1.838-.153-3.064 1.379c0 0-.306 3.217-.46 4.596-.153 1.379 1.227 4.136 1.991 5.516.767 1.379 0 3.217-1.226 4.901-1.227 1.686-3.983 3.217-4.597 5.362-.612 2.145-.152 4.749.307 6.128.46 1.379 2.298 1.992 3.37 2.145 1.071.153 3.522 1.38 4.901 1.072 1.379-.306 5.362-5.821 7.047-7.353 1.686-1.532 2.911-4.289 3.218-6.128.306-1.839.152-3.678.612-5.056.46-1.379 1.532-1.838 2.299-1.226.766.613-.307 2.145-.461 3.063-.152.92.613 2.146 1.532 3.218.919 1.071 5.208-2.451 7.354-4.749 2.145-2.299.152-2.911-.767-4.137-.919-1.225-.766-3.83-.766-5.82 0-.546.211-1.01.521-1.419-2.779-1.73-5.893-3.615-6.839-3.914-.997-.316-3.245-.679-4.879-.918z"/></g></g><g id="_x32_0_x5F_odenwaldkreis"><g><path stroke-linecap="square" stroke-linejoin="round" stroke-miterlimit="10" d="M282.052 620.033c-1.345-1.792-2.24-.672-2.24-.672l1.344 3.584-.224 4.704-3.36 2.912-4.479.896-.896 4.704-.448 3.809-5.824-.448-3.808-.672-2.464 3.584-4.48-1.344h-2.911s-1.792-1.345-2.465-1.345c-.672 0-2.911 1.12-2.911 1.12l-2.465 4.704-1.12 4.704-2.464 1.792-4.031 6.048-4.032 2.24-2.564 2.387c.091.07.181.126.273.204 1.857 1.572 4.573 4.288 4.716 5.717s.286 4.146-.858 4.146c-1.143 0-4.287.429-3.001 1.143 1.286.715 4.431 4.002 5.718 4.573 1.286.571 3.144 2.857 3.572 3.43.43.572 2.858 3.145 4.146 3.145s4.145 1.429 5.574 1c1.429-.43 3.716-.43 3.716.286 0 .715-1.429 1.857-2.431 2.286-1 .43-3.43.716-2.572 2.431s3.144 3.858 3.287 4.716c.143.856-.572 5.431-1 7.575-.43 2.144.715 6.288.571 8.718-.143 2.43.43 3.43.43 6.288 0 2.857 2.287 10.576 2.857 11.291.571.715 2.715.856 2.287 3.001-.282 1.41-4.512 4.729-7.381 6.841h0c.2.313.323.689.323 1.137 0 .963-.297 2.149-.478 3.247 1.633.239 3.882.603 4.883.918.946.3 4.059 2.185 6.84 3.914.821-1.086 2.361-1.784 2.695-2.563.46-1.072 1.072-5.516 2.146-5.516 1.072 0 2.757-.919 3.37-1.685.612-.766 2.757.153 3.217.46.46.306 2.298 2.604 3.522 3.523 1.227.919 7.2.152 8.427 0 1.226-.153 3.37-6.281 4.289-7.2s6.128-2.298 7.506-1.686c1.378.613 4.289 4.289 4.901 4.749.613.46 1.839-1.071 2.451-2.451.613-1.379-.152-4.288-1.379-5.668-1.226-1.379-5.821-3.677-6.587-4.442-.766-.767.919-2.757 1.226-3.217s.92-3.983.153-6.74c-.766-2.757-5.055-6.74-6.74-8.272-1.685-1.531.153-4.442.613-5.208s4.749-6.128 4.902-7.353c.152-1.226 1.685-4.443 1.685-5.821s-3.063-6.128-3.063-7.353c0-1.227.766-2.911 1.685-4.137.919-1.225 5.055-1.838 6.435-1.991 1.379-.154.766-2.911.766-4.289s1.685-2.911 2.145-3.83 1.839-4.597 1.839-6.281-1.072-5.362-2.146-5.821-5.055-2.145-5.208-2.604 1.226-1.838 2.146-2.604c.919-.766 2.91-2.45 3.063-5.668.153-3.217-3.83-4.289-4.596-4.289-.767 0-3.217 1.838-4.137 1.838-.919 0-.919-2.757-1.379-3.369-.46-.613-2.145-3.37-2.145-3.983s1.992-1.685 2.145-2.145c.153-.461.153-3.678.307-4.75.152-1.071 1.071-2.298.306-2.604s-2.604-.766-2.604-.766l-1.991 2.145-.307 1.686s-1.685 0-2.145-.153-.153-3.37-.153-3.37h-1.071l-2.146.613v-2.758s-.67-1.342-1.026-2.129c-1.113-.043-2.204-.288-2.747-1.012z"/></g></g><g id="_x32_1_x5F_darmstadt_x5F_dieburg"><g><path stroke-linejoin="round" stroke-miterlimit="10" d="m279.263 571.465-5.941-.518-5.424-2.325-.258 2.066-1.551 2.325-3.357 3.616s-4.392 3.357-5.684 4.133c-1.292.774-3.357 0-7.49 0-4.134 0-2.066 2.065-5.166 4.648-3.101 2.583-4.908.775-6.975.518-2.065-.258-3.875-3.616-3.875-3.616l-4.391 2.066-3.358.258-3.875-2.325-3.1 2.583-4.391.517-7.232-.258-6.199-2.841-2.785-2.695c-1.581.204-5.598.234-5.598.9 0 .698-3.256.93-3.721 2.326-.465 1.396.465 3.256-.465 3.488-.931.233-4.885.233-4.885 1.396s2.559 4.884 1.861 5.815c-.698.93-4.652 1.163-4.652 2.325 0 1.163 4.885 10.001 3.489 10.933-1.395.931-12.094 4.187-11.629 5.814s7.675 13.49 7.908 15.118c.232 1.628-2.093 6.979-2.093 6.979s-2.326 2.791-1.629 5.582c.698 2.791 3.489 5.349 4.188 6.512s-.465 6.512-.465 7.675.698 6.047.698 6.047-.084.249-.228.614c1.302.72 2.597 1.204 3.469.948 2.431-.716 4.573-2.858 6.432-3.001 1.857-.144 7.003 1.715 9.29 2.001 2.286.286 5.717 1.571 6.859.856 1.144-.715.715-3.144.858-4.858.143-1.716 1.572-4.431 2.857-4.146 1.286.285 3.573 2.715 4.573 3.43 1 .716 2.431 3.431 3.716 4.573 1.286 1.144 5.146 1.429 6.574 1s2.631-.743 4.584.819c-.095-.076.094.047.002-.023l2.564-2.387 4.032-2.24 4.031-6.048 2.464-1.792 1.12-4.704 2.464-4.704s2.24-1.12 2.912-1.12 2.464 1.345 2.464 1.345h2.912l4.48 1.344 2.464-3.584 3.808.672 5.824.448.448-3.809.896-4.703 4.48-.896 3.36-2.912.224-4.704-1.344-3.584s.896-1.12 2.239.672c.544.725 1.635.97 2.742 1.009a6.308 6.308 0 0 1-.2-.476c-.152-.46.307-1.685.92-1.379.612.307 1.531-1.532.919-2.911-.613-1.379-1.227-3.982-1.227-4.596s.307-3.83.307-3.83l-1.686-5.668.919-3.83-1.838-6.587s1.072-4.136.919-5.055-.919-2.758-.919-3.37c0-.613.306-4.597.766-5.668.46-1.072 1.991-.613 2.604-.613.356 0 1.128-.885 1.681-1.865l-4.821-3.215-3.869-.515z"/></g></g><g id="_x32_2_x5F_offenbach"><g><path stroke-linejoin="round" stroke-miterlimit="10" d="m276.264 542.621-5.711-.211-1.904-2.75-2.961.424-2.75 1.48-2.327 2.326-3.596-.634-1.481-3.808-1.904-3.172s1.481-2.327 1.692-4.019c.211-1.692.635-4.019.423-5.076s-4.652-.846-4.652-.846l-9.519-2.327-8.037-2.115.008-.079-1.22 1.331-2.023 1.518 2.023 5.565-1.518 2.024-3.035-1.771h-3.541l-1.519.506 1.519 3.035 1.012 1.771-1.771 3.541-1.013 3.541-.506 3.034-9.865.76-5.059-1.771-3.035-.253-2.529.506h-2.781l-1.013.506-1.012 1.266-2.782 1.771-1.771 1.771V554.764l-1.012 1.771v1.771l-.596 3.771c.619-.039 1.23.164 1.878.997 1.628 2.093 1.628 7.443 2.791 8.373 1.163.931 4.652 7.908 3.256 8.142-.063.011-.141.02-.217.029h.001l2.785 2.695 6.199 2.841 7.232.258 4.391-.517 3.1-2.583 3.875 2.325 3.358-.258 4.391-2.066s1.809 3.358 3.875 3.616 3.875 2.065 6.975-.518 1.032-4.648 5.166-4.648c4.133 0 6.198.774 7.49 0 1.292-.775 5.684-4.133 5.684-4.133l3.357-3.616 1.551-2.325.258-2.066 5.424 2.325 5.941.518 3.875.517 4.821 3.215c-.271.481.726-1.103.617-1.965-.153-1.226-1.838-3.677-1.838-3.677s2.757-2.757 3.37-3.37-.766-.613-.613-1.379c.153-.767-1.685-5.055-2.451-5.821s-4.136-3.37-4.136-3.37-4.443.307-5.515.46c-1.072.154-1.379-3.369-1.227-4.749.153-1.379 1.532-2.298 3.064-2.757 1.532-.46-.307-2.298-.307-3.217 0-.439-.104-1.507-.146-2.604v.002l-2.509-.13z"/></g></g><g id="_x32_3_x5F__frankfurt_am_main_Kopie"><g><path stroke-linejoin="round" stroke-miterlimit="10" d="M233.071 507.541s-3.038 1.402-3.738 1.869c-.701.468-4.206 4.439-6.309 4.439-2.104 0-3.972-3.505-3.972-3.505l-1.402-5.374 3.038-3.738 3.037-4.907-3.037-3.271-1.825-.996-2.156 2.507-2.983 1.313-2.268-.239-2.626-.358-5.012 3.461-4.654 4.535s-5.967 5.729-6.922 6.922c-.496.62-.782 2.444-.834 3.207l.531.906 1.764 2.557-3.087 4.477-3.704 1.389-1.852 2.006-2.778 2.006-2.624.927h-2.778l-2.314-1.08-1.389 2.624-2.778 2.16-2.161-.309h-1.698l-.153 2.469 3.087 4.167 1.852 2.778 2.188 3.966 2.125-.68.465-3.489 2.326.233 3.953 3.256 1.629 3.489-5.35 1.86s-2.791 4.419-3.023 5.35c-.233.93-2.791 5.116-.698 5.814s4.187-.465 5.814-.93 4.885 3.023 6.745 3.256c1.12.14 2.071-.474 3.006-.532l.596-3.771v-1.771l1.012-1.771V550.464l1.771-1.771 2.782-1.771 1.013-1.266 1.012-.506h2.782l2.528-.506 3.035.253 5.06 1.771 9.864-.759.506-3.034 1.013-3.541 1.771-3.541-1.012-1.771-1.518-3.035 1.518-.506h3.541l3.035 1.771 1.518-2.024-2.023-5.565 2.023-1.518 1.22-1.331.628-6.266s3.596-4.23 4.019-4.865-1.904-1.904-2.75-1.904c-.314 0-.278-.643-.108-1.451l-2.271.213z"/></g></g><g id="_x31_t_x5F_waldeck"><g><path stroke-linejoin="round" stroke-miterlimit="10" d="M318.946 201.5a3 3 0 0 1-3 3H150.4a3 3 0 0 1-3-3v-15a3 3 0 0 1 3-3h165.546a3 3 0 0 1 3 3v15z"/><text transform="translate(154.84 198.52)" font-size="12">Kreis Waldeck-Frankenberg</text></g></g><g id="_x32_t_x5F_kassel"><g><path stroke-linejoin="round" stroke-miterlimit="10" d="M447.428 88.333a3 3 0 0 1-3 3h-131.56a3 3 0 0 1-3-3v-15a3 3 0 0 1 3-3h131.56a3 3 0 0 1 3 3v15z"/><text transform="translate(315.1 85.35)" font-size="12">Kreis und Stadt Kassel</text></g></g><g id="_x33_t_x5F_werrameisner"><g><path stroke-linejoin="round" stroke-miterlimit="10" d="M549.78 172.915a3 3 0 0 1-3 3H415.281a3 3 0 0 1-3-3v-15a3 3 0 0 1 3-3H546.78a3 3 0 0 1 3 3v15z"/><text transform="translate(417.66 169.93)" font-size="12">Werra-Mei&#xDF;ner-Kreis</text></g></g><g id="_x34_t_x5F_hersfeld"><g><path stroke-linejoin="round" stroke-miterlimit="10" d="M528.867 242.816a3 3 0 0 1-3 3H376.533a3 3 0 0 1-3-3v-15a3 3 0 0 1 3-3h149.333a3 3 0 0 1 3 3l.001 15z"/><text transform="translate(378.77 239.83)" font-size="12">Kreis Hersfeld-Rotenburg</text></g></g><g id="_x35_t_x5F_schwalmeder"><g><path stroke-linejoin="round" stroke-miterlimit="10" d="M451.413 206.016a3 3 0 0 1-3 3H326.754a3 3 0 0 1-3-3v-15a3 3 0 0 1 3-3h121.659a3 3 0 0 1 3 3v15z"/><text transform="translate(329 203.03)" font-size="12">Schwalm-Eder-Kreis</text></g></g><g id="_x36_t_x5F_fulda"><g><path stroke-linejoin="round" stroke-miterlimit="10" d="M499.739 346.183a3 3 0 0 1-3 3h-67.317a3 3 0 0 1-3-3v-15a3 3 0 0 1 3-3h67.317a3 3 0 0 1 3 3v15z"/><text transform="translate(431.66 343.2)" font-size="12">Kreis Fulda</text></g></g><g id="_x37_t_x5F_mainkinzig"><g><path stroke-linejoin="round" stroke-miterlimit="10" d="M468.476 514.83a3 3 0 0 1-3 3H263a3 3 0 0 1-3-3v-15c0-1.656 1.344-3 3-3h202.477a3 3 0 0 1 3 3v15z"/><text transform="translate(265.24 511.85)" font-size="12">Main-Kinzig-Kreis und Stadt Hanau</text></g></g><g id="_x38_t_x5F_vogelsbergkreis"><g><path stroke-linejoin="round" stroke-miterlimit="10" d="M389.278 339.767a3 3 0 0 1-3 3h-94.865a3 3 0 0 1-3-3v-15a3 3 0 0 1 3-3h94.865a3 3 0 0 1 3 3v15z"/><text transform="translate(293.65 336.68)" font-size="12">Vogelsbergkreis</text></g></g><g id="_x39_t_x5F_marburg"><g><path stroke-linejoin="round" stroke-miterlimit="10" d="M287.57 257.841a3 3 0 0 1-3 3l-152.978-.417a3 3 0 0 1-3-3v-15a3 3 0 0 1 3-3l152.978.417a3 3 0 0 1 3 3v15z"/><text transform="translate(133.83 254.44)" font-size="12">Kreis Marburg-Biedenkopf</text></g></g><g id="_x31_0t_x5F_lahndillkreis"><g><path stroke-linejoin="round" stroke-miterlimit="10" d="M178.498 352.166a3 3 0 0 1-3 3H84.813a3 3 0 0 1-3-3v-15a3 3 0 0 1 3-3h90.685a3 3 0 0 1 3 3v15z"/><text transform="translate(87.05 349.18)" font-size="12">Lahn-Dill-Kreis</text></g></g><g id="_x31_1t_x5F_giessen"><g><path stroke-linejoin="round" stroke-miterlimit="10" d="M307.578 364.832a3 3 0 0 1-3 3H229.77a3 3 0 0 1-3-3v-15a3 3 0 0 1 3-3h74.808a3 3 0 0 1 3 3v15z"/><text transform="translate(232.01 361.85)" font-size="12">Kreis Gie&#xDF;en</text></g></g><g id="_x31_2t_x5F_limburg"><g><path stroke-linejoin="round" stroke-miterlimit="10" d="M151.178 428.071a3 3 0 0 1-3 3H8.24a3 3 0 0 1-3-3v-15a3 3 0 0 1 3-3h139.939a3 3 0 0 1 3 3l-.001 15z"/><text transform="translate(10.48 425.09)" font-size="12">Kreis Limburg-Weilburg</text></g></g><g id="_x31_3t_x5F_rheingautaunuskreis"><g><path stroke-linejoin="round" stroke-miterlimit="10" d="M159.058 504.33a3 3 0 0 1-3 3H18.775a3 3 0 0 1-3-3v-15a3 3 0 0 1 3-3h137.283c1.656 0 3 1.344 3 3v15z"/><text transform="translate(21.01 501.35)" font-size="12">Rheingau-Taunus-Kreis</text></g></g><g id="_x31_4t_x5F_wetteraufkreis"><g><path stroke-linejoin="round" stroke-miterlimit="10" d="M310.496 451.849a3 3 0 0 1-3 3h-83.47a3 3 0 0 1-3-3v-15a3 3 0 0 1 3-3h83.47a3 3 0 0 1 3 3v15z"/><text transform="translate(226.27 448.86)" font-size="12">Wetteraukreis</text></g></g><g id="_x31_5t_x5F_hochtaunus"><g><path stroke-linejoin="round" stroke-miterlimit="10" d="M231.409 477.373a3 3 0 0 1-3 3h-99.778a3 3 0 0 1-3-3v-15c0-1.656 1.344-3 3-3h99.778a3 3 0 0 1 3 3v15z"/><text transform="translate(130.87 474.39)" font-size="12">Hochtaunuskreis</text></g></g><g id="_x31_6t_x5F_wiesbaden"><g><path stroke-linejoin="round" stroke-miterlimit="10" d="M123.198 594.284a3 3 0 0 1-3 3H24.014a3 3 0 0 1-3-3v-15a3 3 0 0 1 3-3h96.184a3 3 0 0 1 3 3v15z"/><text transform="translate(26.25 591.3)" font-size="12">Stadt Wiesbaden</text></g></g><g id="_x31_7t_x5F_maintaunus"><g><path stroke-linejoin="round" stroke-miterlimit="10" d="M200.576 506.5a3 3 0 0 1-3 3H85.425c-1.656 0-3-1.344-3-3v-15a3 3 0 0 1 3-3h112.151a3 3 0 0 1 3 3v15z"/><text transform="translate(87.29 503.52)" font-size="12">Main-Taunus-Kreis</text></g></g><g id="_x31_8t-grossgerau"><g><path stroke-linejoin="round" stroke-miterlimit="10" d="M164.838 645.293a3 3 0 0 1-3 3H59.47a3 3 0 0 1-3-3v-15a3 3 0 0 1 3-3h102.368a3 3 0 0 1 3 3v15z"/><text transform="translate(61.7 642.3)" font-size="12">Kreis Gro&#xDF;-Gerau</text></g></g><g id="_x31_9t_x5F_bergstrasse"><g><path stroke-linejoin="round" stroke-miterlimit="10" d="M208.693 691.382a3 3 0 0 1-3 3h-99.261a3 3 0 0 1-3-3v-15a3 3 0 0 1 3-3h99.261a3 3 0 0 1 3 3v15z"/><text transform="translate(108.67 688.4)" font-size="12">Kreis Bergstra&#xDF;e</text></g></g><g id="_x32_0t_x5F_odenwaldkreis"><g><path stroke-linejoin="round" stroke-miterlimit="10" d="M353.935 653.5a3 3 0 0 1-3 3h-86.216a3 3 0 0 1-3-3v-15a3 3 0 0 1 3-3h86.216a3 3 0 0 1 3 3v15z"/><text transform="translate(266.96 650.52)" font-size="12">Odenwaldkreis</text></g></g><g id="_x32_1t_x5F_darmstadt"><g><path stroke-linejoin="round" stroke-miterlimit="10" d="M393.446 619.5a3 3 0 0 1-3 3H244.419c-1.656 0-3-1.344-3-3v-29a3 3 0 0 1 3-3h146.027a3 3 0 0 1 3 3v29z"/><text transform="translate(246.66 602.52)" font-size="12">Kreis Darmstadt-Dieburg  </text><text transform="translate(246.66 616.92)" font-size="12">und Stadt Darmstadt</text></g></g><g id="_x32_2t-offenbach"><g><path stroke-linejoin="round" stroke-miterlimit="10" d="M406.368 563.53a3 3 0 0 1-3 3H253.021a3 3 0 0 1-3-3v-15a3 3 0 0 1 3-3h150.347a3 3 0 0 1 3 3v15z"/><text transform="translate(255.26 560.55)" font-size="12">Kreis und Stadt Offenbach</text></g></g><g id="_x32_3t_x5F_frankfurt"><g><path stroke-linejoin="round" stroke-miterlimit="10" d="M297.574 496a3 3 0 0 1-3 3H154.333c-1.656 0-3-1.344-3-3v-15a3 3 0 0 1 3-3h140.241a3 3 0 0 1 3 3v15z"/><text transform="translate(155.57 493.02)" font-size="12">Stadt Frankfurt am Main</text></g></g><g id="frankfurt"><g><path id="location-icon_2_" stroke-miterlimit="10" d="M212 502.666c-4.97 0-9 4.065-9 9.08 0 5.016 3.939 10.844 9 19.588 5.062-8.744 9-14.572 9-19.588 0-5.014-4.029-9.08-9-9.08zm0 12.116c-1.783 0-3.228-1.458-3.228-3.256s1.445-3.256 3.228-3.256c1.783 0 3.229 1.458 3.229 3.256s-1.446 3.256-3.229 3.256z"/><path stroke-linejoin="round" stroke-miterlimit="10" d="M244.915 550.666a3 3 0 0 1-3 3H184.96a3 3 0 0 1-3-3v-15c0-1.656 1.344-3 3-3h56.955a3 3 0 0 1 3 3v15z"/><text transform="translate(186.25 547)" font-size="12">Frankfurt</text></g></g><g id="darmstadt"><g><path id="location-icon_3_" stroke-miterlimit="10" d="M202.667 586.666c-4.97 0-9 4.065-9 9.08 0 5.016 3.939 10.844 9 19.588 5.062-8.744 9-14.572 9-19.588 0-5.014-4.03-9.08-9-9.08zm0 12.116c-1.782 0-3.228-1.458-3.228-3.256s1.445-3.256 3.228-3.256c1.783 0 3.229 1.458 3.229 3.256-.002 1.798-1.447 3.256-3.229 3.256z"/><path stroke-linejoin="round" stroke-miterlimit="10" d="M237.267 634.793c0 1.656-1.344 3-3 3h-61.283a3 3 0 0 1-3-3v-15a3 3 0 0 1 3-3h61.283a3 3 0 0 1 3 3v15z"/><text transform="translate(174.13 631.66)" font-size="12">Darmstadt</text></g></g><g id="erbach"><g><path id="location-icon_4_" stroke-miterlimit="10" d="M279.5 663.943c-4.97 0-9 4.065-9 9.08s3.939 10.843 9 19.587c5.062-8.744 9-14.572 9-19.587 0-5.014-4.029-9.08-9-9.08zm0 12.116c-1.782 0-3.228-1.458-3.228-3.256s1.445-3.256 3.228-3.256c1.783 0 3.229 1.458 3.229 3.256-.001 1.799-1.446 3.256-3.229 3.256z"/><path stroke-linejoin="round" stroke-miterlimit="10" d="M325.721 709.634c0 1.516-1.813 3.744-4.046 3.744h-61.849c-2.235 0-4.046-2.229-4.046-3.744v-11.723c0-1.516 1.813-3.743 4.046-3.743h61.849c2.234 0 4.046 2.229 4.046 3.743v11.723z"/><text transform="translate(259.74 707.66)" font-size="12">Michelstadt</text></g></g><g id="fulda"><g><path id="location-icon_7_" stroke-miterlimit="10" d="M429.334 357.332c-4.971 0-9.001 4.065-9.001 9.08 0 5.016 3.939 10.844 9.001 19.588 5.061-8.744 9-14.572 9-19.588 0-5.013-4.03-9.08-9-9.08zm0 12.116c-1.783 0-3.229-1.458-3.229-3.256s1.445-3.256 3.229-3.256c1.782 0 3.228 1.458 3.228 3.256s-1.446 3.256-3.228 3.256z"/><path stroke-linejoin="round" stroke-miterlimit="10" d="M449.625 405.199a3 3 0 0 1-3 3h-33.74a3 3 0 0 1-3-3v-15a3 3 0 0 1 3-3h33.74a3 3 0 0 1 3 3v15z"/><text transform="translate(414.13 401.95)" font-size="12">Fulda</text></g></g><g id="bad_hersfeld"><g><path id="location-icon_6_" stroke-miterlimit="10" d="M434.668 249.333c-4.971 0-9 4.064-9 9.08 0 5.015 3.938 10.843 9 19.587 5.061-8.744 9-14.572 9-19.587s-4.031-9.08-9-9.08zm0 12.115c-1.783 0-3.229-1.458-3.229-3.256s1.445-3.256 3.229-3.256c1.782 0 3.228 1.458 3.228 3.256-.002 1.798-1.447 3.256-3.228 3.256z"/><path stroke-linejoin="round" stroke-miterlimit="10" d="M477.23 297.573a3 3 0 0 1-3 3h-75.68a3 3 0 0 1-3-3v-15a3 3 0 0 1 3-3h75.68a3 3 0 0 1 3 3v15z"/><text transform="translate(399.91 294.34)" font-size="12">Bad Hersfeld</text></g></g><g id="kassel"><g><path id="location-icon_5_" stroke-miterlimit="10" d="M394.533 97.333c-4.97 0-9 4.064-9 9.08 0 5.015 3.939 10.843 9 19.587 5.062-8.744 9-14.572 9-19.587s-4.029-9.08-9-9.08zm0 12.115c-1.783 0-3.228-1.458-3.228-3.256s1.444-3.256 3.228-3.256 3.229 1.458 3.229 3.256-1.446 3.256-3.229 3.256z"/><path stroke-linejoin="round" stroke-miterlimit="10" d="M419.028 145.333a3 3 0 0 1-3 3h-42.159a3 3 0 0 1-3-3v-15a3 3 0 0 1 3-3h42.159a3 3 0 0 1 3 3v15z"/><text transform="translate(376.1 142.35)" font-size="12">Kassel</text></g></g><g id="korbach"><g><path id="location-icon_8_" stroke-miterlimit="10" d="M260 108c-4.97 0-9 4.064-9 9.08 0 5.015 3.939 10.843 9 19.587 5.062-8.744 9-14.572 9-19.587 0-5.015-4.029-9.08-9-9.08zm0 12.115c-1.782 0-3.228-1.457-3.228-3.256 0-1.798 1.445-3.256 3.228-3.256 1.783 0 3.229 1.458 3.229 3.256-.001 1.799-1.446 3.256-3.229 3.256z"/><path stroke-linejoin="round" stroke-miterlimit="10" d="M288.655 156a3 3 0 0 1-3 3h-49.9c-1.656 0-3-1.344-3-3v-15a3 3 0 0 1 3-3h49.9a3 3 0 0 1 3 3v15z"/><text transform="translate(237.41 152.63)" font-size="12">Korbach</text></g></g><g id="marburg"><g><path id="location-icon_9_" stroke-miterlimit="10" d="M234.667 262.667c-4.97 0-9 4.064-9 9.08 0 5.015 3.939 10.843 9 19.587 5.062-8.744 9-14.572 9-19.587 0-5.015-4.03-9.08-9-9.08zm0 12.115c-1.782 0-3.228-1.458-3.228-3.256s1.445-3.256 3.228-3.256c1.783 0 3.229 1.458 3.229 3.256-.002 1.799-1.447 3.256-3.229 3.256z"/><path stroke-linejoin="round" stroke-miterlimit="10" d="M263.671 310.761a3 3 0 0 1-3 3l-50.796.139a3 3 0 0 1-3-3v-15c0-1.656 1.344-3 3-3l50.796-.139a3 3 0 0 1 3 3v15z"/><text transform="translate(211.5 307.25)" font-size="12">Marburg</text></g></g><g id="giessen"><g><path id="location-icon_10_" stroke-miterlimit="10" d="M210.667 344.666c-4.97 0-9 4.065-9 9.08 0 5.016 3.939 10.844 9 19.588 5.062-8.744 9-14.572 9-19.588 0-5.014-4.03-9.08-9-9.08zm0 12.116c-1.782 0-3.228-1.458-3.228-3.256s1.445-3.256 3.228-3.256c1.783 0 3.229 1.458 3.229 3.256-.002 1.798-1.447 3.256-3.229 3.256z"/><path stroke-linejoin="round" stroke-miterlimit="10" d="M234.8 392.733c-1.1 1.657-1.343 3-3 3h-41.713a3 3 0 0 1-3-3v-15a3 3 0 0 1 3-3H231.8c1.657 0 1.9 1.343 3 3v15z"/><text transform="translate(191.9 388.9)" font-size="12">Gie&#xDF;en</text></g></g><g id="wiesbaden"><g><path id="location-icon_1_" stroke-miterlimit="10" d="M117.333 511.666c-4.97 0-9 4.065-9 9.08 0 5.016 3.939 10.844 9 19.588 5.062-8.744 9-14.572 9-19.588 0-5.014-4.029-9.08-9-9.08zm0 12.116c-1.783 0-3.228-1.458-3.228-3.256s1.444-3.256 3.228-3.256 3.229 1.458 3.229 3.256-1.446 3.256-3.229 3.256z"/><path stroke-linejoin="round" stroke-miterlimit="10" d="M154.192 559.767a3 3 0 0 1-3 3H87.747a3 3 0 0 1-3-3v-15a3 3 0 0 1 3-3h63.445a3 3 0 0 1 3 3v15z"/><text transform="translate(89.42 556.03)" font-size="12">Wiesbaden</text></g></g></svg>