<?xml version="1.0" encoding="utf-8"?>
<!-- Generator: Adobe Illustrator 19.2.0, SVG Export Plug-In . SVG Version: 6.00 Build 0)  -->
<svg version="1.1" id="Ebene_1" xmlns="http://www.w3.org/2000/svg" xmlns:xlink="http://www.w3.org/1999/xlink" x="0px" y="0px"
	 width="48px" height="48px" viewBox="0 0 48 48" style="enable-background:new 0 0 48 48;" xml:space="preserve">
<style type="text/css">
	.st0{fill:#c20016;}
	.st1{fill:#FFFFFF;}
</style>
<path class="st0" d="M43,0c0,0,5,0,5,5.4v37.3c0,0,0,5.4-5,5.4H5c0,0-5,0-5-5.4V5.4C0,5.4,0,0,5,0C5,0,43,0,43,0z"/>
<path class="st1" d="M23.5,39.6c-6.5,0.1-14.3-1.1-19.3-3.3v-2c5.3,2.3,12.5,3.5,19,3.4c7-0.1,14.2-1.3,19.2-3.3v1.9
	C36.8,38.3,30.4,39.5,23.5,39.6"/>
<path class="st1" d="M7.6,9.7l0,7.4c0,0,2.3-0.5,4.3-0.5c3.3,0,5,1.9,5.1,4.3c0,0.6,0,0.9,0,1.6v9.7h-3.5v-9.9
	c0-1.2,0.1-2.7-2.6-2.7C9,19.6,7.7,20,7.7,20v12.2H4.2V9.9L7.6,9.7z"/>
<path class="st1" d="M36.3,32.6c-4.1,0-7.9-2-7.9-7h4.6c0.1,2.1,1.6,3.1,3.4,3.1c2,0,3.4-1.2,3.4-3.3c0-2-1.3-3.3-3.5-3.3h-0.7v-3.8
	h0.7c2.2,0,3.2-1.3,3.2-3c0-2-1.4-3-3-3c-1.7,0-3,1.1-3.1,2.9h-4.6c0.1-4.3,3.4-6.8,7.6-6.8c4.4,0,7.6,2.8,7.6,6.8
	c0,2.6-1.2,4.1-2.9,4.9c1.8,0.9,3.2,2.5,3.2,5.4C44.2,30.3,40.5,32.6,36.3,32.6"/>
<path class="st1" d="M28.6,16.7c-0.7,0-3,0.1-4.6,0.4c-2.1,0.5-3.5,1.8-3.7,3.8c0,0.4-0.1,0.6-0.1,1.5v9.7h3.5l0-9.9
	c0-0.9,0.1-1.4,0.6-1.9c0.6-0.6,2.1-0.7,2.9-0.7c0.4,0,1,0,1.3,0L28.6,16.7L28.6,16.7z"/>
</svg>