<svg xmlns="http://www.w3.org/2000/svg" viewBox="0 0 320 320" style="enable-background:new 0 0 320 320" xml:space="preserve">
  <path d="m191.5 200-9.5 13.2c-1.4 2-3.2 3.6-5.2 4.8-2 1.3-4.3 2.1-6.7 2.5-5 .8-9.8-.5-13.6-3.2-3.8-2.7-6.5-6.9-7.3-11.8-.4-2.4-.3-4.8.2-7.1s1.5-4.5 2.9-6.4l9.5-13.2c5.2-7.2-5.7-15.1-11-7.9l-9.5 13.2c-2.4 3.4-4.2 7.2-5.1 11.2-.9 4.1-1.1 8.3-.4 12.4 1.4 8.7 6.2 15.9 12.8 20.6 6.6 4.7 15 6.9 23.6 5.5 4.1-.7 8.1-2.1 11.6-4.3 3.4-2.1 6.5-5 9-8.4l9.5-13.2c5.3-7.2-5.6-15.1-10.8-7.9zm26.1-149.8c0-5.3-4.3-9.7-9.7-9.7H63.8c-15.2 0-27.5 12.4-27.5 27.5v157.6c0 5.3 4.3 9.7 9.7 9.7s9.7-4.3 9.7-9.7V68c0-4.5 3.7-8.2 8.2-8.2H208c5.3 0 9.6-4.3 9.6-9.6z"/>
  <path d="m180.7 195.9 18-27.1c5.2-7.2-5.7-15.1-10.9-7.9l-18 27.2c-5.2 7.2 5.7 15 10.9 7.8z"/>
  <path d="M219.6 128.9c-6.6-4.7-15-6.9-23.6-5.5-4.1.7-8.1 2.1-11.6 4.3-3.5 2.2-6.6 5-9 8.4l-9.7 13.4c-5.2 7.2 5.8 15.1 11 7.9l9.7-13.4c1.4-1.9 3.1-3.6 5.2-4.8 2.1-1.3 4.3-2.1 6.7-2.5 5-.8 9.8.4 13.6 3.2 3.8 2.7 6.5 6.9 7.3 11.9.4 2.3.3 4.8-.2 7.1s-1.5 4.5-2.9 6.4l-9.7 13.4c-5.2 7.2 5.8 15.1 11 7.9l9.7-13.4c2.4-3.4 4.2-7.2 5.1-11.2.9-4.1 1.1-8.3.4-12.4-1.6-8.7-6.4-16-13-20.7z"/>
  <path d="M256.2 84.8H112c-15.2 0-27.5 12.4-27.5 27.5V252c0 15.1 12.4 27.5 27.5 27.5h144.2c15.1 0 27.5-12.5 27.5-27.5V112.3c.1-15.2-12.3-27.5-27.5-27.5zm8.3 167.2c0 4.5-3.7 8.2-8.2 8.2H112c-4.5 0-8.2-3.7-8.2-8.2V112.3c0-4.5 3.7-8.2 8.2-8.2h144.2c4.5 0 8.2 3.7 8.2 8.2V252z"/>
</svg>
