<svg xmlns="http://www.w3.org/2000/svg" xml:space="preserve" viewBox="0 0 30 30">
  <g fill="#1D1D1B">
    <path d="M19.675 10.557h-4.848c-.805 0-1.458.653-1.458 1.458v9.226c0 .805.653 1.458 1.458 1.458h4.848c.805 0 1.458-.653 1.458-1.458v-9.226c0-.806-.652-1.458-1.458-1.458z"/>
    <path d="M27 0H3C1.343 0 0 1.343 0 3v24c0 1.657 1.343 3 3 3h24c1.657 0 3-1.343 3-3V3c0-1.657-1.343-3-3-3zm-3.413 23.184c0 1.074-.87 1.944-1.944 1.944h-8.76c-1.073 0-1.944-.87-1.944-1.944v-1.311H9.357c-1.074 0-1.944-.87-1.944-1.944V6.816c0-1.074.87-1.944 1.944-1.944h8.76c1.073 0 1.944.87 1.944 1.944v1.311h1.582c1.074 0 1.944.87 1.944 1.944v13.113z"/>
    <path d="M16.149 7.302h-4.848c-.805 0-1.458.653-1.458 1.458v9.226c0 .68.467 1.246 1.096 1.407v-9.322c0-1.074.87-1.944 1.944-1.944h4.574c-.236-.487-.73-.825-1.308-.825z"/>
  </g>
</svg>
