<?xml version="1.0" encoding="utf-8"?>
<!-- Generator: Adobe Illustrator 27.5.0, SVG Export Plug-In . SVG Version: 6.00 Build 0)  -->
<svg version="1.1" id="Ebene_2_00000062900720375859726770000014568098171292012449_"
	 xmlns="http://www.w3.org/2000/svg" xmlns:xlink="http://www.w3.org/1999/xlink" x="0px" y="0px" preserveAspectRatio="xMinYMin meet"  viewBox="0 0 55 42.6"
	 style="enable-background:new 0 0 55 42.6;" xml:space="preserve">
<style type="text/css">
	.st0{fill:#FFFFFF;}
</style>
<g id="hr1">
	<g>
		<polygon class="st0" points="48.5,31.8 48.5,7.3 42,10.2 42,4.5 48.8,0.9 55,0.9 55,31.8 		"/>
		<path class="st0" d="M4.7,0v10.5c0,0,3.3-0.7,6.2-0.7c4.7,0,7.2,2.6,7.5,6v15.8h-5V17.9c0-1.7,0.3-3.9-3.7-3.7
			c-2.6,0-4.7,0.7-4.7,0.7v17.3H0V0.5L4.7,0z"/>
		<path class="st0" d="M35.6,10c0,0-4.6,0-7.2,0.7c-3.1,0.7-5.1,2.5-5.4,5.4v15.7h5.1V17.9c0-1.2,0-2.1,0.8-2.6c0.8-0.8,2.9-1,4.1-1
			c0.8,0,2.5-0.3,2.5-0.3V10H35.6z"/>
		<path class="st0" d="M27.8,42.6C18.5,42.8,7.3,41.1,0,37.8V35c7.6,3.3,17.9,5,27.2,4.7C37.3,39.4,47.8,37.8,55,35v2.6
			C47,40.6,37.7,42.3,27.8,42.6"/>
	</g>
</g>
</svg>
