<?xml version="1.0" encoding="utf-8"?>
<!-- Generator: Adobe Illustrator 19.2.0, SVG Export Plug-In . SVG Version: 6.00 Build 0)  -->
<svg version="1.1" id="hr1" xmlns="http://www.w3.org/2000/svg" xmlns:xlink="http://www.w3.org/1999/xlink" x="0px" y="0px"
	 width="54px" height="42px" viewBox="0 0 54 42" enable-background="new 0 0 54 42" xml:space="preserve">
<g>
	<polygon fill="#FFFFFF" points="47.571,31.35 47.571,7.307 41.271,10.136 41.271,4.479 47.957,1.007 54,1.007 54,31.35 	"/>
	<path fill="#FFFFFF" d="M4.629,0.107v10.286c0,0,3.214-0.643,6.043-0.643c4.629,0,7.071,2.571,7.329,5.914c0,0.771,0,1.157,0,2.186
		v13.371h-4.886v-13.5c0-1.671,0.257-3.857-3.6-3.6c-2.571,0-4.629,0.643-4.629,0.643v16.971H0V0.621L4.629,0.107z"/>
	<path fill="#FFFFFF" d="M34.971,9.879c0,0-4.5,0-7.071,0.643c-3.086,0.643-5.014,2.443-5.271,5.271c0,0.643,0,0.771,0,2.057v13.371
		h5.014v-13.5c0-1.157,0-2.057,0.771-2.571c0.771-0.771,2.829-1.029,3.986-1.029c0.771,0,2.443-0.257,2.443-0.257V9.879H34.971z"/>
	<path fill="#FFFFFF" d="M27.257,41.893C18.129,42.15,7.2,40.479,0,37.264v-2.829c7.457,3.214,17.614,4.886,26.743,4.629
		c9.9-0.257,20.186-1.8,27.257-4.629v2.571C46.157,39.964,37.029,41.636,27.257,41.893"/>
</g>
</svg>
