<svg xmlns="http://www.w3.org/2000/svg" xmlns:xlink="http://www.w3.org/1999/xlink"><symbol id="brandlogo--desk-old" viewBox="0 0 54 42" preserveAspectRatio="xMidYMid meet"><g fill="#FFF"><path d="M47.571 31.35V7.307l-6.3 2.829V4.479l6.686-3.472H54V31.35zM4.629.107v10.286s3.214-.643 6.043-.643c4.629 0 7.071 2.571 7.329 5.914v15.557h-4.886v-13.5c0-1.671.257-3.857-3.6-3.6-2.571 0-4.629.643-4.629.643v16.971H0V.621L4.629.107zM34.971 9.879s-4.5 0-7.071.643c-3.086.643-5.014 2.443-5.271 5.271v15.428h5.014v-13.5c0-1.157 0-2.057.771-2.571.771-.771 2.829-1.029 3.986-1.029.771 0 2.443-.257 2.443-.257V9.879h.128zM27.257 41.893C18.129 42.15 7.2 40.479 0 37.264v-2.829c7.457 3.214 17.614 4.886 26.743 4.629 9.9-.257 20.186-1.8 27.257-4.629v2.571c-7.843 2.958-16.971 4.63-26.743 4.887"/></g></symbol><symbol id="brandlogo--desk" viewBox="0 0 392 220" preserveAspectRatio="xMidYMid meet"><path d="M206.81 220h-46.92v-89.48c0-15.9.62-30.16 13.25-42.79 13.94-13.94 36.05-19.31 84.67-19.81v39.81c-35.89.97-44.08 3.45-47.75 7.12-2.58 2.58-3.26 6.12-3.26 13.57V220Zm-67.85 0H92.14v-87.91c0-11.19-.05-16.25-3.26-19.44-2.76-2.75-8.09-4.15-17.18-4.15-6.84 0-14.83.86-24.78 2.49v109H0V2.97L46.92 0v71.1c10.17-1.7 22.7-3.29 33.35-3.29 21.57 0 35.86 6.3 45.19 15.62 12.44 12.44 13.52 27.14 13.51 44.39V220ZM321.55 41.29l-37.54 24.28V110l33.08-20.33v94.59h-30.57V220h103.64v-35.74h-31.13V41.29h-37.48Z" fill="#e0ae00" stroke-width="0"/></symbol><symbol id="brandlogo--mobile" viewBox="0 0 392 220" preserveAspectRatio="xMidYMid meet"><path d="M206.81 220h-46.92v-89.48c0-15.9.62-30.16 13.25-42.79 13.94-13.94 36.05-19.31 84.67-19.81v39.81c-35.89.97-44.08 3.45-47.75 7.12-2.58 2.58-3.26 6.12-3.26 13.57V220Zm-67.85 0H92.14v-87.91c0-11.19-.05-16.25-3.26-19.44-2.76-2.75-8.09-4.15-17.18-4.15-6.84 0-14.83.86-24.78 2.49v109H0V2.97L46.92 0v71.1c10.17-1.7 22.7-3.29 33.35-3.29 21.57 0 35.86 6.3 45.19 15.62 12.44 12.44 13.52 27.14 13.51 44.39V220ZM321.55 41.29l-37.54 24.28V110l33.08-20.33v94.59h-30.57V220h103.64v-35.74h-31.13V41.29h-37.48Z" fill="#e0ae00" stroke-width="0"/></symbol></svg>