<svg xmlns="http://www.w3.org/2000/svg" xmlns:xlink="http://www.w3.org/1999/xlink"><symbol id="brandlogo--desk-old" viewBox="0 0 54 42"><g><path d="M47.571 31.35V7.307l-6.3 2.829V4.479l6.686-3.472H54V31.35zM4.629.107v10.286s3.214-.643 6.043-.643c4.629 0 7.071 2.571 7.329 5.914v15.557h-4.886v-13.5c0-1.671.257-3.857-3.6-3.6-2.571 0-4.629.643-4.629.643v16.971H0V.621L4.629.107zM34.971 9.879s-4.5 0-7.071.643c-3.086.643-5.014 2.443-5.271 5.271v15.428h5.014v-13.5c0-1.157 0-2.057.771-2.571.771-.771 2.829-1.029 3.986-1.029.771 0 2.443-.257 2.443-.257V9.879h.128zM27.257 41.893C18.129 42.15 7.2 40.479 0 37.264v-2.829c7.457 3.214 17.614 4.886 26.743 4.629 9.9-.257 20.186-1.8 27.257-4.629v2.571c-7.843 2.958-16.971 4.63-26.743 4.887"/></g></symbol><symbol id="brandlogo--desk" viewBox="0 0 55 42.6" preserveAspectRatio="xMinYMin meet"><style type="text/css">.st0{fill:#fff}</style><g id="hr1"><path class="st0" d="M48.5 31.8V7.3L42 10.2V4.5L48.8.9H55v30.9zM4.7 0v10.5s3.3-.7 6.2-.7c4.7 0 7.2 2.6 7.5 6v15.8h-5V17.9c0-1.7.3-3.9-3.7-3.7-2.6 0-4.7.7-4.7.7v17.3H0V.5L4.7 0zM35.6 10s-4.6 0-7.2.7c-3.1.7-5.1 2.5-5.4 5.4v15.7h5.1V17.9c0-1.2 0-2.1.8-2.6.8-.8 2.9-1 4.1-1 .8 0 2.5-.3 2.5-.3v-4h.1zM27.8 42.6c-9.3.2-20.5-1.5-27.8-4.8V35c7.6 3.3 17.9 5 27.2 4.7 10.1-.3 20.6-1.9 27.8-4.7v2.6c-8 3-17.3 4.7-27.2 5"/></g></symbol><symbol id="brandlogo--mobile" viewBox="0 0 54 42"><g><path d="M47.571 31.35V7.307l-6.3 2.829V4.479l6.686-3.472H54V31.35zM4.629.107v10.286s3.214-.643 6.043-.643c4.629 0 7.071 2.571 7.329 5.914v15.557h-4.886v-13.5c0-1.671.257-3.857-3.6-3.6-2.571 0-4.629.643-4.629.643v16.971H0V.621L4.629.107zM34.971 9.879s-4.5 0-7.071.643c-3.086.643-5.014 2.443-5.271 5.271v15.428h5.014v-13.5c0-1.157 0-2.057.771-2.571.771-.771 2.829-1.029 3.986-1.029.771 0 2.443-.257 2.443-.257V9.879h.128zM27.257 41.893C18.129 42.15 7.2 40.479 0 37.264v-2.829c7.457 3.214 17.614 4.886 26.743 4.629 9.9-.257 20.186-1.8 27.257-4.629v2.571c-7.843 2.958-16.971 4.63-26.743 4.887"/></g></symbol></svg>