<svg xmlns="http://www.w3.org/2000/svg" xmlns:xlink="http://www.w3.org/1999/xlink"><symbol id="brandlogo--desk" viewBox="0 0 55 42.6" preserveAspectRatio="xMinYMin meet"><style type="text/css">.st0{fill:#fff}</style><g id="hr1"><path class="st0" d="M48.5 31.8V7.3L42 10.2V4.5L48.8.9H55v30.9zM4.7 0v10.5s3.3-.7 6.2-.7c4.7 0 7.2 2.6 7.5 6v15.8h-5V17.9c0-1.7.3-3.9-3.7-3.7-2.6 0-4.7.7-4.7.7v17.3H0V.5L4.7 0zM35.6 10s-4.6 0-7.2.7c-3.1.7-5.1 2.5-5.4 5.4v15.7h5.1V17.9c0-1.2 0-2.1.8-2.6.8-.8 2.9-1 4.1-1 .8 0 2.5-.3 2.5-.3v-4h.1zM27.8 42.6c-9.3.2-20.5-1.5-27.8-4.8V35c7.6 3.3 17.9 5 27.2 4.7 10.1-.3 20.6-1.9 27.8-4.7v2.6c-8 3-17.3 4.7-27.2 5"/></g></symbol></svg>