<svg xmlns="http://www.w3.org/2000/svg" xmlns:xlink="http://www.w3.org/1999/xlink"><symbol id="brandlogo--desk" viewBox="0 0 54 42"><g><path d="M47.571 31.35V7.307l-6.3 2.829V4.479l6.686-3.472H54V31.35zM4.629.107v10.286s3.214-.643 6.043-.643c4.629 0 7.071 2.571 7.329 5.914v15.557h-4.886v-13.5c0-1.671.257-3.857-3.6-3.6-2.571 0-4.629.643-4.629.643v16.971H0V.621L4.629.107zM34.971 9.879s-4.5 0-7.071.643c-3.086.643-5.014 2.443-5.271 5.271v15.428h5.014v-13.5c0-1.157 0-2.057.771-2.571.771-.771 2.829-1.029 3.986-1.029.771 0 2.443-.257 2.443-.257V9.879h.128zM27.257 41.893C18.129 42.15 7.2 40.479 0 37.264v-2.829c7.457 3.214 17.614 4.886 26.743 4.629 9.9-.257 20.186-1.8 27.257-4.629v2.571c-7.843 2.958-16.971 4.63-26.743 4.887"/></g></symbol><symbol id="brandlogo--mobile" viewBox="0 0 54 42"><g><path d="M47.571 31.35V7.307l-6.3 2.829V4.479l6.686-3.472H54V31.35zM4.629.107v10.286s3.214-.643 6.043-.643c4.629 0 7.071 2.571 7.329 5.914v15.557h-4.886v-13.5c0-1.671.257-3.857-3.6-3.6-2.571 0-4.629.643-4.629.643v16.971H0V.621L4.629.107zM34.971 9.879s-4.5 0-7.071.643c-3.086.643-5.014 2.443-5.271 5.271v15.428h5.014v-13.5c0-1.157 0-2.057.771-2.571.771-.771 2.829-1.029 3.986-1.029.771 0 2.443-.257 2.443-.257V9.879h.128zM27.257 41.893C18.129 42.15 7.2 40.479 0 37.264v-2.829c7.457 3.214 17.614 4.886 26.743 4.629 9.9-.257 20.186-1.8 27.257-4.629v2.571c-7.843 2.958-16.971 4.63-26.743 4.887"/></g></symbol></svg>