<svg xmlns="http://www.w3.org/2000/svg" xmlns:xlink="http://www.w3.org/1999/xlink"><symbol id="hilfe" viewBox="0 0 526.5 527" preserveAspectRatio="xMidYMid meet"><path fill="#029AB0" d="M525.7 265.1c0 144.6-117.2 261.8-261.8 261.8S2 409.8 2 265.1C2 120.5 119.2 3.3 263.8 3.3s261.9 117.2 261.9 261.8z"/><path fill="#0C8FA3" d="M525.7 265.1c0-16.3-1.6-32.3-4.4-47.8L374.5 70.6 270 175l-10.5 130.1L283 415.2l72.9 95c99.2-37.2 169.8-132.9 169.8-245.1z"/><ellipse fill="#6D3500" cx="261.8" cy="355.6" rx="89.9" ry="97.3"/><path fill="#FFE9BA" d="m357.4 387.2-28.1-6.7h-.3c-15.2 0-28-9.3-28-24.4v-20.6c35-20.5 56.4-67.5 56.4-123.3 0-74.6-41.3-111.6-92.2-111.6-50.9 0-93.4 37-93.4 111.6C171.8 268 197 315 227 335.4V356c0 15.1-10.4 24.4-25.6 24.4h-.3l-28.1 6.7c-47.4 14.7-65.4 45.7-71.2 82.7 44.6 35.2 100.8 56.6 162.1 56.6 62.3 0 119.6-22.4 164.5-58.8-6.2-36-24.4-66-71-80.4z"/><path fill="#FFF" d="M263.8 527c62.6 0 120.1-22 165.1-58.7-6.2-36-25-66.7-71.5-81.1l-28.1-6.7h-.3c-5.5 0-9.9-1.2-15-3.1-10.9 15.2-28.7 25.8-48.8 25.8-20.1 0-37.8-11-48.8-26.1-5.8 2.2-9.6 3.5-15 3.5h-.3l-28.1 6.7c-47.3 14.6-65.5 46.3-71.5 83.2 44.7 35.2 101 56.5 162.3 56.5z"/><path fill="#F2F2F5" d="m247.2 527-28.3-50-12.2 21.3-27.5-112.2 6.8-1.7 23.3 95.4 9.7-16.9 36.1 64zm35.6 0 28.2-50 12.3 21.3 27.4-112.2-6.7-1.7-23.4 95.4-9.6-16.9-36.2 64z"/><path fill="#EED59C" d="m226.9 334.9.4 15.7c-.1.1-.1.3-.1.3h.1v3.8c7.1 2.3 14.1 3.3 21.6 3.3 18.3 0 31.3-3.7 45.5-16.2 3-2.7 5.9-5.6 8.6-8.7.1 0 .1 0 .3-.1.1-.1.1-.1.1-.3.5-.6 1.1-1.2 1.6-1.9-3.3 2.7-6.6 5.3-10.1 7.5-.1.1-.3.3-.5.3-10.8 6.1-18.5 5.9-30.8 5.9-27.3-.2-36.7-9.6-36.7-9.6z"/><path fill="#9C603E" d="M99.1 331.4c0 .2.1.3.1.5 0-.2.1-.5.1-.5s8.3 35.8 29 35.8c60.1.1 24.6-86.8 19.2-108.9-6.8-27.6-18.8-202.6 117.8-186.7 136.6 16 116.8 151.3 109.3 186.7-7.6 35.4-35.5 112.5 8.3 116.6 30.5 2.9 37.2-31.8 37.2-31.8s13.4 49-20.8 73.7c-34.2 24.8-80.9-36.2-80.9-36.2S354 237.8 301 211.5c-53-26.3-71.6-80.7-71.6-80.7-80.9 101.6-17.1 177.4-20.9 251 0 0-54.5 48.1-88.7 23.3-34.1-24.7-20.7-73.7-20.7-73.7z"/><path fill="#FFF" d="M385.3 101.8c0 28-23.4 50.7-52.2 50.7H191.7c-28.8 0-52.2-22.7-52.2-50.7 0-28 23.4-50.7 52.2-50.7h141.5c28.7 0 52.1 22.7 52.1 50.7z"/><path fill="#C6C6C6" d="M379.7 145.7c0 3.8-3.3 6.8-7.4 6.8H153.7c-4.1 0-7.4-3-7.4-6.8v-1.6c0-3.8 3.3-6.8 7.4-6.8h218.6c4.1 0 7.4 3.1 7.4 6.8v1.6z"/><path fill="#CC1A14" d="M281 93.5h-14v-14h-11v14h-14v10h14v14h11v-14h14z"/><path fill="#F07800" d="m217.3 378.9 46.9 148 49.1-148.3c0 .1-38.4 42.3-96 .3z"/></symbol><symbol id="home" viewBox="0 0 526.5 527" preserveAspectRatio="xMidYMid meet"><path fill="#F07800" d="M525.7 265.1c0 144.6-117.2 261.8-261.8 261.8C119.2 527 2 409.7 2 265.1 2 120.5 119.2 3.3 263.8 3.3c144.6 0 261.9 117.2 261.9 261.8z"/><path fill="#E06C03" d="M525.3 277.9 351.7 109.2l-89.8 92.5-9.4 116.6-17.6 79.2 108.7 117.1C445.3 482.1 520 389.1 525.3 277.9z"/><path fill="#FFE9BA" d="m348.1 400.4-25.1-4.8c-.1 0-2-.7-2.1-.8-9.5-3.4-24.4-11.4-24.4-25.3l.4-15.8C327.4 335 346 290.2 346 239c0-68.3-35.5-101.7-82.2-101.7s-83.3 33.4-83.3 101.7c0 51.2 20 93.4 50.4 112.2l.2 20.2c0 13.9-13.1 22.3-24.5 23.8-.1 0-.9.8-1 .8l-25.7 4.6c-45.2 14-61.7 42.6-66.4 78.4 42.6 29.9 94.4 47.8 150.3 47.8 56 0 107.8-18.1 150.3-48-4.7-35.9-20.8-64.4-66-78.4z"/><path fill="#ACCFE9" d="m349.3 399.3-26-5.8h-.2c-5.1 0-9.8-.5-13.9-3.2-10.1 13.9-26.5 23.3-45.1 23.3s-35-9.7-45.1-23.6c-4 2.7-8.8 3.5-13.9 3.5h-.3l-26 5.7c-45.6 13.9-61.7 43.7-66.5 79.4 6.7 4.7 13.7 9.1 20.8 13.4 38.5 22.2 83.1 34.9 130.7 34.9 53.9 0 104-16.3 145.6-44.2.5-.3 1-.7 1.5-1 1.6-1.1 3.1-2.1 4.7-3.2-4.7-35.6-20.8-65.3-66.3-79.2z"/><path fill="#EED59C" d="M296.6 350.8v14.6c.1.1.1.2.1.2h-.1v3c-6.5 2.1-13.3 3.2-20.2 3.2-16.8 0-32.4-6.6-45.4-18.1-2.8-2.5-5.4-5.1-7.9-8-.1 0-.1 0-.3-.1-.1-.1-.1-.1-.1-.3-.5-.5-1-1.1-1.5-1.7 3 2.5 6 4.9 9.2 6.9.1.1.3.3.5.3 9.9 5.6 20.6 8.6 31.9 8.6 25.2 0 33.8-8.6 33.8-8.6z"/><path fill="#9C603E" d="M307.1 158.6s-63.2 12.5-95.4 45.4c-32.3 32.9-11.9 58.9-21.1 97.6 0 0-28.2-35.8-22-92.9 6.3-57.1 35.6-97.8 95.2-92.3 0 0 19.8-13.3 51-3.9 31.3 9.4 83.8 130 18.6 194.5 0-.1 35.5-100.7-26.3-148.4z"/><path fill="#FFE9BA" d="M199.3 273.3c0 12.1-5.5 21.9-12.2 21.9-6.7 0-12.2-9.8-12.2-21.9 0-12.1 5.5-21.9 12.2-21.9 6.7-.1 12.2 9.8 12.2 21.9zm153.5 0c0 12.1-5.5 21.9-12.2 21.9-6.7 0-12.2-9.8-12.2-21.9 0-12.1 5.5-21.9 12.2-21.9 6.7-.1 12.2 9.8 12.2 21.9z"/><path fill="#9C603E" d="M204.3 236.3c2.7-20.7 7.3-32.3 7.3-32.3s-15.5 2.2-16.6 11.4c-.2 1.8.1 3.7.6 5.6-3.3 5.9-8.2 15.1-15.8 29.3 0 0 .6 2.2 2.7 2.5 3.5.6 4.4 3.8 14.9 20.4 0 0-3.4-19.6.7-46 2.8 5.1 6.2 9.1 6.2 9.1zm102.8-77.7c-3.1.7-47.5 30.8-65.2 34.9l8.9-24.5 56.3-10.4zm23.6 153.8s-5.2 53-66.8 53.3c0 0-46.9 2.4-65.9-51.4 0 0 18.3-11.2 23.3 11.2 4.6 20.7 80 18.8 88.3-1 0-.1 2.5-19.4 21.1-12.1z"/><path fill="#029AB0" d="M270.5 448.5h9.8c3.8 0 7.7-4.5 7.7-8.3V424c0-3.8-3.9-5.5-7.7-5.5h-27.8c-3.8 0-5.5 1.6-5.5 5.5v16.2c0 3.8 1.6 8.3 5.5 8.3h7.4l-16.5 77.9c6.8.5 13.6.7 20.5.7 7.1 0 14.1-.1 21-.7l-14.4-77.9z"/><path fill="#FFF" d="m225.2 385.7 37.9 29.2-19 37.6-46.8-60.5zm80.9-.5-37.9 29.2 18.9 37.6 46.9-60.5z"/><path fill="#1B2431" d="M372.1 503.5c-11.2-48.5-54.7-84.8-106.4-84.8-52.4 0-96.3 37.1-107 86.3 7.8 3.4 15.7 6.4 23.8 9.1.7-4.2 1.8-8.3 3.1-12.3 13.3 1.8 30.5 7.1 39.6 22.4 8.3 1.2 16.8 2.1 25.4 2.5l10.7-10.7c1.6-.4 2.9-.4 3.3 0l10.8 10.7c8.5-.4 16.8-1.2 25.1-2.3 10.3-17.6 31.2-22.1 44.9-23.1 1.3 3.8 2.4 7.7 3.1 11.7 8-2.9 15.9-6 23.6-9.5zm-107.6 3.6c-.5.3-1.1.6-1.6.9-.5-.3-1.1-.6-1.6-.9-29.6-15.2-37.2-38.7-39.2-51.2 12.7-7.7 27.6-12.2 43.5-12.2 13.8 0 26.9 3.4 38.4 9.4-1.1 11.5-7.5 37.5-39.5 54z"/><path fill="#0F303F" d="M265.9 496.9c-16.1 0-29.2 12.6-30 28.6 9.2 1 18.5 1.5 27.9 1.5 10.8 0 21.4-.7 31.9-2-1-15.7-14-28.1-29.8-28.1z"/><path fill="#1B2431" d="M332.3 162c0 10.8-28.8 19.6-64.3 19.6s-64.3-8.8-64.3-19.6c0-10.9 28.8-19.7 64.3-19.7 35.5.1 64.3 8.9 64.3 19.7z"/><path fill="#0F303F" d="M356.8 111.9c0-10.2-39.7-18.5-88.8-18.5-49 0-88.8 8.3-88.8 18.5 0 .2-.1.3-.1.5s-.2.4-.2.6v42.3c0 3.5 2.9 6.1 6.2 6.1h165.6c3.3 0 6.2-2.7 6.2-6.1V113c0-.2-.1-.4-.1-.6.1-.1 0-.3 0-.5z"/><path fill="#ACCFE9" d="M298.1 142.8c0 3.5-2.8 6.3-6.3 6.3h-47.7c-3.5 0-6.3-2.8-6.3-6.3v-20.6c0-3.5 2.8-6.3 6.3-6.3h47.7c3.4 0 6.3 2.8 6.3 6.3v20.6z"/></symbol><symbol id="kontakt" viewBox="0 0 526.5 527" preserveAspectRatio="xMidYMid meet"><path fill="#F5BB11" d="M525.7 265.1c0 144.6-117.2 261.8-261.8 261.8C119.2 527 2 409.7 2 265.1 2 120.5 119.2 3.3 263.8 3.3c144.6 0 261.9 117.2 261.9 261.8z"/><path fill="#E5A810" d="M525.7 265.1c0-5.1-.2-10.1-.5-15.1L370.1 95 265.7 199.4l-15.3 125.2 18 104.8 65.8 87.9c110.5-30.8 191.5-132 191.5-252.2z"/><path fill="#FFE9BA" d="m356 387.2-28.1-6.7h-.3c-15.2 0-27.3-9.4-27.3-24.6l-.8-21.2c30.4-20.5 56.8-67.8 56.8-123.6 0-74.6-41.4-112.5-92.4-112.5-51 0-92.8 38-92.8 112.6C171.2 267 197 315 227 335.4V356c0 15.2-11.8 24.4-27 24.4h-.3l-28.1 6.7c-47 14.5-65.1 45.2-71.1 81.8 44.8 35.8 101.5 57.6 163.3 57.6 61.8 0 118.5-22 163.3-57.8-6-36.5-24-67-71.1-81.5z"/><path fill="#005293" d="m356.1 387.2-28.1-6.7h-.3c-5.5 0-10.6-.1-15-3.1-10.9 15.2-28.7 25.8-48.8 25.8-20.1 0-37.8-11-48.8-26.1-4.4 3-9.6 3.5-15 3.5h-.3l-28.1 6.7c-47 14.5-65.4 45.6-71.4 82.2 9.5 7.6 19.8 14.3 30.2 21 39.1 23.2 84.7 36.6 133.4 36.6 47.2 0 91.4-12.5 129.6-34.4 11.8-7.3 23.3-14.5 33.8-23-6-36.7-24.2-68-71.2-82.5z"/><path fill="#EED59C" d="m299.6 335.4.7 15.8c.1.1.1.3.1.3h-.1v3.3c-7.1 2.3-15.2 3.8-22.7 3.8-18.3 0-35.4-7.2-49.6-19.8-3-2.7-5.9-5.6-8.6-8.7-.1 0-.1 0-.3-.1-.1-.2-.1-.2-.1-.3-.5-.5-1.1-1.2-1.6-1.9 3.3 2.7 6.6 5.3 10.1 7.5.1.1.3.3.5.3 10.8 6.1 22.5 9.4 34.8 9.4 27.4-.2 36.8-9.6 36.8-9.6z"/><path fill="#C77543" d="M317.3 151.3s-45.5 67.2-116.1 70.6c0 0-8.5 59.7 18.2 108.1 0 0-24.3 23.9-69.9-4.4 0 0-114.6-255 109-241.5 0 0 25.7-28 73-13.5 59.1 18.1 123.5 113.7 41 250.9 0 0-15 11-65.3 7.5.1 0 60.2-41.1 10.1-177.7z"/><path fill="#9C603E" d="M201.2 221.8s-34-8.2-25.1-50.1c0 0-21 36.6 24.2 61.1l.9-11z"/><path fill="#FFF" d="m189.6 385.4 33.9 113.4 83.7 3.8 35.2-116.4-14.5-2.7-64.1 20.4-59.7-20.7z"/><path fill="#C6C6C6" d="m215.1 378.9 46.3 40.3-20.7 41.1-54.5-74.3zm101.1 1.8-50 38.5 20.7 41.1 55.5-74.1z"/><path fill="#FFF" d="m220 373.7 41.4 31.8-20.7 41.2-51.1-66.2zm87.6 0-41.4 31.8 20.7 41.2 51.2-66.2z"/><path fill="#C6C6C6" d="M261.4 419.2h5.8v72.2h-5.8z"/><path fill="#0F303F" d="m343.2 252.3-2.2-.3c-3.7-.5-7.2 2.1-7.7 5.9l-1.9 14.5c-.1 1 0 1.9.2 2.8-4.9 10.3-18.2 30.2-49.1 34.8-.8-2.4-2.9-4.4-5.6-4.7l-18.4-2.4c-3.7-.5-7.2 2.1-7.7 5.9l-.3 2.6c-.5 3.7 2.1 7.2 5.9 7.7l18.4 2.4c3.2.4 6.1-1.5 7.2-4.5 32.8-4.5 48.4-24.9 54.8-37.1.2 0 .3.2.5.2l2.2.3c3.7.5 7.2-2.1 7.7-5.9l1.9-14.5c.4-3.8-2.2-7.2-5.9-7.7zm-139.3 18c.9 3.7-1.4 7.4-5.1 8.2l-2.2.5c-3.7.9-7.4-1.4-8.2-5l-3.4-14.2c-.9-3.7 1.4-7.3 5.1-8.2l2.2-.5c3.7-.9 7.3 1.4 8.2 5.1l3.4 14.1z"/><path fill="#FFF" d="M163.5 455.6h205.9v21H163.5z"/><path fill="#029AB0" d="M379.5 459.5H154.2l-.4 42.9c30.4 15.9 71.6 24.5 111.4 24.5 41.1 0 78-10.3 114.5-27.2l-.2-40.2z"/><path fill="#0F303F" d="M286.6 464.4c0 4.6-3.1 8.3-6.8 8.3h-31.5c-3.8 0-6.8-3.7-6.8-8.3V453c0-4.6 3.1-8.3 6.8-8.3h31.5c3.8 0 6.8 3.7 6.8 8.3v11.4z"/><path fill="#F5BB11" d="M378.8 397.7c-1.5 3-4.6 4.5-6.8 3.4-2.3-1.1-2.9-4.5-1.4-7.5s4.5-4.5 6.8-3.4 2.9 4.5 1.4 7.5z"/><path fill="#FB671D" d="m375.1 397.8-2.3-1.1c-3.4-1.7-7.5-.3-9.2 3.1L344.5 438c-1 2-.8 4.3.2 6.2-2.1.3-4 1.5-5 3.6L320.6 486c-.2.4-.2.9-.4 1.3-.1.2-.3.3-.4.6-2.9 5.9-4.3 21-2 22.2 2.3 1.1 13.8-10.2 16.8-16.1v-.1c.2-.2.4-.4.5-.7l19.1-38.3c1-2 .8-4.3-.2-6.2 2.1-.3 4-1.5 5-3.6l19.1-38.3c1.7-3.2.3-7.3-3-9z"/><path fill="#F5BB11" d="M346.4 462.7c-.7 1.4-2.4 2-3.9 1.3-1.4-.7-2-2.5-1.3-3.9l27.6-55.3c.7-1.4 2.4-2 3.9-1.3 1.4.7 2 2.5 1.3 3.9l-27.6 55.3z"/><path fill="#7E817A" d="M317.4 514.4c-.3.7-1.2 1-1.9.6s-1-1.2-.7-1.9l2.5-5.1c.4-.7 1.2-1 1.9-.6s1 1.2.7 1.9l-2.5 5.1z"/><path fill="#F5BB11" d="m360.845 405.744 1.652-3.31 14.227 7.097-1.652 3.311zM333.7 495.7l-14.2-7.1.9-2 14.2 7.1z"/></symbol><symbol id="suche" viewBox="0 0 526.5 527" preserveAspectRatio="xMidYMid meet"><path fill="#87D5E0" d="M526.6 264.2c0 144.6-117.2 261.8-261.8 261.8C120.2 526 3 408.8 3 264.2 3 119.6 120.2 2.3 264.8 2.3c144.6 0 261.8 117.3 261.8 261.9z"/><path fill="#7AC8CE" d="M351.8 511.1C453.2 475.4 526.1 379 526.6 265.4L381.9 120.7l-93.6 93.6-9.4 116.7-30.7 76.5 103.6 103.6z"/><path fill="#FFE9BA" d="m353.9 386.7-28.1-6.2h-.3c-15.2 0-24.4-10.2-24.4-25.4v-20.6c30-20.5 54.6-70 54.6-125.9 0-74.6-42.3-114.1-93.3-114.1h-.4c-50.9 0-91.8 39.5-91.8 114.1 0 55.9 19.8 105.4 56.8 125.9v20.6c0 15.2-14 25.4-29.1 25.4h-.3l-28.1 6.2c-46.1 14.2-64.3 43.8-70.7 79.4 45.2 37.1 103 59.7 166 59.7 60.5 0 116.2-21 160.5-55.4-5.7-37.7-23.5-68.9-71.4-83.7z"/><path fill="#019B72" d="M353.9 386.9s-36.1-7.6-43.1-10.1c-10.9 15.1-29 25.7-49.1 25.7s-37.8-10.5-48.8-25.7c-5.2 2.3-43.4 10.1-43.4 10.1-46.1 14.2-64.3 43.7-70.7 79.3 45.2 37.1 103 59.6 166 59.6 60.5 0 116.2-20.9 160.5-55.3-5.7-37.7-23.5-68.8-71.4-83.6z"/><path fill="#EED59C" d="m227.2 334.6.1 19.9c7.1 2.3 13 3 20.5 3 18.3 0 35.4-7.2 49.6-19.8 3-2.7.5-.2 3.2-3.3.1 0 3.6-2.8 3.8-2.9.1-.1 2.3-1.6 2.3-1.7 0-.3-.2-.6-.5-.6-3.6 2.5-8.5 5.3-8.8 5.3-10.8 6.1-22.5 9.4-34.8 9.4-27.3 0-35.4-9.3-35.4-9.3z"/><path fill="#FFB114" d="M208.1 150.3s45.5 67.2 116.1 70.6c0 0 8.5 59.7-18.2 108.1 0 0 24.3 23.9 69.9-4.4 0 0 114.6-255-109-241.5 0 0-25.7-28-73-13.5-59.1 18.1-123.5 113.7-41 251 0 0 15 10.9 65.3 7.4 0 0-60.2-41.1-10.1-177.7z"/><path fill="#BD8025" d="M324.3 220.9s34-8.2 25.1-50.1c0 0 21 36.6-24.2 61.1l-.9-11z"/><path fill="#006DC1" d="M310.4 232.5h-23.7c-11.7 0-21.2 9.4-21.2 21.1 0 .6 0 1.2.1 1.9-3.5-1.5-7-2.1-10.5-1.8-2 .2-3.8.7-5.5 1.3 0-.5.1-.9.1-1.4 0-11.7-9.5-21.1-21.2-21.1h-23.7c-11.7 0-21.2 9.3-21.2 21s9.5 21 21.2 21h23.7c5.2 0 9.9-1.8 13.6-4.9l.2.2s.2-.4.7-1c1.1-1 2-2.1 2.9-3.3 2.3-2.3 5.8-4.7 9.9-5.1 4.5-.5 9.1 1.4 13.9 5.6 3.9 5.2 10 8.5 17 8.5h23.7c11.7 0 21.2-9.3 21.2-21-.1-11.7-9.6-21-21.2-21zm-105.6 35c-7.9 0-14.3-6.1-14.3-14s6.4-14 14.3-14h23.7c7.9 0 14.3 6.2 14.3 14.1 0 2.8-.8 5.4-2.2 7.6-1.2 1.2-2.1 2.1-2.8 3-2.5 2.2-5.8 3.3-9.3 3.3h-23.7zm105.6 0h-23.7c-3 0-5.7-.8-8-2.3-1.3-1.4-2.6-2.6-3.9-3.8-1.5-2.3-2.4-4.8-2.4-7.8 0-7.9 6.4-14.1 14.3-14.1h23.7c7.9 0 14.3 6.1 14.3 14s-6.4 14-14.3 14z"/><circle opacity=".8" fill="#FFF" cx="304.1" cy="417.9" r="62.1"/><path fill="#005293" d="M303.5 345.5c-39 0-70 31.7-70 71.2 0 39 31.7 71.2 70 71.2 16.4 0 32.3-6.1 45.1-16.4l28.7 29.1c6.9-3.3 13.7-6.9 20.3-10.8L363.3 455c7.3-11.6 11-24.4 11-37.8-.8-40.1-31.9-71.7-70.8-71.7zm0 119.9c-26.8 0-48.7-21.9-48.7-49.3 0-26.8 21.9-49.3 48.7-49.3 26.8 0 48.7 21.9 48.7 49.3s-21.9 49.3-48.7 49.3z"/></symbol></svg>